# Blender 4.4.3
# www.blender.org
o SM_Type2_ConstructionBarrier_V1.0
v -1.000000 0.000000 0.393454
v -1.000000 1.500000 0.091430
v -1.000000 0.000000 -0.393454
v -1.000000 1.500000 -0.091430
v 1.000000 0.000000 0.393454
v 1.000000 1.500000 0.091430
v 1.000000 0.000000 -0.393454
v 1.000000 1.500000 -0.091430
v -1.000000 0.418831 0.393454
v -1.000000 0.418831 -0.393454
v 1.000000 0.418831 -0.393454
v 1.000000 0.418831 0.393454
v -1.000000 0.510099 0.221077
v -1.000000 0.510099 -0.221077
v 1.000000 0.510099 -0.221077
v 1.000000 0.510099 0.221077
v -1.000000 0.850779 0.176458
v -1.000000 0.850779 -0.176458
v 1.000000 0.850779 -0.176458
v 1.000000 0.850779 0.176458
v 0.000000 0.510099 0.221077
v 0.000000 0.850779 -0.176458
v 0.000000 0.850779 0.176458
v 0.000000 0.510099 -0.221077
v -0.500000 0.510099 0.221077
v -0.500000 0.850779 0.176458
v 0.750000 0.850779 0.176458
v 0.500000 0.510099 0.221077
v 0.750000 0.510099 0.221077
v 0.500000 0.850779 0.176458
v -0.250000 0.850779 0.176458
v 1.000000 0.850779 0.000000
v -0.250000 0.510099 0.221077
v 1.000000 0.510099 0.000000
v 0.250000 0.850779 0.176458
v 0.250000 0.510099 0.221077
v -0.750000 0.850779 0.176458
v -0.750000 0.510099 0.221077
v -1.000000 0.510099 0.000000
v -1.000000 0.850779 0.000000
v 0.500000 0.510099 -0.221077
v 0.500000 0.850779 -0.176458
v -0.500000 0.510099 -0.221077
v -0.500000 0.850779 -0.176458
v 0.750000 0.510099 -0.221077
v 0.750000 0.850779 -0.176458
v 0.250000 0.510099 -0.221077
v -0.250000 0.510099 -0.221077
v -0.250000 0.850779 -0.176458
v 0.250000 0.850779 -0.176458
v -0.750000 0.510099 -0.221077
v -0.750000 0.850779 -0.176458
vn -1.0000 -0.0000 -0.0000
vn -0.0000 0.1299 -0.9915
vn 1.0000 -0.0000 -0.0000
vn -0.0000 0.1299 0.9915
vn -0.0000 1.0000 -0.0000
vn -0.0000 -0.0000 1.0000
vn -0.0000 -0.0000 -1.0000
vn -0.0000 0.8838 0.4679
vn -0.0000 0.8838 -0.4679
vt 0.975201 0.958590
vt 0.960273 0.958590
vt 0.960273 0.903226
vt 0.975201 0.903226
vt 0.975201 0.930908
vt 0.960273 0.958890
vt 0.960273 0.903057
vt 0.914675 0.903057
vt 0.914675 0.958890
vt 0.920375 0.958890
vt 0.926074 0.958890
vt 0.931774 0.958890
vt 0.937474 0.958890
vt 0.943174 0.958890
vt 0.948873 0.958890
vt 0.954573 0.958890
vt 0.899747 0.903226
vt 0.914675 0.903226
vt 0.914675 0.958590
vt 0.899747 0.958590
vt 0.899747 0.930908
vt 0.914675 0.959480
vt 0.914675 0.902604
vt 0.960273 0.902604
vt 0.960273 0.959480
vt 0.954573 0.959480
vt 0.948873 0.959480
vt 0.943174 0.959480
vt 0.937474 0.959480
vt 0.931774 0.959480
vt 0.926074 0.959480
vt 0.920375 0.959480
vt 0.960273 0.904099
vt 0.914675 0.904099
vt 0.957641 0.903185
vt 0.957641 0.940671
vt 0.939951 0.940671
vt 0.939951 0.903185
vt 0.917748 0.903185
vt 0.917748 0.940671
vt 0.913234 0.940671
vt 0.913234 0.903185
vt 0.935437 0.903185
vt 0.935437 0.940671
vt 0.957641 0.958129
vt 0.955429 0.958129
vt 0.953218 0.958129
vt 0.951007 0.958129
vt 0.948796 0.958129
vt 0.946585 0.958129
vt 0.944374 0.958129
vt 0.942162 0.958129
vt 0.939951 0.958129
vt 0.917748 0.958129
vt 0.915491 0.958129
vt 0.913234 0.958129
vt 0.935437 0.958129
vt 0.933226 0.958129
vt 0.931015 0.958129
vt 0.928804 0.958129
vt 0.926593 0.958129
vt 0.924381 0.958129
vt 0.922170 0.958129
vt 0.919959 0.958129
vt 0.937694 0.958129
vt 0.080462 0.903532
vt 0.080462 0.984324
vt 0.076856 0.984324
vt 0.076856 0.903532
vt 0.016590 0.903532
vt 0.016590 0.984324
vt 0.013058 0.984324
vt 0.013058 0.903532
vt 0.044994 0.903532
vt 0.044994 0.984324
vt 0.041388 0.984324
vt 0.041388 0.903532
vt 0.052058 0.903532
vt 0.052058 0.984324
vt 0.048526 0.984324
vt 0.048526 0.903532
vt 0.574158 0.710765
vt 0.574158 0.791557
vt 0.570552 0.791557
vt 0.570552 0.710765
vt 0.073251 0.903532
vt 0.073251 0.984324
vt 0.069719 0.984324
vt 0.069719 0.903532
vt 0.531552 0.791557
vt 0.528020 0.791557
vt 0.528020 0.710765
vt 0.531552 0.710765
vt 0.538689 0.710765
vt 0.538689 0.791557
vt 0.535084 0.791557
vt 0.535084 0.710765
vt 0.066187 0.903532
vt 0.066187 0.984324
vt 0.062655 0.984324
vt 0.062655 0.903532
vt 0.545827 0.710765
vt 0.545827 0.791557
vt 0.542295 0.791557
vt 0.542295 0.710765
vt 0.552891 0.710765
vt 0.552891 0.791557
vt 0.549359 0.791557
vt 0.549359 0.710765
vt 0.559956 0.710765
vt 0.559956 0.791557
vt 0.556424 0.791557
vt 0.556424 0.710765
vt 0.059122 0.903532
vt 0.059122 0.984324
vt 0.055590 0.984324
vt 0.055590 0.903532
vt 0.567020 0.710765
vt 0.567020 0.791557
vt 0.563488 0.791557
vt 0.563488 0.710765
vt 0.023654 0.984324
vt 0.020122 0.984324
vt 0.020122 0.903532
vt 0.023654 0.903532
vt 0.510359 0.710765
vt 0.510359 0.791557
vt 0.506827 0.791557
vt 0.506827 0.710765
vt 0.030719 0.903532
vt 0.030719 0.984324
vt 0.027186 0.984324
vt 0.027186 0.903532
vt 0.517423 0.791557
vt 0.513891 0.791557
vt 0.513891 0.710765
vt 0.517423 0.710765
vt 0.037783 0.984324
vt 0.034251 0.984324
vt 0.034251 0.903532
vt 0.037783 0.903532
vt 0.524488 0.710765
vt 0.524488 0.791557
vt 0.520955 0.791557
vt 0.520955 0.710765
s 0
f 17/1/1 2/2/1 4/3/1 18/4/1 40/5/1
f 18/6/2 4/7/2 8/8/2 19/9/2 46/10/2 42/11/2 50/12/2 22/13/2 49/14/2 44/15/2 52/16/2
f 19/17/3 8/18/3 6/19/3 20/20/3 32/21/3
f 20/22/4 6/23/4 2/24/4 17/25/4 37/26/4 26/27/4 31/28/4 23/29/4 35/30/4 30/31/4 27/32/4
f 8/8/5 4/7/5 2/33/5 6/34/5
f 5/35/6 12/36/6 9/37/6 1/38/6
f 7/39/3 11/40/3 12/41/3 5/42/3
f 3/43/7 10/44/7 11/40/7 7/39/7
f 1/38/1 9/37/1 10/44/1 3/43/1
f 12/36/8 16/45/8 29/46/8 28/47/8 36/48/8 21/49/8 33/50/8 25/51/8 38/52/8 13/53/8 9/37/8
f 11/40/3 15/54/3 34/55/3 16/56/3 12/41/3
f 10/44/9 14/57/9 51/58/9 43/59/9 48/60/9 24/61/9 47/62/9 41/63/9 45/64/9 15/54/9 11/40/9
f 9/37/1 13/53/1 39/65/1 14/57/1 10/44/1
f 15/66/3 19/67/3 32/68/3 34/69/3
f 41/70/2 42/71/2 46/72/2 45/73/2
f 13/74/1 17/75/1 40/76/1 39/77/1
f 25/78/4 26/79/4 37/80/4 38/81/4
f 34/82/3 32/83/3 20/84/3 16/85/3
f 16/86/4 20/87/4 27/88/4 29/89/4
f 52/90/2 44/91/2 43/92/2 51/93/2
f 39/94/1 40/95/1 18/96/1 14/97/1
f 28/98/4 30/99/4 35/100/4 36/101/4
f 38/102/4 37/103/4 17/104/4 13/105/4
f 33/106/4 31/107/4 26/108/4 25/109/4
f 36/110/4 35/111/4 23/112/4 21/113/4
f 21/114/4 23/115/4 31/116/4 33/117/4
f 29/118/4 27/119/4 30/120/4 28/121/4
f 22/122/2 50/123/2 47/124/2 24/125/2
f 45/126/2 46/127/2 19/128/2 15/129/2
f 43/130/2 44/131/2 49/132/2 48/133/2
f 50/134/2 42/135/2 41/136/2 47/137/2
f 18/138/2 52/139/2 51/140/2 14/141/2
f 48/142/2 49/143/2 22/144/2 24/145/2
