# Blender 4.4.3
# www.blender.org
o SM_Type1_ConstructionBarrier_V1.0
v -1.000000 1.270838 0.164611
v -1.000000 0.894961 0.301419
v -1.000000 1.305040 0.258581
v -1.000000 0.929163 0.395389
v 1.000000 0.329162 0.615389
v 1.000000 0.705040 0.478581
v 1.000000 0.294960 0.521419
v 1.000000 0.670838 0.384611
v 0.411753 -0.003739 0.622248
v 0.411753 1.394296 0.117044
v 0.411753 -0.001084 0.547118
v 0.411753 1.366951 0.041914
v 0.651608 -0.003739 0.622248
v 0.651608 1.394296 0.117044
v 0.651608 -0.001084 0.547118
v 0.651608 1.366951 0.041914
v 1.000000 1.270838 0.164611
v 1.000000 0.894961 0.301419
v 1.000000 1.305040 0.258581
v 1.000000 0.929163 0.395389
v -1.000000 0.329162 0.615389
v -1.000000 0.705040 0.478581
v -1.000000 0.294960 0.521419
v -1.000000 0.670838 0.384611
v -0.411753 -0.003739 0.622248
v -0.411753 1.394296 0.117044
v -0.411753 -0.001084 0.547118
v -0.411753 1.366951 0.041914
v -0.651608 -0.003739 0.622248
v -0.651608 1.394296 0.117044
v -0.651608 -0.001084 0.547118
v -0.651608 1.366951 0.041914
v 0.866075 0.670838 0.384611
v 0.483037 0.670838 0.384611
v 0.099999 0.670838 0.384611
v -0.283039 0.670838 0.384611
v -0.666076 0.670838 0.384611
v 0.666075 0.329162 0.615389
v 0.283037 0.329162 0.615389
v -0.100001 0.329162 0.615389
v -0.483039 0.329162 0.615389
v -0.866076 0.329162 0.615389
v -0.866075 0.294960 0.521419
v -0.483037 0.294960 0.521419
v -0.099999 0.294960 0.521419
v 0.283039 0.294960 0.521419
v 0.666076 0.294960 0.521419
v -0.666075 0.705040 0.478581
v -0.283037 0.705040 0.478581
v 0.100001 0.705040 0.478581
v 0.483039 0.705040 0.478581
v 0.866076 0.705040 0.478581
v 0.866075 1.270838 0.164611
v 0.483037 1.270838 0.164611
v 0.099999 1.270838 0.164611
v -0.283039 1.270838 0.164611
v -0.666076 1.270838 0.164611
v 0.666075 0.929163 0.395389
v 0.283037 0.929163 0.395389
v -0.100001 0.929163 0.395389
v -0.483039 0.929163 0.395389
v -0.866076 0.929163 0.395389
v -0.866075 0.894961 0.301419
v -0.483037 0.894961 0.301419
v -0.099999 0.894961 0.301419
v 0.283039 0.894961 0.301419
v 0.666076 0.894961 0.301419
v -0.666075 1.305040 0.258581
v -0.283037 1.305040 0.258581
v 0.100001 1.305040 0.258581
v 0.483039 1.305040 0.258581
v 0.866076 1.305040 0.258581
v 0.411753 1.366951 0.000000
v 0.651608 1.366951 0.000000
v 0.651608 1.394296 0.000000
v 0.411753 1.394296 0.000000
v -0.411753 1.366951 0.000000
v -0.651608 1.366951 0.000000
v -0.651608 1.394296 0.000000
v -0.411753 1.394296 0.000000
v -1.000000 1.270838 -0.164611
v -1.000000 0.894961 -0.301419
v -1.000000 1.305040 -0.258581
v -1.000000 0.929163 -0.395389
v 1.000000 0.329162 -0.615389
v 1.000000 0.705040 -0.478581
v 1.000000 0.294960 -0.521419
v 1.000000 0.670838 -0.384611
v 0.411753 -0.003739 -0.622248
v 0.411753 1.394296 -0.117044
v 0.411753 -0.001084 -0.547118
v 0.411753 1.366951 -0.041914
v 0.651608 -0.003739 -0.622248
v 0.651608 1.394296 -0.117044
v 0.651608 -0.001084 -0.547118
v 0.651608 1.366951 -0.041914
v 1.000000 1.270838 -0.164611
v 1.000000 0.894961 -0.301419
v 1.000000 1.305040 -0.258581
v 1.000000 0.929163 -0.395389
v -1.000000 0.329162 -0.615389
v -1.000000 0.705040 -0.478581
v -1.000000 0.294960 -0.521419
v -1.000000 0.670838 -0.384611
v -0.411753 -0.003739 -0.622248
v -0.411753 1.394296 -0.117044
v -0.411753 -0.001084 -0.547118
v -0.411753 1.366951 -0.041914
v -0.651608 -0.003739 -0.622248
v -0.651608 1.394296 -0.117044
v -0.651608 -0.001084 -0.547118
v -0.651608 1.366951 -0.041914
v 0.866075 0.670838 -0.384611
v 0.483037 0.670838 -0.384611
v 0.099999 0.670838 -0.384611
v -0.283039 0.670838 -0.384611
v -0.666076 0.670838 -0.384611
v 0.666075 0.329162 -0.615389
v 0.283037 0.329162 -0.615389
v -0.100001 0.329162 -0.615389
v -0.483039 0.329162 -0.615389
v -0.866076 0.329162 -0.615389
v -0.866075 0.294960 -0.521419
v -0.483037 0.294960 -0.521419
v -0.099999 0.294960 -0.521419
v 0.283039 0.294960 -0.521419
v 0.666076 0.294960 -0.521419
v -0.666075 0.705040 -0.478581
v -0.283037 0.705040 -0.478581
v 0.100001 0.705040 -0.478581
v 0.483039 0.705040 -0.478581
v 0.866076 0.705040 -0.478581
v 0.866075 1.270838 -0.164611
v 0.483037 1.270838 -0.164611
v 0.099999 1.270838 -0.164611
v -0.283039 1.270838 -0.164611
v -0.666076 1.270838 -0.164611
v 0.666075 0.929163 -0.395389
v 0.283037 0.929163 -0.395389
v -0.100001 0.929163 -0.395389
v -0.483039 0.929163 -0.395389
v -0.866076 0.929163 -0.395389
v -0.866075 0.894961 -0.301419
v -0.483037 0.894961 -0.301419
v -0.099999 0.894961 -0.301419
v 0.283039 0.894961 -0.301419
v 0.666076 0.894961 -0.301419
v -0.666075 1.305040 -0.258581
v -0.283037 1.305040 -0.258581
v 0.100001 1.305040 -0.258581
v 0.483039 1.305040 -0.258581
v 0.866076 1.305040 -0.258581
vn -0.0000 -0.3420 -0.9397
vn -1.0000 -0.0000 -0.0000
vn -0.0000 -0.9397 0.3420
vn 1.0000 -0.0000 -0.0000
vn -0.0000 -0.3464 -0.9381
vn -0.0000 0.3399 0.9405
vn -0.0000 0.9397 -0.3420
vn -0.0000 0.3420 0.9397
vn -0.0000 1.0000 -0.0000
vn -0.0000 -1.0000 -0.0000
vn -0.0000 -0.3420 0.9397
vn -0.0000 -0.9397 -0.3420
vn -0.0000 -0.3464 0.9381
vn -0.0000 0.3399 -0.9405
vn -0.0000 0.9397 0.3420
vn -0.0000 0.3420 -0.9397
vt 0.078867 0.902913
vt 0.011620 0.902913
vt 0.011620 0.979522
vt 0.079679 0.979522
vt 0.011620 0.909884
vt 0.011620 0.986493
vt 0.563624 0.716485
vt 0.508441 0.716485
vt 0.497752 0.710676
vt 0.573735 0.710676
vt 0.598615 0.319856
vt 0.624288 0.390899
vt 0.628105 0.389509
vt 0.602433 0.319991
vt 0.508441 0.774517
vt 0.565157 0.774517
vt 0.497752 0.780326
vt 0.078867 0.909884
vt 0.630235 0.389509
vt 0.630235 0.390899
vt 0.079679 0.986493
vt 0.575847 0.780326
s 0
f 63/1/1 2/2/1 1/3/1 57/4/1
f 2/2/2 4/5/2 3/6/2 1/3/2
f 42/7/3 21/8/3 23/9/3 43/10/3
f 7/1/4 8/2/4 6/3/4 5/4/4
f 18/7/4 17/8/4 19/9/4 20/10/4
f 9/11/2 10/12/2 12/13/2 11/14/2
f 11/14/5 12/13/5 16/13/5 15/14/5
f 15/14/4 16/13/4 14/12/4 13/11/4
f 13/11/6 14/12/6 10/12/6 9/11/6
f 16/13/7 12/13/7 10/12/7 14/12/7
f 33/5/7 52/6/7 6/3/7 8/2/7
f 43/10/1 23/9/1 24/15/1 37/16/1
f 53/17/7 72/15/7 19/9/7 17/8/7
f 58/16/8 20/10/8 19/9/8 72/15/8
f 62/18/3 4/5/3 2/2/3 63/1/3
f 23/9/2 21/8/2 22/17/2 24/15/2
f 25/11/4 27/14/4 28/13/4 26/12/4
f 27/14/5 31/14/5 32/13/5 28/13/5
f 31/14/2 29/11/2 30/12/2 32/13/2
f 29/11/6 25/11/6 26/12/6 30/12/6
f 32/13/7 30/12/7 26/12/7 28/13/7
f 74/19/4 75/20/4 14/12/4 16/13/4
f 76/20/2 73/19/2 12/13/2 10/12/2
f 38/21/8 5/4/8 6/3/8 52/6/8
f 21/8/8 42/7/8 48/22/8 22/17/8
f 42/1/8 41/2/8 49/3/8 48/4/8
f 41/7/8 40/8/8 50/9/8 49/10/8
f 40/1/8 39/2/8 51/3/8 50/4/8
f 39/7/8 38/8/8 52/9/8 51/10/8
f 7/1/1 47/18/1 33/5/1 8/2/1
f 47/17/1 46/22/1 34/16/1 33/15/1
f 46/5/1 45/18/1 35/21/1 34/6/1
f 45/17/1 44/22/1 36/16/1 35/15/1
f 44/5/1 43/18/1 37/21/1 36/6/1
f 24/15/7 22/17/7 48/22/7 37/16/7
f 37/21/7 48/4/7 49/3/7 36/6/7
f 36/16/7 49/10/7 50/9/7 35/15/7
f 35/21/7 50/4/7 51/3/7 34/6/7
f 34/16/7 51/10/7 52/9/7 33/15/7
f 5/4/3 38/21/3 47/18/3 7/1/3
f 38/8/3 39/7/3 46/22/3 47/17/3
f 39/2/3 40/1/3 45/18/3 46/5/3
f 40/8/3 41/7/3 44/22/3 45/17/3
f 41/2/3 42/1/3 43/18/3 44/5/3
f 4/5/8 62/18/8 68/21/8 3/6/8
f 62/7/8 61/8/8 69/9/8 68/10/8
f 61/1/8 60/2/8 70/3/8 69/4/8
f 60/7/8 59/8/8 71/9/8 70/10/8
f 59/1/8 58/2/8 72/3/8 71/4/8
f 18/7/1 67/22/1 53/17/1 17/8/1
f 67/5/1 66/18/1 54/21/1 53/6/1
f 66/17/1 65/22/1 55/16/1 54/15/1
f 65/5/1 64/18/1 56/21/1 55/6/1
f 64/17/1 63/22/1 57/16/1 56/15/1
f 1/3/7 3/6/7 68/21/7 57/4/7
f 57/16/7 68/10/7 69/9/7 56/15/7
f 56/21/7 69/4/7 70/3/7 55/6/7
f 55/16/7 70/10/7 71/9/7 54/15/7
f 54/21/7 71/4/7 72/3/7 53/6/7
f 20/10/3 58/16/3 67/22/3 18/7/3
f 58/2/3 59/1/3 66/18/3 67/5/3
f 59/8/3 60/7/3 65/22/3 66/17/3
f 60/2/3 61/1/3 64/18/3 65/5/3
f 61/8/3 62/7/3 63/22/3 64/17/3
f 26/12/9 80/20/9 79/20/9 30/12/9
f 32/13/2 30/12/2 79/20/2 78/19/2
f 32/13/10 78/19/10 77/19/10 28/13/10
f 26/12/4 28/13/4 77/19/4 80/20/4
f 14/12/9 75/20/9 76/20/9 10/12/9
f 12/13/10 73/19/10 74/19/10 16/13/10
f 143/1/11 137/4/11 81/3/11 82/2/11
f 82/2/2 81/3/2 83/6/2 84/5/2
f 122/7/12 123/10/12 103/9/12 101/8/12
f 87/1/4 85/4/4 86/3/4 88/2/4
f 98/7/4 100/10/4 99/9/4 97/8/4
f 89/11/2 91/14/2 92/13/2 90/12/2
f 91/14/13 95/14/13 96/13/13 92/13/13
f 95/14/4 93/11/4 94/12/4 96/13/4
f 93/11/14 89/11/14 90/12/14 94/12/14
f 96/13/15 94/12/15 90/12/15 92/13/15
f 113/5/15 88/2/15 86/3/15 132/6/15
f 123/10/11 117/16/11 104/15/11 103/9/11
f 133/17/15 97/8/15 99/9/15 152/15/15
f 138/16/16 152/15/16 99/9/16 100/10/16
f 142/18/12 143/1/12 82/2/12 84/5/12
f 103/9/2 104/15/2 102/17/2 101/8/2
f 105/11/4 106/12/4 108/13/4 107/14/4
f 107/14/13 108/13/13 112/13/13 111/14/13
f 111/14/2 112/13/2 110/12/2 109/11/2
f 109/11/14 110/12/14 106/12/14 105/11/14
f 112/13/15 108/13/15 106/12/15 110/12/15
f 74/19/4 96/13/4 94/12/4 75/20/4
f 76/20/2 90/12/2 92/13/2 73/19/2
f 118/21/16 132/6/16 86/3/16 85/4/16
f 101/8/16 102/17/16 128/22/16 122/7/16
f 122/1/16 128/4/16 129/3/16 121/2/16
f 121/7/16 129/10/16 130/9/16 120/8/16
f 120/1/16 130/4/16 131/3/16 119/2/16
f 119/7/16 131/10/16 132/9/16 118/8/16
f 87/1/11 88/2/11 113/5/11 127/18/11
f 127/17/11 113/15/11 114/16/11 126/22/11
f 126/5/11 114/6/11 115/21/11 125/18/11
f 125/17/11 115/15/11 116/16/11 124/22/11
f 124/5/11 116/6/11 117/21/11 123/18/11
f 104/15/15 117/16/15 128/22/15 102/17/15
f 117/21/15 116/6/15 129/3/15 128/4/15
f 116/16/15 115/15/15 130/9/15 129/10/15
f 115/21/15 114/6/15 131/3/15 130/4/15
f 114/16/15 113/15/15 132/9/15 131/10/15
f 85/4/12 87/1/12 127/18/12 118/21/12
f 118/8/12 127/17/12 126/22/12 119/7/12
f 119/2/12 126/5/12 125/18/12 120/1/12
f 120/8/12 125/17/12 124/22/12 121/7/12
f 121/2/12 124/5/12 123/18/12 122/1/12
f 84/5/16 83/6/16 148/21/16 142/18/16
f 142/7/16 148/10/16 149/9/16 141/8/16
f 141/1/16 149/4/16 150/3/16 140/2/16
f 140/7/16 150/10/16 151/9/16 139/8/16
f 139/1/16 151/4/16 152/3/16 138/2/16
f 98/7/11 97/8/11 133/17/11 147/22/11
f 147/5/11 133/6/11 134/21/11 146/18/11
f 146/17/11 134/15/11 135/16/11 145/22/11
f 145/5/11 135/6/11 136/21/11 144/18/11
f 144/17/11 136/15/11 137/16/11 143/22/11
f 81/3/15 137/4/15 148/21/15 83/6/15
f 137/16/15 136/15/15 149/9/15 148/10/15
f 136/21/15 135/6/15 150/3/15 149/4/15
f 135/16/15 134/15/15 151/9/15 150/10/15
f 134/21/15 133/6/15 152/3/15 151/4/15
f 100/10/12 98/7/12 147/22/12 138/16/12
f 138/2/12 147/5/12 146/18/12 139/1/12
f 139/8/12 146/17/12 145/22/12 140/7/12
f 140/2/12 145/5/12 144/18/12 141/1/12
f 141/8/12 144/17/12 143/22/12 142/7/12
f 106/12/9 110/12/9 79/20/9 80/20/9
f 112/13/2 78/19/2 79/20/2 110/12/2
f 112/13/10 108/13/10 77/19/10 78/19/10
f 106/12/4 80/20/4 77/19/4 108/13/4
f 94/12/9 90/12/9 76/20/9 75/20/9
f 92/13/10 96/13/10 74/19/10 73/19/10
