# Blender 4.4.3
# www.blender.org
o SM_End_Handrail_V1.0
v -0.019364 -0.020251 1.617369
v -0.009682 0.781502 1.634139
v 0.019365 -0.020251 1.617369
v 0.009682 0.781502 1.634139
v 0.038729 -0.020251 1.650909
v 0.019365 0.781502 1.650909
v 0.019365 -0.020251 1.684449
v 0.009682 0.781502 1.667679
v -0.019364 -0.020251 1.684449
v -0.009682 0.781502 1.667679
v -0.038729 -0.020251 1.650909
v -0.019364 0.781502 1.650909
v -0.019364 0.750690 1.755390
v -0.019364 0.750690 0.848352
v 0.019365 0.750690 1.755390
v 0.019365 0.750690 0.848352
v 0.038729 0.784230 1.755390
v 0.038729 0.784230 0.848352
v 0.019365 0.817770 1.755390
v 0.019365 0.817770 0.848352
v -0.019364 0.817770 1.755390
v -0.019364 0.817770 0.848352
v -0.038729 0.784230 1.755390
v -0.038729 0.784230 0.848352
v -0.019364 0.564230 1.931850
v 0.019365 0.564230 1.931850
v 0.038729 0.564230 1.965390
v -0.019364 0.564230 1.998930
v -0.038729 0.564230 1.965390
v 0.023359 0.657411 1.901751
v 0.021713 0.722491 1.839520
v 0.038729 0.747563 1.852057
v 0.038729 0.670897 1.928723
v -0.023358 0.684383 1.955696
v -0.021712 0.772635 1.864593
v -0.038729 0.747563 1.852057
v -0.038729 0.670897 1.928723
v -0.023358 0.657411 1.901751
v -0.021712 0.722491 1.839520
v 0.021713 0.772635 1.864593
v 0.023359 0.684383 1.955696
v 0.019365 0.564414 1.998931
v -0.019364 0.397954 1.745391
v 0.019365 0.397954 1.745391
v 0.038729 0.364414 1.745391
v 0.019365 0.330874 1.745391
v -0.019364 0.330874 1.745391
v -0.038729 0.364414 1.745391
v 0.023359 0.418053 1.838571
v 0.021713 0.480284 1.903652
v 0.038729 0.467748 1.928724
v 0.038729 0.391081 1.852057
v -0.023358 0.364108 1.865543
v -0.021712 0.455211 1.953796
v -0.038729 0.467748 1.928724
v -0.038729 0.391081 1.852057
v -0.023358 0.418053 1.838571
v -0.021712 0.480284 1.903652
v 0.021713 0.455211 1.953795
v 0.023359 0.364108 1.865543
v -0.019364 0.397954 0.847314
v 0.019365 0.397954 0.847314
v 0.038729 0.364414 0.847314
v 0.019365 0.330874 0.847314
v -0.019364 0.330874 0.847314
v -0.038729 0.364414 0.847314
v -0.019364 -0.009303 0.817369
v -0.009682 0.781502 0.834139
v 0.019365 -0.009303 0.817369
v 0.009682 0.781502 0.834139
v 0.038729 -0.009303 0.850909
v 0.019365 0.781502 0.850909
v 0.019365 -0.009303 0.884449
v 0.009682 0.781502 0.867679
v -0.019364 -0.009303 0.884449
v -0.009682 0.781502 0.867679
v -0.038729 -0.009303 0.850909
v -0.019364 0.781502 0.850909
v -0.019364 -0.001974 -0.002271
v -0.009682 0.781502 0.014499
v 0.019365 -0.001974 -0.002271
v 0.009682 0.781502 0.014499
v 0.038729 -0.001974 0.031269
v 0.019365 0.781502 0.031269
v 0.019365 -0.001974 0.064809
v 0.009682 0.781502 0.048039
v -0.019364 -0.001974 0.064809
v -0.009682 0.781502 0.048039
v -0.038729 -0.001974 0.031269
v -0.019364 0.781502 0.031269
v -0.019364 -0.007564 -0.758862
v -0.009682 0.781502 -0.742092
v 0.019365 -0.007564 -0.758862
v 0.009682 0.781502 -0.742092
v 0.038729 -0.007564 -0.725321
v 0.019365 0.781502 -0.725321
v 0.019365 -0.007564 -0.691781
v 0.009682 0.781502 -0.708551
v -0.019364 -0.007564 -0.691781
v -0.009682 0.781502 -0.708551
v -0.038729 -0.007564 -0.725321
v -0.019364 0.781502 -0.725321
v -0.019364 0.753514 -0.996940
v 0.038729 0.367237 -0.996940
v 0.019365 0.753514 -0.996940
v 0.019365 0.400777 -0.996940
v -0.038729 0.367237 -0.996940
v -0.038729 0.785742 -0.996940
v 0.019365 0.332386 -0.996940
v -0.019364 0.819282 -0.996940
v 0.019365 0.819282 -0.996940
v -0.019364 0.332386 -0.996940
v 0.038729 0.785742 -0.996940
v -0.019364 0.399466 -0.996940
vn -0.0000 0.0209 -0.9998
vn 0.8658 0.0209 -0.4999
vn 0.8658 0.0209 0.4999
vn -0.0000 0.0209 0.9998
vn -0.8658 0.0209 0.4999
vn -0.8658 0.0209 -0.4999
vn -0.0000 -1.0000 -0.0000
vn 0.8660 -0.5000 -0.0000
vn 0.8660 0.5000 -0.0000
vn -0.0000 1.0000 -0.0000
vn -0.8660 0.5000 -0.0000
vn -0.8660 -0.5000 -0.0000
vn 0.8704 -0.1715 -0.4614
vn -0.8716 0.1492 0.4670
vn -0.0000 -0.3074 -0.9516
vn 0.8717 0.1492 0.4667
vn -0.8704 -0.1715 -0.4614
vn -0.0007 0.3388 0.9409
vn -0.0000 0.9242 0.3820
vn -0.0000 0.7183 0.6958
vn -0.8521 -0.4890 -0.1865
vn -0.8625 -0.3490 -0.3664
vn 0.8522 0.4895 0.1848
vn 0.8624 0.3652 0.3505
vn -0.0000 -0.9482 -0.3178
vn -0.0000 -0.6911 -0.7228
vn -0.8522 0.4895 0.1848
vn -0.8624 0.3652 0.3505
vn 0.8521 -0.4890 -0.1865
vn 0.8625 -0.3490 -0.3664
vn 0.8722 0.4721 -0.1279
vn -0.8724 -0.4762 0.1104
vn -0.0000 0.9775 -0.2108
vn 0.8724 -0.4762 0.1104
vn -0.8722 0.4721 -0.1279
vn -0.0000 -0.9638 0.2666
vn 0.0009 -0.3822 0.9241
vn -0.0000 -0.6958 0.7183
vn -0.8521 0.1869 -0.4889
vn -0.8625 0.3664 -0.3490
vn 0.8520 -0.1851 0.4898
vn 0.8624 -0.3505 0.3652
vn -0.0000 0.3184 -0.9480
vn -0.0000 0.7228 -0.6911
vn -0.8522 -0.1851 0.4894
vn -0.8624 -0.3505 0.3652
vn 0.8521 0.1869 -0.4889
vn 0.8625 0.3664 -0.3490
vn -0.0000 0.0212 -0.9998
vn 0.8658 0.0212 -0.4999
vn 0.8658 0.0212 0.4999
vn -0.0000 0.0212 0.9998
vn -0.8658 0.0212 0.4999
vn -0.8658 0.0212 -0.4999
vn -0.0000 0.0214 -0.9998
vn 0.8658 0.0214 -0.4999
vn 0.8658 0.0214 0.4999
vn -0.0000 0.0214 0.9998
vn -0.8658 0.0214 0.4999
vn -0.8658 0.0214 -0.4999
vn 0.8660 0.5000 0.0004
vn -0.0000 1.0000 0.0008
vn -0.0000 -1.0000 -0.0008
vn -0.8660 0.5000 0.0004
vn -0.8702 -0.4928 -0.0006
vn -0.8617 0.5074 0.0006
vn -0.0169 0.9999 0.0012
vn 0.8617 -0.5074 -0.0006
vn 0.8702 -0.4928 -0.0006
vn 0.8660 0.5000 0.0008
vn -0.8617 -0.5074 -0.0006
vn -0.0000 -1.0000 -0.0015
vt 0.977440 0.611782
vt 0.977440 0.684827
vt 0.965238 0.684827
vt 0.965238 0.611782
vt 0.953036 0.684827
vt 0.953036 0.611782
vt 0.940834 0.684827
vt 0.940834 0.611782
vt 0.928632 0.684827
vt 0.928632 0.611782
vt 0.916430 0.684827
vt 0.916430 0.611782
vt 0.904228 0.684827
vt 0.904228 0.611782
vt 0.908723 0.665069
vt 0.981220 0.665069
vt 0.981220 0.669373
vt 0.908723 0.669373
vt 0.981220 0.673677
vt 0.908723 0.673677
vt 0.897025 0.653100
vt 0.894869 0.654830
vt 0.891938 0.641143
vt 0.894619 0.641143
vt 0.892713 0.656561
vt 0.889258 0.641143
vt 0.889258 0.641167
vt 0.899995 0.667885
vt 0.901999 0.661451
vt 0.900997 0.664668
vt 0.902075 0.622386
vt 0.900997 0.618925
vt 0.909522 0.615503
vt 0.909522 0.619807
vt 0.899919 0.615464
vt 0.909522 0.611199
vt 0.892865 0.627154
vt 0.896873 0.630371
vt 0.894869 0.628763
vt 0.981303 0.611199
vt 0.981303 0.615503
vt 0.981303 0.619807
vt 0.890842 0.672765
vt 0.890478 0.668638
vt 0.943726 0.668483
vt 0.944089 0.672611
vt 0.885589 0.612717
vt 0.938820 0.612692
vt 0.885952 0.616845
vt 0.939197 0.616986
vt 0.886315 0.620973
vt 0.939546 0.620947
vt 0.939560 0.621114
vt 0.890116 0.664510
vt 0.943389 0.664651
s 0
f 1/1/1 2/2/1 4/3/1 3/4/1
f 3/4/2 4/3/2 6/5/2 5/6/2
f 5/6/3 6/5/3 8/7/3 7/8/3
f 7/8/4 8/7/4 10/9/4 9/10/4
f 9/10/5 10/9/5 12/11/5 11/12/5
f 11/12/6 12/11/6 2/13/6 1/14/6
f 13/15/7 14/16/7 16/16/7 15/15/7
f 15/15/8 16/16/8 18/17/8 17/18/8
f 17/18/9 18/17/9 20/19/9 19/20/9
f 19/20/10 20/19/10 22/19/10 21/20/10
f 21/20/11 22/19/11 24/17/11 23/18/11
f 23/18/12 24/17/12 14/16/12 13/15/12
f 30/21/13 33/22/13 27/23/13 26/24/13
f 34/25/14 37/22/14 29/23/14 28/26/14
f 38/21/15 30/21/15 26/24/15 25/24/15
f 33/22/16 41/25/16 42/27/16 27/23/16
f 37/22/17 38/21/17 25/24/17 29/23/17
f 41/25/18 34/25/18 28/26/18 42/27/18
f 19/20/19 21/20/19 35/28/19 40/28/19
f 40/28/20 35/28/20 34/25/20 41/25/20
f 23/18/21 13/15/21 39/29/21 36/30/21
f 36/30/22 39/29/22 38/21/22 37/22/22
f 17/18/23 19/20/23 40/28/23 32/30/23
f 32/30/24 40/28/24 41/25/24 33/22/24
f 13/15/25 15/15/25 31/29/25 39/29/25
f 39/29/26 31/29/26 30/21/26 38/21/26
f 21/20/27 23/18/27 36/30/27 35/28/27
f 35/28/28 36/30/28 37/22/28 34/25/28
f 15/15/29 17/18/29 32/30/29 31/29/29
f 31/29/30 32/30/30 33/22/30 30/21/30
f 49/31/31 52/32/31 45/33/31 44/34/31
f 53/35/32 56/32/32 48/33/32 47/36/32
f 57/31/33 49/31/33 44/34/33 43/34/33
f 52/32/34 60/35/34 46/36/34 45/33/34
f 56/32/35 57/31/35 43/34/35 48/33/35
f 60/35/36 53/35/36 47/36/36 46/36/36
f 42/27/37 28/26/37 54/37/37 59/37/37
f 59/37/38 54/37/38 53/35/38 60/35/38
f 29/23/39 25/24/39 58/38/39 55/39/39
f 55/39/40 58/38/40 57/31/40 56/32/40
f 27/23/41 42/27/41 59/37/41 51/39/41
f 51/39/42 59/37/42 60/35/42 52/32/42
f 25/24/43 26/24/43 50/38/43 58/38/43
f 58/38/44 50/38/44 49/31/44 57/31/44
f 28/26/45 29/23/45 55/39/45 54/37/45
f 54/37/46 55/39/46 56/32/46 53/35/46
f 26/24/47 27/23/47 51/39/47 50/38/47
f 50/38/48 51/39/48 52/32/48 49/31/48
f 45/33/8 46/36/8 64/40/8 63/41/8
f 43/34/10 44/34/10 62/42/10 61/42/10
f 48/33/11 43/34/11 61/42/11 66/41/11
f 46/36/7 47/36/7 65/40/7 64/40/7
f 44/34/9 45/33/9 63/41/9 62/42/9
f 47/36/12 48/33/12 66/41/12 65/40/12
f 67/1/49 68/2/49 70/3/49 69/4/49
f 69/4/50 70/3/50 72/5/50 71/6/50
f 71/6/51 72/5/51 74/7/51 73/8/51
f 73/8/52 74/7/52 76/9/52 75/10/52
f 75/10/53 76/9/53 78/11/53 77/12/53
f 77/12/54 78/11/54 68/13/54 67/14/54
f 79/1/55 80/2/55 82/3/55 81/4/55
f 81/4/56 82/3/56 84/5/56 83/6/56
f 83/6/57 84/5/57 86/7/57 85/8/57
f 85/8/58 86/7/58 88/9/58 87/10/58
f 87/10/59 88/9/59 90/11/59 89/12/59
f 89/12/60 90/11/60 80/13/60 79/14/60
f 91/1/49 92/2/49 94/3/49 93/4/49
f 93/4/50 94/3/50 96/5/50 95/6/50
f 95/6/51 96/5/51 98/7/51 97/8/51
f 97/8/52 98/7/52 100/9/52 99/10/52
f 99/10/53 100/9/53 102/11/53 101/12/53
f 101/12/54 102/11/54 92/13/54 91/14/54
f 20/43/61 18/44/61 113/45/61 111/46/61
f 22/43/62 20/43/62 111/46/62 110/46/62
f 64/47/63 65/47/63 112/48/63 109/48/63
f 24/44/64 22/43/64 110/46/64 108/45/64
f 65/47/65 66/49/65 107/50/65 112/48/65
f 66/49/66 61/51/66 114/52/66 107/50/66
f 61/51/67 62/51/67 106/53/67 114/52/67
f 18/44/68 16/54/68 105/55/68 113/45/68
f 63/49/69 64/47/69 109/48/69 104/50/69
f 62/51/70 63/49/70 104/50/70 106/53/70
f 14/54/71 24/44/71 108/45/71 103/55/71
f 16/54/72 14/54/72 103/55/72 105/55/72
