# Blender 4.4.3
# www.blender.org
o SM_Normal_Handrail_V1.0
v -0.019364 -0.020251 2.657000
v -0.009682 0.781502 2.673770
v 0.019365 -0.020251 2.657000
v 0.009682 0.781502 2.673770
v 0.038729 -0.020251 2.690540
v 0.019365 0.781502 2.690540
v 0.019365 -0.020251 2.724080
v 0.009682 0.781502 2.707310
v -0.019364 -0.020251 2.724080
v -0.009682 0.781502 2.707310
v -0.038729 -0.020251 2.690540
v -0.019364 0.781502 2.690540
v -0.019364 0.750690 2.745254
v -0.019364 0.750690 1.885139
v 0.019365 0.750690 2.745254
v 0.019365 0.750690 1.885139
v 0.038729 0.784230 2.745254
v 0.038729 0.784230 1.885139
v 0.019365 0.817770 2.745254
v 0.019365 0.817770 1.885139
v -0.019364 0.817770 2.745254
v -0.019364 0.817770 1.885139
v -0.038729 0.784230 2.745254
v -0.038729 0.784230 1.885139
v -0.019364 0.564230 2.912585
v 0.019365 0.564230 2.912585
v 0.038729 0.564230 2.944391
v -0.019364 0.564230 2.976196
v -0.038729 0.564230 2.944391
v 0.023359 0.657411 2.884044
v 0.021713 0.722491 2.825032
v 0.038729 0.747563 2.836920
v 0.038729 0.670897 2.909621
v -0.023358 0.684383 2.935198
v -0.021712 0.772635 2.848808
v -0.038729 0.747563 2.836920
v -0.038729 0.670897 2.909621
v -0.023358 0.657411 2.884044
v -0.021712 0.722491 2.825032
v 0.021713 0.772635 2.848808
v 0.023359 0.684383 2.935198
v 0.019365 0.564414 2.976196
v -0.019364 0.397954 2.735772
v 0.019365 0.397954 2.735772
v 0.038729 0.364414 2.735772
v 0.019365 0.330874 2.735772
v -0.019364 0.330874 2.735772
v -0.038729 0.364414 2.735772
v 0.023359 0.418053 2.824132
v 0.021713 0.480284 2.885846
v 0.038729 0.467748 2.909621
v 0.038729 0.391081 2.836921
v -0.023358 0.364108 2.849709
v -0.021712 0.455211 2.933396
v -0.038729 0.467748 2.909621
v -0.038729 0.391081 2.836921
v -0.023358 0.418053 2.824132
v -0.021712 0.480284 2.885846
v 0.021713 0.455211 2.933396
v 0.023359 0.364108 2.849709
v -0.019364 0.397954 1.884156
v 0.019365 0.397954 1.884156
v 0.038729 0.364414 1.884156
v 0.019365 0.330874 1.884156
v -0.019364 0.330874 1.884156
v -0.038729 0.364414 1.884156
v -0.019364 -0.009303 1.957000
v -0.009682 0.781502 1.973770
v 0.019365 -0.009303 1.957000
v 0.009682 0.781502 1.973770
v 0.038729 -0.009303 1.990540
v 0.019365 0.781502 1.990540
v 0.019365 -0.009303 2.024080
v 0.009682 0.781502 2.007310
v -0.019364 -0.009303 2.024080
v -0.009682 0.781502 2.007310
v -0.038729 -0.009303 1.990540
v -0.019364 0.781502 1.990540
v -0.019364 -0.001974 1.137360
v -0.009682 0.781502 1.154130
v 0.019365 -0.001974 1.137360
v 0.009682 0.781502 1.154130
v 0.038729 -0.001974 1.170900
v 0.019365 0.781502 1.170900
v 0.019365 -0.001974 1.204440
v 0.009682 0.781502 1.187670
v -0.019364 -0.001974 1.204440
v -0.009682 0.781502 1.187670
v -0.038729 -0.001974 1.170900
v -0.019364 0.781502 1.170900
v -0.019364 -0.007564 0.380769
v -0.009682 0.781502 0.397539
v 0.019365 -0.007564 0.380769
v 0.009682 0.781502 0.397539
v 0.038729 -0.007564 0.414309
v 0.019365 0.781502 0.414309
v 0.019365 -0.007564 0.447850
v 0.009682 0.781502 0.431079
v -0.019364 -0.007564 0.447850
v -0.009682 0.781502 0.431079
v -0.038729 -0.007564 0.414309
v -0.019364 0.781502 0.414309
v -0.019364 0.753514 0.000000
v 0.038729 0.367237 0.000000
v 0.019365 0.753514 0.000000
v 0.019365 0.400777 0.000000
v -0.038729 0.367237 0.000000
v -0.038729 0.785742 0.000000
v 0.019365 0.332386 0.000000
v -0.019364 0.819282 0.000000
v 0.019365 0.819282 0.000000
v -0.019364 0.332386 0.000000
v 0.038729 0.785742 0.000000
v -0.019364 0.399466 0.000000
v -0.019364 -0.020251 -2.657000
v -0.009682 0.781502 -2.673770
v 0.019365 -0.020251 -2.657000
v 0.009682 0.781502 -2.673770
v 0.038729 -0.020251 -2.690540
v 0.019365 0.781502 -2.690540
v 0.019365 -0.020251 -2.724080
v 0.009682 0.781502 -2.707310
v -0.019364 -0.020251 -2.724080
v -0.009682 0.781502 -2.707310
v -0.038729 -0.020251 -2.690540
v -0.019364 0.781502 -2.690540
v -0.019364 0.750690 -2.745254
v -0.019364 0.750690 -1.885139
v 0.019365 0.750690 -2.745254
v 0.019365 0.750690 -1.885139
v 0.038729 0.784230 -2.745254
v 0.038729 0.784230 -1.885139
v 0.019365 0.817770 -2.745254
v 0.019365 0.817770 -1.885139
v -0.019364 0.817770 -2.745254
v -0.019364 0.817770 -1.885139
v -0.038729 0.784230 -2.745254
v -0.038729 0.784230 -1.885139
v -0.019364 0.564230 -2.912585
v 0.019365 0.564230 -2.912585
v 0.038729 0.564230 -2.944391
v -0.019364 0.564230 -2.976196
v -0.038729 0.564230 -2.944391
v 0.023359 0.657411 -2.884043
v 0.021713 0.722491 -2.825032
v 0.038729 0.747563 -2.836920
v 0.038729 0.670897 -2.909621
v -0.023358 0.684383 -2.935198
v -0.021712 0.772635 -2.848808
v -0.038729 0.747563 -2.836920
v -0.038729 0.670897 -2.909621
v -0.023358 0.657411 -2.884043
v -0.021712 0.722491 -2.825032
v 0.021713 0.772635 -2.848808
v 0.023359 0.684383 -2.935198
v 0.019365 0.564414 -2.976196
v -0.019364 0.397954 -2.735772
v 0.019365 0.397954 -2.735772
v 0.038729 0.364414 -2.735772
v 0.019365 0.330874 -2.735772
v -0.019364 0.330874 -2.735772
v -0.038729 0.364414 -2.735772
v 0.023359 0.418053 -2.824132
v 0.021713 0.480284 -2.885846
v 0.038729 0.467748 -2.909621
v 0.038729 0.391081 -2.836921
v -0.023358 0.364108 -2.849709
v -0.021712 0.455211 -2.933396
v -0.038729 0.467748 -2.909621
v -0.038729 0.391081 -2.836921
v -0.023358 0.418053 -2.824132
v -0.021712 0.480284 -2.885846
v 0.021713 0.455211 -2.933396
v 0.023359 0.364108 -2.849709
v -0.019364 0.397954 -1.884155
v 0.019365 0.397954 -1.884155
v 0.038729 0.364414 -1.884155
v 0.019365 0.330874 -1.884155
v -0.019364 0.330874 -1.884155
v -0.038729 0.364414 -1.884155
v -0.019364 -0.009303 -1.957000
v -0.009682 0.781502 -1.973770
v 0.019365 -0.009303 -1.957000
v 0.009682 0.781502 -1.973770
v 0.038729 -0.009303 -1.990540
v 0.019365 0.781502 -1.990540
v 0.019365 -0.009303 -2.024080
v 0.009682 0.781502 -2.007310
v -0.019364 -0.009303 -2.024080
v -0.009682 0.781502 -2.007310
v -0.038729 -0.009303 -1.990540
v -0.019364 0.781502 -1.990540
v -0.019364 -0.001974 -1.137360
v -0.009682 0.781502 -1.154130
v 0.019365 -0.001974 -1.137360
v 0.009682 0.781502 -1.154130
v 0.038729 -0.001974 -1.170900
v 0.019365 0.781502 -1.170900
v 0.019365 -0.001974 -1.204440
v 0.009682 0.781502 -1.187670
v -0.019364 -0.001974 -1.204440
v -0.009682 0.781502 -1.187670
v -0.038729 -0.001974 -1.170900
v -0.019364 0.781502 -1.170900
v -0.019364 -0.007564 -0.380769
v -0.009682 0.781502 -0.397539
v 0.019365 -0.007564 -0.380769
v 0.009682 0.781502 -0.397539
v 0.038729 -0.007564 -0.414309
v 0.019365 0.781502 -0.414309
v 0.019365 -0.007564 -0.447850
v 0.009682 0.781502 -0.431079
v -0.019364 -0.007564 -0.447850
v -0.009682 0.781502 -0.431079
v -0.038729 -0.007564 -0.414309
v -0.019364 0.781502 -0.414309
vn -0.0000 0.0209 -0.9998
vn 0.8658 0.0209 -0.4999
vn 0.8658 0.0209 0.4999
vn -0.0000 0.0209 0.9998
vn -0.8658 0.0209 0.4999
vn -0.8658 0.0209 -0.4999
vn -0.0000 -1.0000 -0.0000
vn 0.8660 -0.5000 -0.0000
vn 0.8660 0.5000 -0.0000
vn -0.0000 1.0000 -0.0000
vn -0.8660 0.5000 -0.0000
vn -0.8660 -0.5000 -0.0000
vn 0.8602 -0.1695 -0.4809
vn -0.8611 0.1474 0.4866
vn -0.0000 -0.2929 -0.9562
vn 0.8613 0.1474 0.4863
vn -0.8602 -0.1695 -0.4809
vn -0.0007 0.3232 0.9463
vn -0.0000 0.9167 0.3996
vn -0.0000 0.6995 0.7146
vn -0.8504 -0.4881 -0.1963
vn -0.8561 -0.3464 -0.3835
vn 0.8506 0.4885 0.1945
vn 0.8565 0.3627 0.3671
vn -0.0000 -0.9428 -0.3333
vn -0.0000 -0.6717 -0.7408
vn -0.8506 0.4885 0.1945
vn -0.8565 0.3627 0.3671
vn 0.8504 -0.4881 -0.1963
vn 0.8561 -0.3464 -0.3835
vn 0.8714 0.4717 -0.1348
vn -0.8718 -0.4758 0.1163
vn -0.0000 0.9751 -0.2218
vn 0.8718 -0.4758 0.1163
vn -0.8714 0.4717 -0.1348
vn -0.0000 -0.9600 0.2800
vn 0.0008 -0.3652 0.9309
vn -0.0000 -0.6765 0.7364
vn -0.8409 0.1844 -0.5088
vn -0.8567 0.3639 -0.3656
vn 0.8407 -0.1826 0.5097
vn 0.8560 -0.3479 0.3823
vn -0.0000 0.3035 -0.9528
vn -0.0000 0.7042 -0.7100
vn -0.8410 -0.1826 0.5093
vn -0.8560 -0.3479 0.3823
vn 0.8409 0.1844 -0.5088
vn 0.8567 0.3639 -0.3656
vn -0.0000 0.0212 -0.9998
vn 0.8658 0.0212 -0.4999
vn 0.8658 0.0212 0.4999
vn -0.0000 0.0212 0.9998
vn -0.8658 0.0212 0.4999
vn -0.8658 0.0212 -0.4999
vn -0.0000 0.0214 -0.9998
vn 0.8658 0.0214 -0.4999
vn 0.8658 0.0214 0.4999
vn -0.0000 0.0214 0.9998
vn -0.8658 0.0214 0.4999
vn -0.8658 0.0214 -0.4999
vn 0.8660 0.5000 0.0004
vn -0.0000 1.0000 0.0008
vn -0.0000 -1.0000 -0.0008
vn -0.8660 0.5000 0.0004
vn -0.8702 -0.4928 -0.0006
vn -0.8617 0.5074 0.0006
vn -0.0169 0.9999 0.0012
vn 0.8617 -0.5074 -0.0006
vn 0.8702 -0.4928 -0.0006
vn 0.8660 0.5000 0.0007
vn -0.8617 -0.5074 -0.0006
vn -0.0000 -1.0000 -0.0015
vn 0.8602 -0.1695 0.4809
vn -0.8611 0.1474 -0.4866
vn -0.0000 -0.2929 0.9562
vn 0.8613 0.1474 -0.4863
vn -0.8602 -0.1695 0.4809
vn -0.0007 0.3232 -0.9463
vn -0.0000 0.9167 -0.3996
vn -0.0000 0.6995 -0.7146
vn -0.8504 -0.4881 0.1963
vn -0.8561 -0.3464 0.3835
vn 0.8506 0.4885 -0.1945
vn 0.8565 0.3627 -0.3671
vn -0.0000 -0.9428 0.3333
vn -0.0000 -0.6717 0.7408
vn -0.8506 0.4885 -0.1945
vn -0.8565 0.3627 -0.3671
vn 0.8504 -0.4881 0.1963
vn 0.8561 -0.3464 0.3835
vn 0.8714 0.4717 0.1348
vn -0.8718 -0.4758 -0.1163
vn -0.0000 0.9751 0.2218
vn 0.8718 -0.4758 -0.1163
vn -0.8714 0.4717 0.1348
vn -0.0000 -0.9600 -0.2800
vn 0.0008 -0.3652 -0.9309
vn -0.0000 -0.6765 -0.7364
vn -0.8409 0.1844 0.5088
vn -0.8567 0.3639 0.3656
vn 0.8407 -0.1826 -0.5097
vn 0.8560 -0.3479 -0.3823
vn -0.0000 0.3035 0.9528
vn -0.0000 0.7042 0.7100
vn -0.8410 -0.1826 -0.5093
vn -0.8560 -0.3479 -0.3823
vn 0.8409 0.1844 0.5088
vn 0.8567 0.3639 0.3656
vn 0.8660 0.5000 -0.0004
vn -0.0000 1.0000 -0.0008
vn -0.0000 -1.0000 0.0008
vn -0.8660 0.5000 -0.0004
vn -0.8702 -0.4928 0.0006
vn -0.8617 0.5074 -0.0006
vn -0.0169 0.9999 -0.0012
vn 0.8617 -0.5074 0.0006
vn 0.8702 -0.4928 0.0006
vn 0.8660 0.5000 -0.0007
vn -0.8617 -0.5074 0.0006
vn -0.0000 -1.0000 0.0015
vt 0.977440 0.611782
vt 0.977440 0.684827
vt 0.965238 0.684827
vt 0.965238 0.611782
vt 0.953036 0.684827
vt 0.953036 0.611782
vt 0.940834 0.684827
vt 0.940834 0.611782
vt 0.928632 0.684827
vt 0.928632 0.611782
vt 0.916430 0.684827
vt 0.916430 0.611782
vt 0.904228 0.684827
vt 0.904228 0.611782
vt 0.908723 0.665069
vt 0.981220 0.665069
vt 0.981220 0.669373
vt 0.908723 0.669373
vt 0.981220 0.673677
vt 0.908723 0.673677
vt 0.897025 0.653100
vt 0.894869 0.654830
vt 0.891938 0.641143
vt 0.894619 0.641143
vt 0.892713 0.656561
vt 0.889258 0.641143
vt 0.889258 0.641167
vt 0.899995 0.667885
vt 0.901999 0.661451
vt 0.900997 0.664668
vt 0.902075 0.622386
vt 0.900997 0.618925
vt 0.909522 0.615503
vt 0.909522 0.619807
vt 0.899919 0.615464
vt 0.909522 0.611199
vt 0.892865 0.627154
vt 0.896873 0.630371
vt 0.894869 0.628763
vt 0.981303 0.611199
vt 0.981303 0.615503
vt 0.981303 0.619807
vt 0.890842 0.672765
vt 0.890478 0.668638
vt 0.943726 0.668483
vt 0.944089 0.672611
vt 0.885589 0.612717
vt 0.938820 0.612692
vt 0.885952 0.616845
vt 0.939197 0.616986
vt 0.886315 0.620973
vt 0.939546 0.620947
vt 0.939560 0.621114
vt 0.890116 0.664510
vt 0.943389 0.664651
s 0
f 1/1/1 2/2/1 4/3/1 3/4/1
f 3/4/2 4/3/2 6/5/2 5/6/2
f 5/6/3 6/5/3 8/7/3 7/8/3
f 7/8/4 8/7/4 10/9/4 9/10/4
f 9/10/5 10/9/5 12/11/5 11/12/5
f 11/12/6 12/11/6 2/13/6 1/14/6
f 13/15/7 14/16/7 16/16/7 15/15/7
f 15/15/8 16/16/8 18/17/8 17/18/8
f 17/18/9 18/17/9 20/19/9 19/20/9
f 19/20/10 20/19/10 22/19/10 21/20/10
f 21/20/11 22/19/11 24/17/11 23/18/11
f 23/18/12 24/17/12 14/16/12 13/15/12
f 30/21/13 33/22/13 27/23/13 26/24/13
f 34/25/14 37/22/14 29/23/14 28/26/14
f 38/21/15 30/21/15 26/24/15 25/24/15
f 33/22/16 41/25/16 42/27/16 27/23/16
f 37/22/17 38/21/17 25/24/17 29/23/17
f 41/25/18 34/25/18 28/26/18 42/27/18
f 19/20/19 21/20/19 35/28/19 40/28/19
f 40/28/20 35/28/20 34/25/20 41/25/20
f 23/18/21 13/15/21 39/29/21 36/30/21
f 36/30/22 39/29/22 38/21/22 37/22/22
f 17/18/23 19/20/23 40/28/23 32/30/23
f 32/30/24 40/28/24 41/25/24 33/22/24
f 13/15/25 15/15/25 31/29/25 39/29/25
f 39/29/26 31/29/26 30/21/26 38/21/26
f 21/20/27 23/18/27 36/30/27 35/28/27
f 35/28/28 36/30/28 37/22/28 34/25/28
f 15/15/29 17/18/29 32/30/29 31/29/29
f 31/29/30 32/30/30 33/22/30 30/21/30
f 49/31/31 52/32/31 45/33/31 44/34/31
f 53/35/32 56/32/32 48/33/32 47/36/32
f 57/31/33 49/31/33 44/34/33 43/34/33
f 52/32/34 60/35/34 46/36/34 45/33/34
f 56/32/35 57/31/35 43/34/35 48/33/35
f 60/35/36 53/35/36 47/36/36 46/36/36
f 42/27/37 28/26/37 54/37/37 59/37/37
f 59/37/38 54/37/38 53/35/38 60/35/38
f 29/23/39 25/24/39 58/38/39 55/39/39
f 55/39/40 58/38/40 57/31/40 56/32/40
f 27/23/41 42/27/41 59/37/41 51/39/41
f 51/39/42 59/37/42 60/35/42 52/32/42
f 25/24/43 26/24/43 50/38/43 58/38/43
f 58/38/44 50/38/44 49/31/44 57/31/44
f 28/26/45 29/23/45 55/39/45 54/37/45
f 54/37/46 55/39/46 56/32/46 53/35/46
f 26/24/47 27/23/47 51/39/47 50/38/47
f 50/38/48 51/39/48 52/32/48 49/31/48
f 45/33/8 46/36/8 64/40/8 63/41/8
f 43/34/10 44/34/10 62/42/10 61/42/10
f 48/33/11 43/34/11 61/42/11 66/41/11
f 46/36/7 47/36/7 65/40/7 64/40/7
f 44/34/9 45/33/9 63/41/9 62/42/9
f 47/36/12 48/33/12 66/41/12 65/40/12
f 67/1/49 68/2/49 70/3/49 69/4/49
f 69/4/50 70/3/50 72/5/50 71/6/50
f 71/6/51 72/5/51 74/7/51 73/8/51
f 73/8/52 74/7/52 76/9/52 75/10/52
f 75/10/53 76/9/53 78/11/53 77/12/53
f 77/12/54 78/11/54 68/13/54 67/14/54
f 79/1/55 80/2/55 82/3/55 81/4/55
f 81/4/56 82/3/56 84/5/56 83/6/56
f 83/6/57 84/5/57 86/7/57 85/8/57
f 85/8/58 86/7/58 88/9/58 87/10/58
f 87/10/59 88/9/59 90/11/59 89/12/59
f 89/12/60 90/11/60 80/13/60 79/14/60
f 91/1/49 92/2/49 94/3/49 93/4/49
f 93/4/50 94/3/50 96/5/50 95/6/50
f 95/6/51 96/5/51 98/7/51 97/8/51
f 97/8/52 98/7/52 100/9/52 99/10/52
f 99/10/53 100/9/53 102/11/53 101/12/53
f 101/12/54 102/11/54 92/13/54 91/14/54
f 20/43/61 18/44/61 113/45/61 111/46/61
f 22/43/62 20/43/62 111/46/62 110/46/62
f 64/47/63 65/47/63 112/48/63 109/48/63
f 24/44/64 22/43/64 110/46/64 108/45/64
f 65/47/65 66/49/65 107/50/65 112/48/65
f 66/49/66 61/51/66 114/52/66 107/50/66
f 61/51/67 62/51/67 106/53/67 114/52/67
f 18/44/68 16/54/68 105/55/68 113/45/68
f 63/49/69 64/47/69 109/48/69 104/50/69
f 62/51/70 63/49/70 104/50/70 106/53/70
f 14/54/71 24/44/71 108/45/71 103/55/71
f 16/54/72 14/54/72 103/55/72 105/55/72
f 115/1/4 117/4/4 118/3/4 116/2/4
f 117/4/3 119/6/3 120/5/3 118/3/3
f 119/6/2 121/8/2 122/7/2 120/5/2
f 121/8/1 123/10/1 124/9/1 122/7/1
f 123/10/6 125/12/6 126/11/6 124/9/6
f 125/12/5 115/14/5 116/13/5 126/11/5
f 127/15/7 129/15/7 130/16/7 128/16/7
f 129/15/8 131/18/8 132/17/8 130/16/8
f 131/18/9 133/20/9 134/19/9 132/17/9
f 133/20/10 135/20/10 136/19/10 134/19/10
f 135/20/11 137/18/11 138/17/11 136/19/11
f 137/18/12 127/15/12 128/16/12 138/17/12
f 144/21/73 140/24/73 141/23/73 147/22/73
f 148/25/74 142/26/74 143/23/74 151/22/74
f 152/21/75 139/24/75 140/24/75 144/21/75
f 147/22/76 141/23/76 156/27/76 155/25/76
f 151/22/77 143/23/77 139/24/77 152/21/77
f 155/25/78 156/27/78 142/26/78 148/25/78
f 133/20/79 154/28/79 149/28/79 135/20/79
f 154/28/80 155/25/80 148/25/80 149/28/80
f 137/18/81 150/30/81 153/29/81 127/15/81
f 150/30/82 151/22/82 152/21/82 153/29/82
f 131/18/83 146/30/83 154/28/83 133/20/83
f 146/30/84 147/22/84 155/25/84 154/28/84
f 127/15/85 153/29/85 145/29/85 129/15/85
f 153/29/86 152/21/86 144/21/86 145/29/86
f 135/20/87 149/28/87 150/30/87 137/18/87
f 149/28/88 148/25/88 151/22/88 150/30/88
f 129/15/89 145/29/89 146/30/89 131/18/89
f 145/29/90 144/21/90 147/22/90 146/30/90
f 163/31/91 158/34/91 159/33/91 166/32/91
f 167/35/92 161/36/92 162/33/92 170/32/92
f 171/31/93 157/34/93 158/34/93 163/31/93
f 166/32/94 159/33/94 160/36/94 174/35/94
f 170/32/95 162/33/95 157/34/95 171/31/95
f 174/35/96 160/36/96 161/36/96 167/35/96
f 156/27/97 173/37/97 168/37/97 142/26/97
f 173/37/98 174/35/98 167/35/98 168/37/98
f 143/23/99 169/39/99 172/38/99 139/24/99
f 169/39/100 170/32/100 171/31/100 172/38/100
f 141/23/101 165/39/101 173/37/101 156/27/101
f 165/39/102 166/32/102 174/35/102 173/37/102
f 139/24/103 172/38/103 164/38/103 140/24/103
f 172/38/104 171/31/104 163/31/104 164/38/104
f 142/26/105 168/37/105 169/39/105 143/23/105
f 168/37/106 167/35/106 170/32/106 169/39/106
f 140/24/107 164/38/107 165/39/107 141/23/107
f 164/38/108 163/31/108 166/32/108 165/39/108
f 159/33/8 177/41/8 178/40/8 160/36/8
f 157/34/10 175/42/10 176/42/10 158/34/10
f 162/33/11 180/41/11 175/42/11 157/34/11
f 160/36/7 178/40/7 179/40/7 161/36/7
f 158/34/9 176/42/9 177/41/9 159/33/9
f 161/36/12 179/40/12 180/41/12 162/33/12
f 181/1/52 183/4/52 184/3/52 182/2/52
f 183/4/51 185/6/51 186/5/51 184/3/51
f 185/6/50 187/8/50 188/7/50 186/5/50
f 187/8/49 189/10/49 190/9/49 188/7/49
f 189/10/54 191/12/54 192/11/54 190/9/54
f 191/12/53 181/14/53 182/13/53 192/11/53
f 193/1/58 195/4/58 196/3/58 194/2/58
f 195/4/57 197/6/57 198/5/57 196/3/57
f 197/6/56 199/8/56 200/7/56 198/5/56
f 199/8/55 201/10/55 202/9/55 200/7/55
f 201/10/60 203/12/60 204/11/60 202/9/60
f 203/12/59 193/14/59 194/13/59 204/11/59
f 205/1/52 207/4/52 208/3/52 206/2/52
f 207/4/51 209/6/51 210/5/51 208/3/51
f 209/6/50 211/8/50 212/7/50 210/5/50
f 211/8/49 213/10/49 214/9/49 212/7/49
f 213/10/54 215/12/54 216/11/54 214/9/54
f 215/12/53 205/14/53 206/13/53 216/11/53
f 134/43/109 111/46/109 113/45/109 132/44/109
f 136/43/110 110/46/110 111/46/110 134/43/110
f 178/47/111 109/48/111 112/48/111 179/47/111
f 138/44/112 108/45/112 110/46/112 136/43/112
f 179/47/113 112/48/113 107/50/113 180/49/113
f 180/49/114 107/50/114 114/52/114 175/51/114
f 175/51/115 114/52/115 106/53/115 176/51/115
f 132/44/116 113/45/116 105/55/116 130/54/116
f 177/49/117 104/50/117 109/48/117 178/47/117
f 176/51/118 106/53/118 104/50/118 177/49/118
f 128/54/119 103/55/119 108/45/119 138/44/119
f 130/54/120 105/55/120 103/55/120 128/54/120
