# Blender 4.4.3
# www.blender.org
o SM_Curved_Road_V1.1
v -6.000000 0.000000 14.250000
v -6.000000 0.100000 14.250000
v -6.000000 -0.000000 20.000000
v -6.000000 0.100000 20.000000
v 6.000000 0.000000 14.250000
v 6.000000 0.100000 14.250000
v 6.000000 -0.000000 20.000000
v 6.000000 0.100000 20.000000
v 1.044845 0.000000 0.697341
v 1.044845 0.100000 0.697341
v 8.608187 0.111249 8.608433
v 8.613240 0.000000 8.608714
v 19.997503 0.100000 5.983903
v 19.997503 -0.000000 5.983903
v 14.232955 0.100000 6.005995
v 14.232955 0.000000 6.005995
v -3.579231 0.100000 6.949954
v -3.561148 0.000000 6.980092
v 6.625681 0.100000 11.791326
v 6.625681 0.000000 11.791326
v 19.997503 0.100000 -6.069124
v 19.997503 -0.000000 -6.069124
v 14.597505 0.100000 -6.069125
v 14.597505 0.000000 -6.069125
v 7.233017 0.100000 -3.724210
v 7.263157 0.000000 -3.706128
v 11.813856 0.100000 6.603147
v 11.813856 0.000000 6.603147
vn -1.0000 -0.0000 -0.0000
vn -0.0000 -0.0000 1.0000
vn 1.0000 -0.0000 -0.0000
vn -0.0000 1.0000 -0.0000
vn -0.7949 -0.1601 -0.5853
vn -0.3024 -0.1309 -0.9441
vn -0.0010 1.0000 0.0005
vn 0.8483 0.0210 0.5291
vn 0.2397 -0.0000 0.9709
vn 0.5306 0.0138 0.8475
vn 0.0005 1.0000 -0.0010
vn -0.5723 -0.1590 -0.8045
vn 0.9691 -0.0000 0.2466
vn -0.9403 -0.1323 -0.3136
vn 0.0038 -0.0000 1.0000
vn -0.0000 -0.0000 -1.0000
vt 0.584716 0.633578
vt 0.584716 0.659894
vt 0.584716 0.659437
vt 0.584716 0.633201
vt 0.451032 0.604822
vt 0.451032 0.578163
vt 0.451032 0.578554
vt 0.584716 0.589165
vt 0.584716 0.588856
vt 0.584716 0.540064
vt 0.584716 0.446227
vt 0.584716 0.490552
vt 0.584716 0.490873
vt 0.584716 0.446613
vt 0.451032 0.564465
vt 0.451032 0.540064
vt 0.451032 0.564230
vt 0.451032 0.517119
vt 0.451032 0.503360
vt 0.451032 0.517356
vt 0.451032 0.503752
vt 0.451032 0.476985
vt 0.584716 0.422022
vt 0.584716 0.421566
s 0
f 1/1/1 3/2/1 4/3/1 2/4/1
f 3/2/2 7/5/2 8/5/2 4/3/2
f 7/5/3 5/6/3 6/7/3 8/5/3
f 8/5/4 6/7/4 2/4/4 4/3/4
f 18/8/5 17/9/5 10/10/5 9/10/5
f 24/11/6 26/12/6 25/13/6 23/14/6
f 17/9/7 19/15/7 11/16/7 10/10/7
f 19/15/8 20/17/8 12/16/8 11/16/8
f 23/14/4 25/13/4 27/18/4 15/19/4
f 15/19/9 27/18/9 28/20/9 16/21/9
f 27/18/10 11/16/10 12/16/10 28/20/10
f 25/13/11 10/10/11 11/16/11 27/18/11
f 26/12/12 9/10/12 10/10/12 25/13/12
f 13/22/4 21/23/4 23/14/4 15/19/4
f 6/7/13 5/6/13 20/17/13 19/15/13
f 2/4/4 6/7/4 19/15/4 17/9/4
f 1/1/14 2/4/14 17/9/14 18/8/14
f 14/22/15 13/22/15 15/19/15 16/21/15
f 22/24/3 21/23/3 13/22/3 14/22/3
f 24/11/16 23/14/16 21/23/16 22/24/16
