# Blender 4.4.3
# www.blender.org
o SM_StraightSmall_Road_V1.1
v -6.000000 0.000000 -10.000000
v -6.000000 0.100000 -10.000000
v -6.000000 -0.000000 10.000000
v -6.000000 0.100000 10.000000
v 6.000000 0.000000 -10.000000
v 6.000000 0.100000 -10.000000
v 6.000000 -0.000000 10.000000
v 6.000000 0.100000 10.000000
vn -1.0000 -0.0000 -0.0000
vn -0.0000 -0.0000 1.0000
vn 1.0000 -0.0000 -0.0000
vn -0.0000 -0.0000 -1.0000
vn -0.0000 1.0000 -0.0000
vt 0.585224 0.415597
vt 0.585224 0.661249
vt 0.584117 0.661249
vt 0.584117 0.415597
vt 0.584117 0.662456
vt 0.451254 0.662456
vt 0.451254 0.661249
vt 0.450146 0.661249
vt 0.450146 0.415597
vt 0.451254 0.415597
vt 0.451254 0.414390
vt 0.584117 0.414390
s 0
f 1/1/1 3/2/1 4/3/1 2/4/1
f 3/5/2 7/6/2 8/7/2 4/3/2
f 7/8/3 5/9/3 6/10/3 8/7/3
f 5/11/4 1/12/4 2/4/4 6/10/4
f 8/7/5 6/10/5 2/4/5 4/3/5
