# Blender 4.4.3
# www.blender.org
o SM_DropRailHigh_GrindRail_V1.0
v -7.750000 0.931240 -0.199957
v -7.750000 0.968760 -0.199957
v -7.770000 0.931240 0.199959
v -7.770000 0.968760 0.199959
v -7.770000 0.901240 -0.169957
v -7.770000 0.998760 -0.169957
v -7.770000 0.901240 0.169959
v -7.770000 0.998760 0.169959
v 7.950000 0.931240 -0.199957
v 7.950000 0.968760 -0.199957
v 7.950000 0.931240 0.199959
v 7.950000 0.968760 0.199959
v 7.970000 0.901240 -0.169957
v 8.000000 0.931240 -0.169957
v 7.977125 0.914965 -0.189192
v 8.000000 0.968760 -0.169957
v 7.970000 0.998760 -0.169957
v 7.977125 0.985035 -0.189192
v 8.000000 0.931240 0.169959
v 7.970000 0.901240 0.169959
v 7.977125 0.914965 0.189195
v 7.970000 0.998760 0.169959
v 8.000000 0.968760 0.169959
v 7.977125 0.985035 0.189195
v 0.502274 0.000652 -0.070448
v 0.502274 0.948652 -0.070448
v 0.551771 0.000652 -0.049946
v 0.551771 0.948652 -0.049946
v 0.572274 0.000652 -0.000448
v 0.572274 0.948652 -0.000448
v 0.551771 0.000652 0.049049
v 0.551771 0.948652 0.049049
v 0.502274 0.000652 0.069552
v 0.502274 0.948652 0.069552
v 0.452776 0.000652 0.049049
v 0.452776 0.948652 0.049049
v 0.432274 0.000652 -0.000448
v 0.432274 0.948652 -0.000448
v 0.452776 0.000652 -0.049946
v 0.452776 0.948652 -0.049946
v 1.502274 0.000652 -0.070448
v 1.502274 0.948652 -0.070448
v 1.551771 0.000652 -0.049946
v 1.551771 0.948652 -0.049946
v 1.572274 0.000652 -0.000448
v 1.572274 0.948652 -0.000448
v 1.551771 0.000652 0.049049
v 1.551771 0.948652 0.049049
v 1.502274 0.000652 0.069552
v 1.502274 0.948652 0.069552
v 1.452776 0.000652 0.049049
v 1.452776 0.948652 0.049049
v 1.432274 0.000652 -0.000448
v 1.432274 0.948652 -0.000448
v 1.452776 0.000652 -0.049946
v 1.452776 0.948652 -0.049946
v 2.502274 0.000652 -0.070448
v 2.502274 0.948652 -0.070448
v 2.551771 0.000652 -0.049946
v 2.551771 0.948652 -0.049946
v 2.572274 0.000652 -0.000448
v 2.572274 0.948652 -0.000448
v 2.551771 0.000652 0.049049
v 2.551771 0.948652 0.049049
v 2.502274 0.000652 0.069552
v 2.502274 0.948652 0.069552
v 2.452776 0.000652 0.049049
v 2.452776 0.948652 0.049049
v 2.432274 0.000652 -0.000448
v 2.432274 0.948652 -0.000448
v 2.452776 0.000652 -0.049946
v 2.452776 0.948652 -0.049946
v 3.502274 0.000652 -0.070448
v 3.502274 0.948652 -0.070448
v 3.551771 0.000652 -0.049946
v 3.551771 0.948652 -0.049946
v 3.572274 0.000652 -0.000448
v 3.572274 0.948652 -0.000448
v 3.551771 0.000652 0.049049
v 3.551771 0.948652 0.049049
v 3.502274 0.000652 0.069552
v 3.502274 0.948652 0.069552
v 3.452776 0.000652 0.049049
v 3.452776 0.948652 0.049049
v 3.432274 0.000652 -0.000448
v 3.432274 0.948652 -0.000448
v 3.452776 0.000652 -0.049946
v 3.452776 0.948652 -0.049946
v 4.502274 0.000652 -0.070448
v 4.502274 0.948652 -0.070448
v 4.551771 0.000652 -0.049946
v 4.551771 0.948652 -0.049946
v 4.572274 0.000652 -0.000448
v 4.572274 0.948652 -0.000448
v 4.551771 0.000652 0.049049
v 4.551771 0.948652 0.049049
v 4.502274 0.000652 0.069552
v 4.502274 0.948652 0.069552
v 4.452776 0.000652 0.049049
v 4.452776 0.948652 0.049049
v 4.432274 0.000652 -0.000448
v 4.432274 0.948652 -0.000448
v 4.452776 0.000652 -0.049946
v 4.452776 0.948652 -0.049946
v 5.502274 0.000652 -0.070448
v 5.502274 0.948652 -0.070448
v 5.551771 0.000652 -0.049946
v 5.551771 0.948652 -0.049946
v 5.572274 0.000652 -0.000448
v 5.572274 0.948652 -0.000448
v 5.551771 0.000652 0.049049
v 5.551771 0.948652 0.049049
v 5.502274 0.000652 0.069552
v 5.502274 0.948652 0.069552
v 5.452776 0.000652 0.049049
v 5.452776 0.948652 0.049049
v 5.432274 0.000652 -0.000448
v 5.432274 0.948652 -0.000448
v 5.452776 0.000652 -0.049946
v 5.452776 0.948652 -0.049946
v 6.502274 0.000652 -0.070448
v 6.502274 0.948652 -0.070448
v 6.551771 0.000652 -0.049946
v 6.551771 0.948652 -0.049946
v 6.572274 0.000652 -0.000448
v 6.572274 0.948652 -0.000448
v 6.551771 0.000652 0.049049
v 6.551771 0.948652 0.049049
v 6.502274 0.000652 0.069552
v 6.502274 0.948652 0.069552
v 6.452776 0.000652 0.049049
v 6.452776 0.948652 0.049049
v 6.432274 0.000652 -0.000448
v 6.432274 0.948652 -0.000448
v 6.452776 0.000652 -0.049946
v 6.452776 0.948652 -0.049946
v 7.502274 0.000652 -0.070448
v 7.502274 0.948652 -0.070448
v 7.551771 0.000652 -0.049946
v 7.551771 0.948652 -0.049946
v 7.572274 0.000652 -0.000448
v 7.572274 0.948652 -0.000448
v 7.551771 0.000652 0.049049
v 7.551771 0.948652 0.049049
v 7.502274 0.000652 0.069552
v 7.502274 0.948652 0.069552
v 7.452776 0.000652 0.049049
v 7.452776 0.948652 0.049049
v 7.432274 0.000652 -0.000448
v 7.432274 0.948652 -0.000448
v 7.452776 0.000652 -0.049946
v 7.452776 0.948652 -0.049946
v -0.497726 0.000652 -0.070448
v -0.497726 0.948652 -0.070448
v -0.448229 0.000652 -0.049946
v -0.448229 0.948652 -0.049946
v -0.427726 0.000652 -0.000448
v -0.427726 0.948652 -0.000448
v -0.448229 0.000652 0.049049
v -0.448229 0.948652 0.049049
v -0.497726 0.000652 0.069552
v -0.497726 0.948652 0.069552
v -0.547224 0.000652 0.049049
v -0.547224 0.948652 0.049049
v -0.567726 0.000652 -0.000448
v -0.567726 0.948652 -0.000448
v -0.547224 0.000652 -0.049946
v -0.547224 0.948652 -0.049946
v -1.497726 0.000652 -0.070448
v -1.497726 0.948652 -0.070448
v -1.448229 0.000652 -0.049946
v -1.448229 0.948652 -0.049946
v -1.427726 0.000652 -0.000448
v -1.427726 0.948652 -0.000448
v -1.448229 0.000652 0.049049
v -1.448229 0.948652 0.049049
v -1.497726 0.000652 0.069552
v -1.497726 0.948652 0.069552
v -1.547224 0.000652 0.049049
v -1.547224 0.948652 0.049049
v -1.567726 0.000652 -0.000448
v -1.567726 0.948652 -0.000448
v -1.547224 0.000652 -0.049946
v -1.547224 0.948652 -0.049946
v -2.497726 0.000652 -0.070448
v -2.497726 0.948652 -0.070448
v -2.448229 0.000652 -0.049946
v -2.448229 0.948652 -0.049946
v -2.427726 0.000652 -0.000448
v -2.427726 0.948652 -0.000448
v -2.448229 0.000652 0.049049
v -2.448229 0.948652 0.049049
v -2.497726 0.000652 0.069552
v -2.497726 0.948652 0.069552
v -2.547224 0.000652 0.049049
v -2.547224 0.948652 0.049049
v -2.567726 0.000652 -0.000448
v -2.567726 0.948652 -0.000448
v -2.547224 0.000652 -0.049946
v -2.547224 0.948652 -0.049946
v -3.497726 0.000652 -0.070448
v -3.497726 0.948652 -0.070448
v -3.448229 0.000652 -0.049946
v -3.448229 0.948652 -0.049946
v -3.427726 0.000652 -0.000448
v -3.427726 0.948652 -0.000448
v -3.448229 0.000652 0.049049
v -3.448229 0.948652 0.049049
v -3.497726 0.000652 0.069552
v -3.497726 0.948652 0.069552
v -3.547224 0.000652 0.049049
v -3.547224 0.948652 0.049049
v -3.567726 0.000652 -0.000448
v -3.567726 0.948652 -0.000448
v -3.547224 0.000652 -0.049946
v -3.547224 0.948652 -0.049946
v -4.497726 0.000652 -0.070448
v -4.497726 0.948652 -0.070448
v -4.448229 0.000652 -0.049946
v -4.448229 0.948652 -0.049946
v -4.427726 0.000652 -0.000448
v -4.427726 0.948652 -0.000448
v -4.448229 0.000652 0.049049
v -4.448229 0.948652 0.049049
v -4.497726 0.000652 0.069552
v -4.497726 0.948652 0.069552
v -4.547224 0.000652 0.049049
v -4.547224 0.948652 0.049049
v -4.567726 0.000652 -0.000448
v -4.567726 0.948652 -0.000448
v -4.547224 0.000652 -0.049946
v -4.547224 0.948652 -0.049946
v -5.497726 0.000652 -0.070448
v -5.497726 0.948652 -0.070448
v -5.448229 0.000652 -0.049946
v -5.448229 0.948652 -0.049946
v -5.427726 0.000652 -0.000448
v -5.427726 0.948652 -0.000448
v -5.448229 0.000652 0.049049
v -5.448229 0.948652 0.049049
v -5.497726 0.000652 0.069552
v -5.497726 0.948652 0.069552
v -5.547224 0.000652 0.049049
v -5.547224 0.948652 0.049049
v -5.567726 0.000652 -0.000448
v -5.567726 0.948652 -0.000448
v -5.547224 0.000652 -0.049946
v -5.547224 0.948652 -0.049946
v -6.497726 0.000652 -0.070448
v -6.497726 0.948652 -0.070448
v -6.448229 0.000652 -0.049946
v -6.448229 0.948652 -0.049946
v -6.427726 0.000652 -0.000448
v -6.427726 0.948652 -0.000448
v -6.448229 0.000652 0.049049
v -6.448229 0.948652 0.049049
v -6.497726 0.000652 0.069552
v -6.497726 0.948652 0.069552
v -6.547224 0.000652 0.049049
v -6.547224 0.948652 0.049049
v -6.567726 0.000652 -0.000448
v -6.567726 0.948652 -0.000448
v -6.547224 0.000652 -0.049946
v -6.547224 0.948652 -0.049946
v -7.497726 0.000652 -0.070448
v -7.497726 0.948652 -0.070448
v -7.448229 0.000652 -0.049946
v -7.448229 0.948652 -0.049946
v -7.427726 0.000652 -0.000448
v -7.427726 0.948652 -0.000448
v -7.448229 0.000652 0.049049
v -7.448229 0.948652 0.049049
v -7.497726 0.000652 0.069552
v -7.497726 0.948652 0.069552
v -7.547224 0.000652 0.049049
v -7.547224 0.948652 0.049049
v -7.567726 0.000652 -0.000448
v -7.567726 0.948652 -0.000448
v -7.547224 0.000652 -0.049946
v -7.547224 0.948652 -0.049946
v -8.204240 0.931240 0.196719
v -8.204240 0.968760 0.196719
v -7.804323 0.968760 0.199719
v -7.804323 0.931240 0.199719
v -8.204240 -3.059153 4.951719
v -8.174240 0.901240 0.196719
v -8.204240 -3.021633 4.951719
v -8.174240 -2.989153 3.801719
v -7.804323 -3.021633 4.951719
v -8.174240 0.998760 0.196719
v -7.804323 -2.959154 3.801720
v -7.804323 -2.921633 3.801720
v -7.834323 0.901240 0.196719
v -8.204240 -2.921633 3.801719
v -7.834323 0.998760 0.196719
v -8.204240 -2.959154 3.801719
v -7.801943 0.901240 0.173558
v -7.801943 0.998760 0.173558
v -8.204240 0.831240 0.401719
v -8.204240 0.868760 0.401719
v -7.804323 0.868760 0.401719
v -7.804323 0.831240 0.401719
v -8.174240 0.801240 0.401719
v -8.174240 0.898760 0.401719
v -7.834323 0.801240 0.401719
v -7.834323 0.898760 0.401719
v -7.804323 -3.059153 4.951719
v -8.174240 -2.891633 3.801719
v -8.193475 -3.075428 4.978844
v -8.174240 -3.089153 4.971719
v -7.834323 -2.989153 3.801720
v -8.174240 -3.059153 5.001719
v -7.834323 -2.891633 3.801720
v -8.193475 -3.005358 4.978844
v -8.200983 0.968760 -0.034378
v -8.028932 0.968760 -0.201913
v -8.200983 0.931240 -0.034378
v -8.028932 0.931240 -0.201913
v -8.170888 0.901240 -0.003516
v -7.997841 0.901240 -0.171445
v -8.056365 0.901240 -0.072434
v -7.997841 0.998760 -0.171445
v -8.170888 0.998760 -0.003516
v -8.056365 0.998760 -0.072434
v -8.174240 -3.089153 4.001719
v -7.804323 -3.059153 4.001719
v -7.804323 -3.021633 4.001719
v -8.204240 -3.021633 4.001719
v -8.204240 -3.059153 4.001719
v -8.174240 -2.991633 4.001719
v -7.834323 -3.089153 4.001719
v -7.834323 -2.991633 4.001719
v -8.174240 -3.021633 5.001719
v -8.174240 -2.991633 4.971719
v -7.815087 -3.075428 4.978844
v -7.834323 -3.059153 5.001719
v -7.834323 -3.089153 4.971719
v -7.815087 -3.005358 4.978844
v -7.834323 -2.991633 4.971719
v -7.834323 -3.021633 5.001719
v -7.997726 -0.199348 0.429552
v -7.997726 0.774951 0.429552
v -7.948229 -0.199348 0.450054
v -7.948229 0.759951 0.450054
v -7.927726 -0.199348 0.499552
v -7.927726 0.724951 0.499552
v -7.948229 -0.199348 0.549049
v -7.948229 0.689951 0.549049
v -7.997726 -0.199348 0.569552
v -7.997726 0.674951 0.569552
v -8.047224 -0.199348 0.549049
v -8.047224 0.689951 0.549049
v -8.067726 -0.199348 0.499552
v -8.067726 0.724951 0.499552
v -8.047224 -0.199348 0.450054
v -8.047224 0.759951 0.450054
v -8.047224 0.189951 0.950054
v -8.047224 -0.769348 0.950054
v -8.067726 0.154951 0.999552
v -8.067726 -0.769348 0.999552
v -8.047224 0.119951 1.049049
v -8.047224 -0.769348 1.049049
v -7.997726 0.104951 1.069552
v -7.997726 -0.769348 1.069552
v -7.948229 0.119951 1.049049
v -7.948229 -0.769348 1.049049
v -7.927726 0.154951 0.999552
v -7.927726 -0.769348 0.999552
v -7.948229 0.189951 0.950054
v -7.948229 -0.769348 0.950054
v -7.997726 0.204951 0.929552
v -7.997726 -0.769348 0.929552
v -8.047224 -0.367214 1.450054
v -8.047224 -1.349348 1.450054
v -8.067726 -0.402214 1.499552
v -8.067726 -1.349348 1.499552
v -8.047224 -0.437214 1.549049
v -8.047224 -1.349348 1.549049
v -7.997726 -0.452214 1.569552
v -7.997726 -1.349348 1.569552
v -7.948229 -0.437214 1.549049
v -7.948229 -1.349348 1.549049
v -7.927726 -0.402214 1.499552
v -7.927726 -1.349348 1.499552
v -7.948229 -0.367214 1.450054
v -7.948229 -1.349348 1.450054
v -7.997726 -0.352214 1.429552
v -7.997726 -1.349348 1.429552
v -8.047224 -0.923513 1.950054
v -8.047224 -1.919348 1.950054
v -8.067726 -0.958513 1.999552
v -8.067726 -1.919348 1.999552
v -8.047224 -0.993513 2.049049
v -8.047224 -1.919348 2.049049
v -7.997726 -1.008513 2.069552
v -7.997726 -1.919348 2.069552
v -7.948229 -0.993513 2.049049
v -7.948229 -1.919348 2.049049
v -7.927726 -0.958513 1.999552
v -7.927726 -1.919348 1.999552
v -7.948229 -0.923513 1.950054
v -7.948229 -1.919348 1.950054
v -7.997726 -0.908513 1.929552
v -7.997726 -1.919348 1.929552
v -8.047224 -1.484380 2.450054
v -8.047224 -2.489348 2.450054
v -8.067726 -1.519379 2.499552
v -8.067726 -2.489348 2.499552
v -8.047224 -1.554380 2.549049
v -8.047224 -2.489348 2.549049
v -7.997726 -1.569380 2.569552
v -7.997726 -2.489348 2.569552
v -7.948229 -1.554380 2.549049
v -7.948229 -2.489348 2.549049
v -7.927726 -1.519379 2.499552
v -7.927726 -2.489348 2.499552
v -7.948229 -1.484380 2.450054
v -7.948229 -2.489348 2.450054
v -7.997726 -1.469380 2.429552
v -7.997726 -2.489348 2.429552
v -8.047224 -2.036978 2.950054
v -8.047224 -3.069349 2.950054
v -8.067726 -2.071978 2.999552
v -8.067726 -3.069349 2.999552
v -8.047224 -2.106978 3.049049
v -8.047224 -3.069349 3.049049
v -7.997726 -2.121978 3.069552
v -7.997726 -3.069349 3.069552
v -7.948229 -2.106978 3.049049
v -7.948229 -3.069349 3.049049
v -7.927726 -2.071978 2.999552
v -7.927726 -3.069349 2.999552
v -7.948229 -2.036978 2.950054
v -7.948229 -3.069349 2.950054
v -7.997726 -2.021978 2.929552
v -7.997726 -3.069349 2.929552
v -8.047224 -2.584143 3.450054
v -8.047224 -3.639349 3.450054
v -8.067726 -2.619143 3.499552
v -8.067726 -3.639349 3.499552
v -8.047224 -2.654143 3.549049
v -8.047224 -3.639349 3.549049
v -7.997726 -2.669143 3.569552
v -7.997726 -3.639349 3.569552
v -7.948229 -2.654143 3.549049
v -7.948229 -3.639349 3.549049
v -7.927726 -2.619143 3.499552
v -7.927726 -3.639349 3.499552
v -7.948229 -2.584143 3.450054
v -7.948229 -3.639349 3.450054
v -7.997726 -2.569143 3.429552
v -7.997726 -3.639349 3.429552
v -7.997726 -3.989742 4.021623
v -7.997726 -3.041741 4.021623
v -7.948229 -3.989742 4.042126
v -7.948229 -3.041741 4.042126
v -7.927726 -3.989742 4.091623
v -7.927726 -3.041741 4.091623
v -7.948229 -3.989742 4.141121
v -7.948229 -3.041741 4.141121
v -7.997726 -3.989742 4.161623
v -7.997726 -3.041741 4.161623
v -8.047224 -3.989742 4.141121
v -8.047224 -3.041741 4.141121
v -8.067726 -3.989742 4.091623
v -8.067726 -3.041741 4.091623
v -8.047224 -3.989742 4.042126
v -8.047224 -3.041741 4.042126
v -7.997726 -3.989742 4.721623
v -7.997726 -3.041741 4.721623
v -7.948229 -3.989742 4.742126
v -7.948229 -3.041741 4.742126
v -7.927726 -3.989742 4.791623
v -7.927726 -3.041741 4.791623
v -7.948229 -3.989742 4.841121
v -7.948229 -3.041741 4.841121
v -7.997726 -3.989742 4.861623
v -7.997726 -3.041741 4.861623
v -8.047224 -3.989742 4.841121
v -8.047224 -3.041741 4.841121
v -8.067726 -3.989742 4.791623
v -8.067726 -3.041741 4.791623
v -8.047224 -3.989742 4.742126
v -8.047224 -3.041741 4.742126
vn -0.0000 -0.7071 0.7071
vn -0.0000 -0.0000 1.0000
vn -0.0000 0.7071 -0.7071
vn -0.9999 -0.0000 -0.0141
vn 0.4849 -0.5527 0.6778
vn 0.0048 -0.7094 -0.7048
vn -0.0000 0.7071 0.7071
vn -0.0000 -1.0000 -0.0000
vn -0.0000 1.0000 -0.0000
vn 0.4849 0.5527 0.6778
vn -0.0000 -0.0000 -1.0000
vn -0.0000 -0.7071 -0.7071
vn 0.3689 -0.0000 -0.9295
vn -0.2093 0.7577 -0.6181
vn 0.3689 -0.0000 0.9295
vn 1.0000 -0.0000 -0.0000
vn -0.2093 -0.7577 0.6181
vn 0.6872 -0.6872 -0.2357
vn 0.6872 0.6872 -0.2357
vn 0.6872 -0.6872 0.2357
vn 0.6872 0.6872 0.2357
vn 0.7071 -0.7071 -0.0000
vn 0.7071 0.7071 -0.0000
vn 0.6436 -0.0000 -0.7654
vn 0.6436 -0.0000 0.7654
vn -0.2093 -0.7577 -0.6181
vn -0.2093 0.7577 0.6181
vn 0.3827 -0.0000 -0.9239
vn 0.9239 -0.0000 -0.3827
vn 0.9239 -0.0000 0.3827
vn 0.3827 -0.0000 0.9239
vn -0.3827 -0.0000 0.9239
vn -0.9239 -0.0000 0.3827
vn -0.9239 -0.0000 -0.3827
vn -0.3827 -0.0000 -0.9239
vn -0.9295 -0.0000 0.3689
vn -0.6181 0.7577 -0.2093
vn 0.9295 -0.0000 0.3689
vn 0.6182 -0.7577 -0.2093
vn -0.2358 -0.6872 0.6871
vn -0.2358 0.6872 0.6872
vn 0.6769 -0.6606 -0.3246
vn -1.0000 -0.0000 -0.0000
vn -0.0000 -0.8988 -0.4384
vn -0.6685 -0.6685 -0.3261
vn -0.0000 0.8988 0.4384
vn 0.6587 0.6753 0.3318
vn -0.6685 0.6685 0.3261
vn 0.0370 0.6821 0.7303
vn -0.7037 -0.7104 -0.0108
vn -0.7037 0.7104 -0.0108
vn 0.0370 -0.6821 0.7303
vn 0.0070 -0.0000 -1.0000
vn -0.0070 -0.0000 1.0000
vn -0.5553 0.5553 0.6191
vn 0.5553 -0.5553 -0.6191
vn -0.0000 -0.6677 -0.7444
vn -0.5553 -0.5553 -0.6191
vn -0.0000 0.6677 0.7444
vn 0.5553 0.5553 0.6191
vn -0.0000 -0.8944 -0.4472
vn -0.6667 -0.6667 -0.3333
vn -0.0000 0.8944 0.4472
vn 0.6667 0.6667 0.3333
vn -0.6667 0.6667 0.3333
vn 0.6667 -0.6667 -0.3333
vn -0.3969 -0.8221 -0.4083
vn -0.6976 -0.0000 -0.7164
vn -0.3969 0.8221 -0.4083
vn 0.0048 0.7094 -0.7048
vn -0.7071 0.7071 -0.0000
vn -0.7071 -0.7071 -0.0000
vn 0.2358 -0.6872 0.6872
vn 0.2358 0.6872 0.6872
vn -0.7654 -0.0000 0.6436
vn 0.7654 -0.0000 0.6436
vn -0.6182 -0.7577 -0.2093
vn 0.6182 0.7577 -0.2093
vt 0.990452 0.859434
vt 0.906148 0.859434
vt 0.906148 0.855946
vt 0.990560 0.855946
vt 0.982666 0.890187
vt 0.900609 0.890187
vt 0.900609 0.881827
vt 0.982666 0.881827
vt 0.897315 0.815278
vt 0.980911 0.815278
vt 0.981017 0.819125
vt 0.897209 0.819125
vt 0.966144 0.807016
vt 0.966138 0.806335
vt 0.996538 0.805985
vt 0.996604 0.806726
vt 0.924356 0.887455
vt 0.912798 0.887073
vt 0.924356 0.883374
vt 0.982045 0.809160
vt 0.980813 0.814635
vt 0.954186 0.815540
vt 0.954091 0.808483
vt 0.900505 0.872638
vt 0.982666 0.872638
vt 0.937204 0.819967
vt 0.917382 0.815159
vt 0.893278 0.812295
vt 0.935995 0.878441
vt 0.888556 0.815783
vt 0.941818 0.821614
vt 0.940146 0.874290
vt 0.898343 0.887073
vt 0.886785 0.887455
vt 0.886785 0.883374
vt 0.906148 0.816423
vt 0.990560 0.816424
vt 0.988235 0.813436
vt 0.895076 0.813436
vt 0.895076 0.810661
vt 0.988235 0.810661
vt 0.988353 0.816487
vt 0.894958 0.816487
vt 0.933894 0.815539
vt 0.935580 0.808201
vt 0.944629 0.808991
vt 0.946404 0.815486
vt 0.952075 0.817122
vt 0.946513 0.886760
vt 0.944827 0.894098
vt 0.935779 0.893309
vt 0.934003 0.886814
vt 0.943492 0.821003
vt 0.943910 0.881268
vt 0.936916 0.881297
vt 0.936498 0.821031
vt 0.928333 0.885178
vt 0.928333 0.817154
vt 0.952075 0.885146
vt 0.897209 0.862715
vt 0.981017 0.862715
vt 0.975019 0.709573
vt 0.975019 0.776760
vt 0.965455 0.776760
vt 0.965455 0.709573
vt 0.955890 0.776760
vt 0.955890 0.709573
vt 0.946325 0.776760
vt 0.946325 0.709573
vt 0.936760 0.776760
vt 0.936760 0.709573
vt 0.927195 0.776760
vt 0.927195 0.709573
vt 0.917630 0.776760
vt 0.917630 0.709573
vt 0.908066 0.776760
vt 0.908066 0.709573
vt 0.898501 0.776760
vt 0.898501 0.709573
vt 0.945003 0.816035
vt 0.933040 0.816087
vt 0.934652 0.809069
vt 0.943305 0.809824
vt 0.927721 0.817630
vt 0.933144 0.884246
vt 0.945107 0.884195
vt 0.943495 0.891212
vt 0.934842 0.890457
vt 0.935530 0.821339
vt 0.942218 0.821311
vt 0.942617 0.878942
vt 0.935929 0.878970
vt 0.950425 0.882651
vt 0.950425 0.817600
vt 0.967184 0.876791
vt 0.969194 0.882564
vt 0.925959 0.882564
vt 0.923432 0.876791
vt 0.919501 0.814301
vt 0.922610 0.807928
vt 0.965715 0.807928
vt 0.962606 0.814301
vt 0.967183 0.811588
vt 0.923431 0.811589
vt 0.969710 0.805851
vt 0.925958 0.805852
vt 0.917499 0.877547
vt 0.917498 0.813172
vt 0.960695 0.813171
vt 0.960696 0.877546
vt 0.915003 0.883211
vt 0.958200 0.883210
vt 0.916791 0.897942
vt 0.920582 0.890172
vt 0.973136 0.890172
vt 0.969346 0.897942
vt 0.915513 0.807472
vt 0.958199 0.807472
vt 0.898343 0.891314
vt 0.886785 0.891415
vt 0.917438 0.808165
vt 0.894491 0.807559
vt 0.996725 0.814681
vt 0.947853 0.873492
vt 0.966224 0.815549
vt 0.924356 0.891415
vt 0.912798 0.891314
vt 0.884493 0.809801
vt 0.884486 0.809120
vt 0.921180 0.806903
vt 0.921186 0.807584
vt 0.911191 0.811298
vt 0.911573 0.807323
vt 0.977596 0.807323
vt 0.977214 0.811298
vt 0.971808 0.856920
vt 0.972139 0.860916
vt 0.915011 0.860916
vt 0.914680 0.856920
vt 0.902311 0.816583
vt 0.902770 0.810717
vt 0.986652 0.810717
vt 0.986194 0.816583
vt 0.971808 0.811637
vt 0.914680 0.811637
vt 0.972139 0.807641
vt 0.915011 0.807641
vt 0.911191 0.856331
vt 0.977214 0.856331
vt 0.911573 0.860305
vt 0.977597 0.860305
vt 0.891310 0.897085
vt 0.890794 0.893554
vt 0.985092 0.893554
vt 0.985608 0.897085
vt 0.958867 0.807193
vt 0.955723 0.813637
vt 0.912140 0.813637
vt 0.915283 0.807193
vt 0.956406 0.812999
vt 0.956406 0.877950
vt 0.912823 0.877951
vt 0.912822 0.812999
vt 0.958923 0.807284
vt 0.915339 0.807284
vt 0.915339 0.877986
vt 0.915339 0.813034
vt 0.958922 0.813034
vt 0.958923 0.877985
vt 0.912822 0.883701
vt 0.956406 0.883700
vt 0.913336 0.807284
vt 0.956404 0.807284
vt 0.958409 0.883701
vt 0.915341 0.883701
vt 0.958396 0.874541
vt 0.955252 0.880985
vt 0.911669 0.880985
vt 0.914812 0.874541
vt 0.921064 0.816199
vt 0.942216 0.859524
vt 0.938366 0.856497
vt 0.932367 0.855534
vt 0.995728 0.888191
vt 0.995787 0.891788
vt 0.904710 0.893276
vt 0.904651 0.889679
vt 0.990441 0.819926
vt 0.990441 0.825806
vt 0.894358 0.825806
vt 0.892335 0.819926
vt 0.892335 0.878705
vt 0.892335 0.884902
vt 0.988418 0.884902
vt 0.990441 0.878705
vt 0.990441 0.833161
vt 0.894358 0.833161
vt 0.892335 0.807959
vt 0.990441 0.807959
vt 0.892335 0.813840
vt 0.988418 0.813840
vt 0.892335 0.880468
vt 0.990441 0.813840
vt 0.990441 0.880468
vt 0.892335 0.886349
vt 0.988418 0.886349
vt 0.927721 0.882681
s 0
f 11/1/1 3/2/1 7/3/1 20/4/1
f 3/5/2 11/6/2 12/7/2 4/8/2
f 10/9/3 2/10/3 6/11/3 17/12/3
f 315/13/4 317/14/4 281/15/4 282/16/4
f 297/17/5 284/18/5 293/19/5
f 1/20/6 5/21/6 320/22/6 318/23/6
f 4/8/7 12/7/7 22/24/7 8/25/7
f 5/21/8 321/26/8 320/22/8
f 319/27/8 321/26/8 286/28/8
f 8/29/9 6/30/9 324/31/9 298/32/9
f 283/33/10 298/34/10 295/35/10
f 5/36/8 13/37/8 20/4/8 7/3/8
f 9/38/11 1/39/11 2/40/11 10/41/11
f 1/39/12 9/38/12 13/42/12 5/43/12
f 15/44/13 9/45/13 10/46/13 18/47/13
f 18/47/14 10/46/14 17/48/14
f 24/49/15 12/50/15 11/51/15 21/52/15
f 16/53/16 23/54/16 19/55/16 14/56/16
f 21/52/17 11/51/17 20/57/17
f 13/58/18 15/44/18 14/56/18
f 16/53/19 18/47/19 17/48/19
f 19/55/20 21/52/20 20/57/20
f 22/59/21 24/49/21 23/54/21
f 19/55/22 20/57/22 13/58/22 14/56/22
f 16/53/23 17/48/23 22/59/23 23/54/23
f 18/47/24 16/53/24 14/56/24 15/44/24
f 21/52/25 19/55/25 23/54/25 24/49/25
f 9/45/26 15/44/26 13/58/26
f 12/50/27 24/49/27 22/59/27
f 22/60/9 17/12/9 6/11/9 8/61/9
f 25/62/28 26/63/28 28/64/28 27/65/28
f 27/65/29 28/64/29 30/66/29 29/67/29
f 29/67/30 30/66/30 32/68/30 31/69/30
f 31/69/31 32/68/31 34/70/31 33/71/31
f 33/71/32 34/70/32 36/72/32 35/73/32
f 35/73/33 36/72/33 38/74/33 37/75/33
f 37/75/34 38/74/34 40/76/34 39/77/34
f 39/77/35 40/76/35 26/78/35 25/79/35
f 41/62/28 42/63/28 44/64/28 43/65/28
f 43/65/29 44/64/29 46/66/29 45/67/29
f 45/67/30 46/66/30 48/68/30 47/69/30
f 47/69/31 48/68/31 50/70/31 49/71/31
f 49/71/32 50/70/32 52/72/32 51/73/32
f 51/73/33 52/72/33 54/74/33 53/75/33
f 53/75/34 54/74/34 56/76/34 55/77/34
f 55/77/35 56/76/35 42/78/35 41/79/35
f 57/62/28 58/63/28 60/64/28 59/65/28
f 59/65/29 60/64/29 62/66/29 61/67/29
f 61/67/30 62/66/30 64/68/30 63/69/30
f 63/69/31 64/68/31 66/70/31 65/71/31
f 65/71/32 66/70/32 68/72/32 67/73/32
f 67/73/33 68/72/33 70/74/33 69/75/33
f 69/75/34 70/74/34 72/76/34 71/77/34
f 71/77/35 72/76/35 58/78/35 57/79/35
f 73/62/28 74/63/28 76/64/28 75/65/28
f 75/65/29 76/64/29 78/66/29 77/67/29
f 77/67/30 78/66/30 80/68/30 79/69/30
f 79/69/31 80/68/31 82/70/31 81/71/31
f 81/71/32 82/70/32 84/72/32 83/73/32
f 83/73/33 84/72/33 86/74/33 85/75/33
f 85/75/34 86/74/34 88/76/34 87/77/34
f 87/77/35 88/76/35 74/78/35 73/79/35
f 89/62/28 90/63/28 92/64/28 91/65/28
f 91/65/29 92/64/29 94/66/29 93/67/29
f 93/67/30 94/66/30 96/68/30 95/69/30
f 95/69/31 96/68/31 98/70/31 97/71/31
f 97/71/32 98/70/32 100/72/32 99/73/32
f 99/73/33 100/72/33 102/74/33 101/75/33
f 101/75/34 102/74/34 104/76/34 103/77/34
f 103/77/35 104/76/35 90/78/35 89/79/35
f 105/62/28 106/63/28 108/64/28 107/65/28
f 107/65/29 108/64/29 110/66/29 109/67/29
f 109/67/30 110/66/30 112/68/30 111/69/30
f 111/69/31 112/68/31 114/70/31 113/71/31
f 113/71/32 114/70/32 116/72/32 115/73/32
f 115/73/33 116/72/33 118/74/33 117/75/33
f 117/75/34 118/74/34 120/76/34 119/77/34
f 119/77/35 120/76/35 106/78/35 105/79/35
f 121/62/28 122/63/28 124/64/28 123/65/28
f 123/65/29 124/64/29 126/66/29 125/67/29
f 125/67/30 126/66/30 128/68/30 127/69/30
f 127/69/31 128/68/31 130/70/31 129/71/31
f 129/71/32 130/70/32 132/72/32 131/73/32
f 131/73/33 132/72/33 134/74/33 133/75/33
f 133/75/34 134/74/34 136/76/34 135/77/34
f 135/77/35 136/76/35 122/78/35 121/79/35
f 137/62/28 138/63/28 140/64/28 139/65/28
f 139/65/29 140/64/29 142/66/29 141/67/29
f 141/67/30 142/66/30 144/68/30 143/69/30
f 143/69/31 144/68/31 146/70/31 145/71/31
f 145/71/32 146/70/32 148/72/32 147/73/32
f 147/73/33 148/72/33 150/74/33 149/75/33
f 149/75/34 150/74/34 152/76/34 151/77/34
f 151/77/35 152/76/35 138/78/35 137/79/35
f 153/62/28 154/63/28 156/64/28 155/65/28
f 155/65/29 156/64/29 158/66/29 157/67/29
f 157/67/30 158/66/30 160/68/30 159/69/30
f 159/69/31 160/68/31 162/70/31 161/71/31
f 161/71/32 162/70/32 164/72/32 163/73/32
f 163/73/33 164/72/33 166/74/33 165/75/33
f 165/75/34 166/74/34 168/76/34 167/77/34
f 167/77/35 168/76/35 154/78/35 153/79/35
f 169/62/28 170/63/28 172/64/28 171/65/28
f 171/65/29 172/64/29 174/66/29 173/67/29
f 173/67/30 174/66/30 176/68/30 175/69/30
f 175/69/31 176/68/31 178/70/31 177/71/31
f 177/71/32 178/70/32 180/72/32 179/73/32
f 179/73/33 180/72/33 182/74/33 181/75/33
f 181/75/34 182/74/34 184/76/34 183/77/34
f 183/77/35 184/76/35 170/78/35 169/79/35
f 185/62/28 186/63/28 188/64/28 187/65/28
f 187/65/29 188/64/29 190/66/29 189/67/29
f 189/67/30 190/66/30 192/68/30 191/69/30
f 191/69/31 192/68/31 194/70/31 193/71/31
f 193/71/32 194/70/32 196/72/32 195/73/32
f 195/73/33 196/72/33 198/74/33 197/75/33
f 197/75/34 198/74/34 200/76/34 199/77/34
f 199/77/35 200/76/35 186/78/35 185/79/35
f 201/62/28 202/63/28 204/64/28 203/65/28
f 203/65/29 204/64/29 206/66/29 205/67/29
f 205/67/30 206/66/30 208/68/30 207/69/30
f 207/69/31 208/68/31 210/70/31 209/71/31
f 209/71/32 210/70/32 212/72/32 211/73/32
f 211/73/33 212/72/33 214/74/33 213/75/33
f 213/75/34 214/74/34 216/76/34 215/77/34
f 215/77/35 216/76/35 202/78/35 201/79/35
f 217/62/28 218/63/28 220/64/28 219/65/28
f 219/65/29 220/64/29 222/66/29 221/67/29
f 221/67/30 222/66/30 224/68/30 223/69/30
f 223/69/31 224/68/31 226/70/31 225/71/31
f 225/71/32 226/70/32 228/72/32 227/73/32
f 227/73/33 228/72/33 230/74/33 229/75/33
f 229/75/34 230/74/34 232/76/34 231/77/34
f 231/77/35 232/76/35 218/78/35 217/79/35
f 233/62/28 234/63/28 236/64/28 235/65/28
f 235/65/29 236/64/29 238/66/29 237/67/29
f 237/67/30 238/66/30 240/68/30 239/69/30
f 239/69/31 240/68/31 242/70/31 241/71/31
f 241/71/32 242/70/32 244/72/32 243/73/32
f 243/73/33 244/72/33 246/74/33 245/75/33
f 245/75/34 246/74/34 248/76/34 247/77/34
f 247/77/35 248/76/35 234/78/35 233/79/35
f 249/62/28 250/63/28 252/64/28 251/65/28
f 251/65/29 252/64/29 254/66/29 253/67/29
f 253/67/30 254/66/30 256/68/30 255/69/30
f 255/69/31 256/68/31 258/70/31 257/71/31
f 257/71/32 258/70/32 260/72/32 259/73/32
f 259/73/33 260/72/33 262/74/33 261/75/33
f 261/75/34 262/74/34 264/76/34 263/77/34
f 263/77/35 264/76/35 250/78/35 249/79/35
f 265/62/28 266/63/28 268/64/28 267/65/28
f 267/65/29 268/64/29 270/66/29 269/67/29
f 269/67/30 270/66/30 272/68/30 271/69/30
f 271/69/31 272/68/31 274/70/31 273/71/31
f 273/71/32 274/70/32 276/72/32 275/73/32
f 275/73/33 276/72/33 278/74/33 277/75/33
f 277/75/34 278/74/34 280/76/34 279/77/34
f 279/77/35 280/76/35 266/78/35 265/79/35
f 309/80/36 314/81/36 287/82/36 285/83/36
f 314/81/37 334/84/37 287/82/37
f 338/85/38 335/86/38 307/87/38 289/88/38
f 333/89/2 312/90/2 336/91/2 340/92/2
f 335/86/39 337/93/39 307/87/39
f 310/94/40 312/90/40 309/80/40
f 333/89/41 334/84/41 314/81/41
f 293/95/42 284/96/42 302/97/42 305/98/42
f 282/99/43 281/100/43 299/101/43 300/102/43
f 286/103/44 293/95/44 305/98/44 303/104/44
f 281/105/45 286/103/45 303/104/45 299/106/45
f 295/107/46 290/108/46 304/109/46 306/110/46
f 283/111/47 295/107/47 306/110/47 301/112/47
f 284/113/16 283/114/16 301/115/16 302/116/16
f 290/108/48 282/117/48 300/118/48 304/109/48
f 4/119/49 8/120/49 298/34/49 283/33/49
f 317/121/50 319/27/50 286/28/50 281/122/50
f 298/32/9 324/31/9 290/123/9 295/124/9
f 323/125/51 315/13/51 282/16/51 290/123/51
f 7/126/52 3/127/52 284/18/52 297/17/52
f 2/128/53 1/129/53 318/130/53 316/131/53
f 3/127/54 4/119/54 283/33/54 284/18/54
f 304/132/55 300/133/55 294/134/55 308/135/55
f 305/136/56 302/137/56 291/138/56 311/139/56
f 300/140/43 299/141/43 296/142/43 294/143/43
f 303/144/57 305/136/57 311/139/57 288/145/57
f 299/146/58 303/144/58 288/145/58 296/147/58
f 306/148/59 304/132/59 308/135/59 313/149/59
f 301/150/60 306/148/60 313/149/60 292/151/60
f 302/152/16 301/153/16 292/154/16 291/155/16
f 294/156/43 296/157/43 329/158/43 328/159/43
f 288/160/61 311/161/61 331/162/61 325/163/61
f 296/164/62 288/160/62 325/163/62 329/165/62
f 313/166/63 308/167/63 330/168/63 332/169/63
f 292/170/64 313/166/64 332/169/64 327/171/64
f 308/167/65 294/172/65 328/173/65 330/168/65
f 311/161/66 291/174/66 326/175/66 331/162/66
f 291/176/16 292/177/16 327/178/16 326/179/16
f 319/27/8 320/22/8 321/26/8
f 322/180/9 323/125/9 324/31/9
f 319/27/67 317/121/67 318/23/67 320/22/67
f 317/14/68 315/13/68 316/131/68 318/130/68
f 315/13/69 323/125/69 322/180/69 316/131/69
f 6/30/70 2/128/70 316/131/70 322/180/70
f 324/31/9 6/30/9 322/180/9
f 290/123/9 324/31/9 323/125/9
f 321/26/8 5/21/8 7/181/8 297/182/8
f 286/28/8 321/26/8 297/182/8 293/183/8
f 326/184/16 327/185/16 289/186/16 307/187/16
f 330/188/71 328/189/71 287/190/71 334/191/71
f 331/192/22 326/193/22 307/194/22 337/195/22
f 328/189/43 329/196/43 285/197/43 287/190/43
f 325/198/8 331/192/8 337/195/8 310/199/8
f 329/200/72 325/198/72 310/199/72 285/201/72
f 332/202/9 330/200/9 334/203/9 339/204/9
f 327/205/23 332/202/23 339/204/23 289/206/23
f 336/91/73 337/93/73 335/86/73
f 339/207/74 340/92/74 338/85/74
f 336/91/1 312/90/1 310/94/1 337/93/1
f 333/89/7 340/92/7 339/207/7 334/84/7
f 314/81/75 309/80/75 312/90/75 333/89/75
f 335/86/76 338/85/76 340/92/76 336/91/76
f 285/83/77 310/94/77 309/80/77
f 289/88/78 339/207/78 338/85/78
f 341/62/28 342/63/28 344/64/28 343/65/28
f 343/65/29 344/64/29 346/66/29 345/67/29
f 345/67/30 346/66/30 348/68/30 347/69/30
f 347/69/31 348/68/31 350/70/31 349/71/31
f 349/71/32 350/70/32 352/72/32 351/73/32
f 351/73/33 352/72/33 354/74/33 353/75/33
f 353/75/34 354/74/34 356/76/34 355/77/34
f 355/77/35 356/76/35 342/78/35 341/79/35
f 358/77/35 357/76/35 371/78/35 372/79/35
f 360/75/34 359/74/34 357/76/34 358/77/34
f 362/73/33 361/72/33 359/74/33 360/75/33
f 364/71/32 363/70/32 361/72/32 362/73/32
f 366/69/31 365/68/31 363/70/31 364/71/31
f 368/67/30 367/66/30 365/68/30 366/69/30
f 370/65/29 369/64/29 367/66/29 368/67/29
f 372/62/28 371/63/28 369/64/28 370/65/28
f 374/77/35 373/76/35 387/78/35 388/79/35
f 376/75/34 375/74/34 373/76/34 374/77/34
f 378/73/33 377/72/33 375/74/33 376/75/33
f 380/71/32 379/70/32 377/72/32 378/73/32
f 382/69/31 381/68/31 379/70/31 380/71/31
f 384/67/30 383/66/30 381/68/30 382/69/30
f 386/65/29 385/64/29 383/66/29 384/67/29
f 388/62/28 387/63/28 385/64/28 386/65/28
f 390/77/35 389/76/35 403/78/35 404/79/35
f 392/75/34 391/74/34 389/76/34 390/77/34
f 394/73/33 393/72/33 391/74/33 392/75/33
f 396/71/32 395/70/32 393/72/32 394/73/32
f 398/69/31 397/68/31 395/70/31 396/71/31
f 400/67/30 399/66/30 397/68/30 398/69/30
f 402/65/29 401/64/29 399/66/29 400/67/29
f 404/62/28 403/63/28 401/64/28 402/65/28
f 406/77/35 405/76/35 419/78/35 420/79/35
f 408/75/34 407/74/34 405/76/34 406/77/34
f 410/73/33 409/72/33 407/74/33 408/75/33
f 412/71/32 411/70/32 409/72/32 410/73/32
f 414/69/31 413/68/31 411/70/31 412/71/31
f 416/67/30 415/66/30 413/68/30 414/69/30
f 418/65/29 417/64/29 415/66/29 416/67/29
f 420/62/28 419/63/28 417/64/28 418/65/28
f 422/77/35 421/76/35 435/78/35 436/79/35
f 424/75/34 423/74/34 421/76/34 422/77/34
f 426/73/33 425/72/33 423/74/33 424/75/33
f 428/71/32 427/70/32 425/72/32 426/73/32
f 430/69/31 429/68/31 427/70/31 428/71/31
f 432/67/30 431/66/30 429/68/30 430/69/30
f 434/65/29 433/64/29 431/66/29 432/67/29
f 436/62/28 435/63/28 433/64/28 434/65/28
f 438/77/35 437/76/35 451/78/35 452/79/35
f 440/75/34 439/74/34 437/76/34 438/77/34
f 442/73/33 441/72/33 439/74/33 440/75/33
f 444/71/32 443/70/32 441/72/32 442/73/32
f 446/69/31 445/68/31 443/70/31 444/71/31
f 448/67/30 447/66/30 445/68/30 446/69/30
f 450/65/29 449/64/29 447/66/29 448/67/29
f 452/62/28 451/63/28 449/64/28 450/65/28
f 453/62/28 454/63/28 456/64/28 455/65/28
f 455/65/29 456/64/29 458/66/29 457/67/29
f 457/67/30 458/66/30 460/68/30 459/69/30
f 459/69/31 460/68/31 462/70/31 461/71/31
f 461/71/32 462/70/32 464/72/32 463/73/32
f 463/73/33 464/72/33 466/74/33 465/75/33
f 465/75/34 466/74/34 468/76/34 467/77/34
f 467/77/35 468/76/35 454/78/35 453/79/35
f 469/62/28 470/63/28 472/64/28 471/65/28
f 471/65/29 472/64/29 474/66/29 473/67/29
f 473/67/30 474/66/30 476/68/30 475/69/30
f 475/69/31 476/68/31 478/70/31 477/71/31
f 477/71/32 478/70/32 480/72/32 479/73/32
f 479/73/33 480/72/33 482/74/33 481/75/33
f 481/75/34 482/74/34 484/76/34 483/77/34
f 483/77/35 484/76/35 470/78/35 469/79/35
