# Blender 4.4.3
# www.blender.org
o SM_DropRailLow_GrindRail_V1.1
v -7.800000 0.901240 -0.218277
v -7.800000 0.998760 -0.218277
v -7.799842 0.901240 0.183699
v -7.799842 0.998760 0.183699
v 8.000000 0.901240 -0.218277
v 8.000000 0.998760 -0.218277
v 8.000000 0.901240 0.181639
v 8.000000 0.998760 0.181639
v -8.000001 0.001240 0.201680
v -7.800000 0.901240 -0.018319
v -8.000001 0.901240 0.183699
v -8.200158 0.901240 0.183700
v -8.200158 0.998760 0.183700
v -8.000000 0.001240 -0.018319
v -8.200158 0.801240 0.401680
v -8.200158 0.898760 0.401680
v -7.799842 0.801240 0.401680
v -7.799842 0.898760 0.401680
v -8.000000 0.901240 -0.018319
v -8.200158 -2.998760 3.801681
v -8.200158 -2.901240 3.801681
v -7.799842 -2.998760 3.801680
v -7.799842 -2.901240 3.801680
v -7.800000 0.001240 -0.018319
v -8.200158 -3.098760 4.001681
v -8.200158 -3.001240 4.001681
v -7.799842 -3.098760 4.001680
v -7.799842 -3.001240 4.001680
v 8.000000 0.001240 -0.018319
v -8.200158 -3.098760 5.001681
v -8.200158 -3.001240 5.001681
v -7.799842 -3.098760 5.001680
v -7.799842 -3.001240 5.001680
v 8.000000 0.901240 -0.018319
v -8.002193 0.901240 -0.219399
v -8.201180 0.901240 -0.020513
v -8.060769 0.901240 -0.079088
v -8.201180 0.998760 -0.020513
v -8.002193 0.998760 -0.219399
v -8.060769 0.998760 -0.079088
v -7.800000 0.901240 -0.018319
v 8.000000 0.901240 -0.018319
v 8.000000 0.001240 -0.018319
v -7.800000 0.001240 -0.018319
v -8.000000 0.901240 -0.018319
v -8.000000 0.001240 -0.018319
v -8.000001 0.901240 0.183699
v -8.000001 0.001240 0.201680
v -8.000001 0.801240 0.401680
v -8.000001 -0.198760 0.401680
v -8.000001 -2.998760 3.801680
v -8.000001 -3.998760 3.801680
v -8.000001 -3.098760 4.001680
v -8.000001 -3.998760 4.001680
v -8.000001 -3.098760 5.001680
v -8.000001 -3.998760 5.001680
v -8.000001 0.801240 0.401680
v -8.000001 -0.198760 0.401680
v -8.000001 -2.998760 3.801680
v -8.000001 -3.998760 3.801680
v -8.000001 -3.098760 4.001680
v -8.000001 -3.998760 4.001680
v -8.000001 -3.098760 5.001680
v -8.000001 -3.998760 5.001680
v 0.100079 0.901240 0.182669
v 0.100079 0.998760 0.182669
v 0.100000 0.901240 -0.218277
v 0.100000 0.998760 -0.218277
v 0.100000 0.901240 -0.018319
v 0.100000 0.001240 -0.018319
v 0.100000 0.901240 -0.018319
v 0.100000 0.001240 -0.018319
vn -0.0000 -1.0000 -0.0000
vn 0.0001 -0.0000 1.0000
vn -0.0000 1.0000 -0.0000
vn -0.0000 -0.0000 -1.0000
vn 1.0000 -0.0000 -0.0000
vn -0.0000 -0.9089 -0.4170
vn -0.0000 -0.0000 1.0000
vn -1.0000 -0.0000 0.0050
vn -0.0000 0.9089 0.4170
vn -0.0000 0.6668 0.7452
vn -0.0000 -0.8944 -0.4472
vn -1.0000 -0.0000 -0.0000
vn -0.0000 -0.6668 -0.7452
vn -0.0000 0.8944 0.4472
vn -0.7069 -0.0000 -0.7073
vn 0.0056 -0.0000 -1.0000
vt 0.938009 0.807377
vt 0.938009 0.877105
vt 0.897923 0.877105
vt 0.897923 0.807377
vt 0.938009 0.863824
vt 0.897923 0.863824
vt 0.897923 0.877328
vt 0.938009 0.877328
vt 0.980020 0.807377
vt 0.980020 0.877328
vt 0.938009 0.814847
vt 0.980020 0.814847
vt 0.936493 0.877150
vt 0.936510 0.808648
vt 0.958434 0.808487
vt 0.964717 0.832518
vt 0.881476 0.865091
vt 0.996028 0.865091
vt 0.996028 0.893025
vt 0.881476 0.893025
vt 0.991282 0.807911
vt 0.888317 0.807911
vt 0.888317 0.890553
vt 0.991282 0.890553
vt 0.667762 0.652394
vt 0.667762 0.676030
vt 0.782409 0.676030
vt 0.782409 0.652394
vt 0.634745 0.702389
vt 0.639472 0.700731
vt 0.639472 0.678625
vt 0.634745 0.680283
vt 0.914552 0.808487
vt 0.936476 0.808648
vt 0.908269 0.832518
vt 0.920186 0.806965
vt 0.951341 0.806965
vt 0.951341 0.810299
vt 0.920186 0.810299
vt 0.900579 0.879023
vt 0.983221 0.879023
vt 0.983221 0.897148
vt 0.900579 0.897148
vt 0.898479 0.807077
vt 0.981121 0.807077
vt 0.981121 0.873792
vt 0.898479 0.873792
vt 0.893337 0.877150
vt 0.893208 0.842551
vt 0.973157 0.807911
vt 0.906442 0.807911
vt 0.973157 0.890553
vt 0.906442 0.890553
vt 0.974255 0.814324
vt 0.891613 0.814324
vt 0.891613 0.806432
vt 0.974255 0.806432
vt 0.906442 0.807911
vt 0.973157 0.807911
vt 0.973157 0.890553
vt 0.906442 0.890553
vt 0.971715 0.881454
vt 0.971715 0.806704
vt 0.925229 0.806704
vt 0.925230 0.881454
vt 0.991282 0.815045
vt 0.888317 0.815045
vt 0.906442 0.815045
vt 0.973157 0.815045
vt 0.632336 0.702389
vt 0.632336 0.680283
vt 0.920886 0.887861
vt 0.968078 0.887861
vt 0.968078 0.892464
vt 0.920886 0.892464
vt 0.973157 0.892215
vt 0.906442 0.892215
vt 0.888317 0.892215
vt 0.991282 0.892215
vt 0.744559 0.602793
vt 0.749006 0.601417
vt 0.749006 0.579310
vt 0.744559 0.580686
vt 0.630280 0.702389
vt 0.630280 0.680283
vt 0.951341 0.826793
vt 0.920186 0.826793
vt 0.951341 0.814331
vt 0.920186 0.812865
vt 0.769254 0.601417
vt 0.769254 0.579310
vt 0.926653 0.807162
vt 0.973846 0.807162
vt 0.973846 0.876637
vt 0.926653 0.876637
vt 0.979778 0.842551
vt 0.951341 0.812865
vt 0.920186 0.814331
vt 0.979649 0.877150
vt 0.897923 0.810774
vt 0.938009 0.810774
vt 0.980020 0.863091
vt 0.938009 0.863091
vt 0.980020 0.877105
vt 0.667398 0.652394
vt 0.782045 0.652394
vt 0.782045 0.676030
vt 0.667398 0.676030
s 0
f 65/1/1 67/2/1 5/3/1 7/4/1
f 65/5/2 7/6/2 8/7/2 66/8/2
f 66/8/3 68/1/3 2/9/3 4/10/3
f 67/11/4 1/12/4 2/9/4 68/1/4
f 3/13/1 12/14/1 36/15/1 37/16/1
f 7/17/5 5/18/5 6/19/5 8/20/5
f 17/21/6 15/22/6 12/23/6 3/24/6
f 71/25/7 72/26/7 29/27/7 34/28/7
f 11/29/5 57/30/5 58/31/5 9/32/5
f 38/33/3 13/34/3 4/13/3 40/35/3
f 36/36/8 12/37/8 13/38/8 38/39/8
f 4/40/5 18/41/5 17/42/5 3/43/5
f 13/44/9 16/45/9 18/46/9 4/47/9
f 2/48/3 39/49/3 40/35/3 4/13/3
f 16/21/10 21/22/10 23/23/10 18/24/10
f 22/21/11 27/22/11 25/23/11 20/24/11
f 15/50/12 20/51/12 21/22/12 16/21/12
f 17/52/13 22/53/13 20/51/13 15/50/13
f 12/54/12 15/55/12 16/56/12 13/57/12
f 21/58/14 26/59/14 28/60/14 23/61/14
f 32/62/1 30/63/1 25/64/1 27/65/1
f 20/66/12 25/67/12 26/68/12 21/69/12
f 18/24/5 23/23/5 22/53/5 17/52/5
f 19/70/5 11/29/5 9/32/5 14/71/5
f 28/72/5 33/73/5 32/74/5 27/75/5
f 23/76/5 28/77/5 27/78/5 22/79/5
f 59/80/5 61/81/5 62/82/5 60/83/5
f 10/84/7 19/70/7 14/71/7 24/85/7
f 30/36/7 32/37/7 33/86/7 31/87/7
f 57/30/5 59/80/5 60/83/5 58/31/5
f 25/36/12 30/37/12 31/88/12 26/89/12
f 61/81/5 63/90/5 64/91/5 62/82/5
f 26/92/3 31/93/3 33/94/3 28/95/3
f 35/96/1 37/16/1 36/15/1
f 38/33/3 40/35/3 39/49/3
f 35/36/15 36/37/15 38/97/15 39/89/15
f 1/36/16 35/37/16 39/97/16 2/98/16
f 69/25/4 42/28/4 43/27/4 70/26/4
f 41/84/4 44/85/4 46/71/4 45/70/4
f 47/29/12 48/32/12 50/31/12 49/30/12
f 45/70/12 46/71/12 48/32/12 47/29/12
f 49/30/12 50/31/12 52/83/12 51/80/12
f 53/81/12 54/82/12 56/91/12 55/90/12
f 51/80/12 52/83/12 54/82/12 53/81/12
f 3/13/1 37/16/1 35/96/1 1/99/1
f 5/100/4 67/101/4 68/1/4 6/4/4
f 8/7/3 6/4/3 68/1/3 66/8/3
f 3/102/2 65/103/2 66/8/2 4/10/2
f 3/9/1 1/104/1 67/2/1 65/1/1
f 41/105/4 69/106/4 70/107/4 44/108/4
f 10/105/7 24/108/7 72/107/7 71/106/7
