# Blender 4.4.3
# www.blender.org
o SM_ElevatedRailHigh_GrindRail_V1.0
v -7.950000 2.431240 -0.199957
v -7.950000 2.468760 -0.199957
v -7.950000 2.431240 0.199959
v -7.950000 2.468760 0.199959
v -7.970000 2.401240 -0.169957
v -8.000000 2.431240 -0.169957
v -7.977125 2.414965 -0.189192
v -8.000000 2.468760 -0.169957
v -7.970000 2.498760 -0.169957
v -7.977125 2.485035 -0.189192
v -8.000000 2.431240 0.169959
v -7.970000 2.401240 0.169959
v -7.977125 2.414965 0.189195
v -7.970000 2.498760 0.169959
v -8.000000 2.468760 0.169959
v -7.977125 2.485035 0.189195
v 7.950000 0.931240 -0.199957
v 7.950000 0.968760 -0.199957
v 7.950000 0.931240 0.199959
v 7.950000 0.968760 0.199959
v 7.970000 0.901240 -0.169957
v 8.000000 0.931240 -0.169957
v 7.977125 0.914965 -0.189192
v 8.000000 0.968760 -0.169957
v 7.970000 0.998760 -0.169957
v 7.977125 0.985035 -0.189192
v 8.000000 0.931240 0.169959
v 7.970000 0.901240 0.169959
v 7.977125 0.914965 0.189195
v 7.970000 0.998760 0.169959
v 8.000000 0.968760 0.169959
v 7.977125 0.985035 0.189195
v 3.502274 0.500652 -0.070448
v 3.502274 1.408652 -0.070448
v 3.551771 0.500652 -0.049946
v 3.551771 1.408652 -0.049946
v 3.572274 0.500652 -0.000448
v 3.572274 1.408652 -0.000448
v 3.551771 0.500652 0.049049
v 3.551771 1.408652 0.049049
v 3.502274 0.500652 0.069552
v 3.502274 1.408652 0.069552
v 3.452776 0.500652 0.049049
v 3.452776 1.408652 0.049049
v 3.432274 0.500652 -0.000448
v 3.432274 1.408652 -0.000448
v 3.452776 0.500652 -0.049946
v 3.452776 1.408652 -0.049946
v 4.502274 0.000652 -0.070448
v 4.502274 0.948652 -0.070448
v 4.551771 0.000652 -0.049946
v 4.551771 0.948652 -0.049946
v 4.572274 0.000652 -0.000448
v 4.572274 0.948652 -0.000448
v 4.551771 0.000652 0.049049
v 4.551771 0.948652 0.049049
v 4.502274 0.000652 0.069552
v 4.502274 0.948652 0.069552
v 4.452776 0.000652 0.049049
v 4.452776 0.948652 0.049049
v 4.432274 0.000652 -0.000448
v 4.432274 0.948652 -0.000448
v 4.452776 0.000652 -0.049946
v 4.452776 0.948652 -0.049946
v 5.502274 0.000652 -0.070448
v 5.502274 0.948652 -0.070448
v 5.551771 0.000652 -0.049946
v 5.551771 0.948652 -0.049946
v 5.572274 0.000652 -0.000448
v 5.572274 0.948652 -0.000448
v 5.551771 0.000652 0.049049
v 5.551771 0.948652 0.049049
v 5.502274 0.000652 0.069552
v 5.502274 0.948652 0.069552
v 5.452776 0.000652 0.049049
v 5.452776 0.948652 0.049049
v 5.432274 0.000652 -0.000448
v 5.432274 0.948652 -0.000448
v 5.452776 0.000652 -0.049946
v 5.452776 0.948652 -0.049946
v 6.502274 0.000652 -0.070448
v 6.502274 0.948652 -0.070448
v 6.551771 0.000652 -0.049946
v 6.551771 0.948652 -0.049946
v 6.572274 0.000652 -0.000448
v 6.572274 0.948652 -0.000448
v 6.551771 0.000652 0.049049
v 6.551771 0.948652 0.049049
v 6.502274 0.000652 0.069552
v 6.502274 0.948652 0.069552
v 6.452776 0.000652 0.049049
v 6.452776 0.948652 0.049049
v 6.432274 0.000652 -0.000448
v 6.432274 0.948652 -0.000448
v 6.452776 0.000652 -0.049946
v 6.452776 0.948652 -0.049946
v 7.502274 0.000652 -0.070448
v 7.502274 0.948652 -0.070448
v 7.551771 0.000652 -0.049946
v 7.551771 0.948652 -0.049946
v 7.572274 0.000652 -0.000448
v 7.572274 0.948652 -0.000448
v 7.551771 0.000652 0.049049
v 7.551771 0.948652 0.049049
v 7.502274 0.000652 0.069552
v 7.502274 0.948652 0.069552
v 7.452776 0.000652 0.049049
v 7.452776 0.948652 0.049049
v 7.432274 0.000652 -0.000448
v 7.432274 0.948652 -0.000448
v 7.452776 0.000652 -0.049946
v 7.452776 0.948652 -0.049946
v 0.496875 1.431240 0.199959
v 0.496875 1.468760 -0.199957
v 0.498125 1.401240 -0.169957
v 0.498125 1.401240 0.169959
v 0.496875 1.468760 0.199959
v 0.496875 1.431240 -0.199957
v 0.498125 1.498760 -0.169957
v 0.498125 1.498760 0.169959
v -0.495633 1.968760 0.199959
v -0.495633 1.931240 -0.199957
v -0.496880 1.998760 -0.169957
v -0.496880 1.998760 0.169959
v -0.495633 1.931240 0.199959
v -0.495633 1.968760 -0.199957
v -0.496880 1.901240 -0.169957
v -0.496880 1.901240 0.169959
v 4.499938 0.931240 0.199959
v 4.499938 0.968760 -0.199957
v 4.499938 0.901240 -0.169957
v 4.499938 0.901240 0.169959
v 4.499938 0.968760 0.199959
v 4.499938 0.931240 -0.199957
v 4.499938 0.998760 -0.169957
v 4.499938 0.998760 0.169959
v 3.498406 1.468760 0.199959
v 3.498406 1.431240 -0.199957
v 3.499031 1.498760 -0.169957
v 3.499031 1.498760 0.169959
v 3.498406 1.431240 0.199959
v 3.498406 1.468760 -0.199957
v 3.499031 1.401240 -0.169957
v 3.499031 1.401240 0.169959
v -3.498128 1.968760 0.199959
v -3.498128 1.931240 -0.199957
v -3.498128 1.998760 -0.169957
v -3.498128 1.998760 0.169959
v -3.498128 1.931240 0.199959
v -3.498128 1.968760 -0.199957
v -3.498128 1.901240 -0.169957
v -3.498128 1.901240 0.169959
v -4.497504 2.468760 0.199959
v -4.497504 2.431240 -0.199957
v -4.497504 2.498760 -0.169957
v -4.497504 2.498760 0.169959
v -4.497504 2.431240 0.199959
v -4.497504 2.468760 -0.199957
v -4.497504 2.401240 -0.169957
v -4.497504 2.401240 0.169959
v 2.502274 0.500652 -0.070448
v 2.502274 1.448652 -0.070448
v 2.551771 0.500652 -0.049946
v 2.551771 1.448652 -0.049946
v 2.572274 0.500652 -0.000448
v 2.572274 1.448652 -0.000448
v 2.551771 0.500652 0.049049
v 2.551771 1.448652 0.049049
v 2.502274 0.500652 0.069552
v 2.502274 1.448652 0.069552
v 2.452776 0.500652 0.049049
v 2.452776 1.448652 0.049049
v 2.432274 0.500652 -0.000448
v 2.432274 1.448652 -0.000448
v 2.452776 0.500652 -0.049946
v 2.452776 1.448652 -0.049946
v 1.502274 0.500652 -0.070448
v 1.502274 1.448652 -0.070448
v 1.551771 0.500652 -0.049946
v 1.551771 1.448652 -0.049946
v 1.572274 0.500652 -0.000448
v 1.572274 1.448652 -0.000448
v 1.551771 0.500652 0.049049
v 1.551771 1.448652 0.049049
v 1.502274 0.500652 0.069552
v 1.502274 1.448652 0.069552
v 1.452776 0.500652 0.049049
v 1.452776 1.448652 0.049049
v 1.432274 0.500652 -0.000448
v 1.432274 1.448652 -0.000448
v 1.452776 0.500652 -0.049946
v 1.452776 1.448652 -0.049946
v 0.502274 0.500652 -0.070448
v 0.502274 1.448652 -0.070448
v 0.551771 0.500652 -0.049946
v 0.551771 1.448652 -0.049946
v 0.572274 0.500652 -0.000448
v 0.572274 1.448652 -0.000448
v 0.551771 0.500652 0.049049
v 0.551771 1.448652 0.049049
v 0.502274 0.500652 0.069552
v 0.502274 1.448652 0.069552
v 0.452776 0.500652 0.049049
v 0.452776 1.448652 0.049049
v 0.432274 0.500652 -0.000448
v 0.432274 1.448652 -0.000448
v 0.452776 0.500652 -0.049946
v 0.452776 1.448652 -0.049946
v -0.497726 1.000652 -0.070448
v -0.497726 1.908652 -0.070448
v -0.448229 1.000652 -0.049946
v -0.448229 1.908652 -0.049946
v -0.427726 1.000652 -0.000448
v -0.427726 1.908652 -0.000448
v -0.448229 1.000652 0.049049
v -0.448229 1.908652 0.049049
v -0.497726 1.000652 0.069552
v -0.497726 1.908652 0.069552
v -0.547224 1.000652 0.049049
v -0.547224 1.908652 0.049049
v -0.567726 1.000652 -0.000448
v -0.567726 1.908652 -0.000448
v -0.547224 1.000652 -0.049946
v -0.547224 1.908652 -0.049946
v -1.497726 1.000652 -0.070448
v -1.497726 1.948652 -0.070448
v -1.448229 1.000652 -0.049946
v -1.448229 1.948652 -0.049946
v -1.427726 1.000652 -0.000448
v -1.427726 1.948652 -0.000448
v -1.448229 1.000652 0.049049
v -1.448229 1.948652 0.049049
v -1.497726 1.000652 0.069552
v -1.497726 1.948652 0.069552
v -1.547224 1.000652 0.049049
v -1.547224 1.948652 0.049049
v -1.567726 1.000652 -0.000448
v -1.567726 1.948652 -0.000448
v -1.547224 1.000652 -0.049946
v -1.547224 1.948652 -0.049946
v -2.497726 1.000652 -0.070448
v -2.497726 1.948652 -0.070448
v -2.448229 1.000652 -0.049946
v -2.448229 1.948652 -0.049946
v -2.427726 1.000652 -0.000448
v -2.427726 1.948652 -0.000448
v -2.448229 1.000652 0.049049
v -2.448229 1.948652 0.049049
v -2.497726 1.000652 0.069552
v -2.497726 1.948652 0.069552
v -2.547224 1.000652 0.049049
v -2.547224 1.948652 0.049049
v -2.567726 1.000652 -0.000448
v -2.567726 1.948652 -0.000448
v -2.547224 1.000652 -0.049946
v -2.547224 1.948652 -0.049946
v -3.497726 1.000652 -0.070448
v -3.497726 1.948652 -0.070448
v -3.448229 1.000652 -0.049946
v -3.448229 1.948652 -0.049946
v -3.427726 1.000652 -0.000448
v -3.427726 1.948652 -0.000448
v -3.448229 1.000652 0.049049
v -3.448229 1.948652 0.049049
v -3.497726 1.000652 0.069552
v -3.497726 1.948652 0.069552
v -3.547224 1.000652 0.049049
v -3.547224 1.948652 0.049049
v -3.567726 1.000652 -0.000448
v -3.567726 1.948652 -0.000448
v -3.547224 1.000652 -0.049946
v -3.547224 1.948652 -0.049946
v -4.497726 1.500652 -0.070448
v -4.497726 2.408652 -0.070448
v -4.448229 1.500652 -0.049946
v -4.448229 2.408652 -0.049946
v -4.427726 1.500652 -0.000448
v -4.427726 2.408652 -0.000448
v -4.448229 1.500652 0.049049
v -4.448229 2.408652 0.049049
v -4.497726 1.500652 0.069552
v -4.497726 2.408652 0.069552
v -4.547224 1.500652 0.049049
v -4.547224 2.408652 0.049049
v -4.567726 1.500652 -0.000448
v -4.567726 2.408652 -0.000448
v -4.547224 1.500652 -0.049946
v -4.547224 2.408652 -0.049946
v -5.497726 1.500652 -0.070448
v -5.497726 2.448652 -0.070448
v -5.448229 1.500652 -0.049946
v -5.448229 2.448652 -0.049946
v -5.427726 1.500652 -0.000448
v -5.427726 2.448652 -0.000448
v -5.448229 1.500652 0.049049
v -5.448229 2.448652 0.049049
v -5.497726 1.500652 0.069552
v -5.497726 2.448652 0.069552
v -5.547224 1.500652 0.049049
v -5.547224 2.448652 0.049049
v -5.567726 1.500652 -0.000448
v -5.567726 2.448652 -0.000448
v -5.547224 1.500652 -0.049946
v -5.547224 2.448652 -0.049946
v -6.497726 1.500652 -0.070448
v -6.497726 2.448652 -0.070448
v -6.448229 1.500652 -0.049946
v -6.448229 2.448652 -0.049946
v -6.427726 1.500652 -0.000448
v -6.427726 2.448652 -0.000448
v -6.448229 1.500652 0.049049
v -6.448229 2.448652 0.049049
v -6.497726 1.500652 0.069552
v -6.497726 2.448652 0.069552
v -6.547224 1.500652 0.049049
v -6.547224 2.448652 0.049049
v -6.567726 1.500652 -0.000448
v -6.567726 2.448652 -0.000448
v -6.547224 1.500652 -0.049946
v -6.547224 2.448652 -0.049946
v -7.497726 1.500652 -0.070448
v -7.497726 2.448652 -0.070448
v -7.448229 1.500652 -0.049946
v -7.448229 2.448652 -0.049946
v -7.427726 1.500652 -0.000448
v -7.427726 2.448652 -0.000448
v -7.448229 1.500652 0.049049
v -7.448229 2.448652 0.049049
v -7.497726 1.500652 0.069552
v -7.497726 2.448652 0.069552
v -7.547224 1.500652 0.049049
v -7.547224 2.448652 0.049049
v -7.567726 1.500652 -0.000448
v -7.567726 2.448652 -0.000448
v -7.547224 1.500652 -0.049946
v -7.547224 2.448652 -0.049946
vn -0.3689 -0.0000 -0.9295
vn -0.0000 -0.7071 0.7071
vn 0.2093 0.7577 -0.6181
vn -0.3689 -0.0000 0.9295
vn -0.0000 -0.0000 1.0000
vn -1.0000 -0.0000 -0.0000
vn 0.2093 -0.7577 0.6181
vn -0.0000 0.7071 -0.7071
vn -0.6872 -0.6872 -0.2357
vn -0.6872 0.6872 -0.2357
vn -0.6872 -0.6872 0.2357
vn -0.6872 0.6872 0.2357
vn -0.7071 -0.7071 -0.0000
vn -0.7071 0.7071 -0.0000
vn -0.0000 0.7071 0.7071
vn -0.6436 -0.0000 -0.7654
vn -0.6436 -0.0000 0.7654
vn 0.2093 -0.7577 -0.6181
vn 0.2093 0.7577 0.6181
vn -0.0000 -1.0000 -0.0000
vn -0.0000 -0.0000 -1.0000
vn -0.0000 -0.7071 -0.7071
vn 0.3689 -0.0000 -0.9295
vn -0.2093 0.7577 -0.6181
vn 0.3689 -0.0000 0.9295
vn 1.0000 -0.0000 -0.0000
vn -0.2093 -0.7577 0.6181
vn 0.6872 -0.6872 -0.2357
vn 0.6872 0.6872 -0.2357
vn 0.6872 -0.6872 0.2357
vn 0.6872 0.6872 0.2357
vn 0.7071 -0.7071 -0.0000
vn 0.7071 0.7071 -0.0000
vn 0.6436 -0.0000 -0.7654
vn 0.6436 -0.0000 0.7654
vn -0.2093 -0.7577 -0.6181
vn -0.2093 0.7577 0.6181
vn -0.0000 1.0000 -0.0000
vn 0.3827 -0.0000 -0.9239
vn 0.9239 -0.0000 -0.3827
vn 0.9239 -0.0000 0.3827
vn 0.3827 -0.0000 0.9239
vn -0.3827 -0.0000 0.9239
vn -0.9239 -0.0000 0.3827
vn -0.9239 -0.0000 -0.3827
vn -0.3827 -0.0000 -0.9239
vn -0.3352 -0.6662 -0.6662
vn -0.4490 -0.8935 -0.0000
vn 0.3352 0.6662 0.6662
vn 0.4490 0.8935 -0.0000
vn 0.3352 0.6662 -0.6662
vn -0.3352 -0.6662 0.6662
vn -0.3337 -0.6683 -0.6648
vn -0.4469 -0.8946 -0.0000
vn 0.3322 0.6652 0.6687
vn -0.3337 -0.6683 0.6648
vn 0.3322 0.6652 -0.6687
vn 0.4469 0.8946 -0.0000
vn -0.3335 -0.6666 -0.6666
vn -0.4474 -0.8943 -0.0000
vn 0.3335 0.6666 0.6666
vn 0.4474 0.8943 -0.0000
vn 0.3335 0.6666 -0.6666
vn -0.3335 -0.6666 0.6666
vt 0.942097 0.890977
vt 0.955339 0.891034
vt 0.953460 0.897908
vt 0.943882 0.898744
vt 0.970130 0.883920
vt 0.990528 0.883920
vt 0.990528 0.877437
vt 0.970130 0.877437
vt 0.961341 0.889301
vt 0.955455 0.815588
vt 0.942213 0.815531
vt 0.944092 0.808656
vt 0.953670 0.807820
vt 0.915035 0.883920
vt 0.894651 0.883920
vt 0.894651 0.890312
vt 0.915035 0.890312
vt 0.952256 0.885194
vt 0.944853 0.885163
vt 0.945295 0.821371
vt 0.952698 0.821401
vt 0.936210 0.817263
vt 0.970130 0.820061
vt 0.990528 0.820061
vt 0.990528 0.826543
vt 0.970130 0.826543
vt 0.936210 0.889268
vt 0.961341 0.817297
vt 0.894651 0.896795
vt 0.915035 0.896795
vt 0.915035 0.826838
vt 0.894651 0.826838
vt 0.894651 0.877437
vt 0.915035 0.877437
vt 0.970130 0.813668
vt 0.990528 0.813668
vt 0.915035 0.813668
vt 0.894651 0.813668
vt 0.894651 0.807185
vt 0.915035 0.807185
vt 0.970130 0.877142
vt 0.990528 0.877142
vt 0.977873 0.708867
vt 0.977873 0.783524
vt 0.968402 0.783524
vt 0.968402 0.708867
vt 0.958931 0.783524
vt 0.958931 0.708867
vt 0.949459 0.783524
vt 0.949459 0.708867
vt 0.939988 0.783524
vt 0.939988 0.708867
vt 0.930517 0.783524
vt 0.930517 0.708867
vt 0.921045 0.783524
vt 0.921045 0.708867
vt 0.911574 0.783524
vt 0.911574 0.708867
vt 0.902102 0.783524
vt 0.902102 0.708867
vt 0.921628 0.877142
vt 0.921628 0.826543
vt 0.939309 0.826543
vt 0.939309 0.877142
vt 0.945862 0.813668
vt 0.939309 0.813668
vt 0.939309 0.807185
vt 0.945862 0.807185
vt 0.921628 0.813668
vt 0.939309 0.820061
vt 0.921628 0.820061
vt 0.945862 0.826838
vt 0.939309 0.826838
vt 0.939309 0.877437
vt 0.945862 0.877437
vt 0.945862 0.890312
vt 0.939309 0.890312
vt 0.939309 0.896795
vt 0.945862 0.896795
vt 0.945862 0.883920
vt 0.939309 0.883920
vt 0.921628 0.883920
vt 0.921628 0.877437
vt 0.963547 0.883920
vt 0.963547 0.890312
vt 0.963547 0.896795
vt 0.963547 0.826838
vt 0.963547 0.877437
vt 0.963547 0.813668
vt 0.963547 0.807185
vt 0.945862 0.826543
vt 0.945862 0.877142
vt 0.945862 0.820061
vt 0.894651 0.820061
vt 0.915035 0.820061
vt 0.915035 0.826543
vt 0.894651 0.826543
vt 0.894651 0.877142
vt 0.915035 0.877142
vt 0.921628 0.807185
vt 0.921628 0.826838
vt 0.921628 0.890312
vt 0.921628 0.896795
vt 0.970130 0.807185
vt 0.970130 0.826838
vt 0.970130 0.890312
vt 0.970130 0.896795
vt 0.963547 0.826543
vt 0.963547 0.877142
vt 0.963547 0.820061
vt 0.990528 0.890312
vt 0.990528 0.896795
vt 0.990528 0.826838
vt 0.990528 0.807185
s 0
f 7/1/1 10/2/1 2/3/1 1/4/1
f 157/5/2 3/6/2 12/7/2 160/8/2
f 10/2/3 9/9/3 2/3/3
f 16/10/4 13/11/4 3/12/4 4/13/4
f 129/14/5 19/15/5 20/16/5 133/17/5
f 8/18/6 6/19/6 11/20/6 15/21/6
f 13/11/7 12/22/7 3/12/7
f 158/23/8 2/24/8 9/25/8 155/26/8
f 5/27/9 6/19/9 7/1/9
f 8/18/10 9/9/10 10/2/10
f 11/20/11 12/22/11 13/11/11
f 14/28/12 15/21/12 16/10/12
f 11/20/13 6/19/13 5/27/13 12/22/13
f 8/18/14 15/21/14 14/28/14 9/9/14
f 133/17/15 20/16/15 30/29/15 136/30/15
f 10/2/16 7/1/16 6/19/16 8/18/16
f 13/11/17 16/10/17 15/21/17 11/20/17
f 1/4/18 5/27/18 7/1/18
f 4/13/19 14/28/19 16/10/19
f 131/31/20 21/32/20 28/33/20 132/34/20
f 154/35/21 1/36/21 2/24/21 158/23/21
f 134/37/22 17/38/22 21/39/22 131/40/22
f 23/2/23 17/3/23 18/4/23 26/1/23
f 26/1/24 18/4/24 25/27/24
f 32/11/25 20/12/25 19/13/25 29/10/25
f 24/19/26 31/20/26 27/21/26 22/18/26
f 29/10/27 19/13/27 28/28/27
f 21/9/28 23/2/28 22/18/28
f 24/19/29 26/1/29 25/27/29
f 27/21/30 29/10/30 28/28/30
f 30/22/31 32/11/31 31/20/31
f 27/21/32 28/28/32 21/9/32 22/18/32
f 24/19/33 25/27/33 30/22/33 31/20/33
f 26/1/34 24/19/34 22/18/34 23/2/34
f 29/10/35 27/21/35 31/20/35 32/11/35
f 17/3/36 23/2/36 21/9/36
f 20/12/37 32/11/37 30/22/37
f 156/41/38 155/26/38 9/25/38 14/42/38
f 33/43/39 34/44/39 36/45/39 35/46/39
f 35/46/40 36/45/40 38/47/40 37/48/40
f 37/48/41 38/47/41 40/49/41 39/50/41
f 39/50/42 40/49/42 42/51/42 41/52/42
f 41/52/43 42/51/43 44/53/43 43/54/43
f 43/54/44 44/53/44 46/55/44 45/56/44
f 45/56/45 46/55/45 48/57/45 47/58/45
f 47/58/46 48/57/46 34/59/46 33/60/46
f 49/43/39 50/44/39 52/45/39 51/46/39
f 51/46/40 52/45/40 54/47/40 53/48/40
f 53/48/41 54/47/41 56/49/41 55/50/41
f 55/50/42 56/49/42 58/51/42 57/52/42
f 57/52/43 58/51/43 60/53/43 59/54/43
f 59/54/44 60/53/44 62/55/44 61/56/44
f 61/56/45 62/55/45 64/57/45 63/58/45
f 63/58/46 64/57/46 50/59/46 49/60/46
f 65/43/39 66/44/39 68/45/39 67/46/39
f 67/46/40 68/45/40 70/47/40 69/48/40
f 69/48/41 70/47/41 72/49/41 71/50/41
f 71/50/42 72/49/42 74/51/42 73/52/42
f 73/52/43 74/51/43 76/53/43 75/54/43
f 75/54/44 76/53/44 78/55/44 77/56/44
f 77/56/45 78/55/45 80/57/45 79/58/45
f 79/58/46 80/57/46 66/59/46 65/60/46
f 81/43/39 82/44/39 84/45/39 83/46/39
f 83/46/40 84/45/40 86/47/40 85/48/40
f 85/48/41 86/47/41 88/49/41 87/50/41
f 87/50/42 88/49/42 90/51/42 89/52/42
f 89/52/43 90/51/43 92/53/43 91/54/43
f 91/54/44 92/53/44 94/55/44 93/56/44
f 93/56/45 94/55/45 96/57/45 95/58/45
f 95/58/46 96/57/46 82/59/46 81/60/46
f 97/43/39 98/44/39 100/45/39 99/46/39
f 99/46/40 100/45/40 102/47/40 101/48/40
f 101/48/41 102/47/41 104/49/41 103/50/41
f 103/50/42 104/49/42 106/51/42 105/52/42
f 105/52/43 106/51/43 108/53/43 107/54/43
f 107/54/44 108/53/44 110/55/44 109/56/44
f 109/56/45 110/55/45 112/57/45 111/58/45
f 111/58/46 112/57/46 98/59/46 97/60/46
f 140/61/38 139/62/38 119/63/38 120/64/38
f 122/65/47 118/66/47 115/67/47 127/68/47
f 138/69/21 118/66/21 114/70/21 142/71/21
f 127/72/48 115/73/48 116/74/48 128/75/48
f 121/76/49 117/77/49 120/78/49 124/79/49
f 142/71/8 114/70/8 119/63/8 139/62/8
f 125/80/5 113/81/5 117/77/5 121/76/5
f 141/82/2 113/81/2 116/74/2 144/83/2
f 149/84/5 125/80/5 121/76/5 145/85/5
f 145/85/15 121/76/15 124/79/15 148/86/15
f 151/87/20 127/72/20 128/75/20 152/88/20
f 146/89/22 122/65/22 127/68/22 151/90/22
f 120/64/50 119/63/50 123/91/50 124/92/50
f 118/66/21 122/65/21 126/93/21 114/70/21
f 114/70/51 126/93/51 123/91/51 119/63/51
f 113/81/52 125/80/52 128/75/52 116/74/52
f 19/15/2 129/14/2 132/34/2 28/33/2
f 18/94/8 130/95/8 135/96/8 25/97/8
f 17/38/21 134/37/21 130/95/21 18/94/21
f 30/98/38 25/97/38 135/96/38 136/99/38
f 138/69/53 134/37/53 131/40/53 143/100/53
f 143/101/54 131/31/54 132/34/54 144/83/54
f 137/102/55 133/17/55 136/30/55 140/103/55
f 141/82/5 129/14/5 133/17/5 137/102/5
f 113/81/5 141/82/5 137/102/5 117/77/5
f 117/77/15 137/102/15 140/103/15 120/78/15
f 115/73/20 143/101/20 144/83/20 116/74/20
f 118/66/22 138/69/22 143/100/22 115/67/22
f 129/14/56 141/82/56 144/83/56 132/34/56
f 130/95/57 142/71/57 139/62/57 135/96/57
f 134/37/21 138/69/21 142/71/21 130/95/21
f 136/99/58 135/96/58 139/62/58 140/61/58
f 154/35/59 146/89/59 151/90/59 159/104/59
f 159/105/60 151/87/60 152/88/60 160/8/60
f 153/106/61 145/85/61 148/86/61 156/107/61
f 157/5/5 149/84/5 145/85/5 153/106/5
f 124/92/38 123/91/38 147/108/38 148/109/38
f 122/65/21 146/89/21 150/110/21 126/93/21
f 126/93/8 150/110/8 147/108/8 123/91/8
f 125/80/2 149/84/2 152/88/2 128/75/2
f 3/6/5 157/5/5 153/106/5 4/111/5
f 4/111/15 153/106/15 156/107/15 14/112/15
f 5/113/20 159/105/20 160/8/20 12/7/20
f 1/36/22 154/35/22 159/104/22 5/114/22
f 148/109/62 147/108/62 155/26/62 156/41/62
f 146/89/21 154/35/21 158/23/21 150/110/21
f 150/110/63 158/23/63 155/26/63 147/108/63
f 149/84/64 157/5/64 160/8/64 152/88/64
f 161/43/39 162/44/39 164/45/39 163/46/39
f 163/46/40 164/45/40 166/47/40 165/48/40
f 165/48/41 166/47/41 168/49/41 167/50/41
f 167/50/42 168/49/42 170/51/42 169/52/42
f 169/52/43 170/51/43 172/53/43 171/54/43
f 171/54/44 172/53/44 174/55/44 173/56/44
f 173/56/45 174/55/45 176/57/45 175/58/45
f 175/58/46 176/57/46 162/59/46 161/60/46
f 177/43/39 178/44/39 180/45/39 179/46/39
f 179/46/40 180/45/40 182/47/40 181/48/40
f 181/48/41 182/47/41 184/49/41 183/50/41
f 183/50/42 184/49/42 186/51/42 185/52/42
f 185/52/43 186/51/43 188/53/43 187/54/43
f 187/54/44 188/53/44 190/55/44 189/56/44
f 189/56/45 190/55/45 192/57/45 191/58/45
f 191/58/46 192/57/46 178/59/46 177/60/46
f 193/43/39 194/44/39 196/45/39 195/46/39
f 195/46/40 196/45/40 198/47/40 197/48/40
f 197/48/41 198/47/41 200/49/41 199/50/41
f 199/50/42 200/49/42 202/51/42 201/52/42
f 201/52/43 202/51/43 204/53/43 203/54/43
f 203/54/44 204/53/44 206/55/44 205/56/44
f 205/56/45 206/55/45 208/57/45 207/58/45
f 207/58/46 208/57/46 194/59/46 193/60/46
f 209/43/39 210/44/39 212/45/39 211/46/39
f 211/46/40 212/45/40 214/47/40 213/48/40
f 213/48/41 214/47/41 216/49/41 215/50/41
f 215/50/42 216/49/42 218/51/42 217/52/42
f 217/52/43 218/51/43 220/53/43 219/54/43
f 219/54/44 220/53/44 222/55/44 221/56/44
f 221/56/45 222/55/45 224/57/45 223/58/45
f 223/58/46 224/57/46 210/59/46 209/60/46
f 225/43/39 226/44/39 228/45/39 227/46/39
f 227/46/40 228/45/40 230/47/40 229/48/40
f 229/48/41 230/47/41 232/49/41 231/50/41
f 231/50/42 232/49/42 234/51/42 233/52/42
f 233/52/43 234/51/43 236/53/43 235/54/43
f 235/54/44 236/53/44 238/55/44 237/56/44
f 237/56/45 238/55/45 240/57/45 239/58/45
f 239/58/46 240/57/46 226/59/46 225/60/46
f 241/43/39 242/44/39 244/45/39 243/46/39
f 243/46/40 244/45/40 246/47/40 245/48/40
f 245/48/41 246/47/41 248/49/41 247/50/41
f 247/50/42 248/49/42 250/51/42 249/52/42
f 249/52/43 250/51/43 252/53/43 251/54/43
f 251/54/44 252/53/44 254/55/44 253/56/44
f 253/56/45 254/55/45 256/57/45 255/58/45
f 255/58/46 256/57/46 242/59/46 241/60/46
f 257/43/39 258/44/39 260/45/39 259/46/39
f 259/46/40 260/45/40 262/47/40 261/48/40
f 261/48/41 262/47/41 264/49/41 263/50/41
f 263/50/42 264/49/42 266/51/42 265/52/42
f 265/52/43 266/51/43 268/53/43 267/54/43
f 267/54/44 268/53/44 270/55/44 269/56/44
f 269/56/45 270/55/45 272/57/45 271/58/45
f 271/58/46 272/57/46 258/59/46 257/60/46
f 273/43/39 274/44/39 276/45/39 275/46/39
f 275/46/40 276/45/40 278/47/40 277/48/40
f 277/48/41 278/47/41 280/49/41 279/50/41
f 279/50/42 280/49/42 282/51/42 281/52/42
f 281/52/43 282/51/43 284/53/43 283/54/43
f 283/54/44 284/53/44 286/55/44 285/56/44
f 285/56/45 286/55/45 288/57/45 287/58/45
f 287/58/46 288/57/46 274/59/46 273/60/46
f 289/43/39 290/44/39 292/45/39 291/46/39
f 291/46/40 292/45/40 294/47/40 293/48/40
f 293/48/41 294/47/41 296/49/41 295/50/41
f 295/50/42 296/49/42 298/51/42 297/52/42
f 297/52/43 298/51/43 300/53/43 299/54/43
f 299/54/44 300/53/44 302/55/44 301/56/44
f 301/56/45 302/55/45 304/57/45 303/58/45
f 303/58/46 304/57/46 290/59/46 289/60/46
f 305/43/39 306/44/39 308/45/39 307/46/39
f 307/46/40 308/45/40 310/47/40 309/48/40
f 309/48/41 310/47/41 312/49/41 311/50/41
f 311/50/42 312/49/42 314/51/42 313/52/42
f 313/52/43 314/51/43 316/53/43 315/54/43
f 315/54/44 316/53/44 318/55/44 317/56/44
f 317/56/45 318/55/45 320/57/45 319/58/45
f 319/58/46 320/57/46 306/59/46 305/60/46
f 321/43/39 322/44/39 324/45/39 323/46/39
f 323/46/40 324/45/40 326/47/40 325/48/40
f 325/48/41 326/47/41 328/49/41 327/50/41
f 327/50/42 328/49/42 330/51/42 329/52/42
f 329/52/43 330/51/43 332/53/43 331/54/43
f 331/54/44 332/53/44 334/55/44 333/56/44
f 333/56/45 334/55/45 336/57/45 335/58/45
f 335/58/46 336/57/46 322/59/46 321/60/46
