# Blender 4.4.3
# www.blender.org
o SM_StraightRailLow_GrindRail_V1.1
v -8.000000 0.901240 0.199958
v -8.000000 0.998760 0.199958
v -8.000000 0.901240 -0.199958
v -8.000000 0.998760 -0.199958
v 8.000000 0.901240 0.199958
v 8.000000 0.998760 0.199958
v 8.000000 0.901240 -0.199958
v 8.000000 0.998760 -0.199958
v -8.000000 0.901240 0.000000
v 8.000000 0.901240 0.000000
v -8.000000 0.001240 0.000000
v 8.000000 0.001240 0.000000
v -8.000000 0.901240 0.000000
v 8.000000 0.901240 0.000000
v 8.000000 0.001240 0.000000
v -8.000000 0.001240 0.000000
v 0.000000 0.901240 -0.199958
v 0.000000 0.998760 -0.199958
v 0.000000 0.901240 0.199958
v 0.000000 0.998760 0.199958
v 0.000000 0.901240 0.000000
v 0.000000 0.001240 0.000000
v 0.000000 0.901240 0.000000
v 0.000000 0.001240 0.000000
vn -0.0000 -0.0000 1.0000
vn -0.0000 -0.0000 -1.0000
vn -0.0000 1.0000 -0.0000
vn -1.0000 -0.0000 -0.0000
vn -0.0000 -1.0000 -0.0000
vn 1.0000 -0.0000 -0.0000
vt 0.653319 0.654112
vt 0.653319 0.677414
vt 0.782102 0.677414
vt 0.782102 0.654112
vt 0.936444 0.806555
vt 0.895855 0.806554
vt 0.977033 0.806555
vt 0.977033 0.870804
vt 0.936444 0.870803
vt 0.895855 0.870803
vt 0.653319 0.654289
vt 0.782234 0.654289
vt 0.782234 0.677237
vt 0.653319 0.677237
vt 0.782353 0.654289
vt 0.782353 0.677237
vt 0.781983 0.654112
vt 0.781983 0.677414
s 0
f 23/1/1 24/2/1 12/3/1 10/4/1
f 17/5/2 18/5/2 8/6/2 7/6/2
f 18/5/3 4/7/3 2/8/3 20/9/3
f 19/9/1 20/9/1 2/8/1 1/8/1
f 1/8/4 2/8/4 4/7/4 3/7/4
f 17/5/5 7/6/5 5/10/5 19/9/5
f 6/10/6 5/10/6 7/6/6 8/6/6
f 21/11/2 14/12/2 15/13/2 22/14/2
f 3/7/5 17/5/5 19/9/5 1/8/5
f 5/10/1 6/10/1 20/9/1 19/9/1
f 8/6/3 18/5/3 20/9/3 6/10/3
f 3/7/2 4/7/2 18/5/2 17/5/2
f 13/15/2 21/11/2 22/14/2 16/16/2
f 9/17/1 11/18/1 24/2/1 23/1/1
