# Blender 4.4.3
# www.blender.org
o SM_Blue_Storefront_V1.0
v -1.010000 0.000000 0.500000
v -1.010000 1.220000 0.500000
v -1.010000 0.000000 0.000000
v -1.010000 1.220000 0.000000
v -1.010000 0.805582 0.500000
v -0.197267 0.802640 0.200000
v -0.553101 1.220000 0.500000
v -1.010000 0.200345 0.500000
v -0.197267 0.000000 0.500000
v -0.197267 0.805582 0.500000
v -0.197267 0.200345 0.500000
v -0.197267 0.000000 0.200000
v -0.197267 0.200345 0.200000
v -1.010000 0.805227 0.000000
v -1.010000 0.200345 0.000000
v 1.010000 0.000000 0.500000
v 1.010000 1.220000 0.500000
v 1.010000 0.000000 0.000000
v 1.010000 1.220000 0.000000
v 1.010000 0.805582 0.500000
v 0.197267 0.802640 0.200000
v 0.553101 1.220000 0.500000
v 1.010000 0.200345 0.500000
v 0.197267 0.000000 0.500000
v 0.197267 0.805582 0.500000
v 0.197267 0.200345 0.500000
v 0.197267 0.000000 0.200000
v 0.197267 0.200345 0.200000
v 1.010000 0.805227 0.000000
v 1.010000 0.200345 0.000000
v -0.553101 1.040000 0.720000
v -1.010000 1.040000 0.720000
v -0.197267 0.805582 0.900000
v -1.010000 0.805582 0.900000
v 0.553101 1.040000 0.720000
v 1.010000 1.040000 0.720000
v 0.197267 0.805582 0.900000
v 1.010000 0.805582 0.900000
v -0.172370 0.944290 0.662171
v -0.882526 0.944290 0.662171
v 0.172370 0.944290 0.662171
v 0.882526 0.944290 0.662171
vn -0.0000 -0.0000 1.0000
vn 1.0000 -0.0000 -0.0000
vn -0.0000 1.0000 -0.0000
vn -1.0000 -0.0000 -0.0000
vn -0.0000 -1.0000 0.0098
vn -0.0000 0.6090 0.7931
vn 0.7363 -0.6767 -0.0000
vn -0.0000 -0.8638 -0.5038
vn -0.0000 0.7740 0.6332
vn -0.0000 -0.7599 0.6500
vn -0.7363 -0.6767 -0.0000
vt 0.608332 0.908376
vt 0.608332 0.919513
vt 0.861443 0.513653
vt 0.861443 0.587500
vt 0.804604 0.587500
vt 0.804604 0.513653
vt 0.651188 0.903628
vt 0.651188 0.953268
vt 0.622330 0.953268
vt 0.622330 0.903628
vt 0.668502 0.903628
vt 0.668502 0.953268
vt 0.534151 0.971608
vt 0.533884 0.981413
vt 0.543783 0.986790
vt 0.607768 0.927062
vt 0.526258 0.985664
vt 0.538085 0.994461
vt 0.593473 0.952847
vt 0.593473 0.903628
vt 0.804604 0.513653
vt 0.861443 0.513653
vt 0.861443 0.587500
vt 0.804604 0.587500
vt 0.517109 0.969828
vt 0.525463 0.971154
vt 0.782561 0.963881
vt 0.782561 0.907601
vt 0.782561 0.939436
vt 0.859467 0.907601
vt 0.859467 0.939436
vt 0.842072 0.939436
vt 0.799956 0.939436
vt 0.813504 0.907601
vt 0.828524 0.907601
vt 0.787414 0.926439
vt 0.859467 0.963881
vt 0.814452 0.926439
vt 0.827577 0.926439
vt 0.799956 0.963881
vt 0.842072 0.963881
vt 0.854614 0.926439
s 0
f 12/1/1 27/1/1 28/2/1 13/2/1
f 11/3/1 10/4/1 5/5/1 8/6/1
f 9/7/1 11/8/1 8/9/1 1/10/1
f 11/8/2 9/7/2 12/11/2 13/12/2
f 7/13/3 22/13/3 17/14/3 19/15/3 4/15/3 2/14/3
f 13/2/1 28/2/1 21/16/1 6/16/1
f 5/17/4 2/14/4 4/15/4 14/18/4
f 8/9/4 15/19/4 3/20/4 1/10/4
f 14/5/4 15/21/4 8/3/4 5/4/4
f 11/6/2 13/22/2 6/23/2 10/24/2
f 6/25/5 21/25/5 25/26/5 10/26/5
f 26/3/1 23/6/1 20/5/1 25/4/1
f 24/7/1 16/10/1 23/9/1 26/8/1
f 26/8/4 28/12/4 27/11/4 24/7/4
f 20/17/2 29/18/2 19/15/2 17/14/2
f 23/9/2 16/10/2 18/20/2 30/19/2
f 29/5/2 20/4/2 23/3/2 30/21/2
f 26/6/4 25/24/4 21/23/4 28/22/4
f 2/27/4 5/28/4 34/28/4 32/29/4
f 38/30/6 36/31/6 35/32/6 31/33/6 32/29/6 34/28/6 33/34/6 37/35/6
f 34/28/7 5/28/7 40/36/7
f 20/30/2 17/37/2 36/31/2 38/30/2
f 33/34/8 34/28/8 40/36/8 39/38/8
f 37/35/8 33/34/8 39/38/8 41/39/8
f 7/40/9 2/27/9 32/29/9 31/33/9
f 17/37/9 22/41/9 35/32/9 36/31/9
f 22/41/9 7/40/9 31/33/9 35/32/9
f 10/34/10 25/35/10 41/39/10 39/38/10
f 38/30/8 37/35/8 41/39/8 42/42/8
f 20/17/11 38/17/11 42/17/11
f 5/28/10 10/34/10 39/38/10 40/36/10
f 25/35/10 20/30/10 42/42/10 41/39/10
