# Blender 4.4.3
# www.blender.org
o SM_CrazySpike_Buildings_V1.001
v -1.000000 0.000000 1.000000
v -1.000000 3.000000 1.000000
v -1.000000 0.000000 -1.000000
v -1.000000 3.000000 -1.000000
v 1.000000 0.000000 1.000000
v 1.000000 3.000000 1.000000
v 1.000000 0.000000 -1.000000
v 1.000000 3.000000 -1.000000
v -1.000000 0.000000 -0.333333
v -1.000000 0.000000 0.333333
v -1.000000 1.000000 1.000000
v -1.000000 2.000000 1.000000
v -1.000000 3.000000 0.333333
v -1.000000 3.000000 -0.333333
v -1.000000 2.000000 -1.000000
v -1.000000 1.000000 -1.000000
v 0.333333 0.000000 -1.000000
v -0.333333 0.000000 -1.000000
v -0.333333 3.000000 -1.000000
v 0.333333 3.000000 -1.000000
v 1.000000 2.000000 -1.000000
v 1.000000 1.000000 -1.000000
v 1.000000 0.000000 0.333333
v 1.000000 0.000000 -0.333333
v 1.000000 3.000000 -0.333333
v 1.000000 3.000000 0.333333
v 1.000000 2.000000 1.000000
v 1.000000 1.000000 1.000000
v -0.333333 0.000000 1.000000
v 0.333333 0.000000 1.000000
v 0.333333 3.000000 1.000000
v -0.333333 3.000000 1.000000
v 0.000000 3.000000 0.000000
v 0.333333 1.000000 1.000000
v -0.333333 1.000000 1.000000
v 0.333333 2.000000 1.000000
v -0.333333 2.000000 1.000000
v 1.000000 1.000000 -0.333333
v 1.000000 1.000000 0.333333
v 1.000000 2.000000 -0.333333
v 1.000000 2.000000 0.333333
v -0.333333 1.000000 -1.000000
v 0.333333 1.000000 -1.000000
v -0.333333 2.000000 -1.000000
v 0.333333 2.000000 -1.000000
v -1.000000 1.000000 0.333333
v -1.000000 1.000000 -0.333333
v -1.000000 2.000000 0.333333
v -1.000000 2.000000 -0.333333
v -1.300000 1.000000 0.666667
v -1.300000 2.000000 0.666667
v -1.300000 3.000000 0.000000
v -1.300000 2.000000 0.000000
v -1.300000 3.000000 -0.666667
v -1.300000 1.000000 -0.666667
v -1.300000 2.000000 -0.666667
v -1.300000 0.000000 -0.001222
v -1.300000 1.000000 -0.001222
v -0.666667 0.000000 -1.300000
v -0.666667 1.000000 -1.300000
v 0.000000 3.000000 -1.300000
v 0.000000 1.000000 -1.300000
v 0.000000 2.000000 -1.300000
v 0.666667 1.000000 -1.300000
v 0.666667 2.000000 -1.300000
v 1.300000 3.000000 -0.666667
v 1.300000 2.000000 -0.666667
v 1.300000 0.000000 0.000000
v 1.300000 1.000000 0.000000
v 1.300000 2.000000 0.000000
v 1.300000 0.000000 -0.672790
v 1.300000 1.000000 -0.672790
v 1.300000 3.000000 0.666667
v 1.300000 2.000000 0.666667
v -0.666667 3.000000 1.300000
v -0.666667 2.000000 1.300000
v 0.000000 1.000000 1.300000
v 0.000000 2.000000 1.300000
v 0.666667 1.000000 1.300000
v 0.666667 2.000000 1.300000
v -0.666667 0.000000 1.300000
v -0.666667 1.000000 1.300000
vn -0.7433 -0.0000 -0.6690
vn -0.0000 1.0000 -0.0000
vn 0.7433 -0.0000 0.6690
vn -0.0000 -0.0000 1.0000
vn 1.0000 -0.0000 -0.0000
vn 0.7493 -0.0000 0.6622
vn -0.0000 -0.0000 -1.0000
vn 0.6690 -0.0000 -0.7433
vn -1.0000 -0.0000 -0.0000
vn -0.7421 -0.0000 -0.6703
vn -0.6690 -0.0000 0.7433
vn 0.6690 -0.0000 0.7433
vn -0.7433 -0.0000 0.6690
vn -0.7445 -0.0000 0.6676
vn -0.6690 -0.0000 -0.7433
vn 0.7433 -0.0000 -0.6690
vn 0.7371 -0.0000 -0.6758
vn -0.0000 -1.0000 -0.0000
vt 0.249395 0.017098
vt 0.249395 0.522052
vt 0.022946 0.522052
vt 0.022946 0.017098
vt 0.184584 0.972371
vt 0.184584 0.553364
vt 0.373137 0.762868
vt 0.249184 0.017098
vt 0.249184 0.522052
vt 0.022736 0.522052
vt 0.022736 0.017098
vt 0.734681 0.730315
vt 0.965314 0.807193
vt 0.965314 0.960948
vt 0.811559 0.960948
vt 0.657804 0.960948
vt 0.504049 0.653438
vt 0.504049 0.807193
vt 0.657804 0.499683
vt 0.811559 0.499683
vt 0.965314 0.499683
vt 0.965314 0.653438
vt 0.513964 0.459447
vt 0.513964 0.016503
vt 0.809259 0.016503
vt 0.809259 0.459447
vt 0.249466 0.016383
vt 0.249466 0.521336
vt 0.023017 0.521336
vt 0.023017 0.016383
vt 0.475843 0.522052
vt 0.475843 0.017098
vt 0.475914 0.016383
vt 0.475914 0.521336
vt 0.475633 0.017098
vt 0.475633 0.522052
vt 0.504049 0.960948
vt 0.504049 0.499683
s 0
f 56/1/1 54/2/1 4/3/1 15/4/1
f 45/5/2 21/6/2 65/7/2
f 74/8/3 73/9/3 6/10/3 27/11/3
f 33/12/2 13/13/2 2/14/2 32/15/2
f 26/5/2 6/6/2 73/7/2
f 33/12/2 32/15/2 31/16/2
f 8/5/2 25/6/2 66/7/2
f 25/17/2 33/12/2 26/18/2
f 20/19/2 19/20/2 33/12/2
f 19/20/2 4/21/2 14/22/2 33/12/2
f 33/12/2 14/22/2 13/13/2
f 35/23/4 37/24/4 12/25/4 11/26/4
f 5/23/4 28/24/4 34/25/4 30/26/4
f 30/23/4 34/24/4 35/25/4 29/26/4
f 27/23/4 6/24/4 31/25/4 36/26/4
f 36/23/4 31/24/4 32/25/4 37/26/4
f 23/23/5 39/24/5 28/25/5 5/26/5
f 39/23/5 41/24/5 27/25/5 28/26/5
f 71/1/6 72/2/6 38/3/6 24/4/6
f 68/1/3 69/2/3 39/3/3 23/4/3
f 22/5/2 38/6/2 72/7/2
f 69/27/3 70/28/3 41/29/3 39/30/3
f 67/1/3 66/2/3 25/3/3 40/4/3
f 40/5/2 41/6/2 70/7/2
f 17/23/7 43/24/7 22/25/7 7/26/7
f 64/1/8 65/2/8 21/3/8 22/4/8
f 59/1/8 60/2/8 42/3/8 18/4/8
f 18/23/7 42/24/7 43/25/7 17/26/7
f 16/5/2 42/6/2 60/7/2
f 62/1/8 63/2/8 45/3/8 43/4/8
f 15/23/7 4/24/7 19/25/7 44/26/7
f 63/1/8 61/2/8 20/3/8 45/4/8
f 9/23/9 47/24/9 16/25/9 3/26/9
f 55/1/1 56/2/1 15/3/1 16/4/1
f 1/23/9 11/24/9 46/25/9 10/26/9
f 57/1/10 58/2/10 47/3/10 9/4/10
f 50/1/1 51/2/1 48/3/1 46/4/1
f 46/5/2 47/6/2 58/7/2
f 12/5/2 48/6/2 51/7/2
f 53/1/1 52/2/1 14/3/1 49/4/1
f 35/3/11 77/2/11 78/1/11 37/4/11
f 37/3/12 32/4/12 75/1/12 76/2/12
f 12/31/11 76/2/11 75/1/11 2/32/11
f 11/32/13 12/31/13 51/2/13 50/1/13
f 48/32/13 13/31/13 52/2/13 53/1/13
f 47/32/13 49/31/13 56/2/13 55/1/13
f 49/32/13 14/31/13 54/2/13 56/1/13
f 10/32/14 46/31/14 58/2/14 57/1/14
f 3/32/15 16/31/15 60/2/15 59/1/15
f 44/32/15 19/31/15 61/2/15 63/1/15
f 42/32/15 44/31/15 63/2/15 62/1/15
f 43/32/15 45/31/15 65/2/15 64/1/15
f 21/32/16 8/31/16 66/2/16 67/1/16
f 38/33/16 40/34/16 70/28/16 69/27/16
f 24/32/16 38/31/16 69/2/16 68/1/16
f 7/32/17 22/31/17 72/2/17 71/1/17
f 41/35/16 26/36/16 73/9/16 74/8/16
f 2/5/2 75/6/2 32/7/2
f 29/3/12 35/4/12 82/1/12 81/2/12
f 1/31/11 81/2/11 82/1/11 11/32/11
f 12/5/18 37/6/18 76/7/18
f 36/32/12 78/1/12 77/2/12 34/31/12
f 79/1/11 80/2/11 36/3/11 34/4/11
f 28/32/12 27/31/12 80/2/12 79/1/12
f 34/5/18 77/6/18 35/7/18
f 36/5/2 37/6/2 78/7/2
f 34/5/18 28/6/18 79/7/18
f 36/5/2 80/6/2 27/7/2
f 11/5/2 82/6/2 35/7/2
f 6/37/2 26/18/2 33/12/2 31/16/2
f 25/17/2 8/38/2 20/19/2 33/12/2
f 27/5/18 41/6/18 74/7/18
f 41/23/5 40/24/5 25/25/5 26/26/5
f 40/5/18 21/6/18 67/7/18
f 38/23/5 22/24/5 21/25/5 40/26/5
f 21/23/7 45/24/7 20/25/7 8/26/7
f 42/23/7 16/24/7 15/25/7 44/26/7
f 43/5/18 42/6/18 62/7/18
f 22/5/18 43/6/18 64/7/18
f 19/5/2 20/6/2 61/7/2
f 49/5/18 48/6/18 53/7/18
f 48/23/9 12/24/9 2/25/9 13/26/9
f 46/5/18 11/6/18 50/7/18
f 16/5/18 47/6/18 55/7/18
f 14/5/2 4/6/2 54/7/2
f 13/5/2 14/6/2 52/7/2
f 47/23/9 46/24/9 48/25/9 49/26/9
