# Blender 4.4.3
# www.blender.org
o SM_CrazyTower_Buildings_V1.0
v 0.745264 2.275001 -0.776503
v 0.745264 0.025001 -0.776503
v 0.745264 2.275001 0.723497
v 0.745264 0.025001 0.723497
v -0.754736 2.275001 -0.776503
v -0.754736 0.025001 -0.776503
v -0.754736 2.275001 0.723497
v -0.754736 0.025001 0.723497
v 0.245264 2.275001 0.723497
v -0.254736 2.275001 0.723497
v -0.254736 2.275001 -0.776503
v 0.245264 2.275001 -0.776503
v 0.745264 2.275001 -0.276503
v 0.745264 2.275001 0.223497
v 0.370264 2.275001 0.348497
v 0.370264 2.275001 0.598497
v -0.754736 2.275001 0.223497
v -0.754736 2.275001 -0.276503
v 0.620264 2.275001 0.598497
v 0.620264 2.275001 0.348497
v 0.245264 2.275001 -0.276503
v 0.245264 2.275001 0.223497
v -0.254736 2.275001 -0.276503
v -0.254736 2.275001 0.223497
v -0.379736 2.275001 0.598497
v -0.629736 2.275001 0.598497
v -0.379736 2.275001 0.348497
v -0.629736 2.275001 0.348497
v -0.629736 2.275001 -0.401503
v -0.629736 2.275001 -0.651503
v -0.379736 2.275001 -0.651503
v -0.379736 2.275001 -0.401503
v 0.370264 2.275001 -0.651503
v 0.620264 2.275001 -0.651503
v 0.620264 2.275001 -0.401503
v 0.370264 2.275001 -0.401503
v 0.745264 2.875001 -0.776503
v 0.745264 5.125001 -0.776503
v 0.745264 2.875001 0.723497
v 0.745264 5.125001 0.723497
v -0.754736 2.875001 -0.776503
v -0.754736 5.125001 -0.776503
v -0.754736 2.875001 0.723497
v -0.754736 5.125001 0.723497
v 0.245264 2.875001 0.723497
v -0.254736 2.875001 0.723497
v -0.254736 2.875001 -0.776503
v 0.245264 2.875001 -0.776503
v 0.745264 2.875001 -0.276503
v 0.745264 2.875001 0.223497
v 0.370264 2.875001 0.348497
v 0.370264 2.875001 0.598497
v -0.754736 2.875001 0.223497
v -0.754736 2.875001 -0.276503
v 0.620264 2.875001 0.598497
v 0.620264 2.875001 0.348497
v 0.245264 2.875001 -0.276503
v 0.245264 2.875001 0.223497
v -0.254736 2.875001 -0.276503
v -0.254736 2.875001 0.223497
v -0.379736 2.875001 0.598497
v -0.629736 2.875001 0.598497
v -0.379736 2.875001 0.348497
v -0.629736 2.875001 0.348497
v -0.629736 2.875001 -0.401503
v -0.629736 2.875001 -0.651503
v -0.379736 2.875001 -0.651503
v -0.379736 2.875001 -0.401503
v 0.370264 2.875001 -0.651503
v 0.620264 2.875001 -0.651503
v 0.620264 2.875001 -0.401503
v 0.370264 2.875001 -0.401503
v -0.754736 4.000001 0.723497
v 0.745264 4.000001 -0.776503
v 0.745264 4.000001 0.723497
v -0.754736 4.000001 -0.776503
v -0.004736 4.000001 0.723497
v -0.004736 5.125001 0.723497
v -0.004736 2.875001 0.723497
v -0.754736 2.875001 -0.026503
v -0.754736 4.000001 -0.026503
v -0.754736 5.125001 -0.026503
v -0.004736 4.000001 -0.776503
v -0.004736 5.125001 -0.776503
v -0.004736 2.875001 -0.776503
v 0.745264 2.875001 -0.026503
v 0.745264 4.000001 -0.026503
v 0.745264 5.125001 -0.026503
v -0.754736 1.150001 0.723497
v 0.745264 1.150001 -0.776503
v 0.745264 1.150001 0.723497
v -0.754736 1.150001 -0.776503
v 0.745264 2.275001 -0.026503
v 0.745264 0.025001 -0.026503
v 0.745264 1.150001 -0.026503
v -0.004736 2.275001 0.723497
v -0.004736 1.150001 0.723497
v -0.004736 0.025001 0.723497
v -0.754736 2.275001 -0.026503
v -0.754736 0.025001 -0.026503
v -0.754736 1.150001 -0.026503
v -0.004736 0.025001 -0.776503
v -0.004736 1.150001 -0.776503
v -0.004736 2.275001 -0.776503
v -0.004736 2.275001 -0.905672
v 0.745264 2.275001 -0.905672
v 0.745264 1.150001 -0.905672
v -0.004736 1.150001 -0.905672
v 0.968667 2.275001 -0.776503
v 0.968667 2.275001 -0.026503
v 0.968667 1.150001 -0.776503
v 0.968667 1.150001 -0.026503
v 0.968667 2.275001 -0.905672
v 0.968667 1.150001 -0.905672
v 0.825533 2.275001 -0.026503
v 0.825533 2.275001 0.723497
v 0.825533 1.150001 0.723497
v 0.825533 1.150001 -0.026503
v 0.745264 2.275001 0.872947
v -0.004736 2.275001 0.872947
v 0.745264 1.150001 0.872947
v -0.004736 1.150001 0.872947
v -0.004736 2.275001 0.784507
v -0.754736 2.275001 0.784507
v -0.754736 1.150001 0.784507
v -0.004736 1.150001 0.784507
v -0.929750 1.150001 0.723497
v -0.929750 2.275001 0.723497
v -0.929750 2.275001 -0.026503
v -0.929750 1.150001 -0.026503
v -1.040653 2.275001 -0.026503
v -1.040653 2.275001 -0.776503
v -1.040653 1.150001 -0.776503
v -1.040653 1.150001 -0.026503
v 0.910543 1.150001 0.723497
v 0.910543 0.025001 0.723497
v 0.910543 0.025001 -0.026503
v 0.910543 1.150001 -0.026503
v 0.745264 1.150001 0.772314
v 0.745264 0.025001 0.772314
v -0.004736 0.025001 0.772314
v -0.004736 1.150001 0.772314
v -0.754736 0.025001 0.903733
v -0.754736 1.150001 0.903733
v -0.004736 1.150001 0.903733
v -0.004736 0.025001 0.903733
v -0.987288 0.025001 -0.026503
v -0.987288 0.025001 0.723497
v -0.987288 1.150001 0.723497
v -0.987288 1.150001 -0.026503
v -0.754736 1.150001 -0.829968
v -0.754736 0.025001 -0.829968
v -0.004736 0.025001 -0.829968
v -0.004736 1.150001 -0.829968
v 0.902415 2.875001 -0.026503
v 0.902415 2.875001 0.723497
v 0.902415 4.000001 0.723497
v 0.902415 4.000001 -0.026503
v 0.745264 2.875001 0.867440
v -0.004736 2.875001 0.867440
v 0.745264 4.000001 0.867440
v -0.004736 4.000001 0.867440
v 0.902415 2.875001 0.867440
v 0.902415 4.000001 0.867440
v 0.745264 4.000001 0.817153
v 0.745264 5.125001 0.817153
v -0.004736 5.125001 0.817153
v -0.004736 4.000001 0.817153
v -0.754736 5.125001 0.882305
v -0.754736 4.000001 0.882305
v -0.004736 4.000001 0.882305
v -0.004736 5.125001 0.882305
v -0.004736 2.875001 0.789456
v -0.754736 2.875001 0.789456
v -0.754736 4.000001 0.789456
v -0.004736 4.000001 0.789456
v -0.849996 4.000001 0.723497
v -0.849996 2.875001 0.723497
v -0.849996 2.875001 -0.026503
v -0.849996 4.000001 -0.026503
v -0.903131 5.125001 -0.026503
v -0.903131 5.125001 0.723497
v -0.903131 4.000001 0.723497
v -0.903131 4.000001 -0.026503
v -0.837437 4.000001 -0.776503
v -0.837437 5.125001 -0.776503
v -0.837437 4.000001 -0.026503
v -0.837437 5.125001 -0.026503
v -0.963846 2.875001 -0.026503
v -0.963846 2.875001 -0.776503
v -0.963846 4.000001 -0.776503
v -0.963846 4.000001 -0.026503
v -0.754736 2.875001 -0.880089
v -0.004736 2.875001 -0.880089
v -0.754736 4.000001 -0.880089
v -0.004736 4.000001 -0.880089
v 0.745264 4.000001 -0.935614
v 0.745264 5.125001 -0.935614
v -0.004736 4.000001 -0.935614
v -0.004736 5.125001 -0.935614
v 0.832029 2.875001 -0.776503
v 0.832029 2.875001 -0.026503
v 0.832029 4.000001 -0.776503
v 0.832029 4.000001 -0.026503
v 0.877105 4.000001 -0.776503
v 0.877105 5.125001 -0.776503
v 0.877105 5.125001 -0.026503
v 0.877105 4.000001 -0.026503
v 0.942185 4.000001 0.723497
v 0.942185 5.125001 0.723497
v 0.942185 4.000001 -0.026503
v 0.942185 5.125001 -0.026503
vn -0.0000 1.0000 -0.0000
vn -1.0000 -0.0000 -0.0000
vn 1.0000 -0.0000 -0.0000
vn -0.0000 0.8575 -0.5145
vn -0.5145 0.8575 -0.0000
vn -0.0000 -0.0000 1.0000
vn 0.5145 -0.8575 -0.0000
vn -0.0000 -0.0000 -1.0000
vn -0.0000 0.8575 0.5145
vn -0.0000 -0.8575 -0.5145
vn -0.5145 -0.8575 -0.0000
vn 0.5145 0.8575 -0.0000
vn -0.0000 -1.0000 -0.0000
vn -0.0000 -0.8575 0.5145
vt 0.130704 0.755890
vt 0.016280 0.755890
vt 0.044886 0.727284
vt 0.102098 0.727284
vt 0.359552 0.641466
vt 0.359552 0.755890
vt 0.330946 0.727284
vt 0.330946 0.670072
vt 0.664336 0.751096
vt 0.664336 0.633196
vt 0.669939 0.633196
vt 0.669939 0.751096
vt 0.245128 0.755890
vt 0.245128 0.641466
vt 0.273734 0.670072
vt 0.273734 0.727284
vt 0.130704 0.641466
vt 0.187916 0.641466
vt 0.245128 0.984738
vt 0.187916 0.984738
vt 0.130704 0.984738
vt 0.130704 0.870314
vt 0.245128 0.870314
vt 0.359552 0.870314
vt 0.330946 0.898920
vt 0.273734 0.898920
vt 0.359552 0.813102
vt 0.016280 0.641466
vt 0.102098 0.670072
vt 0.044886 0.670072
vt 0.880612 0.515297
vt 0.880612 0.593896
vt 0.856241 0.593896
vt 0.856241 0.515297
vt 0.669939 0.853108
vt 0.669939 0.735208
vt 0.748539 0.735208
vt 0.748539 0.853108
vt 0.102098 0.956132
vt 0.102098 0.898920
vt 0.016280 0.870314
vt 0.016280 0.813102
vt 0.016280 0.984738
vt 0.044886 0.956132
vt 0.044886 0.898920
vt 0.273734 0.956132
vt 0.359552 0.984738
vt 0.330946 0.956132
vt 0.211230 0.504705
vt 0.135099 0.504705
vt 0.135099 0.401387
vt 0.211230 0.401387
vt 0.211230 0.601566
vt 0.135099 0.601566
vt 0.211230 0.309139
vt 0.135099 0.309139
vt 0.135099 0.244565
vt 0.211230 0.244565
vt 0.585781 0.132043
vt 0.664978 0.132043
vt 0.664978 0.250838
vt 0.585781 0.250838
vt 0.941846 0.488428
vt 0.941846 0.369633
vt 0.951736 0.369633
vt 0.951736 0.488428
vt 0.102437 0.334770
vt 0.102437 0.426517
vt 0.025927 0.426517
vt 0.025927 0.334770
vt 0.008310 0.019251
vt 0.008310 0.112228
vt 0.008310 0.205205
vt 0.101287 0.205205
vt 0.194264 0.205205
vt 0.194264 0.112228
vt 0.194264 0.019251
vt 0.101287 0.019251
vt 0.671015 0.488428
vt 0.671015 0.369633
vt 0.686685 0.369633
vt 0.686685 0.488428
vt 0.761717 0.488428
vt 0.761717 0.369633
vt 0.775639 0.369633
vt 0.775639 0.488428
vt 0.102437 0.243024
vt 0.025927 0.243024
vt 0.102437 0.518263
vt 0.025927 0.518263
vt 0.102437 0.610009
vt 0.025927 0.610009
vt 0.680763 0.633196
vt 0.602164 0.633196
vt 0.602164 0.515297
vt 0.680763 0.515297
vt 0.969709 0.066045
vt 0.969709 0.013248
vt 0.980647 0.013248
vt 0.980647 0.092444
vt 0.591819 0.396031
vt 0.591819 0.448829
vt 0.576619 0.448829
vt 0.576619 0.369633
vt 0.996603 0.369633
vt 0.996603 0.422430
vt 0.989638 0.448829
vt 0.989638 0.369633
vt 0.958771 0.013248
vt 0.958771 0.132043
vt 0.942001 0.132043
vt 0.942001 0.013248
vt 0.994107 0.250838
vt 0.994107 0.330034
vt 0.985374 0.330034
vt 0.985374 0.250838
vt 0.893406 0.369633
vt 0.893406 0.250838
vt 0.915487 0.250838
vt 0.915487 0.369633
vt 0.497422 0.250838
vt 0.497422 0.132043
vt 0.523821 0.250838
vt 0.925200 0.132043
vt 0.925200 0.013248
vt 0.644616 0.448829
vt 0.671015 0.448829
vt 0.671015 0.465424
vt 0.796433 0.369633
vt 0.796433 0.448829
vt 0.775639 0.448829
vt 0.970254 0.853108
vt 0.970254 0.735208
vt 0.983791 0.735208
vt 0.983791 0.853108
vt 0.966488 0.593896
vt 0.966488 0.567696
vt 0.974900 0.593896
vt 0.984045 0.617309
vt 0.984045 0.735208
vt 0.977651 0.735208
vt 0.977651 0.617309
vt 0.650799 0.986895
vt 0.650799 0.868995
vt 0.668121 0.868995
vt 0.668121 0.986895
vt 0.696139 0.656609
vt 0.669939 0.656609
vt 0.970254 0.735208
vt 0.970254 0.853108
vt 0.954592 0.853108
vt 0.954592 0.735208
vt 0.943647 0.735208
vt 0.943647 0.617309
vt 0.961988 0.617309
vt 0.961988 0.735208
vt 0.585737 0.751096
vt 0.585737 0.633196
vt 0.827139 0.735208
vt 0.827139 0.853108
vt 0.575964 0.515297
vt 0.748539 0.709009
vt 0.748539 0.656609
vt 0.762076 0.656609
vt 0.762076 0.735208
vt 0.704176 0.515297
vt 0.704176 0.633196
vt 0.782776 0.593896
vt 0.782776 0.515297
vt 0.796313 0.515297
vt 0.796313 0.593896
vt 0.507137 0.751096
vt 0.507137 0.633196
vt 0.493600 0.751096
vt 0.493600 0.633196
vt 0.796313 0.617309
vt 0.782776 0.617309
vt 0.748539 0.633196
vt 0.762076 0.633196
vt 0.704176 0.593896
vt 0.704176 0.617309
vt 0.953523 0.853108
vt 0.953523 0.971008
vt 0.930110 0.971008
vt 0.930110 0.853108
vt 0.840676 0.735208
vt 0.762076 0.617309
vt 0.840676 0.617309
vt 0.966488 0.515297
vt 0.974900 0.515297
vt 0.979256 0.853108
vt 0.979256 0.971008
vt 0.970844 0.971008
vt 0.970844 0.853108
vt 0.572200 0.751096
vt 0.572200 0.868995
vt 0.493600 0.868995
vt 0.977651 0.617309
vt 0.977651 0.735208
vt 0.950826 0.593896
vt 0.950826 0.515297
vt 0.950826 0.593896
vt 0.935163 0.593896
vt 0.935163 0.515297
vt 0.650799 0.751096
vt 0.981294 0.541497
vt 0.981294 0.593896
vt 0.981294 0.515297
vt 0.905739 0.735208
vt 0.905739 0.853108
vt 0.917842 0.515297
vt 0.917842 0.567696
vt 0.899501 0.593896
vt 0.899501 0.515297
vt 0.917842 0.593896
vt 0.919276 0.735208
vt 0.919276 0.617309
vt 0.826277 0.541497
vt 0.826277 0.593896
vt 0.523564 0.515297
vt 0.523564 0.633196
vt 0.493600 0.515297
vt 0.826277 0.515297
vt 0.935703 0.735208
vt 0.935703 0.853108
vt 0.669939 0.971008
vt 0.748539 0.971008
vt 0.917842 0.593896
vt 0.917842 0.515297
vt 0.827139 0.971008
vt 0.983791 0.853108
vt 0.983791 0.735208
vt 0.988907 0.735208
vt 0.988907 0.853108
vt 0.905739 0.971008
vt 0.669688 0.751096
vt 0.669688 0.868995
vt 0.954591 0.735208
vt 0.954591 0.853108
vt 0.899501 0.515297
vt 0.899501 0.593896
vt 0.880612 0.593896
vt 0.880612 0.515297
vt 0.493600 0.986895
vt 0.572200 0.986895
vt 0.943647 0.617309
vt 0.943647 0.735208
vt 0.930110 0.853108
vt 0.930110 0.971008
vt 0.905739 0.971008
vt 0.905739 0.853108
vt 0.986897 0.515297
vt 0.986897 0.593896
vt 0.984859 0.853108
vt 0.984859 0.971008
vt 0.593213 0.132043
vt 0.593213 0.013248
vt 0.672410 0.013248
vt 0.672410 0.132043
vt 0.591819 0.465424
vt 0.953082 0.369633
vt 0.953082 0.250838
vt 0.969676 0.250838
vt 0.969676 0.369633
vt 0.687610 0.013248
vt 0.687610 0.132043
vt 0.514017 0.013248
vt 0.514017 0.132043
vt 0.497422 0.013248
vt 0.832426 0.369633
vt 0.832426 0.386227
vt 0.817227 0.386227
vt 0.817227 0.369633
vt 0.576619 0.465424
vt 0.591819 0.369633
vt 0.832426 0.465424
vt 0.817227 0.465424
vt 0.717555 0.369633
vt 0.717555 0.488428
vt 0.702355 0.488428
vt 0.702355 0.369633
vt 0.744174 0.132043
vt 0.744174 0.250838
vt 0.990537 0.013248
vt 0.990537 0.092444
vt 0.980647 0.092444
vt 0.980647 0.013248
vt 0.766806 0.013248
vt 0.766806 0.132043
vt 0.882799 0.369633
vt 0.882799 0.448829
vt 0.866029 0.448829
vt 0.866029 0.369633
vt 0.899568 0.369633
vt 0.899568 0.448829
vt 0.882799 0.448829
vt 0.882799 0.369633
vt 0.945442 0.250838
vt 0.945442 0.132043
vt 0.962212 0.132043
vt 0.962212 0.250838
vt 0.823371 0.132043
vt 0.823371 0.250838
vt 0.996603 0.448829
vt 0.985374 0.369633
vt 0.978409 0.369633
vt 0.978409 0.250838
vt 0.846003 0.013248
vt 0.846003 0.132043
vt 0.979579 0.422430
vt 0.979579 0.369633
vt 0.979579 0.448829
vt 0.962212 0.250838
vt 0.962212 0.132043
vt 0.972271 0.132043
vt 0.972271 0.250838
vt 0.576619 0.250838
vt 0.497422 0.369633
vt 0.926176 0.369633
vt 0.926176 0.448829
vt 0.910506 0.448829
vt 0.910506 0.369633
vt 0.941846 0.448829
vt 0.655816 0.250838
vt 0.655816 0.369633
vt 0.735012 0.250838
vt 0.735012 0.369633
vt 0.717555 0.448829
vt 0.717555 0.396031
vt 0.739636 0.369633
vt 0.739636 0.448829
vt 0.761717 0.448829
vt 0.924649 0.132043
vt 0.924649 0.250838
vt 0.902568 0.250838
vt 0.902568 0.132043
vt 0.814209 0.250838
vt 0.814209 0.369633
vt 0.969709 0.092444
vt 0.972271 0.211239
vt 0.983209 0.132043
vt 0.983209 0.211239
vt 0.969709 0.132043
vt 0.910506 0.369633
vt 0.910506 0.488428
vt 0.899568 0.488428
vt 0.899568 0.369633
vt 0.832426 0.448829
vt 0.832426 0.369633
vt 0.849228 0.369633
vt 0.849228 0.448829
vt 0.866029 0.369633
vt 0.866029 0.448829
vt 0.936281 0.369633
vt 0.936281 0.250838
vt 0.902567 0.132043
vt 0.902567 0.250838
vt 0.992371 0.158441
vt 0.992371 0.211239
vt 0.576619 0.132043
vt 0.585781 0.132043
vt 0.585781 0.250838
vt 0.992371 0.132043
vt 0.965658 0.369633
vt 0.965658 0.448829
vt 0.951736 0.448829
vt 0.497422 0.488428
vt 0.576619 0.488428
vt 0.924649 0.250838
vt 0.924649 0.132043
vt 0.945442 0.132043
vt 0.945442 0.250838
vt 0.817227 0.369633
vt 0.817227 0.448829
s 0
f 24/1/1 17/2/1 28/3/1 27/4/1
f 3/5/1 14/6/1 20/7/1 19/8/1
f 6/9/2 92/10/2 151/11/2 152/12/2
f 22/13/1 9/14/1 16/15/1 15/16/1
f 9/14/1 3/5/1 19/8/1 16/15/1
f 22/13/1 24/1/1 10/17/1 96/18/1 9/14/1
f 12/19/1 104/20/1 11/21/1 23/22/1 21/23/1
f 21/23/1 13/24/1 35/25/1 36/26/1
f 13/24/1 21/23/1 22/13/1 14/6/1 93/27/1
f 7/28/1 10/17/1 25/29/1 26/30/1
f 89/31/1 101/32/1 150/33/1 149/34/1
f 14/6/1 22/13/1 15/16/1 20/7/1
f 2/35/3 90/36/3 95/37/3 94/38/3
f 23/22/1 11/21/1 31/39/1 32/40/1
f 23/22/1 18/41/1 99/42/1 17/2/1 24/1/1
f 10/17/1 24/1/1 27/4/1 25/29/1
f 17/2/1 7/28/1 26/30/1 28/3/1
f 11/21/1 5/43/1 30/44/1 31/39/1
f 5/43/1 18/41/1 29/45/1 30/44/1
f 18/41/1 23/22/1 32/40/1 29/45/1
f 12/19/1 21/23/1 36/26/1 33/46/1
f 13/24/1 1/47/1 34/48/1 35/25/1
f 1/47/1 12/19/1 33/46/1 34/48/1
f 34/49/3 56/50/3 55/51/3 35/52/3
f 33/53/4 51/54/4 56/50/4 34/49/4
f 36/55/2 52/56/2 51/57/2 33/58/2
f 29/55/5 72/56/5 69/57/5 30/58/5
f 32/52/6 71/51/6 72/56/6 29/55/6
f 31/49/7 70/50/7 71/51/7 32/52/7
f 30/53/8 69/54/8 70/50/8 31/49/8
f 26/55/2 65/56/2 66/57/2 28/58/2
f 25/52/9 68/51/9 65/56/9 26/55/9
f 27/49/3 67/50/3 68/51/3 25/52/3
f 28/53/10 66/54/10 67/50/10 27/49/10
f 15/52/8 64/51/8 63/56/8 20/55/8
f 16/49/11 62/50/11 64/51/11 15/52/11
f 19/53/6 61/54/6 62/50/6 16/49/6
f 20/55/12 63/56/12 61/57/12 19/58/12
f 60/22/13 63/40/13 64/45/13 53/41/13
f 39/47/13 55/48/13 56/25/13 50/24/13
f 42/59/8 84/60/8 83/61/8 76/62/8
f 75/63/3 40/64/3 166/65/3 165/66/3
f 58/23/13 51/26/13 52/46/13 45/19/13
f 45/19/13 52/46/13 55/48/13 39/47/13
f 58/23/13 45/19/13 79/20/13 46/21/13 60/22/13
f 48/14/13 57/13/13 59/1/13 47/17/13 85/18/13
f 57/67/3 58/68/3 22/69/3 21/70/3
f 57/13/13 72/16/13 71/7/13 49/6/13
f 49/6/13 86/27/13 50/24/13 58/23/13 57/13/13
f 43/43/13 62/44/13 61/39/13 46/21/13
f 42/71/1 82/72/1 44/73/1 78/74/1 40/75/1 88/76/1 38/77/1 84/78/1
f 73/79/6 44/80/6 182/81/6 183/82/6
f 50/24/13 56/25/13 51/26/13 58/23/13
f 74/83/8 38/84/8 206/85/8 205/86/8
f 59/1/13 68/4/13 67/29/13 47/17/13
f 59/1/13 60/22/13 53/41/13 80/42/13 54/2/13
f 46/21/13 61/39/13 63/40/13 60/22/13
f 53/41/13 64/45/13 62/44/13 43/43/13
f 47/17/13 67/29/13 66/30/13 41/28/13
f 41/28/13 66/30/13 65/3/13 54/2/13
f 54/2/13 65/3/13 68/4/13 59/1/13
f 48/14/13 69/15/13 72/16/13 57/13/13
f 49/6/13 71/7/13 70/8/13 37/5/13
f 37/5/13 70/8/13 69/15/13 48/14/13
f 35/52/14 55/51/14 52/56/14 36/55/14
f 59/87/8 57/67/8 21/70/8 23/88/8
f 58/68/6 60/89/6 24/90/6 22/69/6
f 60/89/2 59/91/2 23/92/2 24/90/2
f 107/93/8 108/94/8 105/95/8 106/96/8
f 47/97/13 41/98/13 193/99/13 194/100/13
f 45/101/13 39/102/13 159/103/13 160/104/13
f 43/105/13 46/106/13 173/107/13 174/108/13
f 44/109/2 73/110/2 170/111/2 169/112/2
f 82/113/1 42/114/1 186/115/1 188/116/1
f 80/117/6 81/118/6 192/119/6 189/120/6
f 85/121/8 83/122/8 48/123/8
f 38/112/3 74/111/3 197/124/3 198/125/3
f 50/126/13 86/127/13 155/128/13
f 75/129/13 87/130/13 211/131/13 209/85/13
f 103/132/2 104/133/2 105/134/2 108/135/2
f 93/136/1 14/137/1 115/138/1
f 7/139/2 89/140/2 125/141/2 124/142/2
f 94/143/8 95/144/8 138/145/8 137/146/8
f 13/147/1 93/148/1 110/11/1
f 96/149/2 97/150/2 122/151/2 120/152/2
f 89/153/6 7/154/6 128/155/6 127/156/6
f 100/157/2 101/158/2 92/10/2 6/9/2
f 102/38/8 103/37/8 90/159/8 2/160/8
f 104/95/8 103/94/8 11/161/8
f 12/162/1 1/163/1 106/164/1 105/165/1
f 104/37/1 12/162/1 105/165/1
f 107/93/8 106/96/8 113/166/8 114/167/8
f 90/168/13 103/169/13 108/170/13 107/171/13
f 110/158/3 112/157/3 111/172/3 109/173/3
f 109/173/3 111/172/3 114/174/3 113/175/3
f 90/168/13 107/171/13 114/176/13 111/177/13
f 106/164/1 1/163/1 109/178/1 113/179/1
f 1/163/1 13/147/1 110/11/1 109/178/1
f 95/180/13 90/168/13 111/177/13 112/181/13
f 93/182/6 95/183/6 112/184/6 110/185/6
f 117/186/3 118/165/3 115/187/3 116/188/3
f 14/137/1 3/189/1 116/190/1 115/138/1
f 3/191/6 91/192/6 117/193/6 116/194/6
f 120/195/6 122/196/6 121/197/6 119/174/6
f 91/156/3 3/155/3 119/198/3 121/199/3
f 9/137/1 96/136/1 120/200/1
f 97/201/13 91/202/13 121/203/13 122/204/13
f 3/189/1 9/137/1 120/200/1 119/201/1
f 125/144/6 126/196/6 123/195/6 124/205/6
f 10/206/1 7/207/1 124/138/1 123/190/1
f 96/208/1 10/206/1 123/190/1
f 129/209/2 130/210/2 127/160/2 128/159/2
f 7/211/1 17/212/1 129/213/1 128/214/1
f 17/212/1 99/215/1 129/213/1
f 133/216/2 134/186/2 131/188/2 132/217/2
f 18/218/1 5/219/1 132/171/1 131/170/1
f 5/220/8 92/221/8 133/175/8 132/222/8
f 99/223/1 18/218/1 131/170/1
f 101/210/6 99/209/6 131/224/6 134/225/6
f 137/226/3 138/35/3 135/38/3 136/227/3
f 91/194/6 4/193/6 136/183/6 135/182/6
f 95/228/1 91/229/1 135/204/1 138/203/1
f 140/227/6 139/38/6 142/160/6 141/230/6
f 4/231/3 91/232/3 139/233/3 140/234/3
f 146/230/6 145/160/6 144/210/6 143/235/6
f 89/236/2 8/237/2 143/144/2 144/205/2
f 98/225/3 97/224/3 145/238/3 146/239/3
f 97/240/1 89/241/1 144/242/1 145/243/1
f 148/244/2 149/197/2 150/196/2 147/245/2
f 8/216/6 89/217/6 149/246/6 148/247/6
f 101/248/8 100/249/8 147/250/8 150/251/8
f 152/245/8 151/196/8 154/144/8 153/143/8
f 92/207/1 103/208/1 154/252/1 151/253/1
f 103/254/3 102/255/3 153/192/3 154/191/3
f 101/223/13 134/34/13 133/33/13 92/219/13
f 155/256/3 158/257/3 157/258/3 156/259/3
f 39/102/13 50/126/13 155/128/13 156/260/13
f 86/261/8 87/262/8 158/263/8 155/264/8
f 156/259/3 157/258/3 164/265/3 163/266/3
f 161/267/6 162/257/6 160/256/6 159/268/6
f 161/267/6 159/268/6 163/122/6 164/269/6
f 157/270/1 75/271/1 161/272/1 164/273/1
f 39/102/13 156/260/13 163/274/13 159/103/13
f 79/275/13 45/101/13 160/104/13
f 75/271/1 77/276/1 162/277/1 161/272/1
f 77/278/2 79/279/2 160/280/2 162/281/2
f 166/60/6 167/282/6 168/283/6 165/61/6
f 40/284/1 78/285/1 167/286/1 166/287/1
f 171/266/6 172/265/6 169/288/6 170/289/6
f 78/290/1 44/291/1 169/292/1 172/293/1
f 73/294/13 77/295/13 171/296/13 170/297/13
f 77/298/3 78/299/3 172/300/3 171/301/3
f 173/283/6 176/282/6 175/302/6 174/303/6
f 46/106/13 79/304/13 173/107/13
f 73/116/2 43/305/2 174/306/2 175/307/2
f 177/288/2 180/308/2 179/309/2 178/289/2
f 53/310/13 43/311/13 178/108/13 179/107/13
f 80/312/13 53/310/13 179/107/13
f 43/313/6 73/314/6 177/315/6 178/316/6
f 182/121/2 181/317/2 184/104/2 183/318/2
f 44/319/1 82/320/1 181/321/1 182/322/1
f 82/281/8 81/280/8 184/82/8 181/81/8
f 81/320/13 73/319/13 183/64/13 184/323/13
f 187/104/2 188/317/2 186/324/2 185/325/2
f 42/307/8 76/306/8 185/264/8 186/263/8
f 189/325/2 192/324/2 191/326/2 190/327/2
f 41/328/13 54/329/13 189/330/13 190/331/13
f 54/329/13 80/278/13 189/330/13
f 81/84/1 76/332/1 191/331/1 192/330/1
f 76/333/8 41/334/8 190/335/8 191/336/8
f 195/326/8 196/337/8 194/338/8 193/327/8
f 85/339/13 47/97/13 194/100/13
f 76/340/1 83/315/1 196/341/1 195/342/1
f 41/110/2 76/109/2 195/98/2 193/343/2
f 83/344/3 85/345/3 194/346/3 196/347/3
f 199/338/8 200/337/8 198/118/8 197/117/8
f 84/348/1 38/349/1 198/350/1 200/351/1
f 74/351/13 83/350/13 199/352/13 197/353/13
f 83/354/2 84/355/2 200/262/2 199/261/2
f 203/302/3 204/356/3 202/357/3 201/303/3
f 49/358/13 37/359/13 201/342/13 202/341/13
f 37/317/8 74/360/8 203/361/8 201/362/8
f 86/363/13 49/358/13 202/341/13
f 206/308/3 207/125/3 208/124/3 205/309/3
f 87/364/13 74/365/13 205/366/13 208/65/13
f 38/365/1 88/364/1 207/311/1 206/312/1
f 211/367/3 212/318/3 210/104/3 209/368/3
f 40/355/6 75/354/6 209/120/6 210/119/6
f 87/369/8 88/370/8 212/371/8 211/372/8
f 88/130/1 40/129/1 210/373/1 212/374/1
f 11/161/8 103/94/8 92/221/8 5/220/8
f 48/123/8 83/122/8 74/360/8 37/317/8
