# Blender 4.4.3
# www.blender.org
o SM_SmallOffice_Buildings_V1.0
v 1.000000 3.000000 -1.000000
v 1.000000 0.000000 -1.000000
v 1.000000 3.000000 1.000000
v -1.000000 3.000000 -1.000000
v -1.000000 0.000000 -1.000000
v -1.000000 3.000000 1.000000
v 1.000000 0.740260 1.000000
v 1.000000 0.740260 -1.000000
v -1.000000 0.740260 -1.000000
v -1.000000 0.740260 1.000000
v -1.000000 0.000000 0.800000
v 1.000000 0.000000 0.800000
v 1.000000 0.740260 0.800000
v -1.000000 0.740260 0.800000
v -1.000000 1.192208 1.000000
v -1.000000 1.644156 1.000000
v -1.000000 2.096104 1.000000
v -1.000000 2.548052 1.000000
v 1.000000 2.548052 1.000000
v 1.000000 2.096104 1.000000
v 1.000000 1.644156 1.000000
v 1.000000 1.192208 1.000000
v -1.000000 1.192208 0.900000
v -1.000000 1.644156 0.900000
v -1.000000 2.096104 0.900000
v -1.000000 2.548052 0.900000
v 1.000000 2.548052 0.900000
v 1.000000 2.096104 0.900000
v 1.000000 1.644156 0.900000
v 1.000000 1.192208 0.900000
v 0.950000 3.000000 0.950000
v -0.950000 3.000000 0.950000
v 0.950000 3.000000 -0.950000
v -0.950000 3.000000 -0.950000
v 1.000000 3.300000 1.000000
v -1.000000 3.300000 1.000000
v 1.000000 3.300000 -1.000000
v -1.000000 3.300000 -1.000000
v 0.950000 3.300000 0.950000
v -0.950000 3.300000 0.950000
v 0.950000 3.300000 -0.950000
v -0.950000 3.300000 -0.950000
vn -0.0000 -0.0000 1.0000
vn -1.0000 -0.0000 -0.0000
vn -0.0000 -0.0000 -1.0000
vn -0.0000 -1.0000 -0.0000
vn 1.0000 -0.0000 -0.0000
vn -0.0000 1.0000 -0.0000
vt 0.978712 0.574963
vt 0.978712 0.785382
vt 0.948900 0.785382
vt 0.948900 0.574963
vt 0.694787 0.024614
vt 0.869294 0.024614
vt 0.869294 0.796859
vt 0.694787 0.796859
vt 0.113995 0.584235
vt 0.588995 0.471248
vt 0.613995 0.471248
vt 0.613995 0.584235
vt 0.789032 0.974422
vt 0.789032 0.835027
vt 0.974090 0.835027
vt 0.974090 0.974422
vt 0.091451 0.370214
vt 0.021438 0.370214
vt 0.021438 0.181055
vt 0.091451 0.181055
vt 0.521135 0.948005
vt 0.521135 0.886317
vt 0.771135 0.886317
vt 0.771135 0.948005
vt 0.603287 0.681750
vt 0.035500 0.681750
vt 0.035500 0.624976
vt 0.603287 0.624976
vt 0.021438 0.010812
vt 0.091451 0.010812
vt 0.091451 0.540457
vt 0.021438 0.540457
vt 0.603287 0.810044
vt 0.035500 0.810044
vt 0.656174 0.796859
vt 0.656174 0.024614
vt 0.019540 0.962225
vt 0.019540 0.889258
vt 0.503894 0.889258
vt 0.503894 0.962225
vt 0.019540 0.962248
vt 0.019540 0.889281
vt 0.503894 0.889281
vt 0.503894 0.962248
vt 0.563995 0.019300
vt 0.613994 0.019300
vt 0.613994 0.132287
vt 0.588995 0.132287
vt 0.613995 0.358261
vt 0.588995 0.358261
vt 0.588995 0.245274
vt 0.613995 0.245274
vt 0.603287 0.838430
vt 0.035500 0.838430
vt 0.113995 0.019300
vt 0.675698 0.069327
vt 0.868759 0.069327
vt 0.868759 0.262389
vt 0.675698 0.262389
vt 0.912062 0.785382
vt 0.912062 0.574963
vt 0.941874 0.574963
vt 0.941874 0.785382
vt 0.912062 0.407133
vt 0.912062 0.196714
vt 0.941874 0.196714
vt 0.941874 0.407133
vt 0.978712 0.407133
vt 0.948900 0.407133
vt 0.948900 0.196714
vt 0.948900 0.028884
vt 0.941874 0.028884
vt 0.912062 0.028884
vt 0.978712 0.196714
vt 0.978712 0.028884
s 0
f 6/1/1 3/2/1 35/3/1 36/4/1
f 19/5/1 3/6/1 6/7/1 18/8/1
f 4/9/2 26/10/2 18/11/2 6/12/2
f 9/13/3 4/14/3 1/15/3 8/16/3
f 5/17/3 9/18/3 8/19/3 2/20/3
f 12/21/1 13/22/1 14/23/1 11/24/1
f 7/25/4 10/26/4 14/27/4 13/28/4
f 2/20/5 8/19/5 13/29/5 12/30/5
f 9/18/2 5/17/2 11/31/2 14/32/2
f 7/25/1 22/33/1 15/34/1 10/26/1
f 21/25/4 16/26/4 24/27/4 29/28/4
f 21/25/1 20/33/1 17/34/1 16/26/1
f 19/5/4 18/8/4 26/35/4 27/36/4
f 30/37/1 29/38/1 24/39/1 23/40/1
f 28/41/1 27/42/1 26/43/1 25/44/1
f 14/45/2 10/46/2 15/47/2 23/48/2
f 17/49/2 25/50/2 24/51/2 16/52/2
f 17/34/6 20/33/6 28/53/6 25/54/6
f 15/34/6 22/33/6 30/53/6 23/54/6
f 4/9/2 9/55/2 14/45/2 23/48/2
f 24/51/2 25/50/2 4/9/2 23/48/2
f 4/9/2 25/50/2 26/10/2
f 3/12/5 19/11/5 27/10/5 1/9/5
f 22/47/5 7/46/5 13/45/5 30/48/5
f 20/49/5 21/52/5 29/51/5 28/50/5
f 27/10/5 28/50/5 1/9/5
f 30/48/5 1/9/5 28/50/5 29/51/5
f 1/9/5 30/48/5 13/45/5 8/55/5
f 33/56/6 34/57/6 32/58/6 31/59/6
f 31/60/3 32/61/3 40/62/3 39/63/3
f 34/64/1 33/65/1 41/66/1 42/67/1
f 4/68/2 6/1/2 36/4/2 38/69/2
f 36/4/6 35/3/6 39/63/6 40/62/6
f 37/70/6 38/69/6 42/67/6 41/66/6
f 35/71/6 37/70/6 41/66/6 39/72/6
f 38/69/6 36/4/6 40/62/6 42/67/6
f 32/61/5 34/64/5 42/67/5 40/62/5
f 33/65/2 31/73/2 39/72/2 41/66/2
f 1/74/3 4/68/3 38/69/3 37/70/3
f 3/75/5 1/74/5 37/70/5 35/71/5
