# Blender 4.4.3
# www.blender.org
o SM_Sky-H_Buildings_V1.0
v -1.000000 0.000000 0.400000
v -1.000000 7.000000 0.400000
v -0.600000 0.000000 0.400000
v -0.600000 7.000000 0.400000
v -1.000000 7.000000 0.720000
v -1.000000 0.000000 0.720000
v -0.600000 0.000000 0.720000
v -0.600000 7.000000 0.720000
v -0.600000 0.476141 0.400000
v -0.600000 0.608805 0.400000
v -0.600000 0.476141 0.720000
v -0.600000 0.608805 0.720000
v 0.711949 7.372575 0.489559
v 0.888051 7.372575 0.489559
v 0.711949 7.372575 0.630441
v 0.888051 7.372575 0.630441
v 1.000000 0.000000 0.400000
v 1.000000 7.000000 0.400000
v 0.600000 0.000000 0.400000
v 0.600000 7.000000 0.400000
v 1.000000 7.000000 0.720000
v 1.000000 0.000000 0.720000
v 0.600000 0.000000 0.720000
v 0.600000 7.000000 0.720000
v 0.600000 0.476141 0.400000
v 0.600000 0.608805 0.400000
v 0.600000 0.476141 0.720000
v 0.600000 0.608805 0.720000
v 0.711949 7.000000 0.630441
v 0.888051 7.000000 0.630441
v 0.711949 7.000000 0.489559
v 0.888051 7.000000 0.489559
v -0.851726 7.865448 -0.518619
v -0.851726 7.865448 -0.601380
v -1.000000 0.000000 -0.400000
v -1.000000 7.000000 -0.400000
v -0.600000 0.000000 -0.400000
v -0.600000 7.000000 -0.400000
v -1.000000 7.000000 -0.720000
v -1.000000 0.000000 -0.720000
v -0.600000 0.000000 -0.720000
v -0.600000 7.000000 -0.720000
v -0.600000 0.476141 -0.400000
v -0.600000 0.608805 -0.400000
v -0.600000 0.476141 -0.720000
v -0.600000 0.608805 -0.720000
v -0.748274 7.865448 -0.518619
v -0.748274 7.865448 -0.601380
v -0.748274 7.000000 -0.601380
v -0.851726 7.000000 -0.601380
v -0.748274 7.000000 -0.518619
v -0.851726 7.000000 -0.518619
v 1.000000 0.000000 -0.400000
v 1.000000 7.000000 -0.400000
v 0.600000 0.000000 -0.400000
v 0.600000 7.000000 -0.400000
v 1.000000 7.000000 -0.720000
v 1.000000 0.000000 -0.720000
v 0.600000 0.000000 -0.720000
v 0.600000 7.000000 -0.720000
v 0.600000 0.476141 -0.400000
v 0.600000 0.608805 -0.400000
v 0.600000 0.476141 -0.720000
v 0.600000 0.608805 -0.720000
vn -0.0000 -0.0000 -1.0000
vn -1.0000 -0.0000 -0.0000
vn -0.0000 -0.0000 1.0000
vn -0.0000 1.0000 -0.0000
vn 1.0000 -0.0000 -0.0000
vn -0.0000 -1.0000 -0.0000
vt 0.366723 0.796405
vt 0.315626 0.796405
vt 0.315626 0.709702
vt 0.366723 0.709702
vt 0.366723 0.709702
vt 0.366723 0.796405
vt 0.315626 0.796405
vt 0.219545 0.801097
vt 0.265749 0.801097
vt 0.265749 0.786772
vt 0.265749 0.782781
vt 0.265749 0.707691
vt 0.219545 0.707691
vt 0.213563 0.791872
vt 0.271622 0.791872
vt 0.271622 0.795402
vt 0.213563 0.795402
vt 0.265260 0.801097
vt 0.265260 0.707691
vt 0.213563 0.791872
vt 0.271621 0.791872
vt 0.255372 0.792860
vt 0.229812 0.792860
vt 0.263677 0.712273
vt 0.263677 0.797427
vt 0.244437 0.797427
vt 0.244437 0.712273
vt 0.206524 0.778557
vt 0.206524 0.709186
vt 0.274244 0.709186
vt 0.274244 0.778557
vt 0.114079 0.782242
vt 0.114079 0.714995
vt 0.177422 0.714995
vt 0.177422 0.782242
vt 0.482214 0.709977
vt 0.482214 0.744335
vt 0.397226 0.744335
vt 0.397226 0.709977
vt 0.312747 0.801465
vt 0.312747 0.799077
vt 0.323319 0.799077
vt 0.323319 0.801465
vt 0.482214 0.758579
vt 0.397226 0.758579
vt 0.482214 0.792937
vt 0.397226 0.792937
vt 0.076626 0.994423
vt 0.018959 0.994443
vt 0.039418 0.989061
vt 0.049212 0.990368
vt 0.265749 0.801097
vt 0.219545 0.722016
vt 0.219545 0.726007
vt 0.219545 0.801097
vt 0.213563 0.795402
vt 0.229812 0.794414
vt 0.220035 0.801097
vt 0.220035 0.707691
vt 0.018959 0.982320
vt 0.046372 0.986375
vt 0.205957 0.712273
vt 0.225197 0.712273
vt 0.225197 0.797427
vt 0.205957 0.797427
vt 0.275070 0.777731
vt 0.205699 0.777731
vt 0.205699 0.710011
vt 0.275070 0.710011
vt 0.056166 0.987682
vt 0.076626 0.982300
vt 0.263677 0.712273
vt 0.282916 0.712273
vt 0.282916 0.797427
vt 0.112127 0.716947
vt 0.179374 0.716947
vt 0.179374 0.780290
vt 0.112127 0.780290
vt 0.355035 0.801465
vt 0.355035 0.799077
vt 0.365607 0.799077
vt 0.365607 0.801465
vt 0.271621 0.795402
vt 0.255372 0.794414
vt 0.225197 0.797427
vt 0.316506 0.795803
vt 0.316506 0.710304
vt 0.365843 0.710304
vt 0.365843 0.795803
s 0
f 62/1/1 44/2/1 38/3/1 56/4/1
f 2/3/2 36/5/2 35/6/2 1/7/2
f 6/8/3 7/9/3 11/10/3 12/11/3 8/12/3 5/13/3
f 2/14/4 5/15/4 8/16/4 4/17/4
f 1/18/2 6/8/2 5/13/2 2/19/2
f 20/20/4 24/21/4 29/22/4 31/23/4
f 10/24/5 4/25/5 8/26/5 12/27/5
f 3/28/5 9/29/5 11/30/5 7/31/5
f 19/32/3 25/33/3 9/34/3 3/35/3
f 25/36/6 27/37/6 11/38/6 9/39/6
f 18/40/4 54/41/4 56/42/4 20/43/4
f 27/37/3 28/44/3 12/45/3 11/38/3
f 12/45/4 28/44/4 26/46/4 10/47/4
f 30/48/5 32/49/5 14/50/5 16/51/5
f 17/1/5 53/2/5 54/3/5 18/4/5
f 22/52/3 21/12/3 24/13/3 28/53/3 27/54/3 23/55/3
f 18/56/4 20/20/4 31/23/4 32/57/4
f 17/58/5 18/59/5 21/12/5 22/52/5
f 32/49/1 31/60/1 13/61/1 14/50/1
f 26/62/2 28/63/2 24/64/2 20/65/2
f 19/66/2 23/67/2 27/68/2 25/69/2
f 14/50/4 13/61/4 15/70/4 16/51/4
f 29/71/3 30/48/3 16/51/3 15/70/3
f 31/60/2 29/71/2 15/70/2 13/61/2
f 52/48/3 51/49/3 47/50/3 33/51/3
f 49/60/1 50/71/1 34/70/1 48/61/1
f 40/52/1 39/12/1 42/13/1 46/53/1 45/54/1 41/55/1
f 36/20/4 38/21/4 51/22/4 52/23/4
f 35/58/2 36/59/2 39/12/2 40/52/2
f 51/49/5 49/60/5 48/61/5 47/50/5
f 44/72/5 46/73/5 42/74/5 38/25/5
f 37/66/5 41/67/5 45/68/5 43/69/5
f 55/75/1 37/76/1 43/77/1 61/78/1
f 61/36/6 43/39/6 45/38/6 63/37/6
f 4/79/4 38/80/4 36/81/4 2/82/4
f 63/37/1 45/38/1 46/45/1 64/44/1
f 44/47/4 62/46/4 64/44/4 46/45/4
f 21/83/4 18/56/4 32/57/4 30/84/4
f 24/21/4 21/83/4 30/84/4 29/22/4
f 58/8/1 59/9/1 63/10/1 64/11/1 60/12/1 57/13/1
f 54/14/4 57/15/4 60/16/4 56/17/4
f 53/18/5 58/8/5 57/13/5 54/19/5
f 38/21/4 42/83/4 49/84/4 51/22/4
f 62/27/2 56/26/2 60/85/2 64/63/2
f 55/28/2 61/29/2 63/30/2 59/31/2
f 50/71/2 52/48/2 33/51/2 34/70/2
f 33/51/4 47/50/4 48/61/4 34/70/4
f 4/79/4 20/43/4 56/42/4 38/80/4
f 42/83/4 39/56/4 50/57/4 49/84/4
f 39/56/4 36/20/4 52/23/4 50/57/4
f 26/86/3 20/87/3 4/88/3 10/89/3
