# Blender 4.4.3
# www.blender.org
o SM_SmallStore_Buildings_V1.0
v 1.000000 3.000000 -1.000000
v 1.000000 0.000000 -1.000000
v 1.000000 3.000000 1.000000
v 1.000000 0.000000 1.000000
v -1.000000 3.000000 -1.000000
v -1.000000 0.000000 -1.000000
v -1.000000 3.000000 1.000000
v -1.000000 0.000000 1.000000
v 1.000000 1.012188 1.000000
v -1.000000 1.217483 1.000000
v -1.000000 1.012188 1.000000
v 1.000000 1.217483 1.000000
v 0.666667 1.217483 1.200000
v -0.666667 1.217483 1.200000
v 0.666667 1.012188 1.000000
v -0.666667 1.012188 1.000000
v 0.666667 1.012188 1.200000
v -0.666667 1.012188 1.200000
v 0.666667 1.217483 1.000000
v -0.666667 1.217483 1.000000
v -0.633333 0.000000 1.000000
v 0.633333 0.000000 1.000000
v 0.666667 1.012188 0.900000
v -0.666667 1.012188 0.900000
v -0.633333 0.000000 0.900000
v 0.633333 0.000000 0.900000
v 0.731008 3.000000 1.000000
v -0.723022 3.000000 1.000000
v 0.000000 1.217483 1.000000
v 0.000000 3.000000 1.000000
v -0.723022 2.108741 1.000000
v 0.731008 2.108741 1.000000
v 0.000000 2.108741 1.000000
v -0.066667 2.910874 1.000000
v -0.656355 2.910874 1.000000
v -0.600000 2.197867 1.000000
v -0.066667 2.197867 1.000000
v 0.664341 2.910874 1.000000
v 0.066667 2.910874 1.000000
v 0.600000 2.197867 1.000000
v 0.066667 2.197867 1.000000
v 0.664341 2.019615 1.000000
v 0.600000 1.306609 1.000000
v 0.066667 1.306609 1.000000
v 0.066667 2.019615 1.000000
v -0.066667 1.306609 1.000000
v -0.600000 1.306609 1.000000
v -0.656355 2.019615 1.000000
v -0.066667 2.019615 1.000000
v -0.093333 2.875224 1.030000
v -0.629689 2.875224 1.030000
v -0.573333 2.233517 1.030000
v -0.093333 2.233517 1.030000
v 0.637675 2.875224 1.030000
v 0.093333 2.875224 1.030000
v 0.573333 2.233517 1.030000
v 0.093333 2.233517 1.030000
v 0.632341 1.976835 1.030000
v 0.568000 1.349389 1.030000
v 0.098667 1.349389 1.030000
v 0.098667 1.976835 1.030000
v -0.093333 1.342259 1.030000
v -0.573333 1.342259 1.030000
v -0.629689 1.983965 1.030000
v -0.093333 1.983965 1.030000
vn -0.0000 -1.0000 -0.0000
vn -1.0000 -0.0000 -0.0000
vn -0.0000 1.0000 -0.0000
vn 1.0000 -0.0000 -0.0000
vn -0.5145 -0.0000 0.8575
vn 0.5145 -0.0000 0.8575
vn -0.0000 -0.0000 1.0000
vn -0.0000 -0.0000 -1.0000
vn -0.9995 0.0329 -0.0000
vn 0.9995 0.0329 -0.0000
vn 0.6825 -0.0655 0.7280
vn -0.7460 -0.0621 0.6631
vn -0.0000 0.6439 0.7651
vn 0.7455 -0.0708 0.6627
vn -0.0000 -0.6439 0.7651
vn -0.0000 -0.5742 0.8187
vn 0.7474 -0.0000 0.6644
vn -0.0000 0.5742 0.8187
vn -0.7474 -0.0000 0.6644
vn -0.6839 -0.0000 0.7295
vt 0.030626 0.905119
vt 0.018474 0.905119
vt 0.030626 0.952035
vt 0.571475 0.708605
vt 0.571475 0.732619
vt 0.571475 0.737490
vt 0.571475 0.779781
vt 0.524024 0.779781
vt 0.524024 0.708605
vt 0.803271 0.792945
vt 0.788358 0.786554
vt 0.804408 0.777691
vt 0.523597 0.708605
vt 0.523597 0.779781
vt 0.802100 0.764471
vt 0.802100 0.780498
vt 0.785691 0.780498
vt 0.785691 0.764471
vt 0.874227 0.764471
vt 0.874227 0.780498
vt 0.857819 0.780498
vt 0.857819 0.764471
vt 0.709591 0.781364
vt 0.709591 0.710329
vt 0.749312 0.710329
vt 0.749312 0.781364
vt 0.873030 0.783545
vt 0.859253 0.790956
vt 0.857834 0.776505
vt 0.831574 0.793608
vt 0.571475 0.709063
vt 0.524024 0.709063
vt 0.091386 0.905119
vt 0.079234 0.905119
vt 0.079234 0.952035
vt 0.765280 0.737960
vt 0.765280 0.769163
vt 0.735229 0.769163
vt 0.791563 0.776713
vt 0.855163 0.776713
vt 0.855163 0.799856
vt 0.833963 0.799856
vt 0.823363 0.799856
vt 0.812763 0.799856
vt 0.791563 0.799856
vt 0.869061 0.710049
vt 0.869061 0.769598
vt 0.792561 0.769598
vt 0.792561 0.710049
vt 0.751312 0.763950
vt 0.736099 0.763950
vt 0.736099 0.738171
vt 0.751312 0.738171
vt 0.716267 0.763950
vt 0.716267 0.738171
vt 0.701054 0.763950
vt 0.701054 0.738171
vt 0.703971 0.766383
vt 0.762623 0.766383
vt 0.756758 0.769768
vt 0.709836 0.769768
vt 0.762060 0.796217
vt 0.762060 0.787580
vt 0.756195 0.788444
vt 0.756195 0.795354
vt 0.703409 0.766383
vt 0.762060 0.766383
vt 0.756195 0.769768
vt 0.709274 0.769768
vt 0.762623 0.796217
vt 0.762623 0.787580
vt 0.756758 0.788444
vt 0.756758 0.795354
vt 0.656650 0.710292
vt 0.662896 0.779515
vt 0.659789 0.775361
vt 0.653543 0.714445
vt 0.703409 0.787580
vt 0.703409 0.796217
vt 0.709274 0.795354
vt 0.709274 0.788444
vt 0.662393 0.778886
vt 0.656922 0.709663
vt 0.654333 0.713124
vt 0.659805 0.775424
vt 0.703971 0.787580
vt 0.709836 0.788444
vt 0.703971 0.796217
vt 0.709836 0.795354
vt 0.662896 0.778886
vt 0.604871 0.778886
vt 0.607460 0.775424
vt 0.660307 0.775424
vt 0.762060 0.800230
vt 0.703409 0.800230
vt 0.709274 0.796846
vt 0.756195 0.796846
vt 0.605143 0.778886
vt 0.607732 0.775424
vt 0.703971 0.800230
vt 0.709836 0.796846
vt 0.762623 0.800230
vt 0.756758 0.796846
vt 0.607732 0.713124
vt 0.654061 0.713124
vt 0.607460 0.713124
vt 0.607978 0.775361
vt 0.607978 0.714445
vt 0.607732 0.713753
vt 0.607732 0.776053
vt 0.659805 0.776053
vt 0.654333 0.713753
vt 0.656650 0.709663
vt 0.656922 0.710292
vt 0.605143 0.710292
vt 0.605143 0.709663
vt 0.604871 0.710292
vt 0.604871 0.709663
vt 0.662393 0.779515
vt 0.604871 0.779515
vt 0.605143 0.779515
vt 0.705178 0.737960
vt 0.705178 0.769163
s 0
f 15/1/1 9/2/1 17/3/1
f 8/4/2 11/5/2 10/6/2 7/7/2 5/8/2 6/9/2
f 20/10/3 10/11/3 14/12/3
f 2/13/4 1/14/4 3/7/4 12/6/4 9/5/4 4/4/4
f 18/15/5 14/16/5 10/17/5 11/18/5
f 9/19/6 12/20/6 13/21/6 17/22/6
f 17/22/7 13/21/7 14/16/7 18/15/7
f 15/23/7 22/24/7 4/25/7 9/26/7
f 12/27/3 19/28/3 13/29/3
f 19/28/3 29/30/3 20/10/3 14/12/3 13/29/3
f 5/8/8 1/7/8 2/31/8 6/32/8
f 11/33/1 16/34/1 18/35/1
f 16/34/1 15/1/1 17/3/1 18/35/1
f 3/36/7 27/37/7 32/38/7
f 1/39/3 5/40/3 7/41/3 28/42/3 30/43/3 27/44/3 3/45/3
f 26/46/7 23/47/7 24/48/7 25/49/7
f 21/25/7 16/26/7 11/23/7 8/24/7
f 22/50/9 15/51/9 23/52/9 26/53/9
f 15/51/1 16/54/1 24/55/1 23/52/1
f 16/54/10 21/56/10 25/57/10 24/55/10
f 20/58/7 29/59/7 46/60/7 47/61/7
f 28/62/7 31/63/7 36/64/7 35/65/7
f 20/37/7 31/38/7 10/36/7
f 29/66/7 19/67/7 43/68/7 44/69/7
f 30/70/7 33/71/7 41/72/7 39/73/7
f 43/74/11 42/75/11 58/76/11 59/77/11
f 33/78/7 30/79/7 34/80/7 37/81/7
f 30/79/7 28/62/7 35/65/7 34/80/7
f 31/63/7 33/78/7 37/81/7 36/64/7
f 35/82/12 36/83/12 52/84/12 51/85/12
f 33/71/7 32/86/7 40/87/7 41/72/7
f 32/86/7 27/88/7 38/89/7 40/87/7
f 27/88/7 30/70/7 39/73/7 38/89/7
f 38/90/13 39/91/13 55/92/13 54/93/13
f 32/94/7 33/95/7 45/96/7 42/97/7
f 19/67/7 32/94/7 42/97/7 43/68/7
f 33/95/7 29/66/7 44/69/7 45/96/7
f 34/98/13 35/82/13 51/85/13 50/99/13
f 31/100/7 20/58/7 47/61/7 48/101/7
f 29/59/7 33/102/7 49/103/7 46/60/7
f 33/102/7 31/100/7 48/101/7 49/103/7
f 53/104/7 50/99/7 51/85/7 52/84/7
f 56/105/7 54/93/7 55/92/7 57/106/7
f 59/77/7 58/76/7 61/107/7 60/108/7
f 62/109/7 65/110/7 64/111/7 63/112/7
f 40/113/14 38/90/14 54/93/14 56/105/14
f 47/114/15 46/115/15 62/109/15 63/112/15
f 36/83/15 37/116/15 53/104/15 52/84/15
f 44/117/16 43/74/16 59/77/16 60/108/16
f 41/118/15 40/113/15 56/105/15 57/106/15
f 48/119/12 47/114/12 63/112/12 64/111/12
f 37/116/17 34/98/17 50/99/17 53/104/17
f 42/75/18 45/120/18 61/107/18 58/76/18
f 39/91/19 41/118/19 57/106/19 55/92/19
f 49/121/13 48/119/13 64/111/13 65/110/13
f 45/120/20 44/117/20 60/108/20 61/107/20
f 46/115/17 49/121/17 65/110/17 62/109/17
f 10/36/7 31/38/7 7/122/7
f 7/122/7 31/38/7 28/123/7
f 32/38/7 19/123/7 12/122/7
f 12/122/7 3/36/7 32/38/7
