# Blender 4.4.3
# www.blender.org
o SM_SmallTheatre_Buildings_V1.0
v 0.988636 2.000000 1.788636
v -1.011364 2.000000 1.788636
v 0.988637 0.000000 -1.211364
v 0.988637 2.000000 -1.211364
v -1.011363 0.000000 -1.211364
v -1.011363 2.000000 -1.211364
v -1.011364 0.000000 0.788636
v -1.011364 2.000000 0.788636
v 0.988636 0.000000 0.788637
v 0.988636 2.000000 0.788637
v -1.011364 3.600000 0.788636
v -1.011363 3.600000 -1.211364
v 0.988637 3.600000 -1.211364
v 0.988636 3.600000 0.788637
v 0.612959 2.800000 0.788636
v -0.635686 2.800000 0.788636
v -0.635686 2.000000 0.788636
v 0.612959 2.000000 0.788636
v 0.612959 2.000000 1.288636
v -0.635686 2.000000 1.288636
v -0.635686 2.800000 1.288636
v 0.612959 2.800000 1.288636
v -0.635686 3.600000 0.788636
v 0.612959 3.600000 0.788636
v 0.988636 0.800000 1.788636
v -1.011364 0.800000 1.788636
v -1.011364 0.800000 1.688636
v -1.011364 0.000000 1.688636
v 0.988636 0.000000 1.688637
v 0.988636 0.800000 1.688637
v -0.611364 0.800000 1.588636
v -0.211364 0.800000 1.588636
v 0.188636 0.800000 1.588636
v 0.588636 0.800000 1.588636
v 0.588636 0.000000 1.588636
v 0.188636 0.000000 1.588636
v -0.211364 0.000000 1.588636
v -0.611364 0.000000 1.588636
v -0.611364 0.000000 1.688636
v -0.211364 0.000000 1.688636
v 0.188636 0.000000 1.688636
v 0.588636 0.000000 1.688637
v 0.588636 0.800000 1.688637
v 0.188636 0.800000 1.688636
v -0.211364 0.800000 1.688636
v -0.611364 0.800000 1.688636
v 0.988637 0.000000 -2.211364
v -1.011364 0.000000 -2.211364
v -1.011364 2.000000 -2.211364
v 0.988637 2.000000 -2.211364
v 0.088636 2.000000 1.788636
v -0.111364 2.000000 1.788636
v 0.088636 0.800000 1.788636
v -0.111364 0.800000 1.788636
v 0.051258 1.896141 1.788636
v 0.051258 1.758272 1.788636
v 0.051258 1.041729 1.788636
v 0.051258 0.903859 1.788636
v -0.073985 1.896141 1.788636
v -0.073985 1.758272 1.788636
v -0.073985 1.041729 1.788636
v -0.073985 0.903859 1.788636
v 0.051258 1.896141 1.888636
v 0.051258 1.758272 1.888636
v 0.051258 1.041729 1.888636
v 0.051258 0.903859 1.888636
v -0.073985 1.896141 1.888636
v -0.073985 1.758272 1.888636
v -0.073985 1.041729 1.888636
v -0.073985 0.903859 1.888636
v 0.051258 1.896141 2.188637
v 0.051258 1.758272 2.188637
v 0.051258 1.041729 2.188637
v 0.051258 0.903859 2.188637
v -0.073985 1.896141 2.188637
v -0.073985 1.758272 2.188637
v -0.073985 1.041729 2.188637
v -0.073985 0.903859 2.188637
v 0.988636 2.000000 1.788636
v -1.011364 2.000000 1.788636
v -1.011364 2.000000 0.788636
v 0.988636 2.000000 0.788637
v -0.635686 2.000000 0.788636
v 0.612959 2.000000 0.788636
v 0.612959 2.000000 1.288636
v -0.635686 2.000000 1.288636
v 0.088636 2.000000 1.788636
v -0.111364 2.000000 1.788636
vn -0.0000 1.0000 -0.0000
vn -1.0000 -0.0000 -0.0000
vn 1.0000 -0.0000 -0.0000
vn -0.0000 -0.0000 -1.0000
vn -0.0000 -0.0000 1.0000
vn -0.0000 -1.0000 -0.0000
vt 0.214635 0.916833
vt 0.214635 0.810588
vt 0.172091 0.810588
vt 0.172091 0.916833
vt 0.214635 0.742517
vt 0.172091 0.742517
vt 0.643368 0.545064
vt 0.787476 0.545064
vt 0.787476 0.689173
vt 0.643368 0.689173
vt 0.967096 0.679553
vt 0.813603 0.884210
vt 0.813603 0.543115
vt 0.967096 0.543115
vt -1.749299 -0.327230
vt -1.749299 -0.766848
vt -1.397604 -0.766848
vt -1.397604 -0.327230
vt 0.010944 0.294051
vt 0.010944 0.241244
vt 0.123396 0.241244
vt 0.235849 0.241244
vt 0.235849 0.294051
vt 0.214635 0.984904
vt 0.172091 0.984904
vt 0.123396 0.065727
vt 0.235849 0.065727
vt -0.717379 1.760804
vt -0.717379 2.066684
vt -0.774835 2.066684
vt -0.965803 2.066684
vt -1.023259 2.066684
vt -1.023259 1.760804
vt 0.065845 0.984904
vt 0.065845 0.916833
vt 0.010944 0.065727
vt 0.010944 0.012920
vt 0.235849 0.012920
vt 0.984151 0.884210
vt 0.984151 0.679553
vt 0.139463 0.313733
vt 0.139464 0.564348
vt 0.014156 0.564348
vt 0.014156 0.313733
vt 0.537420 0.684315
vt 0.537420 0.570350
vt 0.601348 0.570350
vt 0.601348 0.684315
vt 0.148282 0.585725
vt 0.148282 0.858392
vt 0.011948 0.858392
vt 0.011948 0.585725
vt 0.217951 0.562207
vt 0.217951 0.723677
vt 0.167951 0.723677
vt 0.167951 0.562207
vt 0.251249 0.482376
vt 0.251249 0.270945
vt 0.282368 0.294437
vt 0.282368 0.388406
vt 0.282368 0.482376
vt 0.217951 0.481472
vt 0.167951 0.481472
vt 0.217951 0.320002
vt 0.167951 0.320002
vt 0.729204 0.866660
vt 0.729204 0.980626
vt 0.601348 0.980626
vt 0.601348 0.866660
vt 0.537420 0.980626
vt 0.537420 0.866660
vt -1.189945 0.364224
vt -1.189945 0.741927
vt -1.378797 0.741927
vt -1.378797 0.364224
vt 0.268935 0.781250
vt 0.247347 0.789019
vt 0.247347 0.747448
vt 0.268935 0.755218
vt 0.496773 0.789019
vt 0.475186 0.781250
vt 0.475186 0.755218
vt 0.496773 0.747448
vt 0.366869 0.537920
vt 0.329073 0.537920
vt 0.329073 0.513897
vt 0.366869 0.513897
vt 0.446529 0.781250
vt 0.297592 0.781250
vt 0.297592 0.755218
vt 0.446529 0.755218
vt 0.620456 0.537920
vt 0.521350 0.537920
vt 0.521350 0.513897
vt 0.620456 0.513897
vt 0.496773 0.976089
vt 0.247347 0.976089
vt 0.496773 0.560379
vt 0.826739 0.021323
vt 0.826739 0.090388
vt 0.676456 0.090388
vt 0.676456 0.021323
vt 0.251249 0.223960
vt 0.282368 0.200468
vt 0.251249 0.012529
vt 0.282368 0.012529
vt 0.282368 0.106499
vt 0.247347 0.560379
vt 0.826739 0.090388
vt 0.826739 0.021323
vt 0.977022 0.021323
vt 0.977022 0.090388
vt 0.465975 0.015827
vt 0.521350 0.015827
vt 0.521350 0.039849
vt 0.465975 0.039849
vt 0.465975 0.537920
vt 0.465975 0.513897
vt 0.620456 0.015827
vt 0.658252 0.015827
vt 0.658252 0.039849
vt 0.620456 0.039849
vt 0.366869 0.015827
vt 0.366869 0.039849
vt 0.521350 0.111917
vt 0.521350 0.190807
vt 0.465975 0.190807
vt 0.465975 0.111917
vt 0.521350 0.362939
vt 0.521350 0.441829
vt 0.465975 0.441829
vt 0.465975 0.362939
vt 0.658252 0.211981
vt 0.620456 0.211981
vt 0.826739 0.518400
vt 0.826739 0.449335
vt 0.977022 0.449335
vt 0.977022 0.518400
vt 0.826739 0.449335
vt 0.826739 0.518400
vt 0.676456 0.518400
vt 0.676456 0.449335
vt 0.443074 0.323215
vt 0.443074 0.377785
vt 0.297817 0.377785
vt 0.370446 0.323215
vt 0.443074 0.087270
vt 0.443074 0.141840
vt 0.370446 0.141840
vt 0.297817 0.087270
vt 0.297817 0.247053
vt 0.297817 0.218002
s 0
f 15/1/1 16/2/1 21/3/1 22/4/1
f 16/2/2 17/5/2 20/6/2 21/3/2
f 7/7/2 8/8/2 6/9/2 5/10/2
f 10/9/3 4/8/3 13/7/3 14/10/3
f 27/11/2 8/12/2 7/13/2 28/14/2
f 3/8/3 4/8/3 10/9/3 9/9/3
f 4/15/4 6/16/4 12/17/4 13/18/4
f 8/19/5 17/20/5 16/21/5 23/22/5 11/23/5
f 6/9/2 8/8/2 11/8/2 12/9/2
f 18/24/3 15/1/3 22/4/3 19/25/3
f 16/21/5 15/26/5 24/27/5 23/22/5
f 12/28/1 11/29/1 23/30/1 24/31/1 14/32/1 13/33/1
f 20/34/5 19/25/5 22/4/5 21/35/5
f 18/36/5 10/37/5 14/38/5 24/27/5 15/26/5
f 25/13/3 30/12/3 10/11/3 1/14/3
f 29/39/3 9/40/3 10/11/3 30/12/3
f 35/41/5 34/42/5 33/43/5 36/44/5
f 5/45/2 6/46/2 49/47/2 48/48/2
f 39/49/5 46/50/5 27/51/5 28/52/5
f 27/11/2 26/40/2 2/39/2 8/12/2
f 46/53/3 39/54/3 38/55/3 31/56/3
f 25/57/6 53/58/6 44/59/6 43/60/6 30/61/6
f 29/49/5 30/50/5 43/51/5 42/52/5
f 43/62/6 44/53/6 33/56/6 34/63/6
f 41/49/5 44/50/5 45/51/5 40/52/5
f 45/62/6 46/53/6 31/56/6 32/63/6
f 42/64/2 43/62/2 34/63/2 35/65/2
f 40/64/2 45/62/2 32/63/2 37/65/2
f 37/41/5 32/42/5 31/43/5 38/44/5
f 44/53/3 41/54/3 36/55/3 33/56/3
f 48/66/4 49/67/4 50/68/4 47/69/4
f 4/70/3 3/71/3 47/69/3 50/68/3
f 6/72/1 4/73/1 50/74/1 49/75/1
f 55/76/5 51/77/5 52/78/5 59/79/5
f 53/80/5 58/81/5 62/82/5 54/83/5
f 60/84/6 56/85/6 64/86/6 68/87/6
f 57/88/5 56/89/5 60/90/5 61/91/5
f 56/92/3 55/93/3 63/94/3 64/95/3
f 25/96/5 1/97/5 56/89/5 57/88/5
f 54/83/5 62/82/5 61/91/5 26/98/5
f 66/99/3 65/100/3 73/101/3 74/102/3
f 44/59/6 53/58/6 54/103/6 45/104/6
f 45/104/6 54/103/6 26/105/6 27/106/6 46/107/6
f 57/88/5 58/81/5 53/80/5 25/96/5
f 56/89/5 1/97/5 51/77/5 55/76/5
f 26/98/5 61/91/5 60/90/5 2/108/5
f 2/108/5 60/90/5 59/79/5 52/78/5
f 69/109/2 70/110/2 78/111/2 77/112/2
f 62/113/6 58/114/6 66/115/6 70/116/6
f 55/93/1 59/117/1 67/118/1 63/94/1
f 57/119/1 61/120/1 69/121/1 65/122/1
f 61/123/2 62/113/2 70/116/2 69/124/2
f 59/117/2 60/84/2 68/87/2 67/118/2
f 58/114/3 57/119/3 65/122/3 66/115/3
f 74/125/5 73/126/5 77/127/5 78/128/5
f 72/129/5 71/130/5 75/131/5 76/132/5
f 69/121/4 68/133/4 64/134/4 65/122/4
f 70/116/6 66/115/6 74/125/6 78/128/6
f 67/135/2 68/136/2 76/137/2 75/138/2
f 64/139/3 63/140/3 71/141/3 72/142/3
f 63/94/1 67/118/1 75/131/1 71/130/1
f 77/127/5 73/126/5 72/129/5 76/132/5
f 69/109/2 77/112/2 76/137/2 68/136/2
f 73/101/3 65/100/3 64/139/3 72/142/3
f 83/143/1 81/144/1 80/145/1 86/146/1
f 82/147/1 84/148/1 85/149/1 79/150/1
f 80/145/1 88/151/1 86/146/1
f 86/146/1 88/151/1 87/152/1 85/149/1
f 85/149/1 87/152/1 79/150/1
