# Blender 4.4.3
# www.blender.org
o SM_Intersection_Sidewalk_V1.0
v 12.050035 0.300000 6.050034
v 12.000002 0.249966 6.000000
v 12.000002 0.249966 8.000000
v 12.050035 0.300000 7.949966
v 15.949968 0.300000 6.050035
v 15.949968 0.300000 7.949967
v 19.949968 0.300000 7.949967
v 20.000002 0.249966 8.000001
v 19.949968 0.300000 6.050035
v 16.000002 0.249966 8.000001
v 16.050035 0.300000 7.949967
v 16.000002 0.249966 6.000001
v 6.000000 -0.000000 20.000000
v 8.000000 -0.000000 20.000000
v 6.000000 -0.000000 16.000000
v 16.050035 0.300000 6.050035
v 11.949968 0.300000 7.949966
v 11.949968 0.300000 6.050034
v 20.000002 0.249966 6.000001
v 6.000000 -0.000000 8.000000
v 8.000000 -0.000000 12.000000
v 8.000000 -0.000000 8.000000
v 6.000000 -0.000000 12.000000
v 8.000000 -0.000000 16.000000
v 6.050034 0.300000 19.949966
v 6.000000 0.249966 20.000000
v 7.949966 0.300000 19.949966
v 8.000000 0.249966 20.000000
v 6.050034 0.300000 16.050034
v 8.050035 0.300000 7.949966
v 8.000002 0.249966 6.000000
v 7.949966 0.300000 16.050034
v 8.050035 0.300000 6.050034
v 12.000002 -0.000000 8.000000
v 16.000002 -0.000000 6.000001
v 20.000002 -0.000000 8.000001
v 16.000002 -0.000000 8.000001
v 20.000002 -0.000000 6.000001
v 12.000002 -0.000000 6.000000
v 6.000000 0.249966 8.000000
v 6.050034 0.300000 11.949966
v 6.000000 0.249966 12.000000
v 7.949966 0.300000 11.949966
v 8.000000 0.249966 12.000000
v 6.050034 0.300000 8.050034
v 8.000000 0.249966 8.000000
v 7.949966 0.300000 8.050034
v 7.949966 0.300000 12.050034
v 6.050034 0.300000 12.050034
v 7.949966 0.300000 15.949966
v 8.000000 0.249966 16.000000
v 6.000000 0.249966 16.000000
v 6.050034 0.300000 15.949966
v 6.000002 -0.000034 6.000000
v 8.000002 -0.000034 6.000000
v 7.950001 0.299966 7.950000
v 7.950002 0.299966 6.050000
v 6.050000 0.299966 7.950000
v 6.000002 0.249966 6.000000
v 6.050002 0.299966 6.050000
v 12.050035 0.300000 -6.050032
v 12.000002 0.249966 -5.999999
v 12.000002 0.249966 -7.999999
v 12.050035 0.300000 -7.949965
v 15.949968 0.300000 -6.050033
v 15.949968 0.300000 -7.949966
v 19.949968 0.300000 -7.949966
v 20.000002 0.249966 -8.000000
v 19.949968 0.300000 -6.050033
v 16.000002 0.249966 -8.000000
v 16.050035 0.300000 -7.949966
v 16.000002 0.249966 -6.000000
v 6.000000 -0.000000 -19.999998
v 8.000000 -0.000000 -19.999998
v 6.000000 -0.000000 -15.999998
v 16.050035 0.300000 -6.050033
v 11.949968 0.300000 -7.949965
v 11.949968 0.300000 -6.050032
v 20.000002 0.249966 -6.000000
v 6.000000 -0.000000 -7.999999
v 8.000000 -0.000000 -11.999998
v 8.000000 -0.000000 -7.999999
v 6.000000 -0.000000 -11.999998
v 8.000000 -0.000000 -15.999998
v 6.050034 0.300000 -19.949965
v 6.000000 0.249966 -19.999998
v 7.949966 0.300000 -19.949965
v 8.000000 0.249966 -19.999998
v 6.050034 0.300000 -16.050032
v 8.050035 0.300000 -7.949965
v 8.000002 0.249966 -5.999999
v 7.949966 0.300000 -16.050032
v 8.050035 0.300000 -6.050032
v 12.000002 -0.000000 -7.999999
v 16.000002 -0.000000 -6.000000
v 20.000002 -0.000000 -8.000000
v 16.000002 -0.000000 -8.000000
v 20.000002 -0.000000 -6.000000
v 12.000002 -0.000000 -5.999999
v 6.000000 0.249966 -7.999999
v 6.050034 0.300000 -11.949965
v 6.000000 0.249966 -11.999998
v 7.949966 0.300000 -11.949965
v 8.000000 0.249966 -11.999998
v 6.050034 0.300000 -8.050032
v 8.000000 0.249966 -7.999999
v 7.949966 0.300000 -8.050032
v 7.949966 0.300000 -12.050032
v 6.050034 0.300000 -12.050032
v 7.949966 0.300000 -15.949965
v 8.000000 0.249966 -15.999998
v 6.000000 0.249966 -15.999998
v 6.050034 0.300000 -15.949965
v 6.000002 -0.000034 -5.999999
v 8.000002 -0.000034 -5.999999
v 7.950001 0.299966 -7.949998
v 7.950002 0.299966 -6.049999
v 6.050000 0.299966 -7.949998
v 6.000002 0.249966 -5.999999
v 6.050002 0.299966 -6.049999
v -12.050032 0.300000 6.050034
v -11.999998 0.249966 6.000000
v -11.999998 0.249966 8.000000
v -12.050032 0.300000 7.949966
v -15.949965 0.300000 6.050035
v -15.949965 0.300000 7.949967
v -19.949966 0.300000 7.949967
v -20.000000 0.249966 8.000001
v -19.949966 0.300000 6.050035
v -15.999999 0.249966 8.000001
v -16.050034 0.300000 7.949967
v -15.999999 0.249966 6.000001
v -5.999996 -0.000000 20.000000
v -7.999996 -0.000000 20.000000
v -5.999996 -0.000000 16.000000
v -16.050034 0.300000 6.050035
v -11.949965 0.300000 7.949966
v -11.949965 0.300000 6.050034
v -20.000000 0.249966 6.000001
v -5.999996 -0.000000 8.000000
v -7.999996 -0.000000 12.000000
v -7.999996 -0.000000 8.000000
v -5.999996 -0.000000 12.000000
v -7.999996 -0.000000 16.000000
v -6.050030 0.300000 19.949966
v -5.999996 0.249966 20.000000
v -7.949963 0.300000 19.949966
v -7.999996 0.249966 20.000000
v -6.050030 0.300000 16.050034
v -8.050032 0.300000 7.949966
v -7.999998 0.249966 6.000000
v -7.949963 0.300000 16.050034
v -8.050032 0.300000 6.050034
v -11.999998 -0.000000 8.000000
v -15.999999 -0.000000 6.000001
v -20.000000 -0.000000 8.000001
v -15.999999 -0.000000 8.000001
v -20.000000 -0.000000 6.000001
v -11.999998 -0.000000 6.000000
v -5.999996 0.249966 8.000000
v -6.050030 0.300000 11.949966
v -5.999996 0.249966 12.000000
v -7.949963 0.300000 11.949966
v -7.999996 0.249966 12.000000
v -6.050030 0.300000 8.050034
v -7.999996 0.249966 8.000000
v -7.949963 0.300000 8.050034
v -7.949963 0.300000 12.050034
v -6.050030 0.300000 12.050034
v -7.949963 0.300000 15.949966
v -7.999996 0.249966 16.000000
v -5.999996 0.249966 16.000000
v -6.050030 0.300000 15.949966
v -5.999998 -0.000034 6.000000
v -7.999998 -0.000034 6.000000
v -7.949997 0.299966 7.950000
v -7.949998 0.299966 6.050000
v -6.049996 0.299966 7.950000
v -5.999998 0.249966 6.000000
v -6.049998 0.299966 6.050000
v -12.050032 0.300000 -6.050032
v -11.999998 0.249966 -5.999999
v -11.999998 0.249966 -7.999999
v -12.050032 0.300000 -7.949965
v -15.949965 0.300000 -6.050033
v -15.949965 0.300000 -7.949966
v -19.949966 0.300000 -7.949966
v -20.000000 0.249966 -8.000000
v -19.949966 0.300000 -6.050033
v -15.999999 0.249966 -8.000000
v -16.050034 0.300000 -7.949966
v -15.999999 0.249966 -6.000000
v -5.999996 -0.000000 -19.999998
v -7.999996 -0.000000 -19.999998
v -5.999996 -0.000000 -15.999998
v -16.050034 0.300000 -6.050033
v -11.949965 0.300000 -7.949965
v -11.949965 0.300000 -6.050032
v -20.000000 0.249966 -6.000000
v -5.999996 -0.000000 -7.999999
v -7.999996 -0.000000 -11.999998
v -7.999996 -0.000000 -7.999999
v -5.999996 -0.000000 -11.999998
v -7.999996 -0.000000 -15.999998
v -6.050030 0.300000 -19.949965
v -5.999996 0.249966 -19.999998
v -7.949963 0.300000 -19.949965
v -7.999996 0.249966 -19.999998
v -6.050030 0.300000 -16.050032
v -8.050032 0.300000 -7.949965
v -7.999998 0.249966 -5.999999
v -7.949963 0.300000 -16.050032
v -8.050032 0.300000 -6.050032
v -11.999998 -0.000000 -7.999999
v -15.999999 -0.000000 -6.000000
v -20.000000 -0.000000 -8.000000
v -15.999999 -0.000000 -8.000000
v -20.000000 -0.000000 -6.000000
v -11.999998 -0.000000 -5.999999
v -5.999996 0.249966 -7.999999
v -6.050030 0.300000 -11.949965
v -5.999996 0.249966 -11.999998
v -7.949963 0.300000 -11.949965
v -7.999996 0.249966 -11.999998
v -6.050030 0.300000 -8.050032
v -7.999996 0.249966 -7.999999
v -7.949963 0.300000 -8.050032
v -7.949963 0.300000 -12.050032
v -6.050030 0.300000 -12.050032
v -7.949963 0.300000 -15.949965
v -7.999996 0.249966 -15.999998
v -5.999996 0.249966 -15.999998
v -6.050030 0.300000 -15.949965
v -5.999998 -0.000034 -5.999999
v -7.999998 -0.000034 -5.999999
v -7.949997 0.299966 -7.949998
v -7.949998 0.299966 -6.049999
v -6.049996 0.299966 -7.949998
v -5.999998 0.249966 -5.999999
v -6.049998 0.299966 -6.049999
vn -0.0000 -0.0000 -1.0000
vn -0.0000 0.7071 0.7071
vn -0.7071 0.7071 -0.0000
vn -0.0000 0.7071 -0.7071
vn 0.7071 0.7071 -0.0000
vn -0.0000 1.0000 -0.0000
vn 1.0000 -0.0000 -0.0000
vn -1.0000 -0.0000 -0.0000
vn -0.0000 -0.0000 1.0000
vt 0.417230 0.766935
vt 0.430212 0.766935
vt 0.430212 0.974642
vt 0.417232 0.974642
vt 0.434037 0.770730
vt 0.433928 0.970812
vt 0.533270 0.972115
vt 0.537095 0.975909
vt 0.533379 0.772032
vt 0.537095 0.768202
vt 0.148678 0.784518
vt 0.069154 0.783476
vt 0.065924 0.780105
vt 0.151936 0.780888
vt 0.167756 0.980222
vt 0.172164 0.984461
vt 0.049807 0.979803
vt 0.044798 0.984461
vt 0.185536 0.983088
vt 0.163553 0.769108
vt 0.550075 0.975909
vt 0.550075 0.768202
vt 0.054486 0.765021
vt 0.028542 0.982699
vt 0.268827 0.888616
vt 0.255562 0.984967
vt 0.242530 0.983084
vt 0.257595 0.878823
vt 0.364931 0.869607
vt 0.361614 0.854166
vt 0.259942 0.980866
vt 0.366894 0.980909
vt 0.371331 0.984967
vt 0.271838 0.891462
vt 0.361284 0.874164
s 0
f 55/1/1 31/2/1 2/3/1 39/4/1
f 6/5/2 4/6/2 3/3/2 10/2/2
f 4/6/3 1/7/3 2/8/3 3/3/3
f 1/7/4 5/9/4 12/10/4 2/8/4
f 5/9/5 6/5/5 10/2/5 12/10/5
f 9/11/5 7/12/5 8/13/5 19/14/5
f 16/15/4 9/11/4 19/14/4 12/16/4
f 11/17/3 16/15/3 12/16/3 10/18/3
f 32/15/6 29/17/6 25/12/6 27/11/6
f 24/19/7 51/16/7 28/14/7 14/20/7
f 7/12/2 11/17/2 10/18/2 8/13/2
f 23/1/8 42/2/8 40/3/8 20/4/8
f 47/7/6 45/6/6 41/5/6 43/9/6
f 22/21/7 46/8/7 44/10/7 21/22/7
f 21/1/7 44/2/7 51/3/7 24/4/7
f 18/6/5 17/7/5 3/8/5 2/3/5
f 33/5/4 18/6/4 2/3/4 31/2/4
f 14/20/9 28/14/9 26/13/9 13/23/9
f 48/5/6 49/9/6 53/7/6 50/6/6
f 15/21/8 52/8/8 42/10/8 23/22/8
f 30/9/3 33/5/3 31/2/3 46/10/3
f 17/7/2 30/9/2 46/10/2 3/8/2
f 32/15/5 27/11/5 28/14/5 51/16/5
f 27/11/2 25/12/2 26/13/2 28/14/2
f 25/12/3 29/17/3 52/18/3 26/13/3
f 39/21/1 2/8/1 12/10/1 35/22/1
f 36/23/9 8/13/9 10/18/9 37/24/9
f 6/5/6 5/9/6 1/7/6 4/6/6
f 7/12/6 9/11/6 16/15/6 11/17/6
f 29/17/4 32/15/4 51/16/4 52/18/4
f 35/19/1 12/16/1 19/14/1 38/20/1
f 17/7/6 18/6/6 33/5/6 30/9/6
f 37/1/9 10/2/9 3/3/9 34/4/9
f 47/7/5 43/9/5 44/10/5 46/8/5
f 43/9/2 41/5/2 42/2/2 44/10/2
f 41/5/3 45/6/3 40/3/3 42/2/3
f 45/6/4 47/7/4 46/8/4 40/3/4
f 34/21/9 3/8/9 46/10/9 22/22/9
f 49/9/4 48/5/4 44/2/4 42/10/4
f 53/7/3 49/9/3 42/10/3 52/8/3
f 50/6/2 53/7/2 52/8/2 51/3/2
f 48/5/5 50/6/5 51/3/5 44/2/5
f 13/23/8 26/13/8 52/18/8 15/24/8
f 59/25/1 31/26/1 55/27/1 54/28/1
f 40/29/8 59/25/8 54/28/8 20/30/8
f 57/31/5 56/32/5 46/33/5 31/26/5
f 31/26/4 59/25/4 60/34/4 57/31/4
f 58/35/3 60/34/3 59/25/3 40/29/3
f 40/29/2 46/33/2 56/32/2 58/35/2
f 60/34/6 58/35/6 56/32/6 57/31/6
f 8/13/7 36/23/7 38/20/7 19/14/7
f 115/1/9 99/4/9 62/3/9 91/2/9
f 66/5/4 70/2/4 63/3/4 64/6/4
f 64/6/3 63/3/3 62/8/3 61/7/3
f 61/7/2 62/8/2 72/10/2 65/9/2
f 65/9/5 72/10/5 70/2/5 66/5/5
f 69/11/5 79/14/5 68/13/5 67/12/5
f 76/15/2 72/16/2 79/14/2 69/11/2
f 71/17/3 70/18/3 72/16/3 76/15/3
f 92/15/6 87/11/6 85/12/6 89/17/6
f 84/19/7 74/20/7 88/14/7 111/16/7
f 67/12/4 68/13/4 70/18/4 71/17/4
f 83/1/8 80/4/8 100/3/8 102/2/8
f 107/7/6 103/9/6 101/5/6 105/6/6
f 82/21/7 81/22/7 104/10/7 106/8/7
f 81/1/7 84/4/7 111/3/7 104/2/7
f 78/6/5 62/3/5 63/8/5 77/7/5
f 93/5/2 91/2/2 62/3/2 78/6/2
f 74/20/1 73/23/1 86/13/1 88/14/1
f 108/5/6 110/6/6 113/7/6 109/9/6
f 75/21/8 83/22/8 102/10/8 112/8/8
f 90/9/3 106/10/3 91/2/3 93/5/3
f 77/7/4 63/8/4 106/10/4 90/9/4
f 92/15/5 111/16/5 88/14/5 87/11/5
f 87/11/4 88/14/4 86/13/4 85/12/4
f 85/12/3 86/13/3 112/18/3 89/17/3
f 99/21/9 95/22/9 72/10/9 62/8/9
f 96/23/1 97/24/1 70/18/1 68/13/1
f 66/5/6 64/6/6 61/7/6 65/9/6
f 67/12/6 71/17/6 76/15/6 69/11/6
f 89/17/2 112/18/2 111/16/2 92/15/2
f 95/19/9 98/20/9 79/14/9 72/16/9
f 77/7/6 90/9/6 93/5/6 78/6/6
f 97/1/1 94/4/1 63/3/1 70/2/1
f 107/7/5 106/8/5 104/10/5 103/9/5
f 103/9/4 104/10/4 102/2/4 101/5/4
f 101/5/3 102/2/3 100/3/3 105/6/3
f 105/6/2 100/3/2 106/8/2 107/7/2
f 94/21/1 82/22/1 106/10/1 63/8/1
f 109/9/2 102/10/2 104/2/2 108/5/2
f 113/7/3 112/8/3 102/10/3 109/9/3
f 110/6/4 111/3/4 112/8/4 113/7/4
f 108/5/5 104/2/5 111/3/5 110/6/5
f 73/23/8 75/24/8 112/18/8 86/13/8
f 119/25/9 114/28/9 115/27/9 91/26/9
f 100/29/8 80/30/8 114/28/8 119/25/8
f 117/31/5 91/26/5 106/33/5 116/32/5
f 91/26/2 117/31/2 120/34/2 119/25/2
f 118/35/3 100/29/3 119/25/3 120/34/3
f 100/29/4 118/35/4 116/32/4 106/33/4
f 120/34/6 117/31/6 116/32/6 118/35/6
f 68/13/7 79/14/7 98/20/7 96/23/7
f 175/1/1 159/4/1 122/3/1 151/2/1
f 126/5/2 130/2/2 123/3/2 124/6/2
f 124/6/5 123/3/5 122/8/5 121/7/5
f 121/7/4 122/8/4 132/10/4 125/9/4
f 125/9/3 132/10/3 130/2/3 126/5/3
f 129/11/3 139/14/3 128/13/3 127/12/3
f 136/15/4 132/16/4 139/14/4 129/11/4
f 131/17/5 130/18/5 132/16/5 136/15/5
f 152/15/6 147/11/6 145/12/6 149/17/6
f 144/19/8 134/20/8 148/14/8 171/16/8
f 127/12/2 128/13/2 130/18/2 131/17/2
f 143/1/7 140/4/7 160/3/7 162/2/7
f 167/7/6 163/9/6 161/5/6 165/6/6
f 142/21/8 141/22/8 164/10/8 166/8/8
f 141/1/8 144/4/8 171/3/8 164/2/8
f 138/6/3 122/3/3 123/8/3 137/7/3
f 153/5/4 151/2/4 122/3/4 138/6/4
f 134/20/9 133/23/9 146/13/9 148/14/9
f 168/5/6 170/6/6 173/7/6 169/9/6
f 135/21/7 143/22/7 162/10/7 172/8/7
f 150/9/5 166/10/5 151/2/5 153/5/5
f 137/7/2 123/8/2 166/10/2 150/9/2
f 152/15/3 171/16/3 148/14/3 147/11/3
f 147/11/2 148/14/2 146/13/2 145/12/2
f 145/12/5 146/13/5 172/18/5 149/17/5
f 159/21/1 155/22/1 132/10/1 122/8/1
f 156/23/9 157/24/9 130/18/9 128/13/9
f 126/5/6 124/6/6 121/7/6 125/9/6
f 127/12/6 131/17/6 136/15/6 129/11/6
f 149/17/4 172/18/4 171/16/4 152/15/4
f 155/19/1 158/20/1 139/14/1 132/16/1
f 137/7/6 150/9/6 153/5/6 138/6/6
f 157/1/9 154/4/9 123/3/9 130/2/9
f 167/7/3 166/8/3 164/10/3 163/9/3
f 163/9/2 164/10/2 162/2/2 161/5/2
f 161/5/5 162/2/5 160/3/5 165/6/5
f 165/6/4 160/3/4 166/8/4 167/7/4
f 154/21/9 142/22/9 166/10/9 123/8/9
f 169/9/4 162/10/4 164/2/4 168/5/4
f 173/7/5 172/8/5 162/10/5 169/9/5
f 170/6/2 171/3/2 172/8/2 173/7/2
f 168/5/3 164/2/3 171/3/3 170/6/3
f 133/23/7 135/24/7 172/18/7 146/13/7
f 179/25/1 174/28/1 175/27/1 151/26/1
f 160/29/7 140/30/7 174/28/7 179/25/7
f 177/31/3 151/26/3 166/33/3 176/32/3
f 151/26/4 177/31/4 180/34/4 179/25/4
f 178/35/5 160/29/5 179/25/5 180/34/5
f 160/29/2 178/35/2 176/32/2 166/33/2
f 180/34/6 177/31/6 176/32/6 178/35/6
f 128/13/8 139/14/8 158/20/8 156/23/8
f 235/1/9 211/2/9 182/3/9 219/4/9
f 186/5/4 184/6/4 183/3/4 190/2/4
f 184/6/5 181/7/5 182/8/5 183/3/5
f 181/7/2 185/9/2 192/10/2 182/8/2
f 185/9/3 186/5/3 190/2/3 192/10/3
f 189/11/3 187/12/3 188/13/3 199/14/3
f 196/15/2 189/11/2 199/14/2 192/16/2
f 191/17/5 196/15/5 192/16/5 190/18/5
f 212/15/6 209/17/6 205/12/6 207/11/6
f 204/19/8 231/16/8 208/14/8 194/20/8
f 187/12/4 191/17/4 190/18/4 188/13/4
f 203/1/7 222/2/7 220/3/7 200/4/7
f 227/7/6 225/6/6 221/5/6 223/9/6
f 202/21/8 226/8/8 224/10/8 201/22/8
f 201/1/8 224/2/8 231/3/8 204/4/8
f 198/6/3 197/7/3 183/8/3 182/3/3
f 213/5/2 198/6/2 182/3/2 211/2/2
f 194/20/1 208/14/1 206/13/1 193/23/1
f 228/5/6 229/9/6 233/7/6 230/6/6
f 195/21/7 232/8/7 222/10/7 203/22/7
f 210/9/5 213/5/5 211/2/5 226/10/5
f 197/7/4 210/9/4 226/10/4 183/8/4
f 212/15/3 207/11/3 208/14/3 231/16/3
f 207/11/4 205/12/4 206/13/4 208/14/4
f 205/12/5 209/17/5 232/18/5 206/13/5
f 219/21/9 182/8/9 192/10/9 215/22/9
f 216/23/1 188/13/1 190/18/1 217/24/1
f 186/5/6 185/9/6 181/7/6 184/6/6
f 187/12/6 189/11/6 196/15/6 191/17/6
f 209/17/2 212/15/2 231/16/2 232/18/2
f 215/19/9 192/16/9 199/14/9 218/20/9
f 197/7/6 198/6/6 213/5/6 210/9/6
f 217/1/1 190/2/1 183/3/1 214/4/1
f 227/7/3 223/9/3 224/10/3 226/8/3
f 223/9/4 221/5/4 222/2/4 224/10/4
f 221/5/5 225/6/5 220/3/5 222/2/5
f 225/6/2 227/7/2 226/8/2 220/3/2
f 214/21/1 183/8/1 226/10/1 202/22/1
f 229/9/2 228/5/2 224/2/2 222/10/2
f 233/7/5 229/9/5 222/10/5 232/8/5
f 230/6/4 233/7/4 232/8/4 231/3/4
f 228/5/3 230/6/3 231/3/3 224/2/3
f 193/23/7 206/13/7 232/18/7 195/24/7
f 239/25/9 211/26/9 235/27/9 234/28/9
f 220/29/7 239/25/7 234/28/7 200/30/7
f 237/31/3 236/32/3 226/33/3 211/26/3
f 211/26/2 239/25/2 240/34/2 237/31/2
f 238/35/5 240/34/5 239/25/5 220/29/5
f 220/29/4 226/33/4 236/32/4 238/35/4
f 240/34/6 238/35/6 236/32/6 237/31/6
f 188/13/8 216/23/8 218/20/8 199/14/8
