# Blender 4.4.3
# www.blender.org
o SM_Incline_Sidewalk_V1.0
v 7.709970 0.245295 22.513409
v 5.993798 0.983704 17.885378
v 5.993798 0.245296 22.513409
v 5.993798 0.109811 26.824657
v 7.709970 0.054950 29.973423
v 7.709970 0.109811 26.824659
v 5.993798 0.054952 29.973419
v 6.038227 0.552179 22.455130
v 7.669381 0.552179 22.455128
v 7.709970 0.495261 22.513409
v 6.038228 1.273554 17.940754
v 7.669381 1.273554 17.940756
v 7.669381 0.538475 22.571640
v 6.038227 0.538476 22.571644
v 5.993798 0.495262 22.513409
v 7.669380 0.411595 26.777885
v 5.993798 0.359778 26.824657
v 6.038228 0.411595 26.777893
v 6.038228 0.355151 29.955988
v 5.993798 0.304919 29.973419
v 7.669381 0.355149 29.955990
v 7.709970 0.304917 29.973423
v 6.038228 0.408071 26.871172
v 7.709970 0.359778 26.824659
v 7.669381 0.408069 26.871172
v 7.709970 0.983702 17.885370
v 5.993798 2.001409 13.795135
v 7.709970 4.697818 2.425401
v 7.709970 5.597094 -1.361020
v 5.993798 4.697819 2.425401
v 5.993798 3.798543 6.211825
v 7.709970 2.899268 9.998246
v 7.709970 3.798544 6.211825
v 5.993798 2.899268 9.998245
v 7.709970 2.001409 13.795135
v 6.038228 1.293875 17.830114
v 5.993798 1.233670 17.885378
v 7.669381 1.293875 17.830111
v 7.709970 1.233670 17.885370
v 6.038228 2.290277 13.843345
v 6.038228 5.009068 2.378040
v 7.669381 5.009068 2.378040
v 7.709970 4.947785 2.425401
v 7.669381 2.290277 13.843348
v 6.038228 5.885846 -1.313658
v 7.709970 5.847061 -1.361020
v 7.669381 5.885846 -1.313658
v 7.669381 4.986572 2.472763
v 6.038228 4.986570 2.472763
v 5.993798 4.947786 2.425401
v 7.669381 4.109791 6.164462
v 5.993798 4.048511 6.211825
v 6.038228 4.109792 6.164463
v 6.038228 3.210516 9.950883
v 5.993798 3.149235 9.998245
v 7.669381 3.210516 9.950886
v 7.709970 3.149235 9.998246
v 6.038228 4.087295 6.259186
v 7.709970 4.048511 6.211825
v 7.669381 4.087295 6.259185
v 7.669380 3.188020 10.045608
v 6.038228 3.188021 10.045608
v 7.669381 2.312547 13.746966
v 7.709970 2.251376 13.795135
v 5.993798 2.251375 13.795135
v 6.038228 2.312548 13.746964
v 5.993798 5.597095 -1.361020
v 5.993798 6.496009 -5.147326
v 7.709970 8.868285 -16.444010
v 5.993798 9.491450 -20.247154
v 5.993798 8.868286 -16.444010
v 5.993798 8.142981 -12.675938
v 7.709970 7.364908 -8.924018
v 7.709970 8.142983 -12.675938
v 5.993798 7.364908 -8.924018
v 7.709970 6.496007 -5.147326
v 6.038228 5.908343 -1.408383
v 5.993798 5.847061 -1.361020
v 7.669381 5.908342 -1.408382
v 6.038228 6.784803 -5.099978
v 6.038227 9.177067 -16.491415
v 7.669381 9.177067 -16.491415
v 7.709970 9.118252 -16.444010
v 7.669381 6.784801 -5.099978
v 6.038228 9.785019 -20.199478
v 7.669381 9.785021 -20.199474
v 7.669381 9.159489 -16.396620
v 6.038227 9.159492 -16.396616
v 5.993798 9.118253 -16.444010
v 7.669380 8.452242 -12.722850
v 5.993798 8.392947 -12.675938
v 6.038228 8.452241 -12.722849
v 6.038228 7.675258 -8.971094
v 5.993798 7.614874 -8.924018
v 7.669381 7.675257 -8.971094
v 7.709970 7.614874 -8.924018
v 6.038228 8.433715 -12.629030
v 7.709970 8.392949 -12.675938
v 7.669381 8.433714 -12.629027
v 7.669381 7.654541 -8.876939
v 6.038228 7.654543 -8.876938
v 7.669381 6.807206 -5.194673
v 7.709970 6.745974 -5.147326
v 5.993798 6.745975 -5.147326
v 6.038228 6.807207 -5.194673
v 7.709970 9.491451 -20.247152
v 5.993798 9.871871 -24.007742
v 5.993798 10.023853 -29.995071
v 7.709970 10.011629 -27.427805
v 7.709970 10.023852 -29.995073
v 5.993798 10.011630 -27.427811
v 7.709970 9.871870 -24.007740
v 6.038228 9.797839 -20.294828
v 5.993798 9.741417 -20.247154
v 7.669381 9.797836 -20.294828
v 7.709970 9.741418 -20.247152
v 6.038228 10.168691 -23.961903
v 7.669381 10.168693 -23.961905
v 5.993798 10.273820 -29.995071
v 6.038228 10.312222 -27.465225
v 5.993798 10.261596 -27.427811
v 7.669381 10.312222 -27.465223
v 7.709970 10.261596 -27.427805
v 6.038228 10.323853 -29.950691
v 7.709970 10.273819 -29.995073
v 7.669381 10.323853 -29.950691
v 7.669380 10.311012 -27.390192
v 6.038228 10.311013 -27.390196
v 7.669381 10.175013 -24.053532
v 7.709970 10.121838 -24.007740
v 5.993798 10.121838 -24.007742
v 6.038228 10.175009 -24.053530
v -7.677758 10.175009 -24.053530
v -7.722188 10.121838 -24.007742
v -6.006015 10.121838 -24.007740
v -6.046605 10.175013 -24.053532
v -7.677758 10.311013 -27.390196
v -6.046606 10.311012 -27.390192
v -6.046605 10.323853 -29.950691
v -6.006014 10.273819 -29.995073
v -7.677758 10.323853 -29.950691
v -6.006015 10.261596 -27.427805
v -6.046605 10.312222 -27.465223
v -7.722188 10.261596 -27.427811
v -7.677758 10.312222 -27.465225
v -7.722188 10.273820 -29.995071
v -6.046605 10.168693 -23.961905
v -7.677758 10.168691 -23.961903
v -6.006015 9.741418 -20.247152
v -6.046605 9.797836 -20.294828
v -7.722188 9.741417 -20.247154
v -7.677758 9.797839 -20.294828
v -6.006015 9.871870 -24.007740
v -7.722188 10.011630 -27.427811
v -6.006014 10.023852 -29.995073
v -6.006015 10.011629 -27.427805
v -7.722188 10.023853 -29.995071
v -7.722188 9.871871 -24.007742
v -6.006015 9.491451 -20.247152
v -7.677758 6.807207 -5.194673
v -7.722188 6.745975 -5.147326
v -6.006015 6.745974 -5.147326
v -6.046605 6.807206 -5.194673
v -7.677758 7.654543 -8.876938
v -6.046605 7.654541 -8.876939
v -6.046605 8.433714 -12.629027
v -6.006015 8.392949 -12.675938
v -7.677758 8.433715 -12.629030
v -6.006015 7.614874 -8.924018
v -6.046605 7.675257 -8.971094
v -7.722188 7.614874 -8.924018
v -7.677758 7.675258 -8.971094
v -7.677758 8.452241 -12.722849
v -7.722188 8.392947 -12.675938
v -6.046605 8.452242 -12.722850
v -7.722188 9.118253 -16.444010
v -7.677758 9.159492 -16.396616
v -6.046605 9.159489 -16.396620
v -6.046605 9.785021 -20.199474
v -7.677758 9.785019 -20.199478
v -6.046605 6.784801 -5.099978
v -6.006015 9.118252 -16.444010
v -6.046605 9.177067 -16.491415
v -7.677758 9.177067 -16.491415
v -7.677758 6.784803 -5.099978
v -6.046605 5.908342 -1.408382
v -7.722188 5.847061 -1.361020
v -7.677758 5.908343 -1.408383
v -6.006015 6.496007 -5.147326
v -7.722188 7.364908 -8.924018
v -6.006015 8.142983 -12.675938
v -6.006015 7.364908 -8.924018
v -7.722188 8.142981 -12.675938
v -7.722188 8.868286 -16.444010
v -7.722188 9.491450 -20.247154
v -6.006015 8.868285 -16.444010
v -7.722188 6.496009 -5.147326
v -7.722188 5.597095 -1.361020
v -7.677758 2.312548 13.746964
v -7.722188 2.251375 13.795135
v -6.006015 2.251376 13.795135
v -6.046605 2.312547 13.746966
v -7.677758 3.188021 10.045608
v -6.046605 3.188020 10.045608
v -6.046605 4.087295 6.259185
v -6.006015 4.048511 6.211825
v -7.677758 4.087295 6.259186
v -6.006014 3.149235 9.998246
v -6.046605 3.210516 9.950886
v -7.722188 3.149235 9.998245
v -7.677758 3.210516 9.950883
v -7.677758 4.109792 6.164463
v -7.722188 4.048511 6.211825
v -6.046605 4.109791 6.164462
v -7.722188 4.947786 2.425401
v -7.677758 4.986570 2.472763
v -6.046605 4.986572 2.472763
v -6.046605 5.885846 -1.313658
v -6.006015 5.847061 -1.361020
v -7.677758 5.885846 -1.313658
v -6.046605 2.290277 13.843348
v -6.006015 4.947785 2.425401
v -6.046605 5.009068 2.378040
v -7.677758 5.009068 2.378040
v -7.677758 2.290277 13.843345
v -6.006015 1.233670 17.885370
v -6.046605 1.293875 17.830111
v -7.722188 1.233670 17.885378
v -7.677758 1.293875 17.830114
v -6.006015 2.001409 13.795135
v -7.722188 2.899268 9.998245
v -6.006015 3.798544 6.211825
v -6.006014 2.899268 9.998246
v -7.722188 3.798543 6.211825
v -7.722188 4.697819 2.425401
v -6.006015 5.597094 -1.361020
v -6.006015 4.697818 2.425401
v -7.722188 2.001409 13.795135
v -6.006015 0.983702 17.885370
v -6.046605 0.408069 26.871172
v -6.006015 0.359778 26.824659
v -7.677758 0.408071 26.871172
v -6.006014 0.304917 29.973423
v -6.046605 0.355149 29.955990
v -7.722188 0.304919 29.973419
v -7.677758 0.355151 29.955988
v -7.677758 0.411595 26.777893
v -7.722188 0.359778 26.824657
v -6.046606 0.411595 26.777885
v -7.722188 0.495262 22.513409
v -7.677758 0.538476 22.571644
v -6.046605 0.538475 22.571640
v -6.046605 1.273554 17.940756
v -7.677758 1.273554 17.940754
v -6.006015 0.495261 22.513409
v -6.046605 0.552179 22.455128
v -7.677758 0.552179 22.455130
v -7.722188 0.054952 29.973419
v -6.006015 0.109811 26.824659
v -6.006014 0.054950 29.973423
v -7.722188 0.109811 26.824657
v -7.722188 0.245296 22.513409
v -7.722188 0.983704 17.885378
v -6.006015 0.245295 22.513409
vn -0.0000 0.9995 0.0302
vn -1.0000 -0.0000 -0.0000
vn -0.0000 0.9999 0.0172
vn 1.0000 -0.0000 -0.0000
vn -0.0000 0.9875 0.1578
vn 0.7607 0.6410 0.1023
vn -0.0000 0.7154 0.6987
vn -0.7308 0.6741 0.1076
vn -0.0000 0.8115 -0.5844
vn -0.0000 0.8030 -0.5959
vn -0.7315 0.6815 0.0210
vn -0.0000 0.6700 0.7423
vn 0.7614 0.6480 0.0200
vn 0.7733 0.6339 0.0110
vn -0.0000 0.3278 0.9447
vn -0.7442 0.6678 0.0115
vn -0.0000 0.6937 -0.7202
vn -0.0000 -0.0000 1.0000
vn -0.0000 0.9729 0.2311
vn -0.0000 0.9702 0.2425
vn -0.0000 0.9731 0.2302
vn 0.7584 0.6324 0.1577
vn -0.0000 0.6762 0.7367
vn -0.7284 0.6648 0.1658
vn 0.7680 0.6231 0.1480
vn -0.0000 0.6115 0.7912
vn -0.7386 0.6559 0.1558
vn -0.0000 0.7737 -0.6336
vn -0.0000 0.7782 -0.6280
vn -0.7377 0.6570 0.1554
vn -0.0000 0.6187 0.7857
vn 0.7672 0.6242 0.1476
vn -0.0000 0.9820 0.1890
vn -0.0000 0.9730 0.2310
vn -0.0000 0.9792 0.2030
vn -0.0000 0.9868 0.1618
vn -0.0000 0.9745 0.2243
vn 0.7682 0.6229 0.1479
vn -0.7387 0.6558 0.1557
vn 0.7798 0.6178 0.1013
vn -0.0000 0.6275 0.7786
vn -0.7512 0.6514 0.1068
vn -0.0000 0.7380 -0.6749
vn -0.0000 0.7732 -0.6341
vn -0.0000 0.7544 -0.6564
vn -0.7436 0.6566 0.1264
vn -0.0000 0.6205 0.7842
vn 0.7727 0.6234 0.1200
vn 0.7733 0.6208 0.1287
vn -0.0000 0.6148 0.7886
vn -0.7442 0.6540 0.1356
vn -0.0000 0.7548 -0.6560
vn -0.0000 0.7647 -0.6443
vn -0.7417 0.6536 0.1504
vn -0.0000 0.6117 0.7911
vn 0.7710 0.6207 0.1428
vn -0.0000 0.9949 0.1006
vn -0.0000 1.0000 0.0047
vn -0.0000 0.9992 0.0407
vn 0.7841 0.6175 0.0625
vn -0.0000 0.6454 0.7638
vn -0.7558 0.6515 0.0659
vn -0.0000 -0.0000 -1.0000
vn -0.0000 0.6993 -0.7148
vn 0.7785 0.6276 0.0030
vn -0.0000 0.5944 0.8042
vn -0.7498 0.6617 0.0031
vn -0.0000 0.6636 -0.7481
vn -0.0000 0.6056 -0.7957
vn -0.7546 0.6557 0.0268
vn -0.0000 0.6526 0.7577
vn 0.7829 0.6216 0.0254
vn -0.0000 0.6149 0.7886
vn -0.0000 0.3279 0.9447
vt 0.163434 0.300207
vt 0.027059 0.300207
vt 0.027059 0.029588
vt 0.163434 0.029588
vt 0.003716 0.029588
vt 0.021050 0.029588
vt 0.021050 0.300207
vt 0.003716 0.300207
vt 0.163434 0.006622
vt 0.163434 0.023676
vt 0.027059 0.023676
vt 0.027059 0.006622
vt 0.027059 0.323173
vt 0.027059 0.306120
vt 0.163434 0.306120
vt 0.163434 0.323173
vt 0.186777 0.029588
vt 0.169443 0.029588
vt 0.169443 0.300207
vt 0.186777 0.300207
s 0
f 13/1/1 14/2/1 18/3/1 16/4/1
f 4/5/2 17/6/2 15/7/2 3/8/2
f 7/9/2 20/10/2 17/11/2 4/12/2
f 25/2/3 23/3/3 19/4/3 21/1/3
f 6/13/4 24/14/4 22/15/4 5/16/4
f 12/4/5 11/3/5 8/2/5 9/1/5
f 26/17/4 39/18/4 10/19/4 1/20/4
f 1/20/4 10/19/4 24/18/4 6/17/4
f 3/8/2 15/7/2 37/6/2 2/5/2
f 12/4/6 9/1/6 10/19/6 39/18/6
f 9/1/7 8/2/7 15/14/7 10/15/7
f 8/2/8 11/3/8 37/6/8 15/7/8
f 11/3/9 12/4/9 39/10/9 37/11/9
f 14/2/10 13/1/10 10/15/10 15/14/10
f 18/3/11 14/2/11 15/7/11 17/6/11
f 16/4/12 18/3/12 17/11/12 24/10/12
f 13/1/13 16/4/13 24/18/13 10/19/13
f 25/2/14 21/1/14 22/15/14 24/14/14
f 21/1/15 19/4/15 20/18/15 22/19/15
f 19/4/16 23/3/16 17/11/16 20/10/16
f 23/3/17 25/2/17 24/7/17 17/6/17
f 20/10/18 7/9/18 5/16/18 22/15/18
f 48/1/19 49/2/19 53/3/19 51/4/19
f 44/1/20 40/2/20 36/3/20 38/4/20
f 35/20/4 64/19/4 39/18/4 26/17/4
f 31/5/2 52/6/2 50/7/2 30/8/2
f 34/9/2 55/10/2 52/11/2 31/12/2
f 60/2/19 58/3/19 54/4/19 56/1/19
f 33/13/4 59/14/4 57/15/4 32/16/4
f 32/9/4 57/10/4 64/11/4 35/12/4
f 47/4/19 45/3/19 41/2/19 42/1/19
f 29/17/4 46/18/4 43/19/4 28/20/4
f 61/4/21 62/1/21 66/2/21 63/3/21
f 27/13/2 65/14/2 55/15/2 34/16/2
f 28/20/4 43/19/4 59/18/4 33/17/4
f 30/8/2 50/7/2 78/6/2 67/5/2
f 44/1/22 38/4/22 39/18/22 64/19/22
f 38/4/23 36/3/23 37/11/23 39/10/23
f 36/3/24 40/2/24 65/7/24 37/6/24
f 47/4/25 42/1/25 43/19/25 46/18/25
f 42/1/26 41/2/26 50/14/26 43/15/26
f 41/2/27 45/3/27 78/6/27 50/7/27
f 45/3/28 47/4/28 46/10/28 78/11/28
f 40/2/29 44/1/29 64/15/29 65/14/29
f 49/2/28 48/1/28 43/15/28 50/14/28
f 53/3/27 49/2/27 50/7/27 52/6/27
f 51/4/26 53/3/26 52/11/26 59/10/26
f 48/1/25 51/4/25 59/18/25 43/19/25
f 60/2/25 56/1/25 57/15/25 59/14/25
f 56/1/26 54/4/26 55/18/26 57/19/26
f 54/4/27 58/3/27 52/11/27 55/10/27
f 58/3/28 60/2/28 59/7/28 52/6/28
f 62/1/28 61/4/28 57/18/28 55/19/28
f 66/2/30 62/1/30 55/15/30 65/14/30
f 63/3/31 66/2/31 65/7/31 64/6/31
f 61/4/32 63/3/32 64/11/32 57/10/32
f 2/5/2 37/6/2 65/7/2 27/8/2
f 87/1/33 88/2/33 92/3/33 90/4/33
f 84/1/34 80/2/34 77/3/34 79/4/34
f 76/20/4 103/19/4 46/18/4 29/17/4
f 72/5/2 91/6/2 89/7/2 71/8/2
f 75/9/2 94/10/2 91/11/2 72/12/2
f 99/2/35 97/3/35 93/4/35 95/1/35
f 74/13/4 98/14/4 96/15/4 73/16/4
f 73/9/4 96/10/4 103/11/4 76/12/4
f 86/4/36 85/3/36 81/2/36 82/1/36
f 106/17/4 116/18/4 83/19/4 69/20/4
f 100/4/37 101/1/37 105/2/37 102/3/37
f 68/13/2 104/14/2 94/15/2 75/16/2
f 69/20/4 83/19/4 98/18/4 74/17/4
f 71/8/2 89/7/2 114/6/2 70/5/2
f 84/1/38 79/4/38 46/18/38 103/19/38
f 79/4/26 77/3/26 78/11/26 46/10/26
f 77/3/39 80/2/39 104/7/39 78/6/39
f 86/4/40 82/1/40 83/19/40 116/18/40
f 82/1/41 81/2/41 89/14/41 83/15/41
f 81/2/42 85/3/42 114/6/42 89/7/42
f 85/3/43 86/4/43 116/10/43 114/11/43
f 80/2/44 84/1/44 103/15/44 104/14/44
f 88/2/45 87/1/45 83/15/45 89/14/45
f 92/3/46 88/2/46 89/7/46 91/6/46
f 90/4/47 92/3/47 91/11/47 98/10/47
f 87/1/48 90/4/48 98/18/48 83/19/48
f 99/2/49 95/1/49 96/15/49 98/14/49
f 95/1/50 93/4/50 94/18/50 96/19/50
f 93/4/51 97/3/51 91/11/51 94/10/51
f 97/3/52 99/2/52 98/7/52 91/6/52
f 101/1/53 100/4/53 96/18/53 94/19/53
f 105/2/54 101/1/54 94/15/54 104/14/54
f 102/3/55 105/2/55 104/7/55 103/6/55
f 100/4/56 102/3/56 103/11/56 96/10/56
f 67/5/2 78/6/2 104/7/2 68/8/2
f 118/1/57 117/2/57 113/3/57 115/4/57
f 112/20/4 130/19/4 116/18/4 106/17/4
f 111/9/2 121/10/2 119/11/2 108/12/2
f 126/2/58 124/3/58 120/4/58 122/1/58
f 110/13/4 125/14/4 123/15/4 109/16/4
f 109/9/4 123/10/4 130/11/4 112/12/4
f 127/4/59 128/1/59 132/2/59 129/3/59
f 107/13/2 131/14/2 121/15/2 111/16/2
f 118/1/60 115/4/60 116/18/60 130/19/60
f 115/4/61 113/3/61 114/11/61 116/10/61
f 113/3/62 117/2/62 131/7/62 114/6/62
f 119/11/63 125/14/63 110/13/63 108/12/63
f 117/2/64 118/1/64 130/15/64 131/14/64
f 126/2/65 122/1/65 123/15/65 125/14/65
f 122/1/66 120/4/66 121/18/66 123/19/66
f 120/4/67 124/3/67 119/11/67 121/10/67
f 125/14/68 119/11/68 124/3/68 126/2/68
f 128/1/69 127/4/69 123/18/69 121/19/69
f 132/2/70 128/1/70 121/15/70 131/14/70
f 129/3/71 132/2/71 131/7/71 130/6/71
f 127/4/72 129/3/72 130/11/72 123/10/72
f 70/5/2 114/6/2 131/7/2 107/8/2
f 195/5/2 151/6/2 134/7/2 158/8/2
f 140/14/68 146/11/68 141/3/68 139/2/68
f 133/2/70 137/1/70 144/15/70 134/14/70
f 138/4/72 136/3/72 135/11/72 142/10/72
f 136/3/71 133/2/71 134/7/71 135/6/71
f 145/4/67 141/3/67 146/11/67 144/10/67
f 137/1/69 138/4/69 142/18/69 144/19/69
f 175/4/47 173/3/47 174/11/47 167/10/47
f 154/9/2 144/10/2 146/11/2 157/12/2
f 143/1/66 145/4/66 144/18/66 142/19/66
f 147/1/60 150/4/60 149/18/60 135/19/60
f 138/4/59 137/1/59 133/2/59 136/3/59
f 183/1/41 184/2/41 176/14/41 182/15/41
f 156/9/4 142/10/4 135/11/4 153/12/4
f 155/13/4 140/14/4 142/15/4 156/16/4
f 163/3/55 160/2/55 161/7/55 162/6/55
f 148/2/64 147/1/64 135/15/64 134/14/64
f 194/8/2 176/7/2 151/6/2 195/5/2
f 139/2/65 143/1/65 142/15/65 140/14/65
f 146/11/63 140/14/63 155/13/63 157/12/63
f 158/13/2 134/14/2 144/15/2 154/16/2
f 147/1/57 148/2/57 152/3/57 150/4/57
f 139/2/58 141/3/58 145/4/58 143/1/58
f 153/20/4 135/19/4 149/18/4 159/17/4
f 164/1/53 165/4/53 169/18/53 171/19/53
f 165/4/56 163/3/56 162/11/56 169/10/56
f 160/2/54 164/1/54 171/15/54 161/14/54
f 170/1/73 172/4/73 171/18/73 169/19/73
f 198/5/2 187/6/2 161/7/2 197/8/2
f 168/3/52 166/2/52 167/7/52 174/6/52
f 173/3/46 177/2/46 176/7/46 174/6/46
f 177/2/45 178/1/45 182/15/45 176/14/45
f 172/4/51 168/3/51 174/11/51 171/10/51
f 186/4/26 188/3/26 187/11/26 219/10/26
f 184/2/42 180/3/42 151/6/42 176/7/42
f 180/3/43 179/4/43 149/10/43 151/11/43
f 185/2/44 181/1/44 162/15/44 161/14/44
f 150/4/61 152/3/61 151/11/61 149/10/61
f 179/4/40 183/1/40 182/19/40 149/18/40
f 188/3/39 185/2/39 161/7/39 187/6/39
f 196/20/4 182/19/4 167/18/4 191/17/4
f 181/1/38 186/4/38 219/18/38 162/19/38
f 217/1/25 214/4/25 206/18/25 222/19/25
f 178/1/33 177/2/33 173/3/33 175/4/33
f 152/3/62 148/2/62 134/7/62 151/6/62
f 190/9/2 171/10/2 174/11/2 193/12/2
f 193/5/2 174/6/2 176/7/2 194/8/2
f 224/2/27 220/3/27 187/6/27 215/7/27
f 189/20/4 162/19/4 219/18/4 236/17/4
f 181/1/34 185/2/34 188/3/34 186/4/34
f 199/2/30 203/1/30 210/15/30 200/14/30
f 179/4/36 180/3/36 184/2/36 183/1/36
f 221/1/22 227/4/22 226/18/22 201/19/22
f 165/4/37 164/1/37 160/2/37 163/3/37
f 159/17/4 149/18/4 182/19/4 196/20/4
f 192/9/4 169/10/4 162/11/4 189/12/4
f 178/1/48 175/4/48 167/18/48 182/19/48
f 166/2/49 170/1/49 169/15/49 167/14/49
f 263/5/2 228/6/2 200/7/2 238/8/2
f 207/3/28 205/2/28 206/7/28 213/6/28
f 202/3/31 199/2/31 200/7/31 201/6/31
f 203/1/28 204/4/28 208/18/28 210/19/28
f 205/2/25 209/1/25 208/15/25 206/14/25
f 204/4/32 202/3/32 201/11/32 208/10/32
f 211/4/27 207/3/27 213/11/27 210/10/27
f 214/4/26 212/3/26 213/11/26 206/10/26
f 212/3/27 216/2/27 215/7/27 213/6/27
f 209/1/26 211/4/26 210/18/26 208/19/26
f 229/3/24 225/2/24 200/7/24 228/6/24
f 220/3/28 218/4/28 219/10/28 187/11/28
f 225/2/29 221/1/29 201/15/29 200/14/29
f 216/2/28 217/1/28 222/15/28 215/14/28
f 191/13/4 167/14/4 169/15/4 192/16/4
f 223/1/26 224/2/26 215/14/26 222/15/26
f 218/4/25 223/1/25 222/19/25 219/18/25
f 235/8/2 215/7/2 187/6/2 198/5/2
f 227/4/23 229/3/23 228/11/23 226/10/23
f 197/13/2 161/14/2 171/15/2 190/16/2
f 254/3/9 253/4/9 226/10/9 228/11/9
f 221/1/20 225/2/20 229/3/20 227/4/20
f 237/20/4 222/19/4 206/18/4 232/17/4
f 232/13/4 206/14/4 208/15/4 233/16/4
f 205/2/19 207/3/19 211/4/19 209/1/19
f 239/17/4 226/18/4 255/19/4 264/20/4
f 231/9/2 210/10/2 213/11/2 234/12/2
f 234/5/2 213/6/2 215/7/2 235/8/2
f 244/1/74 246/4/74 245/18/74 243/19/74
f 204/4/21 203/1/21 199/2/21 202/3/21
f 261/5/2 248/6/2 250/7/2 262/8/2
f 238/13/2 200/14/2 210/15/2 231/16/2
f 236/17/4 219/18/4 222/19/4 237/20/4
f 233/9/4 208/10/4 201/11/4 230/12/4
f 245/10/18 258/9/18 260/16/18 243/15/18
f 230/20/4 201/19/4 226/18/4 239/17/4
f 217/1/19 216/2/19 212/3/19 214/4/19
f 252/1/13 249/4/13 241/18/13 255/19/13
f 246/4/16 242/3/16 248/11/16 245/10/16
f 240/2/14 244/1/14 243/15/14 241/14/14
f 251/2/10 252/1/10 255/15/10 250/14/10
f 242/3/17 240/2/17 241/7/17 248/6/17
f 249/4/12 247/3/12 248/11/12 241/10/12
f 257/2/8 254/3/8 228/6/8 250/7/8
f 256/1/7 257/2/7 250/14/7 255/15/7
f 247/3/11 251/2/11 250/7/11 248/6/11
f 240/2/3 242/3/3 246/4/3 244/1/3
f 264/20/4 255/19/4 241/18/4 259/17/4
f 262/8/2 250/7/2 228/6/2 263/5/2
f 253/4/6 256/1/6 255/19/6 226/18/6
f 218/4/19 220/3/19 224/2/19 223/1/19
f 253/4/5 254/3/5 257/2/5 256/1/5
f 259/13/4 241/14/4 243/15/4 260/16/4
f 252/1/1 251/2/1 247/3/1 249/4/1
f 258/9/2 245/10/2 248/11/2 261/12/2
f 166/2/35 168/3/35 172/4/35 170/1/35
