# Blender 4.4.3
# www.blender.org
o SM_StraightLarge_Sidewalk_V1.0
v -8.000000 -0.000000 40.000000
v -6.000000 -0.000000 40.000000
v -6.000000 -0.000000 36.000000
v -8.000000 -0.000000 20.000000
v -6.000000 -0.000000 20.000000
v -6.000000 -0.000000 24.000000
v -8.000000 -0.000000 24.000000
v -6.000000 -0.000000 28.000000
v -8.000000 -0.000000 28.000000
v -8.000000 -0.000000 32.000000
v -6.000000 -0.000000 32.000000
v -8.000000 -0.000000 36.000000
v -7.949966 0.300000 39.949966
v -8.000000 0.249966 40.000000
v -6.050034 0.300000 39.949966
v -6.000000 0.249966 40.000000
v -7.949966 0.300000 36.050034
v -7.949966 0.300000 23.949966
v -8.000000 0.249966 24.000000
v -6.050034 0.300000 23.949966
v -6.000000 0.249966 24.000000
v -6.050034 0.300000 36.050034
v -7.949966 0.300000 20.050034
v -8.000000 0.249966 20.000000
v -6.000000 0.249966 20.000000
v -6.050034 0.300000 20.050034
v -6.050034 0.300000 24.050034
v -7.949966 0.300000 24.050034
v -6.050034 0.300000 27.949966
v -6.000000 0.249966 28.000000
v -8.000000 0.249966 28.000000
v -7.949966 0.300000 27.949966
v -7.949966 0.300000 31.949966
v -8.000000 0.249966 32.000000
v -6.050034 0.300000 31.949966
v -7.949966 0.300000 28.050034
v -6.050034 0.300000 28.050034
v -6.050034 0.300000 32.050034
v -6.000000 0.249966 32.000000
v -7.949966 0.300000 32.050034
v -6.050034 0.300000 35.949966
v -6.000000 0.249966 36.000000
v -8.000000 0.249966 36.000000
v -7.949966 0.300000 35.949966
v 6.000000 -0.000000 40.000000
v 8.000000 -0.000000 40.000000
v 6.000000 -0.000000 36.000000
v 8.000000 -0.000000 24.000000
v 6.000000 -0.000000 20.000000
v 6.000000 -0.000000 24.000000
v 6.000000 -0.000000 28.000000
v 8.000000 -0.000000 32.000000
v 8.000000 -0.000000 28.000000
v 6.000000 -0.000000 32.000000
v 8.000000 -0.000000 36.000000
v 6.050034 0.300000 39.949966
v 6.000000 0.249966 40.000000
v 7.949966 0.300000 39.949966
v 8.000000 0.249966 40.000000
v 6.050034 0.300000 36.050034
v 6.050034 0.300000 23.949966
v 7.949966 0.300000 23.949966
v 8.000000 0.249966 24.000000
v 7.949966 0.300000 36.050034
v 6.050034 0.300000 20.050034
v 7.949966 0.300000 20.050034
v 7.949966 0.300000 24.050034
v 6.050034 0.300000 24.050034
v 6.000000 0.249966 24.000000
v 7.949966 0.300000 27.949966
v 6.000000 0.249966 28.000000
v 6.050034 0.300000 27.949966
v 6.050034 0.300000 31.949966
v 6.000000 0.249966 32.000000
v 7.949966 0.300000 31.949966
v 8.000000 0.249966 32.000000
v 6.050034 0.300000 28.050034
v 8.000000 0.249966 28.000000
v 7.949966 0.300000 28.050034
v 7.949966 0.300000 32.050034
v 6.050034 0.300000 32.050034
v 7.949966 0.300000 35.949966
v 8.000000 0.249966 36.000000
v 6.000000 0.249966 36.000000
v 6.050034 0.300000 35.949966
v -6.000000 -0.000000 16.000000
v -8.000000 -0.000000 0.000000
v -6.000000 -0.000000 4.000000
v -8.000000 -0.000000 4.000000
v -6.000000 -0.000000 8.000000
v -8.000000 -0.000000 8.000000
v -8.000000 -0.000000 12.000000
v -6.000000 -0.000000 12.000000
v -8.000000 -0.000000 16.000000
v -7.949966 0.300000 19.949966
v -6.050034 0.300000 19.949966
v -7.949966 0.300000 16.050034
v -7.949966 0.300000 3.949966
v -8.000000 0.249966 4.000000
v -6.050034 0.300000 3.949966
v -6.000000 0.249966 4.000000
v -6.050034 0.300000 16.050034
v -7.949966 0.300000 0.050034
v -8.000000 0.249966 0.000000
v -6.050034 0.300000 0.050034
v -6.050034 0.300000 4.050034
v -7.949966 0.300000 4.050034
v -6.050034 0.300000 7.949966
v -6.000000 0.249966 8.000000
v -8.000000 0.249966 8.000000
v -7.949966 0.300000 7.949966
v -7.949966 0.300000 11.949966
v -8.000000 0.249966 12.000000
v -6.050034 0.300000 11.949966
v -7.949966 0.300000 8.050034
v -6.050034 0.300000 8.050034
v -6.050034 0.300000 12.050034
v -6.000000 0.249966 12.000000
v -7.949966 0.300000 12.050034
v -6.050034 0.300000 15.949966
v -6.000000 0.249966 16.000000
v -8.000000 0.249966 16.000000
v -7.949966 0.300000 15.949966
v 8.000000 -0.000000 20.000000
v 6.000000 -0.000000 16.000000
v 8.000000 -0.000000 4.000000
v 8.000000 -0.000000 0.000000
v 6.000000 -0.000000 4.000000
v 6.000000 -0.000000 8.000000
v 8.000000 -0.000000 12.000000
v 8.000000 -0.000000 8.000000
v 6.000000 -0.000000 12.000000
v 8.000000 -0.000000 16.000000
v 6.050034 0.300000 19.949966
v 6.000000 0.249966 20.000000
v 7.949966 0.300000 19.949966
v 8.000000 0.249966 20.000000
v 6.050034 0.300000 16.050034
v 6.050034 0.300000 3.949966
v 7.949966 0.300000 3.949966
v 8.000000 0.249966 4.000000
v 7.949966 0.300000 16.050034
v 6.050034 0.300000 0.050034
v 8.000000 0.249966 0.000000
v 7.949966 0.300000 0.050034
v 7.949966 0.300000 4.050034
v 6.050034 0.300000 4.050034
v 6.000000 0.249966 4.000000
v 7.949966 0.300000 7.949966
v 6.000000 0.249966 8.000000
v 6.050034 0.300000 7.949966
v 6.050034 0.300000 11.949966
v 6.000000 0.249966 12.000000
v 7.949966 0.300000 11.949966
v 8.000000 0.249966 12.000000
v 6.050034 0.300000 8.050034
v 8.000000 0.249966 8.000000
v 7.949966 0.300000 8.050034
v 7.949966 0.300000 12.050034
v 6.050034 0.300000 12.050034
v 7.949966 0.300000 15.949966
v 8.000000 0.249966 16.000000
v 6.000000 0.249966 16.000000
v 6.050034 0.300000 15.949966
v -6.000000 -0.000000 0.000000
v -6.000000 -0.000000 -4.000000
v -8.000000 -0.000000 -20.000000
v -6.000000 -0.000000 -20.000000
v -6.000000 -0.000000 -16.000000
v -8.000000 -0.000000 -16.000000
v -6.000000 -0.000000 -12.000000
v -8.000000 -0.000000 -12.000000
v -8.000000 -0.000000 -8.000000
v -6.000000 -0.000000 -8.000000
v -8.000000 -0.000000 -4.000000
v -7.949966 0.300000 -0.050034
v -6.050034 0.300000 -0.050034
v -6.000000 0.249966 0.000000
v -7.949966 0.300000 -3.949966
v -7.949966 0.300000 -16.050034
v -8.000000 0.249966 -16.000000
v -6.050034 0.300000 -16.050034
v -6.000000 0.249966 -16.000000
v -6.050034 0.300000 -3.949966
v -7.949966 0.300000 -19.949966
v -8.000000 0.249966 -20.000000
v -6.000000 0.249966 -20.000000
v -6.050034 0.300000 -19.949966
v -6.050034 0.300000 -15.949966
v -7.949966 0.300000 -15.949966
v -6.050034 0.300000 -12.050034
v -6.000000 0.249966 -12.000000
v -8.000000 0.249966 -12.000000
v -7.949966 0.300000 -12.050034
v -7.949966 0.300000 -8.050034
v -8.000000 0.249966 -8.000000
v -6.050034 0.300000 -8.050034
v -7.949966 0.300000 -11.949966
v -6.050034 0.300000 -11.949966
v -6.050034 0.300000 -7.949966
v -6.000000 0.249966 -8.000000
v -7.949966 0.300000 -7.949966
v -6.050034 0.300000 -4.050034
v -6.000000 0.249966 -4.000000
v -8.000000 0.249966 -4.000000
v -7.949966 0.300000 -4.050034
v 6.000000 -0.000000 0.000000
v 6.000000 -0.000000 -4.000000
v 8.000000 -0.000000 -16.000000
v 6.000000 -0.000000 -20.000000
v 6.000000 -0.000000 -16.000000
v 6.000000 -0.000000 -12.000000
v 8.000000 -0.000000 -8.000000
v 8.000000 -0.000000 -12.000000
v 6.000000 -0.000000 -8.000000
v 8.000000 -0.000000 -4.000000
v 6.050034 0.300000 -0.050034
v 6.000000 0.249966 0.000000
v 7.949966 0.300000 -0.050034
v 6.050034 0.300000 -3.949966
v 6.050034 0.300000 -16.050034
v 7.949966 0.300000 -16.050034
v 8.000000 0.249966 -16.000000
v 7.949966 0.300000 -3.949966
v 6.050034 0.300000 -19.949966
v 7.949966 0.300000 -19.949966
v 7.949966 0.300000 -15.949966
v 6.050034 0.300000 -15.949966
v 6.000000 0.249966 -16.000000
v 7.949966 0.300000 -12.050034
v 6.000000 0.249966 -12.000000
v 6.050034 0.300000 -12.050034
v 6.050034 0.300000 -8.050034
v 6.000000 0.249966 -8.000000
v 7.949966 0.300000 -8.050034
v 8.000000 0.249966 -8.000000
v 6.050034 0.300000 -11.949966
v 8.000000 0.249966 -12.000000
v 7.949966 0.300000 -11.949966
v 7.949966 0.300000 -7.949966
v 6.050034 0.300000 -7.949966
v 7.949966 0.300000 -4.050034
v 8.000000 0.249966 -4.000000
v 6.000000 0.249966 -4.000000
v 6.050034 0.300000 -4.050034
v -6.000000 -0.000000 -24.000000
v -8.000000 -0.000000 -40.000000
v -6.000000 -0.000000 -40.000000
v -6.000000 -0.000000 -36.000000
v -8.000000 -0.000000 -36.000000
v -6.000000 -0.000000 -32.000000
v -8.000000 -0.000000 -32.000000
v -8.000000 -0.000000 -28.000000
v -6.000000 -0.000000 -28.000000
v -8.000000 -0.000000 -24.000000
v -7.949966 0.300000 -20.050034
v -6.050034 0.300000 -20.050034
v -7.949966 0.300000 -23.949966
v -7.949966 0.300000 -36.050034
v -8.000000 0.249966 -36.000000
v -6.050034 0.300000 -36.050034
v -6.000000 0.249966 -36.000000
v -6.050034 0.300000 -23.949966
v -7.949966 0.300000 -39.949966
v -8.000000 0.249966 -40.000000
v -6.000000 0.249966 -40.000000
v -6.050034 0.300000 -39.949966
v -6.050034 0.300000 -35.949966
v -7.949966 0.300000 -35.949966
v -6.050034 0.300000 -32.050034
v -6.000000 0.249966 -32.000000
v -8.000000 0.249966 -32.000000
v -7.949966 0.300000 -32.050034
v -7.949966 0.300000 -28.050034
v -8.000000 0.249966 -28.000000
v -6.050034 0.300000 -28.050034
v -7.949966 0.300000 -31.949966
v -6.050034 0.300000 -31.949966
v -6.050034 0.300000 -27.949966
v -6.000000 0.249966 -28.000000
v -7.949966 0.300000 -27.949966
v -6.050034 0.300000 -24.050034
v -6.000000 0.249966 -24.000000
v -8.000000 0.249966 -24.000000
v -7.949966 0.300000 -24.050034
v 8.000000 -0.000000 -20.000000
v 6.000000 -0.000000 -24.000000
v 8.000000 -0.000000 -36.000000
v 6.000000 -0.000000 -40.000000
v 8.000000 -0.000000 -40.000000
v 6.000000 -0.000000 -36.000000
v 6.000000 -0.000000 -32.000000
v 8.000000 -0.000000 -28.000000
v 8.000000 -0.000000 -32.000000
v 6.000000 -0.000000 -28.000000
v 8.000000 -0.000000 -24.000000
v 6.050034 0.300000 -20.050034
v 6.000000 0.249966 -20.000000
v 7.949966 0.300000 -20.050034
v 8.000000 0.249966 -20.000000
v 6.050034 0.300000 -23.949966
v 6.050034 0.300000 -36.050034
v 7.949966 0.300000 -36.050034
v 8.000000 0.249966 -36.000000
v 7.949966 0.300000 -23.949966
v 6.050034 0.300000 -39.949966
v 6.000000 0.249966 -40.000000
v 8.000000 0.249966 -40.000000
v 7.949966 0.300000 -39.949966
v 7.949966 0.300000 -35.949966
v 6.050034 0.300000 -35.949966
v 6.000000 0.249966 -36.000000
v 7.949966 0.300000 -32.050034
v 6.000000 0.249966 -32.000000
v 6.050034 0.300000 -32.050034
v 6.050034 0.300000 -28.050034
v 6.000000 0.249966 -28.000000
v 7.949966 0.300000 -28.050034
v 8.000000 0.249966 -28.000000
v 6.050034 0.300000 -31.949966
v 8.000000 0.249966 -32.000000
v 7.949966 0.300000 -31.949966
v 7.949966 0.300000 -27.949966
v 6.050034 0.300000 -27.949966
v 7.949966 0.300000 -24.050034
v 8.000000 0.249966 -24.000000
v 6.000000 0.249966 -24.000000
v 6.050034 0.300000 -24.050034
vn -0.0000 1.0000 -0.0000
vn 1.0000 -0.0000 -0.0000
vn -1.0000 -0.0000 -0.0000
vn -0.0000 -0.0000 1.0000
vn 0.7071 0.7071 -0.0000
vn -0.0000 0.7071 0.7071
vn -0.7071 0.7071 -0.0000
vn -0.0000 0.7071 -0.7071
vn -0.0000 -0.0000 -1.0000
vt 0.163434 0.300207
vt 0.027059 0.300207
vt 0.027059 0.029588
vt 0.163434 0.029588
vt 0.186777 0.300207
vt 0.169443 0.300207
vt 0.169443 0.029588
vt 0.186777 0.029588
vt 0.003716 0.029588
vt 0.021050 0.029588
vt 0.021050 0.300207
vt 0.003716 0.300207
vt 0.163434 0.006622
vt 0.163434 0.023676
vt 0.027059 0.023676
vt 0.027059 0.006622
vt 0.027059 0.323173
vt 0.027059 0.306120
vt 0.163434 0.306120
vt 0.163434 0.323173
s 0
f 27/1/1 28/2/1 32/3/1 29/4/1
f 22/1/1 17/2/1 13/3/1 15/4/1
f 3/5/2 42/6/2 16/7/2 2/8/2
f 9/9/3 31/10/3 19/11/3 7/12/3
f 10/13/3 34/14/3 31/15/3 9/16/3
f 37/2/1 36/3/1 33/4/1 35/1/1
f 8/17/2 30/18/2 39/19/2 11/20/2
f 11/13/2 39/14/2 42/15/2 3/16/2
f 26/4/1 23/3/1 18/2/1 20/1/1
f 5/8/2 25/7/2 21/6/2 6/5/2
f 2/13/4 16/14/4 14/15/4 1/16/4
f 38/4/1 40/1/1 44/2/1 41/3/1
f 12/17/3 43/18/3 34/19/3 10/20/3
f 6/5/2 21/6/2 30/7/2 8/8/2
f 7/12/3 19/11/3 24/10/3 4/9/3
f 22/1/5 15/4/5 16/7/5 42/6/5
f 15/4/6 13/3/6 14/15/6 16/14/6
f 13/3/7 17/2/7 43/11/7 14/10/7
f 26/4/5 20/1/5 21/6/5 25/7/5
f 20/1/6 18/2/6 19/18/6 21/19/6
f 18/2/7 23/3/7 24/10/7 19/11/7
f 23/3/8 26/4/8 25/14/8 24/15/8
f 17/2/8 22/1/8 42/19/8 43/18/8
f 28/2/8 27/1/8 21/19/8 19/18/8
f 32/3/7 28/2/7 19/11/7 31/10/7
f 29/4/6 32/3/6 31/15/6 30/14/6
f 27/1/5 29/4/5 30/7/5 21/6/5
f 37/2/5 35/1/5 39/19/5 30/18/5
f 35/1/6 33/4/6 34/7/6 39/6/6
f 33/4/7 36/3/7 31/15/7 34/14/7
f 36/3/8 37/2/8 30/11/8 31/10/8
f 40/1/8 38/4/8 39/7/8 34/6/8
f 44/2/7 40/1/7 34/19/7 43/18/7
f 41/3/6 44/2/6 43/11/6 42/10/6
f 38/4/5 41/3/5 42/15/5 39/14/5
f 1/9/3 14/10/3 43/11/3 12/12/3
f 67/1/1 68/2/1 72/3/1 70/4/1
f 64/1/1 60/2/1 56/3/1 58/4/1
f 55/5/2 83/6/2 59/7/2 46/8/2
f 51/9/3 71/10/3 69/11/3 50/12/3
f 54/13/3 74/14/3 71/15/3 51/16/3
f 79/2/1 77/3/1 73/4/1 75/1/1
f 53/17/2 78/18/2 76/19/2 52/20/2
f 52/13/2 76/14/2 83/15/2 55/16/2
f 66/4/1 65/3/1 61/2/1 62/1/1
f 124/8/2 137/7/2 63/6/2 48/5/2
f 46/13/4 59/14/4 57/15/4 45/16/4
f 80/4/1 81/1/1 85/2/1 82/3/1
f 47/17/3 84/18/3 74/19/3 54/20/3
f 48/5/2 63/6/2 78/7/2 53/8/2
f 50/12/3 69/11/3 135/10/3 49/9/3
f 64/1/5 58/4/5 59/7/5 83/6/5
f 58/4/6 56/3/6 57/15/6 59/14/6
f 56/3/7 60/2/7 84/11/7 57/10/7
f 66/4/5 62/1/5 63/6/5 137/7/5
f 62/1/6 61/2/6 69/18/6 63/19/6
f 61/2/7 65/3/7 135/10/7 69/11/7
f 65/3/8 66/4/8 137/14/8 135/15/8
f 60/2/8 64/1/8 83/19/8 84/18/8
f 68/2/8 67/1/8 63/19/8 69/18/8
f 72/3/7 68/2/7 69/11/7 71/10/7
f 70/4/6 72/3/6 71/15/6 78/14/6
f 67/1/5 70/4/5 78/7/5 63/6/5
f 79/2/5 75/1/5 76/19/5 78/18/5
f 75/1/6 73/4/6 74/7/6 76/6/6
f 73/4/7 77/3/7 71/15/7 74/14/7
f 77/3/8 79/2/8 78/11/8 71/10/8
f 81/1/8 80/4/8 76/7/8 74/6/8
f 85/2/7 81/1/7 74/19/7 84/18/7
f 82/3/6 85/2/6 84/11/6 83/10/6
f 80/4/5 82/3/5 83/15/5 76/14/5
f 45/9/3 57/10/3 84/11/3 47/12/3
f 106/1/1 107/2/1 111/3/1 108/4/1
f 102/1/1 97/2/1 95/3/1 96/4/1
f 86/5/2 121/6/2 25/7/2 5/8/2
f 91/9/3 110/10/3 99/11/3 89/12/3
f 92/13/3 113/14/3 110/15/3 91/16/3
f 116/2/1 115/3/1 112/4/1 114/1/1
f 90/17/2 109/18/2 118/19/2 93/20/2
f 93/13/2 118/14/2 121/15/2 86/16/2
f 105/4/1 103/3/1 98/2/1 100/1/1
f 165/8/2 178/7/2 101/6/2 88/5/2
f 117/4/1 119/1/1 123/2/1 120/3/1
f 94/17/3 122/18/3 113/19/3 92/20/3
f 88/5/2 101/6/2 109/7/2 90/8/2
f 89/12/3 99/11/3 104/10/3 87/9/3
f 102/1/5 96/4/5 25/7/5 121/6/5
f 96/4/6 95/3/6 24/15/6 25/14/6
f 95/3/7 97/2/7 122/11/7 24/10/7
f 105/4/5 100/1/5 101/6/5 178/7/5
f 100/1/6 98/2/6 99/18/6 101/19/6
f 98/2/7 103/3/7 104/10/7 99/11/7
f 103/3/8 105/4/8 178/14/8 104/15/8
f 97/2/8 102/1/8 121/19/8 122/18/8
f 107/2/8 106/1/8 101/19/8 99/18/8
f 111/3/7 107/2/7 99/11/7 110/10/7
f 108/4/6 111/3/6 110/15/6 109/14/6
f 106/1/5 108/4/5 109/7/5 101/6/5
f 116/2/5 114/1/5 118/19/5 109/18/5
f 114/1/6 112/4/6 113/7/6 118/6/6
f 112/4/7 115/3/7 110/15/7 113/14/7
f 115/3/8 116/2/8 109/11/8 110/10/8
f 119/1/8 117/4/8 118/7/8 113/6/8
f 123/2/7 119/1/7 113/19/7 122/18/7
f 120/3/6 123/2/6 122/11/6 121/10/6
f 117/4/5 120/3/5 121/15/5 118/14/5
f 4/9/3 24/10/3 122/11/3 94/12/3
f 146/1/1 147/2/1 151/3/1 149/4/1
f 142/1/1 138/2/1 134/3/1 136/4/1
f 133/5/2 162/6/2 137/7/2 124/8/2
f 129/9/3 150/10/3 148/11/3 128/12/3
f 132/13/3 153/14/3 150/15/3 129/16/3
f 158/2/1 156/3/1 152/4/1 154/1/1
f 131/17/2 157/18/2 155/19/2 130/20/2
f 130/13/2 155/14/2 162/15/2 133/16/2
f 145/4/1 143/3/1 139/2/1 140/1/1
f 127/8/2 144/7/2 141/6/2 126/5/2
f 159/4/1 160/1/1 164/2/1 161/3/1
f 125/17/3 163/18/3 153/19/3 132/20/3
f 126/5/2 141/6/2 157/7/2 131/8/2
f 128/12/3 148/11/3 218/10/3 207/9/3
f 142/1/5 136/4/5 137/7/5 162/6/5
f 136/4/6 134/3/6 135/15/6 137/14/6
f 134/3/7 138/2/7 163/11/7 135/10/7
f 145/4/5 140/1/5 141/6/5 144/7/5
f 140/1/6 139/2/6 148/18/6 141/19/6
f 139/2/7 143/3/7 218/10/7 148/11/7
f 143/3/8 145/4/8 144/14/8 218/15/8
f 138/2/8 142/1/8 162/19/8 163/18/8
f 147/2/8 146/1/8 141/19/8 148/18/8
f 151/3/7 147/2/7 148/11/7 150/10/7
f 149/4/6 151/3/6 150/15/6 157/14/6
f 146/1/5 149/4/5 157/7/5 141/6/5
f 158/2/5 154/1/5 155/19/5 157/18/5
f 154/1/6 152/4/6 153/7/6 155/6/6
f 152/4/7 156/3/7 150/15/7 153/14/7
f 156/3/8 158/2/8 157/11/8 150/10/8
f 160/1/8 159/4/8 155/7/8 153/6/8
f 164/2/7 160/1/7 153/19/7 163/18/7
f 161/3/6 164/2/6 163/11/6 162/10/6
f 159/4/5 161/3/5 162/15/5 155/14/5
f 49/9/3 135/10/3 163/11/3 125/12/3
f 189/1/1 190/2/1 194/3/1 191/4/1
f 184/1/1 179/2/1 176/3/1 177/4/1
f 166/5/2 204/6/2 178/7/2 165/8/2
f 172/9/3 193/10/3 181/11/3 170/12/3
f 173/13/3 196/14/3 193/15/3 172/16/3
f 199/2/1 198/3/1 195/4/1 197/1/1
f 171/17/2 192/18/2 201/19/2 174/20/2
f 174/13/2 201/14/2 204/15/2 166/16/2
f 188/4/1 185/3/1 180/2/1 182/1/1
f 168/8/2 187/7/2 183/6/2 169/5/2
f 200/4/1 202/1/1 206/2/1 203/3/1
f 175/17/3 205/18/3 196/19/3 173/20/3
f 169/5/2 183/6/2 192/7/2 171/8/2
f 170/12/3 181/11/3 186/10/3 167/9/3
f 184/1/5 177/4/5 178/7/5 204/6/5
f 177/4/6 176/3/6 104/15/6 178/14/6
f 176/3/7 179/2/7 205/11/7 104/10/7
f 188/4/5 182/1/5 183/6/5 187/7/5
f 182/1/6 180/2/6 181/18/6 183/19/6
f 180/2/7 185/3/7 186/10/7 181/11/7
f 185/3/8 188/4/8 187/14/8 186/15/8
f 179/2/8 184/1/8 204/19/8 205/18/8
f 190/2/8 189/1/8 183/19/8 181/18/8
f 194/3/7 190/2/7 181/11/7 193/10/7
f 191/4/6 194/3/6 193/15/6 192/14/6
f 189/1/5 191/4/5 192/7/5 183/6/5
f 199/2/5 197/1/5 201/19/5 192/18/5
f 197/1/6 195/4/6 196/7/6 201/6/6
f 195/4/7 198/3/7 193/15/7 196/14/7
f 198/3/8 199/2/8 192/11/8 193/10/8
f 202/1/8 200/4/8 201/7/8 196/6/8
f 206/2/7 202/1/7 196/19/7 205/18/7
f 203/3/6 206/2/6 205/11/6 204/10/6
f 200/4/5 203/3/5 204/15/5 201/14/5
f 87/9/3 104/10/3 205/11/3 175/12/3
f 227/1/1 228/2/1 232/3/1 230/4/1
f 224/1/1 220/2/1 217/3/1 219/4/1
f 216/5/2 243/6/2 144/7/2 127/8/2
f 212/9/3 231/10/3 229/11/3 211/12/3
f 215/13/3 234/14/3 231/15/3 212/16/3
f 239/2/1 237/3/1 233/4/1 235/1/1
f 214/17/2 238/18/2 236/19/2 213/20/2
f 213/13/2 236/14/2 243/15/2 216/16/2
f 226/4/1 225/3/1 221/2/1 222/1/1
f 286/8/2 300/7/2 223/6/2 209/5/2
f 240/4/1 241/1/1 245/2/1 242/3/1
f 208/17/3 244/18/3 234/19/3 215/20/3
f 209/5/2 223/6/2 238/7/2 214/8/2
f 211/12/3 229/11/3 298/10/3 210/9/3
f 224/1/5 219/4/5 144/7/5 243/6/5
f 219/4/6 217/3/6 218/15/6 144/14/6
f 217/3/7 220/2/7 244/11/7 218/10/7
f 226/4/5 222/1/5 223/6/5 300/7/5
f 222/1/6 221/2/6 229/18/6 223/19/6
f 221/2/7 225/3/7 298/10/7 229/11/7
f 225/3/8 226/4/8 300/14/8 298/15/8
f 220/2/8 224/1/8 243/19/8 244/18/8
f 228/2/8 227/1/8 223/19/8 229/18/8
f 232/3/7 228/2/7 229/11/7 231/10/7
f 230/4/6 232/3/6 231/15/6 238/14/6
f 227/1/5 230/4/5 238/7/5 223/6/5
f 239/2/5 235/1/5 236/19/5 238/18/5
f 235/1/6 233/4/6 234/7/6 236/6/6
f 233/4/7 237/3/7 231/15/7 234/14/7
f 237/3/8 239/2/8 238/11/8 231/10/8
f 241/1/8 240/4/8 236/7/8 234/6/8
f 245/2/7 241/1/7 234/19/7 244/18/7
f 242/3/6 245/2/6 244/11/6 243/10/6
f 240/4/5 242/3/5 243/15/5 236/14/5
f 207/9/3 218/10/3 244/11/3 208/12/3
f 268/1/1 269/2/1 273/3/1 270/4/1
f 263/1/1 258/2/1 256/3/1 257/4/1
f 246/5/2 283/6/2 187/7/2 168/8/2
f 252/9/3 272/10/3 260/11/3 250/12/3
f 253/13/3 275/14/3 272/15/3 252/16/3
f 278/2/1 277/3/1 274/4/1 276/1/1
f 251/17/2 271/18/2 280/19/2 254/20/2
f 254/13/2 280/14/2 283/15/2 246/16/2
f 267/4/1 264/3/1 259/2/1 261/1/1
f 248/8/2 266/7/2 262/6/2 249/5/2
f 279/4/1 281/1/1 285/2/1 282/3/1
f 255/17/3 284/18/3 275/19/3 253/20/3
f 249/5/2 262/6/2 271/7/2 251/8/2
f 250/12/3 260/11/3 265/10/3 247/9/3
f 263/1/5 257/4/5 187/7/5 283/6/5
f 257/4/6 256/3/6 186/15/6 187/14/6
f 256/3/7 258/2/7 284/11/7 186/10/7
f 267/4/5 261/1/5 262/6/5 266/7/5
f 261/1/6 259/2/6 260/18/6 262/19/6
f 259/2/7 264/3/7 265/10/7 260/11/7
f 264/3/8 267/4/8 266/14/8 265/15/8
f 258/2/8 263/1/8 283/19/8 284/18/8
f 269/2/8 268/1/8 262/19/8 260/18/8
f 273/3/7 269/2/7 260/11/7 272/10/7
f 270/4/6 273/3/6 272/15/6 271/14/6
f 268/1/5 270/4/5 271/7/5 262/6/5
f 278/2/5 276/1/5 280/19/5 271/18/5
f 276/1/6 274/4/6 275/7/6 280/6/6
f 274/4/7 277/3/7 272/15/7 275/14/7
f 277/3/8 278/2/8 271/11/8 272/10/8
f 266/7/9 248/8/9 247/9/9 265/10/9
f 281/1/8 279/4/8 280/7/8 275/6/8
f 285/2/7 281/1/7 275/19/7 284/18/7
f 282/3/6 285/2/6 284/11/6 283/10/6
f 279/4/5 282/3/5 283/15/5 280/14/5
f 167/9/3 186/10/3 284/11/3 255/12/3
f 310/1/1 311/2/1 315/3/1 313/4/1
f 305/1/1 301/2/1 297/3/1 299/4/1
f 296/5/2 326/6/2 300/7/2 286/8/2
f 292/9/3 314/10/3 312/11/3 291/12/3
f 295/13/3 317/14/3 314/15/3 292/16/3
f 322/2/1 320/3/1 316/4/1 318/1/1
f 294/17/2 321/18/2 319/19/2 293/20/2
f 293/13/2 319/14/2 326/15/2 296/16/2
f 309/4/1 306/3/1 302/2/1 303/1/1
f 290/8/2 308/7/2 304/6/2 288/5/2
f 323/4/1 324/1/1 328/2/1 325/3/1
f 287/17/3 327/18/3 317/19/3 295/20/3
f 288/5/2 304/6/2 321/7/2 294/8/2
f 291/12/3 312/11/3 307/10/3 289/9/3
f 305/1/5 299/4/5 300/7/5 326/6/5
f 299/4/6 297/3/6 298/15/6 300/14/6
f 297/3/7 301/2/7 327/11/7 298/10/7
f 309/4/5 303/1/5 304/6/5 308/7/5
f 303/1/6 302/2/6 312/18/6 304/19/6
f 302/2/7 306/3/7 307/10/7 312/11/7
f 306/3/8 309/4/8 308/14/8 307/15/8
f 301/2/8 305/1/8 326/19/8 327/18/8
f 311/2/8 310/1/8 304/19/8 312/18/8
f 315/3/7 311/2/7 312/11/7 314/10/7
f 313/4/6 315/3/6 314/15/6 321/14/6
f 310/1/5 313/4/5 321/7/5 304/6/5
f 322/2/5 318/1/5 319/19/5 321/18/5
f 318/1/6 316/4/6 317/7/6 319/6/6
f 316/4/7 320/3/7 314/15/7 317/14/7
f 320/3/8 322/2/8 321/11/8 314/10/8
f 308/7/9 290/8/9 289/9/9 307/10/9
f 324/1/8 323/4/8 319/7/8 317/6/8
f 328/2/7 324/1/7 317/19/7 327/18/7
f 325/3/6 328/2/6 327/11/6 326/10/6
f 323/4/5 325/3/5 326/15/5 319/14/5
f 210/9/3 298/10/3 327/11/3 287/12/3
