# Blender 4.4.3
# www.blender.org
o SM_Bent_Paper_V1.0
v -0.300000 0.052062 0.200000
v -0.300000 0.056379 0.200000
v -0.300000 0.031503 -0.200000
v -0.300000 0.035820 -0.200000
v 0.300000 0.018851 0.200000
v 0.300000 0.023169 0.200000
v 0.300000 0.037829 -0.200000
v 0.300000 0.042146 -0.200000
v 0.000000 -0.000126 -0.200000
v 0.000000 0.004191 -0.200000
v 0.000000 0.020433 0.200000
v 0.000000 0.024750 0.200000
vn -1.0000 -0.0000 -0.0000
vn -0.0000 -0.0000 -1.0000
vn 1.0000 -0.0000 -0.0000
vn -0.0000 -0.0000 1.0000
vn 0.0605 -0.9982 0.0020
vn 0.1047 0.9932 -0.0510
vn -0.0605 0.9982 -0.0020
vn -0.1047 -0.9932 0.0510
vt 0.392428 0.412196
vt 0.487753 0.412196
vt 0.487753 0.365840
vt 0.487753 0.319483
vt 0.392428 0.319483
vt 0.392428 0.365840
s 0
f 1/1/1 2/1/1 4/2/1 3/2/1
f 9/3/2 10/3/2 8/4/2 7/4/2
f 7/4/3 8/4/3 6/5/3 5/5/3
f 11/6/4 12/6/4 2/1/4 1/1/4
f 9/3/5 7/4/5 5/5/5 11/6/5
f 10/3/6 4/2/6 2/1/6 12/6/6
f 8/4/7 10/3/7 12/6/7 6/5/7
f 3/2/8 9/3/8 11/6/8 1/1/8
f 5/5/4 6/5/4 12/6/4 11/6/4
f 3/2/2 4/2/2 10/3/2 9/3/2
