# Blender 4.4.3
# www.blender.org
o SM_2DLrg_Tree_V1.0
v -0.000338 0.019286 -0.125829
v 0.101033 0.019286 -0.089088
v 0.143022 0.019286 -0.000389
v 0.101033 0.019286 0.088311
v -0.000338 0.019286 0.125051
v -0.101709 0.019286 0.088311
v -0.143698 0.019286 -0.000389
v -0.101709 0.019286 -0.089088
v 0.101033 1.708596 -0.089088
v 0.143022 1.708596 -0.000389
v 0.101033 1.708596 0.088311
v -0.101709 1.708596 0.088311
v 0.001869 1.308064 -1.179832
v 0.837413 1.308064 -0.833739
v 1.183507 1.308064 0.001805
v 0.837413 1.308064 0.837349
v 0.001869 1.308064 1.183442
v -0.833674 1.308064 0.837349
v -1.179768 1.308064 0.001805
v -0.833674 1.308064 -0.833739
v 0.101033 4.127262 -0.089088
v 0.143022 4.127262 -0.000389
v 0.101033 4.127262 0.088311
v -0.101709 4.127262 0.088311
v 0.001870 4.238476 -1.025656
v 0.728394 4.238476 -0.724720
v 1.029330 4.238476 0.001805
v 0.728394 4.238476 0.728330
v 0.001870 4.238476 1.029266
v -0.724655 4.238476 0.728330
v -1.025592 4.238476 0.001805
v -0.724655 4.238476 -0.724720
v -0.000338 1.708596 -0.125829
v 0.001869 1.308064 -1.179832
v -0.000338 4.127262 -0.125829
v 0.001870 4.238476 -1.025656
v -0.000330 5.656331 -0.000395
v 0.837413 1.308064 -0.833739
v 0.728394 4.238476 -0.724720
v -0.000317 4.608681 -0.000371
v -0.000338 1.708596 0.125051
v -0.143698 1.708596 -0.000389
v -0.101046 1.708596 -0.088508
v 1.183507 1.308064 0.001805
v 0.837413 1.308064 0.837349
v 0.001869 1.308064 1.183442
v -0.833674 1.308064 0.837349
v -1.179768 1.308064 0.001805
v -0.833674 1.308064 -0.833739
v -0.000338 4.127262 0.125051
v -0.143698 4.127262 -0.000389
v -0.101046 4.127262 -0.088508
v 1.029330 4.238476 0.001805
v 0.728394 4.238476 0.728330
v 0.001870 4.238476 1.029266
v -0.724655 4.238476 0.728330
v -1.025592 4.238476 0.001805
v -0.724655 4.238476 -0.724720
v -0.108408 2.756706 0.093767
v -0.938480 2.756706 0.942252
v -0.938480 2.756706 0.942252
v -1.328542 2.756706 0.001829
v -1.328542 2.756706 0.001829
v -0.153099 2.756706 -0.000638
v -0.939223 2.756706 -0.939338
v -0.939223 2.756706 -0.939338
v -0.107702 2.756706 -0.094427
v 0.941933 2.756706 0.941818
v 0.107377 2.756706 0.093767
v 0.941933 2.756706 0.941818
v 0.001944 2.756706 1.332200
v 0.001944 2.756706 1.332200
v -0.000516 2.756706 0.132872
v 1.329288 2.756706 0.001829
v 0.940518 2.756706 -0.936745
v -0.000516 2.756706 -0.134148
v 0.001944 2.756706 -1.325516
v 0.940518 2.756706 -0.936745
v 0.107377 2.756706 -0.095044
v 0.001944 2.756706 -1.325516
v 1.329288 2.756706 0.001829
v 0.152067 2.756706 -0.000638
vn 0.3310 0.2380 -0.9132
vn 0.8728 0.2599 -0.4132
vn 0.8728 0.2599 0.4132
vn 0.3310 0.2379 0.9132
vn -0.3310 0.2379 0.9132
vn -0.8728 0.2599 0.4132
vn -0.8694 0.2589 -0.4208
vn -0.3376 0.2374 -0.9109
vn -0.3441 0.0002 -0.9389
vn -0.9020 0.0003 -0.4318
vn -0.9038 -0.0000 0.4279
vn -0.3407 -0.0000 0.9402
vn 0.3407 -0.0000 0.9402
vn 0.9038 -0.0000 0.4279
vn 0.9038 -0.0000 -0.4279
vn 0.3407 -0.0000 -0.9402
vn 0.7064 0.0058 0.7077
vn -0.0022 0.0002 -1.0000
vn -1.0000 0.0003 0.0022
vn -0.0022 -0.0002 1.0000
vn -1.0000 -0.0002 -0.0020
vn 0.7133 -0.0011 -0.7009
vn -0.7155 0.0016 -0.6986
vn -0.7133 -0.0012 0.7009
vn -0.7086 -0.0060 0.7056
vn -0.7108 0.0063 -0.7033
vn 0.7086 -0.0060 -0.7055
vn -1.0000 0.0002 -0.0022
vn -0.0022 -0.0003 1.0000
vn -1.0000 0.0002 0.0022
vn -0.0022 0.0003 -1.0000
vn -0.3475 -0.0075 -0.9377
vn -0.9001 -0.0082 -0.4357
vn -0.9038 -0.0080 0.4279
vn -0.3407 -0.0071 0.9401
vn 0.3407 -0.0070 0.9401
vn 0.9038 -0.0077 0.4279
vn 0.9038 -0.0079 -0.4279
vn 0.3407 -0.0074 -0.9401
vn 0.7111 0.0007 0.7031
vn 1.0000 0.0002 0.0020
vn 1.0000 -0.0002 0.0022
vn -0.7064 -0.0058 -0.7077
vn -0.7111 -0.0007 -0.7031
vn 0.0022 -0.0002 1.0000
vn 1.0000 -0.0003 -0.0022
vn 0.0022 0.0002 -1.0000
vn -0.7133 0.0011 0.7009
vn 0.7155 -0.0016 0.6986
vn 0.7133 0.0012 -0.7009
vn 0.7086 0.0060 -0.7056
vn 0.7108 -0.0063 0.7033
vn -0.7086 0.0060 0.7055
vn 0.0022 0.0003 -1.0000
vn 1.0000 -0.0002 -0.0022
vn 0.0022 -0.0003 1.0000
vn -0.7149 -0.0010 -0.6993
vn 0.0021 0.0002 1.0000
vn -0.9001 0.0063 -0.4357
vn -0.0021 -0.0002 -1.0000
vn -0.9038 0.0061 0.4279
vn -0.7128 -0.0007 0.7013
vn 0.7149 0.0010 0.6993
vn 0.7128 0.0007 -0.7013
vn 0.7128 -0.0008 -0.7013
vn 1.0000 0.0002 -0.0020
vn -1.0000 -0.0002 0.0020
vn -0.7128 0.0008 0.7013
vn -0.3407 0.0054 0.9401
vn 0.3407 0.0053 0.9401
vn 0.9038 0.0059 0.4279
vn 0.9038 0.0060 -0.4279
vn -0.0021 0.0002 1.0000
vn 0.3407 0.0057 -0.9401
vn -1.0000 0.0003 -0.0022
vn 0.7108 -0.0005 0.7034
vn 1.0000 -0.0003 0.0022
vn -0.3475 0.0057 -0.9377
vn -0.7108 0.0005 -0.7034
vn 0.0021 -0.0002 -1.0000
vt 0.200612 0.121161
vt 0.192648 0.067997
vt 0.235709 0.105221
vt 0.253880 0.061077
vt 0.224202 0.017090
vt 0.183208 0.011307
vt 0.149981 0.028553
vt 0.128565 0.067635
vt 0.145363 0.111854
vt 0.043926 0.024781
vt 0.043926 0.385578
vt 0.031338 0.385578
vt 0.031338 0.024781
vt 0.056513 0.024781
vt 0.056513 0.385578
vt 0.066804 0.024781
vt 0.066804 0.385578
vt 0.077095 0.024781
vt 0.077095 0.385578
vt 0.087386 0.024781
vt 0.087386 0.385578
vt 0.097676 0.024781
vt 0.097676 0.385578
vt 0.021048 0.024781
vt 0.021048 0.385578
vt 0.010757 0.385578
vt 0.010757 0.024781
vt 0.363204 0.506466
vt 0.479620 0.506466
vt 0.478204 0.816390
vt 0.125772 0.506726
vt 0.704326 0.506396
vt 0.704326 0.882454
vt 0.878836 0.506466
vt 0.704326 0.881147
vt 0.980643 0.770336
vt 0.704326 0.506396
vt 0.704326 0.882730
vt 0.704326 0.882276
vt 0.704326 0.882011
vt 0.363422 0.506466
vt 0.126659 0.506726
vt 0.704326 0.506396
vt 0.704326 0.880762
vt 0.704326 0.882135
vt 0.043926 0.665718
vt 0.031338 0.665718
vt 0.056513 0.665718
vt 0.066804 0.665718
vt 0.077095 0.665718
vt 0.087386 0.665718
vt 0.097676 0.665718
vt 0.021048 0.665718
vt 0.010757 0.665718
vt 0.980643 0.243706
vt 0.704326 0.132370
vt 0.478204 0.196541
vt 0.125772 0.506726
vt 0.704326 0.132030
vt 0.704326 0.131032
vt 0.704326 0.130750
vt 0.704326 0.131214
vt 0.704326 0.131486
vt 0.704326 0.130657
vt 0.980469 0.243185
vt 0.880115 0.506466
vt 0.056513 0.981558
vt 0.043926 0.981558
vt 0.980469 0.769747
vt 0.066804 0.981558
vt 0.077095 0.981558
vt 0.087386 0.981558
vt 0.097676 0.981558
vt 0.021048 0.981558
vt 0.010757 0.981558
vt 0.031338 0.981558
s 0
f 35/1/1 40/2/1 21/3/1
f 21/3/2 40/2/2 22/4/2
f 22/4/3 40/2/3 23/5/3
f 23/5/4 40/2/4 50/6/4
f 50/6/5 40/2/5 24/7/5
f 24/7/6 40/2/6 51/8/6
f 51/8/7 40/2/7 52/9/7
f 52/9/8 40/2/8 35/1/8
f 8/10/9 43/11/9 33/12/9 1/13/9
f 7/14/10 42/15/10 43/11/10 8/10/10
f 6/16/11 12/17/11 42/15/11 7/14/11
f 5/18/12 41/19/12 12/17/12 6/16/12
f 4/20/13 11/21/13 41/19/13 5/18/13
f 3/22/14 10/23/14 11/21/14 4/20/14
f 2/24/15 9/25/15 10/26/15 3/27/15
f 1/13/16 33/12/16 9/25/16 2/24/16
f 40/28/17 21/29/17 26/30/17 37/31/17
f 40/28/18 51/29/18 31/30/18 37/31/18
f 50/29/19 73/32/19 71/33/19 29/30/19
f 40/28/20 22/29/20 27/30/20 37/31/20
f 33/34/21 76/32/21 80/35/21 13/36/21
f 52/29/22 67/37/22 65/38/22 32/30/22
f 24/29/23 59/32/23 60/39/23 30/30/23
f 23/29/24 69/32/24 68/40/24 28/30/24
f 40/41/25 23/29/25 28/30/25 37/42/25
f 40/41/26 24/29/26 30/30/26 37/42/26
f 40/41/27 52/29/27 32/30/27 37/42/27
f 35/29/28 40/41/28 37/42/28 25/30/28
f 22/29/29 82/43/29 81/44/29 27/30/29
f 40/41/30 50/29/30 29/30/30 37/42/30
f 51/29/31 64/43/31 62/45/31 31/30/31
f 43/11/32 67/46/32 76/47/32 33/12/32
f 42/15/33 64/48/33 67/46/33 43/11/33
f 12/17/34 59/49/34 64/48/34 42/15/34
f 41/19/35 73/50/35 59/49/35 12/17/35
f 11/21/36 69/51/36 73/50/36 41/19/36
f 10/23/37 82/52/37 69/51/37 11/21/37
f 9/25/38 79/53/38 82/54/38 10/26/38
f 33/12/39 76/47/39 79/53/39 9/25/39
f 21/29/40 79/43/40 78/44/40 26/30/40
f 33/34/41 34/55/41 77/56/41 76/32/41
f 35/29/42 36/57/42 37/42/42 40/41/42
f 40/28/43 37/58/43 39/57/43 21/29/43
f 21/29/44 39/57/44 75/59/44 79/43/44
f 40/28/45 37/58/45 57/57/45 51/29/45
f 50/29/46 55/57/46 72/60/46 73/32/46
f 40/28/47 37/58/47 53/57/47 22/29/47
f 52/29/48 58/57/48 66/61/48 67/37/48
f 24/29/49 56/57/49 61/62/49 59/32/49
f 23/29/50 54/57/50 70/63/50 69/32/50
f 40/41/51 37/42/51 54/57/51 23/29/51
f 40/41/52 37/42/52 56/57/52 24/29/52
f 40/41/53 37/42/53 58/57/53 52/29/53
f 22/29/54 53/57/54 74/59/54 82/43/54
f 40/41/55 37/42/55 55/57/55 50/29/55
f 51/29/56 57/57/56 63/64/56 64/43/56
f 60/39/57 59/32/57 12/34/57 18/36/57
f 64/43/58 63/64/58 48/65/58 42/66/58
f 67/46/59 64/48/59 51/67/59 52/68/59
f 62/45/60 64/43/60 42/66/60 19/69/60
f 64/48/61 59/49/61 24/70/61 51/67/61
f 67/37/62 66/61/62 49/55/62 43/34/62
f 59/32/63 61/62/63 47/55/63 12/34/63
f 65/38/64 67/37/64 43/34/64 20/36/64
f 69/32/65 70/63/65 45/55/65 11/34/65
f 73/32/66 72/60/66 46/55/66 41/34/66
f 71/33/67 73/32/67 41/34/67 17/36/67
f 68/40/68 69/32/68 11/34/68 16/36/68
f 59/49/69 73/50/69 50/71/69 24/70/69
f 73/50/70 69/51/70 23/72/70 50/71/70
f 69/51/71 82/52/71 22/73/71 23/72/71
f 82/54/72 79/53/72 21/74/72 22/75/72
f 81/44/73 82/43/73 10/66/73 15/69/73
f 79/53/74 76/47/74 35/76/74 21/74/74
f 80/35/75 76/32/75 35/29/75 25/30/75
f 78/44/76 79/43/76 9/66/76 14/69/76
f 76/32/77 77/56/77 36/57/77 35/29/77
f 76/47/78 67/46/78 52/68/78 35/76/78
f 79/43/79 75/59/79 38/65/79 9/66/79
f 82/43/80 74/59/80 44/65/80 10/66/80
