# Blender 4.4.3
# www.blender.org
o SM_3DLrg_Tree_V1.0
v -0.030577 0.006802 -0.333983
v 0.261320 0.006802 -0.279804
v 0.281641 0.006802 -0.008307
v 0.160847 0.006802 0.355422
v -0.000026 0.006802 0.187898
v -0.399173 0.006802 0.239759
v -0.187949 0.006802 -0.000026
v -0.279997 0.006802 -0.225190
v 0.101345 4.101454 -0.101396
v 0.143334 4.101454 -0.000026
v 0.101345 4.101454 0.101345
v -0.101397 4.101454 0.101345
v -0.000026 4.101454 -0.143386
v -0.000026 4.101454 0.143334
v -0.143386 4.101454 -0.000026
v -0.100733 4.101454 -0.100733
v -0.000026 0.427095 0.143334
v -0.143386 0.427095 -0.000026
v -0.101349 0.427095 -0.101349
v -0.101397 0.427095 0.101345
v 0.101345 0.427095 0.101345
v -0.000026 0.427095 -0.143386
v 0.101345 0.427095 -0.101396
v 0.143334 0.427095 -0.000026
v -0.050711 0.427095 0.122340
v -0.050711 4.101454 0.122340
v -0.126369 0.006802 0.275972
v 0.050660 0.427095 -0.122391
v 0.050660 4.101454 -0.122391
v 0.084137 0.006802 -0.250602
v -0.014140 1.575514 0.017029
v 0.853845 3.501985 0.561812
v -0.409876 3.645298 0.972478
v -1.013853 3.496710 0.003766
v -0.214187 3.649970 -1.103136
v 0.943617 3.559063 -0.736300
v 0.051283 5.693048 0.543422
v -0.512974 5.480332 0.400129
v -0.299409 5.580256 -0.599123
v 0.327670 5.597642 -0.564930
v 0.699846 5.608037 0.017420
v 0.031172 6.218700 -0.219256
v -0.355147 2.417360 1.149494
v 1.037033 2.423557 0.714480
v 0.365421 3.294022 1.008159
v 1.077974 3.076889 -0.181848
v 1.051453 2.425005 -0.703169
v -1.132285 2.409507 -0.060458
v -0.811044 3.297424 0.624549
v -0.281823 2.579871 -1.247031
v -0.847252 3.371251 -0.705640
v 0.444973 3.412948 -1.104200
v 1.029555 4.657033 0.244840
v 1.149666 4.296156 -0.310434
v -0.013830 4.388098 0.939892
v 0.801441 4.370858 0.857177
v -0.972435 4.399578 0.347028
v -0.616213 4.616645 0.684224
v -0.263283 4.388650 -0.754005
v -0.924614 4.543131 -0.558679
v 0.809082 4.398333 -0.823442
v 0.009820 4.358236 -0.890922
v 0.525091 5.604551 0.069684
v -0.125831 5.697794 0.534407
v -0.556839 5.744681 -0.014376
v -0.044338 5.548069 -0.426072
v 0.537463 5.658727 -0.353495
v -0.291313 2.157696 1.043307
v -0.845670 2.106957 -0.160634
v -0.074379 2.004136 -0.738178
v 0.739866 2.026116 0.518597
v 0.738775 1.912013 -0.303184
v 0.394886 2.458760 -1.093350
v -0.669090 2.521291 -0.518521
v -0.727669 2.307981 0.797319
v 0.820860 2.389906 -0.038871
v 0.453361 2.522744 0.803180
vn -0.9611 0.2335 0.1472
vn -0.9239 -0.0000 0.3827
vn -0.1606 0.3868 0.9081
vn 0.3827 -0.0000 0.9239
vn 0.9239 -0.0000 0.3827
vn 0.9239 -0.0000 -0.3827
vn 0.3827 -0.0000 -0.9239
vn -0.3613 0.4042 -0.8403
vn -0.3866 0.0001 -0.9222
vn -0.0339 0.3356 -0.9414
vn 0.9200 0.3606 -0.1537
vn 0.8993 0.3037 0.3147
vn -0.4147 0.2784 0.8663
vn -0.3827 -0.0000 0.9239
vn -0.8600 0.2800 -0.4266
vn -0.9222 0.0001 -0.3866
vn 0.3482 0.1853 0.9189
vn 0.5079 0.3070 -0.8048
vn 0.1569 -0.8402 0.5190
vn 0.9648 0.1897 0.1823
vn -0.5586 -0.7771 0.2900
vn -0.4227 -0.8023 -0.4216
vn 0.1692 -0.8513 -0.4967
vn 0.9465 -0.0568 0.3177
vn -0.0210 0.0550 0.9983
vn -0.9546 -0.0666 0.2905
vn -0.5996 0.3091 -0.7382
vn 0.5916 0.0111 -0.8062
vn 0.9437 -0.0540 0.3263
vn -0.3142 0.2081 0.9263
vn -0.9972 0.0620 -0.0428
vn -0.3820 0.3740 -0.8451
vn 0.8377 0.0782 -0.5406
vn 0.5790 0.6784 0.4523
vn -0.5502 0.7361 0.3942
vn -0.6493 0.6080 -0.4568
vn -0.3685 0.3116 -0.8759
vn 0.6989 0.6829 -0.2126
vn 0.4812 0.5904 -0.6480
vn 0.5676 0.1836 -0.8025
vn -0.4194 0.7446 0.5193
vn -0.0068 0.8233 0.5676
vn 0.2275 0.5583 0.7978
vn 0.8658 0.3786 -0.3273
vn 0.8111 0.3496 -0.4689
vn 0.5947 0.3902 -0.7029
vn -0.3684 0.3237 -0.8715
vn -0.3963 0.3184 -0.8612
vn 0.5677 0.1230 -0.8140
vn -0.7671 0.4444 -0.4627
vn -0.9557 0.2943 -0.0038
vn -0.8773 0.3572 0.3206
vn -0.4681 0.3261 0.8213
vn -0.2920 0.2600 0.9204
vn -0.0408 0.2923 0.9554
vn 0.6556 0.5051 0.5613
vn 0.7263 0.4780 0.4940
vn 0.2667 0.3106 0.9124
vn 0.0699 0.2369 -0.9690
vn 0.0690 0.2497 -0.9659
vn 0.0916 0.2591 -0.9615
vn -0.2561 0.1170 -0.9596
vn -0.2595 0.1033 -0.9602
vn -0.9743 -0.0364 -0.2224
vn -0.7450 0.2871 0.6022
vn -0.7087 0.0729 0.7017
vn -0.6870 0.0687 0.7234
vn 0.1027 0.2845 0.9532
vn 0.1025 0.0973 0.9900
vn 0.7051 -0.1897 0.6832
vn 0.9453 0.3260 -0.0074
vn 0.9723 -0.0327 0.2316
vn 0.9479 -0.0880 -0.3062
vn 0.5873 0.0322 -0.8088
vn 0.3745 -0.0302 -0.9267
vn 0.0453 0.1303 -0.9904
vn -0.5711 0.1448 -0.8080
vn -0.7584 -0.2877 -0.5849
vn -0.9617 0.1193 -0.2469
vn -0.9392 0.0826 0.3333
vn -0.8412 0.0234 0.5402
vn -0.6889 0.0732 0.7211
vn 0.9830 0.0888 -0.1610
vn 0.9371 -0.3488 0.0092
vn 0.8300 -0.5145 -0.2152
vn 0.0195 0.1435 0.9895
vn 0.2922 -0.2144 0.9320
vn 0.6087 0.2116 0.7647
vn 0.9006 -0.3183 0.2958
vn 0.9830 -0.1821 0.0240
vn 0.4479 -0.8857 0.1224
vn 0.3389 -0.6982 -0.6306
vn 0.2486 -0.7425 -0.6220
vn 0.0558 -0.6498 -0.7580
vn -0.6800 -0.6077 -0.4103
vn -0.5879 -0.3706 -0.7191
vn -0.6152 -0.3486 -0.7071
vn -0.6671 -0.7083 0.2308
vn -0.4327 -0.8701 0.2359
vn -0.5512 -0.4283 0.7161
vn 0.4086 -0.2576 0.8756
vn 0.4106 -0.2634 0.8730
vn 0.0532 -0.4732 0.8794
vt 0.064144 0.117083
vt 0.051713 0.117083
vt 0.051713 0.054651
vt 0.064144 0.054651
vt 0.074308 0.117083
vt 0.074308 0.928711
vt 0.064144 0.928711
vt 0.079389 0.117083
vt 0.074308 0.054651
vt 0.079389 0.054651
vt 0.094635 0.117083
vt 0.094635 0.928711
vt 0.084471 0.928711
vt 0.084471 0.117083
vt 0.104798 0.117083
vt 0.104798 0.928711
vt 0.029117 0.117083
vt 0.029117 0.928711
vt 0.018954 0.928711
vt 0.018954 0.117083
vt 0.034199 0.117083
vt 0.034199 0.928711
vt 0.039281 0.117083
vt 0.039281 0.054651
vt 0.051713 0.928711
vt 0.039281 0.928711
vt 0.034199 0.054651
vt 0.029117 0.054651
vt 0.018954 0.054651
vt 0.104798 0.054651
vt 0.094635 0.054651
vt 0.084471 0.054651
vt 0.079389 0.928711
vt 0.835875 0.231344
vt 0.801224 0.251350
vt 0.801224 0.211339
vt 0.697270 0.311367
vt 0.766572 0.351379
vt 0.697270 0.391390
vt 0.835875 0.871528
vt 0.801224 0.891534
vt 0.801224 0.851523
vt 0.835875 0.711482
vt 0.801224 0.731488
vt 0.801224 0.691477
vt 0.835875 0.551436
vt 0.801224 0.571442
vt 0.801224 0.531431
vt 0.627967 0.351379
vt 0.697270 0.151321
vt 0.697270 0.231344
vt 0.627967 0.191333
vt 0.697270 0.791505
vt 0.697270 0.871528
vt 0.627967 0.831517
vt 0.697270 0.631459
vt 0.697270 0.711482
vt 0.627967 0.671471
vt 0.697270 0.471413
vt 0.697270 0.551436
vt 0.627967 0.511425
vt 0.627967 0.271356
vt 0.627967 0.111309
vt 0.627967 0.751494
vt 0.627967 0.591448
vt 0.627967 0.431402
vt 0.558665 0.231344
vt 0.558665 0.311367
vt 0.489362 0.271356
vt 0.558665 0.071297
vt 0.558665 0.151321
vt 0.489362 0.111309
vt 0.558665 0.711482
vt 0.558665 0.791505
vt 0.489362 0.751494
vt 0.558665 0.551436
vt 0.558665 0.631459
vt 0.489362 0.591448
vt 0.558665 0.391390
vt 0.558665 0.471413
vt 0.489362 0.431402
vt 0.489362 0.511425
vt 0.489362 0.671471
vt 0.558665 0.871528
vt 0.489362 0.831517
vt 0.489362 0.191333
vt 0.489362 0.351379
vt 0.627967 0.911540
vt 0.697270 0.951551
vt 0.766572 0.511425
vt 0.766572 0.551436
vt 0.766572 0.591448
vt 0.766572 0.671471
vt 0.766572 0.711482
vt 0.766572 0.751494
vt 0.766572 0.831517
vt 0.766572 0.871528
vt 0.766572 0.911540
vt 0.766572 0.431402
vt 0.766572 0.391390
vt 0.801224 0.371385
vt 0.766572 0.191333
vt 0.766572 0.231344
vt 0.766572 0.271356
vt 0.801224 0.411396
vt 0.835875 0.391390
s 0
f 18/1/1 19/2/1 8/3/1 7/4/1
f 20/5/2 12/6/2 15/7/2 18/1/2
f 25/8/3 20/5/3 6/9/3 27/10/3
f 21/11/4 11/12/4 14/13/4 17/14/4
f 24/15/5 10/16/5 11/12/5 21/11/5
f 23/17/6 9/18/6 10/19/6 24/20/6
f 28/21/7 29/22/7 9/18/7 23/17/7
f 19/2/8 22/23/8 1/24/8 8/3/8
f 16/25/9 13/26/9 22/23/9 19/2/9
f 30/27/10 28/21/10 23/17/10 2/28/10
f 2/28/11 23/17/11 24/20/11 3/29/11
f 3/30/12 24/15/12 21/11/12 4/31/12
f 4/31/13 21/11/13 17/14/13 5/32/13
f 26/33/14 12/6/14 20/5/14 25/8/14
f 6/9/15 20/5/15 18/1/15 7/4/15
f 15/7/16 16/25/16 19/2/16 18/1/16
f 17/14/17 25/8/17 27/10/17 5/32/17
f 14/13/14 26/33/14 25/8/14 17/14/14
f 1/24/18 22/23/18 28/21/18 30/27/18
f 22/23/7 13/26/7 29/22/7 28/21/7
f 31/34/19 71/35/19 68/36/19
f 32/37/20 44/38/20 46/39/20
f 31/40/21 68/41/21 69/42/21
f 31/43/22 69/44/22 70/45/22
f 31/46/23 70/47/23 72/48/23
f 32/37/24 46/39/24 53/49/24
f 33/50/25 45/51/25 55/52/25
f 34/53/26 49/54/26 57/55/26
f 35/56/27 51/57/27 59/58/27
f 36/59/28 52/60/28 61/61/28
f 32/37/29 53/49/29 56/62/29
f 33/50/30 55/52/30 58/63/30
f 34/53/31 57/55/31 60/64/31
f 35/56/32 59/58/32 62/65/32
f 36/59/33 61/61/33 54/66/33
f 37/67/34 63/68/34 42/69/34
f 38/70/35 64/71/35 42/72/35
f 39/73/36 65/74/36 42/75/36
f 40/76/37 66/77/37 42/78/37
f 41/79/38 67/80/38 42/81/38
f 67/80/39 40/76/39 42/82/39
f 66/77/40 39/73/40 42/83/40
f 65/74/41 38/84/41 42/85/41
f 64/71/42 37/67/42 42/86/42
f 63/68/43 41/79/43 42/87/43
f 54/66/44 67/80/44 41/79/44
f 54/66/45 61/61/45 67/80/45
f 61/61/46 40/76/46 67/80/46
f 62/65/47 66/77/47 40/76/47
f 62/65/48 59/58/48 66/77/48
f 59/58/49 39/73/49 66/77/49
f 60/64/50 65/74/50 39/73/50
f 60/64/51 57/55/51 65/74/51
f 57/55/52 38/84/52 65/74/52
f 58/63/53 64/71/53 38/70/53
f 58/63/54 55/52/54 64/71/54
f 55/52/55 37/67/55 64/71/55
f 56/62/56 63/68/56 37/67/56
f 56/62/57 53/49/57 63/68/57
f 53/49/58 41/79/58 63/68/58
f 61/61/59 62/65/59 40/76/59
f 61/61/60 52/60/60 62/65/60
f 52/60/61 35/56/61 62/65/61
f 59/58/62 60/64/62 39/73/62
f 59/58/63 51/57/63 60/64/63
f 51/57/64 34/53/64 60/64/64
f 57/55/65 58/88/65 38/84/65
f 57/55/66 49/54/66 58/88/66
f 49/54/67 33/89/67 58/88/67
f 55/52/68 56/62/68 37/67/68
f 55/52/69 45/51/69 56/62/69
f 45/51/70 32/37/70 56/62/70
f 53/49/71 54/66/71 41/79/71
f 53/49/72 46/39/72 54/66/72
f 46/39/73 36/59/73 54/66/73
f 47/90/74 52/60/74 36/59/74
f 47/90/75 73/91/75 50/92/75 52/60/75
f 50/92/76 35/56/76 52/60/76
f 50/93/77 51/57/77 35/56/77
f 50/93/78 74/94/78 48/95/78 51/57/78
f 48/95/79 34/53/79 51/57/79
f 48/96/80 49/54/80 34/53/80
f 48/96/81 75/97/81 43/98/81 49/54/81
f 43/98/82 33/89/82 49/54/82
f 46/39/83 47/99/83 36/59/83
f 46/39/84 44/38/84 76/100/84 47/99/84
f 44/38/85 71/101/85 76/100/85
f 43/102/86 45/51/86 33/50/86
f 43/102/87 77/103/87 44/104/87 45/51/87
f 44/104/88 32/37/88 45/51/88
f 76/100/89 72/105/89 47/99/89
f 76/100/90 71/101/90 72/105/90
f 71/101/91 31/106/91 72/105/91
f 72/48/92 73/91/92 47/90/92
f 72/48/93 70/47/93 73/91/93
f 70/47/94 50/92/94 73/91/94
f 70/45/95 74/94/95 50/93/95
f 70/45/96 69/44/96 74/94/96
f 69/44/97 48/95/97 74/94/97
f 69/42/98 75/97/98 48/96/98
f 69/42/99 68/41/99 75/97/99
f 68/41/100 43/98/100 75/97/100
f 68/36/101 77/103/101 43/102/101
f 68/36/102 71/35/102 77/103/102
f 71/35/103 44/104/103 77/103/103
