# Blender 4.4.3
# www.blender.org
o SM_3DMed_Tree_V1.0
v -0.000015 0.006802 -0.117467
v 0.168297 0.006802 -0.168326
v 0.117438 0.006802 -0.000015
v 0.168297 0.006802 0.168297
v -0.000015 0.006802 0.117438
v -0.168326 0.006802 0.168297
v -0.117467 0.006802 -0.000015
v -0.168326 0.006802 -0.168326
v 0.063342 2.758031 -0.063371
v 0.089585 2.758031 -0.000015
v 0.063342 2.758031 0.063342
v -0.063371 2.758031 0.063342
v -0.000015 2.758031 -0.089615
v -0.000015 2.758031 0.089585
v -0.089615 2.758031 -0.000015
v -0.062957 2.758031 -0.062957
v -0.000015 0.295795 0.089585
v -0.089615 0.295795 -0.000015
v -0.063342 0.295795 -0.063342
v -0.063371 0.295795 0.063342
v 0.063342 0.295795 0.063342
v -0.000015 0.295795 -0.089615
v 0.063342 0.295795 -0.063371
v 0.089585 0.295795 -0.000015
v -0.297285 3.947239 0.360800
v -0.370879 3.526211 -0.935907
v -0.112646 2.839150 -1.129551
v -0.556183 2.690551 -0.837537
v 0.662972 4.070537 -0.025615
v -0.450043 4.096478 -0.401223
v 0.000353 4.072266 -0.573555
v -0.930469 3.463181 0.025987
v 0.883345 3.563105 -0.744932
v 0.280341 3.975616 0.583636
v 0.626687 2.760521 -0.823883
v 0.698958 3.511524 0.300695
v -0.294498 3.530567 0.815481
v -0.621859 2.706390 0.829407
v -0.999677 2.709800 -0.323317
v 0.579230 2.492661 0.659455
v -0.985209 2.707837 0.344551
v 0.940247 1.861957 -0.060458
v 0.989374 2.713199 -0.321092
v 0.052185 2.862704 0.968188
v 0.406451 1.443464 -0.402688
v 0.342247 1.998353 -0.935365
v 1.019642 2.942723 0.257172
v 0.593036 1.238284 0.319922
v -0.230637 1.330226 -0.580057
v -0.549867 1.826176 -0.471791
v -0.238185 1.341706 0.557964
v -0.623006 1.558778 -0.124793
v -0.439019 1.843969 0.574963
v 0.251935 1.998448 0.591631
v 0.200701 4.147615 0.001321
v 0.892073 3.350278 0.109078
v 0.274880 3.336899 -1.170745
v -0.739109 3.430140 -0.588047
v -0.751813 3.477030 0.532330
v 0.382288 3.280415 1.034272
v 0.752318 1.978357 -0.544369
v -0.364254 2.106837 -0.648713
v -0.974677 2.056096 -0.160634
v -0.147321 1.953276 0.953842
v 0.757647 1.975256 0.566293
v 0.004071 0.988067 0.195827
vn -0.9733 0.2049 0.1033
vn -0.9239 -0.0000 0.3827
vn 0.1034 0.2049 0.9733
vn 0.3827 -0.0000 0.9239
vn 0.9239 -0.0000 0.3827
vn 0.9239 -0.0000 -0.3827
vn 0.3827 -0.0000 -0.9239
vn 0.1033 0.2049 -0.9733
vn -0.3866 0.0001 -0.9222
vn -0.1034 0.2049 -0.9733
vn 0.9733 0.2049 0.1034
vn 0.9733 0.2049 -0.1034
vn -0.1034 0.2049 0.9733
vn -0.3827 -0.0000 0.9239
vn -0.9733 0.2049 -0.1034
vn -0.9222 0.0001 -0.3866
vn 0.2416 -0.2287 0.9430
vn -0.7099 -0.3053 0.6347
vn 0.0326 -0.3234 0.9457
vn 0.6152 -0.4908 0.6170
vn 0.4277 -0.8345 -0.3474
vn -0.8580 -0.3556 0.3705
vn -0.5377 -0.1656 -0.8267
vn -0.7343 -0.2691 -0.6232
vn 0.0419 -0.1630 0.9857
vn -0.3965 -0.4048 -0.8240
vn -0.7595 -0.5078 0.4066
vn -0.3912 -0.1476 -0.9084
vn -0.7562 0.0334 -0.6535
vn 0.3000 -0.3219 0.8980
vn 0.3814 -0.0071 -0.9244
vn 0.9134 0.0354 0.4055
vn -0.9964 0.0814 0.0218
vn 0.7904 0.3460 0.5055
vn 0.9905 0.1353 0.0236
vn 0.3774 0.8072 -0.4538
vn -0.2164 0.9490 0.2292
vn 0.1278 -0.6655 0.7354
vn -0.6946 0.0697 -0.7160
vn 0.0032 0.9914 -0.1310
vn 0.8976 -0.3064 0.3169
vn 0.7631 0.3618 0.5356
vn -0.2424 0.6455 -0.7243
vn -0.7116 -0.6776 0.1857
vn -0.9268 0.2247 -0.3009
vn -0.6713 0.4552 -0.5849
vn -0.6222 -0.7682 -0.1506
vn -0.2826 0.0720 0.9565
vn -0.6708 0.6908 0.2698
vn 0.2774 -0.8453 -0.4567
vn -0.6622 0.7182 0.2140
vn 0.2464 0.6647 -0.7053
vn -0.2743 -0.3764 -0.8849
vn -0.5556 0.0254 -0.8310
vn 0.7869 -0.1940 -0.5859
vn 0.9400 -0.1579 0.3024
vn 0.1735 0.9507 0.2571
vn -0.1619 0.9402 0.2998
vn 0.6732 -0.1591 0.7222
vn -0.0745 0.5347 0.8417
vn -0.9252 0.2024 0.3209
vn -0.7968 -0.3781 0.4712
vn -0.2239 0.1053 0.9689
vn 0.5183 0.2292 0.8239
vn 0.6787 -0.1481 -0.7194
vn 0.1516 0.9719 -0.1802
vn 0.5975 -0.1130 -0.7938
vn 0.6282 0.0772 0.7742
vn -0.6975 -0.3348 0.6336
vn -0.2849 0.7058 0.6486
vn -0.2083 0.0303 0.9776
vn 0.9975 -0.0656 -0.0262
vn -0.5318 0.2250 0.8164
vn -0.9992 -0.0329 0.0216
vn 0.5697 -0.5339 -0.6248
vn 0.7917 0.4118 0.4513
vn -0.4511 0.6566 0.6045
vn -0.6704 -0.5127 -0.5364
vn -0.2976 0.1537 -0.9422
vn 0.7790 0.4175 0.4678
vn 0.3304 -0.3304 -0.8841
vn -0.7964 0.0959 0.5971
vn 0.8047 -0.0809 -0.5881
vn 0.2728 -0.3569 0.8934
vn 0.9579 0.2461 -0.1478
vn -0.4070 -0.3995 -0.8214
vn 0.9035 -0.1723 -0.3923
vn -0.6486 -0.2071 -0.7324
vn 0.9469 0.3140 0.0686
vn 0.3096 -0.6396 -0.7036
vn -0.7566 -0.3274 0.5660
vn -0.8465 0.4479 -0.2879
vn 0.7072 -0.6109 -0.3560
vn -0.7838 -0.4010 -0.4742
vn -0.1116 0.6010 -0.7914
vn 0.7110 -0.5691 -0.4130
vt 0.064144 0.117083
vt 0.051713 0.117083
vt 0.051713 0.054651
vt 0.064144 0.054651
vt 0.074308 0.117083
vt 0.074308 0.928711
vt 0.064144 0.928711
vt 0.084471 0.117083
vt 0.074308 0.054651
vt 0.084471 0.054651
vt 0.094635 0.117083
vt 0.094635 0.928711
vt 0.084471 0.928711
vt 0.104798 0.117083
vt 0.104798 0.928711
vt 0.029117 0.117083
vt 0.029117 0.928711
vt 0.018954 0.928711
vt 0.018954 0.117083
vt 0.039281 0.117083
vt 0.039281 0.928711
vt 0.039281 0.054651
vt 0.051713 0.928711
vt 0.029117 0.054651
vt 0.018954 0.054651
vt 0.104798 0.054651
vt 0.094635 0.054651
vt 0.819899 0.160429
vt 0.819899 0.245321
vt 0.746379 0.202875
vt 0.819899 0.924464
vt 0.746379 0.966911
vt 0.746379 0.882017
vt 0.746379 0.287768
vt 0.746379 0.117982
vt 0.819899 0.330214
vt 0.893420 0.372660
vt 0.819899 0.415107
vt 0.819899 0.839570
vt 0.819899 0.669785
vt 0.746379 0.712231
vt 0.746379 0.627339
vt 0.672859 0.669785
vt 0.672859 0.754678
vt 0.672859 0.245321
vt 0.746379 0.542446
vt 0.672859 0.584892
vt 0.746379 0.797124
vt 0.819899 0.584892
vt 0.599340 0.712231
vt 0.672859 0.160429
vt 0.672859 0.500000
vt 0.599340 0.287768
vt 0.599340 0.202875
vt 0.672859 0.839570
vt 0.599340 0.797124
vt 0.599340 0.372660
vt 0.525820 0.330214
vt 0.672859 0.415107
vt 0.599340 0.457553
vt 0.525820 0.415107
vt 0.525820 0.500000
vt 0.525820 0.754678
vt 0.525820 0.839570
vt 0.452299 0.797124
vt 0.893420 0.202875
vt 0.599340 0.627339
vt 0.525820 0.584892
vt 0.525820 0.669785
vt 0.452299 0.627339
vt 0.746379 0.372660
vt 0.525820 0.245321
vt 0.893420 0.882017
vt 0.893420 0.712231
vt 0.819899 0.754678
vt 0.599340 0.117982
vt 0.893420 0.542446
vt 0.819899 0.499999
vt 0.599340 0.882017
vt 0.599340 0.542446
vt 0.672859 0.330214
vt 0.452299 0.287768
vt 0.525819 0.075536
vt 0.525820 0.160429
vt 0.452299 0.117982
vt 0.672859 0.075536
vt 0.746379 0.457553
vt 0.452299 0.457553
vt 0.672859 0.924464
vt 0.599340 0.033089
s 0
f 18/1/1 19/2/1 8/3/1 7/4/1
f 20/5/2 12/6/2 15/7/2 18/1/2
f 17/8/3 20/5/3 6/9/3 5/10/3
f 21/11/4 11/12/4 14/13/4 17/8/4
f 24/14/5 10/15/5 11/12/5 21/11/5
f 23/16/6 9/17/6 10/18/6 24/19/6
f 22/20/7 13/21/7 9/17/7 23/16/7
f 19/2/8 22/20/8 1/22/8 8/3/8
f 16/23/9 13/21/9 22/20/9 19/2/9
f 1/22/10 22/20/10 23/16/10 2/24/10
f 2/24/11 23/16/11 24/19/11 3/25/11
f 3/26/12 24/14/12 21/11/12 4/27/12
f 4/27/13 21/11/13 17/8/13 5/10/13
f 14/13/14 12/6/14 20/5/14 17/8/14
f 6/9/15 20/5/15 18/1/15 7/4/15
f 15/7/16 16/23/16 19/2/16 18/1/16
f 51/28/17 48/29/17 54/30/17
f 51/31/18 64/32/18 53/33/18
f 48/29/19 65/34/19 54/30/19
f 51/28/20 54/30/20 64/35/20
f 48/36/21 66/37/21 45/38/21
f 52/39/22 51/31/22 53/33/22
f 49/40/23 50/41/23 62/42/23
f 28/43/24 50/41/24 39/44/24
f 54/30/25 65/34/25 40/45/25
f 46/46/26 62/42/26 27/47/26
f 52/39/27 53/33/27 63/48/27
f 49/49/28 62/42/28 46/46/28
f 28/43/29 39/44/29 58/50/29
f 44/51/30 54/30/30 40/45/30
f 35/52/31 46/46/31 27/47/31
f 40/45/32 36/53/32 60/54/32
f 39/44/33 41/55/33 32/56/33
f 36/53/34 56/57/34 29/58/34
f 43/59/35 33/60/35 56/57/35
f 29/61/36 33/60/36 31/62/36
f 30/63/37 25/64/37 55/65/37
f 66/66/38 48/29/38 51/28/38
f 28/43/39 58/50/39 26/67/39
f 31/68/40 30/69/40 55/70/40
f 65/34/41 48/36/41 42/71/41
f 34/72/42 36/53/42 29/58/42
f 31/68/43 26/67/43 30/69/43
f 66/73/44 51/31/44 52/39/44
f 39/44/45 32/56/45 58/50/45
f 26/67/46 58/50/46 30/69/46
f 66/74/47 52/75/47 49/40/47
f 44/51/48 60/54/48 37/76/48
f 30/63/49 32/56/49 25/64/49
f 66/77/50 49/49/50 45/78/50
f 32/56/51 59/79/51 25/64/51
f 33/60/52 57/80/52 31/62/52
f 62/42/53 50/41/53 28/43/53
f 27/47/54 28/43/54 26/67/54
f 43/59/55 35/52/55 33/60/55
f 65/34/56 42/71/56 47/81/56
f 34/72/57 29/58/57 55/82/57
f 25/83/58 34/84/58 55/85/58
f 64/35/59 54/30/59 44/51/59
f 37/76/60 60/54/60 34/84/60
f 41/55/61 59/79/61 32/56/61
f 63/48/62 53/33/62 41/55/62
f 38/86/63 44/51/63 37/76/63
f 40/45/64 47/81/64 36/53/64
f 61/87/65 46/46/65 35/52/65
f 29/61/66 31/62/66 55/88/66
f 35/52/67 57/80/67 33/60/67
f 65/34/68 47/81/68 40/45/68
f 53/33/69 64/32/69 38/89/69
f 25/83/70 37/76/70 34/84/70
f 64/35/71 44/51/71 38/86/71
f 47/81/72 42/71/72 43/59/72
f 38/86/73 37/76/73 59/90/73
f 63/48/74 41/55/74 39/44/74
f 45/78/75 46/46/75 61/87/75
f 47/81/76 56/57/76 36/53/76
f 59/90/77 37/76/77 25/83/77
f 52/75/78 63/48/78 50/41/78
f 27/47/79 26/67/79 57/80/79
f 60/54/80 36/53/80 34/72/80
f 35/52/81 27/47/81 57/80/81
f 41/55/82 38/89/82 59/79/82
f 61/87/83 35/52/83 43/59/83
f 44/51/84 40/45/84 60/54/84
f 47/81/85 43/59/85 56/57/85
f 62/42/86 28/43/86 27/47/86
f 42/71/87 61/87/87 43/59/87
f 50/41/88 63/48/88 39/44/88
f 56/57/89 33/60/89 29/61/89
f 45/78/90 49/49/90 46/46/90
f 41/55/91 53/33/91 38/89/91
f 58/50/92 32/56/92 30/63/92
f 42/71/93 48/36/93 45/38/93
f 49/40/94 52/75/94 50/41/94
f 57/80/95 26/67/95 31/68/95
f 42/71/96 45/38/96 61/87/96
