# Blender 4.4.3
# www.blender.org
o SM_3DSml_Tree_V1.0
v -0.000009 0.006802 -0.083904
v 0.120213 0.006802 -0.120231
v 0.083885 0.006802 -0.000009
v 0.120213 0.006802 0.120213
v -0.000009 0.006802 0.083885
v -0.120231 0.006802 0.120213
v -0.083904 0.006802 -0.000009
v -0.120231 0.006802 -0.120231
v 0.045246 1.457615 -0.045264
v 0.063991 1.457615 -0.000009
v 0.045246 1.457615 0.045246
v -0.045264 1.457615 0.045246
v -0.000009 1.457615 -0.064009
v -0.000009 1.457615 0.063991
v -0.064009 1.457615 -0.000009
v -0.044968 1.457615 -0.044968
v -0.000009 0.295795 0.063991
v -0.064009 0.295795 -0.000009
v -0.045243 0.295795 -0.045243
v -0.045264 0.295795 0.045246
v 0.045246 0.295795 0.045246
v -0.000009 0.295795 -0.064009
v 0.045246 0.295795 -0.045264
v 0.063991 0.295795 -0.000009
v 0.018860 1.053864 -0.010435
v 0.522729 1.580765 0.491943
v -0.115083 1.516669 0.656535
v -0.679684 1.537197 -0.089360
v -0.267585 1.482295 -0.638661
v 0.447729 1.505155 -0.355124
v 0.128722 1.953740 0.565251
v -0.506303 2.076699 0.349984
v -0.469312 2.180485 -0.329343
v 0.186618 2.059834 -0.599453
v 0.644260 2.050679 0.141674
v 0.010045 2.375179 0.006730
v -0.112957 1.210977 0.341367
v 0.306829 1.216401 0.230105
v 0.155800 1.466529 0.499123
v 0.589099 1.385185 0.076657
v 0.296300 1.134136 -0.116840
v -0.302665 1.239400 0.028922
v -0.535982 1.545910 0.314848
v -0.174038 1.233438 -0.268266
v -0.423812 1.532579 -0.391217
v 0.079150 1.369244 -0.583059
v 0.634102 1.873632 0.196445
v 0.683753 1.749730 -0.197290
v 0.101133 1.844407 0.797481
v 0.392383 1.838943 0.564772
v -0.643946 1.825865 0.214096
v -0.488266 1.911255 0.595936
v -0.415276 1.867069 -0.540304
v -0.589346 1.792030 -0.177128
v 0.399579 1.817214 -0.544610
v -0.057470 1.796334 -0.607231
v 0.524523 1.989980 0.323860
v -0.099199 2.184308 0.477453
v -0.589083 2.068102 0.025782
v -0.161921 2.154378 -0.596002
v 0.477403 2.099242 -0.322364
v 0.031520 2.268932 0.357220
v 0.350847 2.259486 0.057821
v -0.290089 2.309814 0.213194
v -0.202916 2.409639 -0.297758
v 0.111791 2.309767 -0.335931
vn -0.9835 0.1479 0.1044
vn -0.9239 -0.0000 0.3827
vn 0.1045 0.1479 0.9835
vn 0.3827 -0.0000 0.9239
vn 0.9239 -0.0000 0.3827
vn 0.9239 -0.0000 -0.3827
vn 0.3827 -0.0000 -0.9239
vn 0.1044 0.1479 -0.9835
vn -0.3866 0.0002 -0.9222
vn -0.1045 0.1479 -0.9835
vn 0.9835 0.1479 0.1045
vn 0.9835 0.1479 -0.1045
vn -0.1045 0.1479 0.9835
vn -0.3827 -0.0000 0.9239
vn -0.9835 0.1479 -0.1045
vn -0.9222 0.0002 -0.3866
vn 0.1292 -0.8865 0.4443
vn 0.6222 -0.6653 0.4127
vn -0.4698 -0.8581 0.2072
vn -0.5079 -0.8371 -0.2030
vn 0.0141 -0.8155 -0.5785
vn 0.9646 -0.1432 0.2216
vn 0.3403 -0.5519 0.7613
vn -0.9145 -0.2339 0.3302
vn -0.8464 -0.1986 -0.4941
vn 0.5829 -0.3541 -0.7313
vn 0.7988 0.2488 0.5477
vn -0.3363 -0.1760 0.9252
vn -0.9467 0.2817 -0.1565
vn -0.1434 0.1931 -0.9706
vn 0.7162 -0.2781 -0.6401
vn 0.3811 0.5883 0.7132
vn -0.3751 0.7027 0.6046
vn -0.6533 0.7568 0.0192
vn 0.1940 0.7387 -0.6455
vn 0.5996 0.7892 -0.1330
vn 0.3313 0.9400 -0.0811
vn 0.4950 0.8473 -0.1923
vn 0.4309 0.7127 -0.5536
vn 0.2906 0.9521 -0.0955
vn 0.1651 0.7604 -0.6281
vn -0.4744 0.6355 -0.6091
vn -0.0926 0.9801 0.1757
vn -0.6431 0.7647 0.0397
vn -0.6778 0.7190 0.1540
vn -0.0085 0.9568 0.2906
vn -0.1094 0.8649 0.4898
vn 0.3071 0.5884 0.7480
vn 0.2744 0.9248 0.2635
vn 0.4594 0.7561 0.4661
vn 0.3953 0.7616 0.5135
vn 0.8685 0.4166 -0.2687
vn 0.7729 0.2472 -0.5844
vn 0.6109 0.3791 -0.6950
vn -0.0015 0.0309 -0.9995
vn -0.1884 -0.0242 -0.9818
vn -0.5876 0.3797 -0.7145
vn -0.9468 0.1911 -0.2588
vn -0.9832 0.1087 -0.1466
vn -0.9005 0.3750 0.2200
vn -0.3687 0.7585 0.5373
vn -0.1937 0.6096 0.7687
vn 0.5686 0.7162 0.4047
vn 0.3136 0.7176 0.6219
vn 0.8173 0.1653 0.5519
vn 0.8078 0.1314 0.5747
vn 0.1396 -0.1002 -0.9851
vn 0.1363 -0.0125 -0.9906
vn 0.1565 -0.0058 -0.9877
vn -0.9047 0.1193 -0.4090
vn -0.8719 -0.1806 -0.4552
vn -0.7616 0.0474 -0.6463
vn -0.8965 0.3344 0.2907
vn -0.8916 -0.1972 0.4076
vn -0.5824 -0.4465 0.6792
vn 0.3607 0.8266 0.4320
vn 0.5459 -0.4691 0.6942
vn 0.0900 -0.2281 0.9695
vn 0.9913 -0.0166 0.1302
vn 0.9778 -0.1304 0.1643
vn 0.7753 -0.4955 -0.3915
vn 0.5697 -0.5960 -0.5659
vn -0.0517 -0.9012 -0.4304
vn -0.1903 -0.8365 -0.5139
vn -0.6739 -0.6807 -0.2872
vn -0.6774 -0.6805 -0.2795
vn -0.4871 -0.7759 -0.4010
vn -0.6471 -0.7217 0.2456
vn -0.6037 -0.7388 0.2994
vn -0.5229 -0.6136 0.5916
vn 0.7343 -0.5528 -0.3940
vn 0.5729 -0.8012 0.1726
vn 0.3443 -0.9158 0.2067
vn 0.2629 -0.6917 0.6727
vn 0.2007 -0.6587 0.7251
vn 0.2170 -0.6512 0.7273
vt 0.064144 0.117083
vt 0.051713 0.117083
vt 0.051713 0.054651
vt 0.064144 0.054651
vt 0.074308 0.117083
vt 0.074308 0.928711
vt 0.064144 0.928711
vt 0.084471 0.117083
vt 0.074308 0.054651
vt 0.084471 0.054651
vt 0.094635 0.117083
vt 0.094635 0.928711
vt 0.084471 0.928711
vt 0.104798 0.117083
vt 0.104798 0.928711
vt 0.029117 0.117083
vt 0.029117 0.928711
vt 0.018954 0.928711
vt 0.018954 0.117083
vt 0.039281 0.117083
vt 0.039281 0.928711
vt 0.039281 0.054651
vt 0.051713 0.928711
vt 0.029117 0.054651
vt 0.018954 0.054651
vt 0.104798 0.054651
vt 0.094635 0.054651
vt 0.452299 0.797124
vt 0.525820 0.754678
vt 0.525820 0.839570
vt 0.599340 0.712231
vt 0.525820 0.669785
vt 0.599340 0.627339
vt 0.452299 0.117982
vt 0.525819 0.075536
vt 0.525820 0.160429
vt 0.452299 0.287768
vt 0.525820 0.245321
vt 0.525820 0.330214
vt 0.452299 0.457553
vt 0.525820 0.415107
vt 0.525820 0.500000
vt 0.672859 0.669785
vt 0.599340 0.882017
vt 0.599340 0.797124
vt 0.672859 0.839570
vt 0.599340 0.202875
vt 0.599340 0.117982
vt 0.672859 0.160429
vt 0.599340 0.372660
vt 0.599340 0.287768
vt 0.672859 0.330214
vt 0.599340 0.542446
vt 0.599340 0.457553
vt 0.672859 0.500000
vt 0.672859 0.754678
vt 0.672859 0.924464
vt 0.672859 0.245321
vt 0.672859 0.415107
vt 0.672859 0.584892
vt 0.746379 0.797124
vt 0.746379 0.712231
vt 0.819899 0.754678
vt 0.746379 0.966911
vt 0.746379 0.882017
vt 0.819899 0.924464
vt 0.746379 0.287768
vt 0.746379 0.202875
vt 0.819899 0.245321
vt 0.746379 0.457553
vt 0.746379 0.372660
vt 0.819899 0.415107
vt 0.746379 0.627339
vt 0.746379 0.542446
vt 0.819899 0.584892
vt 0.819899 0.499999
vt 0.893420 0.542446
vt 0.819899 0.330214
vt 0.893420 0.372660
vt 0.819899 0.160429
vt 0.893420 0.202875
vt 0.746379 0.117982
vt 0.819899 0.839570
vt 0.893420 0.882017
vt 0.819899 0.669785
vt 0.893420 0.712231
vt 0.672859 0.075536
vt 0.599340 0.033089
vt 0.525820 0.584892
vt 0.452299 0.627339
s 0
f 18/1/1 19/2/1 8/3/1 7/4/1
f 20/5/2 12/6/2 15/7/2 18/1/2
f 17/8/3 20/5/3 6/9/3 5/10/3
f 21/11/4 11/12/4 14/13/4 17/8/4
f 24/14/5 10/15/5 11/12/5 21/11/5
f 23/16/6 9/17/6 10/18/6 24/19/6
f 22/20/7 13/21/7 9/17/7 23/16/7
f 19/2/8 22/20/8 1/22/8 8/3/8
f 16/23/9 13/21/9 22/20/9 19/2/9
f 1/22/10 22/20/10 23/16/10 2/24/10
f 2/24/11 23/16/11 24/19/11 3/25/11
f 3/26/12 24/14/12 21/11/12 4/27/12
f 4/27/13 21/11/13 17/8/13 5/10/13
f 14/13/14 12/6/14 20/5/14 17/8/14
f 6/9/15 20/5/15 18/1/15 7/4/15
f 15/7/16 16/23/16 19/2/16 18/1/16
f 25/28/17 38/29/17 37/30/17
f 26/31/18 38/32/18 40/33/18
f 25/34/19 37/35/19 42/36/19
f 25/37/20 42/38/20 44/39/20
f 25/40/21 44/41/21 41/42/21
f 26/31/22 40/33/22 47/43/22
f 27/44/23 39/45/23 49/46/23
f 28/47/24 43/48/24 51/49/24
f 29/50/25 45/51/25 53/52/25
f 30/53/26 46/54/26 55/55/26
f 26/31/27 47/43/27 50/56/27
f 27/44/28 49/46/28 52/57/28
f 28/47/29 51/49/29 54/58/29
f 29/50/30 53/52/30 56/59/30
f 30/53/31 55/55/31 48/60/31
f 31/61/32 57/62/32 62/63/32
f 32/64/33 58/65/33 64/66/33
f 33/67/34 59/68/34 65/69/34
f 34/70/35 60/71/35 66/72/35
f 35/73/36 61/74/36 63/75/36
f 63/75/37 66/76/37 36/77/37
f 63/75/38 61/74/38 66/76/38
f 61/74/39 34/70/39 66/76/39
f 66/72/40 65/78/40 36/79/40
f 66/72/41 60/71/41 65/78/41
f 60/71/42 33/67/42 65/78/42
f 65/69/43 64/80/43 36/81/43
f 65/69/44 59/68/44 64/80/44
f 59/68/45 32/82/45 64/80/45
f 64/66/46 62/83/46 36/84/46
f 64/66/47 58/65/47 62/83/47
f 58/65/48 31/61/48 62/83/48
f 62/63/49 63/85/49 36/86/49
f 62/63/50 57/62/50 63/85/50
f 57/62/51 35/73/51 63/85/51
f 48/60/52 61/74/52 35/73/52
f 48/60/53 55/55/53 61/74/53
f 55/55/54 34/70/54 61/74/54
f 56/59/55 60/71/55 34/70/55
f 56/59/56 53/52/56 60/71/56
f 53/52/57 33/67/57 60/71/57
f 54/58/58 59/68/58 33/67/58
f 54/58/59 51/49/59 59/68/59
f 51/49/60 32/82/60 59/68/60
f 52/57/61 58/65/61 32/64/61
f 52/57/62 49/46/62 58/65/62
f 49/46/63 31/61/63 58/65/63
f 50/56/64 57/62/64 31/61/64
f 50/56/65 47/43/65 57/62/65
f 47/43/66 35/73/66 57/62/66
f 55/55/67 56/59/67 34/70/67
f 55/55/68 46/54/68 56/59/68
f 46/54/69 29/50/69 56/59/69
f 53/52/70 54/58/70 33/67/70
f 53/52/71 45/51/71 54/58/71
f 45/51/72 28/47/72 54/58/72
f 51/49/73 52/87/73 32/82/73
f 51/49/74 43/48/74 52/87/74
f 43/48/75 27/88/75 52/87/75
f 49/46/76 50/56/76 31/61/76
f 49/46/77 39/45/77 50/56/77
f 39/45/78 26/31/78 50/56/78
f 47/43/79 48/60/79 35/73/79
f 47/43/80 40/33/80 48/60/80
f 40/33/81 30/53/81 48/60/81
f 41/42/82 46/54/82 30/53/82
f 41/42/83 44/41/83 46/54/83
f 44/41/84 29/50/84 46/54/84
f 44/39/85 45/51/85 29/50/85
f 44/39/86 42/38/86 45/51/86
f 42/38/87 28/47/87 45/51/87
f 42/36/88 43/48/88 28/47/88
f 42/36/89 37/35/89 43/48/89
f 37/35/90 27/88/90 43/48/90
f 40/33/91 41/89/91 30/53/91
f 40/33/92 38/32/92 41/89/92
f 38/32/93 25/90/93 41/89/93
f 37/30/94 39/45/94 27/44/94
f 37/30/95 38/29/95 39/45/95
f 38/29/96 26/31/96 39/45/96
