# Blender 4.4.3
# www.blender.org
o SM_Box_Planter_V1.0
v -0.500000 0.050000 0.500000
v -0.500000 1.050000 0.500000
v -0.500000 0.050000 -0.500000
v -0.500000 1.050000 -0.500000
v 0.500000 0.050000 0.500000
v 0.500000 1.050000 0.500000
v 0.500000 0.050000 -0.500000
v 0.500000 1.050000 -0.500000
v -0.500000 0.050000 -0.250000
v -0.500000 0.050000 0.250000
v -0.396978 1.050000 -0.396978
v 0.396978 1.050000 -0.396978
v 0.500000 0.050000 0.250000
v 0.500000 0.050000 -0.250000
v -0.355983 0.987386 0.355983
v -0.355983 0.987386 -0.355983
v 0.300000 0.050000 -0.500000
v -0.300000 0.050000 -0.500000
v 0.396978 1.050000 0.396978
v 0.355983 0.987386 0.355983
v -0.300000 0.050000 0.500000
v 0.300000 0.050000 0.500000
v 0.355983 0.987386 -0.355983
v -0.396978 1.050000 0.396978
v 0.300000 0.050000 -0.250000
v -0.300000 0.050000 -0.250000
v 0.300000 0.050000 0.250000
v -0.300000 0.050000 0.250000
v -0.500000 0.000000 0.300000
v -0.500000 0.000000 0.500000
v -0.350000 0.000000 -0.500000
v -0.500000 0.000000 -0.500000
v 0.500000 0.000000 -0.300000
v 0.500000 0.000000 -0.500000
v 0.350000 0.000000 0.500000
v 0.500000 0.000000 0.500000
v -0.500000 0.000000 -0.300000
v 0.500000 0.000000 0.300000
v -0.350000 0.000000 -0.300000
v -0.350000 0.000000 0.300000
v 0.350000 0.000000 -0.500000
v -0.350000 0.000000 0.500000
v 0.350000 0.000000 -0.300000
v 0.350000 0.000000 0.300000
vn -1.0000 -0.0000 -0.0000
vn -0.0000 -0.0000 -1.0000
vn 1.0000 -0.0000 -0.0000
vn -0.0000 -0.0000 1.0000
vn 0.8366 0.5478 -0.0000
vn -0.0000 1.0000 -0.0000
vn -0.0000 -0.7071 -0.7071
vn -0.0000 -1.0000 -0.0000
vn -0.0000 -0.7071 0.7071
vn 0.7071 -0.7071 -0.0000
vn -0.7071 -0.7071 -0.0000
vn -0.0000 0.5478 0.8366
vn -0.8366 0.5478 -0.0000
vn -0.0000 0.5478 -0.8366
vt 0.235888 0.024170
vt 0.251790 0.207957
vt 0.064115 0.027750
vt 0.065008 0.447707
vt 0.247816 0.416152
vt 0.066432 0.603500
vt 0.472310 0.604998
vt 0.456408 0.421212
vt 0.644083 0.602820
vt 0.643191 0.181461
vt 0.460382 0.213016
vt 0.641766 0.024267
vt 0.909067 0.706367
vt 0.742948 0.706367
vt 0.742948 0.646755
vt 0.909067 0.646755
vt 0.271854 0.228962
vt 0.439462 0.232948
vt 0.426152 0.246030
vt 0.285062 0.242284
vt 0.268737 0.396220
vt 0.436344 0.400206
vt 0.256167 0.604998
vt 0.452032 0.024170
vt 0.676970 0.646755
vt 0.676970 0.453784
vt 0.742948 0.453784
vt 0.644513 0.427559
vt 0.063685 0.201610
vt 0.909067 0.453784
vt 0.975045 0.453784
vt 0.975045 0.646755
vt 0.742948 0.394172
vt 0.909067 0.394172
vt 0.979062 0.028136
vt 0.982112 0.337330
vt 0.672918 0.340380
vt 0.669868 0.031186
vt 0.282046 0.383139
vt 0.423136 0.386885
s 0
f 9/1/1 4/2/1 3/3/1
f 17/4/2 8/5/2 7/6/2
f 13/7/3 6/8/3 5/9/3
f 21/10/4 2/11/4 1/12/4
f 17/13/2 7/14/2 34/15/2 41/16/2
f 11/17/5 24/18/5 15/19/5 16/20/5
f 6/8/6 8/5/6 12/21/6 19/22/6
f 27/13/7 13/14/7 38/15/7 44/16/7
f 7/6/3 8/5/3 14/23/3
f 14/23/3 8/5/3 6/8/3 13/7/3
f 1/12/1 2/11/1 10/24/1
f 10/24/1 2/11/1 4/2/1 9/1/1
f 9/13/1 3/14/1 32/15/1 37/16/1
f 3/25/2 18/26/2 31/27/2 32/15/2
f 5/9/4 6/8/4 22/28/4
f 22/28/4 6/8/4 2/11/4 21/10/4
f 3/3/2 4/2/2 18/29/2
f 18/29/2 4/2/2 8/5/2 17/4/2
f 44/16/8 38/15/8 36/27/8 35/30/8
f 41/16/8 34/15/8 33/27/8 43/30/8
f 32/15/8 31/27/8 39/30/8 37/16/8
f 29/27/8 40/30/8 42/16/8 30/15/8
f 7/25/3 14/26/3 33/27/3 34/15/3
f 26/31/9 9/32/9 37/16/9 39/30/9
f 1/25/1 10/26/1 29/27/1 30/15/1
f 10/33/7 28/34/7 40/30/7 29/27/7
f 13/25/3 5/26/3 36/27/3 38/15/3
f 18/33/10 26/34/10 39/30/10 31/27/10
f 28/31/10 21/32/10 42/16/10 40/30/10
f 21/13/4 1/14/4 30/15/4 42/16/4
f 25/31/11 17/32/11 41/16/11 43/30/11
f 5/33/4 22/34/4 35/30/4 36/27/4
f 14/33/9 25/34/9 43/30/9 33/27/9
f 22/31/11 27/32/11 44/16/11 35/30/11
f 4/2/6 2/11/6 24/18/6 11/17/6
f 8/5/6 4/2/6 11/17/6 12/21/6
f 2/11/6 6/8/6 19/22/6 24/18/6
f 16/35/6 15/36/6 20/37/6 23/38/6
f 12/21/12 11/17/12 16/20/12 23/39/12
f 19/22/13 12/21/13 23/39/13 20/40/13
f 24/18/14 19/22/14 20/40/14 15/19/14
