# Blender 4.4.3
# www.blender.org
o SM_Hanging_Lantern_V1.0
v -0.424435 -2.395204 -0.000192
v -0.297156 -2.342743 -0.000104
v 0.000123 -2.395204 -0.424162
v 0.000034 -2.342743 -0.296883
v -0.000465 -2.395204 0.424366
v -0.000377 -2.342743 0.297087
v 0.424093 -2.395204 0.000395
v 0.296814 -2.342743 0.000307
v -0.365350 -1.615489 -0.000151
v 0.000082 -1.615489 -0.365078
v 0.365008 -1.615489 0.000354
v -0.000424 -1.615489 0.365281
v -0.033467 -2.270018 0.270775
v -0.270890 -2.270018 0.033023
v -0.033504 -1.688214 0.325331
v -0.325446 -1.688214 0.032985
v -0.000309 -2.270018 0.200087
v -0.200156 -2.270018 -0.000037
v -0.000347 -1.688214 0.254643
v -0.254712 -1.688214 -0.000074
v -0.270844 -2.270018 -0.033194
v -0.033092 -2.270018 -0.270617
v -0.325400 -1.688214 -0.033231
v -0.033054 -1.688214 -0.325173
v -0.000033 -2.270018 -0.199884
v 0.000005 -1.688214 -0.254439
v 0.033125 -2.270018 -0.270571
v 0.270548 -2.270018 -0.032819
v 0.033162 -1.688214 -0.325127
v 0.325104 -1.688214 -0.032781
v 0.199814 -2.270018 0.000240
v 0.254370 -1.688214 0.000278
v 0.270502 -2.270018 0.033397
v 0.032750 -2.270018 0.270821
v 0.325058 -1.688214 0.033435
v 0.032712 -1.688214 0.325377
v -0.560985 -1.692138 -0.000286
v 0.000217 -1.692138 -0.560712
v 0.560643 -1.692138 0.000490
v -0.000559 -1.692138 0.560916
v -0.403249 -1.605643 -0.000177
v 0.000108 -1.605643 -0.402976
v 0.402907 -1.605643 0.000381
v -0.000450 -1.605643 0.403179
v -0.159149 -1.398103 0.000874
v 0.000067 -1.398103 -0.158122
v 0.159063 -1.398103 0.001094
v -0.000153 -1.398103 0.160090
v -0.080821 -1.383471 -0.006090
v -0.001007 -1.383471 -0.085794
v 0.078698 -1.383471 -0.005979
v -0.001117 -1.383471 0.073725
v -0.161181 -1.373012 -0.006145
v -0.000951 -1.373012 -0.166154
v 0.159058 -1.373012 -0.005924
v -0.001173 -1.373012 0.154085
v -0.001062 -1.290443 -0.006035
v -0.000171 -1.162838 0.000102
v -0.016892 -1.186502 -0.016642
v -0.000171 -1.210166 0.000102
v 0.016550 -1.186502 0.016846
v 0.083551 -1.281157 -0.083504
v 0.050085 -1.281157 -0.083527
v 0.050062 -1.281157 -0.050062
v 0.083528 -1.281157 -0.050039
v -0.000171 -1.399475 0.000102
v -0.016892 -1.375812 -0.016642
v -0.000171 -1.352148 0.000102
v 0.016550 -1.375812 0.016846
v -0.083893 -1.281157 0.083708
v -0.083870 -1.281157 0.050242
v -0.050404 -1.281157 0.050265
v -0.050427 -1.281157 0.083731
v -0.000171 -1.027922 0.000102
v 0.013608 -1.051586 -0.019136
v -0.000171 -1.075250 0.000102
v -0.013950 -1.051586 0.019340
v 0.096020 -1.146241 0.068997
v 0.090561 -1.146241 0.035980
v 0.057544 -1.146241 0.041439
v 0.063003 -1.146241 0.074456
v -0.000171 -1.264559 0.000102
v 0.013608 -1.240896 -0.019136
v -0.000171 -1.217232 0.000102
v -0.013950 -1.240896 0.019340
v -0.096362 -1.146241 -0.068793
v -0.063345 -1.146241 -0.074252
v -0.057886 -1.146241 -0.041235
v -0.090903 -1.146241 -0.035776
v -0.000171 -0.891128 0.000102
v -0.022894 -0.914791 -0.006503
v -0.000171 -0.938455 0.000102
v 0.022552 -0.914791 0.006707
v 0.032854 -1.009446 -0.113514
v 0.003526 -1.009446 -0.097396
v 0.019644 -1.009446 -0.068068
v 0.048972 -1.009446 -0.084186
v -0.000171 -1.127765 0.000102
v -0.022894 -1.104101 -0.006503
v -0.000171 -1.080438 0.000102
v 0.022552 -1.104101 0.006707
v -0.033196 -1.009446 0.113718
v -0.049314 -1.009446 0.084390
v -0.019986 -1.009446 0.068272
v -0.003868 -1.009446 0.097600
v -0.000171 -0.760065 0.000102
v 0.021631 -0.783728 -0.009099
v -0.000171 -0.807392 0.000102
v -0.021973 -0.783728 0.009303
v 0.045833 -0.878383 0.109111
v 0.058434 -0.878383 0.078108
v 0.027432 -0.878383 0.065507
v 0.014831 -0.878383 0.096510
v -0.000171 -0.996702 0.000102
v 0.021631 -0.973038 -0.009099
v -0.000171 -0.949375 0.000102
v -0.021973 -0.973038 0.009303
v -0.046175 -0.878383 -0.108907
v -0.015172 -0.878383 -0.096306
v -0.027773 -0.878383 -0.065303
v -0.058776 -0.878383 -0.077904
v -0.000171 -0.627151 0.000102
v -0.005696 -0.650815 -0.022908
v -0.000171 -0.674479 0.000102
v 0.005354 -0.650815 0.023112
v 0.114878 -0.745470 -0.027522
v 0.086343 -0.745470 -0.045007
v 0.068858 -0.745470 -0.016472
v 0.097393 -0.745470 0.001013
v -0.000171 -0.863789 0.000102
v -0.005696 -0.840125 -0.022908
v -0.000171 -0.816461 0.000102
v 0.005354 -0.840125 0.023112
v -0.115220 -0.745470 0.027725
v -0.097735 -0.745470 -0.000809
v -0.069200 -0.745470 0.016676
v -0.086685 -0.745470 0.045211
v -0.000171 -0.488517 0.000102
v 0.013608 -0.512181 -0.019136
v -0.000171 -0.535844 0.000102
v -0.013950 -0.512181 0.019340
v 0.096020 -0.606835 0.068997
v 0.090561 -0.606835 0.035980
v 0.057544 -0.606835 0.041439
v 0.063003 -0.606835 0.074456
v -0.000171 -0.725154 0.000102
v 0.013608 -0.701490 -0.019136
v -0.000171 -0.677827 0.000102
v -0.013950 -0.701490 0.019340
v -0.096362 -0.606835 -0.068793
v -0.063345 -0.606835 -0.074252
v -0.057886 -0.606835 -0.041235
v -0.090903 -0.606835 -0.035776
v -0.000171 -0.351723 0.000102
v -0.022894 -0.375386 -0.006503
v -0.000171 -0.399050 0.000102
v 0.022552 -0.375386 0.006707
v 0.032854 -0.470041 -0.113514
v 0.003526 -0.470041 -0.097396
v 0.019644 -0.470041 -0.068068
v 0.048972 -0.470041 -0.084186
v -0.000171 -0.588360 0.000102
v -0.022894 -0.564696 -0.006503
v -0.000171 -0.541032 0.000102
v 0.022552 -0.564696 0.006707
v -0.033196 -0.470041 0.113718
v -0.049314 -0.470041 0.084390
v -0.019986 -0.470041 0.068272
v -0.003868 -0.470041 0.097600
v -0.000171 -0.220660 0.000102
v 0.021631 -0.244323 -0.009099
v -0.000171 -0.267987 0.000102
v -0.021973 -0.244323 0.009303
v 0.045833 -0.338978 0.109111
v 0.058434 -0.338978 0.078108
v 0.027432 -0.338978 0.065507
v 0.014831 -0.338978 0.096510
v -0.000171 -0.457297 0.000102
v 0.021631 -0.433633 -0.009099
v -0.000171 -0.409969 0.000102
v -0.021973 -0.433633 0.009303
v -0.046175 -0.338978 -0.108907
v -0.015172 -0.338978 -0.096306
v -0.027773 -0.338978 -0.065303
v -0.058776 -0.338978 -0.077904
v -0.000171 -0.087746 0.000102
v -0.005696 -0.111410 -0.022908
v -0.000171 -0.135074 0.000102
v 0.005354 -0.111410 0.023112
v 0.114878 -0.206065 -0.027522
v 0.086343 -0.206065 -0.045007
v 0.068858 -0.206065 -0.016472
v 0.097393 -0.206065 0.001013
v -0.000171 -0.324383 0.000102
v -0.005696 -0.300720 -0.022908
v -0.000171 -0.277056 0.000102
v 0.005354 -0.300720 0.023112
v -0.115220 -0.206065 0.027725
v -0.097735 -0.206065 -0.000809
v -0.069200 -0.206065 0.016676
v -0.086685 -0.206065 0.045211
v 0.000912 -0.068557 0.000000
v -0.293372 -0.068557 0.208278
v 0.295197 -0.068557 0.208278
v -0.293372 -0.068557 -0.208278
v 0.295197 -0.068557 -0.208278
v -0.360695 0.012171 0.255925
v 0.362520 0.012171 0.255925
v -0.360695 0.012171 -0.255925
v 0.362520 0.012171 -0.255925
v 0.000000 -0.066385 -0.118319
v -0.023664 -0.066385 -0.094655
v 0.000000 -0.066385 -0.070991
v 0.023664 -0.066385 -0.094655
v 0.000000 -0.184704 -0.000000
v -0.023664 -0.161040 -0.000000
v 0.000000 -0.137376 -0.000000
v 0.023664 -0.161040 -0.000000
v 0.000000 -0.066385 0.118319
v -0.023664 -0.066385 0.094655
v 0.000000 -0.066385 0.070991
v 0.023664 -0.066385 0.094655
vn -0.3558 0.8639 -0.3563
vn 0.3563 0.8639 -0.3558
vn 0.3558 0.8639 0.3563
vn -0.3563 0.8639 0.3558
vn -0.0000 -1.0000 -0.0000
vn 0.7051 -0.0662 0.7060
vn -0.3429 -0.8747 0.3425
vn -0.7051 -0.0662 -0.7060
vn -0.7060 -0.0662 0.7051
vn 0.7060 -0.0662 -0.7051
vn 0.4231 0.0397 0.9052
vn -0.9046 0.0397 -0.4243
vn -0.0000 1.0000 -0.0000
vn -0.9052 0.0397 0.4231
vn 0.4243 0.0397 -0.9046
vn 0.9046 0.0397 0.4243
vn -0.4231 0.0397 -0.9052
vn -0.4243 0.0397 0.9046
vn 0.9052 0.0397 -0.4231
vn -0.4336 0.7902 0.4330
vn -0.3425 -0.8747 -0.3429
vn 0.3425 -0.8747 0.3429
vn 0.3429 -0.8747 -0.3425
vn 0.4336 0.7902 -0.4330
vn 0.4330 0.7902 0.4336
vn -0.4330 0.7902 -0.4336
vn 0.5435 0.6404 -0.5427
vn 0.5443 0.6377 0.5451
vn -0.5425 0.6408 -0.5432
vn -0.5448 0.6381 0.5441
vn 0.1628 0.9731 0.1630
vn -0.1969 0.9604 -0.1972
vn -0.1667 0.9718 0.1665
vn 0.1921 0.9624 -0.1918
vn -0.1281 -0.9835 0.1279
vn 0.1281 -0.9835 -0.1279
vn 0.1279 -0.9835 0.1281
vn -0.1279 -0.9835 -0.1281
vn 0.4164 0.8080 0.4169
vn -0.4164 0.8080 -0.4169
vn -0.4169 0.8080 0.4164
vn 0.4169 0.8080 -0.4164
vn 0.0006 0.5774 -0.8165
vn -0.8165 -0.5774 -0.0006
vn -0.0006 -0.5774 0.8165
vn 0.8165 0.5774 0.0006
vn 0.0006 -0.5774 -0.8165
vn -0.8165 0.5774 -0.0006
vn -0.0006 0.5773 0.8165
vn 0.8165 -0.5774 0.0006
vn -0.8165 -0.5773 -0.0006
vn 0.0006 0.5773 -0.8165
vn -0.8165 0.5773 -0.0006
vn 0.0006 -0.5773 -0.8165
vn -0.0006 0.5774 0.8165
vn 0.8056 0.5774 -0.1332
vn -0.1332 -0.5774 -0.8056
vn -0.8056 -0.5773 0.1332
vn 0.1332 0.5774 0.8056
vn 0.8056 -0.5774 -0.1332
vn -0.1332 0.5774 -0.8056
vn -0.8056 0.5773 0.1332
vn 0.1332 -0.5774 0.8056
vn 0.8056 0.5773 -0.1332
vn -0.8056 -0.5774 0.1332
vn 0.8056 -0.5773 -0.1332
vn -0.3933 0.5774 -0.7156
vn -0.7156 -0.5773 0.3933
vn 0.3933 -0.5773 0.7156
vn 0.7156 0.5774 -0.3933
vn -0.3933 -0.5774 -0.7156
vn -0.7156 0.5774 0.3933
vn 0.3933 0.5773 0.7156
vn 0.7156 -0.5774 -0.3933
vn -0.7156 -0.5774 0.3933
vn -0.3933 0.5773 -0.7156
vn 0.7156 0.5773 -0.3933
vn 0.3932 -0.5774 0.7156
vn -0.3933 -0.5773 -0.7156
vn 0.3933 0.5774 0.7156
vn 0.7564 0.5774 0.3074
vn 0.3074 -0.5773 -0.7564
vn -0.7564 -0.5774 -0.3074
vn -0.3074 0.5774 0.7564
vn 0.7564 -0.5773 0.3074
vn 0.3074 0.5774 -0.7564
vn -0.7564 0.5774 -0.3074
vn -0.3074 -0.5774 0.7564
vn 0.3074 -0.5774 -0.7564
vn -0.7564 -0.5773 -0.3074
vn -0.3074 -0.5773 0.7564
vn 0.4266 0.5774 -0.6962
vn -0.6962 -0.5773 -0.4266
vn -0.4266 -0.5774 0.6962
vn 0.6962 0.5774 0.4266
vn 0.4266 -0.5774 -0.6962
vn -0.6962 0.5773 -0.4266
vn -0.4266 0.5773 0.6962
vn 0.6962 -0.5774 0.4266
vn -0.6962 -0.5774 -0.4266
vn 0.4266 0.5773 -0.6962
vn 0.6962 0.5773 0.4266
vn -0.6962 0.5774 -0.4266
vn 0.4266 -0.5773 -0.6962
vn 0.6962 -0.5773 0.4266
vn -0.4266 0.5774 0.6962
vn -0.1332 -0.5773 -0.8056
vn -0.8056 0.5774 0.1332
vn 0.3933 -0.5774 0.7156
vn 0.7156 -0.5773 -0.3933
vn 0.7564 -0.5774 0.3074
vn 0.7680 -0.6405 -0.0000
vn -0.7680 -0.6405 -0.0000
vn -0.0000 -0.5083 -0.8612
vn -0.0000 -0.5083 0.8612
vn -0.5773 -0.5774 -0.5774
vn -0.5774 0.5773 0.5773
vn 0.5774 0.5773 0.5773
vn 0.5773 -0.5774 -0.5774
vn -0.5773 -0.5774 0.5774
vn -0.5774 0.5773 -0.5773
vn 0.5774 0.5773 -0.5773
vn 0.5773 -0.5774 0.5774
vt 0.304969 0.076943
vt 0.315500 0.083081
vt 0.364643 0.083081
vt 0.375174 0.076943
vt 0.365207 0.091591
vt 0.369957 0.093027
vt 0.310921 0.093027
vt 0.295108 0.075485
vt 0.385770 0.075485
vt 0.309857 0.168176
vt 0.310422 0.159666
vt 0.370285 0.168176
vt 0.364242 0.159666
vt 0.359729 0.091591
vt 0.315900 0.159666
vt 0.320414 0.091591
vt 0.323525 0.091591
vt 0.319011 0.159666
vt 0.195755 0.075665
vt 0.290002 0.075665
vt 0.290002 0.168883
vt 0.195755 0.168883
vt 0.361131 0.159666
vt 0.356617 0.091591
vt 0.314935 0.091591
vt 0.369721 0.159666
vt 0.295108 0.075485
vt 0.385770 0.075485
vt 0.373020 0.095280
vt 0.307858 0.095280
vt 0.327660 0.142778
vt 0.353381 0.142778
vt 0.346318 0.146126
vt 0.333423 0.146126
vt 0.352813 0.148520
vt 0.326928 0.148520
vt 0.339871 0.167417
vt 0.339838 0.164546
vt 0.384271 0.120113
vt 0.375384 0.120113
vt 0.339838 0.155659
vt 0.366498 0.120113
vt 0.339838 0.146773
vt 0.339838 0.075680
vt 0.339838 0.084567
vt 0.339838 0.093453
vt 0.295405 0.120113
vt 0.304292 0.120113
vt 0.313178 0.120113
vt 0.336142 0.078047
vt 0.314225 0.078047
vt 0.370678 0.078047
vt 0.350072 0.078047
vt 0.371979 0.078047
vt 0.336132 0.078047
vt 0.315525 0.078047
vt 0.350062 0.078047
vt 0.385109 0.078047
vt 0.301095 0.078047
vt 0.385109 0.078047
s 0
f 1/1/1 2/2/1 4/2/1 3/1/1
f 3/1/2 4/2/2 8/3/2 7/4/2
f 7/4/3 8/3/3 6/3/3 5/4/3
f 5/4/4 6/3/4 2/2/4 1/1/4
f 3/1/5 7/4/5 5/4/5 1/1/5
f 6/3/6 8/3/6 33/5/6 34/5/6
f 11/6/7 10/7/7 38/8/7 39/9/7
f 9/10/8 10/10/8 24/11/8 23/11/8
f 6/3/9 12/12/9 15/13/9 13/14/9
f 4/2/10 10/10/10 29/15/10 27/16/10
f 16/15/11 14/16/11 18/17/11 20/18/11
f 12/12/9 9/10/9 16/15/9 15/13/9
f 2/2/9 6/3/9 13/14/9 14/16/9
f 9/10/9 2/2/9 14/16/9 16/15/9
f 18/19/9 17/20/9 19/21/9 20/22/9
f 15/13/5 16/15/5 20/18/5 19/23/5
f 13/14/12 15/13/12 19/23/12 17/24/12
f 14/16/13 13/14/13 17/24/13 18/17/13
f 22/25/13 21/25/13 18/17/13 25/17/13
f 10/10/8 4/2/8 22/25/8 24/11/8
f 4/2/8 2/2/8 21/25/8 22/25/8
f 2/2/8 9/10/8 23/11/8 21/25/8
f 25/19/8 18/20/8 20/21/8 26/22/8
f 24/11/14 22/25/14 25/17/14 26/18/14
f 23/11/5 24/11/5 26/18/5 20/18/5
f 21/25/15 23/11/15 20/18/15 18/17/15
f 28/14/13 27/16/13 25/17/13 31/24/13
f 10/10/10 11/12/10 30/13/10 29/15/10
f 8/3/10 4/2/10 27/16/10 28/14/10
f 11/12/10 8/3/10 28/14/10 30/13/10
f 31/19/10 25/20/10 26/21/10 32/22/10
f 27/16/16 29/15/16 26/18/16 25/17/16
f 29/15/5 30/13/5 32/23/5 26/18/5
f 30/13/17 28/14/17 31/24/17 32/23/17
f 33/5/18 35/26/18 32/23/18 31/24/18
f 12/12/6 6/3/6 34/5/6 36/26/6
f 8/3/6 11/12/6 35/26/6 33/5/6
f 11/12/6 12/12/6 36/26/6 35/26/6
f 17/19/6 31/20/6 32/21/6 19/22/6
f 34/5/13 33/5/13 31/24/13 17/24/13
f 36/26/19 34/5/19 17/24/19 19/23/19
f 35/26/5 36/26/5 19/23/5 32/23/5
f 37/27/20 40/28/20 44/29/20 41/30/20
f 12/6/21 11/6/21 39/9/21 40/28/21
f 10/7/22 9/7/22 37/27/22 38/8/22
f 9/7/23 12/6/23 40/28/23 37/27/23
f 39/9/24 38/8/24 42/30/24 43/29/24
f 40/28/25 39/9/25 43/29/25 44/29/25
f 38/8/26 37/27/26 41/30/26 42/30/26
f 43/29/27 42/30/27 46/31/27 47/32/27
f 44/29/28 43/29/28 47/32/28 48/32/28
f 42/30/29 41/30/29 45/31/29 46/31/29
f 41/30/30 44/29/30 48/32/30 45/31/30
f 48/32/31 47/32/31 51/33/31 52/33/31
f 46/31/32 45/31/32 49/34/32 50/34/32
f 45/31/33 48/32/33 52/33/33 49/34/33
f 47/32/34 46/31/34 50/34/34 51/33/34
f 49/34/35 52/33/35 56/35/35 53/36/35
f 51/33/36 50/34/36 54/36/36 55/35/36
f 52/33/37 51/33/37 55/35/37 56/35/37
f 50/34/38 49/34/38 53/36/38 54/36/38
f 56/35/39 55/35/39 57/37/39
f 54/36/40 53/36/40 57/37/40
f 53/36/41 56/35/41 57/37/41
f 55/35/42 54/36/42 57/37/42
f 58/38/43 62/39/43 63/40/43 59/41/43
f 59/41/44 63/40/44 64/42/44 60/43/44
f 60/43/45 64/42/45 65/40/45 61/41/45
f 61/41/46 65/40/46 62/39/46 58/38/46
f 62/39/47 66/44/47 67/45/47 63/40/47
f 63/40/48 67/45/48 68/46/48 64/42/48
f 64/42/49 68/46/49 69/45/49 65/40/49
f 65/40/50 69/45/50 66/44/50 62/39/50
f 66/44/51 70/47/51 71/48/51 67/45/51
f 67/45/52 71/48/52 72/49/52 68/46/52
f 68/46/46 72/49/46 73/48/46 69/45/46
f 69/45/45 73/48/45 70/47/45 66/44/45
f 70/47/53 58/38/53 59/41/53 71/48/53
f 71/48/54 59/41/54 60/43/54 72/49/54
f 72/49/50 60/43/50 61/41/50 73/48/50
f 73/48/55 61/41/55 58/38/55 70/47/55
f 74/38/56 78/39/56 79/40/56 75/41/56
f 75/41/57 79/40/57 80/42/57 76/43/57
f 76/43/58 80/42/58 81/40/58 77/41/58
f 77/41/59 81/40/59 78/39/59 74/38/59
f 78/39/60 82/44/60 83/45/60 79/40/60
f 79/40/61 83/45/61 84/46/61 80/42/61
f 80/42/62 84/46/62 85/45/62 81/40/62
f 81/40/63 85/45/63 82/44/63 78/39/63
f 82/44/57 86/47/57 87/48/57 83/45/57
f 83/45/64 87/48/64 88/49/64 84/46/64
f 84/46/59 88/49/59 89/48/59 85/45/59
f 85/45/65 89/48/65 86/47/65 82/44/65
f 86/47/61 74/38/61 75/41/61 87/48/61
f 87/48/66 75/41/66 76/43/66 88/49/66
f 88/49/63 76/43/63 77/41/63 89/48/63
f 89/48/62 77/41/62 74/38/62 86/47/62
f 90/38/67 94/39/67 95/40/67 91/41/67
f 91/41/68 95/40/68 96/42/68 92/43/68
f 92/43/69 96/42/69 97/40/69 93/41/69
f 93/41/70 97/40/70 94/39/70 90/38/70
f 94/39/71 98/44/71 99/45/71 95/40/71
f 95/40/72 99/45/72 100/46/72 96/42/72
f 96/42/73 100/46/73 101/45/73 97/40/73
f 97/40/74 101/45/74 98/44/74 94/39/74
f 98/44/75 102/47/75 103/48/75 99/45/75
f 99/45/76 103/48/76 104/49/76 100/46/76
f 100/46/77 104/49/77 105/48/77 101/45/77
f 101/45/78 105/48/78 102/47/78 98/44/78
f 102/47/72 90/38/72 91/41/72 103/48/72
f 103/48/79 91/41/79 92/43/79 104/49/79
f 104/49/74 92/43/74 93/41/74 105/48/74
f 105/48/80 93/41/80 90/38/80 102/47/80
f 106/38/81 110/39/81 111/40/81 107/41/81
f 107/41/82 111/40/82 112/42/82 108/43/82
f 108/43/83 112/42/83 113/40/83 109/41/83
f 109/41/84 113/40/84 110/39/84 106/38/84
f 110/39/85 114/44/85 115/45/85 111/40/85
f 111/40/86 115/45/86 116/46/86 112/42/86
f 112/42/87 116/46/87 117/45/87 113/40/87
f 113/40/88 117/45/88 114/44/88 110/39/88
f 114/44/89 118/47/89 119/48/89 115/45/89
f 115/45/81 119/48/81 120/49/81 116/46/81
f 116/46/84 120/49/84 121/48/84 117/45/84
f 117/45/90 121/48/90 118/47/90 114/44/90
f 118/47/86 106/38/86 107/41/86 119/48/86
f 119/48/85 107/41/85 108/43/85 120/49/85
f 120/49/91 108/43/91 109/41/91 121/48/91
f 121/48/87 109/41/87 106/38/87 118/47/87
f 122/38/92 126/39/92 127/40/92 123/41/92
f 123/41/93 127/40/93 128/42/93 124/43/93
f 124/43/94 128/42/94 129/40/94 125/41/94
f 125/41/95 129/40/95 126/39/95 122/38/95
f 126/39/96 130/44/96 131/45/96 127/40/96
f 127/40/97 131/45/97 132/46/97 128/42/97
f 128/42/98 132/46/98 133/45/98 129/40/98
f 129/40/99 133/45/99 130/44/99 126/39/99
f 130/44/100 134/47/100 135/48/100 131/45/100
f 131/45/101 135/48/101 136/49/101 132/46/101
f 132/46/102 136/49/102 137/48/102 133/45/102
f 133/45/94 137/48/94 134/47/94 130/44/94
f 134/47/103 122/38/103 123/41/103 135/48/103
f 135/48/104 123/41/104 124/43/104 136/49/104
f 136/49/105 124/43/105 125/41/105 137/48/105
f 137/48/106 125/41/106 122/38/106 134/47/106
f 138/38/56 142/39/56 143/40/56 139/41/56
f 139/41/107 143/40/107 144/42/107 140/43/107
f 140/43/65 144/42/65 145/40/65 141/41/65
f 141/41/59 145/40/59 142/39/59 138/38/59
f 142/39/60 146/44/60 147/45/60 143/40/60
f 143/40/61 147/45/61 148/46/61 144/42/61
f 144/42/62 148/46/62 149/45/62 145/40/62
f 145/40/63 149/45/63 146/44/63 142/39/63
f 146/44/57 150/47/57 151/48/57 147/45/57
f 147/45/64 151/48/64 152/49/64 148/46/64
f 148/46/59 152/49/59 153/48/59 149/45/59
f 149/45/65 153/48/65 150/47/65 146/44/65
f 150/47/61 138/38/61 139/41/61 151/48/61
f 151/48/66 139/41/66 140/43/66 152/49/66
f 152/49/63 140/43/63 141/41/63 153/48/63
f 153/48/108 141/41/108 138/38/108 150/47/108
f 154/38/67 158/39/67 159/40/67 155/41/67
f 155/41/68 159/40/68 160/42/68 156/43/68
f 156/43/109 160/42/109 161/40/109 157/41/109
f 157/41/70 161/40/70 158/39/70 154/38/70
f 158/39/71 162/44/71 163/45/71 159/40/71
f 159/40/72 163/45/72 164/46/72 160/42/72
f 160/42/80 164/46/80 165/45/80 161/40/80
f 161/40/74 165/45/74 162/44/74 158/39/74
f 162/44/75 166/47/75 167/48/75 163/45/75
f 163/45/76 167/48/76 168/49/76 164/46/76
f 164/46/70 168/49/70 169/48/70 165/45/70
f 165/45/109 169/48/109 166/47/109 162/44/109
f 166/47/72 154/38/72 155/41/72 167/48/72
f 167/48/79 155/41/79 156/43/79 168/49/79
f 168/49/110 156/43/110 157/41/110 169/48/110
f 169/48/80 157/41/80 154/38/80 166/47/80
f 170/38/81 174/39/81 175/40/81 171/41/81
f 171/41/82 175/40/82 176/42/82 172/43/82
f 172/43/90 176/42/90 177/40/90 173/41/90
f 173/41/84 177/40/84 174/39/84 170/38/84
f 174/39/111 178/44/111 179/45/111 175/40/111
f 175/40/86 179/45/86 180/46/86 176/42/86
f 176/42/87 180/46/87 181/45/87 177/40/87
f 177/40/88 181/45/88 178/44/88 174/39/88
f 178/44/89 182/47/89 183/48/89 179/45/89
f 179/45/81 183/48/81 184/49/81 180/46/81
f 180/46/84 184/49/84 185/48/84 181/45/84
f 181/45/83 185/48/83 182/47/83 178/44/83
f 182/47/86 170/38/86 171/41/86 183/48/86
f 183/48/85 171/41/85 172/43/85 184/49/85
f 184/49/91 172/43/91 173/41/91 185/48/91
f 185/48/87 173/41/87 170/38/87 182/47/87
f 186/38/92 190/39/92 191/40/92 187/41/92
f 187/41/100 191/40/100 192/42/100 188/43/100
f 188/43/94 192/42/94 193/40/94 189/41/94
f 189/41/95 193/40/95 190/39/95 186/38/95
f 190/39/96 194/44/96 195/45/96 191/40/96
f 191/40/97 195/45/97 196/46/97 192/42/97
f 192/42/98 196/46/98 197/45/98 193/40/98
f 193/40/99 197/45/99 194/44/99 190/39/99
f 194/44/100 198/47/100 199/48/100 195/45/100
f 195/45/101 199/48/101 200/49/101 196/46/101
f 196/46/102 200/49/102 201/48/102 197/45/102
f 197/45/94 201/48/94 198/47/94 194/44/94
f 198/47/103 186/38/103 187/41/103 199/48/103
f 199/48/96 187/41/96 188/43/96 200/49/96
f 200/49/99 188/43/99 189/41/99 201/48/99
f 201/48/106 189/41/106 186/38/106 198/47/106
f 202/50/5 203/51/5 205/52/5
f 202/53/5 205/52/5 206/54/5
f 202/55/5 204/56/5 203/51/5
f 202/57/5 206/54/5 204/56/5
f 204/56/112 206/54/112 210/58/112 208/59/112
f 205/52/113 203/51/113 207/59/113 209/60/113
f 206/54/114 205/52/114 209/60/114 210/58/114
f 203/51/115 204/56/115 208/59/115 207/59/115
f 211/39/116 215/44/116 216/45/116 212/40/116
f 212/40/117 216/45/117 217/46/117 213/42/117
f 213/42/118 217/46/118 218/45/118 214/40/118
f 214/40/119 218/45/119 215/44/119 211/39/119
f 215/44/120 219/47/120 220/48/120 216/45/120
f 216/45/121 220/48/121 221/49/121 217/46/121
f 217/46/122 221/49/122 222/48/122 218/45/122
f 218/45/123 222/48/123 219/47/123 215/44/123
