# Blender 4.4.3
# www.blender.org
o SM_2D-StairsRailsSmooth_Stairs_V1.0
v 1.299842 5.027759 -1.998530
v 1.299842 5.128205 -1.998530
v 1.700158 5.027759 -1.998530
v 1.700158 5.128205 -1.998530
v 1.299842 1.527782 1.991570
v 1.299842 1.628228 1.991570
v 1.700158 1.527782 1.991569
v 1.700158 1.628228 1.991569
v 1.499999 5.104488 -1.998346
v 1.499999 3.894072 -1.998346
v 1.499999 1.526609 1.992094
v 1.499999 0.346609 1.992094
v 1.499999 5.104488 -1.998346
v 1.499999 3.894072 -1.998346
v 1.499999 1.526609 1.992094
v 1.499999 0.346609 1.992094
v -1.700158 5.027759 -1.998530
v -1.700158 5.128205 -1.998530
v -1.299842 5.027759 -1.998530
v -1.299842 5.128205 -1.998530
v -1.700158 1.527782 1.991570
v -1.700158 1.628228 1.991570
v -1.299842 1.527782 1.991569
v -1.299842 1.628228 1.991569
v -1.500001 5.104488 -1.998346
v -1.500001 3.894072 -1.998346
v -1.500001 1.526609 1.992094
v -1.500001 0.346609 1.992094
v -1.500001 5.104488 -1.998346
v -1.500001 3.894072 -1.998346
v -1.500001 1.526609 1.992094
v -1.500001 0.346609 1.992094
v -1.609630 0.012294 1.989585
v -1.609630 0.012294 -1.997165
v 1.609631 0.012294 1.989585
v 1.609631 0.012294 -1.997165
v -1.609630 0.404005 1.992961
v -1.609630 0.790255 1.992961
v -1.609630 0.790255 1.550196
v -1.609630 1.176505 1.550196
v -1.609630 1.176505 1.107431
v -1.609630 1.562755 1.107431
v -1.609630 1.562755 0.664666
v -1.609630 1.949005 0.664666
v -1.609630 1.949005 0.221900
v -1.609630 2.335255 0.221900
v -1.609630 2.335255 -0.220865
v -1.609630 2.721505 -0.220865
v -1.609630 2.721505 -0.663630
v -1.609630 3.107755 -0.663630
v -1.609630 3.107755 -1.106395
v -1.609630 3.494005 -1.106395
v -1.609630 3.494005 -1.549160
v -1.609630 3.883255 -1.549160
v -1.609630 3.883255 -1.991925
v 1.609631 0.404005 1.992961
v 1.609631 3.883255 -1.991925
v 1.609631 3.883255 -1.549160
v 1.609631 3.494005 -1.549160
v 1.609631 3.494005 -1.106395
v 1.609631 3.107755 -1.106395
v 1.609631 3.107755 -0.663630
v 1.609631 2.721505 -0.663630
v 1.609631 2.721505 -0.220865
v 1.609631 2.335255 -0.220865
v 1.609631 2.335255 0.221900
v 1.609631 1.949005 0.221900
v 1.609631 1.949005 0.664666
v 1.609631 1.562755 0.664666
v 1.609631 1.562755 1.107431
v 1.609631 1.176505 1.107431
v 1.609631 1.176505 1.550196
v 1.609631 0.790255 1.550196
v 1.609631 0.790255 1.992961
v -1.609630 -3.987706 -1.997165
v -1.609630 -3.987706 1.989585
v 1.609631 -3.987706 1.989585
v 1.609631 -3.987706 -1.997165
vn -0.0000 0.7518 0.6594
vn -1.0000 -0.0000 -0.0000
vn -0.0000 -0.7518 -0.6594
vn 1.0000 -0.0000 -0.0000
vn -0.0000 1.0000 -0.0000
vn -0.0000 -0.0000 1.0000
vn -0.0000 -0.0086 1.0000
vn -0.0000 -0.0000 -1.0000
vn -0.0000 0.0014 -1.0000
vn -0.0000 -1.0000 -0.0000
vt 0.991282 0.807911
vt 0.888317 0.807911
vt 0.888317 0.890553
vt 0.991282 0.890553
vt 0.973157 0.807911
vt 0.906442 0.807911
vt 0.973157 0.890553
vt 0.906442 0.890553
vt 0.639472 0.700731
vt 0.744559 0.610483
vt 0.744559 0.588377
vt 0.639472 0.669664
vt 0.639472 0.669203
vt 0.938238 0.958044
vt 0.942367 0.961645
vt 0.958930 0.939985
vt 0.946495 0.965247
vt 0.921756 0.939985
vt 0.958930 0.902688
vt 0.921756 0.902688
vt 0.977852 0.943910
vt 0.897914 0.943910
vt 0.898374 0.903353
vt 0.978312 0.903353
vt 0.897914 0.943910
vt 0.898374 0.903353
vt 0.978312 0.903353
vt 0.977852 0.943910
vt 0.952102 0.903638
vt 0.921923 0.903638
vt 0.921923 0.944369
vt 0.952102 0.944369
vt 0.952102 0.940697
vt 0.921923 0.940697
vt 0.921724 0.943638
vt 0.891168 0.953543
vt 0.896164 0.958539
vt 0.901423 0.953280
vt 0.973211 0.951439
vt 0.978207 0.956436
vt 0.983467 0.951176
vt 0.925853 0.947239
vt 0.906419 0.958276
vt 0.911678 0.953017
vt 0.916675 0.958013
vt 0.921934 0.952754
vt 0.926930 0.957750
vt 0.932189 0.952491
vt 0.937186 0.957487
vt 0.942445 0.952228
vt 0.947441 0.957224
vt 0.952700 0.951965
vt 0.957696 0.956961
vt 0.962956 0.951702
vt 0.967952 0.956698
vt 0.954752 0.972450
vt 0.958881 0.977012
vt 0.929981 0.950841
vt 0.934110 0.954442
vt 0.950624 0.968848
vt 0.967952 0.956698
vt 0.962956 0.951702
vt 0.921934 0.952754
vt 0.922095 0.933121
vt 0.945309 0.933121
vt 0.945309 0.961756
vt 0.922095 0.961756
vt 0.971986 0.903791
vt 0.922095 0.904277
vt 0.945309 0.904277
vt 0.921923 0.903200
vt 0.952102 0.903200
s 0
f 2/1/1 6/2/1 8/3/1 4/4/1
f 1/5/2 5/6/2 6/2/2 2/1/2
f 3/7/3 7/8/3 5/6/3 1/5/3
f 4/4/4 8/3/4 7/8/4 3/7/4
f 13/9/4 15/10/4 16/11/4 14/12/4
f 9/9/2 10/12/2 12/11/2 11/10/2
f 18/1/1 22/2/1 24/3/1 20/4/1
f 17/5/2 21/6/2 22/2/2 18/1/2
f 19/7/3 23/8/3 21/6/3 17/5/3
f 20/4/4 24/3/4 23/8/4 19/7/4
f 29/9/4 31/10/4 32/11/4 30/13/4
f 25/9/2 26/13/2 28/11/2 27/10/2
f 45/14/2 47/15/2 34/16/2
f 36/16/4 63/17/4 65/15/4
f 33/18/2 34/16/2 75/19/2 76/20/2
f 57/21/5 55/22/5 54/23/5 58/24/5
f 58/24/6 54/23/6 53/22/6 59/21/6
f 59/21/5 53/22/5 52/23/5 60/24/5
f 60/24/6 52/23/6 51/22/6 61/21/6
f 61/21/5 51/22/5 50/23/5 62/24/5
f 62/24/6 50/23/6 49/25/6 63/21/6
f 63/21/5 49/25/5 48/26/5 64/24/5
f 64/24/6 48/26/6 47/25/6 65/21/6
f 65/21/5 47/25/5 46/23/5 66/24/5
f 66/24/6 46/23/6 45/22/6 67/21/6
f 67/21/5 45/22/5 44/26/5 68/27/5
f 68/27/6 44/26/6 43/25/6 69/28/6
f 69/28/5 43/25/5 42/23/5 70/24/5
f 70/24/6 42/23/6 41/22/6 71/28/6
f 71/28/5 41/22/5 40/23/5 72/27/5
f 72/27/6 40/23/6 39/22/6 73/21/6
f 73/21/5 39/22/5 38/23/5 74/27/5
f 74/29/6 38/30/6 37/31/6 56/32/6
f 35/33/7 56/32/7 37/31/7 33/34/7
f 34/16/2 33/18/2 37/35/2
f 37/36/2 38/37/2 39/38/2
f 53/39/2 54/40/2 55/41/2
f 34/16/2 37/35/2 39/42/2
f 39/38/2 40/43/2 41/44/2
f 41/44/2 42/45/2 43/46/2
f 43/46/2 44/47/2 45/48/2
f 45/48/2 46/49/2 47/50/2
f 47/50/2 48/51/2 49/52/2
f 49/52/2 50/53/2 51/54/2
f 51/54/2 52/55/2 53/39/2
f 53/56/2 55/57/2 34/16/2
f 34/16/2 39/42/2 41/58/2
f 34/16/2 41/58/2 43/59/2
f 51/60/2 53/56/2 34/16/2
f 49/17/2 51/60/2 34/16/2
f 34/16/2 43/59/2 45/14/2
f 47/15/2 49/17/2 34/16/2
f 57/41/4 58/40/4 59/39/4
f 35/18/4 36/16/4 56/35/4
f 73/38/4 74/37/4 56/36/4
f 36/16/4 57/57/4 59/56/4
f 59/39/4 60/61/4 61/62/4
f 61/62/4 62/53/4 63/52/4
f 63/52/4 64/51/4 65/50/4
f 65/50/4 66/49/4 67/48/4
f 67/48/4 68/47/4 69/63/4
f 69/63/4 70/45/4 71/44/4
f 71/44/4 72/43/4 73/38/4
f 73/42/4 56/35/4 36/16/4
f 36/16/4 59/56/4 61/60/4
f 36/16/4 61/60/4 63/17/4
f 71/58/4 73/42/4 36/16/4
f 65/15/4 67/14/4 36/16/4
f 67/14/4 69/59/4 36/16/4
f 69/59/4 71/58/4 36/16/4
f 21/6/6 23/8/6 24/3/6 22/2/6
f 5/6/6 7/8/6 8/3/6 6/2/6
f 17/5/8 18/1/8 20/4/8 19/7/8
f 1/5/8 2/1/8 4/4/8 3/7/8
f 36/64/9 34/65/9 55/66/9 57/67/9
f 76/25/10 75/68/10 78/68/10 77/28/10
f 34/65/8 36/64/8 78/69/8 75/70/8
f 36/16/4 35/18/4 77/20/4 78/19/4
f 35/33/6 33/34/6 76/71/6 77/72/6
