# Blender 4.4.3
# www.blender.org
o SM_2D-Corner_Stairs_V1.0
v -3.000001 4.085313 0.000000
v -3.000001 4.085313 0.000000
v -3.200158 4.901240 0.000000
v -3.200158 4.998760 0.000000
v -2.799842 4.901240 0.000000
v -3.000001 4.901240 0.000000
v -3.000001 4.901240 0.000000
v -2.799842 4.998760 0.000000
v 0.200000 4.901240 1.281723
v 0.200000 4.998760 1.281723
v 0.200158 4.901240 1.683699
v 0.200158 4.998760 1.683699
v 1.202070 4.901240 1.479758
v 1.402070 4.001240 1.479758
v 1.402070 5.001240 1.479758
v -0.200158 4.901240 1.683700
v -0.200158 4.998760 1.683700
v 4.995847 7.607463 1.479758
v -0.200158 4.801240 1.901680
v -0.200158 4.898760 1.901680
v 0.200158 4.801240 1.901680
v 0.200158 4.898760 1.901680
v 4.995847 8.839885 1.479758
v -0.200158 1.001240 5.301681
v -0.200158 1.098760 5.301681
v 0.200158 1.001240 5.301680
v 0.200158 1.098760 5.301680
v -0.200158 0.901240 5.501681
v -0.200158 0.998760 5.501681
v 0.200158 0.901240 5.501680
v 0.200158 0.998760 5.501680
v -0.200158 0.901240 6.601681
v -0.200158 0.998760 6.601681
v 0.200158 0.901240 6.601680
v 0.200158 0.998760 6.601680
v -0.002193 4.901240 1.280601
v -0.201180 4.901240 1.479487
v -0.060769 4.901240 1.420912
v -0.201180 4.998760 1.479487
v -0.002193 4.998760 1.280601
v -0.060769 4.998760 1.420912
v 0.201035 4.901240 1.480719
v 0.201035 4.001240 1.480719
v 0.000000 4.901240 1.481681
v 0.000000 4.001240 1.481681
v -0.000001 4.901240 1.683699
v -0.000001 4.001240 1.701680
v -0.000001 4.801240 1.901680
v -0.000001 3.801240 1.901680
v -0.000001 1.001240 5.301680
v -0.000001 0.001240 5.301680
v -0.000001 0.901240 5.501680
v -0.000001 0.001240 5.501680
v -0.000001 0.901240 6.501680
v -0.000001 0.001240 6.501680
v -0.000001 0.001240 6.501680
v -0.000001 0.901240 6.501680
v -0.000001 0.001240 5.501680
v -0.000001 0.901240 5.501680
v -0.000001 0.001240 5.301680
v -0.000001 1.001240 5.301680
v -2.799842 4.901240 1.683699
v -2.799842 4.998760 1.683699
v -3.000001 4.001240 1.701680
v -3.000001 4.901240 1.683699
v -3.200158 4.901240 1.683700
v -3.200158 4.998760 1.683700
v -3.200158 4.801240 1.901680
v -3.200158 4.898760 1.901680
v -2.799842 4.801240 1.901680
v -2.799842 4.898760 1.901680
v -3.200158 1.001240 5.301681
v -3.200158 1.098760 5.301681
v -2.799842 1.001240 5.301680
v -2.799842 1.098760 5.301680
v -3.200158 0.901240 5.501681
v -3.200158 0.998760 5.501681
v -2.799842 0.901240 5.501680
v -2.799842 0.998760 5.501680
v -3.200158 0.901240 6.601681
v -3.200158 0.998760 6.601681
v -2.799842 0.901240 6.601680
v -2.799842 0.998760 6.601680
v -3.000001 4.901240 1.683699
v -3.000001 4.001240 1.701680
v -3.000001 4.801240 1.901680
v -3.000001 3.801240 1.901680
v -3.000001 1.001240 5.301680
v -3.000001 0.001240 5.301680
v -3.000001 0.901240 5.501680
v -3.000001 0.001240 5.501680
v -3.000001 0.901240 6.501680
v -3.000001 0.001240 6.501680
v -3.000001 4.801240 1.901680
v -3.000001 3.801240 1.901680
v -3.000001 1.001240 5.301680
v -3.000001 0.001240 5.301680
v -3.000001 0.901240 5.501680
v -3.000001 0.001240 5.501680
v -3.000001 0.901240 6.501680
v -3.000001 0.001240 6.501680
v -3.000001 4.001240 0.001680
v -3.000001 4.001240 0.001680
v -0.000001 3.801240 1.901680
v -0.000001 4.801240 1.901680
v -0.000001 4.001240 1.701680
v 4.995847 8.827102 1.279601
v 4.995847 8.924622 1.279601
v 4.995847 8.827102 1.679917
v 4.995847 8.924622 1.679917
v 1.402069 5.001240 1.279601
v 1.402069 5.098760 1.279601
v 1.402070 5.001240 1.679917
v 1.402070 5.098760 1.679917
v 1.202069 4.901240 1.279601
v 1.202069 4.998760 1.279601
v 1.202070 4.901240 1.679917
v 1.202070 4.998760 1.679917
v 0.202069 4.901240 1.279601
v 0.202069 4.998760 1.279601
v 0.202070 4.901240 1.679917
v 0.202070 4.998760 1.679917
v 4.995847 8.839885 1.479758
v 4.995847 7.607463 1.479758
v 1.402070 5.001240 1.479758
v 1.402070 4.001240 1.479758
v 1.202070 4.901240 1.479758
v 1.202070 4.001240 1.479758
v -0.000001 4.901240 1.683699
v 0.000000 4.001240 1.481681
v 0.000000 4.901240 1.481681
v 0.201035 4.001240 1.480719
v 0.201035 4.901240 1.480719
v 1.202070 4.001240 1.479758
v -2.798678 4.901240 -1.272309
v 1.202070 4.901240 -1.479758
v 1.402070 4.001240 -1.479758
v 1.402070 5.001240 -1.479758
v -2.798677 4.901240 -1.661155
v -2.798677 4.998760 -1.661155
v 4.995847 7.607463 -1.479758
v 4.995847 8.839885 -1.479758
v -3.201777 4.901240 -1.463190
v -3.002890 4.901240 -1.662177
v -3.061466 4.901240 -1.521766
v -3.002890 4.998760 -1.662177
v -3.201777 4.998760 -1.463190
v -3.061466 4.998760 -1.521766
v 0.201035 4.901240 -1.480719
v 0.201035 4.001240 -1.480719
v -3.000000 4.901240 -1.481681
v -3.000000 4.001240 -1.481681
v -2.799842 4.998760 -1.272309
v -3.000001 4.001240 -1.481680
v -3.000001 4.901240 -1.483699
v -3.200158 4.901240 -1.272309
v -3.200158 4.998760 -1.272309
v -3.000001 4.901240 -1.483699
v -3.000001 4.001240 -1.481680
v -3.000001 4.001240 -0.001680
v -3.000001 4.001240 -0.001680
v 4.995847 8.827102 -1.279601
v 4.995847 8.924622 -1.279601
v 4.995847 8.827102 -1.679917
v 4.995847 8.924622 -1.679917
v 1.402069 5.001240 -1.279601
v 1.402069 5.098760 -1.279601
v 1.402070 5.001240 -1.679917
v 1.402070 5.098760 -1.679917
v 1.202069 4.901240 -1.279601
v 1.202069 4.998760 -1.279601
v 1.202070 4.901240 -1.679917
v 1.202070 4.998760 -1.679917
v 4.995847 8.839885 -1.479758
v 4.995847 7.607463 -1.479758
v 1.402070 5.001240 -1.479758
v 1.402070 4.001240 -1.479758
v 1.202070 4.901240 -1.479758
v 1.202070 4.001240 -1.479758
v -3.000000 4.001240 -1.481681
v -3.000000 4.901240 -1.481681
v 0.201035 4.001240 -1.480719
v 0.201035 4.901240 -1.480719
v 1.202070 4.001240 -1.479758
v -3.337286 0.000000 -1.825707
v -3.337286 4.000000 0.000000
v 0.337289 4.000000 0.000000
v 1.400719 4.005177 0.000000
v 4.988498 0.049866 0.000000
v 1.402269 4.420289 0.000000
v 1.801595 4.418707 0.000000
v 1.803087 4.818033 0.000000
v 2.202412 4.816453 0.000000
v 2.203905 5.215777 0.000000
v 2.603229 5.214198 0.000000
v 2.604723 5.613522 0.000000
v 3.004045 5.611944 0.000000
v 3.005541 6.011267 0.000000
v 3.404862 6.009690 0.000000
v 3.406359 6.409011 0.000000
v 3.805679 6.407435 0.000000
v 3.807177 6.806756 0.000000
v 4.206496 6.805182 0.000000
v 4.207994 7.204500 0.000000
v 4.607313 7.202927 0.000000
v 4.608812 7.602245 0.000000
v 5.008130 7.600673 0.000000
v -3.337286 0.000000 5.500000
v 0.337289 0.000000 5.500000
v -3.337286 0.250000 5.500000
v -3.337286 4.000000 1.750000
v -3.337286 0.250000 5.125000
v -3.337286 0.625000 5.125000
v -3.337286 0.625000 4.750000
v -3.337286 1.000000 4.750000
v -3.337286 1.000000 4.375000
v -3.337286 1.375000 4.375000
v -3.337286 1.375000 4.000000
v -3.337286 1.750000 4.000000
v -3.337286 1.750000 3.625000
v -3.337286 2.125000 3.625000
v -3.337286 2.125000 3.250000
v -3.337286 2.500000 3.250000
v -3.337286 2.500000 2.875000
v -3.337286 2.875000 2.875000
v -3.337286 2.875000 2.500000
v -3.337286 3.250000 2.500000
v -3.337286 3.250000 2.125000
v -3.337286 3.625000 2.125000
v -3.337286 3.625000 1.750000
v 0.337289 4.000000 1.816818
v 0.337289 0.250000 5.500000
v 0.337289 3.725000 1.816818
v 0.337289 3.625000 2.125000
v 0.337289 3.250000 2.125000
v 0.337289 3.250000 2.500000
v 0.337289 2.875000 2.500000
v 0.337289 2.875000 2.875000
v 0.337289 2.500000 2.875000
v 0.337289 2.500000 3.250000
v 0.337289 2.125000 3.250000
v 0.337289 2.125000 3.625000
v 0.337289 1.750000 3.625000
v 0.337289 1.750000 4.000000
v 0.337289 1.375000 4.000000
v 0.337289 1.375000 4.375000
v 0.337289 1.000000 4.375000
v 0.337289 1.000000 4.750000
v 0.337289 0.625000 4.750000
v 0.337289 0.625000 5.125000
v 0.337289 0.250000 5.125000
v 4.988498 3.749866 1.816818
v 1.400719 4.005177 1.816818
v 4.988498 3.749866 -0.006201
v 5.008130 7.600673 1.816818
v 0.337289 0.025000 1.825000
v 4.988498 0.049866 1.825000
v 5.004372 5.648434 1.816818
v 1.402269 4.420288 1.816818
v 4.608812 7.602245 1.816818
v 4.607313 7.202928 1.816818
v 4.207994 7.204501 1.816818
v 4.206496 6.805182 1.816818
v 3.807177 6.806756 1.816818
v 3.805679 6.407436 1.816818
v 3.406359 6.409011 1.816818
v 3.404862 6.009690 1.816818
v 3.005540 6.011267 1.816818
v 3.004045 5.611944 1.816818
v 2.604723 5.613522 1.816818
v 2.603229 5.214199 1.816818
v 2.203904 5.215777 1.816818
v 2.202412 4.816453 1.816818
v 1.803086 4.818033 1.816818
v 1.801595 4.418707 1.816818
v -3.337286 4.000000 -1.750000
v -3.337286 3.725000 -1.815999
v 0.337289 4.000000 -1.816818
v 0.337289 3.725000 -1.816818
v 4.988498 3.749866 -1.816818
v 1.400719 4.005177 -1.816818
v 5.004372 5.648434 0.000000
v 5.008130 7.600673 -1.816818
v 0.337289 0.002372 -1.825000
v 4.988498 0.027238 -1.825000
v 5.004372 5.648434 -1.816818
v 1.402269 4.420288 -1.816818
v 4.608812 7.602245 -1.816818
v 4.607313 7.202928 -1.816818
v 4.207994 7.204501 -1.816818
v 4.206496 6.805182 -1.816818
v 3.807177 6.806756 -1.816818
v 3.805679 6.407436 -1.816818
v 3.406359 6.409011 -1.816818
v 3.404862 6.009690 -1.816818
v 3.005540 6.011267 -1.816818
v 3.004045 5.611944 -1.816818
v 2.604723 5.613522 -1.816818
v 2.603229 5.214199 -1.816818
v 2.203904 5.215777 -1.816818
v 2.202412 4.816453 -1.816818
v 1.803086 4.818033 -1.816818
v 1.801595 4.418707 -1.816818
v 5.095847 8.827102 1.279601
v 5.095847 8.924622 1.279601
v 5.095847 8.924622 1.679917
v 5.095847 8.827102 1.679917
v 5.095847 8.827102 -1.279601
v 5.095847 8.924622 -1.279601
v 5.095847 8.924622 -1.679917
v 5.095847 8.827102 -1.679917
vn -0.0000 -1.0000 -0.0000
vn -0.0000 -0.9089 -0.4170
vn -0.0000 1.0000 -0.0000
vn -1.0000 -0.0000 0.0050
vn 1.0000 -0.0000 -0.0000
vn -0.0000 0.9089 0.4170
vn -0.0000 0.6668 0.7452
vn -0.0000 -0.8944 -0.4472
vn -1.0000 -0.0000 -0.0000
vn -0.0000 -0.6668 -0.7452
vn -0.0000 0.8944 0.4472
vn -0.0000 -0.0000 1.0000
vn 0.0010 -0.0000 1.0000
vn -0.7069 -0.0000 -0.7073
vn 0.0056 -0.0000 -1.0000
vn -0.0048 -0.0000 -1.0000
vn -0.7289 0.6847 -0.0000
vn 0.4472 -0.8944 -0.0000
vn -0.0000 -0.0000 -1.0000
vn 0.7289 -0.6847 -0.0000
vn -0.4472 0.8944 -0.0000
vn -0.0010 -0.0000 -1.0000
vn 0.0048 -0.0000 1.0000
vn 0.0050 -0.0000 -1.0000
vn 0.0010 -0.0000 -1.0000
vn -0.7073 -0.0000 -0.7069
vn -1.0000 -0.0000 0.0065
vn -0.0003 -0.0000 1.0000
vn -0.0010 -0.0000 1.0000
vn 0.0003 -0.0000 -1.0000
vn -0.0182 -0.0000 0.9998
vn -0.0148 0.9893 0.1448
vn -0.0049 1.0000 -0.0000
vn -1.0000 0.0037 -0.0000
vn -0.0000 0.0022 1.0000
vn 0.0039 1.0000 -0.0000
vn -1.0000 0.0038 -0.0000
vn 0.0040 1.0000 -0.0000
vn -0.0091 0.1191 -0.9928
vn 1.0000 -0.0019 -0.0000
vn -0.0000 0.0022 -1.0000
vn -0.0000 0.0024 -1.0000
vn 1.0000 -0.0084 -0.0000
vt 0.936493 0.877150
vt 0.936510 0.808648
vt 0.958434 0.808487
vt 0.964717 0.832518
vt 0.991282 0.807911
vt 0.888317 0.807911
vt 0.888317 0.890553
vt 0.991282 0.890553
vt 0.914552 0.808487
vt 0.936476 0.808648
vt 0.908269 0.832518
vt 0.920186 0.806965
vt 0.951341 0.806965
vt 0.951341 0.810299
vt 0.920186 0.810299
vt 0.900579 0.879023
vt 0.983221 0.879023
vt 0.983221 0.897148
vt 0.900579 0.897148
vt 0.898479 0.807077
vt 0.981121 0.807077
vt 0.981121 0.873792
vt 0.898479 0.873792
vt 0.893337 0.877150
vt 0.893208 0.842551
vt 0.973157 0.807911
vt 0.906442 0.807911
vt 0.973157 0.890553
vt 0.906442 0.890553
vt 0.974255 0.814324
vt 0.891613 0.814324
vt 0.891613 0.806432
vt 0.974255 0.806432
vt 0.906442 0.807911
vt 0.973157 0.807911
vt 0.973157 0.890553
vt 0.906442 0.890553
vt 0.971715 0.881454
vt 0.971715 0.806704
vt 0.925229 0.806704
vt 0.925230 0.881454
vt 0.991282 0.815045
vt 0.888317 0.815045
vt 0.906442 0.815045
vt 0.973157 0.815045
vt 0.744559 0.602793
vt 0.749006 0.601417
vt 0.749006 0.579310
vt 0.744559 0.580686
vt 0.920886 0.887861
vt 0.968078 0.887861
vt 0.968078 0.892464
vt 0.920886 0.892464
vt 0.973157 0.892215
vt 0.906442 0.892215
vt 0.888317 0.892215
vt 0.991282 0.892215
vt 0.769254 0.601417
vt 0.769254 0.579310
vt 0.640622 0.700731
vt 0.745709 0.626261
vt 0.745709 0.604155
vt 0.640622 0.678625
vt 0.951341 0.826793
vt 0.920186 0.826793
vt 0.951341 0.814331
vt 0.920186 0.812865
vt 0.745646 0.601416
vt 0.750094 0.600040
vt 0.750094 0.577933
vt 0.745646 0.579309
vt 0.926653 0.807162
vt 0.973846 0.807162
vt 0.973846 0.876637
vt 0.926653 0.876637
vt 0.979778 0.842551
vt 0.951341 0.812865
vt 0.920186 0.814331
vt 0.628721 0.701012
vt 0.628721 0.678906
vt 0.631295 0.678906
vt 0.631295 0.701012
vt 0.635832 0.701012
vt 0.635832 0.678906
vt 0.640559 0.677248
vt 0.640559 0.699354
vt 0.770341 0.577933
vt 0.770341 0.600040
vt 0.979649 0.877150
vt 0.634745 0.701823
vt 0.639472 0.700542
vt 0.639472 0.678436
vt 0.634745 0.679717
vt 0.639472 0.700731
vt 0.639472 0.678625
vt 0.974255 0.814324
vt 0.652351 0.680000
vt 0.617950 0.680000
vt 0.617950 0.682065
vt 0.618280 0.702106
vt 0.652351 0.702106
vt 0.691334 0.702172
vt 0.691334 0.680065
vt 0.978312 0.969520
vt 0.898374 0.969520
vt 0.898374 0.914368
vt 0.978312 0.914368
vt 0.933807 0.936765
vt 0.941244 0.943831
vt 0.971986 0.903791
vt 0.897914 0.943910
vt 0.977852 0.943910
vt 0.898374 0.903353
vt 0.978312 0.903353
vt 0.897914 0.943910
vt 0.898374 0.903353
vt 0.978312 0.903353
vt 0.977852 0.943910
vt 0.896618 0.903791
vt 0.904056 0.908502
vt 0.896618 0.908502
vt 0.904056 0.915568
vt 0.911494 0.915568
vt 0.970995 0.979159
vt 0.971986 0.979159
vt 0.970995 0.972094
vt 0.963557 0.965028
vt 0.963557 0.972094
vt 0.911494 0.922633
vt 0.918931 0.922633
vt 0.918931 0.929699
vt 0.926369 0.929699
vt 0.926369 0.936765
vt 0.933807 0.943831
vt 0.941244 0.950897
vt 0.948682 0.950897
vt 0.948682 0.957962
vt 0.956119 0.957962
vt 0.956119 0.965028
vt 0.887508 0.944674
vt 0.998331 0.944674
vt 0.998331 0.945448
vt 0.887508 0.945448
vt 0.962191 0.958131
vt 0.957660 0.956661
vt 0.957660 0.951147
vt 0.908038 0.907039
vt 0.908038 0.903363
vt 0.913552 0.907039
vt 0.919065 0.912553
vt 0.913552 0.912553
vt 0.952146 0.951147
vt 0.952146 0.945634
vt 0.946633 0.945634
vt 0.946633 0.940120
vt 0.941119 0.940120
vt 0.941119 0.934607
vt 0.935606 0.934607
vt 0.935606 0.929093
vt 0.930092 0.929093
vt 0.930092 0.923580
vt 0.924579 0.923580
vt 0.924579 0.918066
vt 0.919065 0.918066
vt 0.998331 0.904771
vt 0.887509 0.904771
vt 0.922535 0.950803
vt 0.900828 0.950503
vt 0.900805 0.904995
vt 0.922512 0.905295
vt 0.950308 0.903731
vt 0.998331 0.949975
vt 0.887509 0.949975
vt 0.887509 0.907202
vt 0.998331 0.907202
vt 0.887509 0.946336
vt 0.998331 0.946336
vt 0.887509 0.909084
vt 0.998331 0.909084
vt 0.887509 0.946378
vt 0.998331 0.946378
vt 0.887509 0.907285
vt 0.998331 0.907285
vt 0.887509 0.942738
vt 0.998331 0.942738
vt 0.887509 0.905486
vt 0.998331 0.905486
vt 0.887509 0.944620
vt 0.998331 0.944620
vt 0.887509 0.905527
vt 0.998331 0.905527
vt 0.887509 0.944661
vt 0.998331 0.944661
vt 0.887509 0.905568
vt 0.998331 0.905568
vt 0.887509 0.945623
vt 0.998331 0.945623
vt 0.887509 0.905610
vt 0.998331 0.905609
vt 0.887509 0.945664
vt 0.998331 0.945664
vt 0.887509 0.905650
vt 0.998331 0.905650
vt 0.887509 0.943864
vt 0.998331 0.943864
vt 0.974370 0.936855
vt 0.967240 0.936853
vt 0.967213 0.937420
vt 0.960084 0.937418
vt 0.960057 0.937985
vt 0.952927 0.937983
vt 0.952900 0.938550
vt 0.945771 0.938548
vt 0.945744 0.939115
vt 0.938614 0.939113
vt 0.938588 0.939681
vt 0.931458 0.939678
vt 0.931431 0.940246
vt 0.924301 0.940244
vt 0.924275 0.940811
vt 0.917145 0.940809
vt 0.917118 0.941376
vt 0.909988 0.941374
vt 0.909961 0.941964
vt 0.886909 0.941971
vt 0.886909 0.942362
vt 0.957950 0.942327
vt 0.974303 0.939629
vt 0.990466 0.936962
vt 0.978312 0.948308
vt 0.977852 0.948281
vt 0.897914 0.948281
vt 0.898374 0.948308
vt 0.921953 0.945477
vt 0.935976 0.945492
vt 0.935960 0.960561
vt 0.921937 0.960546
vt 0.943562 0.950863
vt 0.943634 0.905030
vt 0.965341 0.904853
vt 0.965269 0.950686
vt 0.909961 0.946335
vt 0.886909 0.946733
vt 0.886909 0.946343
vt 0.957950 0.946698
vt 0.986604 0.904996
vt 0.986532 0.950863
vt 0.949999 0.945508
vt 0.949983 0.960576
vt 0.936023 0.902280
vt 0.936040 0.930838
vt 0.921969 0.930823
vt 0.921937 0.902265
vt 0.950015 0.930853
vt 0.950110 0.902121
s 0
f 11/1/1 16/2/1 37/3/1 38/4/1
f 21/5/2 19/6/2 16/7/2 11/8/2
f 39/9/3 17/10/3 12/1/3 41/11/3
f 37/12/4 16/13/4 17/14/4 39/15/4
f 12/16/5 22/17/5 21/18/5 11/19/5
f 17/20/6 20/21/6 22/22/6 12/23/6
f 10/24/3 40/25/3 41/11/3 12/1/3
f 20/5/7 25/6/7 27/7/7 22/8/7
f 26/5/8 30/6/8 28/7/8 24/8/8
f 19/26/9 24/27/9 25/6/9 20/5/9
f 21/28/10 26/29/10 24/27/10 19/26/10
f 16/30/9 19/31/9 20/32/9 17/33/9
f 25/34/11 29/35/11 31/36/11 27/37/11
f 34/38/1 32/39/1 28/40/1 30/41/1
f 24/42/9 28/43/9 29/44/9 25/45/9
f 22/8/5 27/7/5 26/29/5 21/28/5
f 15/46/12 13/47/12 134/48/12 14/49/12
f 31/50/5 35/51/5 34/52/5 30/53/5
f 27/54/5 31/55/5 30/56/5 26/57/5
f 13/47/13 133/58/13 132/59/13 134/48/13
f 23/60/12 15/61/12 14/62/12 18/63/12
f 32/12/12 34/13/12 35/64/12 33/65/12
f 28/12/9 32/13/9 33/66/9 29/67/9
f 61/68/5 59/69/5 58/70/5 60/71/5
f 29/72/3 33/73/3 35/74/3 31/75/3
f 36/76/1 38/4/1 37/3/1
f 39/9/3 41/11/3 40/25/3
f 36/12/14 37/13/14 39/77/14 40/67/14
f 9/12/15 36/13/15 40/77/15 10/78/15
f 42/79/16 43/80/16 45/81/16 44/82/16
f 46/83/9 47/84/9 49/85/9 48/86/9
f 44/82/9 45/81/9 47/84/9 46/83/9
f 48/86/9 49/85/9 51/71/9 50/68/9
f 52/69/9 53/70/9 55/87/9 54/88/9
f 50/68/9 51/71/9 53/70/9 52/69/9
f 11/1/1 38/4/1 36/76/1 9/89/1
f 70/5/2 68/6/2 66/7/2 62/8/2
f 65/90/5 94/91/5 95/92/5 64/93/5
f 63/16/5 71/17/5 70/18/5 62/19/5
f 67/20/6 69/21/6 71/22/6 63/23/6
f 69/5/7 73/6/7 75/7/7 71/8/7
f 74/5/8 78/6/8 76/7/8 72/8/8
f 68/26/9 72/27/9 73/6/9 69/5/9
f 70/28/10 74/29/10 72/27/10 68/26/10
f 66/30/9 68/31/9 69/32/9 67/33/9
f 73/34/11 77/35/11 79/36/11 75/37/11
f 82/38/1 80/39/1 76/40/1 78/41/1
f 72/42/9 76/43/9 77/44/9 73/45/9
f 71/8/5 75/7/5 74/29/5 70/28/5
f 79/50/5 83/51/5 82/52/5 78/53/5
f 75/54/5 79/55/5 78/56/5 74/57/5
f 96/46/5 98/47/5 99/48/5 97/49/5
f 80/12/12 82/13/12 83/64/12 81/65/12
f 94/94/5 96/46/5 97/49/5 95/95/5
f 76/12/9 80/13/9 81/66/9 77/67/9
f 98/47/5 100/58/5 101/59/5 99/48/5
f 77/72/3 81/73/3 83/74/3 79/75/3
f 84/90/9 85/93/9 87/92/9 86/91/9
f 86/94/9 87/95/9 89/49/9 88/46/9
f 90/47/9 91/48/9 93/59/9 92/58/9
f 88/46/9 89/49/9 91/48/9 90/47/9
f 63/16/5 62/19/5 5/19/5 8/16/5
f 67/20/3 63/23/3 8/23/3 4/20/3
f 66/30/9 67/33/9 4/33/9 3/96/9
f 62/8/1 66/7/1 3/7/1 5/8/1
f 85/97/5 103/98/5 2/99/5 6/100/5 84/101/5
f 65/101/9 7/100/9 1/99/9 102/98/9 64/97/9
f 59/69/5 57/88/5 56/87/5 58/70/5
f 108/5/17 112/6/17 114/7/17 110/8/17
f 113/5/18 117/6/18 115/7/18 111/8/18
f 107/26/19 111/27/19 112/6/19 108/5/19
f 109/28/20 113/29/20 111/27/20 107/26/20
f 112/34/21 116/35/21 118/36/21 114/37/21
f 121/38/1 119/39/1 115/40/1 117/41/1
f 111/42/19 115/43/19 116/44/19 112/45/19
f 110/8/12 114/7/12 113/29/12 109/28/12
f 118/50/12 122/51/12 121/52/12 117/53/12
f 114/54/12 118/55/12 117/56/12 113/57/12
f 105/86/5 61/68/5 60/71/5 104/85/5
f 119/12/9 121/13/9 122/64/9 120/65/9
f 131/82/5 129/83/5 106/84/5 130/81/5
f 115/12/19 119/13/19 120/66/19 116/67/19
f 129/83/5 105/86/5 104/85/5 106/84/5
f 116/72/3 120/73/3 122/74/3 118/75/3
f 123/60/19 124/63/19 126/62/19 125/61/19
f 127/47/22 128/48/22 43/59/22 42/58/22
f 125/46/19 126/49/19 128/48/19 127/47/19
f 133/79/23 131/82/23 130/81/23 132/80/23
f 135/1/1 145/4/1 144/3/1 139/2/1
f 146/9/3 148/11/3 153/1/3 140/10/3
f 144/12/24 146/15/24 140/14/24 139/13/24
f 157/24/3 153/1/3 148/11/3 147/25/3
f 138/46/19 137/49/19 184/48/19 136/47/19
f 136/47/25 184/48/25 182/59/25 183/58/25
f 142/60/19 141/63/19 137/62/19 138/61/19
f 143/76/1 144/3/1 145/4/1
f 146/9/3 147/25/3 148/11/3
f 143/12/26 147/67/26 146/77/26 144/13/26
f 156/12/27 157/78/27 147/77/27 143/13/27
f 149/79/28 151/102/28 152/103/28 150/80/28
f 135/1/1 156/89/1 143/76/1 145/4/1
f 153/16/5 8/16/5 5/19/5 135/19/5
f 157/20/3 4/20/3 8/23/3 153/23/3
f 156/30/9 3/96/9 4/33/9 157/33/9
f 135/8/1 5/8/1 3/7/1 156/7/1
f 159/97/5 158/101/5 6/100/5 2/99/5 161/98/5
f 155/101/9 154/97/9 160/98/9 1/99/9 7/100/9
f 163/5/17 165/8/17 169/7/17 167/6/17
f 168/5/18 166/8/18 170/7/18 172/6/18
f 162/26/12 163/5/12 167/6/12 166/27/12
f 164/28/20 162/26/20 166/27/20 168/29/20
f 167/34/21 169/37/21 173/36/21 171/35/21
f 139/38/1 172/41/1 170/40/1 135/39/1
f 166/42/12 167/45/12 171/44/12 170/43/12
f 165/8/19 164/28/19 168/29/19 169/7/19
f 173/50/19 172/53/19 139/52/19 140/51/19
f 169/54/19 168/57/19 172/56/19 173/55/19
f 170/12/12 171/67/12 153/66/12 135/13/12
f 171/72/3 173/75/3 140/74/3 153/73/3
f 110/8/12 109/28/12 307/28/12 306/8/12
f 174/60/12 176/61/12 177/62/12 175/63/12
f 178/47/29 149/58/29 150/59/29 179/48/29
f 176/46/12 178/47/12 179/48/12 177/49/12
f 183/79/30 182/80/30 180/103/30 181/102/30
f 187/104/3 186/105/3 211/106/3 231/107/3
f 220/108/9 222/109/9 185/110/9
f 231/107/31 211/106/31 230/111/31 233/112/31
f 233/112/32 230/111/32 229/113/32 234/114/32
f 234/114/12 229/113/12 228/111/12 235/112/12
f 235/112/3 228/111/3 227/113/3 236/114/3
f 236/114/12 227/113/12 226/111/12 237/112/12
f 237/112/3 226/111/3 225/113/3 238/114/3
f 238/114/12 225/113/12 224/115/12 239/112/12
f 239/112/3 224/115/3 223/116/3 240/114/3
f 240/114/12 223/116/12 222/115/12 241/112/12
f 241/112/3 222/115/3 221/113/3 242/114/3
f 242/114/12 221/113/12 220/111/12 243/112/12
f 243/112/3 220/111/3 219/116/3 244/117/3
f 244/117/12 219/116/12 218/115/12 245/118/12
f 245/118/3 218/115/3 217/113/3 246/114/3
f 246/114/12 217/113/12 216/111/12 247/118/12
f 247/118/3 216/111/3 215/113/3 248/117/3
f 248/117/12 215/113/12 214/111/12 249/112/12
f 249/112/3 214/111/3 213/113/3 250/117/3
f 250/117/12 213/113/12 212/111/12 251/118/12
f 251/118/3 212/111/3 210/113/3 232/114/3
f 209/118/12 232/114/12 210/113/12 208/115/12
f 185/110/9 208/119/9 212/120/9
f 208/119/9 210/121/9 212/120/9
f 212/120/9 213/122/9 214/123/9
f 211/124/9 186/125/9 230/126/9
f 186/125/9 185/110/9 230/126/9
f 228/127/9 229/128/9 230/126/9
f 185/110/9 212/120/9 214/123/9
f 214/123/9 215/129/9 216/130/9
f 216/130/9 217/131/9 218/132/9
f 218/132/9 219/133/9 220/108/9
f 220/108/9 221/134/9 222/109/9
f 222/109/9 223/135/9 224/136/9
f 224/136/9 225/137/9 226/138/9
f 226/138/9 227/139/9 228/127/9
f 228/127/9 230/126/9 185/110/9
f 185/110/9 214/123/9 216/130/9
f 185/110/9 216/130/9 218/132/9
f 226/138/9 228/127/9 185/110/9
f 224/136/9 226/138/9 185/110/9
f 185/110/9 218/132/9 220/108/9
f 222/109/9 224/136/9 185/110/9
f 187/140/33 231/141/33 253/142/33 188/143/33
f 233/144/5 234/145/5 235/146/5
f 232/147/5 209/148/5 251/149/5
f 249/150/5 250/151/5 251/149/5
f 235/146/5 236/152/5 237/153/5
f 237/153/5 238/154/5 239/155/5
f 239/155/5 240/156/5 241/157/5
f 241/157/5 242/158/5 243/159/5
f 243/159/5 244/160/5 245/161/5
f 245/161/5 246/162/5 247/163/5
f 247/163/5 248/164/5 249/150/5
f 188/143/34 253/142/34 259/165/34 190/166/34
f 252/167/35 233/168/35 256/169/35 257/170/35
f 245/161/5 247/163/5 256/171/5
f 255/172/36 207/173/36 206/174/36 260/175/36
f 260/175/37 206/174/37 205/176/37 261/177/37
f 261/177/36 205/176/36 204/178/36 262/179/36
f 262/179/37 204/178/37 203/180/37 263/181/37
f 263/181/36 203/180/36 202/182/36 264/183/36
f 264/183/34 202/182/34 201/184/34 265/185/34
f 265/185/36 201/184/36 200/186/36 266/187/36
f 266/187/34 200/186/34 199/188/34 267/189/34
f 267/189/36 199/188/36 198/190/36 268/191/36
f 268/191/34 198/190/34 197/192/34 269/193/34
f 269/193/38 197/192/38 196/194/38 270/195/38
f 270/195/34 196/194/34 195/196/34 271/197/34
f 271/197/38 195/196/38 194/198/38 272/199/38
f 272/199/34 194/198/34 193/200/34 273/201/34
f 273/201/38 193/200/38 192/202/38 274/203/38
f 274/203/34 192/202/34 191/204/34 275/205/34
f 275/205/38 191/204/38 190/166/38 259/165/38
f 255/206/12 260/207/12 261/208/12
f 261/208/12 262/209/12 263/210/12
f 263/210/12 264/211/12 265/212/12
f 265/212/12 266/213/12 267/214/12
f 267/214/12 268/215/12 269/216/12
f 269/216/12 270/217/12 271/218/12
f 271/218/12 272/219/12 273/220/12
f 273/220/12 274/221/12 275/222/12
f 275/222/12 259/223/12 253/224/12
f 253/224/12 231/225/12 233/226/12
f 252/227/12 258/228/12 269/216/12
f 258/228/12 255/229/12 261/208/12
f 253/224/12 233/226/12 252/227/12
f 273/220/12 275/222/12 252/227/12
f 275/222/12 253/224/12 252/227/12
f 269/216/12 271/218/12 252/227/12
f 271/218/12 273/220/12 252/227/12
f 267/214/12 269/216/12 258/228/12
f 261/208/12 263/210/12 258/228/12
f 263/210/12 265/212/12 258/228/12
f 265/212/12 267/214/12 258/228/12
f 241/157/5 243/159/5 256/171/5
f 243/159/5 245/161/5 256/171/5
f 239/155/5 241/157/5 256/171/5
f 237/153/5 239/155/5 256/171/5
f 256/171/5 233/144/5 235/146/5
f 251/149/5 209/148/5 256/171/5
f 249/150/5 251/149/5 256/171/5
f 256/171/5 235/146/5 237/153/5
f 247/163/5 249/150/5 256/171/5
f 187/104/3 278/107/3 276/106/3 186/105/3
f 278/230/39 279/231/39 277/232/39 276/233/39
f 276/124/9 277/126/9 186/125/9
f 186/125/9 277/126/9 185/110/9
f 187/140/33 188/143/33 281/142/33 278/141/33
f 258/234/40 282/235/40 207/236/40 255/237/40
f 188/143/34 190/166/34 287/165/34 281/142/34
f 280/238/41 285/239/41 284/240/41 279/241/41
f 283/172/36 288/175/36 206/174/36 207/173/36
f 288/175/37 289/177/37 205/176/37 206/174/37
f 289/177/36 290/179/36 204/178/36 205/176/36
f 290/179/37 291/181/37 203/180/37 204/178/37
f 291/181/36 292/183/36 202/182/36 203/180/36
f 292/183/34 293/185/34 201/184/34 202/182/34
f 293/185/36 294/187/36 200/186/36 201/184/36
f 294/187/34 295/189/34 199/188/34 200/186/34
f 295/189/36 296/191/36 198/190/36 199/188/36
f 296/191/34 297/193/34 197/192/34 198/190/34
f 297/193/38 298/195/38 196/194/38 197/192/38
f 298/195/34 299/197/34 195/196/34 196/194/34
f 299/197/38 300/199/38 194/198/38 195/196/38
f 300/199/34 301/201/34 193/200/34 194/198/34
f 301/201/38 302/203/38 192/202/38 193/200/38
f 302/203/34 303/205/34 191/204/34 192/202/34
f 303/205/38 287/165/38 190/166/38 191/204/38
f 283/206/19 289/208/19 288/207/19
f 289/208/19 291/210/19 290/209/19
f 291/210/19 293/212/19 292/211/19
f 293/212/19 295/214/19 294/213/19
f 295/214/19 297/216/19 296/215/19
f 297/216/19 299/218/19 298/217/19
f 299/218/19 301/220/19 300/219/19
f 301/220/19 303/222/19 302/221/19
f 303/222/19 281/224/19 287/223/19
f 281/242/19 279/243/19 278/244/19
f 280/227/19 297/216/19 286/228/19
f 286/228/19 289/208/19 283/229/19
f 281/242/19 280/245/19 279/243/19
f 301/220/19 280/227/19 303/222/19
f 303/222/19 280/227/19 281/224/19
f 297/216/19 280/227/19 299/218/19
f 299/218/19 280/227/19 301/220/19
f 295/214/19 286/228/19 297/216/19
f 289/208/19 286/228/19 291/210/19
f 291/210/19 286/228/19 293/212/19
f 293/212/19 286/228/19 295/214/19
f 185/246/42 277/247/42 279/241/42 284/240/42
f 207/236/40 282/235/40 286/248/40 283/249/40
f 189/250/5 254/251/5 252/252/5 257/253/5
f 252/252/43 254/251/43 282/235/43 258/234/43
f 280/254/5 254/251/5 189/250/5 285/255/5
f 282/235/43 254/251/43 280/254/43 286/248/43
f 108/5/3 110/8/3 306/8/3 305/5/3
f 304/26/5 305/5/5 306/8/5 307/28/5
f 308/26/5 311/28/5 310/8/5 309/5/5
f 163/5/12 162/26/12 308/26/12 309/5/12
f 109/28/1 107/26/1 304/26/1 307/28/1
f 162/26/1 164/28/1 311/28/1 308/26/1
f 165/8/3 163/5/3 309/5/3 310/8/3
f 164/28/19 165/8/19 310/8/19 311/28/19
f 107/26/19 108/5/19 305/5/19 304/26/19
