# Blender 4.4.3
# www.blender.org
o SM_2D-StairsRails_Stairs_V1.0
v 1.700158 4.901240 -1.716301
v 1.700158 4.998760 -1.716301
v 1.499999 3.680448 -1.698320
v 1.499999 4.901240 -1.716301
v 1.299842 4.901240 -1.716300
v 1.299842 4.998760 -1.716300
v 1.299842 4.801240 -1.498320
v 1.299842 4.898760 -1.498320
v 1.700158 4.801240 -1.498320
v 1.700158 4.898760 -1.498320
v 1.299842 1.001240 1.901681
v 1.299842 1.098760 1.901681
v 1.700158 1.001240 1.901680
v 1.700158 1.098760 1.901680
v 1.299842 0.901240 2.101681
v 1.299842 0.998760 2.101681
v 1.700158 0.901240 2.101680
v 1.700158 0.998760 2.101680
v 1.299842 0.901240 3.101681
v 1.299842 0.998760 3.101681
v 1.700158 0.901240 3.101680
v 1.700158 0.998760 3.101680
v 1.499999 4.901240 -1.716301
v 1.499999 3.680448 -1.698320
v 1.499999 4.801240 -1.498320
v 1.499999 3.480448 -1.498320
v 1.499999 1.001240 1.901680
v 1.499999 0.001240 1.901680
v 1.499999 0.901240 2.101680
v 1.499999 0.001240 2.101680
v 1.499999 0.901240 3.101680
v 1.499999 0.001240 3.101680
v 1.499999 4.801240 -1.498320
v 1.499999 3.480448 -1.498320
v 1.499999 1.001240 1.901680
v 1.499999 0.001240 1.901680
v 1.499999 0.901240 2.101680
v 1.499999 0.001240 2.101680
v 1.499999 0.901240 3.101680
v 1.499999 0.001240 3.101680
v -1.299842 4.901240 -1.716301
v -1.299842 4.998760 -1.716301
v -1.500001 3.680448 -1.698320
v -1.500001 4.901240 -1.716301
v -1.700158 4.901240 -1.716300
v -1.700158 4.998760 -1.716300
v -1.700158 4.801240 -1.498320
v -1.700158 4.898760 -1.498320
v -1.299842 4.801240 -1.498320
v -1.299842 4.898760 -1.498320
v -1.700158 1.001240 1.901681
v -1.700158 1.098760 1.901681
v -1.299842 1.001240 1.901680
v -1.299842 1.098760 1.901680
v -1.700158 0.901240 2.101681
v -1.700158 0.998760 2.101681
v -1.299842 0.901240 2.101680
v -1.299842 0.998760 2.101680
v -1.700158 0.901240 3.101681
v -1.700158 0.998760 3.101681
v -1.299842 0.901240 3.101680
v -1.299842 0.998760 3.101680
v -1.500001 4.901240 -1.716301
v -1.500001 3.680448 -1.698320
v -1.500001 4.801240 -1.498320
v -1.500001 3.480448 -1.498320
v -1.500001 1.001240 1.901680
v -1.500001 0.001240 1.901680
v -1.500001 0.901240 2.101680
v -1.500001 0.001240 2.101680
v -1.500001 0.901240 3.101680
v -1.500001 0.001240 3.101680
v -1.500001 4.801240 -1.498320
v -1.500001 3.480448 -1.498320
v -1.500001 1.001240 1.901680
v -1.500001 0.001240 1.901680
v -1.500001 0.901240 2.101680
v -1.500001 0.001240 2.101680
v -1.500001 0.901240 3.101680
v -1.500001 0.001240 3.101680
v -1.609630 0.000000 3.100000
v -1.609630 0.000000 -3.400000
v -1.609630 4.000000 -3.400000
v 1.609631 0.000000 3.100000
v 1.609631 0.000000 -3.400000
v 1.609631 4.000000 -3.400000
v -1.609630 0.250000 3.100000
v -1.609630 4.000000 -1.650000
v -1.609630 0.250000 1.725000
v -1.609630 0.625000 1.725000
v -1.609630 0.625000 1.350000
v -1.609630 1.000000 1.350000
v -1.609630 1.000000 0.975000
v -1.609630 1.375000 0.975000
v -1.609630 1.375000 0.600000
v -1.609630 1.750000 0.600000
v -1.609630 1.750000 0.225000
v -1.609630 2.125000 0.225000
v -1.609630 2.125000 -0.150000
v -1.609630 2.500000 -0.150000
v -1.609630 2.500000 -0.525000
v -1.609630 2.875000 -0.525000
v -1.609630 2.875000 -0.900000
v -1.609630 3.250000 -0.900000
v -1.609630 3.250000 -1.275000
v -1.609630 3.625000 -1.275000
v -1.609630 3.625000 -1.650000
v 1.609631 4.000000 -1.650000
v 1.609631 0.250000 3.100000
v 1.609631 3.625000 -1.650000
v 1.609631 3.625000 -1.275000
v 1.609631 3.250000 -1.275000
v 1.609631 3.250000 -0.900000
v 1.609631 2.875000 -0.900000
v 1.609631 2.875000 -0.525000
v 1.609631 2.500000 -0.525000
v 1.609631 2.500000 -0.150000
v 1.609631 2.125000 -0.150000
v 1.609631 2.125000 0.225000
v 1.609631 1.750000 0.225000
v 1.609631 1.750000 0.600000
v 1.609631 1.375000 0.600000
v 1.609631 1.375000 0.975000
v 1.609631 1.000000 0.975000
v 1.609631 1.000000 1.350000
v 1.609631 0.625000 1.350000
v 1.609631 0.625000 1.725000
v 1.609631 0.250000 1.725000
v 1.700158 4.901240 -3.416301
v 1.700158 4.998760 -3.416301
v 1.499999 3.680448 -3.398320
v 1.499999 4.901240 -3.416301
v 1.299842 4.901240 -3.416300
v 1.299842 4.998760 -3.416300
v 1.499999 4.901240 -3.416301
v 1.499999 3.680448 -3.398320
v -1.299842 4.901240 -3.416301
v -1.299842 4.998760 -3.416301
v -1.500001 3.680448 -3.398320
v -1.500001 4.901240 -3.416301
v -1.700158 4.901240 -3.416300
v -1.700158 4.998760 -3.416300
v -1.500001 4.901240 -3.416301
v -1.500001 3.680448 -3.398320
v -1.609630 4.000000 -4.500000
v -1.609630 0.000000 -4.500000
v 1.609631 4.000000 -4.500000
v 1.609631 0.000000 -4.500000
vn -0.0000 -0.9089 -0.4170
vn 1.0000 -0.0000 -0.0000
vn -0.0000 0.9089 0.4170
vn -0.0000 0.6668 0.7452
vn -0.0000 -0.8944 -0.4472
vn -1.0000 -0.0000 -0.0000
vn -0.0000 -0.6668 -0.7452
vn -0.0000 0.8944 0.4472
vn -0.0000 -1.0000 -0.0000
vn -0.0000 -0.0000 1.0000
vn -0.0000 1.0000 -0.0000
vn -0.0000 -0.0000 -1.0000
vt 0.991282 0.807911
vt 0.888317 0.807911
vt 0.888317 0.890553
vt 0.991282 0.890553
vt 0.634745 0.702389
vt 0.639472 0.700731
vt 0.639472 0.669203
vt 0.634745 0.670862
vt 0.900579 0.879023
vt 0.983221 0.879023
vt 0.983221 0.897148
vt 0.900579 0.897148
vt 0.898479 0.807077
vt 0.981121 0.807077
vt 0.981121 0.873792
vt 0.898479 0.873792
vt 0.973157 0.807911
vt 0.906442 0.807911
vt 0.973157 0.890553
vt 0.906442 0.890553
vt 0.974255 0.814324
vt 0.891613 0.814324
vt 0.891613 0.806432
vt 0.974255 0.806432
vt 0.906442 0.807911
vt 0.973157 0.807911
vt 0.973157 0.890553
vt 0.906442 0.890553
vt 0.971715 0.881454
vt 0.971715 0.806704
vt 0.925229 0.806704
vt 0.925230 0.881454
vt 0.991282 0.815045
vt 0.888317 0.815045
vt 0.906442 0.815045
vt 0.973157 0.815045
vt 0.920886 0.887861
vt 0.968078 0.887861
vt 0.968078 0.892464
vt 0.920886 0.892464
vt 0.973157 0.892215
vt 0.906442 0.892215
vt 0.888317 0.892215
vt 0.991282 0.892215
vt 0.744559 0.602793
vt 0.749006 0.601417
vt 0.749006 0.579310
vt 0.744559 0.580686
vt 0.920186 0.806965
vt 0.951341 0.806965
vt 0.951341 0.826793
vt 0.920186 0.826793
vt 0.639472 0.669664
vt 0.951341 0.814331
vt 0.920186 0.812865
vt 0.769254 0.601417
vt 0.769254 0.579310
vt 0.926653 0.807162
vt 0.973846 0.807162
vt 0.973846 0.876637
vt 0.926653 0.876637
vt 0.634745 0.701823
vt 0.639472 0.700542
vt 0.639472 0.669015
vt 0.634745 0.670295
vt 0.978312 0.969520
vt 0.898374 0.969520
vt 0.898374 0.914368
vt 0.978312 0.914368
vt 0.933807 0.936765
vt 0.941244 0.943831
vt 0.971986 0.903791
vt 0.948682 0.950897
vt 0.897914 0.943910
vt 0.977852 0.943910
vt 0.898374 0.903353
vt 0.978312 0.903353
vt 0.897914 0.943910
vt 0.898374 0.903353
vt 0.978312 0.903353
vt 0.977852 0.943910
vt 0.896618 0.903791
vt 0.904056 0.908502
vt 0.896618 0.908502
vt 0.904056 0.915568
vt 0.911494 0.915568
vt 0.970995 0.979159
vt 0.971986 0.979159
vt 0.970995 0.972094
vt 0.963557 0.965028
vt 0.963557 0.972094
vt 0.911494 0.922633
vt 0.918931 0.922633
vt 0.918931 0.929699
vt 0.926369 0.929699
vt 0.926369 0.936765
vt 0.933807 0.943831
vt 0.941244 0.950897
vt 0.948682 0.957962
vt 0.956119 0.957962
vt 0.956119 0.965028
vt 0.956119 0.965028
vt 0.956119 0.957962
vt 0.926369 0.929699
vt 0.971986 0.972094
vt 0.658368 0.702389
vt 0.658368 0.670862
vt 0.623710 0.670862
vt 0.623710 0.702389
vt 0.658368 0.701823
vt 0.658368 0.670295
vt 0.623710 0.670295
vt 0.623710 0.701823
s 0
f 9/1/1 7/2/1 5/3/1 1/4/1
f 4/5/2 33/6/2 34/7/2 3/8/2
f 2/9/2 10/10/2 9/11/2 1/12/2
f 6/13/3 8/14/3 10/15/3 2/16/3
f 8/1/4 12/2/4 14/3/4 10/4/4
f 13/1/5 17/2/5 15/3/5 11/4/5
f 7/17/6 11/18/6 12/2/6 8/1/6
f 9/19/7 13/20/7 11/18/7 7/17/7
f 5/21/6 7/22/6 8/23/6 6/24/6
f 12/25/8 16/26/8 18/27/8 14/28/8
f 21/29/9 19/30/9 15/31/9 17/32/9
f 11/33/6 15/34/6 16/35/6 12/36/6
f 10/4/2 14/3/2 13/20/2 9/19/2
f 18/37/2 22/38/2 21/39/2 17/40/2
f 14/41/2 18/42/2 17/43/2 13/44/2
f 35/45/2 37/46/2 38/47/2 36/48/2
f 19/49/10 21/50/10 22/51/10 20/52/10
f 33/6/2 35/45/2 36/48/2 34/53/2
f 15/49/6 19/50/6 20/54/6 16/55/6
f 37/46/2 39/56/2 40/57/2 38/47/2
f 16/58/11 20/59/11 22/60/11 18/61/11
f 23/5/6 24/8/6 26/7/6 25/6/6
f 25/6/6 26/53/6 28/48/6 27/45/6
f 29/46/6 30/47/6 32/57/6 31/56/6
f 27/45/6 28/48/6 30/47/6 29/46/6
f 49/1/1 47/2/1 45/3/1 41/4/1
f 44/62/2 73/63/2 74/64/2 43/65/2
f 42/9/2 50/10/2 49/11/2 41/12/2
f 46/13/3 48/14/3 50/15/3 42/16/3
f 48/1/4 52/2/4 54/3/4 50/4/4
f 53/1/5 57/2/5 55/3/5 51/4/5
f 47/17/6 51/18/6 52/2/6 48/1/6
f 49/19/7 53/20/7 51/18/7 47/17/7
f 45/21/6 47/22/6 48/23/6 46/24/6
f 52/25/8 56/26/8 58/27/8 54/28/8
f 61/29/9 59/30/9 55/31/9 57/32/9
f 51/33/6 55/34/6 56/35/6 52/36/6
f 50/4/2 54/3/2 53/20/2 49/19/2
f 58/37/2 62/38/2 61/39/2 57/40/2
f 54/41/2 58/42/2 57/43/2 53/44/2
f 75/45/2 77/46/2 78/47/2 76/48/2
f 59/49/10 61/50/10 62/51/10 60/52/10
f 73/6/2 75/45/2 76/48/2 74/7/2
f 55/49/6 59/50/6 60/54/6 56/55/6
f 77/46/2 79/56/2 80/57/2 78/47/2
f 56/58/11 60/59/11 62/60/11 58/61/11
f 63/62/6 64/65/6 66/64/6 65/63/6
f 65/6/6 66/7/6 68/48/6 67/45/6
f 69/46/6 70/47/6 72/57/6 71/56/6
f 67/45/6 68/48/6 70/47/6 69/46/6
f 86/66/11 83/67/11 88/68/11 108/69/11
f 97/70/6 99/71/6 82/72/6
f 85/72/2 116/73/2 118/71/2
f 108/69/10 88/68/10 107/74/10 110/75/10
f 110/75/11 107/74/11 106/76/11 111/77/11
f 111/77/10 106/76/10 105/74/10 112/75/10
f 112/75/11 105/74/11 104/76/11 113/77/11
f 113/77/10 104/76/10 103/74/10 114/75/10
f 114/75/11 103/74/11 102/76/11 115/77/11
f 115/77/10 102/76/10 101/78/10 116/75/10
f 116/75/11 101/78/11 100/79/11 117/77/11
f 117/77/10 100/79/10 99/78/10 118/75/10
f 118/75/11 99/78/11 98/76/11 119/77/11
f 119/77/10 98/76/10 97/74/10 120/75/10
f 120/75/11 97/74/11 96/79/11 121/80/11
f 121/80/10 96/79/10 95/78/10 122/81/10
f 122/81/11 95/78/11 94/76/11 123/77/11
f 123/77/10 94/76/10 93/74/10 124/81/10
f 124/81/11 93/74/11 92/76/11 125/80/11
f 125/80/10 92/76/10 91/74/10 126/75/10
f 126/75/11 91/74/11 90/76/11 127/80/11
f 127/80/10 90/76/10 89/74/10 128/81/10
f 128/81/11 89/74/11 87/76/11 109/77/11
f 84/81/10 109/77/10 87/76/10 81/78/10
f 82/72/6 81/82/6 89/83/6
f 81/82/6 87/84/6 89/83/6
f 89/83/6 90/85/6 91/86/6
f 88/87/6 83/88/6 107/89/6
f 83/88/6 82/72/6 107/89/6
f 105/90/6 106/91/6 107/89/6
f 82/72/6 89/83/6 91/86/6
f 91/86/6 92/92/6 93/93/6
f 93/93/6 94/94/6 95/95/6
f 95/95/6 96/96/6 97/70/6
f 97/70/6 98/97/6 99/71/6
f 99/71/6 100/98/6 101/73/6
f 101/73/6 102/99/6 103/100/6
f 103/100/6 104/101/6 105/90/6
f 105/90/6 107/89/6 82/72/6
f 82/72/6 91/86/6 93/93/6
f 82/72/6 93/93/6 95/95/6
f 103/100/6 105/90/6 82/72/6
f 101/73/6 103/100/6 82/72/6
f 82/72/6 95/95/6 97/70/6
f 99/71/6 101/73/6 82/72/6
f 110/89/2 111/91/2 112/90/2
f 109/84/2 84/82/2 128/83/2
f 84/82/2 85/72/2 128/83/2
f 126/86/2 127/85/2 128/83/2
f 85/72/2 110/89/2 112/90/2
f 112/90/2 113/102/2 114/103/2
f 114/103/2 115/99/2 116/73/2
f 116/73/2 117/98/2 118/71/2
f 118/71/2 119/97/2 120/70/2
f 120/70/2 121/96/2 122/104/2
f 122/104/2 123/94/2 124/93/2
f 124/93/2 125/92/2 126/86/2
f 126/86/2 128/83/2 85/72/2
f 85/72/2 112/90/2 114/103/2
f 85/72/2 114/103/2 116/73/2
f 124/93/2 126/86/2 85/72/2
f 118/71/2 120/70/2 85/72/2
f 120/70/2 122/104/2 85/72/2
f 122/104/2 124/93/2 85/72/2
f 86/105/2 110/89/2 85/72/2
f 110/89/2 86/66/2 108/69/2
f 4/106/2 3/107/2 131/108/2 132/109/2
f 41/4/9 45/3/9 141/3/9 137/4/9
f 6/13/11 2/16/11 130/16/11 134/13/11
f 2/9/2 1/12/2 129/12/2 130/9/2
f 44/110/2 43/111/2 139/112/2 140/113/2
f 46/13/11 42/16/11 138/16/11 142/13/11
f 42/9/2 41/12/2 137/12/2 138/9/2
f 5/21/6 6/24/6 134/24/6 133/21/6
f 24/107/6 23/106/6 135/109/6 136/108/6
f 1/4/9 5/3/9 133/3/9 129/4/9
f 45/21/6 46/24/6 142/24/6 141/21/6
f 64/111/6 63/110/6 143/113/6 144/112/6
f 146/72/12 145/67/12 147/105/12 148/72/12
f 86/105/2 85/72/2 148/72/2 147/105/2
f 82/72/6 83/88/6 145/88/6 146/72/6
f 83/67/11 86/66/11 147/66/11 145/67/11
