# Blender 4.4.3
# www.blender.org
o SM_3D-Corner_Stairs_V1.0
v -3.337286 0.000000 -1.825707
v -3.337286 4.000000 0.000000
v 0.337289 4.000000 0.000000
v 1.400719 4.005177 0.000000
v 4.988498 0.049866 0.000000
v 1.402269 4.420289 0.000000
v 1.801595 4.418707 0.000000
v 1.803087 4.818033 0.000000
v 2.202412 4.816453 0.000000
v 2.203905 5.215777 0.000000
v 2.603229 5.214198 0.000000
v 2.604723 5.613522 0.000000
v 3.004045 5.611944 0.000000
v 3.005541 6.011267 0.000000
v 3.404862 6.009690 0.000000
v 3.406359 6.409011 0.000000
v 3.805679 6.407435 0.000000
v 3.807177 6.806756 0.000000
v 4.206496 6.805182 0.000000
v 4.207994 7.204500 0.000000
v 4.607313 7.202927 0.000000
v 4.608812 7.602245 0.000000
v 5.008130 7.600673 0.000000
v -3.337286 0.000000 5.500000
v 0.337289 0.000000 5.500000
v -3.337286 0.250000 5.500000
v -3.337286 4.000000 1.750000
v -3.337286 0.250000 5.125000
v -3.337286 0.625000 5.125000
v -3.337286 0.625000 4.750000
v -3.337286 1.000000 4.750000
v -3.337286 1.000000 4.375000
v -3.337286 1.375000 4.375000
v -3.337286 1.375000 4.000000
v -3.337286 1.750000 4.000000
v -3.337286 1.750000 3.625000
v -3.337286 2.125000 3.625000
v -3.337286 2.125000 3.250000
v -3.337286 2.500000 3.250000
v -3.337286 2.500000 2.875000
v -3.337286 2.875000 2.875000
v -3.337286 2.875000 2.500000
v -3.337286 3.250000 2.500000
v -3.337286 3.250000 2.125000
v -3.337286 3.625000 2.125000
v -3.337286 3.625000 1.750000
v 0.337289 4.000000 1.816818
v 0.337289 0.250000 5.500000
v 0.337289 3.725000 1.816818
v 0.337289 3.625000 2.125000
v 0.337289 3.250000 2.125000
v 0.337289 3.250000 2.500000
v 0.337289 2.875000 2.500000
v 0.337289 2.875000 2.875000
v 0.337289 2.500000 2.875000
v 0.337289 2.500000 3.250000
v 0.337289 2.125000 3.250000
v 0.337289 2.125000 3.625000
v 0.337289 1.750000 3.625000
v 0.337289 1.750000 4.000000
v 0.337289 1.375000 4.000000
v 0.337289 1.375000 4.375000
v 0.337289 1.000000 4.375000
v 0.337289 1.000000 4.750000
v 0.337289 0.625000 4.750000
v 0.337289 0.625000 5.125000
v 0.337289 0.250000 5.125000
v 4.988498 3.749866 1.816818
v 1.400719 4.005177 1.816818
v 4.988498 3.749866 -0.006201
v 5.008130 7.600673 1.816818
v 0.337289 0.025000 1.825000
v 4.988498 0.049866 1.825000
v 5.004372 5.648434 1.816818
v 1.402269 4.420288 1.816818
v 4.608812 7.602245 1.816818
v 4.607313 7.202928 1.816818
v 4.207994 7.204501 1.816818
v 4.206496 6.805182 1.816818
v 3.807177 6.806756 1.816818
v 3.805679 6.407436 1.816818
v 3.406359 6.409011 1.816818
v 3.404862 6.009690 1.816818
v 3.005540 6.011267 1.816818
v 3.004045 5.611944 1.816818
v 2.604723 5.613522 1.816818
v 2.603229 5.214199 1.816818
v 2.203904 5.215777 1.816818
v 2.202412 4.816453 1.816818
v 1.803086 4.818033 1.816818
v 1.801595 4.418707 1.816818
v 12.000000 7.801680 1.481681
v 0.250000 4.931240 1.300043
v 0.230000 4.931240 1.699959
v 0.230000 4.968760 1.699959
v 0.230000 4.901240 1.669959
v 0.230000 4.998760 1.669959
v -0.204240 4.931240 1.696719
v -0.204240 4.968760 1.696719
v 0.195677 4.968760 1.699719
v 0.195677 4.931240 1.699719
v -0.204240 0.940847 6.451719
v -0.174240 4.901240 1.696719
v -0.204240 0.978367 6.451719
v -0.174240 1.010847 5.301719
v 0.195677 0.978367 6.451719
v -0.174240 4.998760 1.696719
v 0.195677 1.040846 5.301720
v 0.195677 1.078367 5.301720
v 0.165677 4.901240 1.696719
v -0.204240 1.078367 5.301719
v 0.165677 4.998760 1.696719
v -0.204240 1.040846 5.301719
v 0.198057 4.901240 1.673558
v 0.198057 4.998760 1.673558
v -0.204240 4.831240 1.901719
v -0.204240 4.868760 1.901719
v 0.195677 4.868760 1.901719
v 0.195677 4.831240 1.901719
v -0.174240 4.801240 1.901719
v -0.174240 4.898760 1.901719
v 0.165677 4.801240 1.901719
v 0.165677 4.898760 1.901719
v 0.195677 0.940847 6.451719
v -0.174240 1.108367 5.301719
v -0.193475 0.924572 6.478844
v 0.165677 1.010847 5.301720
v -0.174240 0.940847 6.501719
v 0.165677 1.108367 5.301720
v -0.193475 0.994642 6.478844
v -0.200983 4.968760 1.465622
v -0.028932 4.968760 1.298087
v -0.200983 4.931240 1.465622
v -0.028932 4.931240 1.298087
v -0.170888 4.901240 1.496484
v 0.002159 4.901240 1.328555
v -0.056365 4.901240 1.427566
v 0.002159 4.998760 1.328555
v -0.170888 4.998760 1.496484
v -0.056365 4.998760 1.427566
v -0.174240 0.910847 5.501719
v 0.195677 0.940847 5.501719
v 0.195677 0.978367 5.501719
v -0.204240 0.978367 5.501719
v -0.204240 0.940847 5.501719
v -0.174240 1.008367 5.501719
v 0.165677 0.910847 5.501719
v 0.165677 1.008367 5.501719
v -0.174240 0.978367 6.501719
v 0.165677 0.940847 6.501719
v 0.165677 0.910847 6.471719
v 0.184913 0.994642 6.478844
v 0.165677 0.978367 6.501719
v 0.002274 3.616158 1.873865
v 0.002274 4.831310 1.873865
v 0.051771 3.616158 1.894367
v 0.051771 4.816310 1.894367
v 0.072274 3.616158 1.943865
v 0.072274 4.781310 1.943865
v 0.051771 3.616158 1.993362
v 0.051771 4.746310 1.993362
v 0.002274 3.616158 2.013865
v 0.002274 4.731310 2.013865
v -0.047224 3.616158 1.993362
v -0.047224 4.746310 1.993362
v -0.067726 3.616158 1.943865
v -0.067726 4.781310 1.943865
v -0.047224 3.616158 1.894367
v -0.047224 4.816310 1.894367
v -0.047224 3.991594 2.659300
v -0.047224 2.856098 2.659300
v -0.067726 3.956594 2.708797
v -0.067726 2.856098 2.708797
v -0.047224 3.921594 2.758295
v -0.047224 2.856098 2.758295
v 0.002274 3.906594 2.778797
v 0.002274 2.856098 2.778797
v 0.051771 3.921594 2.758295
v 0.051771 2.856098 2.758295
v 0.072274 3.956594 2.708797
v 0.072274 2.856098 2.708797
v 0.051771 3.991594 2.659300
v 0.051771 2.856098 2.659300
v 0.002274 4.006594 2.638797
v 0.002274 2.856098 2.638797
v -0.047224 3.150814 3.398012
v -0.047224 2.109102 3.398012
v -0.067726 3.115814 3.447509
v -0.067726 2.109102 3.447509
v -0.047224 3.080814 3.497007
v -0.047224 2.109102 3.497007
v 0.002274 3.065814 3.517509
v 0.002274 2.109102 3.517509
v 0.051771 3.080814 3.497007
v 0.051771 2.109102 3.497007
v 0.072274 3.115814 3.447509
v 0.072274 2.109102 3.447509
v 0.051771 3.150814 3.398012
v 0.051771 2.109102 3.398012
v 0.002274 3.165814 3.377509
v 0.002274 2.109102 3.377509
v -0.047224 2.329161 4.149936
v -0.047224 1.324193 4.149936
v -0.067726 2.294161 4.199434
v -0.067726 1.324193 4.199434
v -0.047224 2.259161 4.248931
v -0.047224 1.324193 4.248931
v 0.002274 2.244161 4.269433
v 0.002274 1.324193 4.269433
v 0.051771 2.259161 4.248931
v 0.051771 1.324193 4.248931
v 0.072274 2.294161 4.199434
v 0.072274 1.324193 4.199434
v 0.051771 2.329161 4.149936
v 0.051771 1.324193 4.149936
v 0.002274 2.344162 4.129434
v 0.002274 1.324193 4.129434
v -0.047224 1.526688 4.869548
v -0.047224 0.471482 4.869548
v -0.067726 1.491688 4.919045
v -0.067726 0.471482 4.919045
v -0.047224 1.456688 4.968543
v -0.047224 0.471482 4.968543
v 0.002274 1.441688 4.989045
v 0.002274 0.471482 4.989045
v 0.051771 1.456688 4.968543
v 0.051771 0.471482 4.968543
v 0.072274 1.491688 4.919045
v 0.072274 0.471482 4.919045
v 0.051771 1.526688 4.869548
v 0.051771 0.471482 4.869548
v 0.002274 1.541688 4.849045
v 0.002274 0.471482 4.849045
v 0.002274 0.010258 5.521623
v 0.002274 0.958259 5.521623
v 0.051771 0.010258 5.542126
v 0.051771 0.958259 5.542126
v 0.072274 0.010258 5.591623
v 0.072274 0.958259 5.591623
v 0.051771 0.010258 5.641121
v 0.051771 0.958259 5.641121
v 0.002274 0.010258 5.661623
v 0.002274 0.958259 5.661623
v -0.047224 0.010258 5.641121
v -0.047224 0.958259 5.641121
v -0.067726 0.010258 5.591623
v -0.067726 0.958259 5.591623
v -0.047224 0.010258 5.542126
v -0.047224 0.958259 5.542126
v 0.002274 0.010258 6.221623
v 0.002274 0.958259 6.221623
v 0.051771 0.010258 6.242126
v 0.051771 0.958259 6.242126
v 0.072274 0.010258 6.291623
v 0.072274 0.958259 6.291623
v 0.051771 0.010258 6.341121
v 0.051771 0.958259 6.341121
v 0.002274 0.010258 6.361623
v 0.002274 0.958259 6.361623
v -0.047224 0.010258 6.341121
v -0.047224 0.958259 6.341121
v -0.067726 0.010258 6.291623
v -0.067726 0.958259 6.291623
v -0.047224 0.010258 6.242126
v -0.047224 0.958259 6.242126
v 0.002274 3.979456 1.429552
v 0.002274 4.948652 1.429552
v 0.051771 3.979456 1.450054
v 0.051771 4.948652 1.450054
v 0.072274 3.979456 1.499552
v 0.072274 4.948652 1.499552
v 0.051771 3.979456 1.549049
v 0.051771 4.948652 1.549049
v 0.002274 3.979456 1.569552
v 0.002274 4.948652 1.569552
v -0.047224 3.979456 1.549049
v -0.047224 4.948652 1.549049
v -0.067726 3.979456 1.499552
v -0.067726 4.948652 1.499552
v -0.047224 3.979456 1.450054
v -0.047224 4.948652 1.450054
v -3.204241 4.931240 1.696719
v -3.204241 4.968760 1.696719
v -2.804323 4.968760 1.699719
v -2.804323 4.931240 1.699719
v -3.204241 0.940847 6.451719
v -3.174240 4.901240 1.696719
v -3.204241 0.978367 6.451719
v -3.174240 1.010847 5.301719
v -2.804323 0.978367 6.451719
v -3.174240 4.998760 1.696719
v -2.804323 1.040846 5.301720
v -2.804323 1.078367 5.301720
v -2.834324 4.901240 1.696719
v -3.204241 1.078367 5.301719
v -2.834324 4.998760 1.696719
v -3.204241 1.040846 5.301719
v -3.204241 4.831240 1.901719
v -3.204241 4.868760 1.901719
v -2.804323 4.868760 1.901719
v -2.804323 4.831240 1.901719
v -3.174240 4.801240 1.901719
v -3.174240 4.898760 1.901719
v -2.834324 4.801240 1.901719
v -2.834324 4.898760 1.901719
v -2.804323 0.940847 6.451719
v -3.174240 1.108367 5.301719
v -3.193476 0.924572 6.478844
v -2.834324 1.010847 5.301720
v -3.174240 0.940847 6.501719
v -2.834324 1.108367 5.301720
v -3.193476 0.994642 6.478844
v -3.174240 0.910847 5.501719
v -2.804323 0.940847 5.501719
v -2.804323 0.978367 5.501719
v -3.204241 0.978367 5.501719
v -3.204241 0.940847 5.501719
v -3.174240 1.008367 5.501719
v -2.834324 0.910847 5.501719
v -2.834324 1.008367 5.501719
v -3.174240 0.978367 6.501719
v -2.834324 0.940847 6.501719
v -2.834324 0.910847 6.471719
v -2.834324 1.008367 6.471719
v -2.834324 0.978367 6.501719
v -2.997726 3.616158 1.873865
v -2.997726 4.831310 1.873865
v -2.948229 3.616158 1.894367
v -2.948229 4.816310 1.894367
v -2.927727 3.616158 1.943865
v -2.927727 4.781310 1.943865
v -2.948229 3.616158 1.993362
v -2.948229 4.746310 1.993362
v -2.997726 3.616158 2.013865
v -2.997726 4.731310 2.013865
v -3.047224 3.616158 1.993362
v -3.047224 4.746310 1.993362
v -3.067726 3.616158 1.943865
v -3.067726 4.781310 1.943865
v -3.047224 3.616158 1.894367
v -3.047224 4.816310 1.894367
v -3.047224 3.991594 2.659300
v -3.047224 2.856098 2.659300
v -3.067726 3.956594 2.708797
v -3.067726 2.856098 2.708797
v -3.047224 3.921594 2.758295
v -3.047224 2.856098 2.758295
v -2.997726 3.906594 2.778797
v -2.997726 2.856098 2.778797
v -2.948229 3.921594 2.758295
v -2.948229 2.856098 2.758295
v -2.927727 3.956594 2.708797
v -2.927727 2.856098 2.708797
v -2.948229 3.991594 2.659300
v -2.948229 2.856098 2.659300
v -2.997726 4.006594 2.638797
v -2.997726 2.856098 2.638797
v -3.047224 3.150814 3.398012
v -3.047224 2.109102 3.398012
v -3.067726 3.115814 3.447509
v -3.067726 2.109102 3.447509
v -3.047224 3.080814 3.497007
v -3.047224 2.109102 3.497007
v -2.997726 3.065814 3.517509
v -2.997726 2.109102 3.517509
v -2.948229 3.080814 3.497007
v -2.948229 2.109102 3.497007
v -2.927727 3.115814 3.447509
v -2.927727 2.109102 3.447509
v -2.948229 3.150814 3.398012
v -2.948229 2.109102 3.398012
v -2.997726 3.165814 3.377509
v -2.997726 2.109102 3.377509
v -3.047224 2.329161 4.149936
v -3.047224 1.324193 4.149936
v -3.067726 2.294161 4.199434
v -3.067726 1.324193 4.199434
v -3.047224 2.259161 4.248931
v -3.047224 1.324193 4.248931
v -2.997726 2.244161 4.269433
v -2.997726 1.324193 4.269433
v -2.948229 2.259161 4.248931
v -2.948229 1.324193 4.248931
v -2.927727 2.294161 4.199434
v -2.927727 1.324193 4.199434
v -2.948229 2.329161 4.149936
v -2.948229 1.324193 4.149936
v -2.997726 2.344162 4.129434
v -2.997726 1.324193 4.129434
v -3.047224 1.526688 4.869548
v -3.047224 0.471482 4.869548
v -3.067726 1.491688 4.919045
v -3.067726 0.471482 4.919045
v -3.047224 1.456688 4.968543
v -3.047224 0.471482 4.968543
v -2.997726 1.441688 4.989045
v -2.997726 0.471482 4.989045
v -2.948229 1.456688 4.968543
v -2.948229 0.471482 4.968543
v -2.927727 1.491688 4.919045
v -2.927727 0.471482 4.919045
v -2.948229 1.526688 4.869548
v -2.948229 0.471482 4.869548
v -2.997726 1.541688 4.849045
v -2.997726 0.471482 4.849045
v -2.997726 0.010258 5.521623
v -2.997726 0.958259 5.521623
v -2.948229 0.010258 5.542126
v -2.948229 0.958259 5.542126
v -2.927727 0.010258 5.591623
v -2.927727 0.958259 5.591623
v -2.948229 0.010258 5.641121
v -2.948229 0.958259 5.641121
v -2.997726 0.010258 5.661623
v -2.997726 0.958259 5.661623
v -3.047224 0.010258 5.641121
v -3.047224 0.958259 5.641121
v -3.067726 0.010258 5.591623
v -3.067726 0.958259 5.591623
v -3.047224 0.010258 5.542126
v -3.047224 0.958259 5.542126
v -2.997726 0.010258 6.221623
v -2.997726 0.958259 6.221623
v -2.948229 0.010258 6.242126
v -2.948229 0.958259 6.242126
v -2.927727 0.010258 6.291623
v -2.927727 0.958259 6.291623
v -2.948229 0.010258 6.341121
v -2.948229 0.958259 6.341121
v -2.997726 0.010258 6.361623
v -2.997726 0.958259 6.361623
v -3.047224 0.010258 6.341121
v -3.047224 0.958259 6.341121
v -3.067726 0.010258 6.291623
v -3.067726 0.958259 6.291623
v -3.047224 0.010258 6.242126
v -3.047224 0.958259 6.242126
v -2.804323 4.968760 0.000000
v -2.804323 4.931240 0.000000
v -2.997726 4.000651 1.429552
v -2.997726 4.948652 1.429552
v -2.948229 4.000651 1.450054
v -2.948229 4.948652 1.450054
v -2.927726 4.000651 1.499552
v -2.927726 4.948652 1.499552
v -2.948229 4.000651 1.549049
v -2.948229 4.948652 1.549049
v -2.997726 4.000651 1.569552
v -2.997726 4.948652 1.569552
v -3.047224 4.000651 1.549049
v -3.047224 4.948652 1.549049
v -3.067726 4.000651 1.499552
v -3.067726 4.948652 1.499552
v -3.047224 4.000651 1.450054
v -3.047224 4.948652 1.450054
v -2.997726 4.000651 -0.070448
v -2.997726 4.948652 -0.070448
v -2.948229 4.000651 -0.049946
v -2.948229 4.948652 -0.049946
v -2.927726 4.000651 -0.000448
v -2.927726 4.948652 -0.000448
v -2.948229 4.000651 0.049049
v -2.948229 4.948652 0.049049
v -2.997726 4.000651 0.069552
v -2.997726 4.948652 0.069552
v -3.047224 4.000651 0.049049
v -3.047224 4.948652 0.049049
v -3.067726 4.000651 -0.000448
v -3.067726 4.948652 -0.000448
v -3.047224 4.000651 -0.049946
v -3.047224 4.948652 -0.049946
v -2.834324 4.998760 0.000000
v -3.174240 4.998760 0.000000
v -3.174240 4.901240 0.000000
v -3.204241 4.931240 0.000000
v -2.834324 4.901240 0.000000
v -3.204241 4.968760 0.000000
v 4.999002 8.930847 1.305272
v 5.026127 8.984643 1.316037
v 5.026126 8.984643 1.694424
v 1.395181 5.010847 1.332843
v 0.235180 4.978367 1.302843
v 5.019002 8.900847 1.335272
v 4.999001 8.930847 1.705189
v 4.999001 8.968368 1.705189
v 4.999002 8.968368 1.305272
v 1.395180 5.040846 1.702760
v 1.395180 5.078367 1.702760
v 5.026126 8.914572 1.694424
v 1.395181 5.078367 1.302843
v 1.395181 5.040846 1.302843
v 4.795180 8.831240 1.302843
v 4.795180 8.868760 1.302843
v 4.795180 8.868760 1.702760
v 4.795180 8.831240 1.702760
v 4.795180 8.801240 1.332843
v 4.795180 8.898760 1.332843
v 4.795180 8.801240 1.672760
v 4.795180 8.898760 1.672760
v 1.395181 5.108367 1.332843
v 0.235180 4.910847 1.332843
v 1.395180 5.010847 1.672760
v 1.395180 5.108367 1.672760
v 1.195180 4.910847 1.332843
v 1.195180 4.940846 1.702760
v 1.195180 4.978367 1.702760
v 1.195180 4.978367 1.302843
v 1.195180 4.940846 1.302843
v 1.195180 5.008368 1.332843
v 1.195180 4.910847 1.672760
v 1.195180 5.008368 1.672760
v 0.235180 5.008368 1.332843
v 4.901357 7.571403 1.509356
v 4.901357 8.893320 1.509356
v 4.880854 7.571403 1.558854
v 4.880854 8.878320 1.558854
v 4.831357 7.571403 1.579357
v 4.831357 8.843320 1.579357
v 4.781859 7.571403 1.558854
v 4.781859 8.808319 1.558854
v 4.761357 7.571403 1.509356
v 4.761357 8.793320 1.509356
v 4.781859 7.571403 1.459859
v 4.781859 8.808319 1.459859
v 4.831357 7.571403 1.439357
v 4.831357 8.843320 1.439357
v 4.880854 7.571403 1.459859
v 4.880854 8.878320 1.459859
v 4.061326 7.989572 1.459859
v 4.061326 6.769823 1.459859
v 4.011828 7.954572 1.439357
v 4.011828 6.769823 1.439357
v 3.962330 7.919572 1.459859
v 3.962330 6.769823 1.459859
v 3.941828 7.904572 1.509356
v 3.941828 6.769823 1.509356
v 3.962330 7.919572 1.558854
v 3.962330 6.769823 1.558854
v 4.011828 7.954572 1.579357
v 4.011828 6.769823 1.579357
v 4.061326 7.989572 1.558854
v 4.061326 6.769823 1.558854
v 4.081829 8.004570 1.509356
v 4.081829 6.769823 1.509356
v 3.268691 7.104980 1.459859
v 3.268691 5.979014 1.459859
v 3.219193 7.069981 1.439357
v 3.219193 5.979014 1.439357
v 3.169696 7.034980 1.459859
v 3.169696 5.979014 1.459859
v 3.149193 7.019980 1.509356
v 3.149193 5.979014 1.509356
v 3.169696 7.034980 1.558854
v 3.169696 5.979014 1.558854
v 3.219193 7.069981 1.579357
v 3.219193 5.979014 1.579357
v 3.268691 7.104980 1.558854
v 3.268691 5.979014 1.558854
v 3.289193 7.119980 1.509356
v 3.289193 5.979014 1.509356
v 2.480963 6.224565 1.459859
v 2.480963 5.170838 1.459859
v 2.431465 6.189565 1.439357
v 2.431465 5.170838 1.439357
v 2.381968 6.154565 1.459859
v 2.381968 5.170838 1.459859
v 2.361465 6.139565 1.509356
v 2.361465 5.170838 1.509356
v 2.381968 6.154565 1.558854
v 2.381968 5.170838 1.558854
v 2.431465 6.189565 1.579357
v 2.431465 5.170838 1.579357
v 2.480963 6.224565 1.558854
v 2.480963 5.170838 1.558854
v 2.501465 6.239565 1.509356
v 2.501465 5.170838 1.509356
v 1.662350 5.332568 1.459859
v 1.662350 4.277363 1.459859
v 1.612852 5.297568 1.439357
v 1.612852 4.277363 1.439357
v 1.563354 5.262568 1.459859
v 1.563354 4.277363 1.459859
v 1.542852 5.247568 1.509356
v 1.542852 4.277363 1.509356
v 1.563354 5.262568 1.558854
v 1.563354 4.277363 1.558854
v 1.612852 5.297568 1.579357
v 1.612852 4.277363 1.579357
v 1.662350 5.332568 1.558854
v 1.662350 4.277363 1.558854
v 1.682852 5.347569 1.509356
v 1.682852 4.277363 1.509356
v 1.250277 3.952022 1.459357
v 1.250277 4.958259 1.459357
v 1.229774 3.952022 1.508854
v 1.229774 4.958259 1.508854
v 1.180276 3.952022 1.529357
v 1.180276 4.958259 1.529357
v 1.130778 3.952022 1.508854
v 1.130778 4.958259 1.508854
v 1.110275 3.952022 1.459357
v 1.110275 4.958259 1.459357
v 1.130778 3.952022 1.409859
v 1.130778 4.958259 1.409859
v 1.180276 3.952022 1.389357
v 1.180276 4.958259 1.389357
v 1.229774 3.952022 1.409859
v 1.229774 4.958259 1.409859
v 0.550276 3.952022 1.459357
v 0.550276 4.958259 1.459357
v 0.529774 3.952022 1.508854
v 0.529774 4.958259 1.508854
v 0.480276 3.952022 1.529357
v 0.480276 4.958259 1.529357
v 0.430779 3.952022 1.508854
v 0.430779 4.958259 1.508854
v 0.410276 3.952022 1.459357
v 0.410276 4.958259 1.459357
v 0.430779 3.952022 1.409859
v 0.430779 4.958259 1.409859
v 0.480276 3.952022 1.389357
v 0.480276 4.958259 1.389357
v 0.529774 3.952022 1.409859
v 0.529774 4.958259 1.409859
v -3.337286 4.000000 -1.750000
v -3.337286 3.725000 -1.815999
v 0.337289 4.000000 -1.816818
v 0.337289 3.725000 -1.816818
v 4.988498 3.749866 -1.816818
v 1.400719 4.005177 -1.816818
v 5.004372 5.648434 0.000000
v 5.008130 7.600673 -1.816818
v 0.337289 0.002372 -1.825000
v 4.988498 0.027238 -1.825000
v 5.004372 5.648434 -1.816818
v 1.402269 4.420288 -1.816818
v 4.608812 7.602245 -1.816818
v 4.607313 7.202928 -1.816818
v 4.207994 7.204501 -1.816818
v 4.206496 6.805182 -1.816818
v 3.807177 6.806756 -1.816818
v 3.805679 6.407436 -1.816818
v 3.406359 6.409011 -1.816818
v 3.404862 6.009690 -1.816818
v 3.005540 6.011267 -1.816818
v 3.004045 5.611944 -1.816818
v 2.604723 5.613522 -1.816818
v 2.603229 5.214199 -1.816818
v 2.203904 5.215777 -1.816818
v 2.202412 4.816453 -1.816818
v 1.803086 4.818033 -1.816818
v 1.801595 4.418707 -1.816818
v 12.000000 7.801680 -1.481681
v -2.790429 4.931240 -1.300043
v -2.810430 4.931240 -1.699959
v -2.810430 4.968760 -1.699959
v -2.810430 4.901240 -1.669959
v -2.810430 4.998760 -1.669959
v -3.041543 4.968760 -1.698496
v -2.833607 4.998760 -1.299456
v -2.833607 4.901240 -1.299456
v -2.805249 5.008368 -1.332843
v -2.805249 4.910847 -1.332843
v -0.497726 3.979456 -1.429552
v -0.497726 4.948652 -1.429552
v -0.448229 3.979456 -1.450054
v -0.448229 4.948652 -1.450054
v -0.427726 3.979456 -1.499552
v -0.427726 4.948652 -1.499552
v -0.448229 3.979456 -1.549049
v -0.448229 4.948652 -1.549049
v -0.497726 3.979456 -1.569552
v -0.497726 4.948652 -1.569552
v -0.547224 3.979456 -1.549049
v -0.547224 4.948652 -1.549049
v -0.567726 3.979456 -1.499552
v -0.567726 4.948652 -1.499552
v -0.547224 3.979456 -1.450054
v -0.547224 4.948652 -1.450054
v -3.204241 4.931240 -1.262259
v -3.204241 4.968760 -1.262259
v -2.804323 4.968760 -1.265260
v -2.804323 4.931240 -1.265260
v -3.174240 4.901240 -1.262259
v -3.174240 4.998760 -1.262259
v -2.834324 4.901240 -1.262259
v -2.834324 4.998760 -1.262259
v -2.805249 4.978367 -1.302843
v -2.997726 4.000651 -1.429552
v -2.997726 4.948652 -1.429552
v -2.948229 4.000651 -1.450054
v -2.948229 4.948652 -1.450054
v -2.927726 4.000651 -1.499552
v -2.927726 4.948652 -1.499552
v -2.948229 4.000651 -1.549049
v -2.948229 4.948652 -1.549049
v -2.997726 4.000651 -1.569552
v -2.997726 4.948652 -1.569552
v -3.047224 4.000651 -1.549049
v -3.047224 4.948652 -1.549049
v -3.067726 4.000651 -1.499552
v -3.067726 4.948652 -1.499552
v -3.047224 4.000651 -1.450054
v -3.047224 4.948652 -1.450054
v -2.997726 4.000651 -0.729552
v -2.997726 4.948652 -0.729552
v -2.948229 4.000651 -0.750054
v -2.948229 4.948652 -0.750054
v -2.927726 4.000651 -0.799552
v -2.927726 4.948652 -0.799552
v -2.948229 4.000651 -0.849049
v -2.948229 4.948652 -0.849049
v -2.997726 4.000651 -0.869552
v -2.997726 4.948652 -0.869552
v -3.047224 4.000651 -0.849049
v -3.047224 4.948652 -0.849049
v -3.067726 4.000651 -0.799552
v -3.067726 4.948652 -0.799552
v -3.047224 4.000651 -0.750054
v -3.047224 4.948652 -0.750054
v 4.999001 8.930847 -1.304811
v 5.026126 8.984643 -1.315576
v 5.026127 8.984643 -1.693963
v 1.395181 5.010847 -1.332843
v 5.026126 8.914572 -1.315576
v 4.999002 8.930847 -1.704728
v 4.999002 8.968368 -1.704728
v 4.999001 8.968368 -1.304811
v 1.395180 5.040846 -1.702760
v 1.395180 5.078367 -1.702760
v 5.019002 8.900847 -1.674728
v 1.395181 5.078367 -1.302843
v 1.395181 5.040846 -1.302843
v 4.795180 8.831240 -1.302843
v 4.795180 8.868760 -1.302843
v 4.795180 8.868760 -1.702760
v 4.795180 8.831240 -1.702760
v 4.795180 8.801240 -1.332843
v 4.795180 8.898760 -1.332843
v 4.795180 8.801240 -1.672760
v 4.795180 8.898760 -1.672760
v 1.395181 5.108367 -1.332843
v 1.395180 5.010847 -1.672760
v 1.395180 5.108367 -1.672760
v 1.195180 4.910847 -1.332843
v 1.195180 4.940846 -1.702760
v 1.195180 4.978367 -1.702760
v 1.195180 4.978367 -1.302843
v 1.195180 4.940846 -1.302843
v 1.195180 5.008368 -1.332843
v 1.195180 4.910847 -1.672760
v 1.195180 5.008368 -1.672760
v 4.901357 7.571403 -1.509356
v 4.901357 8.893320 -1.509356
v 4.880854 7.571403 -1.558854
v 4.880854 8.878320 -1.558854
v 4.831357 7.571403 -1.579357
v 4.831357 8.843320 -1.579357
v 4.781859 7.571403 -1.558854
v 4.781859 8.808319 -1.558854
v 4.761357 7.571403 -1.509356
v 4.761357 8.793320 -1.509356
v 4.781859 7.571403 -1.459859
v 4.781859 8.808319 -1.459859
v 4.831357 7.571403 -1.439357
v 4.831357 8.843320 -1.439357
v 4.880854 7.571403 -1.459859
v 4.880854 8.878320 -1.459859
v 4.061326 7.989572 -1.459859
v 4.061326 6.769823 -1.459859
v 4.011828 7.954572 -1.439357
v 4.011828 6.769823 -1.439357
v 3.962330 7.919572 -1.459859
v 3.962330 6.769823 -1.459859
v 3.941828 7.904572 -1.509356
v 3.941828 6.769823 -1.509356
v 3.962330 7.919572 -1.558854
v 3.962330 6.769823 -1.558854
v 4.011828 7.954572 -1.579357
v 4.011828 6.769823 -1.579357
v 4.061326 7.989572 -1.558854
v 4.061326 6.769823 -1.558854
v 4.081829 8.004570 -1.509356
v 4.081829 6.769823 -1.509356
v 3.268691 7.104980 -1.459859
v 3.268691 5.979014 -1.459859
v 3.219193 7.069981 -1.439357
v 3.219193 5.979014 -1.439357
v 3.169696 7.034980 -1.459859
v 3.169696 5.979014 -1.459859
v 3.149193 7.019980 -1.509356
v 3.149193 5.979014 -1.509356
v 3.169696 7.034980 -1.558854
v 3.169696 5.979014 -1.558854
v 3.219193 7.069981 -1.579357
v 3.219193 5.979014 -1.579357
v 3.268691 7.104980 -1.558854
v 3.268691 5.979014 -1.558854
v 3.289193 7.119980 -1.509356
v 3.289193 5.979014 -1.509356
v 2.480963 6.224565 -1.459859
v 2.480963 5.170838 -1.459859
v 2.431465 6.189565 -1.439357
v 2.431465 5.170838 -1.439357
v 2.381968 6.154565 -1.459859
v 2.381968 5.170838 -1.459859
v 2.361465 6.139565 -1.509356
v 2.361465 5.170838 -1.509356
v 2.381968 6.154565 -1.558854
v 2.381968 5.170838 -1.558854
v 2.431465 6.189565 -1.579357
v 2.431465 5.170838 -1.579357
v 2.480963 6.224565 -1.558854
v 2.480963 5.170838 -1.558854
v 2.501465 6.239565 -1.509356
v 2.501465 5.170838 -1.509356
v 1.662350 5.332568 -1.459859
v 1.662350 4.277363 -1.459859
v 1.612852 5.297568 -1.439357
v 1.612852 4.277363 -1.439357
v 1.563354 5.262568 -1.459859
v 1.563354 4.277363 -1.459859
v 1.542852 5.247568 -1.509356
v 1.542852 4.277363 -1.509356
v 1.563354 5.262568 -1.558854
v 1.563354 4.277363 -1.558854
v 1.612852 5.297568 -1.579357
v 1.612852 4.277363 -1.579357
v 1.662350 5.332568 -1.558854
v 1.662350 4.277363 -1.558854
v 1.682852 5.347569 -1.509356
v 1.682852 4.277363 -1.509356
v 1.250277 3.952022 -1.459357
v 1.250277 4.958259 -1.459357
v 1.229774 3.952022 -1.508854
v 1.229774 4.958259 -1.508854
v 1.180276 3.952022 -1.529357
v 1.180276 4.958259 -1.529357
v 1.130778 3.952022 -1.508854
v 1.130778 4.958259 -1.508854
v 1.110275 3.952022 -1.459357
v 1.110275 4.958259 -1.459357
v 1.130778 3.952022 -1.409859
v 1.130778 4.958259 -1.409859
v 1.180276 3.952022 -1.389357
v 1.180276 4.958259 -1.389357
v 1.229774 3.952022 -1.409859
v 1.229774 4.958259 -1.409859
v 0.550276 3.952022 -1.459357
v 0.550276 4.958259 -1.459357
v 0.529774 3.952022 -1.508854
v 0.529774 4.958259 -1.508854
v 0.480276 3.952022 -1.529357
v 0.480276 4.958259 -1.529357
v 0.430779 3.952022 -1.508854
v 0.430779 4.958259 -1.508854
v 0.410276 3.952022 -1.459357
v 0.410276 4.958259 -1.459357
v 0.430779 3.952022 -1.409859
v 0.430779 4.958259 -1.409859
v 0.480276 3.952022 -1.389357
v 0.480276 4.958259 -1.389357
v 0.529774 3.952022 -1.409859
v 0.529774 4.958259 -1.409859
v -3.209078 4.968760 -1.526444
v -3.041543 4.931240 -1.698496
v -3.209078 4.931240 -1.526444
v -3.010680 4.901240 -1.668401
v -3.178610 4.901240 -1.495354
v -3.079598 4.901240 -1.553878
v -3.178610 4.998760 -1.495354
v -3.010680 4.998760 -1.668401
v -3.079598 4.998760 -1.553878
v -1.397726 3.979456 -1.429552
v -1.397726 4.948652 -1.429552
v -1.348228 3.979456 -1.450054
v -1.348228 4.948652 -1.450054
v -1.327725 3.979456 -1.499552
v -1.327725 4.948652 -1.499552
v -1.348228 3.979456 -1.549049
v -1.348228 4.948652 -1.549049
v -1.397726 3.979456 -1.569552
v -1.397726 4.948652 -1.569552
v -1.447224 3.979456 -1.549049
v -1.447224 4.948652 -1.549049
v -1.467726 3.979456 -1.499552
v -1.467726 4.948652 -1.499552
v -1.447224 3.979456 -1.450054
v -1.447224 4.948652 -1.450054
v -2.297726 3.979456 -1.429552
v -2.297726 4.948652 -1.429552
v -2.248228 3.979456 -1.450054
v -2.248228 4.948652 -1.450054
v -2.227725 3.979456 -1.499552
v -2.227725 4.948652 -1.499552
v -2.248228 3.979456 -1.549049
v -2.248228 4.948652 -1.549049
v -2.297726 3.979456 -1.569552
v -2.297726 4.948652 -1.569552
v -2.347223 3.979456 -1.549049
v -2.347223 4.948652 -1.549049
v -2.367725 3.979456 -1.499552
v -2.367725 4.948652 -1.499552
v -2.347223 3.979456 -1.450054
v -2.347223 4.948652 -1.450054
v -2.997726 4.000651 0.629552
v -2.997726 4.948652 0.629552
v -2.948229 4.000651 0.650054
v -2.948229 4.948652 0.650054
v -2.927726 4.000651 0.699552
v -2.927726 4.948652 0.699552
v -2.948229 4.000651 0.749049
v -2.948229 4.948652 0.749049
v -2.997726 4.000651 0.769552
v -2.997726 4.948652 0.769552
v -3.047224 4.000651 0.749049
v -3.047224 4.948652 0.749049
v -3.067726 4.000651 0.699552
v -3.067726 4.948652 0.699552
v -3.047224 4.000651 0.650054
v -3.047224 4.948652 0.650054
v 5.049002 8.930847 1.675189
v 5.049002 8.968368 1.675189
v 5.049001 8.930847 1.335272
v 5.049001 8.968368 1.335272
v 5.049002 8.930847 -1.334810
v 5.049002 8.968368 -1.334810
v 5.049001 8.930847 -1.674728
v 5.049001 8.968368 -1.674728
vn -0.0000 1.0000 -0.0000
vn -1.0000 -0.0000 -0.0000
vn -0.0182 -0.0000 0.9998
vn -0.0148 0.9893 0.1448
vn -0.0000 -0.0000 1.0000
vn -0.0049 1.0000 -0.0000
vn 1.0000 -0.0000 -0.0000
vn -1.0000 0.0037 -0.0000
vn -0.0000 0.0022 1.0000
vn 0.0039 1.0000 -0.0000
vn -1.0000 0.0038 -0.0000
vn 0.0040 1.0000 -0.0000
vn -0.9999 -0.0000 -0.0141
vn 0.4849 -0.5527 0.6778
vn 0.0052 -0.7110 -0.7032
vn 0.0052 -0.7112 -0.7030
vn 0.0052 -0.7113 -0.7029
vn -0.0000 -1.0000 -0.0000
vn -0.0001 1.0000 -0.0001
vn 0.4849 0.5526 0.6779
vn -0.9295 -0.0000 0.3689
vn 0.9285 -0.0014 0.3712
vn 0.9287 -0.0012 0.3709
vn 0.9287 -0.0011 0.3708
vn 0.6769 -0.6606 -0.3246
vn -0.0000 -0.8988 -0.4384
vn -0.6685 -0.6685 -0.3261
vn -0.0000 0.8988 0.4384
vn 0.6587 0.6753 0.3318
vn -0.6685 0.6685 0.3261
vn 0.0370 0.6821 0.7303
vn -0.7037 -0.7104 -0.0108
vn -0.7037 0.7104 -0.0108
vn 0.0370 -0.6821 0.7303
vn 0.0070 -0.0000 -1.0000
vn -0.0070 -0.0000 1.0000
vn -0.5553 0.5553 0.6191
vn 0.5553 -0.5553 -0.6191
vn -0.0000 -0.6677 -0.7444
vn -0.5553 -0.5553 -0.6191
vn -0.0000 0.6677 0.7444
vn 0.5553 0.5553 0.6191
vn -0.0000 -0.8944 -0.4472
vn -0.6667 -0.6667 -0.3333
vn -0.0000 0.8944 0.4472
vn 0.6667 0.6667 0.3333
vn -0.6667 0.6667 0.3333
vn 0.6667 -0.6667 -0.3333
vn -0.3969 -0.8221 -0.4083
vn -0.6976 -0.0000 -0.7164
vn -0.3969 0.8221 -0.4083
vn 0.0048 0.7094 -0.7048
vn 0.0048 0.7095 -0.7047
vn -0.0000 -1.0000 -0.0001
vn -0.7071 0.7071 -0.0000
vn -0.7071 0.7071 -0.0002
vn 0.7071 -0.7071 -0.0000
vn -0.7071 -0.7071 -0.0000
vn 0.7071 0.7071 -0.0000
vn -0.0000 -0.7071 0.7071
vn -0.0000 0.7090 0.7052
vn -0.7654 -0.0000 0.6436
vn 0.7668 -0.0012 0.6419
vn 0.7670 -0.0014 0.6416
vn 0.7667 -0.0011 0.6420
vn 0.3827 -0.0000 -0.9239
vn 0.9239 -0.0000 -0.3827
vn 0.9239 -0.0000 0.3827
vn 0.3827 -0.0000 0.9239
vn -0.3827 -0.0000 0.9239
vn -0.9239 -0.0000 0.3827
vn -0.9239 -0.0000 -0.3827
vn -0.3827 -0.0000 -0.9239
vn 0.9295 -0.0000 0.3689
vn 0.6769 -0.6607 -0.3246
vn -0.6684 0.6685 0.3261
vn -0.0000 0.7071 0.7071
vn 0.7636 -0.0000 0.6456
vn 0.3243 -0.6603 0.6773
vn 0.3244 -0.6604 0.6773
vn 0.3243 -0.6603 0.6774
vn 0.3243 -0.6604 0.6773
vn -0.0000 -0.0000 -1.0000
vn -0.0001 -0.0001 -1.0000
vn 0.4384 -0.8988 -0.0000
vn 0.3261 -0.6685 -0.6684
vn 0.3263 -0.6698 -0.6670
vn -0.4381 0.8989 -0.0000
vn -0.4384 0.8988 -0.0000
vn -0.3318 0.6753 0.6587
vn -0.3319 0.6753 0.6587
vn -0.3261 0.6685 -0.6685
vn -0.3261 0.6685 -0.6684
vn -0.3260 0.6685 -0.6685
vn -0.6191 0.5553 -0.5553
vn 0.6191 -0.5553 0.5553
vn 0.7444 -0.6677 -0.0000
vn 0.6191 -0.5553 -0.5553
vn -0.7444 0.6677 -0.0000
vn -0.6191 0.5553 0.5553
vn 0.4472 -0.8944 -0.0000
vn 0.3333 -0.6667 -0.6667
vn -0.4472 0.8944 -0.0000
vn -0.3333 0.6667 0.6667
vn -0.3333 0.6667 -0.6667
vn 0.3333 -0.6667 0.6667
vn -0.0000 0.7071 -0.7071
vn 0.0001 -0.7089 -0.7053
vn 0.0004 -0.7090 -0.7052
vn 0.0001 -0.7090 -0.7052
vn -0.0091 0.1191 -0.9928
vn 1.0000 -0.0019 -0.0000
vn -0.0000 0.0022 -1.0000
vn 1.0000 0.0010 -0.0058
vn 1.0000 0.0012 -0.0056
vn 1.0000 0.0016 -0.0059
vn -1.0000 -0.0000 0.0070
vn 0.7293 -0.6832 0.0380
vn 0.7294 -0.6831 0.0379
vn 0.7293 -0.6832 0.0381
vn 0.7294 -0.6830 0.0379
vn -0.0108 0.7104 -0.7037
vn -0.0107 0.7104 -0.7037
vn -0.0108 0.7104 -0.7038
vn -0.0108 -0.7104 -0.7037
vn 0.7293 0.6831 0.0378
vn 0.7293 0.6832 0.0379
vn 0.7294 0.6831 0.0378
vn 0.6767 0.5532 0.4859
vn -0.7044 -0.7098 0.0049
vn -0.7044 -0.7098 0.0048
vn 0.6775 -0.5540 0.4839
vn -0.0141 -0.0000 -0.9999
vn 0.3246 -0.6606 -0.6769
vn 0.3259 -0.6684 0.6686
vn 0.3263 -0.6699 0.6669
vn 0.3260 -0.6684 0.6685
vn -0.4387 0.8986 -0.0000
vn -0.4383 0.8988 -0.0000
vn -0.3318 0.6753 -0.6587
vn -0.3319 0.6753 -0.6587
vn -0.3261 0.6685 0.6684
vn -0.3261 0.6684 0.6685
vn -0.3260 0.6685 0.6685
vn 0.0022 -0.0000 -1.0000
vn -0.0038 -0.7071 -0.7071
vn -0.0009 -0.0001 1.0000
vn -0.0010 -0.0002 1.0000
vn -0.0012 -0.0001 1.0000
vn -0.0012 -0.0002 1.0000
vn -0.0038 -1.0000 0.0001
vn -0.0038 -1.0000 -0.0000
vn -0.0034 -0.7083 0.7059
vn -0.0033 -0.7087 0.7055
vn -0.0035 -0.7084 0.7058
vn -0.0036 -0.7087 0.7055
vn 0.0038 1.0000 -0.0001
vn 0.0038 1.0000 -0.0000
vn 0.0069 0.7071 -0.7071
vn -0.0000 0.0024 -1.0000
vn -0.4083 -0.8221 -0.3969
vn -0.7164 -0.0000 -0.6976
vn -0.4083 0.8221 -0.3969
vn -0.7048 0.7094 0.0048
vn 1.0000 -0.0084 -0.0000
vn 0.3689 -0.0000 0.9295
vn 0.3712 -0.0014 -0.9285
vn 0.3709 -0.0012 -0.9287
vn 0.3708 -0.0012 -0.9287
vn 0.7052 0.7090 -0.0000
vn 0.6436 -0.0000 0.7654
vn 0.6419 -0.0012 -0.7668
vn 0.6416 -0.0014 -0.7670
vn 0.6420 -0.0011 -0.7667
vt 0.978312 0.944738
vt 0.898374 0.944738
vt 0.898374 0.939150
vt 0.978312 0.939150
vt 0.933807 0.936765
vt 0.941244 0.943831
vt 0.971986 0.903791
vt 0.978312 0.914368
vt 0.898374 0.914368
vt 0.897914 0.943910
vt 0.977852 0.943910
vt 0.898374 0.903353
vt 0.978312 0.903353
vt 0.897914 0.943910
vt 0.898374 0.903353
vt 0.978312 0.903353
vt 0.977852 0.943910
vt 0.896618 0.903791
vt 0.904056 0.908502
vt 0.896618 0.908502
vt 0.904056 0.915568
vt 0.911494 0.915568
vt 0.970995 0.979159
vt 0.971986 0.979159
vt 0.970995 0.972094
vt 0.963557 0.965028
vt 0.963557 0.972094
vt 0.911494 0.922633
vt 0.918931 0.922633
vt 0.918931 0.929699
vt 0.926369 0.929699
vt 0.926369 0.936765
vt 0.933807 0.943831
vt 0.941244 0.950897
vt 0.948682 0.950897
vt 0.948682 0.957962
vt 0.956119 0.957962
vt 0.956119 0.965028
vt 0.887508 0.944674
vt 0.998331 0.944674
vt 0.998331 0.945448
vt 0.887508 0.945448
vt 0.962191 0.958131
vt 0.957660 0.956661
vt 0.957660 0.951147
vt 0.908038 0.907039
vt 0.908038 0.903363
vt 0.913552 0.907039
vt 0.919065 0.912553
vt 0.913552 0.912553
vt 0.952146 0.951147
vt 0.952146 0.945634
vt 0.946633 0.945634
vt 0.946633 0.940120
vt 0.941119 0.940120
vt 0.941119 0.934607
vt 0.935606 0.934607
vt 0.935606 0.929093
vt 0.930092 0.929093
vt 0.930092 0.923580
vt 0.924579 0.923580
vt 0.924579 0.918066
vt 0.919065 0.918066
vt 0.998331 0.904771
vt 0.887509 0.904771
vt 0.922535 0.950803
vt 0.900828 0.950503
vt 0.900805 0.904995
vt 0.922512 0.905295
vt 0.950308 0.903731
vt 0.998331 0.949975
vt 0.887509 0.949975
vt 0.887509 0.907202
vt 0.998331 0.907202
vt 0.887509 0.946336
vt 0.998331 0.946336
vt 0.887509 0.909084
vt 0.998331 0.909084
vt 0.887509 0.946378
vt 0.998331 0.946378
vt 0.887509 0.907285
vt 0.998331 0.907285
vt 0.887509 0.942738
vt 0.998331 0.942738
vt 0.887509 0.905486
vt 0.998331 0.905486
vt 0.887509 0.944620
vt 0.998331 0.944620
vt 0.887509 0.905527
vt 0.998331 0.905527
vt 0.887509 0.944661
vt 0.998331 0.944661
vt 0.887509 0.905568
vt 0.998331 0.905568
vt 0.887509 0.945623
vt 0.998331 0.945623
vt 0.887509 0.905610
vt 0.998331 0.905609
vt 0.887509 0.945664
vt 0.998331 0.945664
vt 0.887509 0.905650
vt 0.998331 0.905650
vt 0.887509 0.943864
vt 0.998331 0.943864
vt 0.974370 0.936855
vt 0.967240 0.936853
vt 0.967213 0.937420
vt 0.960084 0.937418
vt 0.960057 0.937985
vt 0.952927 0.937983
vt 0.952900 0.938550
vt 0.945771 0.938548
vt 0.945744 0.939115
vt 0.938614 0.939113
vt 0.938588 0.939681
vt 0.931458 0.939678
vt 0.931431 0.940246
vt 0.924301 0.940244
vt 0.924275 0.940811
vt 0.917145 0.940809
vt 0.917118 0.941376
vt 0.909988 0.941374
vt 0.909961 0.941964
vt 0.886909 0.941971
vt 0.886909 0.942362
vt 0.957950 0.942327
vt 0.974303 0.939629
vt 0.990466 0.936962
vt 0.966144 0.807016
vt 0.966138 0.806335
vt 0.996538 0.805985
vt 0.996604 0.806726
vt 0.924356 0.887455
vt 0.912798 0.887073
vt 0.924356 0.883374
vt 0.982045 0.809160
vt 0.980813 0.814635
vt 0.954186 0.815540
vt 0.954091 0.808483
vt 0.937204 0.819967
vt 0.917382 0.815159
vt 0.893278 0.812295
vt 0.935995 0.878441
vt 0.888556 0.815783
vt 0.941818 0.821614
vt 0.940146 0.874290
vt 0.898343 0.887073
vt 0.886785 0.887455
vt 0.886785 0.883374
vt 0.945003 0.816035
vt 0.933040 0.816087
vt 0.934652 0.809069
vt 0.943305 0.809824
vt 0.933144 0.884246
vt 0.945107 0.884195
vt 0.943495 0.891212
vt 0.934842 0.890457
vt 0.935530 0.821339
vt 0.942218 0.821311
vt 0.942617 0.878942
vt 0.935929 0.878970
vt 0.967184 0.876791
vt 0.969194 0.882564
vt 0.925959 0.882564
vt 0.923432 0.876791
vt 0.919501 0.814301
vt 0.922610 0.807928
vt 0.965715 0.807928
vt 0.962606 0.814301
vt 0.967183 0.811588
vt 0.923431 0.811589
vt 0.969710 0.805851
vt 0.925958 0.805852
vt 0.917499 0.877547
vt 0.917498 0.813172
vt 0.960695 0.813171
vt 0.960696 0.877546
vt 0.915003 0.883211
vt 0.958200 0.883210
vt 0.916791 0.897942
vt 0.920582 0.890172
vt 0.973136 0.890172
vt 0.969346 0.897942
vt 0.915513 0.807472
vt 0.958199 0.807472
vt 0.898343 0.891314
vt 0.886785 0.891415
vt 0.917438 0.808165
vt 0.894491 0.807559
vt 0.996725 0.814681
vt 0.947853 0.873492
vt 0.966224 0.815549
vt 0.924356 0.891415
vt 0.912798 0.891314
vt 0.884493 0.809801
vt 0.884486 0.809120
vt 0.921180 0.806903
vt 0.921186 0.807584
vt 0.911191 0.811298
vt 0.911573 0.807323
vt 0.977596 0.807323
vt 0.977214 0.811298
vt 0.971808 0.856920
vt 0.972139 0.860916
vt 0.915011 0.860916
vt 0.914680 0.856920
vt 0.902311 0.816583
vt 0.902770 0.810717
vt 0.986652 0.810717
vt 0.986194 0.816583
vt 0.971808 0.811637
vt 0.914680 0.811637
vt 0.972139 0.807641
vt 0.915011 0.807641
vt 0.911191 0.856331
vt 0.977214 0.856331
vt 0.911573 0.860305
vt 0.977597 0.860305
vt 0.891310 0.897085
vt 0.890794 0.893554
vt 0.985092 0.893554
vt 0.985608 0.897085
vt 0.958867 0.807193
vt 0.955723 0.813637
vt 0.912140 0.813637
vt 0.915283 0.807193
vt 0.956406 0.812999
vt 0.956406 0.877950
vt 0.912823 0.877951
vt 0.912822 0.812999
vt 0.958923 0.807284
vt 0.915339 0.807284
vt 0.915339 0.877986
vt 0.915339 0.813034
vt 0.958922 0.813034
vt 0.958923 0.877985
vt 0.912822 0.883701
vt 0.956406 0.883700
vt 0.913336 0.807284
vt 0.956404 0.807284
vt 0.958409 0.883701
vt 0.915341 0.883701
vt 0.958396 0.874541
vt 0.955252 0.880985
vt 0.911669 0.880985
vt 0.914812 0.874541
vt 0.921064 0.816199
vt 0.942216 0.859524
vt 0.938366 0.856497
vt 0.932367 0.855534
vt 0.995728 0.888191
vt 0.995787 0.891788
vt 0.904710 0.893276
vt 0.904651 0.889679
vt 0.990441 0.819926
vt 0.990441 0.825806
vt 0.894358 0.825806
vt 0.892335 0.819926
vt 0.892335 0.878705
vt 0.892335 0.884902
vt 0.988418 0.884902
vt 0.990441 0.878705
vt 0.990441 0.833161
vt 0.894358 0.833161
vt 0.892335 0.807959
vt 0.990441 0.807959
vt 0.892335 0.813840
vt 0.988418 0.813840
vt 0.892335 0.880468
vt 0.990441 0.813840
vt 0.990441 0.880468
vt 0.892335 0.886349
vt 0.988418 0.886349
vt 0.950425 0.817600
vt 0.950425 0.882651
vt 0.927721 0.882681
vt 0.927721 0.817630
vt 0.975019 0.709573
vt 0.975019 0.776760
vt 0.965455 0.776760
vt 0.965455 0.709573
vt 0.955890 0.776760
vt 0.955890 0.709573
vt 0.946325 0.776760
vt 0.946325 0.709573
vt 0.936760 0.776760
vt 0.936760 0.709573
vt 0.927195 0.776760
vt 0.927195 0.709573
vt 0.917630 0.776760
vt 0.917630 0.709573
vt 0.908066 0.776760
vt 0.908066 0.709573
vt 0.898501 0.776760
vt 0.898501 0.709573
vt 0.917499 0.877547
vt 0.978312 0.948308
vt 0.977852 0.948281
vt 0.897914 0.948281
vt 0.898374 0.948308
vt 0.921953 0.945477
vt 0.935976 0.945492
vt 0.935960 0.960561
vt 0.921937 0.960546
vt 0.943562 0.950863
vt 0.943634 0.905030
vt 0.965341 0.904853
vt 0.965269 0.950686
vt 0.909961 0.946335
vt 0.886909 0.946733
vt 0.886909 0.946343
vt 0.957950 0.946698
vt 0.892393 0.813044
vt 0.983470 0.811556
vt 0.983412 0.807959
vt 0.892335 0.809447
vt 0.897681 0.881310
vt 0.995787 0.881310
vt 0.993764 0.875429
vt 0.897681 0.875429
vt 0.995787 0.822530
vt 0.897681 0.822530
vt 0.899703 0.816333
vt 0.995787 0.816333
vt 0.993764 0.868074
vt 0.897681 0.868074
vt 0.995787 0.893276
vt 0.897681 0.893276
vt 0.995787 0.887396
vt 0.899704 0.887396
vt 0.995787 0.820767
vt 0.897681 0.820767
vt 0.897681 0.887396
vt 0.995787 0.814886
vt 0.899703 0.814886
vt 0.986604 0.904996
vt 0.986532 0.950863
vt 0.949999 0.945508
vt 0.949983 0.960576
vt 0.936023 0.902280
vt 0.936040 0.930838
vt 0.921969 0.930823
vt 0.921937 0.902265
vt 0.950015 0.930853
vt 0.950110 0.902121
s 0
f 3/1/1 2/2/1 27/3/1 47/4/1
f 36/5/2 38/6/2 1/7/2
f 47/8/3 27/9/3 46/10/3 49/11/3
f 49/11/4 46/10/4 45/12/4 50/13/4
f 50/13/5 45/12/5 44/10/5 51/11/5
f 51/11/1 44/10/1 43/12/1 52/13/1
f 52/13/5 43/12/5 42/10/5 53/11/5
f 53/11/1 42/10/1 41/12/1 54/13/1
f 54/13/5 41/12/5 40/14/5 55/11/5
f 55/11/1 40/14/1 39/15/1 56/13/1
f 56/13/5 39/15/5 38/14/5 57/11/5
f 57/11/1 38/14/1 37/12/1 58/13/1
f 58/13/5 37/12/5 36/10/5 59/11/5
f 59/11/1 36/10/1 35/15/1 60/16/1
f 60/16/5 35/15/5 34/14/5 61/17/5
f 61/17/1 34/14/1 33/12/1 62/13/1
f 62/13/5 33/12/5 32/10/5 63/17/5
f 63/17/1 32/10/1 31/12/1 64/16/1
f 64/16/5 31/12/5 30/10/5 65/11/5
f 65/11/1 30/10/1 29/12/1 66/16/1
f 66/16/5 29/12/5 28/10/5 67/17/5
f 67/17/1 28/10/1 26/12/1 48/13/1
f 25/17/5 48/13/5 26/12/5 24/14/5
f 1/7/2 24/18/2 28/19/2
f 24/18/2 26/20/2 28/19/2
f 28/19/2 29/21/2 30/22/2
f 27/23/2 2/24/2 46/25/2
f 2/24/2 1/7/2 46/25/2
f 44/26/2 45/27/2 46/25/2
f 1/7/2 28/19/2 30/22/2
f 30/22/2 31/28/2 32/29/2
f 32/29/2 33/30/2 34/31/2
f 34/31/2 35/32/2 36/5/2
f 36/5/2 37/33/2 38/6/2
f 38/6/2 39/34/2 40/35/2
f 40/35/2 41/36/2 42/37/2
f 42/37/2 43/38/2 44/26/2
f 44/26/2 46/25/2 1/7/2
f 1/7/2 30/22/2 32/29/2
f 1/7/2 32/29/2 34/31/2
f 42/37/2 44/26/2 1/7/2
f 40/35/2 42/37/2 1/7/2
f 1/7/2 34/31/2 36/5/2
f 38/6/2 40/35/2 1/7/2
f 3/39/6 47/40/6 69/41/6 4/42/6
f 49/43/7 50/44/7 51/45/7
f 48/46/7 25/47/7 67/48/7
f 65/49/7 66/50/7 67/48/7
f 51/45/7 52/51/7 53/52/7
f 53/52/7 54/53/7 55/54/7
f 55/54/7 56/55/7 57/56/7
f 57/56/7 58/57/7 59/58/7
f 59/58/7 60/59/7 61/60/7
f 61/60/7 62/61/7 63/62/7
f 63/62/7 64/63/7 65/49/7
f 4/42/8 69/41/8 75/64/8 6/65/8
f 68/66/9 49/67/9 72/68/9 73/69/9
f 61/60/7 63/62/7 72/70/7
f 71/71/10 23/72/10 22/73/10 76/74/10
f 76/74/11 22/73/11 21/75/11 77/76/11
f 77/76/10 21/75/10 20/77/10 78/78/10
f 78/78/11 20/77/11 19/79/11 79/80/11
f 79/80/10 19/79/10 18/81/10 80/82/10
f 80/82/8 18/81/8 17/83/8 81/84/8
f 81/84/10 17/83/10 16/85/10 82/86/10
f 82/86/8 16/85/8 15/87/8 83/88/8
f 83/88/10 15/87/10 14/89/10 84/90/10
f 84/90/8 14/89/8 13/91/8 85/92/8
f 85/92/12 13/91/12 12/93/12 86/94/12
f 86/94/8 12/93/8 11/95/8 87/96/8
f 87/96/12 11/95/12 10/97/12 88/98/12
f 88/98/8 10/97/8 9/99/8 89/100/8
f 89/100/12 9/99/12 8/101/12 90/102/12
f 90/102/8 8/101/8 7/103/8 91/104/8
f 91/104/12 7/103/12 6/65/12 75/64/12
f 71/105/5 76/106/5 77/107/5
f 77/107/5 78/108/5 79/109/5
f 79/109/5 80/110/5 81/111/5
f 81/111/5 82/112/5 83/113/5
f 83/113/5 84/114/5 85/115/5
f 85/115/5 86/116/5 87/117/5
f 87/117/5 88/118/5 89/119/5
f 89/119/5 90/120/5 91/121/5
f 91/121/5 75/122/5 69/123/5
f 69/123/5 47/124/5 49/125/5
f 68/126/5 74/127/5 85/115/5
f 74/127/5 71/128/5 77/107/5
f 69/123/5 49/125/5 68/126/5
f 89/119/5 91/121/5 68/126/5
f 91/121/5 69/123/5 68/126/5
f 85/115/5 87/117/5 68/126/5
f 87/117/5 89/119/5 68/126/5
f 83/113/5 85/115/5 74/127/5
f 77/107/5 79/109/5 74/127/5
f 79/109/5 81/111/5 74/127/5
f 81/111/5 83/113/5 74/127/5
f 57/56/7 59/58/7 72/70/7
f 59/58/7 61/60/7 72/70/7
f 55/54/7 57/56/7 72/70/7
f 53/52/7 55/54/7 72/70/7
f 72/70/7 49/43/7 51/45/7
f 67/48/7 25/47/7 72/70/7
f 65/49/7 67/48/7 72/70/7
f 72/70/7 51/45/7 53/52/7
f 63/62/7 65/49/7 72/70/7
f 131/129/13 133/130/13 98/131/13 99/132/13
f 114/133/14 101/134/14 110/135/14
f 93/136/15 501/137/16 136/138/17 134/139/16
f 501/137/18 137/140/18 136/138/18
f 135/141/18 137/140/18 103/142/18
f 97/143/1 512/144/1 140/145/1 115/146/19
f 100/147/20 115/148/20 112/149/20
f 126/150/21 130/151/21 104/152/21 102/153/21
f 152/154/22 151/155/23 124/156/22 106/157/24
f 149/158/5 128/159/5 150/160/5 153/161/5
f 110/162/25 101/163/25 119/164/25 122/165/25
f 99/166/2 98/167/2 116/168/2 117/169/2
f 103/170/26 110/162/26 122/165/26 120/171/26
f 98/172/27 103/170/27 120/171/27 116/173/27
f 112/174/28 107/175/28 121/176/28 123/177/28
f 100/178/29 112/174/29 123/177/29 118/179/29
f 101/180/7 100/181/7 118/182/7 119/183/7
f 107/175/30 99/184/30 117/185/30 121/176/30
f 95/186/31 97/187/31 115/148/31 100/147/31
f 133/188/32 135/141/32 103/142/32 98/189/32
f 115/146/1 140/145/1 107/190/1 112/191/1
f 139/192/33 131/129/33 99/132/33 107/190/33
f 96/193/34 94/194/34 101/134/34 114/133/34
f 482/195/35 93/196/35 134/197/35 132/198/35
f 94/194/36 95/186/36 100/147/36 101/134/36
f 121/199/37 117/200/37 111/201/37 125/202/37
f 122/203/38 119/204/38 108/205/38 127/206/38
f 117/207/2 116/208/2 113/209/2 111/210/2
f 120/211/39 122/203/39 127/206/39 105/212/39
f 116/213/40 120/211/40 105/212/40 113/214/40
f 123/215/41 121/199/41 125/202/41 129/216/41
f 118/217/42 123/215/42 129/216/42 109/218/42
f 119/219/7 118/220/7 109/221/7 108/222/7
f 111/223/2 113/224/2 145/225/2 144/226/2
f 105/227/43 127/228/43 147/229/43 141/230/43
f 113/231/44 105/227/44 141/230/44 145/232/44
f 129/233/45 125/234/45 146/235/45 148/236/45
f 109/237/46 129/233/46 148/236/46 143/238/46
f 125/234/47 111/239/47 144/240/47 146/235/47
f 127/228/48 108/241/48 142/242/48 147/229/48
f 108/243/7 109/244/7 143/245/7 142/246/7
f 135/141/18 136/138/18 137/140/18
f 138/247/1 139/192/1 140/145/1
f 135/141/49 133/188/49 134/139/49 136/138/49
f 133/130/50 131/129/50 132/198/50 134/197/50
f 131/129/51 139/192/51 138/247/51 132/198/51
f 512/144/52 482/195/52 132/198/52 138/247/53
f 140/145/1 512/144/1 138/247/1
f 107/190/1 140/145/1 139/192/1
f 137/140/18 501/137/54 96/248/18 114/249/18
f 103/142/18 137/140/18 114/249/18 110/250/18
f 142/251/7 143/252/7 106/253/7 124/254/7
f 146/255/55 144/256/56 104/257/55 130/258/55
f 147/259/57 142/260/57 124/261/57 151/262/57
f 144/256/2 145/263/2 102/264/2 104/257/2
f 141/265/18 147/259/18 151/262/18 126/266/54
f 145/267/58 141/265/58 126/266/58 102/268/58
f 148/269/1 146/267/1 130/270/1 152/271/1
f 143/272/59 148/269/59 152/271/59 106/273/59
f 150/160/60 128/159/60 126/274/60 151/275/60
f 149/158/61 153/161/61 152/276/61 130/277/61
f 130/151/62 126/150/62 128/159/62 149/158/62
f 151/155/63 152/154/64 153/161/65 150/160/64
f 154/278/66 155/279/66 157/280/66 156/281/66
f 156/281/67 157/280/67 159/282/67 158/283/67
f 158/283/68 159/282/68 161/284/68 160/285/68
f 160/285/69 161/284/69 163/286/69 162/287/69
f 162/287/70 163/286/70 165/288/70 164/289/70
f 164/289/71 165/288/71 167/290/71 166/291/71
f 166/291/72 167/290/72 169/292/72 168/293/72
f 168/293/73 169/292/73 155/294/73 154/295/73
f 171/293/73 170/292/73 184/294/73 185/295/73
f 173/291/72 172/290/72 170/292/72 171/293/72
f 175/289/71 174/288/71 172/290/71 173/291/71
f 177/287/70 176/286/70 174/288/70 175/289/70
f 179/285/69 178/284/69 176/286/69 177/287/69
f 181/283/68 180/282/68 178/284/68 179/285/68
f 183/281/67 182/280/67 180/282/67 181/283/67
f 185/278/66 184/279/66 182/280/66 183/281/66
f 187/293/73 186/292/73 200/294/73 201/295/73
f 189/291/72 188/290/72 186/292/72 187/293/72
f 191/289/71 190/288/71 188/290/71 189/291/71
f 193/287/70 192/286/70 190/288/70 191/289/70
f 195/285/69 194/284/69 192/286/69 193/287/69
f 197/283/68 196/282/68 194/284/68 195/285/68
f 199/281/67 198/280/67 196/282/67 197/283/67
f 201/278/66 200/279/66 198/280/66 199/281/66
f 203/293/73 202/292/73 216/294/73 217/295/73
f 205/291/72 204/290/72 202/292/72 203/293/72
f 207/289/71 206/288/71 204/290/71 205/291/71
f 209/287/70 208/286/70 206/288/70 207/289/70
f 211/285/69 210/284/69 208/286/69 209/287/69
f 213/283/68 212/282/68 210/284/68 211/285/68
f 215/281/67 214/280/67 212/282/67 213/283/67
f 217/278/66 216/279/66 214/280/66 215/281/66
f 219/293/73 218/292/73 232/294/73 233/295/73
f 221/291/72 220/290/72 218/292/72 219/293/72
f 223/289/71 222/288/71 220/290/71 221/291/71
f 225/287/70 224/286/70 222/288/70 223/289/70
f 227/285/69 226/284/69 224/286/69 225/287/69
f 229/283/68 228/282/68 226/284/68 227/285/68
f 231/281/67 230/280/67 228/282/67 229/283/67
f 233/278/66 232/279/66 230/280/66 231/281/66
f 234/278/66 235/279/66 237/280/66 236/281/66
f 236/281/67 237/280/67 239/282/67 238/283/67
f 238/283/68 239/282/68 241/284/68 240/285/68
f 240/285/69 241/284/69 243/286/69 242/287/69
f 242/287/70 243/286/70 245/288/70 244/289/70
f 244/289/71 245/288/71 247/290/71 246/291/71
f 246/291/72 247/290/72 249/292/72 248/293/72
f 248/293/73 249/292/73 235/294/73 234/295/73
f 250/278/66 251/279/66 253/280/66 252/281/66
f 252/281/67 253/280/67 255/282/67 254/283/67
f 254/283/68 255/282/68 257/284/68 256/285/68
f 256/285/69 257/284/69 259/286/69 258/287/69
f 258/287/70 259/286/70 261/288/70 260/289/70
f 260/289/71 261/288/71 263/290/71 262/291/71
f 262/291/72 263/290/72 265/292/72 264/293/72
f 264/293/73 265/292/73 251/294/73 250/295/73
f 266/278/66 267/279/66 269/280/66 268/281/66
f 268/281/67 269/280/67 271/282/67 270/283/67
f 270/283/68 271/282/68 273/284/68 272/285/68
f 272/285/69 273/284/69 275/286/69 274/287/69
f 274/287/70 275/286/70 277/288/70 276/289/70
f 276/289/71 277/288/71 279/290/71 278/291/71
f 278/291/72 279/290/72 281/292/72 280/293/72
f 280/293/73 281/292/73 267/294/73 266/295/73
f 308/150/21 312/151/21 288/152/21 286/153/21
f 324/154/74 323/155/74 306/156/74 290/157/74
f 321/158/5 310/159/5 322/160/5 325/161/5
f 294/162/75 285/163/75 301/164/75 304/165/75
f 283/166/2 282/167/2 298/168/2 299/169/2
f 287/170/26 294/162/26 304/165/26 302/171/26
f 282/172/27 287/170/27 302/171/27 298/173/27
f 296/174/28 291/175/28 303/176/28 305/177/28
f 284/178/29 296/174/29 305/177/29 300/179/29
f 285/180/7 284/181/7 300/182/7 301/183/7
f 291/175/76 283/184/76 299/185/76 303/176/76
f 303/199/37 299/200/37 295/201/37 307/202/37
f 304/203/38 301/204/38 292/205/38 309/206/38
f 299/207/2 298/208/2 297/209/2 295/210/2
f 302/211/39 304/203/39 309/206/39 289/212/39
f 298/213/40 302/211/40 289/212/40 297/214/40
f 305/215/41 303/199/41 307/202/41 311/216/41
f 300/217/42 305/215/42 311/216/42 293/218/42
f 301/219/7 300/220/7 293/221/7 292/222/7
f 295/223/2 297/224/2 317/225/2 316/226/2
f 289/227/43 309/228/43 319/229/43 313/230/43
f 297/231/44 289/227/44 313/230/44 317/232/44
f 311/233/45 307/234/45 318/235/45 320/236/45
f 293/237/46 311/233/46 320/236/46 315/238/46
f 307/234/47 295/239/47 316/240/47 318/235/47
f 309/228/48 292/241/48 314/242/48 319/229/48
f 292/243/7 293/244/7 315/245/7 314/246/7
f 314/251/7 315/252/7 290/253/7 306/254/7
f 318/255/55 316/256/56 288/257/55 312/258/55
f 319/259/57 314/260/57 306/261/57 323/262/57
f 316/256/2 317/263/2 286/264/2 288/257/2
f 313/265/18 319/259/18 323/262/18 308/266/54
f 317/267/58 313/265/58 308/266/58 286/268/58
f 320/269/1 318/267/1 312/270/1 324/271/1
f 315/272/59 320/269/59 324/271/59 290/273/59
f 322/160/60 310/159/60 308/274/60 323/275/60
f 321/158/77 325/161/77 324/276/77 312/277/77
f 312/151/62 308/150/62 310/159/62 321/158/62
f 323/155/78 324/154/78 325/161/78 322/160/78
f 326/278/66 327/279/66 329/280/66 328/281/66
f 328/281/67 329/280/67 331/282/67 330/283/67
f 330/283/68 331/282/68 333/284/68 332/285/68
f 332/285/69 333/284/69 335/286/69 334/287/69
f 334/287/70 335/286/70 337/288/70 336/289/70
f 336/289/71 337/288/71 339/290/71 338/291/71
f 338/291/72 339/290/72 341/292/72 340/293/72
f 340/293/73 341/292/73 327/294/73 326/295/73
f 343/293/73 342/292/73 356/294/73 357/295/73
f 345/291/72 344/290/72 342/292/72 343/293/72
f 347/289/71 346/288/71 344/290/71 345/291/71
f 349/287/70 348/286/70 346/288/70 347/289/70
f 351/285/69 350/284/69 348/286/69 349/287/69
f 353/283/68 352/282/68 350/284/68 351/285/68
f 355/281/67 354/280/67 352/282/67 353/283/67
f 357/278/66 356/279/66 354/280/66 355/281/66
f 359/293/73 358/292/73 372/294/73 373/295/73
f 361/291/72 360/290/72 358/292/72 359/293/72
f 363/289/71 362/288/71 360/290/71 361/291/71
f 365/287/70 364/286/70 362/288/70 363/289/70
f 367/285/69 366/284/69 364/286/69 365/287/69
f 369/283/68 368/282/68 366/284/68 367/285/68
f 371/281/67 370/280/67 368/282/67 369/283/67
f 373/278/66 372/279/66 370/280/66 371/281/66
f 375/293/73 374/292/73 388/294/73 389/295/73
f 377/291/72 376/290/72 374/292/72 375/293/72
f 379/289/71 378/288/71 376/290/71 377/291/71
f 381/287/70 380/286/70 378/288/70 379/289/70
f 383/285/69 382/284/69 380/286/69 381/287/69
f 385/283/68 384/282/68 382/284/68 383/285/68
f 387/281/67 386/280/67 384/282/67 385/283/67
f 389/278/66 388/279/66 386/280/66 387/281/66
f 391/293/73 390/292/73 404/294/73 405/295/73
f 393/291/72 392/290/72 390/292/72 391/293/72
f 395/289/71 394/288/71 392/290/71 393/291/71
f 397/287/70 396/286/70 394/288/70 395/289/70
f 399/285/69 398/284/69 396/286/69 397/287/69
f 401/283/68 400/282/68 398/284/68 399/285/68
f 403/281/67 402/280/67 400/282/67 401/283/67
f 405/278/66 404/279/66 402/280/66 403/281/66
f 406/278/66 407/279/66 409/280/66 408/281/66
f 408/281/67 409/280/67 411/282/67 410/283/67
f 410/283/68 411/282/68 413/284/68 412/285/68
f 412/285/69 413/284/69 415/286/69 414/287/69
f 414/287/70 415/286/70 417/288/70 416/289/70
f 416/289/71 417/288/71 419/290/71 418/291/71
f 418/291/72 419/290/72 421/292/72 420/293/72
f 420/293/73 421/292/73 407/294/73 406/295/73
f 422/278/66 423/279/66 425/280/66 424/281/66
f 424/281/67 425/280/67 427/282/67 426/283/67
f 426/283/68 427/282/68 429/284/68 428/285/68
f 428/285/69 429/284/69 431/286/69 430/287/69
f 430/287/70 431/286/70 433/288/70 432/289/70
f 432/289/71 433/288/71 435/290/71 434/291/71
f 434/291/72 435/290/72 437/292/72 436/293/72
f 436/293/73 437/292/73 423/294/73 422/295/73
f 284/181/7 285/180/7 439/180/7 438/181/7
f 440/278/66 441/279/66 443/280/66 442/281/66
f 442/281/67 443/280/67 445/282/67 444/283/67
f 444/283/68 445/282/68 447/284/68 446/285/68
f 446/285/69 447/284/69 449/286/69 448/287/69
f 448/287/70 449/286/70 451/288/70 450/289/70
f 450/289/71 451/288/71 453/290/71 452/291/71
f 452/291/72 453/290/72 455/292/72 454/293/72
f 454/293/73 455/292/73 441/294/73 440/295/73
f 456/278/66 457/279/66 459/280/66 458/281/66
f 458/281/67 459/280/67 461/282/67 460/283/67
f 460/283/68 461/282/68 463/284/68 462/285/68
f 462/285/69 463/284/69 465/286/69 464/287/69
f 464/287/70 465/286/70 467/288/70 466/289/70
f 466/289/71 467/288/71 469/290/71 468/291/71
f 468/291/72 469/290/72 471/292/72 470/293/72
f 470/293/73 471/292/73 457/294/73 456/295/73
f 282/167/2 283/166/2 477/166/2 475/167/2
f 287/170/58 282/172/58 475/172/58 474/170/58
f 294/162/18 287/170/18 474/170/18 476/162/18
f 283/184/55 291/175/55 473/175/55 477/184/55
f 291/175/1 296/174/1 472/296/1 473/175/1
f 285/163/57 294/162/57 476/162/57 439/163/57
f 296/174/59 284/178/59 438/178/59 472/296/59
f 489/162/79 484/163/80 495/164/81 498/165/82
f 486/166/83 478/167/83 492/168/83 493/169/84
f 483/170/85 489/162/85 498/165/85 496/171/85
f 478/172/86 483/170/87 496/171/86 492/173/87
f 480/174/88 479/175/88 497/176/88 499/177/89
f 485/178/90 480/174/90 499/177/91 494/179/90
f 484/180/5 485/181/5 494/182/5 495/183/5
f 479/175/92 486/184/93 493/185/93 497/176/94
f 497/199/95 493/200/95 490/201/95 500/202/95
f 498/203/96 495/204/96 487/205/96 502/206/96
f 493/207/83 492/208/83 491/209/83 490/210/83
f 496/211/97 498/203/97 502/206/97 481/212/97
f 492/213/98 496/211/98 481/212/98 491/214/98
f 499/215/99 497/199/99 500/202/99 503/216/99
f 494/217/100 499/215/100 503/216/100 488/218/100
f 495/219/5 494/220/5 488/221/5 487/222/5
f 490/223/83 491/224/83 508/225/83 507/226/83
f 481/227/101 502/228/101 510/229/101 504/230/101
f 491/231/102 481/227/102 504/230/102 508/232/102
f 503/233/103 500/234/103 509/235/103 511/236/103
f 488/237/104 503/233/104 511/236/104 506/238/104
f 500/234/105 490/239/105 507/240/105 509/235/105
f 502/228/106 487/241/106 505/242/106 510/229/106
f 487/243/5 488/244/5 506/245/5 505/246/5
f 505/251/5 506/252/5 95/253/5 94/254/5
f 509/255/107 507/256/107 482/257/107 512/258/107
f 510/259/60 505/260/60 94/261/60 96/262/60
f 507/256/83 508/263/83 93/264/83 482/257/83
f 504/265/18 510/259/18 96/262/18 501/266/18
f 508/267/108 504/265/109 501/266/108 93/268/110
f 511/269/1 509/267/1 512/270/1 97/271/1
f 506/272/77 511/269/77 97/271/77 95/273/77
f 513/278/68 514/279/68 516/280/68 515/281/68
f 515/281/69 516/280/69 518/282/69 517/283/69
f 517/283/70 518/282/70 520/284/70 519/285/70
f 519/285/71 520/284/71 522/286/71 521/287/71
f 521/287/72 522/286/72 524/288/72 523/289/72
f 523/289/73 524/288/73 526/290/73 525/291/73
f 525/291/66 526/290/66 528/292/66 527/293/66
f 527/293/67 528/292/67 514/294/67 513/295/67
f 530/293/67 529/292/67 543/294/67 544/295/67
f 532/291/66 531/290/66 529/292/66 530/293/66
f 534/289/73 533/288/73 531/290/73 532/291/73
f 536/287/72 535/286/72 533/288/72 534/289/72
f 538/285/71 537/284/71 535/286/71 536/287/71
f 540/283/70 539/282/70 537/284/70 538/285/70
f 542/281/69 541/280/69 539/282/69 540/283/69
f 544/278/68 543/279/68 541/280/68 542/281/68
f 546/293/67 545/292/67 559/294/67 560/295/67
f 548/291/66 547/290/66 545/292/66 546/293/66
f 550/289/73 549/288/73 547/290/73 548/291/73
f 552/287/72 551/286/72 549/288/72 550/289/72
f 554/285/71 553/284/71 551/286/71 552/287/71
f 556/283/70 555/282/70 553/284/70 554/285/70
f 558/281/69 557/280/69 555/282/69 556/283/69
f 560/278/68 559/279/68 557/280/68 558/281/68
f 562/293/67 561/292/67 575/294/67 576/295/67
f 564/291/66 563/290/66 561/292/66 562/293/66
f 566/289/73 565/288/73 563/290/73 564/291/73
f 568/287/72 567/286/72 565/288/72 566/289/72
f 570/285/71 569/284/71 567/286/71 568/287/71
f 572/283/70 571/282/70 569/284/70 570/285/70
f 574/281/69 573/280/69 571/282/69 572/283/69
f 576/278/68 575/279/68 573/280/68 574/281/68
f 578/293/67 577/292/67 591/294/67 592/295/67
f 580/291/66 579/290/66 577/292/66 578/293/66
f 582/289/73 581/288/73 579/290/73 580/291/73
f 584/287/72 583/286/72 581/288/72 582/289/72
f 586/285/71 585/284/71 583/286/71 584/287/71
f 588/283/70 587/282/70 585/284/70 586/285/70
f 590/281/69 589/280/69 587/282/69 588/283/69
f 592/278/68 591/279/68 589/280/68 590/281/68
f 593/278/68 594/279/68 596/280/68 595/281/68
f 595/281/69 596/280/69 598/282/69 597/283/69
f 597/283/70 598/282/70 600/284/70 599/285/70
f 599/285/71 600/284/71 602/286/71 601/287/71
f 601/287/72 602/286/72 604/288/72 603/289/72
f 603/289/73 604/288/73 606/290/73 605/291/73
f 605/291/66 606/290/66 608/292/66 607/293/66
f 607/293/67 608/292/67 594/294/67 593/295/67
f 609/278/68 610/279/68 612/280/68 611/281/68
f 611/281/69 612/280/69 614/282/69 613/283/69
f 613/283/70 614/282/70 616/284/70 615/285/70
f 615/285/71 616/284/71 618/286/71 617/287/71
f 617/287/72 618/286/72 620/288/72 619/289/72
f 619/289/73 620/288/73 622/290/73 621/291/73
f 621/291/66 622/290/66 624/292/66 623/293/66
f 623/293/67 624/292/67 610/294/67 609/295/67
f 3/1/1 627/4/1 625/3/1 2/2/1
f 627/297/111 628/298/111 626/299/111 625/300/111
f 625/23/2 626/25/2 2/24/2
f 2/24/2 626/25/2 1/7/2
f 3/39/6 4/42/6 630/41/6 627/40/6
f 74/301/112 631/302/112 23/303/112 71/304/112
f 4/42/8 6/65/8 636/64/8 630/41/8
f 629/305/113 634/306/113 633/307/113 628/308/113
f 632/71/10 637/74/10 22/73/10 23/72/10
f 637/74/11 638/76/11 21/75/11 22/73/11
f 638/76/10 639/78/10 20/77/10 21/75/10
f 639/78/11 640/80/11 19/79/11 20/77/11
f 640/80/10 641/82/10 18/81/10 19/79/10
f 641/82/8 642/84/8 17/83/8 18/81/8
f 642/84/10 643/86/10 16/85/10 17/83/10
f 643/86/8 644/88/8 15/87/8 16/85/8
f 644/88/10 645/90/10 14/89/10 15/87/10
f 645/90/8 646/92/8 13/91/8 14/89/8
f 646/92/12 647/94/12 12/93/12 13/91/12
f 647/94/8 648/96/8 11/95/8 12/93/8
f 648/96/12 649/98/12 10/97/12 11/95/12
f 649/98/8 650/100/8 9/99/8 10/97/8
f 650/100/12 651/102/12 8/101/12 9/99/12
f 651/102/8 652/104/8 7/103/8 8/101/8
f 652/104/12 636/64/12 6/65/12 7/103/12
f 632/105/83 638/107/83 637/106/83
f 638/107/83 640/109/83 639/108/83
f 640/109/83 642/111/83 641/110/83
f 642/111/83 644/113/83 643/112/83
f 644/113/83 646/115/83 645/114/83
f 646/115/83 648/117/83 647/116/83
f 648/117/83 650/119/83 649/118/83
f 650/119/83 652/121/83 651/120/83
f 652/121/83 630/123/83 636/122/83
f 630/309/83 628/310/83 627/311/83
f 629/126/83 646/115/83 635/127/83
f 635/127/83 638/107/83 632/128/83
f 630/309/83 629/312/83 628/310/83
f 650/119/83 629/126/83 652/121/83
f 652/121/83 629/126/83 630/123/83
f 646/115/83 629/126/83 648/117/83
f 648/117/83 629/126/83 650/119/83
f 644/113/83 635/127/83 646/115/83
f 638/107/83 635/127/83 640/109/83
f 640/109/83 635/127/83 642/111/83
f 642/111/83 635/127/83 644/113/83
f 871/247/1 873/145/1 872/192/1
f 868/141/18 870/140/18 869/138/18
f 683/194/114 654/134/115 688/147/114 682/186/116
f 681/195/117 865/198/117 867/197/117 680/196/117
f 686/193/118 661/133/119 654/134/120 683/194/121
f 872/192/122 658/190/123 656/132/124 659/129/122
f 660/146/1 662/191/1 658/190/1 873/145/1
f 866/188/125 655/189/125 657/142/125 868/141/125
f 664/278/69 666/281/69 667/280/69 665/279/69
f 666/281/68 668/283/68 669/282/68 667/280/68
f 668/283/67 670/285/67 671/284/67 669/282/67
f 670/285/66 672/287/66 673/286/66 671/284/66
f 672/287/73 674/289/73 675/288/73 673/286/73
f 674/289/72 676/291/72 677/290/72 675/288/72
f 676/291/71 678/293/71 679/292/71 677/290/71
f 678/293/70 664/295/70 665/294/70 679/292/70
f 682/186/126 688/147/127 660/148/128 687/187/127
f 688/147/129 662/149/129 660/148/129
f 687/143/1 660/146/1 873/145/1 685/144/1
f 868/141/18 657/142/18 870/140/18
f 684/137/18 869/138/18 870/140/18
f 680/136/130 867/139/131 869/138/130 684/137/130
f 661/133/132 663/135/132 654/134/132
f 659/129/133 656/132/133 655/131/133 866/130/133
f 682/181/7 438/181/7 439/180/7 683/180/7
f 689/278/69 691/281/69 692/280/69 690/279/69
f 691/281/68 693/283/68 694/282/68 692/280/68
f 693/283/67 695/285/67 696/284/67 694/282/67
f 695/285/66 697/287/66 698/286/66 696/284/66
f 697/287/73 699/289/73 700/288/73 698/286/73
f 699/289/72 701/291/72 702/290/72 700/288/72
f 701/291/71 703/293/71 704/292/71 702/290/71
f 703/293/70 689/295/70 690/294/70 704/292/70
f 705/278/69 707/281/69 708/280/69 706/279/69
f 707/281/68 709/283/68 710/282/68 708/280/68
f 709/283/67 711/285/67 712/284/67 710/282/67
f 711/285/66 713/287/66 714/286/66 712/284/66
f 713/287/73 715/289/73 716/288/73 714/286/73
f 715/289/72 717/291/72 718/290/72 716/288/72
f 717/291/71 719/293/71 720/292/71 718/290/71
f 719/293/70 705/295/70 706/294/70 720/292/70
f 680/167/2 475/167/2 477/166/2 681/166/2
f 684/170/58 474/170/58 475/172/58 680/172/58
f 686/162/18 476/162/18 474/170/18 684/170/18
f 681/184/55 477/184/55 473/175/55 685/175/55
f 685/175/1 473/175/1 472/296/1 687/174/1
f 683/163/57 439/163/57 476/162/57 686/162/57
f 687/174/59 472/296/59 438/178/59 682/178/59
f 731/162/134 740/165/134 737/164/134 726/163/134
f 728/166/5 735/169/5 734/168/5 721/167/5
f 725/170/85 738/171/85 740/165/85 731/162/85
f 721/172/135 734/173/136 738/171/137 725/170/136
f 723/174/89 741/177/138 739/176/138 722/175/139
f 727/178/140 736/179/140 741/177/140 723/174/141
f 726/180/83 737/183/83 736/182/83 727/181/83
f 722/175/142 739/176/143 735/185/142 728/184/144
f 739/199/100 742/202/100 732/201/100 735/200/100
f 740/203/98 743/206/98 729/205/98 737/204/98
f 735/207/5 732/210/5 733/209/5 734/208/5
f 738/211/97 724/212/97 743/206/97 740/203/97
f 734/213/96 733/214/96 724/212/96 738/211/96
f 741/215/99 744/216/99 742/202/99 739/199/99
f 736/217/95 730/218/95 744/216/95 741/215/95
f 737/219/83 729/222/83 730/221/83 736/220/83
f 732/223/5 748/226/5 749/225/5 733/224/5
f 724/227/101 745/230/101 751/229/101 743/228/101
f 733/231/106 749/232/106 745/230/106 724/227/106
f 744/233/103 752/236/103 750/235/103 742/234/103
f 730/237/105 747/238/105 752/236/105 744/233/105
f 742/234/104 750/235/104 748/240/104 732/239/104
f 743/228/102 751/229/102 746/242/102 729/241/102
f 729/243/83 746/246/83 747/245/83 730/244/83
f 746/313/145 655/314/145 656/315/145 747/316/145
f 750/317/77 662/318/77 688/319/77 748/320/77
f 751/321/146 657/322/146 655/323/146 746/324/146
f 748/320/147 688/319/148 654/325/149 749/326/150
f 745/327/151 663/328/152 657/322/152 751/321/152
f 749/329/153 654/330/154 663/328/155 745/327/156
f 752/331/157 658/332/158 662/333/157 750/329/158
f 747/334/159 656/335/159 658/332/159 752/331/159
f 753/278/67 755/281/67 756/280/67 754/279/67
f 755/281/66 757/283/66 758/282/66 756/280/66
f 757/283/73 759/285/73 760/284/73 758/282/73
f 759/285/72 761/287/72 762/286/72 760/284/72
f 761/287/71 763/289/71 764/288/71 762/286/71
f 763/289/70 765/291/70 766/290/70 764/288/70
f 765/291/69 767/293/69 768/292/69 766/290/69
f 767/293/68 753/295/68 754/294/68 768/292/68
f 770/293/68 784/295/68 783/294/68 769/292/68
f 772/291/69 770/293/69 769/292/69 771/290/69
f 774/289/70 772/291/70 771/290/70 773/288/70
f 776/287/71 774/289/71 773/288/71 775/286/71
f 778/285/72 776/287/72 775/286/72 777/284/72
f 780/283/73 778/285/73 777/284/73 779/282/73
f 782/281/66 780/283/66 779/282/66 781/280/66
f 784/278/67 782/281/67 781/280/67 783/279/67
f 786/293/68 800/295/68 799/294/68 785/292/68
f 788/291/69 786/293/69 785/292/69 787/290/69
f 790/289/70 788/291/70 787/290/70 789/288/70
f 792/287/71 790/289/71 789/288/71 791/286/71
f 794/285/72 792/287/72 791/286/72 793/284/72
f 796/283/73 794/285/73 793/284/73 795/282/73
f 798/281/66 796/283/66 795/282/66 797/280/66
f 800/278/67 798/281/67 797/280/67 799/279/67
f 802/293/68 816/295/68 815/294/68 801/292/68
f 804/291/69 802/293/69 801/292/69 803/290/69
f 806/289/70 804/291/70 803/290/70 805/288/70
f 808/287/71 806/289/71 805/288/71 807/286/71
f 810/285/72 808/287/72 807/286/72 809/284/72
f 812/283/73 810/285/73 809/284/73 811/282/73
f 814/281/66 812/283/66 811/282/66 813/280/66
f 816/278/67 814/281/67 813/280/67 815/279/67
f 818/293/68 832/295/68 831/294/68 817/292/68
f 820/291/69 818/293/69 817/292/69 819/290/69
f 822/289/70 820/291/70 819/290/70 821/288/70
f 824/287/71 822/289/71 821/288/71 823/286/71
f 826/285/72 824/287/72 823/286/72 825/284/72
f 828/283/73 826/285/73 825/284/73 827/282/73
f 830/281/66 828/283/66 827/282/66 829/280/66
f 832/278/67 830/281/67 829/280/67 831/279/67
f 833/278/67 835/281/67 836/280/67 834/279/67
f 835/281/66 837/283/66 838/282/66 836/280/66
f 837/283/73 839/285/73 840/284/73 838/282/73
f 839/285/72 841/287/72 842/286/72 840/284/72
f 841/287/71 843/289/71 844/288/71 842/286/71
f 843/289/70 845/291/70 846/290/70 844/288/70
f 845/291/69 847/293/69 848/292/69 846/290/69
f 847/293/68 833/295/68 834/294/68 848/292/68
f 849/278/67 851/281/67 852/280/67 850/279/67
f 851/281/66 853/283/66 854/282/66 852/280/66
f 853/283/73 855/285/73 856/284/73 854/282/73
f 855/285/72 857/287/72 858/286/72 856/284/72
f 857/287/71 859/289/71 860/288/71 858/286/71
f 859/289/70 861/291/70 862/290/70 860/288/70
f 861/291/69 863/293/69 864/292/69 862/290/69
f 863/293/68 849/295/68 850/294/68 864/292/68
f 1/336/160 626/337/160 628/308/160 633/307/160
f 868/141/161 869/138/161 867/139/161 866/188/161
f 866/130/162 867/197/162 865/198/162 659/129/162
f 659/129/163 865/198/163 871/247/163 872/192/163
f 685/144/164 871/247/164 865/198/164 681/195/164
f 873/145/1 871/247/1 685/144/1
f 658/190/1 872/192/1 873/145/1
f 870/140/18 661/249/18 686/248/18 684/137/18
f 657/142/18 663/250/18 661/249/18 870/140/18
f 874/278/69 876/281/69 877/280/69 875/279/69
f 876/281/68 878/283/68 879/282/68 877/280/68
f 878/283/67 880/285/67 881/284/67 879/282/67
f 880/285/66 882/287/66 883/286/66 881/284/66
f 882/287/73 884/289/73 885/288/73 883/286/73
f 884/289/72 886/291/72 887/290/72 885/288/72
f 886/291/71 888/293/71 889/292/71 887/290/71
f 888/293/70 874/295/70 875/294/70 889/292/70
f 890/278/69 892/281/69 893/280/69 891/279/69
f 892/281/68 894/283/68 895/282/68 893/280/68
f 894/283/67 896/285/67 897/284/67 895/282/67
f 896/285/66 898/287/66 899/286/66 897/284/66
f 898/287/73 900/289/73 901/288/73 899/286/73
f 900/289/72 902/291/72 903/290/72 901/288/72
f 902/291/71 904/293/71 905/292/71 903/290/71
f 904/293/70 890/295/70 891/294/70 905/292/70
f 906/278/66 907/279/66 909/280/66 908/281/66
f 908/281/67 909/280/67 911/282/67 910/283/67
f 910/283/68 911/282/68 913/284/68 912/285/68
f 912/285/69 913/284/69 915/286/69 914/287/69
f 914/287/70 915/286/70 917/288/70 916/289/70
f 916/289/71 917/288/71 919/290/71 918/291/71
f 918/291/72 919/290/72 921/292/72 920/293/72
f 920/293/73 921/292/73 907/294/73 906/295/73
f 23/303/112 631/302/112 635/338/112 632/339/112
f 5/340/7 70/341/7 68/342/7 73/343/7
f 68/342/165 70/341/165 631/302/165 74/301/165
f 629/344/7 70/341/7 5/340/7 634/345/7
f 631/302/165 70/341/165 629/344/165 635/338/165
f 489/150/166 480/151/166 485/152/166 484/153/166
f 479/154/167 483/155/168 478/156/167 486/157/169
f 923/158/7 922/159/7 924/160/7 925/161/7
f 924/160/57 922/159/57 489/274/57 483/275/57
f 923/158/170 925/161/170 479/276/170 480/277/170
f 480/151/171 489/150/171 922/159/171 923/158/171
f 483/155/172 479/154/173 925/161/174 924/160/173
f 725/150/166 722/151/166 728/152/166 721/153/166
f 723/154/167 731/155/168 726/156/167 727/157/169
f 927/158/7 926/159/7 928/160/7 929/161/7
f 928/160/57 926/159/57 725/274/57 731/275/57
f 927/158/170 929/161/170 723/276/170 722/277/170
f 722/151/171 725/150/171 926/159/171 927/158/171
f 731/155/172 723/154/173 929/161/174 928/160/173
