# Blender 4.4.3
# www.blender.org
o SM_StairsNormal_Stairs_V1.0
v 1.609631 0.000000 3.100000
v 1.609631 0.000000 -3.400000
v 1.609631 4.000000 -3.400000
v 1.609631 4.000000 -1.650000
v 1.609631 0.250000 3.100000
v 1.609631 3.625000 -1.650000
v 1.609631 3.625000 -1.275000
v 1.609631 3.250000 -1.275000
v 1.609631 3.250000 -0.900000
v 1.609631 2.875000 -0.900000
v 1.609631 2.875000 -0.525000
v 1.609631 2.500000 -0.525000
v 1.609631 2.500000 -0.150000
v 1.609631 2.125000 -0.150000
v 1.609631 2.125000 0.225000
v 1.609631 1.750000 0.225000
v 1.609631 1.750000 0.600000
v 1.609631 1.375000 0.600000
v 1.609631 1.375000 0.975000
v 1.609631 1.000000 0.975000
v 1.609631 1.000000 1.350000
v 1.609631 0.625000 1.350000
v 1.609631 0.625000 1.725000
v 1.609631 0.250000 1.725000
v 0.000000 4.000000 -3.400000
v 0.000000 0.000000 3.100000
v 0.000000 4.000000 -1.650000
v 0.000000 3.625000 -1.650000
v 0.000000 3.625000 -1.275000
v 0.000000 3.250000 -1.275000
v 0.000000 3.250000 -0.900000
v 0.000000 2.875000 -0.900000
v 0.000000 2.875000 -0.525000
v 0.000000 2.500000 -0.525000
v 0.000000 2.500000 -0.150000
v 0.000000 2.125000 -0.150000
v 0.000000 2.125000 0.225000
v 0.000000 1.750000 0.225000
v 0.000000 1.750000 0.600000
v 0.000000 1.375000 0.600000
v 0.000000 1.375000 0.975000
v 0.000000 1.000000 0.975000
v 0.000000 1.000000 1.350000
v 0.000000 0.625000 1.350000
v 0.000000 0.625000 1.725000
v 0.000000 0.250000 1.725000
v 0.000000 0.250000 3.100000
v -1.609631 0.000000 3.100000
v -1.609631 0.000000 -3.400000
v -1.609631 4.000000 -3.400000
v -1.609631 4.000000 -1.650000
v -1.609631 0.250000 3.100000
v -1.609631 3.625000 -1.650000
v -1.609631 3.625000 -1.275000
v -1.609631 3.250000 -1.275000
v -1.609631 3.250000 -0.900000
v -1.609631 2.875000 -0.900000
v -1.609631 2.875000 -0.525000
v -1.609631 2.500000 -0.525000
v -1.609631 2.500000 -0.150000
v -1.609631 2.125000 -0.150000
v -1.609631 2.125000 0.225000
v -1.609631 1.750000 0.225000
v -1.609631 1.750000 0.600000
v -1.609631 1.375000 0.600000
v -1.609631 1.375000 0.975000
v -1.609631 1.000000 0.975000
v -1.609631 1.000000 1.350000
v -1.609631 0.625000 1.350000
v -1.609631 0.625000 1.725000
v -1.609631 0.250000 1.725000
v 1.609631 0.000000 -4.500000
v 1.609631 4.000000 -4.500000
v 0.000000 4.000000 -4.500000
v -1.609631 0.000000 -4.500000
v -1.609631 4.000000 -4.500000
vn 1.0000 -0.0000 -0.0000
vn -0.0000 1.0000 -0.0000
vn -0.0000 -0.0000 1.0000
vn -1.0000 -0.0000 -0.0000
vn -0.0000 -0.0000 -1.0000
vt 0.971986 0.903791
vt 0.948682 0.950897
vt 0.941244 0.943831
vt 0.970995 0.972094
vt 0.963557 0.972094
vt 0.963557 0.965028
vt 0.896618 0.908502
vt 0.896618 0.903791
vt 0.904056 0.908502
vt 0.911494 0.915568
vt 0.904056 0.915568
vt 0.956119 0.965028
vt 0.956119 0.957962
vt 0.948682 0.957962
vt 0.941244 0.950897
vt 0.933807 0.943831
vt 0.933807 0.936765
vt 0.926369 0.936765
vt 0.926369 0.929699
vt 0.918931 0.929699
vt 0.918931 0.922633
vt 0.911494 0.922633
vt 0.971986 0.972094
vt 0.978312 0.969520
vt 0.978312 0.914368
vt 0.977852 0.943910
vt 0.937883 0.943910
vt 0.938343 0.903353
vt 0.978312 0.903353
vt 0.978312 0.903353
vt 0.938343 0.903353
vt 0.977852 0.943910
vt 0.937883 0.943910
vt 0.938343 0.914368
vt 0.938343 0.969520
s 0
f 2/1/1 12/2/1 14/3/1
f 6/4/1 7/5/1 8/6/1
f 5/7/1 1/8/1 24/9/1
f 1/8/1 2/1/1 24/9/1
f 22/10/1 23/11/1 24/9/1
f 2/1/1 6/4/1 8/6/1
f 8/6/1 9/12/1 10/13/1
f 10/13/1 11/14/1 12/2/1
f 12/2/1 13/15/1 14/3/1
f 14/3/1 15/16/1 16/17/1
f 16/17/1 17/18/1 18/19/1
f 18/19/1 19/20/1 20/21/1
f 20/21/1 21/22/1 22/10/1
f 22/10/1 24/9/1 2/1/1
f 2/1/1 8/6/1 10/13/1
f 2/1/1 10/13/1 12/2/1
f 20/21/1 22/10/1 2/1/1
f 14/3/1 16/17/1 2/1/1
f 16/17/1 18/19/1 2/1/1
f 18/19/1 20/21/1 2/1/1
f 3/23/1 6/4/1 2/1/1
f 6/4/1 3/24/1 4/25/1
f 24/26/2 46/27/2 47/28/2 5/29/2
f 23/30/3 45/31/3 46/27/3 24/26/3
f 22/32/2 44/33/2 45/31/2 23/30/2
f 21/30/3 43/31/3 44/33/3 22/32/3
f 20/26/2 42/27/2 43/31/2 21/30/2
f 19/29/3 41/28/3 42/27/3 20/26/3
f 18/26/2 40/27/2 41/28/2 19/29/2
f 17/30/3 39/31/3 40/27/3 18/26/3
f 16/32/2 38/33/2 39/31/2 17/30/2
f 15/29/3 37/28/3 38/33/3 16/32/3
f 14/32/2 36/27/2 37/28/2 15/29/2
f 13/29/3 35/31/3 36/27/3 14/32/3
f 12/32/2 34/27/2 35/31/2 13/29/2
f 11/29/3 33/28/3 34/27/3 12/32/3
f 10/32/2 32/33/2 33/28/2 11/29/2
f 9/29/3 31/28/3 32/33/3 10/32/3
f 8/32/2 30/33/2 31/28/2 9/29/2
f 7/29/3 29/28/3 30/33/3 8/32/3
f 6/32/2 28/33/2 29/28/2 7/29/2
f 4/25/3 27/34/3 28/33/3 6/32/3
f 1/26/3 5/29/3 47/28/3 26/27/3
f 3/24/2 25/35/2 27/34/2 4/25/2
f 49/1/4 61/3/4 59/2/4
f 53/4/4 55/6/4 54/5/4
f 52/7/4 71/9/4 48/8/4
f 48/8/4 71/9/4 49/1/4
f 69/10/4 71/9/4 70/11/4
f 49/1/4 55/6/4 53/4/4
f 55/6/4 57/13/4 56/12/4
f 57/13/4 59/2/4 58/14/4
f 59/2/4 61/3/4 60/15/4
f 61/3/4 63/17/4 62/16/4
f 63/17/4 65/19/4 64/18/4
f 65/19/4 67/21/4 66/20/4
f 67/21/4 69/10/4 68/22/4
f 69/10/4 49/1/4 71/9/4
f 49/1/4 57/13/4 55/6/4
f 49/1/4 59/2/4 57/13/4
f 67/21/4 49/1/4 69/10/4
f 61/3/4 49/1/4 63/17/4
f 63/17/4 49/1/4 65/19/4
f 65/19/4 49/1/4 67/21/4
f 50/23/4 49/1/4 53/4/4
f 53/4/4 51/25/4 50/24/4
f 71/26/2 52/29/2 47/28/2 46/27/2
f 70/30/3 71/26/3 46/27/3 45/31/3
f 69/32/2 70/30/2 45/31/2 44/33/2
f 68/30/3 69/32/3 44/33/3 43/31/3
f 67/26/2 68/30/2 43/31/2 42/27/2
f 66/29/3 67/26/3 42/27/3 41/28/3
f 65/26/2 66/29/2 41/28/2 40/27/2
f 64/30/3 65/26/3 40/27/3 39/31/3
f 63/32/2 64/30/2 39/31/2 38/33/2
f 62/29/3 63/32/3 38/33/3 37/28/3
f 61/32/2 62/29/2 37/28/2 36/27/2
f 60/29/3 61/32/3 36/27/3 35/31/3
f 59/32/2 60/29/2 35/31/2 34/27/2
f 58/29/3 59/32/3 34/27/3 33/28/3
f 57/32/2 58/29/2 33/28/2 32/33/2
f 56/29/3 57/32/3 32/33/3 31/28/3
f 55/32/2 56/29/2 31/28/2 30/33/2
f 54/29/3 55/32/3 30/33/3 29/28/3
f 53/32/2 54/29/2 29/28/2 28/33/2
f 51/25/3 53/32/3 28/33/3 27/34/3
f 48/26/3 26/27/3 47/28/3 52/29/3
f 50/24/2 51/25/2 27/34/2 25/35/2
f 49/1/4 50/23/4 76/23/4 75/1/4
f 3/23/1 2/1/1 72/1/1 73/23/1
f 50/24/2 25/35/2 74/35/2 76/24/2
f 25/35/2 3/24/2 73/24/2 74/35/2
f 74/35/5 73/23/5 72/1/5 75/1/5 76/24/5
