# Blender 4.4.3
# www.blender.org
o SM_StreetSign_RoadSign_V1.0
v -0.865863 -0.200000 0.077938
v -0.865863 0.200000 0.077938
v -0.865863 -0.200000 0.028775
v -0.865863 0.200000 0.028775
v 0.865863 -0.200000 0.077938
v 0.865863 0.200000 0.077938
v 0.865863 -0.200000 0.028775
v 0.865863 0.200000 0.028775
v -0.826575 -0.161780 0.077938
v -0.826575 0.161780 0.077938
v 0.826575 0.161780 0.077938
v 0.826575 -0.161780 0.077938
vn -1.0000 -0.0000 -0.0000
vn -0.0000 -0.0000 -1.0000
vn 1.0000 -0.0000 -0.0000
vn -0.0000 -0.0000 1.0000
vn -0.0000 -1.0000 -0.0000
vn -0.0000 1.0000 -0.0000
vt 0.580519 0.326326
vt 0.581881 0.371564
vt 0.578299 0.365965
vt 0.577545 0.331984
vt 0.503271 0.365811
vt 0.502517 0.331830
vt 0.500298 0.371469
vt 0.498935 0.326231
vt 0.585602 0.376354
vt 0.497480 0.376354
vt 0.576716 0.000599
vt 0.576716 0.073436
vt 0.204573 0.073436
vt 0.204573 0.000599
vt 0.495214 0.321442
vt 0.583337 0.321442
s 0
f 1/1/1 2/2/1 4/3/1 3/4/1
f 3/4/2 4/3/2 8/5/2 7/6/2
f 7/6/3 8/5/3 6/7/3 5/8/3
f 6/7/4 2/2/4 10/9/4 11/10/4
f 3/4/5 7/6/5 5/8/5 1/1/5
f 8/5/6 4/3/6 2/2/6 6/7/6
f 12/11/4 11/12/4 10/13/4 9/14/4
f 5/8/4 6/7/4 11/10/4 12/15/4
f 2/2/4 1/1/4 9/16/4 10/9/4
f 1/1/4 5/8/4 12/15/4 9/16/4
