# Blender 4.4.3
# www.blender.org
o SM_Green_Trashcan_V1.0
v -0.000000 0.012536 -0.423517
v -0.000000 1.402884 -0.547588
v 0.299471 0.012536 -0.299471
v 0.387203 1.402884 -0.387203
v 0.423517 0.012536 -0.000000
v 0.547588 1.402884 -0.000000
v 0.299471 0.012536 0.299471
v 0.387203 1.402884 0.387203
v -0.000000 0.012536 0.423517
v -0.000000 1.402884 0.547588
v -0.299471 0.012536 0.299471
v -0.387203 1.402884 0.387203
v -0.423517 0.012536 -0.000000
v -0.547588 1.402884 -0.000000
v -0.299471 0.012536 -0.299471
v -0.387203 1.402884 -0.387203
v -0.000000 1.362847 -0.254346
v 0.179850 1.362847 -0.179850
v 0.254346 1.362847 -0.000000
v 0.179850 1.362847 0.179850
v -0.000000 1.362847 0.254346
v -0.179850 1.362847 0.179850
v -0.254346 1.362847 -0.000000
v -0.179850 1.362847 -0.179850
v -0.000000 1.482778 -0.597033
v 0.422166 1.482778 -0.422166
v 0.597033 1.482778 -0.000000
v 0.422166 1.482778 0.422166
v -0.000000 1.482778 0.597033
v -0.422166 1.482778 0.422166
v -0.597033 1.482778 -0.000000
v -0.422166 1.482778 -0.422166
v 0.000000 0.958624 -0.000000
v -0.000000 1.382778 -0.537330
v 0.379950 1.382778 -0.379950
v 0.537330 1.382778 -0.000000
v 0.379950 1.382778 0.379950
v -0.000000 1.382778 0.537330
v -0.379950 1.382778 0.379950
v -0.537330 1.382778 -0.000000
v -0.379950 1.382778 -0.379950
vn 0.3814 -0.0822 -0.9208
vn 0.9208 -0.0822 -0.3814
vn 0.9208 -0.0822 0.3814
vn 0.3814 -0.0822 0.9208
vn -0.3814 -0.0822 0.9208
vn -0.9208 -0.0822 0.3814
vn 0.1351 0.9893 0.0559
vn -0.9208 -0.0822 -0.3814
vn -0.3814 -0.0822 -0.9208
vn -0.0559 0.9893 -0.1351
vn -0.1351 0.9893 0.0559
vn 0.0559 0.9893 -0.1351
vn 0.0559 0.9893 0.1351
vn -0.0559 0.9893 0.1351
vn -0.1351 0.9893 -0.0559
vn 0.1351 0.9893 -0.0559
vn -0.3322 0.4964 -0.8020
vn 0.8020 0.4964 0.3322
vn -0.8020 0.4964 0.3322
vn 0.3322 0.4964 -0.8020
vn 0.3322 0.4964 0.8020
vn -0.3322 0.4964 0.8020
vn -0.8020 0.4964 -0.3322
vn 0.8020 0.4964 -0.3322
vn 0.7987 0.5026 0.3308
vn 0.3308 0.5026 -0.7987
vn -0.7987 0.5026 -0.3308
vn -0.3308 0.5026 0.7987
vn 0.3308 0.5026 0.7987
vn 0.7987 0.5026 -0.3308
vn -0.3308 0.5026 -0.7987
vn -0.7987 0.5026 0.3308
vn -0.8090 -0.4830 -0.3351
vn -0.3351 -0.4830 0.8090
vn 0.8090 -0.4830 0.3351
vn 0.3351 -0.4830 -0.8090
vn -0.3351 -0.4830 -0.8090
vn -0.8090 -0.4830 0.3351
vn 0.3351 -0.4830 0.8090
vn 0.8090 -0.4830 -0.3351
vt 0.939174 0.805781
vt 0.939174 0.893224
vt 0.961257 0.893224
vt 0.961257 0.805781
vt 0.970404 0.893224
vt 0.970404 0.805781
vt 0.917092 0.893224
vt 0.917092 0.805781
vt 0.907945 0.893224
vt 0.907945 0.805781
vt 0.926682 0.893224
vt 0.930341 0.893224
vt 0.948007 0.893224
vt 0.951666 0.893224
vt 0.939174 0.899277
vt 0.963997 0.899277
vt 0.914351 0.899277
vt 0.904069 0.899277
vt 0.974279 0.899277
vt 0.078456 0.991463
vt 0.091091 0.991463
vt 0.047954 0.903673
vt 0.047954 0.991463
vt 0.017451 0.991463
vt 0.004817 0.991463
s 0
f 1/1/1 2/2/1 4/3/1 3/4/1
f 3/4/2 4/3/2 6/5/2 5/6/2
f 5/6/3 6/5/3 8/3/3 7/4/3
f 7/4/4 8/3/4 10/2/4 9/1/4
f 9/1/5 10/2/5 12/7/5 11/8/5
f 11/8/6 12/7/6 14/9/6 13/10/6
f 16/7/7 14/9/7 23/11/7 24/12/7
f 13/10/8 14/9/8 16/7/8 15/8/8
f 15/8/9 16/7/9 2/2/9 1/1/9
f 10/2/10 8/3/10 20/13/10 21/2/10
f 6/5/11 4/3/11 18/13/11 19/14/11
f 12/7/12 10/2/12 21/2/12 22/12/12
f 2/2/13 16/7/13 24/12/13 17/2/13
f 4/3/14 2/2/14 17/2/14 18/13/14
f 8/3/15 6/5/15 19/14/15 20/13/15
f 14/9/16 12/7/16 22/12/16 23/11/16
f 8/3/17 10/2/17 29/15/17 28/16/17
f 14/9/18 16/7/18 32/17/18 31/18/18
f 4/3/19 6/5/19 27/19/19 26/16/19
f 10/2/20 12/7/20 30/17/20 29/15/20
f 16/7/21 2/2/21 25/15/21 32/17/21
f 2/2/22 4/3/22 26/16/22 25/15/22
f 6/5/23 8/3/23 28/16/23 27/19/23
f 12/7/24 14/9/24 31/18/24 30/17/24
f 24/20/25 23/21/25 33/22/25
f 22/20/26 21/23/26 33/22/26
f 20/24/27 19/25/27 33/22/27
f 18/24/28 17/23/28 33/22/28
f 17/23/29 24/20/29 33/22/29
f 23/21/30 22/20/30 33/22/30
f 21/23/31 20/24/31 33/22/31
f 19/25/32 18/24/32 33/22/32
f 31/18/33 32/17/33 41/17/33 40/18/33
f 29/15/34 30/17/34 39/17/34 38/15/34
f 27/19/35 28/16/35 37/16/35 36/19/35
f 25/15/36 26/16/36 35/16/36 34/15/36
f 32/17/37 25/15/37 34/15/37 41/17/37
f 30/17/38 31/18/38 40/18/38 39/17/38
f 28/16/39 29/15/39 38/15/39 37/16/39
f 26/16/40 27/19/40 36/19/40 35/16/40
