# Blender 4.4.3
# www.blender.org
o SM_StraightMedium_Sidewalk_V1.1
v -8.000000 -0.000000 20.000000
v -6.000000 -0.000000 20.000000
v -6.000000 -0.000000 16.000000
v -8.000000 -0.000000 0.000000
v -6.000000 -0.000000 0.000000
v -6.000000 -0.000000 4.000000
v -8.000000 -0.000000 4.000000
v -6.000000 -0.000000 8.000000
v -8.000000 -0.000000 8.000000
v -8.000000 -0.000000 12.000000
v -6.000000 -0.000000 12.000000
v -8.000000 -0.000000 16.000000
v -7.949966 0.300000 19.949966
v -8.000000 0.249966 20.000000
v -6.050034 0.300000 19.949966
v -6.000000 0.249966 20.000000
v -7.949966 0.300000 16.050034
v -7.949966 0.300000 3.949966
v -8.000000 0.249966 4.000000
v -6.050034 0.300000 3.949966
v -6.000000 0.249966 4.000000
v -6.050034 0.300000 16.050034
v -7.949966 0.300000 0.050034
v -8.000000 0.249966 0.000000
v -6.000000 0.249966 0.000000
v -6.050034 0.300000 0.050034
v -6.050034 0.300000 4.050034
v -7.949966 0.300000 4.050034
v -6.050034 0.300000 7.949966
v -6.000000 0.249966 8.000000
v -8.000000 0.249966 8.000000
v -7.949966 0.300000 7.949966
v -7.949966 0.300000 11.949966
v -8.000000 0.249966 12.000000
v -6.050034 0.300000 11.949966
v -7.949966 0.300000 8.050034
v -6.050034 0.300000 8.050034
v -6.050034 0.300000 12.050034
v -6.000000 0.249966 12.000000
v -7.949966 0.300000 12.050034
v -6.050034 0.300000 15.949966
v -6.000000 0.249966 16.000000
v -8.000000 0.249966 16.000000
v -7.949966 0.300000 15.949966
v 6.000000 -0.000000 20.000000
v 8.000000 -0.000000 20.000000
v 6.000000 -0.000000 16.000000
v 8.000000 -0.000000 4.000000
v 6.000000 -0.000000 0.000000
v 6.000000 -0.000000 4.000000
v 6.000000 -0.000000 8.000000
v 8.000000 -0.000000 12.000000
v 8.000000 -0.000000 8.000000
v 6.000000 -0.000000 12.000000
v 8.000000 -0.000000 16.000000
v 6.050034 0.300000 19.949966
v 6.000000 0.249966 20.000000
v 7.949966 0.300000 19.949966
v 8.000000 0.249966 20.000000
v 6.050034 0.300000 16.050034
v 6.050034 0.300000 3.949966
v 7.949966 0.300000 3.949966
v 8.000000 0.249966 4.000000
v 7.949966 0.300000 16.050034
v 6.050034 0.300000 0.050034
v 7.949966 0.300000 0.050034
v 7.949966 0.300000 4.050034
v 6.050034 0.300000 4.050034
v 6.000000 0.249966 4.000000
v 7.949966 0.300000 7.949966
v 6.000000 0.249966 8.000000
v 6.050034 0.300000 7.949966
v 6.050034 0.300000 11.949966
v 6.000000 0.249966 12.000000
v 7.949966 0.300000 11.949966
v 8.000000 0.249966 12.000000
v 6.050034 0.300000 8.050034
v 8.000000 0.249966 8.000000
v 7.949966 0.300000 8.050034
v 7.949966 0.300000 12.050034
v 6.050034 0.300000 12.050034
v 7.949966 0.300000 15.949966
v 8.000000 0.249966 16.000000
v 6.000000 0.249966 16.000000
v 6.050034 0.300000 15.949966
v -6.000000 -0.000000 -4.000000
v -8.000000 -0.000000 -20.000000
v -6.000000 -0.000000 -20.000000
v -6.000000 -0.000000 -16.000000
v -8.000000 -0.000000 -16.000000
v -6.000000 -0.000000 -12.000000
v -8.000000 -0.000000 -12.000000
v -8.000000 -0.000000 -8.000000
v -6.000000 -0.000000 -8.000000
v -8.000000 -0.000000 -4.000000
v -7.949966 0.300000 -0.050034
v -6.050034 0.300000 -0.050034
v -7.949966 0.300000 -3.949966
v -7.949966 0.300000 -16.050034
v -8.000000 0.249966 -16.000000
v -6.050034 0.300000 -16.050034
v -6.000000 0.249966 -16.000000
v -6.050034 0.300000 -3.949966
v -7.949966 0.300000 -19.949966
v -8.000000 0.249966 -20.000000
v -6.000000 0.249966 -20.000000
v -6.050034 0.300000 -19.949966
v -6.050034 0.300000 -15.949966
v -7.949966 0.300000 -15.949966
v -6.050034 0.300000 -12.050034
v -6.000000 0.249966 -12.000000
v -8.000000 0.249966 -12.000000
v -7.949966 0.300000 -12.050034
v -7.949966 0.300000 -8.050034
v -8.000000 0.249966 -8.000000
v -6.050034 0.300000 -8.050034
v -7.949966 0.300000 -11.949966
v -6.050034 0.300000 -11.949966
v -6.050034 0.300000 -7.949966
v -6.000000 0.249966 -8.000000
v -7.949966 0.300000 -7.949966
v -6.050034 0.300000 -4.050034
v -6.000000 0.249966 -4.000000
v -8.000000 0.249966 -4.000000
v -7.949966 0.300000 -4.050034
v 8.000000 -0.000000 0.000000
v 6.000000 -0.000000 -4.000000
v 8.000000 -0.000000 -16.000000
v 6.000000 -0.000000 -20.000000
v 8.000000 -0.000000 -20.000000
v 6.000000 -0.000000 -16.000000
v 6.000000 -0.000000 -12.000000
v 8.000000 -0.000000 -8.000000
v 8.000000 -0.000000 -12.000000
v 6.000000 -0.000000 -8.000000
v 8.000000 -0.000000 -4.000000
v 6.050034 0.300000 -0.050034
v 6.000000 0.249966 0.000000
v 7.949966 0.300000 -0.050034
v 8.000000 0.249966 0.000000
v 6.050034 0.300000 -3.949966
v 6.050034 0.300000 -16.050034
v 7.949966 0.300000 -16.050034
v 8.000000 0.249966 -16.000000
v 7.949966 0.300000 -3.949966
v 6.050034 0.300000 -19.949966
v 6.000000 0.249966 -20.000000
v 8.000000 0.249966 -20.000000
v 7.949966 0.300000 -19.949966
v 7.949966 0.300000 -15.949966
v 6.050034 0.300000 -15.949966
v 6.000000 0.249966 -16.000000
v 7.949966 0.300000 -12.050034
v 6.000000 0.249966 -12.000000
v 6.050034 0.300000 -12.050034
v 6.050034 0.300000 -8.050034
v 6.000000 0.249966 -8.000000
v 7.949966 0.300000 -8.050034
v 8.000000 0.249966 -8.000000
v 6.050034 0.300000 -11.949966
v 8.000000 0.249966 -12.000000
v 7.949966 0.300000 -11.949966
v 7.949966 0.300000 -7.949966
v 6.050034 0.300000 -7.949966
v 7.949966 0.300000 -4.050034
v 8.000000 0.249966 -4.000000
v 6.000000 0.249966 -4.000000
v 6.050034 0.300000 -4.050034
vn -0.0000 1.0000 -0.0000
vn 1.0000 -0.0000 -0.0000
vn -1.0000 -0.0000 -0.0000
vn -0.0000 -0.0000 1.0000
vn 0.7071 0.7071 -0.0000
vn -0.0000 0.7071 0.7071
vn -0.7071 0.7071 -0.0000
vn -0.0000 0.7071 -0.7071
vn -0.0000 -0.0000 -1.0000
vt 0.960374 0.991995
vt 0.920212 0.991995
vt 0.920212 0.912298
vt 0.960374 0.912298
vt 0.967248 0.991995
vt 0.962144 0.991995
vt 0.962144 0.912298
vt 0.967248 0.912298
vt 0.913337 0.912298
vt 0.918442 0.912298
vt 0.918442 0.991995
vt 0.913337 0.991995
vt 0.960374 0.905534
vt 0.960374 0.910557
vt 0.920212 0.910557
vt 0.920212 0.905534
vt 0.900444 0.906690
vt 0.980141 0.906690
vt 0.980141 0.997603
vt 0.900444 0.997603
vt 0.920212 0.998758
vt 0.920212 0.993736
vt 0.960374 0.993736
vt 0.960374 0.998758
s 0
f 27/1/1 28/2/1 32/3/1 29/4/1
f 22/1/1 17/2/1 13/3/1 15/4/1
f 3/5/2 42/6/2 16/7/2 2/8/2
f 9/9/3 31/10/3 19/11/3 7/12/3
f 10/13/3 34/14/3 31/15/3 9/16/3
f 37/17/1 36/18/1 33/19/1 35/20/1
f 8/21/2 30/22/2 39/23/2 11/24/2
f 11/13/2 39/14/2 42/15/2 3/16/2
f 26/4/1 23/3/1 18/2/1 20/1/1
f 5/8/2 25/7/2 21/6/2 6/5/2
f 2/13/4 16/14/4 14/15/4 1/16/4
f 38/19/1 40/20/1 44/17/1 41/18/1
f 12/21/3 43/22/3 34/23/3 10/24/3
f 6/5/2 21/6/2 30/7/2 8/8/2
f 7/12/3 19/11/3 24/10/3 4/9/3
f 22/1/5 15/4/5 16/7/5 42/6/5
f 15/4/6 13/3/6 14/15/6 16/14/6
f 13/3/7 17/2/7 43/11/7 14/10/7
f 26/4/5 20/1/5 21/6/5 25/7/5
f 20/1/6 18/2/6 19/22/6 21/23/6
f 18/2/7 23/3/7 24/10/7 19/11/7
f 23/3/8 26/4/8 25/14/8 24/15/8
f 17/2/8 22/1/8 42/23/8 43/22/8
f 28/2/8 27/1/8 21/23/8 19/22/8
f 32/3/7 28/2/7 19/11/7 31/10/7
f 29/4/6 32/3/6 31/15/6 30/14/6
f 27/1/5 29/4/5 30/7/5 21/6/5
f 37/2/5 35/1/5 39/23/5 30/22/5
f 35/1/6 33/4/6 34/7/6 39/6/6
f 33/4/7 36/3/7 31/15/7 34/14/7
f 36/3/8 37/2/8 30/11/8 31/10/8
f 40/1/8 38/4/8 39/7/8 34/6/8
f 44/2/7 40/1/7 34/23/7 43/22/7
f 41/3/6 44/2/6 43/11/6 42/10/6
f 38/4/5 41/3/5 42/15/5 39/14/5
f 1/9/3 14/10/3 43/11/3 12/12/3
f 67/1/1 68/2/1 72/3/1 70/4/1
f 64/1/1 60/2/1 56/3/1 58/4/1
f 55/5/2 83/6/2 59/7/2 46/8/2
f 51/9/3 71/10/3 69/11/3 50/12/3
f 54/13/3 74/14/3 71/15/3 51/16/3
f 79/17/1 77/18/1 73/19/1 75/20/1
f 53/21/2 78/22/2 76/23/2 52/24/2
f 52/13/2 76/14/2 83/15/2 55/16/2
f 66/4/1 65/3/1 61/2/1 62/1/1
f 126/8/2 140/7/2 63/6/2 48/5/2
f 46/13/4 59/14/4 57/15/4 45/16/4
f 80/19/1 81/20/1 85/17/1 82/18/1
f 47/21/3 84/22/3 74/23/3 54/24/3
f 48/5/2 63/6/2 78/7/2 53/8/2
f 50/12/3 69/11/3 138/10/3 49/9/3
f 64/1/5 58/4/5 59/7/5 83/6/5
f 58/4/6 56/3/6 57/15/6 59/14/6
f 56/3/7 60/2/7 84/11/7 57/10/7
f 66/4/5 62/1/5 63/6/5 140/7/5
f 62/1/6 61/2/6 69/22/6 63/23/6
f 61/2/7 65/3/7 138/10/7 69/11/7
f 65/3/8 66/4/8 140/14/8 138/15/8
f 60/2/8 64/1/8 83/23/8 84/22/8
f 68/2/8 67/1/8 63/23/8 69/22/8
f 72/3/7 68/2/7 69/11/7 71/10/7
f 70/4/6 72/3/6 71/15/6 78/14/6
f 67/1/5 70/4/5 78/7/5 63/6/5
f 79/2/5 75/1/5 76/23/5 78/22/5
f 75/1/6 73/4/6 74/7/6 76/6/6
f 73/4/7 77/3/7 71/15/7 74/14/7
f 77/3/8 79/2/8 78/11/8 71/10/8
f 81/1/8 80/4/8 76/7/8 74/6/8
f 85/2/7 81/1/7 74/23/7 84/22/7
f 82/3/6 85/2/6 84/11/6 83/10/6
f 80/4/5 82/3/5 83/15/5 76/14/5
f 45/9/3 57/10/3 84/11/3 47/12/3
f 108/1/1 109/2/1 113/3/1 110/4/1
f 103/1/1 98/2/1 96/3/1 97/4/1
f 86/5/2 123/6/2 25/7/2 5/8/2
f 92/9/3 112/10/3 100/11/3 90/12/3
f 93/13/3 115/14/3 112/15/3 92/16/3
f 118/17/1 117/18/1 114/19/1 116/20/1
f 91/21/2 111/22/2 120/23/2 94/24/2
f 94/13/2 120/14/2 123/15/2 86/16/2
f 107/4/1 104/3/1 99/2/1 101/1/1
f 88/8/2 106/7/2 102/6/2 89/5/2
f 119/19/1 121/20/1 125/17/1 122/18/1
f 95/21/3 124/22/3 115/23/3 93/24/3
f 89/5/2 102/6/2 111/7/2 91/8/2
f 90/12/3 100/11/3 105/10/3 87/9/3
f 103/1/5 97/4/5 25/7/5 123/6/5
f 97/4/6 96/3/6 24/15/6 25/14/6
f 96/3/7 98/2/7 124/11/7 24/10/7
f 107/4/5 101/1/5 102/6/5 106/7/5
f 101/1/6 99/2/6 100/22/6 102/23/6
f 99/2/7 104/3/7 105/10/7 100/11/7
f 104/3/8 107/4/8 106/14/8 105/15/8
f 98/2/8 103/1/8 123/23/8 124/22/8
f 109/2/8 108/1/8 102/23/8 100/22/8
f 113/3/7 109/2/7 100/11/7 112/10/7
f 110/4/6 113/3/6 112/15/6 111/14/6
f 108/1/5 110/4/5 111/7/5 102/6/5
f 118/2/5 116/1/5 120/23/5 111/22/5
f 116/1/6 114/4/6 115/7/6 120/6/6
f 114/4/7 117/3/7 112/15/7 115/14/7
f 117/3/8 118/2/8 111/11/8 112/10/8
f 106/7/9 88/8/9 87/9/9 105/10/9
f 121/1/8 119/4/8 120/7/8 115/6/8
f 125/2/7 121/1/7 115/23/7 124/22/7
f 122/3/6 125/2/6 124/11/6 123/10/6
f 119/4/5 122/3/5 123/15/5 120/14/5
f 4/9/3 24/10/3 124/11/3 95/12/3
f 150/1/1 151/2/1 155/3/1 153/4/1
f 145/1/1 141/2/1 137/3/1 139/4/1
f 136/5/2 166/6/2 140/7/2 126/8/2
f 132/9/3 154/10/3 152/11/3 131/12/3
f 135/13/3 157/14/3 154/15/3 132/16/3
f 162/17/1 160/18/1 156/19/1 158/20/1
f 134/21/2 161/22/2 159/23/2 133/24/2
f 133/13/2 159/14/2 166/15/2 136/16/2
f 149/4/1 146/3/1 142/2/1 143/1/1
f 130/8/2 148/7/2 144/6/2 128/5/2
f 163/19/1 164/20/1 168/17/1 165/18/1
f 127/21/3 167/22/3 157/23/3 135/24/3
f 128/5/2 144/6/2 161/7/2 134/8/2
f 131/12/3 152/11/3 147/10/3 129/9/3
f 145/1/5 139/4/5 140/7/5 166/6/5
f 139/4/6 137/3/6 138/15/6 140/14/6
f 137/3/7 141/2/7 167/11/7 138/10/7
f 149/4/5 143/1/5 144/6/5 148/7/5
f 143/1/6 142/2/6 152/22/6 144/23/6
f 142/2/7 146/3/7 147/10/7 152/11/7
f 146/3/8 149/4/8 148/14/8 147/15/8
f 141/2/8 145/1/8 166/23/8 167/22/8
f 151/2/8 150/1/8 144/23/8 152/22/8
f 155/3/7 151/2/7 152/11/7 154/10/7
f 153/4/6 155/3/6 154/15/6 161/14/6
f 150/1/5 153/4/5 161/7/5 144/6/5
f 162/2/5 158/1/5 159/23/5 161/22/5
f 158/1/6 156/4/6 157/7/6 159/6/6
f 156/4/7 160/3/7 154/15/7 157/14/7
f 160/3/8 162/2/8 161/11/8 154/10/8
f 148/7/9 130/8/9 129/9/9 147/10/9
f 164/1/8 163/4/8 159/7/8 157/6/8
f 168/2/7 164/1/7 157/23/7 167/22/7
f 165/3/6 168/2/6 167/11/6 166/10/6
f 163/4/5 165/3/5 166/15/5 159/14/5
f 49/9/3 138/10/3 167/11/3 127/12/3
