# Blender 4.4.3
# www.blender.org
o SM_T-Intersection_Sidewalk_V1.0
v 12.050035 0.300000 6.050034
v 12.000002 0.249966 6.000000
v 12.000002 0.249966 8.000000
v 12.050035 0.300000 7.949966
v 15.949968 0.300000 6.050035
v 15.949968 0.300000 7.949967
v 19.949968 0.300000 7.949967
v 20.000002 0.249966 8.000001
v 19.949968 0.300000 6.050035
v 16.000002 0.249966 8.000001
v 16.050035 0.300000 7.949967
v 16.000002 0.249966 6.000001
v 6.000000 -0.000000 20.000000
v 8.000000 -0.000000 20.000000
v 6.000000 -0.000000 16.000000
v 16.050035 0.300000 6.050035
v 11.949968 0.300000 7.949966
v 11.949968 0.300000 6.050034
v 20.000002 0.249966 6.000001
v 6.000000 -0.000000 8.000000
v 8.000000 -0.000000 12.000000
v 8.000000 -0.000000 8.000000
v 6.000000 -0.000000 12.000000
v 8.000000 -0.000000 16.000000
v 6.050034 0.300000 19.949966
v 6.000000 0.249966 20.000000
v 7.949966 0.300000 19.949966
v 8.000000 0.249966 20.000000
v 6.050034 0.300000 16.050034
v 8.050035 0.300000 7.949966
v 8.000002 0.249966 6.000000
v 7.949966 0.300000 16.050034
v 8.050035 0.300000 6.050034
v 12.000002 -0.000000 8.000000
v 16.000002 -0.000000 6.000001
v 20.000002 -0.000000 8.000001
v 16.000002 -0.000000 8.000001
v 20.000002 -0.000000 6.000001
v 12.000002 -0.000000 6.000000
v 6.000000 0.249966 8.000000
v 6.050034 0.300000 11.949966
v 6.000000 0.249966 12.000000
v 7.949966 0.300000 11.949966
v 8.000000 0.249966 12.000000
v 6.050034 0.300000 8.050034
v 8.000000 0.249966 8.000000
v 7.949966 0.300000 8.050034
v 7.949966 0.300000 12.050034
v 6.050034 0.300000 12.050034
v 7.949966 0.300000 15.949966
v 8.000000 0.249966 16.000000
v 6.000000 0.249966 16.000000
v 6.050034 0.300000 15.949966
v 6.000002 -0.000034 6.000000
v 8.000002 -0.000034 6.000000
v 7.950001 0.299966 7.950000
v 7.950002 0.299966 6.050000
v 6.050000 0.299966 7.950000
v 6.000002 0.249966 6.000000
v 6.050002 0.299966 6.050000
v -12.050032 0.300000 6.050034
v -11.999998 0.249966 6.000000
v -11.999998 0.249966 8.000000
v -12.050032 0.300000 7.949966
v -15.949965 0.300000 6.050035
v -15.949965 0.300000 7.949967
v -19.949966 0.300000 7.949967
v -20.000000 0.249966 8.000001
v -19.949966 0.300000 6.050035
v -15.999999 0.249966 8.000001
v -16.050034 0.300000 7.949967
v -15.999999 0.249966 6.000001
v -5.999996 -0.000000 20.000000
v -7.999996 -0.000000 20.000000
v -5.999996 -0.000000 16.000000
v -16.050034 0.300000 6.050035
v -11.949965 0.300000 7.949966
v -11.949965 0.300000 6.050034
v -20.000000 0.249966 6.000001
v -5.999996 -0.000000 8.000000
v -7.999996 -0.000000 12.000000
v -7.999996 -0.000000 8.000000
v -5.999996 -0.000000 12.000000
v -7.999996 -0.000000 16.000000
v -6.050030 0.300000 19.949966
v -5.999996 0.249966 20.000000
v -7.949963 0.300000 19.949966
v -7.999996 0.249966 20.000000
v -6.050030 0.300000 16.050034
v -8.050032 0.300000 7.949966
v -7.999998 0.249966 6.000000
v -7.949963 0.300000 16.050034
v -8.050032 0.300000 6.050034
v -11.999998 -0.000000 8.000000
v -15.999999 -0.000000 6.000001
v -20.000000 -0.000000 8.000001
v -15.999999 -0.000000 8.000001
v -20.000000 -0.000000 6.000001
v -11.999998 -0.000000 6.000000
v -5.999996 0.249966 8.000000
v -6.050030 0.300000 11.949966
v -5.999996 0.249966 12.000000
v -7.949963 0.300000 11.949966
v -7.999996 0.249966 12.000000
v -6.050030 0.300000 8.050034
v -7.999996 0.249966 8.000000
v -7.949963 0.300000 8.050034
v -7.949963 0.300000 12.050034
v -6.050030 0.300000 12.050034
v -7.949963 0.300000 15.949966
v -7.999996 0.249966 16.000000
v -5.999996 0.249966 16.000000
v -6.050030 0.300000 15.949966
v -5.999998 -0.000034 6.000000
v -7.999998 -0.000034 6.000000
v -7.949997 0.299966 7.950000
v -7.949998 0.299966 6.050000
v -6.049996 0.299966 7.950000
v -5.999998 0.249966 6.000000
v -6.049998 0.299966 6.050000
v 20.000000 -0.000000 -5.999998
v 20.000000 -0.000000 -7.999998
v 16.000000 -0.000000 -5.999999
v 4.000000 -0.000000 -8.000000
v 0.000000 -0.000000 -6.000000
v 4.000000 -0.000000 -6.000000
v 8.000000 -0.000000 -6.000000
v 12.000000 -0.000000 -7.999999
v 8.000000 -0.000000 -8.000000
v 12.000000 -0.000000 -5.999999
v 16.000000 -0.000000 -8.000000
v 19.949966 0.300000 -6.050032
v 20.000000 0.249966 -5.999998
v 19.949966 0.300000 -7.949965
v 20.000000 0.249966 -7.999998
v 16.050034 0.300000 -6.050033
v 3.949966 0.300000 -6.050034
v 3.949966 0.300000 -7.949966
v 4.000000 0.249966 -8.000000
v 16.050034 0.300000 -7.949966
v 0.050034 0.300000 -6.050034
v 0.050034 0.300000 -7.949967
v 4.050034 0.300000 -7.949966
v 4.050034 0.300000 -6.050034
v 4.000000 0.249966 -6.000000
v 7.949966 0.300000 -7.949966
v 8.000000 0.249966 -6.000000
v 7.949966 0.300000 -6.050034
v 11.949966 0.300000 -6.050033
v 12.000000 0.249966 -5.999999
v 11.949966 0.300000 -7.949965
v 12.000000 0.249966 -7.999999
v 8.050034 0.300000 -6.050034
v 8.000000 0.249966 -8.000000
v 8.050034 0.300000 -7.949966
v 12.050034 0.300000 -7.949965
v 12.050034 0.300000 -6.050033
v 15.949966 0.300000 -7.949966
v 16.000000 0.249966 -8.000000
v 16.000000 0.249966 -5.999999
v 15.949966 0.300000 -6.050033
v 0.000000 -0.000000 -8.000000
v -4.000000 -0.000000 -6.000000
v -16.000000 -0.000000 -8.000002
v -20.000000 -0.000000 -6.000002
v -20.000000 -0.000000 -8.000002
v -16.000000 -0.000000 -6.000002
v -12.000000 -0.000000 -6.000001
v -8.000000 -0.000000 -8.000001
v -12.000000 -0.000000 -8.000001
v -8.000000 -0.000000 -6.000001
v -4.000000 -0.000000 -8.000001
v -0.050033 0.300000 -6.050034
v 0.000000 0.249966 -6.000000
v -0.050033 0.300000 -7.949967
v 0.000000 0.249966 -8.000000
v -3.949966 0.300000 -6.050034
v -16.050034 0.300000 -6.050035
v -16.050034 0.300000 -7.949968
v -16.000000 0.249966 -8.000002
v -3.949966 0.300000 -7.949967
v -19.949966 0.300000 -6.050035
v -20.000000 0.249966 -6.000002
v -20.000000 0.249966 -8.000002
v -19.949966 0.300000 -7.949968
v -15.949966 0.300000 -7.949968
v -15.949966 0.300000 -6.050035
v -16.000000 0.249966 -6.000002
v -12.050034 0.300000 -7.949967
v -12.000000 0.249966 -6.000001
v -12.050034 0.300000 -6.050035
v -8.050034 0.300000 -6.050035
v -8.000000 0.249966 -6.000001
v -8.050034 0.300000 -7.949967
v -8.000000 0.249966 -8.000001
v -11.949966 0.300000 -6.050035
v -12.000000 0.249966 -8.000001
v -11.949966 0.300000 -7.949967
v -7.949966 0.300000 -7.949967
v -7.949966 0.300000 -6.050035
v -4.050033 0.300000 -7.949967
v -4.000000 0.249966 -8.000001
v -4.000000 0.249966 -6.000000
v -4.050033 0.300000 -6.050034
vn -0.0000 -0.0000 -1.0000
vn -0.0000 0.7071 0.7071
vn -0.7071 0.7071 -0.0000
vn -0.0000 0.7071 -0.7071
vn 0.7071 0.7071 -0.0000
vn -0.0000 1.0000 -0.0000
vn 1.0000 -0.0000 -0.0000
vn -1.0000 -0.0000 -0.0000
vn -0.0000 -0.0000 1.0000
vt 0.915803 0.906559
vt 0.921400 0.906559
vt 0.921400 0.996117
vt 0.915803 0.996117
vt 0.923026 0.908203
vt 0.923026 0.994473
vt 0.965859 0.994473
vt 0.967485 0.996117
vt 0.965859 0.908203
vt 0.967485 0.906559
vt 0.960933 0.913053
vt 0.918856 0.913053
vt 0.917101 0.911561
vt 0.962567 0.911561
vt 0.960933 0.996585
vt 0.962567 0.998147
vt 0.918856 0.996585
vt 0.917101 0.998147
vt 0.967891 0.998147
vt 0.967891 0.905836
vt 0.973081 0.996117
vt 0.973081 0.906559
vt 0.911200 0.905836
vt 0.911200 0.998147
vt 0.906248 0.915936
vt 0.906248 0.996662
vt 0.896941 0.996662
vt 0.896941 0.906256
vt 0.985852 0.915936
vt 0.985852 0.906256
vt 0.909083 0.994015
vt 0.984418 0.994015
vt 0.985852 0.996662
vt 0.909083 0.918775
vt 0.984418 0.918775
vt 0.960374 0.991995
vt 0.920212 0.991995
vt 0.920212 0.912298
vt 0.960374 0.912298
vt 0.967248 0.991995
vt 0.962144 0.991995
vt 0.962144 0.912298
vt 0.967248 0.912298
vt 0.913337 0.912298
vt 0.918442 0.912298
vt 0.918442 0.991995
vt 0.913337 0.991995
vt 0.960374 0.905534
vt 0.960374 0.910557
vt 0.920212 0.910557
vt 0.920212 0.905534
vt 0.900444 0.906690
vt 0.980141 0.906690
vt 0.980141 0.997603
vt 0.900444 0.997603
vt 0.920212 0.998758
vt 0.920212 0.993736
vt 0.960374 0.993736
vt 0.960374 0.998758
s 0
f 55/1/1 31/2/1 2/3/1 39/4/1
f 6/5/2 4/6/2 3/3/2 10/2/2
f 4/6/3 1/7/3 2/8/3 3/3/3
f 1/7/4 5/9/4 12/10/4 2/8/4
f 5/9/5 6/5/5 10/2/5 12/10/5
f 9/11/5 7/12/5 8/13/5 19/14/5
f 16/15/4 9/11/4 19/14/4 12/16/4
f 11/17/3 16/15/3 12/16/3 10/18/3
f 32/15/6 29/17/6 25/12/6 27/11/6
f 24/19/7 51/16/7 28/14/7 14/20/7
f 7/12/2 11/17/2 10/18/2 8/13/2
f 23/1/8 42/2/8 40/3/8 20/4/8
f 47/7/6 45/6/6 41/5/6 43/9/6
f 22/21/7 46/8/7 44/10/7 21/22/7
f 21/1/7 44/2/7 51/3/7 24/4/7
f 18/6/5 17/7/5 3/8/5 2/3/5
f 33/5/4 18/6/4 2/3/4 31/2/4
f 14/20/9 28/14/9 26/13/9 13/23/9
f 48/5/6 49/9/6 53/7/6 50/6/6
f 15/21/8 52/8/8 42/10/8 23/22/8
f 30/9/3 33/5/3 31/2/3 46/10/3
f 17/7/2 30/9/2 46/10/2 3/8/2
f 32/15/5 27/11/5 28/14/5 51/16/5
f 27/11/2 25/12/2 26/13/2 28/14/2
f 25/12/3 29/17/3 52/18/3 26/13/3
f 39/21/1 2/8/1 12/10/1 35/22/1
f 36/23/9 8/13/9 10/18/9 37/24/9
f 6/5/6 5/9/6 1/7/6 4/6/6
f 7/12/6 9/11/6 16/15/6 11/17/6
f 29/17/4 32/15/4 51/16/4 52/18/4
f 35/19/1 12/16/1 19/14/1 38/20/1
f 17/7/6 18/6/6 33/5/6 30/9/6
f 37/1/9 10/2/9 3/3/9 34/4/9
f 47/7/5 43/9/5 44/10/5 46/8/5
f 43/9/2 41/5/2 42/2/2 44/10/2
f 41/5/3 45/6/3 40/3/3 42/2/3
f 45/6/4 47/7/4 46/8/4 40/3/4
f 34/21/9 3/8/9 46/10/9 22/22/9
f 49/9/4 48/5/4 44/2/4 42/10/4
f 53/7/3 49/9/3 42/10/3 52/8/3
f 50/6/2 53/7/2 52/8/2 51/3/2
f 48/5/5 50/6/5 51/3/5 44/2/5
f 13/23/8 26/13/8 52/18/8 15/24/8
f 59/25/1 31/26/1 55/27/1 54/28/1
f 40/29/8 59/25/8 54/28/8 20/30/8
f 57/31/5 56/32/5 46/33/5 31/26/5
f 31/26/4 59/25/4 60/34/4 57/31/4
f 58/35/3 60/34/3 59/25/3 40/29/3
f 40/29/2 46/33/2 56/32/2 58/35/2
f 60/34/6 58/35/6 56/32/6 57/31/6
f 8/13/7 36/23/7 38/20/7 19/14/7
f 115/1/1 99/4/1 62/3/1 91/2/1
f 66/5/2 70/2/2 63/3/2 64/6/2
f 64/6/5 63/3/5 62/8/5 61/7/5
f 61/7/4 62/8/4 72/10/4 65/9/4
f 65/9/3 72/10/3 70/2/3 66/5/3
f 69/11/3 79/14/3 68/13/3 67/12/3
f 76/15/4 72/16/4 79/14/4 69/11/4
f 71/17/5 70/18/5 72/16/5 76/15/5
f 92/15/6 87/11/6 85/12/6 89/17/6
f 84/19/8 74/20/8 88/14/8 111/16/8
f 67/12/2 68/13/2 70/18/2 71/17/2
f 83/1/7 80/4/7 100/3/7 102/2/7
f 107/7/6 103/9/6 101/5/6 105/6/6
f 82/21/8 81/22/8 104/10/8 106/8/8
f 81/1/8 84/4/8 111/3/8 104/2/8
f 78/6/3 62/3/3 63/8/3 77/7/3
f 93/5/4 91/2/4 62/3/4 78/6/4
f 74/20/9 73/23/9 86/13/9 88/14/9
f 108/5/6 110/6/6 113/7/6 109/9/6
f 75/21/7 83/22/7 102/10/7 112/8/7
f 90/9/5 106/10/5 91/2/5 93/5/5
f 77/7/2 63/8/2 106/10/2 90/9/2
f 92/15/3 111/16/3 88/14/3 87/11/3
f 87/11/2 88/14/2 86/13/2 85/12/2
f 85/12/5 86/13/5 112/18/5 89/17/5
f 99/21/1 95/22/1 72/10/1 62/8/1
f 96/23/9 97/24/9 70/18/9 68/13/9
f 66/5/6 64/6/6 61/7/6 65/9/6
f 67/12/6 71/17/6 76/15/6 69/11/6
f 89/17/4 112/18/4 111/16/4 92/15/4
f 95/19/1 98/20/1 79/14/1 72/16/1
f 77/7/6 90/9/6 93/5/6 78/6/6
f 97/1/9 94/4/9 63/3/9 70/2/9
f 107/7/3 106/8/3 104/10/3 103/9/3
f 103/9/2 104/10/2 102/2/2 101/5/2
f 101/5/5 102/2/5 100/3/5 105/6/5
f 105/6/4 100/3/4 106/8/4 107/7/4
f 94/21/9 82/22/9 106/10/9 63/8/9
f 109/9/4 102/10/4 104/2/4 108/5/4
f 113/7/5 112/8/5 102/10/5 109/9/5
f 110/6/2 111/3/2 112/8/2 113/7/2
f 108/5/3 104/2/3 111/3/3 110/6/3
f 73/23/7 75/24/7 112/18/7 86/13/7
f 119/25/1 114/28/1 115/27/1 91/26/1
f 100/29/7 80/30/7 114/28/7 119/25/7
f 117/31/3 91/26/3 106/33/3 116/32/3
f 91/26/4 117/31/4 120/34/4 119/25/4
f 118/35/5 100/29/5 119/25/5 120/34/5
f 100/29/2 118/35/2 116/32/2 106/33/2
f 120/34/6 117/31/6 116/32/6 118/35/6
f 68/13/8 79/14/8 98/20/8 96/23/8
f 143/36/6 144/37/6 148/38/6 146/39/6
f 140/36/6 136/37/6 132/38/6 134/39/6
f 131/40/1 159/41/1 135/42/1 122/43/1
f 127/44/9 147/45/9 145/46/9 126/47/9
f 130/48/9 150/49/9 147/50/9 127/51/9
f 155/52/6 153/53/6 149/54/6 151/55/6
f 129/56/1 154/57/1 152/58/1 128/59/1
f 128/48/1 152/49/1 159/50/1 131/51/1
f 142/39/6 141/38/6 137/37/6 138/36/6
f 162/43/1 176/42/1 139/41/1 124/40/1
f 122/48/7 135/49/7 133/50/7 121/51/7
f 156/54/6 157/55/6 161/52/6 158/53/6
f 123/56/9 160/57/9 150/58/9 130/59/9
f 124/40/1 139/41/1 154/42/1 129/43/1
f 126/47/9 145/46/9 174/45/9 125/44/9
f 140/36/4 134/39/4 135/42/4 159/41/4
f 134/39/5 132/38/5 133/50/5 135/49/5
f 132/38/2 136/37/2 160/46/2 133/45/2
f 142/39/4 138/36/4 139/41/4 176/42/4
f 138/36/5 137/37/5 145/57/5 139/58/5
f 137/37/2 141/38/2 174/45/2 145/46/2
f 141/38/3 142/39/3 176/49/3 174/50/3
f 136/37/3 140/36/3 159/58/3 160/57/3
f 144/37/3 143/36/3 139/58/3 145/57/3
f 148/38/2 144/37/2 145/46/2 147/45/2
f 146/39/5 148/38/5 147/50/5 154/49/5
f 143/36/4 146/39/4 154/42/4 139/41/4
f 155/37/4 151/36/4 152/58/4 154/57/4
f 151/36/5 149/39/5 150/42/5 152/41/5
f 149/39/2 153/38/2 147/50/2 150/49/2
f 153/38/3 155/37/3 154/46/3 147/45/3
f 157/36/3 156/39/3 152/42/3 150/41/3
f 161/37/2 157/36/2 150/58/2 160/57/2
f 158/38/5 161/37/5 160/46/5 159/45/5
f 156/39/4 158/38/4 159/50/4 152/49/4
f 121/44/9 133/45/9 160/46/9 123/47/9
f 186/36/6 187/37/6 191/38/6 189/39/6
f 181/36/6 177/37/6 173/38/6 175/39/6
f 172/40/1 202/41/1 176/42/1 162/43/1
f 168/44/9 190/45/9 188/46/9 167/47/9
f 171/48/9 193/49/9 190/50/9 168/51/9
f 198/52/6 196/53/6 192/54/6 194/55/6
f 170/56/1 197/57/1 195/58/1 169/59/1
f 169/48/1 195/49/1 202/50/1 172/51/1
f 185/39/6 182/38/6 178/37/6 179/36/6
f 166/43/1 184/42/1 180/41/1 164/40/1
f 199/54/6 200/55/6 204/52/6 201/53/6
f 163/56/9 203/57/9 193/58/9 171/59/9
f 164/40/1 180/41/1 197/42/1 170/43/1
f 167/47/9 188/46/9 183/45/9 165/44/9
f 181/36/4 175/39/4 176/42/4 202/41/4
f 175/39/5 173/38/5 174/50/5 176/49/5
f 173/38/2 177/37/2 203/46/2 174/45/2
f 185/39/4 179/36/4 180/41/4 184/42/4
f 179/36/5 178/37/5 188/57/5 180/58/5
f 178/37/2 182/38/2 183/45/2 188/46/2
f 182/38/3 185/39/3 184/49/3 183/50/3
f 177/37/3 181/36/3 202/58/3 203/57/3
f 187/37/3 186/36/3 180/58/3 188/57/3
f 191/38/2 187/37/2 188/46/2 190/45/2
f 189/39/5 191/38/5 190/50/5 197/49/5
f 186/36/4 189/39/4 197/42/4 180/41/4
f 198/37/4 194/36/4 195/58/4 197/57/4
f 194/36/5 192/39/5 193/42/5 195/41/5
f 192/39/2 196/38/2 190/50/2 193/49/2
f 196/38/3 198/37/3 197/46/3 190/45/3
f 184/42/8 166/43/8 165/44/8 183/45/8
f 200/36/3 199/39/3 195/42/3 193/41/3
f 204/37/2 200/36/2 193/58/2 203/57/2
f 201/38/5 204/37/5 203/46/5 202/45/5
f 199/39/4 201/38/4 202/50/4 195/49/4
f 125/44/9 174/45/9 203/46/9 163/47/9
