# Blender 4.4.3
# www.blender.org
o SM_Single_StreetLamp_V1.0
v -0.009683 -0.003435 -0.272205
v -4.884227 11.494108 0.159346
v -6.484227 11.494108 0.159346
v -4.598034 11.328874 0.159346
v -5.684227 11.494108 0.159346
v -0.009683 9.588628 -0.164394
v -4.598034 10.998406 0.159346
v -6.198033 11.328874 0.159346
v 0.201884 -0.003435 -0.184572
v -4.884227 10.833173 0.159346
v -5.398033 11.328874 0.159346
v -6.198033 10.998406 0.159346
v 0.125649 9.588628 -0.108337
v -5.170421 10.998406 0.159346
v 0.289517 -0.003435 0.026995
v -6.484227 10.833173 0.159346
v -5.170421 11.328874 0.159346
v -5.398033 10.998406 0.159346
v 0.181706 9.588628 0.026995
v -6.770421 10.998406 0.159346
v 0.201884 -0.003435 0.238561
v -6.770421 11.328874 0.159346
v -5.684227 10.833173 0.159346
v 0.125649 9.588628 0.162327
v -0.009683 -0.003435 0.326195
v -5.970421 10.998406 0.159346
v -0.009683 9.588628 0.218383
v -5.970421 11.328874 0.159346
v -0.221249 -0.003435 0.238561
v -0.145015 9.588628 0.162327
v -0.308883 -0.003435 0.026995
v -0.201071 9.588628 0.026995
v -0.221249 -0.003435 -0.184572
v -0.145015 9.588628 -0.108337
v -0.809683 10.388627 -0.164394
v -0.713989 10.484322 -0.108337
v -0.674351 10.523959 0.026995
v -0.713989 10.484322 0.162327
v -0.809683 10.388627 0.218383
v -0.905378 10.292933 0.162327
v -0.945016 10.253295 0.026995
v -0.905378 10.292933 -0.108337
v -2.884228 11.188627 -0.164394
v -2.884227 11.323959 -0.108337
v -2.884227 11.380015 0.026995
v -2.884227 11.323959 0.162327
v -2.884228 11.188627 0.218383
v -2.884227 11.053295 0.162327
v -2.884227 10.997239 0.026995
v -2.884227 11.053295 -0.108337
v -4.549011 11.188627 -0.164394
v -4.549010 11.323959 -0.108337
v -4.549010 11.380015 0.026995
v -4.549010 11.323959 0.162327
v -4.549011 11.188627 0.218383
v -4.549010 11.053295 0.162327
v -4.549010 10.997239 0.026995
v -4.549010 11.053295 -0.108337
v -6.884227 10.615766 0.261606
v -7.135827 11.735765 0.506995
v -6.884227 10.615766 -0.207617
v -7.135827 11.735765 -0.453005
v -4.484227 10.615766 0.261606
v -4.232627 11.735765 0.506995
v -4.484227 10.615766 -0.207617
v -4.232627 11.735765 -0.453005
v -7.135827 11.895764 0.506995
v -7.135827 11.895764 -0.453005
v -4.232627 11.895764 -0.453005
v -4.232627 11.895764 0.506995
v -7.135827 11.643033 -0.750265
v -4.232627 11.643033 -0.750265
v -4.232627 11.575765 1.226995
v -7.135827 11.575765 1.226995
v -7.135827 11.828498 -0.676291
v -4.232627 11.828498 -0.676291
v -4.232627 11.735765 1.107540
v -7.135827 11.735765 1.107540
v -5.970421 11.328874 0.417846
v -5.684227 11.494108 0.454049
v -5.398033 11.328874 0.417846
v -5.970421 10.998406 0.345442
v -5.684227 10.833173 0.309240
v -5.398033 10.998406 0.345442
v -6.770421 10.998406 0.345442
v -6.770421 11.328874 0.417846
v -6.198033 10.998406 0.345442
v -6.484227 10.833173 0.309240
v -6.484227 11.494108 0.454049
v -6.198033 11.328874 0.417846
v -5.170421 10.998406 0.345442
v -4.884227 10.833173 0.309240
v -5.170421 11.328874 0.417846
v -4.884227 11.494108 0.454049
v -4.598034 11.328874 0.417846
v -4.598034 10.998406 0.345442
vn 0.3827 0.0104 -0.9238
vn 0.9238 0.0104 -0.3827
vn 0.9238 0.0104 0.3827
vn 0.3827 0.0104 0.9238
vn -0.3827 0.0104 0.9238
vn -0.9238 0.0104 0.3827
vn 0.6906 0.6395 -0.3378
vn -0.9238 0.0104 -0.3827
vn -0.3827 0.0104 -0.9238
vn -0.6360 -0.6989 -0.3272
vn -0.3049 -0.3163 0.8983
vn -0.3049 -0.3163 -0.8983
vn 0.3121 0.3018 -0.9008
vn 0.6906 0.6395 0.3378
vn -0.6360 -0.6989 0.3272
vn 0.3121 0.3018 0.9008
vn -0.1470 -0.3819 -0.9124
vn -0.3348 -0.8719 0.3573
vn 0.1474 0.3817 0.9124
vn 0.3372 0.8710 -0.3573
vn -0.3348 -0.8719 -0.3573
vn -0.1470 -0.3819 0.9124
vn 0.3372 0.8710 0.3573
vn 0.1474 0.3817 -0.9124
vn -0.0000 0.9239 0.3827
vn -0.0000 0.3827 -0.9239
vn -0.0000 -0.3827 -0.9239
vn -0.0000 -0.9239 0.3827
vn -0.0000 0.3827 0.9239
vn -0.0000 0.9239 -0.3827
vn -0.0000 -0.9239 -0.3827
vn -0.0000 -0.3827 0.9239
vn -0.9757 -0.2192 -0.0000
vn -0.0000 -0.2140 -0.9768
vn 0.9757 -0.2192 -0.0000
vn -0.0000 -0.2140 0.9768
vn -0.0000 -1.0000 -0.0000
vn -1.0000 -0.0000 -0.0000
vn -0.0000 1.0000 -0.0000
vn -0.0000 -0.9762 -0.2169
vn 1.0000 -0.0000 -0.0000
vn -0.0000 0.5983 0.8013
vn -0.0000 0.3705 -0.9288
vn -0.0000 -0.9546 0.2978
vn -0.0000 0.9663 0.2574
vn -0.0000 0.9575 -0.2885
vn -0.5000 -0.8660 -0.0000
vn -0.5000 0.8660 -0.0000
vn 0.5000 0.8660 -0.0000
vn 0.5000 -0.8660 -0.0000
vn -0.0000 -0.0000 1.0000
vt 0.619317 0.318618
vt 0.619317 0.372987
vt 0.611019 0.372987
vt 0.611019 0.318618
vt 0.602722 0.372987
vt 0.602722 0.318618
vt 0.669102 0.318618
vt 0.669102 0.372987
vt 0.660805 0.372987
vt 0.660805 0.318618
vt 0.652507 0.372987
vt 0.652507 0.318618
vt 0.644210 0.372987
vt 0.644210 0.318618
vt 0.635912 0.372987
vt 0.635912 0.318618
vt 0.611019 0.379404
vt 0.602722 0.379403
vt 0.627614 0.372987
vt 0.627614 0.318618
vt 0.635912 0.379403
vt 0.627614 0.379404
vt 0.652507 0.379404
vt 0.644210 0.379404
vt 0.619317 0.379404
vt 0.669102 0.379403
vt 0.660805 0.379404
vt 0.627614 0.389542
vt 0.619317 0.389542
vt 0.644210 0.389542
vt 0.635912 0.389542
vt 0.660805 0.389542
vt 0.652507 0.389542
vt 0.611019 0.389542
vt 0.602722 0.389542
vt 0.669102 0.389542
vt 0.669102 0.408608
vt 0.660805 0.408608
vt 0.619317 0.408608
vt 0.611019 0.408608
vt 0.627614 0.408608
vt 0.644210 0.408608
vt 0.635912 0.408608
vt 0.652507 0.408608
vt 0.602722 0.408608
vt 0.667135 0.319721
vt 0.674182 0.394974
vt 0.592858 0.394974
vt 0.599906 0.319721
vt 0.633520 0.334329
vt 0.641537 0.367635
vt 0.647913 0.345431
vt 0.641537 0.345431
vt 0.655930 0.378737
vt 0.633520 0.378737
vt 0.625503 0.345431
vt 0.619128 0.367635
vt 0.625504 0.367635
vt 0.602225 0.319793
vt 0.608762 0.370584
vt 0.608762 0.350488
vt 0.608762 0.344230
vt 0.655510 0.370584
vt 0.608762 0.370109
vt 0.655510 0.370109
vt 0.602225 0.319318
vt 0.662047 0.319318
vt 0.655510 0.343755
vt 0.608762 0.343755
vt 0.662047 0.319793
vt 0.655510 0.350014
vt 0.608762 0.350014
vt 0.655510 0.344230
vt 0.655510 0.350488
vt 0.078026 0.972889
vt 0.059075 0.903693
vt 0.051540 0.903693
vt 0.063996 0.972889
vt 0.037769 0.903693
vt 0.031757 0.972889
vt 0.031637 0.903693
vt 0.017184 0.972889
vt 0.038891 0.903693
vt 0.034114 0.972889
vt 0.052581 0.903693
vt 0.066238 0.972889
vt 0.696609 0.344361
vt 0.734118 0.322705
vt 0.771628 0.387673
vt 0.771628 0.483398
vt 0.734118 0.505054
vt 0.696609 0.483398
vt 0.867697 0.387328
vt 0.830188 0.408985
vt 0.792678 0.387328
vt 0.647913 0.367635
vt 0.611111 0.334329
vt 0.619128 0.345431
vt 0.655930 0.334329
vt 0.603094 0.345431
vt 0.663947 0.345431
vt 0.663947 0.367635
vt 0.603094 0.367635
vt 0.611111 0.378737
vt 0.771628 0.344361
vt 0.734118 0.409330
vt 0.696609 0.387673
vt 0.696609 0.440085
vt 0.734118 0.418429
vt 0.771628 0.440085
vt 0.792678 0.344016
vt 0.830188 0.322360
vt 0.867697 0.344016
s 0
f 1/1/1 6/2/1 13/3/1 9/4/1
f 9/4/2 13/3/2 19/5/2 15/6/2
f 15/7/3 19/8/3 24/9/3 21/10/3
f 21/10/4 24/9/4 27/11/4 25/12/4
f 25/12/5 27/11/5 30/13/5 29/14/5
f 29/14/6 30/13/6 32/15/6 31/16/6
f 19/5/7 13/3/7 36/17/7 37/18/7
f 31/16/8 32/15/8 34/19/8 33/20/8
f 33/20/9 34/19/9 6/2/9 1/1/9
f 34/19/10 32/15/10 41/21/10 42/22/10
f 30/13/11 27/11/11 39/23/11 40/24/11
f 6/2/12 34/19/12 42/22/12 35/25/12
f 13/3/13 6/2/13 35/25/13 36/17/13
f 24/9/14 19/8/14 37/26/14 38/27/14
f 32/15/15 30/13/15 40/24/15 41/21/15
f 27/11/16 24/9/16 38/27/16 39/23/16
f 35/25/17 42/22/17 50/28/17 43/29/17
f 41/21/18 40/24/18 48/30/18 49/31/18
f 39/23/19 38/27/19 46/32/19 47/33/19
f 37/18/20 36/17/20 44/34/20 45/35/20
f 42/22/21 41/21/21 49/31/21 50/28/21
f 40/24/22 39/23/22 47/33/22 48/30/22
f 38/27/23 37/26/23 45/36/23 46/32/23
f 36/17/24 35/25/24 43/29/24 44/34/24
f 46/32/25 45/36/25 53/37/25 54/38/25
f 44/34/26 43/29/26 51/39/26 52/40/26
f 43/29/27 50/28/27 58/41/27 51/39/27
f 49/31/28 48/30/28 56/42/28 57/43/28
f 47/33/29 46/32/29 54/38/29 55/44/29
f 45/35/30 44/34/30 52/40/30 53/45/30
f 50/28/31 49/31/31 57/43/31 58/41/31
f 48/30/32 47/33/32 55/44/32 56/42/32
f 59/46/33 60/47/33 62/47/33 61/46/33
f 61/46/34 62/47/34 66/48/34 65/49/34
f 65/49/35 66/48/35 64/48/35 63/49/35
f 83/50/36 59/46/36 63/49/36
f 79/51/36 87/52/36 82/53/36
f 60/47/36 89/54/36 80/55/36
f 84/56/36 93/57/36 81/58/36
f 61/46/37 65/49/37 63/49/37 59/46/37
f 62/59/38 68/60/38 75/61/38 71/62/38
f 69/63/39 68/60/39 67/64/39 70/65/39
f 60/66/40 64/67/40 73/68/40 74/69/40
f 64/67/41 66/70/41 69/63/41 70/65/41
f 62/59/38 60/66/38 67/64/38 68/60/38
f 74/69/42 73/68/42 77/71/42 78/72/42
f 72/73/43 71/62/43 75/61/43 76/74/43
f 64/67/41 70/65/41 77/71/41 73/68/41
f 66/70/44 62/59/44 71/62/44 72/73/44
f 69/63/41 66/70/41 72/73/41 76/74/41
f 67/64/38 60/66/38 74/69/38 78/72/38
f 70/65/45 67/64/45 78/72/45 77/71/45
f 68/60/46 69/63/46 76/74/46 75/61/46
f 80/75/47 5/76/47 11/77/47 81/78/47
f 81/78/38 11/77/38 18/79/38 84/80/38
f 84/80/48 18/79/48 23/81/48 83/82/48
f 83/82/49 23/81/49 26/83/49 82/84/49
f 82/84/41 26/83/41 28/85/41 79/86/41
f 79/86/50 28/85/50 5/76/50 80/75/50
f 28/87/51 26/88/51 18/89/51
f 89/75/47 3/76/47 8/77/47 90/78/47
f 90/78/38 8/77/38 12/79/38 87/80/38
f 87/80/48 12/79/48 16/81/48 88/82/48
f 88/82/49 16/81/49 20/83/49 85/84/49
f 85/84/41 20/83/41 22/85/41 86/86/41
f 86/86/50 22/85/50 3/76/50 89/75/50
f 22/90/51 20/91/51 16/92/51
f 94/75/47 2/76/47 4/77/47 95/78/47
f 95/78/38 4/77/38 7/79/38 96/80/38
f 96/80/48 7/79/48 10/81/48 92/82/48
f 92/82/49 10/81/49 14/83/49 91/84/49
f 91/84/41 14/83/41 17/85/41 93/86/41
f 93/86/50 17/85/50 2/76/50 94/75/50
f 14/93/51 10/94/51 7/95/51
f 83/50/36 82/53/36 59/46/36
f 63/49/36 84/56/36 83/50/36
f 79/51/36 90/96/36 87/52/36
f 92/97/36 91/98/36 84/56/36
f 82/53/36 87/52/36 88/99/36
f 59/46/36 82/53/36 88/99/36
f 92/97/36 84/56/36 63/49/36
f 96/100/36 92/97/36 63/49/36
f 59/46/36 88/99/36 85/101/36
f 59/46/36 85/101/36 60/47/36
f 85/101/36 86/102/36 60/47/36
f 96/100/36 63/49/36 64/48/36
f 95/103/36 96/100/36 64/48/36
f 89/54/36 90/96/36 79/51/36
f 60/47/36 86/102/36 89/54/36
f 94/104/36 95/103/36 64/48/36
f 81/58/36 93/57/36 94/104/36
f 89/54/36 79/51/36 80/55/36
f 80/55/36 81/58/36 94/104/36
f 94/104/36 64/48/36 80/55/36
f 64/48/36 60/47/36 80/55/36
f 84/56/36 91/98/36 93/57/36
f 26/88/51 23/105/51 18/89/51
f 18/89/51 11/106/51 5/107/51
f 5/107/51 28/87/51 18/89/51
f 16/92/51 12/108/51 22/90/51
f 12/108/51 8/109/51 22/90/51
f 8/109/51 3/110/51 22/90/51
f 7/95/51 4/111/51 14/93/51
f 4/111/51 2/112/51 14/93/51
f 2/112/51 17/113/51 14/93/51
