# Blender 4.4.3
# www.blender.org
o SM_2DSml_Tree_V1.001
v 0.000170 0.012424 -0.050832
v 0.036234 0.012424 -0.035894
v 0.051172 0.012424 0.000170
v 0.036234 0.012424 0.036234
v 0.000170 0.012424 0.051172
v -0.035894 0.012424 0.036234
v -0.050832 0.012424 0.000170
v -0.035894 0.012424 -0.035894
v 0.036234 0.694469 -0.035894
v 0.051172 0.694469 0.000170
v 0.036234 0.694469 0.036234
v -0.035894 0.694469 0.036234
v 0.001430 0.936105 -0.761215
v 0.540701 0.936105 -0.537842
v 0.764075 0.936105 0.001430
v 0.540701 0.936105 0.540701
v 0.001430 0.936105 0.764075
v -0.537842 0.936105 0.540701
v -0.761216 0.936105 0.001430
v -0.537842 0.936105 -0.537842
v 0.036234 1.912998 -0.035894
v 0.051172 1.912998 0.000170
v 0.036234 1.912998 0.036234
v -0.035894 1.912998 0.036234
v 0.001402 1.947336 -0.469824
v 0.334610 1.947336 -0.331805
v 0.472629 1.947336 0.001402
v 0.334610 1.947336 0.334610
v 0.001402 1.947336 0.472629
v -0.331805 1.947336 0.334610
v -0.469824 1.947336 0.001402
v -0.331805 1.947336 -0.331805
v 0.000170 0.694469 -0.050832
v 0.001430 0.936105 -0.761215
v 0.000170 1.912998 -0.050832
v 0.001402 1.947336 -0.469824
v 0.000177 2.395485 0.000177
v 0.540701 0.936105 -0.537842
v 0.334610 1.947336 -0.331805
v 0.000613 2.080242 0.000613
v 0.000170 0.694469 0.051172
v -0.050832 0.694469 0.000170
v -0.035658 0.694469 -0.035658
v 0.764075 0.936105 0.001430
v 0.540701 0.936105 0.540701
v 0.001430 0.936105 0.764075
v -0.537842 0.936105 0.540701
v -0.761216 0.936105 0.001430
v -0.537842 0.936105 -0.537842
v 0.000170 1.912998 0.051172
v -0.050832 1.912998 0.000170
v -0.035658 1.912998 -0.035658
v 0.472629 1.947336 0.001402
v 0.334610 1.947336 0.334610
v 0.001402 1.947336 0.472629
v -0.331805 1.947336 0.334610
v -0.469824 1.947336 0.001402
v -0.331805 1.947336 -0.331805
vn 0.3682 0.2725 -0.8889
vn 0.8896 0.2699 -0.3685
vn 0.8901 0.2681 0.3687
vn 0.3687 0.2681 0.8901
vn -0.3685 0.2699 0.8896
vn -0.8889 0.2725 0.3682
vn -0.8857 0.2734 -0.3751
vn -0.3751 0.2734 -0.8857
vn -0.3863 0.0002 -0.9224
vn -0.9224 0.0002 -0.3863
vn -0.9239 -0.0000 0.3827
vn -0.3827 -0.0000 0.9239
vn 0.3827 -0.0000 0.9239
vn 0.9239 -0.0000 0.3827
vn 0.9239 -0.0000 -0.3827
vn 0.3827 -0.0000 -0.9239
vn 0.7054 -0.0003 0.7088
vn -0.0017 0.0002 -1.0000
vn -1.0000 0.0003 0.0021
vn -0.0017 -0.0002 1.0000
vn -1.0000 0.0003 -0.0021
vn 0.7071 -0.0000 -0.7071
vn -0.7092 0.0004 -0.7050
vn -0.7071 -0.0000 0.7071
vn -0.7088 0.0003 -0.7054
vn -1.0000 0.0002 -0.0017
vn -0.0021 -0.0003 1.0000
vn -1.0000 0.0002 0.0017
vn -0.0021 0.0003 -1.0000
vn -0.3900 -0.0000 -0.9208
vn -0.9208 -0.0000 -0.3900
vn 0.7050 -0.0004 0.7092
vn 1.0000 -0.0003 0.0021
vn 1.0000 -0.0002 0.0017
vn -0.7054 0.0003 -0.7088
vn -0.7050 0.0004 -0.7092
vn 0.0017 -0.0002 1.0000
vn 1.0000 -0.0003 -0.0021
vn 0.0017 0.0002 -1.0000
vn 0.7092 -0.0004 0.7050
vn 0.7088 -0.0003 0.7054
vn 0.0021 0.0003 -1.0000
vn 1.0000 -0.0002 -0.0017
vn 0.0021 -0.0003 1.0000
vt 0.200612 0.121161
vt 0.192648 0.067997
vt 0.235709 0.105221
vt 0.253880 0.061077
vt 0.224202 0.017090
vt 0.183208 0.011307
vt 0.149981 0.028553
vt 0.128565 0.067635
vt 0.145363 0.111854
vt 0.043926 0.024781
vt 0.043926 0.385578
vt 0.031338 0.385578
vt 0.031338 0.024781
vt 0.056513 0.024781
vt 0.056513 0.385578
vt 0.066804 0.024781
vt 0.066804 0.385578
vt 0.077095 0.024781
vt 0.077095 0.385578
vt 0.087386 0.024781
vt 0.087386 0.385578
vt 0.097676 0.024781
vt 0.097676 0.385578
vt 0.021048 0.024781
vt 0.021048 0.385578
vt 0.010757 0.385578
vt 0.010757 0.024781
vt 0.357295 0.511209
vt 0.458988 0.511209
vt 0.457752 0.758642
vt 0.283111 0.511588
vt 0.807717 0.511208
vt 0.674819 0.895285
vt 0.357486 0.511208
vt 0.283886 0.511588
vt 0.808834 0.511209
vt 0.674667 0.894428
vt 0.043926 0.981558
vt 0.031338 0.981558
vt 0.056513 0.981558
vt 0.066804 0.981558
vt 0.077095 0.981558
vt 0.087386 0.981558
vt 0.097676 0.981558
vt 0.021048 0.981558
vt 0.010757 0.981558
vt 0.674819 0.128747
vt 0.457751 0.263775
vt 0.283111 0.511588
vt 0.674667 0.127989
s 0
f 35/1/1 40/2/1 21/3/1
f 21/3/2 40/2/2 22/4/2
f 22/4/3 40/2/3 23/5/3
f 23/5/4 40/2/4 50/6/4
f 50/6/5 40/2/5 24/7/5
f 24/7/6 40/2/6 51/8/6
f 51/8/7 40/2/7 52/9/7
f 52/9/8 40/2/8 35/1/8
f 8/10/9 43/11/9 33/12/9 1/13/9
f 7/14/10 42/15/10 43/11/10 8/10/10
f 6/16/11 12/17/11 42/15/11 7/14/11
f 5/18/12 41/19/12 12/17/12 6/16/12
f 4/20/13 11/21/13 41/19/13 5/18/13
f 3/22/14 10/23/14 11/21/14 4/20/14
f 2/24/15 9/25/15 10/26/15 3/27/15
f 1/13/16 33/12/16 9/25/16 2/24/16
f 40/28/17 21/29/17 26/30/17 37/31/17
f 40/28/18 51/29/18 31/30/18 37/31/18
f 50/29/19 41/32/19 17/33/19 29/30/19
f 40/28/20 22/29/20 27/30/20 37/31/20
f 33/32/21 35/29/21 25/30/21 13/33/21
f 52/29/22 43/32/22 20/33/22 32/30/22
f 24/29/23 12/32/23 18/33/23 30/30/23
f 23/29/24 11/32/24 16/33/24 28/30/24
f 40/34/24 23/29/24 28/30/24 37/35/24
f 40/34/25 24/29/25 30/30/25 37/35/25
f 40/34/22 52/29/22 32/30/22 37/35/22
f 35/29/26 40/34/26 37/35/26 25/30/26
f 22/29/27 10/36/27 15/37/27 27/30/27
f 40/34/28 50/29/28 29/30/28 37/35/28
f 51/29/29 42/36/29 19/37/29 31/30/29
f 43/11/30 52/38/30 35/39/30 33/12/30
f 42/15/31 51/40/31 52/38/31 43/11/31
f 12/17/11 24/41/11 51/40/11 42/15/11
f 41/19/12 50/42/12 24/41/12 12/17/12
f 11/21/13 23/43/13 50/42/13 41/19/13
f 10/23/14 22/44/14 23/43/14 11/21/14
f 9/25/15 21/45/15 22/46/15 10/26/15
f 33/12/16 35/39/16 21/45/16 9/25/16
f 21/29/32 9/36/32 14/37/32 26/30/32
f 33/32/33 34/47/33 36/48/33 35/29/33
f 35/29/34 36/48/34 37/35/34 40/34/34
f 40/28/35 37/49/35 39/48/35 21/29/35
f 21/29/36 39/48/36 38/50/36 9/36/36
f 40/28/37 37/49/37 57/48/37 51/29/37
f 50/29/38 55/48/38 46/47/38 41/32/38
f 40/28/39 37/49/39 53/48/39 22/29/39
f 52/29/24 58/48/24 49/47/24 43/32/24
f 24/29/40 56/48/40 47/47/40 12/32/40
f 23/29/22 54/48/22 45/47/22 11/32/22
f 40/34/22 37/35/22 54/48/22 23/29/22
f 40/34/41 37/35/41 56/48/41 24/29/41
f 40/34/24 37/35/24 58/48/24 52/29/24
f 22/29/42 53/48/42 44/50/42 10/36/42
f 40/34/43 37/35/43 55/48/43 50/29/43
f 51/29/44 57/48/44 48/50/44 42/36/44
