# Blender 4.4.3
# www.blender.org
o SM_2DMed_Tree_V1.0
v -0.000009 0.016915 -0.064009
v 0.045246 0.016915 -0.045264
v 0.063991 0.016915 -0.000009
v 0.045246 0.016915 0.045246
v -0.000009 0.016915 0.063991
v -0.045264 0.016915 0.045246
v -0.064009 0.016915 -0.000009
v -0.045264 0.016915 -0.045264
v 0.045246 1.854525 -0.045264
v 0.063991 1.854525 -0.000009
v 0.045246 1.854525 0.045246
v -0.045264 1.854525 0.045246
v 0.001571 1.568431 -0.842455
v 0.598388 1.568431 -0.595246
v 0.845598 1.568431 0.001571
v 0.598388 1.568431 0.598388
v 0.001571 1.568431 0.845598
v -0.595246 1.568431 0.598388
v -0.842456 1.568431 0.001571
v -0.595246 1.568431 -0.595246
v 0.045246 3.032822 -0.045264
v 0.063991 3.032822 -0.000009
v 0.045246 3.032822 0.045246
v -0.045264 3.032822 0.045246
v 0.001571 3.112260 -0.935993
v 0.664529 3.112260 -0.661387
v 0.939135 3.112260 0.001571
v 0.664529 3.112260 0.664529
v 0.001571 3.112260 0.939135
v -0.661386 3.112260 0.664529
v -0.935993 3.112260 0.001571
v -0.661386 3.112260 -0.661387
v -0.000009 1.854525 -0.064009
v 0.001571 1.568431 -0.842455
v -0.000009 3.032822 -0.064009
v 0.001571 3.112260 -0.935993
v 0.000000 3.638273 -0.000000
v 0.598388 1.568431 -0.595246
v 0.664529 3.112260 -0.661387
v -0.000000 3.376693 0.000000
v -0.000009 1.854525 0.063991
v -0.064009 1.854525 -0.000009
v -0.044968 1.854525 -0.044968
v 0.845598 1.568431 0.001571
v 0.598388 1.568431 0.598388
v 0.001571 1.568431 0.845598
v -0.595246 1.568431 0.598388
v -0.842456 1.568431 0.001571
v -0.595246 1.568431 -0.595246
v -0.000009 3.032822 0.063991
v -0.064009 3.032822 -0.000009
v -0.044968 3.032822 -0.044968
v 0.939135 3.112260 0.001571
v 0.664529 3.112260 0.664529
v 0.001571 3.112260 0.939135
v -0.661386 3.112260 0.664529
v -0.935993 3.112260 0.001571
v -0.661386 3.112260 -0.661387
v -0.054651 2.373712 0.054226
v -0.758245 2.373712 0.761627
v -0.758245 2.373712 0.761627
v -1.073469 2.373712 0.001634
v -1.073469 2.373712 0.001634
v -0.077224 2.373712 -0.000269
v -0.758846 2.373712 -0.758958
v -0.758846 2.373712 -0.758958
v -0.054295 2.373712 -0.054408
v 0.761388 2.373712 0.761275
v 0.054338 2.373712 0.054226
v 0.761388 2.373712 0.761275
v 0.001747 2.373712 1.076759
v 0.001747 2.373712 1.076759
v -0.000157 2.373712 0.076798
v 1.074425 2.373712 0.001634
v 0.760245 2.373712 -0.756864
v -0.000157 2.373712 -0.077337
v 0.001747 2.373712 -1.071044
v 0.760245 2.373712 -0.756864
v 0.054338 2.373712 -0.054764
v 0.001747 2.373712 -1.071044
v 1.074425 2.373712 0.001634
v 0.076911 2.373712 -0.000269
vn 0.3771 0.1695 -0.9105
vn 0.9105 0.1694 -0.3771
vn 0.9105 0.1694 0.3772
vn 0.3772 0.1694 0.9105
vn -0.3771 0.1694 0.9105
vn -0.9105 0.1695 0.3771
vn -0.9076 0.1690 -0.3844
vn -0.3844 0.1690 -0.9076
vn -0.3863 0.0001 -0.9224
vn -0.9224 0.0001 -0.3863
vn -0.9239 -0.0000 0.3827
vn -0.3827 -0.0000 0.9239
vn 0.3827 -0.0000 0.9239
vn 0.9239 -0.0000 0.3827
vn 0.9239 -0.0000 -0.3827
vn 0.3827 -0.0000 -0.9239
vn 0.7054 -0.0003 0.7088
vn -0.0017 0.0002 -1.0000
vn -1.0000 0.0002 0.0019
vn -0.0017 -0.0002 1.0000
vn -1.0000 -0.0003 -0.0019
vn 0.7071 0.0001 -0.7071
vn -0.7090 0.0004 -0.7053
vn -0.7071 -0.0001 0.7071
vn -0.7071 -0.0000 0.7071
vn -0.7088 0.0003 -0.7054
vn 0.7071 -0.0000 -0.7071
vn -1.0000 0.0002 -0.0017
vn -0.0018 -0.0003 1.0000
vn -1.0000 0.0002 0.0017
vn -0.0019 0.0003 -1.0000
vn -0.3899 -0.0237 -0.9206
vn -0.9206 -0.0236 -0.3899
vn -0.9236 -0.0233 0.3826
vn -0.3826 -0.0229 0.9236
vn 0.3826 -0.0227 0.9236
vn 0.9236 -0.0228 0.3826
vn 0.9236 -0.0232 -0.3826
vn 0.3826 -0.0236 -0.9236
vn 0.7053 -0.0004 0.7090
vn 1.0000 0.0003 0.0019
vn 1.0000 -0.0002 0.0017
vn -0.7054 0.0003 -0.7088
vn -0.7053 0.0004 -0.7090
vn 0.0017 -0.0002 1.0000
vn 1.0000 -0.0002 -0.0019
vn 0.0017 0.0002 -1.0000
vn 0.7090 -0.0004 0.7053
vn 0.7088 -0.0003 0.7054
vn 0.0018 0.0003 -1.0000
vn 1.0000 -0.0002 -0.0017
vn 0.0019 -0.0003 1.0000
vn -0.7090 -0.0006 -0.7052
vn 0.0019 0.0005 1.0000
vn -0.9207 0.0186 -0.3899
vn -0.0019 -0.0005 -1.0000
vn -0.9237 0.0184 0.3826
vn -0.7071 0.0001 0.7071
vn 0.7090 0.0006 0.7052
vn 0.7071 -0.0001 -0.7071
vn 1.0000 0.0003 -0.0019
vn -1.0000 -0.0003 0.0019
vn -0.3826 0.0180 0.9237
vn 0.3826 0.0179 0.9237
vn 0.9237 0.0180 0.3826
vn 0.9237 0.0183 -0.3826
vn -0.0019 0.0005 1.0000
vn 0.3826 0.0186 -0.9237
vn -1.0000 0.0002 -0.0019
vn 0.7052 0.0006 0.7090
vn 1.0000 -0.0002 0.0019
vn -0.3899 0.0187 -0.9207
vn -0.7052 -0.0006 -0.7090
vn 0.0019 -0.0005 -1.0000
vt 0.200612 0.121161
vt 0.192648 0.067997
vt 0.235709 0.105221
vt 0.253880 0.061077
vt 0.224202 0.017090
vt 0.183208 0.011307
vt 0.149981 0.028553
vt 0.128565 0.067635
vt 0.145363 0.111854
vt 0.043926 0.024781
vt 0.043926 0.385578
vt 0.031338 0.385578
vt 0.031338 0.024781
vt 0.056513 0.024781
vt 0.056513 0.385578
vt 0.066804 0.024781
vt 0.066804 0.385578
vt 0.077095 0.024781
vt 0.077095 0.385578
vt 0.087386 0.024781
vt 0.087386 0.385578
vt 0.097676 0.024781
vt 0.097676 0.385578
vt 0.021048 0.024781
vt 0.021048 0.385578
vt 0.010757 0.385578
vt 0.010757 0.024781
vt 0.383745 0.506412
vt 0.470265 0.506412
vt 0.469213 0.890213
vt 0.320630 0.506734
vt 0.637266 0.506325
vt 0.637266 0.972025
vt 0.766961 0.506411
vt 0.637266 0.970407
vt 0.842623 0.833181
vt 0.637266 0.506325
vt 0.637266 0.972366
vt 0.637266 0.971804
vt 0.637266 0.971476
vt 0.383908 0.506411
vt 0.321290 0.506734
vt 0.637266 0.506325
vt 0.637266 0.969930
vt 0.637266 0.971630
vt 0.043926 0.665718
vt 0.031338 0.665718
vt 0.056513 0.665718
vt 0.066804 0.665718
vt 0.077095 0.665718
vt 0.087386 0.665718
vt 0.097676 0.665718
vt 0.021048 0.665718
vt 0.010757 0.665718
vt 0.842623 0.181017
vt 0.637266 0.043142
vt 0.469213 0.122610
vt 0.320630 0.506734
vt 0.637266 0.042721
vt 0.637266 0.041485
vt 0.637266 0.041135
vt 0.637266 0.041710
vt 0.637266 0.042047
vt 0.637266 0.041021
vt 0.842494 0.180372
vt 0.767911 0.506412
vt 0.056513 0.981558
vt 0.043926 0.981558
vt 0.842494 0.832451
vt 0.066804 0.981558
vt 0.077095 0.981558
vt 0.087386 0.981558
vt 0.097676 0.981558
vt 0.021048 0.981558
vt 0.010757 0.981558
vt 0.031338 0.981558
s 0
f 35/1/1 40/2/1 21/3/1
f 21/3/2 40/2/2 22/4/2
f 22/4/3 40/2/3 23/5/3
f 23/5/4 40/2/4 50/6/4
f 50/6/5 40/2/5 24/7/5
f 24/7/6 40/2/6 51/8/6
f 51/8/7 40/2/7 52/9/7
f 52/9/8 40/2/8 35/1/8
f 8/10/9 43/11/9 33/12/9 1/13/9
f 7/14/10 42/15/10 43/11/10 8/10/10
f 6/16/11 12/17/11 42/15/11 7/14/11
f 5/18/12 41/19/12 12/17/12 6/16/12
f 4/20/13 11/21/13 41/19/13 5/18/13
f 3/22/14 10/23/14 11/21/14 4/20/14
f 2/24/15 9/25/15 10/26/15 3/27/15
f 1/13/16 33/12/16 9/25/16 2/24/16
f 40/28/17 21/29/17 26/30/17 37/31/17
f 40/28/18 51/29/18 31/30/18 37/31/18
f 50/29/19 73/32/19 71/33/19 29/30/19
f 40/28/20 22/29/20 27/30/20 37/31/20
f 33/34/21 76/32/21 80/35/21 13/36/21
f 52/29/22 67/37/22 65/38/22 32/30/22
f 24/29/23 59/32/23 60/39/23 30/30/23
f 23/29/24 69/32/24 68/40/24 28/30/24
f 40/41/25 23/29/25 28/30/25 37/42/25
f 40/41/26 24/29/26 30/30/26 37/42/26
f 40/41/27 52/29/27 32/30/27 37/42/27
f 35/29/28 40/41/28 37/42/28 25/30/28
f 22/29/29 82/43/29 81/44/29 27/30/29
f 40/41/30 50/29/30 29/30/30 37/42/30
f 51/29/31 64/43/31 62/45/31 31/30/31
f 43/11/32 67/46/32 76/47/32 33/12/32
f 42/15/33 64/48/33 67/46/33 43/11/33
f 12/17/34 59/49/34 64/48/34 42/15/34
f 41/19/35 73/50/35 59/49/35 12/17/35
f 11/21/36 69/51/36 73/50/36 41/19/36
f 10/23/37 82/52/37 69/51/37 11/21/37
f 9/25/38 79/53/38 82/54/38 10/26/38
f 33/12/39 76/47/39 79/53/39 9/25/39
f 21/29/40 79/43/40 78/44/40 26/30/40
f 33/34/41 34/55/41 77/56/41 76/32/41
f 35/29/42 36/57/42 37/42/42 40/41/42
f 40/28/43 37/58/43 39/57/43 21/29/43
f 21/29/44 39/57/44 75/59/44 79/43/44
f 40/28/45 37/58/45 57/57/45 51/29/45
f 50/29/46 55/57/46 72/60/46 73/32/46
f 40/28/47 37/58/47 53/57/47 22/29/47
f 52/29/24 58/57/24 66/61/24 67/37/24
f 24/29/48 56/57/48 61/62/48 59/32/48
f 23/29/22 54/57/22 70/63/22 69/32/22
f 40/41/27 37/42/27 54/57/27 23/29/27
f 40/41/49 37/42/49 56/57/49 24/29/49
f 40/41/25 37/42/25 58/57/25 52/29/25
f 22/29/50 53/57/50 74/59/50 82/43/50
f 40/41/51 37/42/51 55/57/51 50/29/51
f 51/29/52 57/57/52 63/64/52 64/43/52
f 60/39/53 59/32/53 12/34/53 18/36/53
f 64/43/54 63/64/54 48/65/54 42/66/54
f 67/46/55 64/48/55 51/67/55 52/68/55
f 62/45/56 64/43/56 42/66/56 19/69/56
f 64/48/57 59/49/57 24/70/57 51/67/57
f 67/37/58 66/61/58 49/55/58 43/34/58
f 59/32/59 61/62/59 47/55/59 12/34/59
f 65/38/60 67/37/60 43/34/60 20/36/60
f 69/32/60 70/63/60 45/55/60 11/34/60
f 73/32/61 72/60/61 46/55/61 41/34/61
f 71/33/62 73/32/62 41/34/62 17/36/62
f 68/40/58 69/32/58 11/34/58 16/36/58
f 59/49/63 73/50/63 50/71/63 24/70/63
f 73/50/64 69/51/64 23/72/64 50/71/64
f 69/51/65 82/52/65 22/73/65 23/72/65
f 82/54/66 79/53/66 21/74/66 22/75/66
f 81/44/67 82/43/67 10/66/67 15/69/67
f 79/53/68 76/47/68 35/76/68 21/74/68
f 80/35/69 76/32/69 35/29/69 25/30/69
f 78/44/70 79/43/70 9/66/70 14/69/70
f 76/32/71 77/56/71 36/57/71 35/29/71
f 76/47/72 67/46/72 52/68/72 35/76/72
f 79/43/73 75/59/73 38/65/73 9/66/73
f 82/43/74 74/59/74 44/65/74 10/66/74
