# Blender 4.4.3
# www.blender.org
o SM_3DSml_Tree_V1.0
v -0.024212 0.006802 -0.091767
v 0.127803 0.006802 -0.131549
v 0.083885 0.006802 -0.000009
v 0.138576 0.006802 0.196274
v -0.006753 0.006802 0.101703
v -0.125435 0.006802 0.198289
v -0.106738 0.006802 0.045670
v -0.161575 0.006802 -0.130847
v 0.026214 1.457615 -0.026201
v 0.037069 1.457615 0.000006
v 0.026214 1.457615 0.026214
v -0.026201 1.457615 0.026214
v 0.000006 1.457615 -0.037057
v 0.000006 1.457615 0.037069
v -0.037057 1.457615 0.000006
v -0.026030 1.457615 -0.026030
v 0.001660 0.441618 0.063991
v -0.064009 0.414179 -0.000009
v -0.045243 0.458300 -0.018171
v -0.056815 0.406652 0.045246
v 0.079068 0.467693 0.048098
v -0.000009 0.414179 -0.064009
v 0.045246 0.430760 -0.045264
v 0.063991 0.389907 -0.000009
v 0.018860 1.053864 -0.010435
v 0.522729 1.580765 0.491943
v -0.115083 1.516669 0.656535
v -0.679684 1.537197 -0.089360
v -0.267585 1.482295 -0.638661
v 0.447729 1.505155 -0.355124
v 0.128722 1.953740 0.565251
v -0.506303 2.076699 0.349984
v -0.469312 2.180485 -0.329343
v 0.186618 2.059834 -0.599453
v 0.644260 2.050679 0.141674
v 0.010045 2.375179 0.006730
v -0.112957 1.210977 0.341367
v 0.306829 1.216401 0.230105
v 0.155800 1.466529 0.499123
v 0.589099 1.385185 0.076657
v 0.296300 1.134136 -0.116840
v -0.302665 1.239400 0.028922
v -0.535982 1.545910 0.314848
v -0.174038 1.233438 -0.268266
v -0.423812 1.532579 -0.391217
v 0.079150 1.369244 -0.583059
v 0.634102 1.873632 0.196445
v 0.683753 1.749730 -0.197290
v 0.101133 1.844407 0.797481
v 0.392383 1.838943 0.564772
v -0.643946 1.825865 0.214096
v -0.488266 1.911255 0.595936
v -0.415276 1.867069 -0.540304
v -0.589346 1.792030 -0.177128
v 0.399579 1.817214 -0.544610
v -0.057470 1.796334 -0.607231
v 0.524523 1.989980 0.323860
v -0.099199 2.184308 0.477453
v -0.589083 2.068102 0.025782
v -0.161921 2.154378 -0.596002
v 0.477403 2.099242 -0.322364
v 0.031520 2.268932 0.357220
v 0.350847 2.259486 0.057821
v -0.290089 2.309814 0.213194
v -0.202916 2.409639 -0.297758
v 0.111791 2.309767 -0.335931
v -0.023979 0.253233 0.064828
v -0.073957 0.261070 -0.000009
v -0.068954 0.196683 -0.082737
v -0.108070 0.210490 0.073711
v 0.046891 0.193030 0.117641
v 0.069516 0.206739 -0.075633
v 0.073938 0.270911 -0.000009
v -0.020761 0.129392 -0.064402
vn -0.9559 0.2693 0.1169
vn -0.9684 0.0289 0.2476
vn 0.3860 0.3114 0.8684
vn 0.2427 0.0302 0.9696
vn 0.9947 0.0375 -0.0958
vn 0.9283 0.0237 -0.3710
vn 0.3778 0.0240 -0.9256
vn 0.3338 0.1231 -0.9346
vn -0.6186 0.0132 -0.7856
vn 0.0135 0.0604 -0.9981
vn 0.9712 0.1153 -0.2084
vn 0.9965 -0.0436 0.0719
vn -0.2006 0.1717 0.9645
vn -0.3393 0.0257 0.9403
vn -0.9768 0.1595 -0.1431
vn -0.8368 0.0168 -0.5473
vn 0.1292 -0.8865 0.4443
vn 0.6222 -0.6653 0.4127
vn -0.4698 -0.8581 0.2072
vn -0.5079 -0.8371 -0.2030
vn 0.0141 -0.8155 -0.5785
vn 0.9646 -0.1432 0.2216
vn 0.3403 -0.5519 0.7613
vn -0.9145 -0.2339 0.3302
vn -0.8464 -0.1986 -0.4941
vn 0.5829 -0.3541 -0.7313
vn 0.7988 0.2488 0.5477
vn -0.3363 -0.1760 0.9252
vn -0.9467 0.2817 -0.1565
vn -0.1434 0.1931 -0.9706
vn 0.7162 -0.2781 -0.6401
vn 0.3811 0.5883 0.7132
vn -0.3751 0.7027 0.6046
vn -0.6533 0.7568 0.0192
vn 0.1940 0.7387 -0.6455
vn 0.5996 0.7892 -0.1330
vn 0.3313 0.9400 -0.0811
vn 0.4950 0.8473 -0.1923
vn 0.4309 0.7127 -0.5536
vn 0.2906 0.9521 -0.0955
vn 0.1651 0.7604 -0.6281
vn -0.4744 0.6355 -0.6091
vn -0.0926 0.9801 0.1757
vn -0.6431 0.7647 0.0397
vn -0.6778 0.7190 0.1540
vn -0.0085 0.9568 0.2906
vn -0.1094 0.8649 0.4898
vn 0.3071 0.5884 0.7480
vn 0.2744 0.9248 0.2635
vn 0.4594 0.7561 0.4661
vn 0.3953 0.7616 0.5135
vn 0.8685 0.4166 -0.2687
vn 0.7729 0.2472 -0.5844
vn 0.6109 0.3791 -0.6950
vn -0.0015 0.0309 -0.9995
vn -0.1884 -0.0242 -0.9818
vn -0.5876 0.3797 -0.7145
vn -0.9468 0.1911 -0.2588
vn -0.9832 0.1087 -0.1466
vn -0.9005 0.3750 0.2200
vn -0.3687 0.7585 0.5373
vn -0.1937 0.6096 0.7687
vn 0.5686 0.7162 0.4047
vn 0.3136 0.7176 0.6219
vn 0.8173 0.1653 0.5519
vn 0.8078 0.1314 0.5747
vn 0.1396 -0.1002 -0.9851
vn 0.1363 -0.0125 -0.9906
vn 0.1565 -0.0058 -0.9877
vn -0.9047 0.1193 -0.4090
vn -0.8719 -0.1806 -0.4552
vn -0.7616 0.0474 -0.6463
vn -0.8965 0.3344 0.2907
vn -0.8916 -0.1972 0.4076
vn -0.5824 -0.4465 0.6792
vn 0.3607 0.8266 0.4320
vn 0.5459 -0.4691 0.6942
vn 0.0900 -0.2281 0.9695
vn 0.9913 -0.0166 0.1302
vn 0.9778 -0.1304 0.1643
vn 0.7753 -0.4955 -0.3915
vn 0.5697 -0.5960 -0.5659
vn -0.0517 -0.9012 -0.4304
vn -0.1903 -0.8365 -0.5139
vn -0.6739 -0.6807 -0.2872
vn -0.6774 -0.6805 -0.2795
vn -0.4871 -0.7759 -0.4010
vn -0.6471 -0.7217 0.2456
vn -0.6037 -0.7388 0.2994
vn -0.5229 -0.6136 0.5916
vn 0.7343 -0.5528 -0.3940
vn 0.5729 -0.8012 0.1726
vn 0.3443 -0.9158 0.2067
vn 0.2629 -0.6917 0.6727
vn 0.2007 -0.6587 0.7251
vn 0.2170 -0.6512 0.7273
vn -0.9747 0.0242 -0.2220
vn -0.5448 0.0856 0.8342
vn 0.9762 0.2146 -0.0327
vn 0.9809 0.1264 0.1478
vn -0.2624 0.1992 -0.9442
vn -0.1367 0.1279 -0.9823
vn -0.1227 0.0998 0.9874
vn -0.9612 0.1169 -0.2499
vt 0.052507 0.809001
vt 0.040075 0.809001
vt 0.040075 0.806153
vt 0.052507 0.806153
vt 0.062671 0.811850
vt 0.062671 0.885902
vt 0.052507 0.885902
vt 0.052507 0.811850
vt 0.072834 0.809001
vt 0.062671 0.809001
vt 0.062671 0.806153
vt 0.072834 0.806153
vt 0.082998 0.811850
vt 0.082998 0.885902
vt 0.072834 0.885902
vt 0.072834 0.811850
vt 0.093161 0.811850
vt 0.093161 0.885902
vt 0.017480 0.811850
vt 0.017480 0.885902
vt 0.007317 0.885902
vt 0.007317 0.811850
vt 0.027644 0.811850
vt 0.027644 0.885902
vt 0.027644 0.809001
vt 0.027644 0.806153
vt 0.040076 0.885902
vt 0.040075 0.811850
vt 0.017480 0.809001
vt 0.007317 0.809001
vt 0.093161 0.809001
vt 0.082998 0.809001
vt 0.141136 0.561352
vt 0.120171 0.518893
vt 0.173101 0.528102
vt 0.103134 0.463136
vt 0.072698 0.519167
vt 0.182027 0.574743
vt 0.150362 0.603528
vt 0.105439 0.560237
vt 0.036822 0.460591
vt 0.198613 0.482488
vt 0.153602 0.478803
vt 0.193314 0.422930
vt 0.227817 0.612503
vt 0.240451 0.550865
vt 0.279612 0.573397
vt 0.140499 0.655998
vt 0.182080 0.646205
vt 0.174684 0.700881
vt 0.053245 0.584359
vt 0.101340 0.627756
vt 0.024648 0.631636
vt 0.119124 0.422930
vt 0.277573 0.493947
vt 0.243120 0.648925
vt 0.096518 0.688527
vt 0.012821 0.540550
vt 0.224860 0.488004
vt 0.241563 0.557661
vt 0.179318 0.510611
vt 0.118485 0.458862
vt 0.176986 0.485113
vt 0.133475 0.500597
vt 0.067231 0.541586
vt 0.077128 0.487974
vt 0.106056 0.558176
vt 0.114251 0.631954
vt 0.078377 0.597152
vt 0.131741 0.588842
vt 0.231001 0.588224
vt 0.170904 0.625752
vt 0.187980 0.569045
vt 0.148764 0.545322
vt 0.221339 0.656259
vt 0.142582 0.671959
vt 0.059372 0.644833
vt 0.026060 0.577378
vt 0.026060 0.499342
vt 0.072332 0.443510
vt 0.143662 0.422930
vt 0.240554 0.454213
vt 0.260213 0.512042
vt 0.255951 0.591204
vt 0.082998 0.806153
vt 0.093161 0.806153
vt 0.017480 0.806153
vt 0.007317 0.806153
s 0
f 68/1/1 69/2/1 8/3/1 7/4/1
f 20/5/2 12/6/2 15/7/2 18/8/2
f 67/9/3 70/10/3 6/11/3 5/12/3
f 21/13/4 11/14/4 14/15/4 17/16/4
f 24/17/5 10/18/5 11/14/5 21/13/5
f 23/19/6 9/20/6 10/21/6 24/22/6
f 22/23/7 13/24/7 9/20/7 23/19/7
f 69/2/8 74/25/8 1/26/8 8/3/8
f 16/27/9 13/24/9 22/23/9 19/28/9
f 74/25/10 22/23/10 23/19/10 72/29/10
f 72/29/11 23/19/11 24/22/11 73/30/11
f 73/31/12 24/17/12 21/13/12 71/32/12
f 71/32/13 21/13/13 17/16/13 67/9/13
f 14/15/14 12/6/14 20/5/14 17/16/14
f 70/10/15 20/5/15 18/8/15 68/1/15
f 15/7/16 16/27/16 19/28/16 18/8/16
f 25/33/17 38/34/17 37/35/17
f 26/36/18 38/34/18 40/37/18
f 25/33/19 37/35/19 42/38/19
f 25/33/20 42/38/20 44/39/20
f 25/33/21 44/39/21 41/40/21
f 26/36/22 40/37/22 47/41/22
f 27/42/23 39/43/23 49/44/23
f 28/45/24 43/46/24 51/47/24
f 29/48/25 45/49/25 53/50/25
f 30/51/26 46/52/26 55/53/26
f 26/36/27 47/41/27 50/54/27
f 27/42/28 49/44/28 52/55/28
f 28/45/29 51/47/29 54/56/29
f 29/48/30 53/50/30 56/57/30
f 30/51/31 55/53/31 48/58/31
f 31/59/32 57/60/32 62/61/32
f 32/62/33 58/63/33 64/64/33
f 33/65/34 59/66/34 65/67/34
f 34/68/35 60/69/35 66/70/35
f 35/71/36 61/72/36 63/73/36
f 63/73/37 66/70/37 36/74/37
f 63/73/38 61/72/38 66/70/38
f 61/72/39 34/68/39 66/70/39
f 66/70/40 65/67/40 36/74/40
f 66/70/41 60/69/41 65/67/41
f 60/69/42 33/65/42 65/67/42
f 65/67/43 64/64/43 36/74/43
f 65/67/44 59/66/44 64/64/44
f 59/66/45 32/62/45 64/64/45
f 64/64/46 62/61/46 36/74/46
f 64/64/47 58/63/47 62/61/47
f 58/63/48 31/59/48 62/61/48
f 62/61/49 63/73/49 36/74/49
f 62/61/50 57/60/50 63/73/50
f 57/60/51 35/71/51 63/73/51
f 48/75/52 61/72/52 35/71/52
f 48/75/53 55/76/53 61/72/53
f 55/76/54 34/68/54 61/72/54
f 56/77/55 60/69/55 34/68/55
f 56/77/56 53/78/56 60/69/56
f 53/78/57 33/65/57 60/69/57
f 54/79/58 59/66/58 33/65/58
f 54/79/59 51/80/59 59/66/59
f 51/80/60 32/62/60 59/66/60
f 52/81/61 58/63/61 32/62/61
f 52/81/62 49/82/62 58/63/62
f 49/82/63 31/59/63 58/63/63
f 50/83/64 57/60/64 31/59/64
f 50/83/65 47/84/65 57/60/65
f 47/84/66 35/71/66 57/60/66
f 55/76/67 56/77/67 34/68/67
f 55/53/68 46/52/68 56/57/68
f 46/52/69 29/48/69 56/57/69
f 53/78/70 54/79/70 33/65/70
f 53/50/71 45/49/71 54/56/71
f 45/49/72 28/45/72 54/56/72
f 51/80/73 52/81/73 32/62/73
f 51/47/74 43/46/74 52/55/74
f 43/46/75 27/42/75 52/55/75
f 49/82/76 50/83/76 31/59/76
f 49/44/77 39/43/77 50/54/77
f 39/43/78 26/36/78 50/54/78
f 47/84/79 48/75/79 35/71/79
f 47/41/80 40/37/80 48/58/80
f 40/37/81 30/51/81 48/58/81
f 41/40/82 46/52/82 30/51/82
f 41/40/83 44/39/83 46/52/83
f 44/39/84 29/48/84 46/52/84
f 44/39/85 45/49/85 29/48/85
f 44/39/86 42/38/86 45/49/86
f 42/38/87 28/45/87 45/49/87
f 42/38/88 43/46/88 28/45/88
f 42/38/89 37/35/89 43/46/89
f 37/35/90 27/42/90 43/46/90
f 40/37/91 41/40/91 30/51/91
f 40/37/92 38/34/92 41/40/92
f 38/34/93 25/33/93 41/40/93
f 37/35/94 39/43/94 27/42/94
f 37/35/95 38/34/95 39/43/95
f 38/34/96 26/36/96 39/43/96
f 6/11/97 70/10/97 68/1/97 7/4/97
f 4/85/98 71/32/98 67/9/98 5/12/98
f 3/86/99 73/31/99 71/32/99 4/85/99
f 2/87/100 72/29/100 73/30/100 3/88/100
f 1/26/101 74/25/101 72/29/101 2/87/101
f 19/28/102 22/23/102 74/25/102 69/2/102
f 17/16/103 20/5/103 70/10/103 67/9/103
f 18/8/104 19/28/104 69/2/104 68/1/104
