# Blender 4.4.3
# www.blender.org
o SM_3DMed_Tree_V1.0
v -0.000015 0.006802 -0.117467
v 0.168297 0.006802 -0.168326
v 0.117438 0.006802 -0.000015
v 0.198236 0.006802 0.217733
v -0.000015 0.006802 0.117438
v -0.127607 0.006802 0.271693
v -0.117467 0.006802 -0.000015
v -0.248129 0.006802 -0.241986
v 0.039335 1.579460 -0.039325
v 0.055626 1.579460 0.000005
v 0.039335 1.579460 0.039335
v -0.039325 1.579460 0.039335
v 0.000005 1.579460 -0.055616
v 0.000005 1.579460 0.055626
v -0.055616 1.579460 0.000005
v -0.039068 1.579460 -0.039068
v -0.000015 0.495573 0.089585
v -0.102402 0.495573 -0.000015
v -0.063342 0.495573 -0.063342
v -0.036191 0.495573 0.063342
v 0.046175 0.495573 0.063342
v -0.000015 0.495573 -0.089615
v 0.093633 0.495573 -0.063371
v 0.089585 0.495573 -0.000015
v -0.297285 3.947239 0.360800
v -0.370879 3.526211 -0.935907
v -0.112646 2.839150 -1.129551
v -0.556183 2.690551 -0.837537
v 0.662972 4.070537 -0.025615
v -0.450043 4.096478 -0.401223
v 0.000353 4.072266 -0.573555
v -0.930469 3.463181 0.025987
v 0.883345 3.563105 -0.744932
v 0.280341 3.975616 0.583636
v 0.626687 2.760521 -0.823883
v 0.698958 3.511524 0.300695
v -0.294498 3.530567 0.815481
v -0.621859 2.706390 0.829407
v -0.999677 2.709800 -0.323317
v 0.579230 2.492661 0.659455
v -0.985209 2.707837 0.344551
v 0.940247 1.861957 -0.060458
v 0.989374 2.713199 -0.321092
v 0.052185 2.862704 0.968188
v 0.406451 1.443464 -0.402688
v 0.342247 1.998353 -0.935365
v 1.019642 2.942723 0.257172
v 0.593036 1.238284 0.319922
v -0.230637 1.330226 -0.580057
v -0.549867 1.826176 -0.471791
v -0.238185 1.341706 0.557964
v -0.623006 1.558778 -0.124793
v -0.439019 1.843969 0.574963
v 0.251935 1.998448 0.591631
v 0.200701 4.147615 0.001321
v 0.892073 3.350278 0.109078
v 0.274880 3.336899 -1.170745
v -0.739109 3.430140 -0.588047
v -0.751813 3.477030 0.532330
v 0.382288 3.280415 1.034272
v 0.752318 1.978357 -0.544369
v -0.364254 2.106837 -0.648713
v -0.974677 2.056096 -0.160634
v -0.147321 1.953276 0.953842
v 0.757647 1.975256 0.566293
v 0.004071 0.988067 0.195827
v -0.000015 0.251187 0.103512
v -0.106469 0.251187 0.025637
v -0.115834 0.251187 -0.115834
v -0.069239 0.251187 0.139373
v 0.094275 0.226992 0.086598
v 0.115516 0.251187 -0.087850
v 0.093139 0.251187 0.015337
v -0.000015 0.251187 -0.071340
vn -0.9262 0.1665 0.3382
vn -0.7794 0.0226 0.6262
vn 0.6888 0.1311 0.7130
vn 0.4452 0.0253 0.8951
vn 0.8643 0.0218 0.5025
vn 0.9921 0.0417 -0.1183
vn 0.3045 0.0331 -0.9519
vn 0.4126 0.2015 -0.8884
vn -0.3856 0.0291 -0.9222
vn 0.0465 0.0148 -0.9988
vn 0.9865 0.0484 0.1565
vn 0.9410 0.1186 0.3168
vn 0.3076 0.0974 0.9465
vn -0.4907 0.0226 0.8710
vn -0.8512 0.1681 0.4972
vn -0.8783 0.0341 -0.4769
vn 0.2416 -0.2287 0.9430
vn -0.7099 -0.3053 0.6347
vn 0.0326 -0.3234 0.9457
vn 0.6152 -0.4908 0.6170
vn 0.4277 -0.8345 -0.3474
vn -0.8580 -0.3556 0.3705
vn -0.5377 -0.1656 -0.8267
vn -0.7343 -0.2691 -0.6232
vn 0.0419 -0.1630 0.9857
vn -0.3965 -0.4048 -0.8240
vn -0.7595 -0.5078 0.4066
vn -0.3912 -0.1476 -0.9084
vn -0.7562 0.0334 -0.6535
vn 0.3000 -0.3219 0.8980
vn 0.3814 -0.0071 -0.9244
vn 0.9134 0.0354 0.4055
vn -0.9964 0.0814 0.0218
vn 0.7904 0.3460 0.5055
vn 0.9905 0.1353 0.0236
vn 0.3774 0.8072 -0.4538
vn -0.2164 0.9490 0.2292
vn 0.1278 -0.6655 0.7354
vn -0.6946 0.0697 -0.7160
vn 0.0032 0.9914 -0.1310
vn 0.8976 -0.3064 0.3169
vn 0.7631 0.3618 0.5356
vn -0.2424 0.6455 -0.7243
vn -0.7116 -0.6776 0.1857
vn -0.9268 0.2247 -0.3009
vn -0.6713 0.4552 -0.5849
vn -0.6222 -0.7682 -0.1506
vn -0.2826 0.0720 0.9565
vn -0.6708 0.6908 0.2698
vn 0.2774 -0.8453 -0.4567
vn -0.6622 0.7182 0.2140
vn 0.2464 0.6647 -0.7053
vn -0.2743 -0.3764 -0.8849
vn -0.5556 0.0254 -0.8310
vn 0.7869 -0.1940 -0.5859
vn 0.9400 -0.1579 0.3024
vn 0.1735 0.9507 0.2571
vn -0.1619 0.9402 0.2998
vn 0.6732 -0.1591 0.7222
vn -0.0745 0.5347 0.8417
vn -0.9252 0.2024 0.3209
vn -0.7968 -0.3781 0.4712
vn -0.2239 0.1053 0.9689
vn 0.5183 0.2292 0.8239
vn 0.6787 -0.1481 -0.7194
vn 0.1516 0.9719 -0.1802
vn 0.5975 -0.1130 -0.7938
vn 0.6282 0.0772 0.7742
vn -0.6975 -0.3348 0.6336
vn -0.2849 0.7058 0.6486
vn -0.2083 0.0303 0.9776
vn 0.9975 -0.0656 -0.0262
vn -0.5318 0.2250 0.8164
vn -0.9992 -0.0329 0.0216
vn 0.5697 -0.5339 -0.6248
vn 0.7917 0.4118 0.4513
vn -0.4511 0.6566 0.6045
vn -0.6704 -0.5127 -0.5364
vn -0.2976 0.1537 -0.9422
vn 0.7790 0.4175 0.4678
vn 0.3304 -0.3304 -0.8841
vn -0.7964 0.0959 0.5971
vn 0.8047 -0.0809 -0.5881
vn 0.2728 -0.3569 0.8934
vn 0.9579 0.2461 -0.1478
vn -0.4070 -0.3995 -0.8214
vn 0.9035 -0.1723 -0.3923
vn -0.6486 -0.2071 -0.7324
vn 0.9469 0.3140 0.0686
vn 0.3096 -0.6396 -0.7036
vn -0.7566 -0.3274 0.5660
vn -0.8465 0.4479 -0.2879
vn 0.7072 -0.6109 -0.3560
vn -0.7838 -0.4010 -0.4742
vn -0.1116 0.6010 -0.7914
vn 0.7110 -0.5691 -0.4130
vn -0.9855 0.1550 0.0693
vn -0.2480 0.2377 0.9391
vn 0.9471 0.1987 -0.2519
vn 0.9606 0.1007 0.2591
vn -0.2252 0.2214 -0.9488
vn 0.1010 0.0587 -0.9932
vn 0.0895 0.1744 0.9806
vn -0.9823 0.1215 -0.1424
vt 0.052415 0.810982
vt 0.039983 0.810982
vt 0.039983 0.807441
vt 0.052415 0.807441
vt 0.062578 0.814523
vt 0.062578 0.899657
vt 0.052415 0.899657
vt 0.052415 0.814523
vt 0.072742 0.810982
vt 0.062578 0.810982
vt 0.062578 0.807441
vt 0.072742 0.807441
vt 0.082905 0.814523
vt 0.082905 0.899657
vt 0.072742 0.899657
vt 0.072742 0.814523
vt 0.093069 0.814523
vt 0.093069 0.899657
vt 0.017388 0.814523
vt 0.017388 0.899657
vt 0.007225 0.899657
vt 0.007224 0.814523
vt 0.027551 0.814523
vt 0.027551 0.899657
vt 0.027551 0.810982
vt 0.027551 0.807441
vt 0.039983 0.899657
vt 0.039983 0.814523
vt 0.017388 0.810982
vt 0.007224 0.810982
vt 0.093069 0.810982
vt 0.082905 0.810982
vt 0.104210 0.585038
vt 0.161849 0.597634
vt 0.123846 0.642277
vt 0.077956 0.624773
vt 0.069005 0.578366
vt 0.173184 0.646071
vt 0.135602 0.568906
vt 0.185401 0.549719
vt 0.103018 0.523219
vt 0.147887 0.519549
vt 0.121663 0.490638
vt 0.151933 0.469497
vt 0.067742 0.608915
vt 0.116604 0.590206
vt 0.112241 0.647876
vt 0.185998 0.545065
vt 0.182541 0.516841
vt 0.212696 0.512690
vt 0.094979 0.537742
vt 0.096426 0.584368
vt 0.042986 0.563850
vt 0.069005 0.497315
vt 0.211443 0.501498
vt 0.057747 0.668706
vt 0.249614 0.557426
vt 0.070848 0.494157
vt 0.219937 0.431208
vt 0.277196 0.521093
vt 0.174730 0.649735
vt 0.146038 0.701649
vt 0.068995 0.556267
vt 0.063239 0.527483
vt 0.111520 0.544121
vt 0.123101 0.466609
vt 0.058840 0.431114
vt 0.172703 0.422733
vt 0.122386 0.480633
vt 0.168117 0.537978
vt 0.184323 0.564988
vt 0.148346 0.605388
vt 0.135611 0.563022
vt 0.009656 0.616141
vt 0.216239 0.598525
vt 0.107383 0.590802
vt 0.218080 0.523233
vt 0.232612 0.568681
vt 0.277196 0.625382
vt 0.210028 0.620646
vt 0.172103 0.644957
vt 0.185126 0.473752
vt 0.147253 0.507815
vt 0.179490 0.452968
vt 0.199681 0.572280
vt 0.124469 0.642519
vt 0.063239 0.626810
vt 0.224296 0.679306
vt 0.134993 0.617480
vt 0.177219 0.588034
vt 0.218821 0.620509
vt 0.117773 0.514661
vt 0.012740 0.520651
vt 0.228661 0.550112
vt 0.082905 0.807441
vt 0.093069 0.807441
vt 0.017388 0.807441
vt 0.007224 0.807441
s 0
f 68/1/1 69/2/1 8/3/1 7/4/1
f 20/5/2 12/6/2 15/7/2 18/8/2
f 67/9/3 70/10/3 6/11/3 5/12/3
f 21/13/4 11/14/4 14/15/4 17/16/4
f 24/17/5 10/18/5 11/14/5 21/13/5
f 23/19/6 9/20/6 10/21/6 24/22/6
f 22/23/7 13/24/7 9/20/7 23/19/7
f 69/2/8 74/25/8 1/26/8 8/3/8
f 16/27/9 13/24/9 22/23/9 19/28/9
f 74/25/10 22/23/10 23/19/10 72/29/10
f 72/29/11 23/19/11 24/22/11 73/30/11
f 73/31/12 24/17/12 21/13/12 71/32/12
f 71/32/13 21/13/13 17/16/13 67/9/13
f 14/15/14 12/6/14 20/5/14 17/16/14
f 70/10/15 20/5/15 18/8/15 68/1/15
f 15/7/16 16/27/16 19/28/16 18/8/16
f 51/33/17 48/34/17 54/35/17
f 51/33/18 64/36/18 53/37/18
f 48/34/19 65/38/19 54/35/19
f 51/33/20 54/35/20 64/36/20
f 48/34/21 66/39/21 45/40/21
f 52/41/22 51/33/22 53/37/22
f 49/42/23 50/43/23 62/44/23
f 28/45/24 50/46/24 39/47/24
f 54/48/25 65/49/25 40/50/25
f 46/51/26 62/52/26 27/53/26
f 52/41/27 53/37/27 63/54/27
f 49/42/28 62/44/28 46/55/28
f 28/45/29 39/47/29 58/56/29
f 44/57/30 54/48/30 40/50/30
f 35/58/31 46/51/31 27/53/31
f 40/50/32 36/59/32 60/60/32
f 39/47/33 41/61/33 32/62/33
f 36/63/34 56/64/34 29/65/34
f 43/66/35 33/67/35 56/68/35
f 29/65/36 33/69/36 31/70/36
f 30/71/37 25/72/37 55/73/37
f 66/39/38 48/34/38 51/33/38
f 28/45/39 58/56/39 26/74/39
f 31/70/40 30/71/40 55/73/40
f 65/38/41 48/34/41 42/75/41
f 34/76/42 36/63/42 29/65/42
f 31/70/43 26/77/43 30/71/43
f 66/39/44 51/33/44 52/41/44
f 39/47/45 32/62/45 58/56/45
f 26/77/46 58/78/46 30/71/46
f 66/39/47 52/41/47 49/42/47
f 44/57/48 60/60/48 37/79/48
f 30/71/49 32/80/49 25/72/49
f 66/39/50 49/42/50 45/40/50
f 32/80/51 59/81/51 25/72/51
f 33/69/52 57/82/52 31/70/52
f 62/52/53 50/46/53 28/45/53
f 27/53/54 28/45/54 26/74/54
f 43/66/55 35/58/55 33/67/55
f 65/49/56 42/83/56 47/84/56
f 34/76/57 29/65/57 55/73/57
f 25/72/58 34/76/58 55/73/58
f 64/85/59 54/48/59 44/57/59
f 37/86/60 60/87/60 34/76/60
f 41/61/61 59/88/61 32/62/61
f 63/89/62 53/90/62 41/61/62
f 38/91/63 44/57/63 37/79/63
f 40/50/64 47/84/64 36/59/64
f 61/92/65 46/51/65 35/58/65
f 29/65/66 31/70/66 55/73/66
f 35/58/67 57/93/67 33/67/67
f 65/49/68 47/84/68 40/50/68
f 53/90/69 64/85/69 38/91/69
f 25/72/70 37/86/70 34/76/70
f 64/85/71 44/57/71 38/91/71
f 47/84/72 42/83/72 43/66/72
f 38/91/73 37/79/73 59/88/73
f 63/89/74 41/61/74 39/47/74
f 45/40/75 46/55/75 61/94/75
f 47/84/76 56/68/76 36/59/76
f 59/81/77 37/86/77 25/72/77
f 52/41/78 63/54/78 50/43/78
f 27/53/79 26/74/79 57/93/79
f 60/87/80 36/63/80 34/76/80
f 35/58/81 27/53/81 57/93/81
f 41/61/82 38/91/82 59/88/82
f 61/92/83 35/58/83 43/66/83
f 44/57/84 40/50/84 60/60/84
f 47/84/85 43/66/85 56/68/85
f 62/52/86 28/45/86 27/53/86
f 42/83/87 61/92/87 43/66/87
f 50/46/88 63/89/88 39/47/88
f 56/64/89 33/69/89 29/65/89
f 45/40/90 49/42/90 46/55/90
f 41/61/91 53/90/91 38/91/91
f 58/78/92 32/80/92 30/71/92
f 42/75/93 48/34/93 45/40/93
f 49/42/94 52/41/94 50/43/94
f 57/82/95 26/77/95 31/70/95
f 42/75/96 45/40/96 61/94/96
f 6/11/97 70/10/97 68/1/97 7/4/97
f 4/95/98 71/32/98 67/9/98 5/12/98
f 3/96/99 73/31/99 71/32/99 4/95/99
f 2/97/100 72/29/100 73/30/100 3/98/100
f 1/26/101 74/25/101 72/29/101 2/97/101
f 19/28/102 22/23/102 74/25/102 69/2/102
f 17/16/103 20/5/103 70/10/103 67/9/103
f 18/8/104 19/28/104 69/2/104 68/1/104
