# Blender 4.4.3
# www.blender.org
o SM_Bucket_Planter_V1.0
v -0.510558 0.864276 0.165890
v -0.315542 0.864276 0.434306
v -0.000000 0.864276 0.536832
v 0.315542 0.864276 0.434306
v 0.510558 0.864276 0.165890
v 0.510558 0.864276 -0.165890
v 0.315542 0.864276 -0.434306
v -0.000000 0.864276 -0.536832
v -0.510558 0.864276 -0.165890
v -0.315542 0.864276 -0.434306
v 0.195016 0.864276 0.063364
v -0.195016 0.864276 -0.063364
v -0.375235 1.000000 -0.516466
v -0.293893 0.000000 -0.404509
v -0.607142 1.000000 -0.197272
v -0.475528 0.000000 -0.154509
v -0.607142 1.000000 0.197272
v -0.475528 0.000000 0.154509
v -0.375235 1.000000 0.516466
v -0.293893 0.000000 0.404509
v -0.000000 1.000000 0.638387
v 0.000000 0.000000 0.500000
v 0.375235 1.000000 0.516466
v 0.293893 0.000000 0.404509
v 0.607142 1.000000 0.197272
v 0.475528 0.000000 0.154509
v 0.607142 1.000000 -0.197272
v 0.475528 0.000000 -0.154509
v 0.375235 1.000000 -0.516466
v 0.293893 0.000000 -0.404509
v -0.000000 1.000000 -0.638387
v 0.000000 0.000000 -0.500000
v -0.484075 0.064935 0.157285
v -0.299175 0.064935 0.411778
v -0.000000 0.064935 0.508986
v 0.299175 0.064935 0.411778
v 0.484075 0.064935 0.157285
v 0.484075 0.064935 -0.157285
v 0.299175 0.064935 -0.411778
v -0.000000 0.064935 -0.508986
v -0.484075 0.064935 -0.157285
v -0.299175 0.064935 -0.411778
v -0.239720 0.005985 -0.329946
v -0.387875 0.005985 -0.126028
v -0.387875 0.005985 0.126028
v -0.239720 0.005985 0.329946
v 0.239720 0.005985 0.329946
v 0.387875 0.005985 0.126028
v 0.387875 0.005985 -0.126028
v 0.239720 0.005985 -0.329946
v -0.394846 0.058950 0.128293
v -0.244028 0.058950 0.335876
v 0.244028 0.058950 0.335876
v 0.394846 0.058950 0.128293
v 0.394846 0.058950 -0.128293
v 0.244028 0.058950 -0.335876
v -0.394846 0.058950 -0.128293
v -0.244028 0.058950 -0.335876
v -0.510558 1.000000 0.165890
v -0.315542 1.000000 0.434306
v -0.000000 1.000000 0.536832
v 0.315542 1.000000 0.434306
v 0.510558 1.000000 0.165890
v 0.510558 1.000000 -0.165890
v 0.315542 1.000000 -0.434306
v -0.000000 1.000000 -0.536832
v -0.510558 1.000000 -0.165890
v -0.315542 1.000000 -0.434306
v -0.510558 0.864276 0.165890
v -0.315542 0.864276 0.434306
v -0.000000 0.864276 0.536832
v 0.315542 0.864276 0.434306
v 0.510558 0.864276 0.165890
v 0.510558 0.864276 -0.165890
v 0.315542 0.864276 -0.434306
v -0.000000 0.864276 -0.536832
v -0.510558 0.864276 -0.165890
v -0.315542 0.864276 -0.434306
vn -0.0000 1.0000 -0.0000
vn 0.3064 -0.1305 0.9429
vn 0.8021 -0.1305 0.5828
vn 0.9914 -0.1305 -0.0000
vn 0.8021 -0.1305 -0.5828
vn 0.3064 -0.1305 -0.9429
vn -0.3064 -0.1305 0.9429
vn -0.8021 -0.1305 0.5828
vn -0.9914 -0.1305 -0.0000
vn -0.8021 -0.1305 -0.5828
vn -0.3064 -0.1305 -0.9429
vn -0.3090 -0.0000 -0.9511
vn 0.8090 -0.0000 0.5878
vn -0.3090 -0.0000 0.9511
vn 0.8090 -0.0000 -0.5878
vn -0.8090 -0.0000 0.5878
vn 0.3090 -0.0000 -0.9511
vn -0.8090 -0.0000 -0.5878
vn 0.3090 -0.0000 0.9511
vn 1.0000 -0.0000 -0.0000
vn -1.0000 -0.0000 -0.0000
vt 0.609379 0.546509
vt 0.749123 0.501104
vt 0.749123 0.648039
vt 0.523013 0.665382
vt 0.888866 0.546509
vt 0.975232 0.665382
vt 0.749123 0.829661
vt 0.523013 0.812317
vt 0.975232 0.812317
vt 0.749123 0.976596
vt 0.609379 0.931190
vt 0.888866 0.931190
vt 0.346477 0.367860
vt 0.439270 0.507071
vt 0.314101 0.539759
vt 0.325631 0.376266
vt 0.362397 0.348922
vt 0.519286 0.406151
vt 0.360302 0.324743
vt 0.521852 0.282070
vt 0.344577 0.306474
vt 0.449724 0.180652
vt 0.321611 0.300526
vt 0.332756 0.136473
vt 0.197827 0.494888
vt 0.303295 0.370295
vt 0.126674 0.393819
vt 0.288952 0.351069
vt 0.129040 0.270536
vt 0.286634 0.327124
vt 0.207835 0.169976
vt 0.300025 0.308498
vt 0.474755 0.149543
vt 0.561627 0.270503
vt 0.937058 0.076890
vt 0.978588 0.073362
vt 0.987060 0.273188
vt 0.945381 0.273188
vt 0.835015 0.274030
vt 0.876657 0.272265
vt 0.883398 0.330598
vt 0.849432 0.332038
vt 0.835015 0.074025
vt 0.876657 0.075791
vt 0.978588 0.473013
vt 0.937058 0.469485
vt 0.961727 0.530358
vt 0.927852 0.527481
vt 0.849432 0.016017
vt 0.883398 0.017457
vt 0.927852 0.018895
vt 0.961727 0.016017
vt 0.519133 0.094735
vt 0.631736 0.250109
vt 0.559933 0.420491
vt 0.334874 0.101967
vt 0.466247 0.547680
vt 0.311738 0.574200
vt 0.172773 0.525685
vt 0.180808 0.129651
vt 0.087179 0.405217
vt 0.088655 0.256440
vt 0.506862 0.610486
vt 0.305355 0.645029
vt 0.139967 0.067410
vt 0.340689 0.030976
vt 0.631461 0.445412
vt 0.128332 0.579850
vt 0.017684 0.425276
vt 0.017684 0.232000
s 0
f 4/1/1 5/2/1 11/3/1 3/4/1
f 5/2/1 6/5/1 7/6/1 11/3/1
f 3/4/1 11/3/1 12/7/1 2/8/1
f 11/3/1 7/6/1 8/9/1 12/7/1
f 2/8/1 12/7/1 9/10/1 1/11/1
f 12/7/1 8/9/1 10/12/1 9/10/1
f 36/13/2 23/14/2 21/15/2 35/16/2
f 37/17/3 25/18/3 23/14/3 36/13/3
f 38/19/4 27/20/4 25/18/4 37/17/4
f 39/21/5 29/22/5 27/20/5 38/19/5
f 40/23/6 31/24/6 29/22/6 39/21/6
f 35/16/7 21/15/7 19/25/7 34/26/7
f 34/26/8 19/25/8 17/27/8 33/28/8
f 33/28/9 17/27/9 15/29/9 41/30/9
f 41/30/10 15/29/10 13/31/10 42/32/10
f 42/32/11 13/31/11 31/24/11 40/23/11
f 27/20/1 29/22/1 65/33/1 64/34/1
f 14/35/11 42/36/11 40/37/11 32/38/11
f 38/39/12 28/40/12 49/41/12 55/42/12
f 18/43/9 33/44/9 41/40/9 16/39/9
f 22/38/7 35/37/7 34/45/7 20/46/7
f 32/38/6 40/37/6 39/45/6 30/46/6
f 30/46/13 39/45/13 56/47/13 50/48/13
f 28/40/4 38/39/4 37/43/4 26/44/4
f 24/35/2 36/36/2 35/37/2 22/38/2
f 26/44/14 37/43/14 54/49/14 48/50/14
f 36/36/15 24/35/15 47/51/15 53/52/15
f 42/36/16 14/35/16 43/51/16 58/52/16
f 16/39/17 41/40/17 57/41/17 44/42/17
f 20/46/18 34/45/18 52/47/18 46/48/18
f 33/44/19 18/43/19 45/49/19 51/50/19
f 64/34/16 65/33/16 75/53/16 74/54/16
f 25/18/1 27/20/1 64/34/1 63/55/1
f 29/22/1 31/24/1 66/56/1 65/33/1
f 23/14/1 25/18/1 63/55/1 62/57/1
f 21/15/1 23/14/1 62/57/1 61/58/1
f 19/25/1 21/15/1 61/58/1 60/59/1
f 31/24/1 13/31/1 68/60/1 66/56/1
f 17/27/1 19/25/1 60/59/1 59/61/1
f 13/31/1 15/29/1 67/62/1 68/60/1
f 15/29/1 17/27/1 59/61/1 67/62/1
f 61/58/12 62/57/12 72/63/12 71/64/12
f 66/56/19 68/60/19 78/65/19 76/66/19
f 65/33/14 66/56/14 76/66/14 75/53/14
f 62/57/18 63/55/18 73/67/18 72/63/18
f 59/61/15 60/59/15 70/68/15 69/69/15
f 67/62/20 59/61/20 69/69/20 77/70/20
f 63/55/21 64/34/21 74/54/21 73/67/21
f 60/59/17 61/58/17 71/64/17 70/68/17
f 68/60/13 67/62/13 77/70/13 78/65/13
