# Blender 4.4.3
# www.blender.org
o SM_Ground_Planter_V1.0
v 0.588000 -0.250000 0.588000
v 0.588000 -0.250000 -0.588000
v -0.588000 -0.250000 -0.588000
v -0.588000 -0.250000 0.588000
v -0.588000 0.050000 -0.588000
v 0.588000 0.050000 -0.588000
v -0.588000 0.050000 0.588000
v 0.588000 0.050000 0.588000
v 0.420000 0.050000 0.420000
v 0.420000 0.050000 -0.420000
v -0.420000 0.050000 -0.420000
v -0.420000 0.050000 0.420000
v -0.420000 0.100000 -0.420000
v 0.420000 0.100000 -0.420000
v -0.420000 0.100000 0.420000
v 0.420000 0.100000 0.420000
v 0.770000 0.117500 -0.770000
v 0.770000 -0.267500 -0.770000
v 0.770000 0.117500 0.770000
v 0.770000 -0.267500 0.770000
v -0.770000 0.117500 -0.770000
v -0.770000 -0.267500 -0.770000
v -0.770000 0.117500 0.770000
v -0.770000 -0.267500 0.770000
vn -0.0000 -0.0000 1.0000
vn -0.0000 -0.0000 -1.0000
vn 1.0000 -0.0000 -0.0000
vn -1.0000 -0.0000 -0.0000
vn -0.0499 0.9988 -0.0000
vn 0.0499 0.9988 -0.0000
vn -0.0000 0.9988 -0.0499
vn -0.0000 0.9988 0.0499
vn -0.0000 1.0000 -0.0000
vt 0.091161 0.995430
vt 0.007758 0.995430
vt 0.007758 0.907584
vt 0.091161 0.907584
vt 0.091571 0.995430
vt 0.007975 0.995430
vt 0.007975 0.907584
vt 0.091571 0.907584
vt 0.008385 0.995430
vt 0.008385 0.907584
vt 0.462452 0.913059
vt 0.413903 0.913059
vt 0.416793 0.906030
vt 0.459562 0.906030
vt 0.413903 0.912582
vt 0.462452 0.912582
vt 0.459562 0.905554
vt 0.416793 0.905554
vt 0.397291 0.953028
vt 0.479064 0.953028
vt 0.479064 0.953504
vt 0.397291 0.953504
vt 0.102140 0.905105
vt 0.121264 0.969628
vt 0.172550 0.969347
vt 0.191674 0.904825
vt 0.191674 0.905105
vt 0.172550 0.969628
vt 0.102140 0.904825
vt 0.121264 0.969347
vt 0.008255 0.718029
vt 0.089690 0.718029
vt 0.089690 0.799464
vt 0.008255 0.799464
s 0
f 6/1/1 5/2/1 3/3/1 2/4/1
f 7/5/2 8/6/2 1/7/2 4/8/2
f 5/9/3 7/5/3 4/8/3 3/10/3
f 8/6/4 6/1/4 2/4/4 1/7/4
f 13/11/3 15/12/3 12/13/3 11/14/3
f 16/15/4 14/16/4 10/17/4 9/18/4
f 14/16/1 13/11/1 11/14/1 10/17/1
f 19/19/5 17/20/5 14/16/5 16/15/5
f 21/21/6 23/22/6 15/12/6 13/11/6
f 23/22/7 19/19/7 16/15/7 15/12/7
f 17/20/8 21/21/8 13/11/8 14/16/8
f 15/12/2 16/15/2 9/18/2 12/13/2
f 20/23/1 19/24/1 23/25/1 24/26/1
f 18/27/3 17/28/3 19/24/3 20/23/3
f 22/29/2 21/30/2 17/28/2 18/27/2
f 24/26/4 23/25/4 21/30/4 22/29/4
f 1/31/9 2/32/9 3/33/9 4/34/9
