# Blender 4.4.3
# www.blender.org
o SM_JustPost_RoadSign_V1.0
v -0.080000 -0.000000 0.025000
v -0.080000 3.000000 0.025000
v -0.080000 -0.000000 -0.025000
v -0.080000 3.000000 -0.025000
v 0.080000 -0.000000 0.025000
v 0.080000 3.000000 0.025000
v 0.080000 -0.000000 -0.025000
v 0.080000 3.000000 -0.025000
vn -1.0000 -0.0000 -0.0000
vn -0.0000 -0.0000 -1.0000
vn 1.0000 -0.0000 -0.0000
vn -0.0000 -0.0000 1.0000
vn -0.0000 1.0000 -0.0000
vt 0.087320 0.907434
vt 0.087320 0.967771
vt 0.069030 0.967771
vt 0.069030 0.907434
vt 0.050739 0.967771
vt 0.050739 0.907434
vt 0.032448 0.967771
vt 0.032448 0.907434
vt 0.014157 0.967771
vt 0.014157 0.907434
s 0
f 1/1/1 2/2/1 4/3/1 3/4/1
f 3/4/2 4/3/2 8/5/2 7/6/2
f 7/6/3 8/5/3 6/7/3 5/8/3
f 5/8/4 6/7/4 2/9/4 1/10/4
f 2/9/5 6/7/5 8/5/5 4/3/5
