# Blender 4.4.3
# www.blender.org
o SM_OneWaySign_RoadSign_V1.0
v -0.473689 -0.631395 0.065555
v -0.473689 0.603955 0.065555
v -0.473689 -0.631395 0.026342
v -0.473689 0.603955 0.026342
v 0.473689 -0.631395 0.065555
v 0.473689 0.603955 0.065555
v 0.473689 -0.631395 0.026342
v 0.473689 0.603955 0.026342
v -0.432580 -0.593278 0.065555
v -0.432580 0.565838 0.065555
v 0.432580 0.565838 0.065555
v 0.432580 -0.593278 0.065555
vn -1.0000 -0.0000 -0.0000
vn -0.0000 -0.0000 -1.0000
vn 1.0000 -0.0000 -0.0000
vn -0.0000 -0.0000 1.0000
vn -0.0000 -1.0000 -0.0000
vn -0.0000 1.0000 -0.0000
vt 0.507436 0.408371
vt 0.507436 0.320702
vt 0.510117 0.323597
vt 0.510117 0.405476
vt 0.568049 0.323597
vt 0.568049 0.405476
vt 0.570730 0.320702
vt 0.570730 0.408371
vt 0.567831 0.320702
vt 0.504537 0.320702
vt 0.584069 0.075667
vt 0.584069 0.317145
vt 0.390802 0.317145
vt 0.390802 0.075667
vt 0.567831 0.408371
vt 0.504537 0.408371
s 0
f 1/1/1 2/2/1 4/3/1 3/4/1
f 3/4/2 4/3/2 8/5/2 7/6/2
f 7/6/3 8/5/3 6/7/3 5/8/3
f 6/9/4 2/10/4 10/10/4 11/9/4
f 3/4/5 7/6/5 5/8/5 1/1/5
f 8/5/6 4/3/6 2/2/6 6/7/6
f 12/11/4 11/12/4 10/13/4 9/14/4
f 5/15/4 6/9/4 11/9/4 12/15/4
f 2/10/4 1/16/4 9/16/4 10/10/4
f 1/16/4 5/15/4 12/15/4 9/16/4
