# Blender 4.4.3
# www.blender.org
o SM_Stop_RoadSign_V1.0
v -0.080000 -0.000000 0.025000
v -0.080000 3.000000 0.025000
v -0.080000 -0.000000 -0.025000
v -0.080000 3.000000 -0.025000
v 0.080000 -0.000000 0.025000
v 0.080000 3.000000 0.025000
v 0.080000 -0.000000 -0.025000
v 0.080000 3.000000 -0.025000
v -0.000000 2.884540 0.023683
v -0.217006 3.408439 0.023683
v -0.217006 3.408439 0.071890
v 0.217006 3.408439 0.023683
v 0.217006 3.408439 0.071890
v 0.523899 3.101546 0.023683
v 0.523899 3.101546 0.071890
v 0.523899 2.667534 0.023683
v 0.523899 2.667534 0.071890
v 0.217006 2.360640 0.023683
v 0.217006 2.360641 0.071890
v -0.217006 2.360640 0.023683
v -0.217006 2.360640 0.071890
v -0.523899 2.667534 0.023683
v -0.523899 2.667534 0.071890
v -0.523899 3.101546 0.023683
v -0.523899 3.101546 0.071890
v -0.190175 3.343662 0.071890
v -0.000000 2.884540 0.071890
v 0.190175 3.343661 0.071890
v 0.459122 3.074714 0.071890
v 0.459122 2.694366 0.071890
v 0.190175 2.425418 0.071890
v -0.190174 2.425418 0.071890
v -0.459122 2.694366 0.071890
v -0.459122 3.074714 0.071890
vn -1.0000 -0.0000 -0.0000
vn -0.0000 -0.0000 -1.0000
vn 1.0000 -0.0000 -0.0000
vn -0.0000 -0.0000 1.0000
vn -0.0000 1.0000 -0.0000
vn 0.7071 0.7071 -0.0000
vn 0.7071 -0.7071 -0.0000
vn -0.0000 -1.0000 -0.0000
vn -0.7071 -0.7071 -0.0000
vn -0.7071 0.7071 -0.0000
vt 0.081483 0.904223
vt 0.081483 0.964560
vt 0.063192 0.964560
vt 0.063192 0.904223
vt 0.044901 0.964560
vt 0.044901 0.904223
vt 0.026610 0.964560
vt 0.026610 0.904223
vt 0.008320 0.964560
vt 0.008320 0.904223
vt 0.635204 0.366841
vt 0.653795 0.411723
vt 0.616614 0.411723
vt 0.589382 0.346693
vt 0.616121 0.319955
vt 0.618459 0.325599
vt 0.595026 0.349031
vt 0.590322 0.385431
vt 0.680674 0.384507
vt 0.653935 0.411246
vt 0.651597 0.405602
vt 0.675030 0.382170
vt 0.651597 0.325599
vt 0.653935 0.319955
vt 0.590322 0.348250
vt 0.675030 0.349031
vt 0.680674 0.346693
vt 0.616614 0.321958
vt 0.616121 0.411246
vt 0.589382 0.384507
vt 0.595026 0.382170
vt 0.618459 0.405602
vt 0.653795 0.321958
vt 0.680087 0.348250
vt 0.680087 0.385431
vt 0.095810 0.322270
vt 0.133361 0.412926
vt 0.058259 0.412926
vt 0.186466 0.359821
vt 0.186466 0.284719
vt 0.133361 0.231613
vt 0.058259 0.231613
vt 0.005153 0.284719
vt 0.005153 0.359821
s 0
f 1/1/1 2/2/1 4/3/1 3/4/1
f 3/4/2 4/3/2 8/5/2 7/6/2
f 7/6/3 8/5/3 6/7/3 5/8/3
f 5/8/4 6/7/4 2/9/4 1/10/4
f 9/11/2 10/12/2 12/13/2
f 23/14/4 21/15/4 32/16/4 33/17/4
f 10/14/5 11/17/5 13/16/5 12/15/5
f 9/11/2 12/13/2 14/18/2
f 15/19/4 13/20/4 28/21/4 29/22/4
f 12/15/6 13/16/6 15/23/6 14/24/6
f 9/11/2 14/18/2 16/25/2
f 21/15/4 19/24/4 31/23/4 32/16/4
f 14/24/3 15/23/3 17/26/3 16/27/3
f 9/11/2 16/25/2 18/28/2
f 11/29/4 25/30/4 34/31/4 26/32/4
f 16/27/7 17/26/7 19/22/7 18/19/7
f 9/11/2 18/28/2 20/33/2
f 19/24/4 17/27/4 30/26/4 31/23/4
f 18/19/8 19/22/8 21/21/8 20/20/8
f 9/11/2 20/33/2 22/34/2
f 25/30/4 23/14/4 33/17/4 34/31/4
f 20/20/9 21/21/9 23/32/9 22/29/9
f 9/11/2 22/34/2 24/35/2
f 17/27/4 15/19/4 29/22/4 30/26/4
f 22/29/1 23/32/1 25/31/1 24/30/1
f 9/11/2 24/35/2 10/12/2
f 13/20/4 11/29/4 26/32/4 28/21/4
f 24/30/10 25/31/10 11/17/10 10/14/10
f 27/36/4 28/37/4 26/38/4
f 27/36/4 29/39/4 28/37/4
f 27/36/4 30/40/4 29/39/4
f 27/36/4 31/41/4 30/40/4
f 27/36/4 32/42/4 31/41/4
f 27/36/4 33/43/4 32/42/4
f 27/36/4 34/44/4 33/43/4
f 27/36/4 26/38/4 34/44/4
f 2/9/5 6/7/5 8/5/5 4/3/5
