# Blender 4.4.3
# www.blender.org
o SM_Yield_RoadSign_V1.0
v -0.080000 -0.000000 0.025000
v -0.080000 3.000000 0.025000
v -0.080000 -0.000000 -0.025000
v -0.080000 3.000000 -0.025000
v 0.080000 -0.000000 0.025000
v 0.080000 3.000000 0.025000
v 0.080000 -0.000000 -0.025000
v 0.080000 3.000000 -0.025000
v 0.517728 3.305982 0.054878
v -0.000578 2.408250 0.054878
v -0.516359 3.280486 0.054878
v 0.494385 3.316543 0.054878
v -0.021396 2.423185 0.054878
v 0.020239 2.423185 0.054878
v -0.023821 2.355189 0.054878
v 0.022665 2.355189 0.054878
v -0.000578 2.338514 0.054878
v 0.022665 2.355189 0.025021
v -0.023821 2.355189 0.025021
v -0.000578 2.338514 0.025021
v 0.575302 3.312383 0.054878
v 0.552058 3.352642 0.054878
v 0.578121 3.340850 0.054878
v 0.552058 3.352642 0.025021
v 0.575302 3.312383 0.025021
v 0.578121 3.340850 0.025021
v -0.553215 3.352642 0.054878
v -0.576458 3.312383 0.054878
v -0.579278 3.340850 0.054878
v -0.576458 3.312383 0.025021
v -0.553215 3.352642 0.025021
v -0.579278 3.340850 0.025021
v 0.515202 3.280486 0.054878
v -0.518884 3.305982 0.054878
v -0.495541 3.316543 0.054878
vn -1.0000 -0.0000 -0.0000
vn -0.0000 -0.0000 -1.0000
vn 1.0000 -0.0000 -0.0000
vn -0.0000 -0.0000 1.0000
vn -0.0000 1.0000 -0.0000
vn -0.8660 -0.5000 -0.0000
vn 0.8660 -0.5000 -0.0000
vn -0.5829 -0.8125 -0.0000
vn 0.5829 -0.8125 -0.0000
vn 0.4122 0.9111 -0.0000
vn 0.9951 -0.0986 -0.0000
vn -0.9951 -0.0986 -0.0000
vn -0.4122 0.9111 -0.0000
vt 0.081483 0.904223
vt 0.081483 0.964560
vt 0.063192 0.964560
vt 0.063192 0.904223
vt 0.044901 0.964560
vt 0.044901 0.904223
vt 0.026610 0.964560
vt 0.026610 0.904223
vt 0.008320 0.964560
vt 0.008320 0.904223
vt 0.682268 0.401020
vt 0.681769 0.400271
vt 0.636479 0.321473
vt 0.636016 0.320861
vt 0.680993 0.401297
vt 0.590616 0.402590
vt 0.589598 0.402627
vt 0.682020 0.401340
vt 0.682147 0.400842
vt 0.635783 0.321009
vt 0.635453 0.321778
vt 0.589853 0.401561
vt 0.589362 0.402307
vt 0.635963 0.321494
vt 0.635912 0.321063
vt 0.589446 0.402398
vt 0.589470 0.402151
vt 0.682175 0.401104
vt 0.592555 0.404112
vt 0.589840 0.402251
vt 0.258063 0.476034
vt 0.250000 0.481819
vt 0.241937 0.476034
vt 0.681810 0.401013
vt 0.679122 0.402929
vt 0.589511 0.398959
vt 0.632896 0.322834
vt 0.635845 0.321374
vt 0.638800 0.322702
vt 0.682118 0.397730
vt 0.004976 0.190110
vt 0.000723 0.188186
vt 0.001183 0.183540
vt 0.091370 0.027332
vt 0.185349 0.190110
vt 0.095163 0.024611
vt 0.098956 0.027332
vt 0.189143 0.183540
vt 0.189603 0.188186
s 0
f 1/1/1 2/2/1 4/3/1 3/4/1
f 3/4/2 4/3/2 8/5/2 7/6/2
f 7/6/3 8/5/3 6/7/3 5/8/3
f 5/8/4 6/7/4 2/9/4 1/10/4
f 2/9/5 6/7/5 8/5/5 4/3/5
f 28/11/6 30/12/6 19/13/6 15/14/6
f 31/15/2 24/16/2 19/13/2
f 22/17/5 24/16/5 31/15/5 27/18/5
f 30/12/2 32/19/2 31/15/2
f 16/20/7 18/21/7 25/22/7 21/23/7
f 15/14/8 19/13/8 20/24/8 17/25/8
f 17/25/9 20/24/9 18/21/9 16/20/9
f 24/16/10 22/17/10 23/26/10 26/27/10
f 26/27/11 23/26/11 21/23/11 25/22/11
f 30/12/12 28/11/12 29/28/12 32/19/12
f 32/19/13 29/28/13 27/18/13 31/15/13
f 23/26/4 22/17/4 12/29/4 9/30/4
f 24/16/2 26/27/2 25/22/2
f 19/13/2 24/16/2 18/21/2
f 25/22/2 18/21/2 24/16/2
f 18/31/2 20/32/2 19/33/2
f 19/13/2 30/12/2 31/15/2
f 27/18/4 29/28/4 34/34/4 35/35/4
f 21/23/4 23/26/4 9/30/4 33/36/4
f 16/20/4 21/23/4 33/36/4 14/37/4
f 17/25/4 16/20/4 14/37/4 10/38/4
f 28/11/4 15/14/4 13/39/4 11/40/4
f 15/14/4 17/25/4 10/38/4 13/39/4
f 35/41/4 34/42/4 11/43/4
f 11/43/4 13/44/4 12/45/4
f 13/44/4 10/46/4 14/47/4
f 12/45/4 13/44/4 33/48/4
f 14/47/4 33/48/4 13/44/4
f 33/48/4 9/49/4 12/45/4
f 12/45/4 35/41/4 11/43/4
f 29/28/4 28/11/4 11/40/4 34/34/4
f 22/17/4 27/18/4 35/35/4 12/29/4
