# Blender 4.4.3
# www.blender.org
o SM_GreenTruck_Car_V1.0
v 2.000000 0.500000 5.475476
v 2.000000 1.844266 5.475476
v 2.000000 0.500000 -5.950000
v 2.000000 0.500000 3.120712
v 2.000000 1.991308 3.120712
v 2.000000 0.500000 2.588636
v 2.000000 3.422171 2.588636
v 2.000000 1.991308 4.298094
v 0.804042 0.500000 3.709403
v 2.000000 0.500000 3.709403
v 2.000000 0.500000 4.886786
v 2.000000 1.245654 4.298094
v 0.804042 0.500000 4.886786
v 0.804042 1.245654 4.298094
v 2.000000 0.500000 -1.680682
v 2.000000 4.684503 -1.680682
v 2.000000 4.684503 -3.815341
v 2.000000 0.500000 -3.815341
v 2.000000 4.684503 -2.748011
v 2.000000 4.684503 -4.882670
v 2.000000 1.309622 -2.748011
v 2.000000 1.309622 -3.815341
v 2.000000 1.309622 -4.882670
v 2.000000 1.309622 -1.680682
v 2.000000 1.309622 -5.950000
v 2.000000 0.500000 -3.441775
v 2.000000 0.500000 -2.054247
v 2.000000 0.500000 -5.576435
v 2.000000 0.500000 -4.188906
v 0.847766 1.309622 -2.748011
v 0.847766 1.309622 -4.882670
v 0.847766 0.500000 -3.441775
v 0.847766 0.500000 -2.054247
v 0.847766 0.500000 -5.576435
v 0.847766 0.500000 -4.188906
v 1.303004 0.315314 -3.283048
v 1.817558 0.315314 -3.283048
v 1.303004 0.002179 -2.969025
v 1.817558 0.002180 -2.969025
v 1.303004 0.002808 -2.525557
v 1.817558 0.002808 -2.525557
v 1.303004 0.316832 -2.212422
v 1.817558 0.316832 -2.212422
v 1.303004 0.760300 -2.213051
v 1.817558 0.760300 -2.213051
v 1.303004 1.073435 -2.527074
v 1.817558 1.073435 -2.527074
v 1.303004 1.072806 -2.970542
v 1.817558 1.072806 -2.970542
v 1.303004 0.758782 -3.283677
v 1.817558 0.758782 -3.283677
v 1.817558 0.109305 -2.924829
v 1.817558 0.359813 -3.176049
v 1.817558 0.109808 -2.570055
v 1.817558 0.361027 -2.319548
v 1.817558 0.715801 -2.320050
v 1.817558 0.966309 -2.571270
v 1.817558 0.714587 -3.176551
v 1.817558 0.965806 -2.926044
v 1.303004 0.315314 -5.418780
v 1.817558 0.315314 -5.418780
v 1.303004 0.002179 -5.104757
v 1.817558 0.002180 -5.104757
v 1.303004 0.002808 -4.661289
v 1.817558 0.002808 -4.661289
v 1.303004 0.316832 -4.348154
v 1.817558 0.316832 -4.348154
v 1.303004 0.760300 -4.348783
v 1.817558 0.760300 -4.348783
v 1.303004 1.073435 -4.662806
v 1.817558 1.073435 -4.662806
v 1.303004 1.072806 -5.106274
v 1.817558 1.072806 -5.106274
v 1.303004 0.758782 -5.419409
v 1.817558 0.758782 -5.419409
v 1.817558 0.109305 -5.060561
v 1.817558 0.359813 -5.311781
v 1.817558 0.109808 -4.705787
v 1.817558 0.361027 -4.455280
v 1.817558 0.715801 -4.455782
v 1.817558 0.966309 -4.707002
v 1.817558 0.714587 -5.312283
v 1.817558 0.965806 -5.061776
v 2.000000 3.422171 0.839310
v 2.000000 0.500000 0.839311
v 2.000000 2.212865 0.839311
v 2.000000 2.212865 2.886067
v 1.736443 2.131178 3.081432
v 1.736443 3.282301 2.633750
v 2.000000 3.250155 0.959353
v 2.000000 3.250155 2.468594
v 2.000000 2.333903 1.216490
v 2.000000 2.333903 2.766024
v 0.000000 2.131178 3.081432
v 0.000000 3.282301 2.633750
v 0.000000 0.500000 5.475476
v 0.000000 1.991308 3.120712
v 0.000000 3.422171 2.588636
v 0.000000 0.500000 -5.950000
v 0.000000 1.844266 5.475476
v -2.000000 0.500000 5.475476
v -2.000000 1.844266 5.475476
v -2.000000 0.500000 -5.950000
v -2.000000 4.684503 -5.950000
v -2.000000 0.500000 3.120712
v -2.000000 1.991308 3.120712
v -2.000000 0.500000 2.588636
v -2.000000 3.422171 2.588636
v -2.000000 1.991308 4.298094
v -0.804042 0.500000 3.709403
v -2.000000 0.500000 3.709403
v -2.000000 0.500000 4.886786
v -2.000000 1.245654 4.298094
v -0.804042 0.500000 4.886786
v -0.804042 1.245654 4.298094
v -2.000000 0.500000 -1.680682
v -2.000000 4.684503 -1.680682
v -2.000000 4.684503 -3.815341
v -2.000000 0.500000 -3.815341
v -2.000000 4.684503 -2.748011
v -2.000000 4.684503 -4.882670
v -2.000000 1.309622 -2.748011
v -2.000000 1.309622 -3.815341
v -2.000000 1.309622 -4.882670
v -2.000000 1.309622 -1.680682
v -2.000000 0.500000 -3.441775
v -2.000000 0.500000 -2.054247
v -2.000000 0.500000 -5.576435
v -2.000000 0.500000 -4.188906
v -0.847766 1.309622 -2.748011
v -0.847766 1.309622 -4.882670
v -0.847766 0.500000 -3.441775
v -0.847766 0.500000 -2.054247
v -0.847766 0.500000 -5.576435
v -0.847766 0.500000 -4.188906
v -1.303004 0.315314 3.760015
v -1.817558 0.315314 3.760015
v -1.303004 0.002179 4.074039
v -1.817558 0.002180 4.074039
v -1.303004 0.002808 4.517507
v -1.817558 0.002808 4.517507
v -1.303004 0.316832 4.830642
v -1.817558 0.316832 4.830642
v -1.303004 0.760300 4.830013
v -1.817558 0.760300 4.830013
v -1.303004 1.073435 4.515990
v -1.817558 1.073435 4.515990
v -1.303004 1.072806 4.072522
v -1.817558 1.072806 4.072522
v -1.303004 0.758782 3.759387
v -1.817558 0.758782 3.759387
v -1.817558 0.109305 4.118235
v -1.817558 0.359813 3.867015
v -1.817558 0.109808 4.473009
v -1.817558 0.361027 4.723516
v -1.817558 0.715801 4.723013
v -1.817558 0.966309 4.471794
v -1.817558 0.714587 3.866513
v -1.817558 0.965806 4.117020
v -1.303004 0.315314 -3.283048
v -1.817558 0.315314 -3.283048
v -1.303004 0.002179 -2.969025
v -1.817558 0.002180 -2.969025
v -1.303004 0.002808 -2.525557
v -1.817558 0.002808 -2.525557
v -1.303004 0.316832 -2.212422
v -1.817558 0.316832 -2.212422
v -1.303004 0.760300 -2.213051
v -1.817558 0.760300 -2.213051
v -1.303004 1.073435 -2.527074
v -1.817558 1.073435 -2.527074
v -1.303004 1.072806 -2.970542
v -1.817558 1.072806 -2.970542
v -1.303004 0.758782 -3.283677
v -1.817558 0.758782 -3.283677
v -1.817558 0.109305 -2.924829
v -1.817558 0.359813 -3.176049
v -1.817558 0.109808 -2.570055
v -1.817558 0.361027 -2.319548
v -1.817558 0.715801 -2.320050
v -1.817558 0.966309 -2.571270
v -1.817558 0.714587 -3.176551
v -1.817558 0.965806 -2.926044
v -1.303004 0.315314 -5.418780
v -1.817558 0.315314 -5.418780
v -1.303004 0.002179 -5.104757
v -1.817558 0.002180 -5.104757
v -1.303004 0.002808 -4.661289
v -1.817558 0.002808 -4.661289
v -1.303004 0.316832 -4.348154
v -1.817558 0.316832 -4.348154
v -1.303004 0.760300 -4.348783
v -1.817558 0.760300 -4.348783
v -1.303004 1.073435 -4.662806
v -1.817558 1.073435 -4.662806
v -1.303004 1.072806 -5.106274
v -1.817558 1.072806 -5.106274
v -1.303004 0.758782 -5.419409
v -1.817558 0.758782 -5.419409
v -1.817558 0.109305 -5.060561
v -1.817558 0.359813 -5.311781
v -1.817558 0.109808 -4.705787
v -1.817558 0.361027 -4.455280
v -1.817558 0.715801 -4.455782
v -1.817558 0.966309 -4.707002
v -1.817558 0.714587 -5.312283
v -1.817558 0.965806 -5.061776
v -2.000000 3.422171 0.839310
v -2.000000 0.500000 0.839311
v -2.000000 2.212865 0.839311
v -2.000000 2.212865 2.886067
v -1.736443 2.131178 3.081432
v -1.736443 3.282301 2.633750
v -2.000000 3.250155 0.959353
v -2.000000 3.250155 2.468594
v -2.000000 2.333903 1.216490
v -2.000000 2.333903 2.766024
v 2.000000 1.245654 5.475476
v -2.000000 1.245654 5.475476
v 0.000000 1.245654 5.475476
v 1.837315 1.215327 5.675476
v 1.837315 0.530327 5.675476
v 0.000000 0.530327 5.675476
v -1.837315 1.215327 5.675476
v -1.837315 0.530327 5.675476
v 0.000000 1.215327 5.675476
v 1.000000 1.245654 5.475476
v -1.000000 1.844266 5.475476
v 1.000000 1.844266 5.475476
v -1.000000 1.245654 5.475476
v 0.000000 3.422171 0.839310
v 2.000000 0.904811 -5.950000
v 0.000000 0.904811 -5.950000
v -2.000000 0.904811 -5.950000
v 1.000000 0.904811 -5.950000
v -1.000000 0.904811 -5.950000
v 1.000000 1.309622 -5.950000
v 1.715510 0.904811 -6.250000
v 1.715510 0.500000 -6.250000
v 0.000000 0.500000 -6.250000
v -1.715510 0.904811 -6.250000
v -1.715510 0.500000 -6.250000
v 0.000000 0.904811 -6.250000
v -0.857755 0.904811 -6.250000
v 0.857755 0.904811 -6.250000
v 2.000000 4.684503 -5.950000
v 0.000000 4.684503 -5.950000
v 0.000000 1.309622 -5.950000
v -2.000000 1.309622 -5.950000
v -1.000000 1.309622 -5.950000
v 1.764633 4.436273 -5.950000
v 0.882317 1.458560 -5.950000
v 1.764633 1.458560 -5.950000
v 2.000000 4.684503 0.839310
v 0.000000 4.684503 -1.680682
v 0.000000 4.684503 0.839310
v -2.000000 4.684503 0.839310
v 0.000000 4.436273 -5.950000
v -0.882317 1.458560 -5.950000
v -1.764633 1.458560 -5.950000
v 0.000000 1.458560 -5.950000
v -1.764633 4.436273 -5.950000
v 1.303004 0.315314 3.760015
v 1.817558 0.315314 3.760015
v 1.303004 0.002179 4.074039
v 1.817558 0.002180 4.074039
v 1.303004 0.002808 4.517507
v 1.817558 0.002808 4.517507
v 1.303004 0.316832 4.830642
v 1.817558 0.316832 4.830642
v 1.303004 0.760300 4.830013
v 1.817558 0.760300 4.830013
v 1.303004 1.073435 4.515990
v 1.817558 1.073435 4.515990
v 1.303004 1.072806 4.072522
v 1.817558 1.072806 4.072522
v 1.303004 0.758782 3.759387
v 1.817558 0.758782 3.759387
v 1.817558 0.109305 4.118235
v 1.817558 0.359813 3.867015
v 1.817558 0.109808 4.473009
v 1.817558 0.361027 4.723516
v 1.817558 0.715801 4.723013
v 1.817558 0.966309 4.471794
v 1.817558 0.714587 3.866513
v 1.817558 0.965806 4.117020
vn -0.0000 0.3625 0.9320
vn 1.0000 -0.0000 -0.0000
vn -0.0000 -0.6197 -0.7849
vn -0.0000 -0.6197 0.7849
vn -0.0000 -0.6507 -0.7593
vn -0.0000 -0.6507 0.7593
vn -0.0000 -0.7081 -0.7061
vn -0.0000 -1.0000 0.0014
vn -0.0000 -0.7061 0.7081
vn -0.0000 0.0014 1.0000
vn -0.0000 0.7081 0.7061
vn -0.0000 1.0000 -0.0014
vn -0.0000 0.7061 -0.7081
vn -0.0000 -0.0014 -1.0000
vn -0.0000 0.2704 0.9628
vn -0.0000 0.9981 0.0623
vn -0.7758 -0.0000 0.6310
vn 0.0103 0.3548 0.9349
vn -0.0000 1.0000 -0.0000
vn -0.0000 0.3070 0.9517
vn -1.0000 -0.0000 -0.0000
vn 0.0366 0.9950 0.0932
vn 0.7758 -0.0000 0.6310
vn -0.0103 0.3548 0.9349
vn -0.0000 -0.0000 1.0000
vn -0.0000 -0.9887 0.1499
vn -0.0000 0.9887 0.1499
vn -0.0366 0.9950 0.0932
vn -0.0000 -0.0000 -1.0000
vn -0.0000 -1.0000 -0.0000
vn 0.7256 -0.0000 -0.6881
vn -0.7256 -0.0000 -0.6881
vt 0.050555 0.905346
vt 0.050555 0.977307
vt 0.080229 0.977307
vt 0.080229 0.905346
vt 0.733110 0.805995
vt 0.733110 0.842382
vt 0.709539 0.842382
vt 0.685968 0.805995
vt 0.685968 0.842382
vt 0.685968 0.824189
vt 0.709539 0.824189
vt 0.721324 0.805995
vt 0.743762 0.805995
vt 0.737807 0.847788
vt 0.954174 0.807025
vt 0.954174 0.823286
vt 0.985416 0.842452
vt 0.985416 0.807025
vt 0.055000 0.981180
vt 0.006799 0.975839
vt 0.021087 0.904233
vt 0.047812 0.930187
vt 0.092292 0.963921
vt 0.075203 0.904233
vt 0.697753 0.805995
vt 0.901245 0.807025
vt 0.901245 0.815156
vt 0.901245 0.823286
vt 0.914477 0.823286
vt 0.905876 0.807025
vt 0.927710 0.807025
vt 0.927710 0.823286
vt 0.940942 0.823286
vt 0.932341 0.807025
vt 0.901245 0.877878
vt 0.914477 0.877878
vt 0.927710 0.877878
vt 0.940942 0.877878
vt 0.954174 0.877878
vt 0.949543 0.807025
vt 0.923078 0.807025
vt 0.012625 0.976701
vt 0.012625 0.914108
vt 0.020746 0.914108
vt 0.020746 0.976701
vt 0.028868 0.914108
vt 0.028868 0.976701
vt 0.036989 0.914108
vt 0.036989 0.976701
vt 0.045111 0.914108
vt 0.045111 0.976701
vt 0.053233 0.914108
vt 0.053233 0.976701
vt 0.077597 0.914108
vt 0.069476 0.914108
vt 0.061354 0.914108
vt 0.061354 0.976701
vt 0.069476 0.976701
vt 0.077597 0.976701
vt 0.606948 0.336625
vt 0.633658 0.325561
vt 0.660368 0.336625
vt 0.671431 0.363335
vt 0.660368 0.390044
vt 0.633658 0.401108
vt 0.606948 0.390044
vt 0.595884 0.363335
vt 0.778783 0.805995
vt 0.778783 0.847788
vt 0.985416 0.877878
vt 0.743762 0.892068
vt 0.740210 0.850741
vt 0.746165 0.887871
vt 0.733896 0.845795
vt 0.589745 0.396446
vt 0.589745 0.321218
vt 0.593371 0.324277
vt 0.593371 0.393386
vt 0.742859 0.888656
vt 0.020981 0.904814
vt 0.079823 0.904814
vt 0.079823 0.976999
vt 0.020981 0.976999
vt 0.778783 0.892068
vt 0.776380 0.887871
vt 0.771232 0.850741
vt 0.673939 0.399196
vt 0.654672 0.399196
vt 0.651931 0.399196
vt 0.668457 0.399196
vt 0.678897 0.321218
vt 0.678897 0.396446
vt 0.675271 0.393386
vt 0.675271 0.324277
vt 0.616137 0.399196
vt 0.596870 0.399196
vt 0.602352 0.399196
vt 0.618878 0.399196
vt 0.634321 0.324277
vt 0.634321 0.393386
vt 0.044665 0.904671
vt 0.081909 0.904671
vt 0.081909 0.965962
vt 0.044665 0.965962
vt 0.200222 0.076382
vt 0.282420 0.076382
vt 0.282420 0.137673
vt 0.200222 0.137673
vt 0.634321 0.321218
vt 0.656609 0.396446
vt 0.634321 0.396446
vt 0.612033 0.396446
vt 0.200622 0.137673
vt 0.200622 0.076382
vt 0.282820 0.076382
vt 0.282820 0.137673
vt 0.007422 0.965962
vt 0.007422 0.904671
vt 0.602352 0.325471
vt 0.635404 0.325471
vt 0.635404 0.399196
vt 0.939204 0.843638
vt 0.960610 0.843638
vt 0.960610 0.852303
vt 0.939204 0.852303
vt 0.795168 0.320866
vt 0.865848 0.320866
vt 0.865848 0.392408
vt 0.795168 0.392408
vt 0.794240 0.392408
vt 0.794240 0.320866
vt 0.864920 0.320866
vt 0.864920 0.392408
vt 0.917798 0.852303
vt 0.917798 0.843638
vt 0.668457 0.325471
vt 0.596870 0.325471
vt 0.673939 0.325471
vt 0.941302 0.809711
vt 0.963844 0.809711
vt 0.961192 0.813068
vt 0.941302 0.813068
vt 0.635701 0.320089
vt 0.653439 0.320089
vt 0.671177 0.320089
vt 0.671177 0.412233
vt 0.635701 0.412233
vt 0.600225 0.412233
vt 0.600225 0.320089
vt 0.617963 0.320089
vt 0.986387 0.809711
vt 0.986387 0.885787
vt 0.981081 0.880192
vt 0.981081 0.813068
vt 0.941302 0.885787
vt 0.896218 0.885787
vt 0.901524 0.880192
vt 0.941302 0.880192
vt 0.896218 0.809711
vt 0.918760 0.809711
vt 0.921413 0.813068
vt 0.901524 0.813068
vt 0.988499 0.853150
vt 0.925795 0.853150
vt 0.925795 0.850957
vt 0.941471 0.850957
vt 0.957147 0.850957
vt 0.972823 0.850957
vt 0.988499 0.850957
vt 0.888783 0.853150
vt 0.888783 0.850957
vt 0.988499 0.855342
vt 0.972823 0.855342
vt 0.957147 0.855342
vt 0.941471 0.855342
vt 0.925795 0.855342
vt 0.888783 0.855342
vt 0.912446 0.864932
vt 0.939439 0.864932
vt 0.939439 0.881969
vt 0.912446 0.881969
vt 0.966431 0.864932
vt 0.966431 0.881969
s 0
f 95/1/1 94/2/1 88/3/1 89/4/1
f 4/5/2 5/6/2 8/7/2
f 1/8/2 8/7/2 2/9/2 218/10/2
f 8/7/2 12/11/2 10/12/2 4/5/2
f 6/13/2 87/14/2 5/6/2 4/5/2
f 15/15/2 24/16/2 86/17/2 85/18/2
f 12/19/3 11/20/3 13/21/3 14/22/3
f 10/23/4 12/19/4 14/22/4 9/24/4
f 14/22/2 13/21/2 9/24/2
f 11/25/2 12/11/2 8/7/2 1/8/2
f 3/26/2 232/27/2 25/28/2 23/29/2 28/30/2
f 18/31/2 22/32/2 21/33/2 26/34/2
f 23/29/2 25/28/2 246/35/2 20/36/2
f 22/32/2 23/29/2 20/36/2 17/37/2
f 21/33/2 22/32/2 17/37/2 19/38/2
f 24/16/2 21/33/2 19/38/2 16/39/2
f 27/40/2 21/33/2 24/16/2 15/15/2
f 29/41/2 23/29/2 22/32/2 18/31/2
f 23/19/5 29/20/5 35/21/5 31/22/5
f 21/19/5 27/20/5 33/21/5 30/22/5
f 28/23/6 23/19/6 31/22/6 34/24/6
f 26/23/6 21/19/6 30/22/6 32/24/6
f 30/22/2 33/21/2 32/24/2
f 31/22/2 35/21/2 34/24/2
f 36/42/7 37/43/7 39/44/7 38/45/7
f 38/45/8 39/44/8 41/46/8 40/47/8
f 40/47/9 41/46/9 43/48/9 42/49/9
f 42/49/10 43/48/10 45/50/10 44/51/10
f 44/51/11 45/50/11 47/52/11 46/53/11
f 37/54/2 51/55/2 58/55/2 53/54/2
f 46/53/12 47/52/12 49/56/12 48/57/12
f 41/46/2 39/44/2 52/44/2 54/46/2
f 49/56/2 47/52/2 57/52/2 59/56/2
f 48/57/13 49/56/13 51/55/13 50/58/13
f 50/58/14 51/55/14 37/54/14 36/59/14
f 57/60/2 56/61/2 55/62/2 54/63/2
f 52/64/2 53/65/2 58/66/2 54/63/2
f 54/63/2 58/66/2 59/67/2 57/60/2
f 47/52/2 45/50/2 56/50/2 57/52/2
f 39/44/2 37/43/2 53/43/2 52/44/2
f 43/48/2 41/46/2 54/46/2 55/48/2
f 51/55/2 49/56/2 59/56/2 58/55/2
f 45/50/2 43/48/2 55/48/2 56/50/2
f 60/42/7 61/43/7 63/44/7 62/45/7
f 62/45/8 63/44/8 65/46/8 64/47/8
f 64/47/9 65/46/9 67/48/9 66/49/9
f 66/49/10 67/48/10 69/50/10 68/51/10
f 68/51/11 69/50/11 71/52/11 70/53/11
f 61/54/2 75/55/2 82/55/2 77/54/2
f 70/53/12 71/52/12 73/56/12 72/57/12
f 65/46/2 63/44/2 76/44/2 78/46/2
f 73/56/2 71/52/2 81/52/2 83/56/2
f 72/57/13 73/56/13 75/55/13 74/58/13
f 74/58/14 75/55/14 61/54/14 60/59/14
f 81/60/2 80/61/2 79/62/2 78/63/2
f 76/64/2 77/65/2 82/66/2 78/63/2
f 78/63/2 82/66/2 83/67/2 81/60/2
f 71/52/2 69/50/2 80/50/2 81/52/2
f 63/44/2 61/43/2 77/43/2 76/44/2
f 67/48/2 65/46/2 78/46/2 79/48/2
f 75/55/2 73/56/2 83/56/2 82/55/2
f 69/50/2 67/48/2 79/48/2 80/50/2
f 85/68/2 86/69/2 87/14/2 6/13/2
f 86/17/2 24/16/2 16/39/2 84/70/2
f 5/6/2 87/14/2 7/71/2
f 7/71/2 87/14/2 93/72/2 91/73/2
f 97/6/15 5/6/15 88/74/15 94/74/15
f 97/6/16 100/9/16 229/9/16
f 219/75/17 101/76/17 225/77/17 224/78/17
f 5/6/18 7/71/18 89/79/18 88/74/18
f 93/80/2 92/81/2 90/82/2 91/83/2
f 86/69/2 84/84/2 90/85/2 92/86/2
f 87/14/2 86/69/2 92/86/2 93/72/2
f 84/84/2 7/71/2 91/73/2 90/85/2
f 234/87/19 236/88/19 244/89/19 241/90/19
f 7/71/20 98/71/20 95/79/20 89/79/20
f 95/1/1 213/4/1 212/3/1 94/2/1
f 105/5/21 109/7/21 106/6/21
f 101/8/21 219/10/21 102/9/21 109/7/21
f 109/7/21 105/5/21 111/12/21 113/11/21
f 107/13/21 105/5/21 106/6/21 211/14/21
f 116/15/21 209/18/21 210/17/21 125/16/21
f 113/19/3 115/22/3 114/21/3 112/20/3
f 111/23/4 110/24/4 115/22/4 113/19/4
f 115/22/21 110/24/21 114/21/21
f 112/25/21 101/8/21 109/7/21 113/11/21
f 103/26/21 128/30/21 124/29/21 249/28/21 234/27/21
f 119/31/21 126/34/21 122/33/21 123/32/21
f 124/29/21 121/36/21 104/35/21 249/28/21
f 123/32/21 118/37/21 121/36/21 124/29/21
f 122/33/21 120/38/21 118/37/21 123/32/21
f 125/16/21 117/39/21 120/38/21 122/33/21
f 127/40/21 116/15/21 125/16/21 122/33/21
f 129/41/21 119/31/21 123/32/21 124/29/21
f 124/19/5 131/22/5 135/21/5 129/20/5
f 122/19/5 130/22/5 133/21/5 127/20/5
f 128/23/6 134/24/6 131/22/6 124/19/6
f 126/23/6 132/24/6 130/22/6 122/19/6
f 130/22/21 132/24/21 133/21/21
f 131/22/21 134/24/21 135/21/21
f 136/42/7 138/45/7 139/44/7 137/43/7
f 138/45/8 140/47/8 141/46/8 139/44/8
f 140/47/9 142/49/9 143/48/9 141/46/9
f 142/49/10 144/51/10 145/50/10 143/48/10
f 144/51/11 146/53/11 147/52/11 145/50/11
f 137/54/21 153/54/21 158/55/21 151/55/21
f 146/53/12 148/57/12 149/56/12 147/52/12
f 141/46/21 154/46/21 152/44/21 139/44/21
f 149/56/21 159/56/21 157/52/21 147/52/21
f 148/57/13 150/58/13 151/55/13 149/56/13
f 150/58/14 136/59/14 137/54/14 151/55/14
f 157/60/21 154/63/21 155/62/21 156/61/21
f 152/64/21 154/63/21 158/66/21 153/65/21
f 154/63/21 157/60/21 159/67/21 158/66/21
f 147/52/21 157/52/21 156/50/21 145/50/21
f 139/44/21 152/44/21 153/43/21 137/43/21
f 143/48/21 155/48/21 154/46/21 141/46/21
f 151/55/21 158/55/21 159/56/21 149/56/21
f 145/50/21 156/50/21 155/48/21 143/48/21
f 160/42/7 162/45/7 163/44/7 161/43/7
f 162/45/8 164/47/8 165/46/8 163/44/8
f 164/47/9 166/49/9 167/48/9 165/46/9
f 166/49/10 168/51/10 169/50/10 167/48/10
f 168/51/11 170/53/11 171/52/11 169/50/11
f 161/54/21 177/54/21 182/55/21 175/55/21
f 170/53/12 172/57/12 173/56/12 171/52/12
f 165/46/21 178/46/21 176/44/21 163/44/21
f 173/56/21 183/56/21 181/52/21 171/52/21
f 172/57/13 174/58/13 175/55/13 173/56/13
f 174/58/14 160/59/14 161/54/14 175/55/14
f 181/60/21 178/63/21 179/62/21 180/61/21
f 176/64/21 178/63/21 182/66/21 177/65/21
f 178/63/21 181/60/21 183/67/21 182/66/21
f 171/52/21 181/52/21 180/50/21 169/50/21
f 163/44/21 176/44/21 177/43/21 161/43/21
f 167/48/21 179/48/21 178/46/21 165/46/21
f 175/55/21 182/55/21 183/56/21 173/56/21
f 169/50/21 180/50/21 179/48/21 167/48/21
f 184/42/7 186/45/7 187/44/7 185/43/7
f 186/45/8 188/47/8 189/46/8 187/44/8
f 188/47/9 190/49/9 191/48/9 189/46/9
f 190/49/10 192/51/10 193/50/10 191/48/10
f 192/51/11 194/53/11 195/52/11 193/50/11
f 185/54/21 201/54/21 206/55/21 199/55/21
f 194/53/12 196/57/12 197/56/12 195/52/12
f 189/46/21 202/46/21 200/44/21 187/44/21
f 197/56/21 207/56/21 205/52/21 195/52/21
f 196/57/13 198/58/13 199/55/13 197/56/13
f 198/58/14 184/59/14 185/54/14 199/55/14
f 205/60/21 202/63/21 203/62/21 204/61/21
f 200/64/21 202/63/21 206/66/21 201/65/21
f 202/63/21 205/60/21 207/67/21 206/66/21
f 195/52/21 205/52/21 204/50/21 193/50/21
f 187/44/21 200/44/21 201/43/21 185/43/21
f 191/48/21 203/48/21 202/46/21 189/46/21
f 199/55/21 206/55/21 207/56/21 197/56/21
f 193/50/21 204/50/21 203/48/21 191/48/21
f 209/68/21 107/13/21 211/14/21 210/69/21
f 210/17/21 208/70/21 117/39/21 125/16/21
f 106/6/21 108/71/21 211/14/21
f 108/71/21 215/73/21 217/72/21 211/14/21
f 97/6/15 94/74/15 212/74/15 106/6/15
f 97/6/22 109/7/22 102/9/22 228/9/22
f 1/91/23 218/92/23 221/93/23 222/94/23
f 106/6/24 212/74/24 213/79/24 108/71/24
f 217/80/21 215/83/21 214/82/21 216/81/21
f 210/69/21 216/86/21 214/85/21 208/84/21
f 211/14/21 217/72/21 216/86/21 210/69/21
f 208/84/21 214/85/21 215/73/21 108/71/21
f 235/95/19 232/96/19 238/97/19 245/98/19
f 108/71/20 213/79/20 95/79/20 98/71/20
f 223/99/25 222/94/25 221/93/25 226/100/25
f 220/101/25 227/102/25 229/103/25 100/104/25
f 219/105/25 230/106/25 228/107/25 102/108/25
f 223/99/25 226/100/25 224/78/25 225/77/25
f 96/109/26 1/91/26 222/94/26 223/99/26
f 101/76/26 96/109/26 223/99/26 225/77/26
f 218/92/27 227/110/27 220/111/27 226/100/27 221/93/27
f 220/111/27 230/112/27 219/75/27 224/78/27 226/100/27
f 228/9/16 100/9/16 97/6/16
f 229/113/25 227/114/25 218/115/25 2/116/25
f 229/9/28 2/9/28 8/7/28 97/6/28
f 228/117/25 230/118/25 220/101/25 100/104/25
f 231/84/19 208/84/19 108/71/19 98/71/19
f 84/84/19 231/84/19 98/71/19 7/71/19
f 239/119/29 240/120/29 243/121/29 245/98/29 238/97/29
f 233/122/29 236/123/29 250/124/29 248/125/29
f 232/126/29 235/127/29 237/128/29 25/129/29
f 250/130/29 236/131/29 234/132/29 249/133/29
f 237/134/29 235/135/29 233/122/29 248/125/29
f 242/136/29 241/90/29 244/89/29 243/121/29 240/120/29
f 3/137/30 99/120/30 240/120/30 239/119/30
f 99/120/30 103/138/30 242/136/30 240/120/30
f 233/121/19 235/95/19 245/98/19 243/121/19
f 236/88/19 233/121/19 243/121/19 244/89/19
f 232/96/31 3/137/31 239/119/31 238/97/31
f 103/138/32 234/87/32 241/90/32 242/136/32
f 248/139/29 250/140/29 259/141/29 261/142/29
f 261/143/29 259/144/29 260/145/29 262/146/29 258/147/29 251/148/29 253/149/29 252/150/29
f 249/151/29 104/152/29 262/153/29 260/154/29
f 247/155/29 246/156/29 251/157/29 258/158/29
f 104/152/29 247/155/29 258/158/29 262/153/29
f 250/140/29 249/151/29 260/154/29 259/141/29
f 25/159/29 237/160/29 252/161/29 253/162/29
f 246/156/29 25/159/29 253/162/29 251/157/29
f 247/163/19 255/164/19 16/165/19 19/166/19 17/167/19 20/168/19 246/169/19
f 255/164/19 256/170/19 254/171/19 16/165/19
f 247/163/19 104/172/19 121/173/19 118/174/19 120/175/19 117/176/19 255/164/19
f 255/164/19 117/176/19 257/177/19 256/170/19
f 208/178/25 231/179/25 256/180/25 257/181/25
f 84/70/2 16/39/2 254/70/2
f 117/39/21 208/70/21 257/70/21
f 231/179/25 84/182/25 254/183/25 256/180/25
f 109/7/19 97/6/19 106/6/19
f 97/6/19 8/7/19 5/6/19
f 237/160/29 248/139/29 261/142/29 252/161/29
f 263/42/7 264/43/7 266/44/7 265/45/7
f 265/45/8 266/44/8 268/46/8 267/47/8
f 267/47/9 268/46/9 270/48/9 269/49/9
f 269/49/10 270/48/10 272/50/10 271/51/10
f 271/51/11 272/50/11 274/52/11 273/53/11
f 264/54/2 278/55/2 285/55/2 280/54/2
f 273/53/12 274/52/12 276/56/12 275/57/12
f 268/46/2 266/44/2 279/44/2 281/46/2
f 276/56/2 274/52/2 284/52/2 286/56/2
f 275/57/13 276/56/13 278/55/13 277/58/13
f 277/58/14 278/55/14 264/54/14 263/59/14
f 284/60/2 283/61/2 282/62/2 281/63/2
f 279/64/2 280/65/2 285/66/2 281/63/2
f 281/63/2 285/66/2 286/67/2 284/60/2
f 274/52/2 272/50/2 283/50/2 284/52/2
f 266/44/2 264/43/2 280/43/2 279/44/2
f 270/48/2 268/46/2 281/46/2 282/48/2
f 278/55/2 276/56/2 286/56/2 285/55/2
f 272/50/2 270/48/2 282/48/2 283/50/2
