# Blender 4.4.3
# www.blender.org
o SM_PurpleSedan_Car_V1.0
v 1.948197 0.536285 4.181348
v 1.678595 1.536271 3.999015
v 2.000000 0.536285 -4.000000
v 1.830306 1.536056 -4.060134
v 2.000000 0.536285 1.389458
v 2.000000 0.536285 -2.005029
v 1.803167 1.536056 -2.618495
v 1.717772 1.523456 1.863736
v 2.000000 0.536285 0.785496
v 1.676068 2.736993 -1.354223
v 1.675658 2.727216 1.282079
v 1.204844 0.536285 2.042094
v 1.698447 1.536165 2.944398
v 2.000000 0.536285 2.042094
v 2.000000 0.536285 3.347365
v 1.838034 1.036285 2.823926
v 1.204844 0.536285 3.347365
v 1.042878 1.036285 2.823926
v 1.049845 0.536285 -2.406794
v 1.816737 1.536056 -3.339315
v 2.000000 0.536285 -2.406794
v 2.000000 0.536285 -3.652898
v 1.838034 1.036285 -3.143493
v 1.049845 0.536285 -3.652898
v 0.887879 1.036285 -3.143493
v 1.521062 2.652676 1.321287
v 1.520539 1.602107 1.829678
v 1.842021 1.609550 1.139142
v 1.842021 1.609550 -1.586024
v 1.676068 2.736993 -0.025969
v 1.842021 1.609550 -0.223441
v 1.686723 2.664608 0.041209
v 1.686723 2.664608 1.198905
v 1.831367 1.681935 1.069760
v 1.831367 1.681935 -0.117858
v 1.689971 2.642542 -1.269442
v 1.828119 1.704001 -1.445380
v 1.828119 1.704001 -0.311097
v 1.689971 2.642542 -0.163737
v 1.553003 1.618841 -2.485421
v 1.553003 2.654437 -1.437742
v 1.334189 0.535434 2.219321
v 1.801965 0.535434 2.219321
v 1.334189 0.162969 2.373601
v 1.801965 0.162969 2.373601
v 1.334189 0.008689 2.746066
v 1.801965 0.008689 2.746066
v 1.334189 0.162969 3.118531
v 1.801965 0.162969 3.118531
v 1.334189 0.535434 3.272811
v 1.801965 0.535434 3.272811
v 1.334189 0.907899 3.118531
v 1.801965 0.907899 3.118531
v 1.334189 1.062179 2.746066
v 1.801965 1.062179 2.746066
v 1.334189 0.907899 2.373601
v 1.801965 0.907899 2.373601
v 1.334189 0.535434 -3.586779
v 1.801965 0.535434 -3.586779
v 1.334189 0.162969 -3.432499
v 1.801965 0.162969 -3.432499
v 1.334189 0.008689 -3.060034
v 1.801965 0.008689 -3.060034
v 1.334189 0.162969 -2.687569
v 1.801965 0.162969 -2.687569
v 1.334189 0.535434 -2.533289
v 1.801965 0.535434 -2.533289
v 1.334189 0.907899 -2.687569
v 1.801965 0.907899 -2.687569
v 1.334189 1.062179 -3.060034
v 1.801965 1.062179 -3.060034
v 1.334189 0.907899 -3.432499
v 1.801965 0.907899 -3.432499
v 0.000000 0.536285 -4.000000
v 0.000000 1.536056 -4.000000
v -0.051803 0.536285 4.181348
v 0.000000 1.536285 4.000000
v 0.000000 1.536056 -2.568941
v -0.000228 1.530851 1.895017
v 0.000000 2.736993 -1.354223
v 0.000149 2.740546 1.309626
v -0.000142 1.614205 1.854679
v 0.000381 2.664774 1.346288
v 0.000000 1.618841 -2.485421
v 0.000000 2.654437 -1.437742
v 1.801965 0.237462 2.448094
v 1.801965 0.535434 2.324670
v 1.801965 0.114038 2.746066
v 1.801965 0.237462 3.044038
v 1.801965 0.535434 3.167462
v 1.801965 0.833406 3.044038
v 1.801965 0.833406 2.448094
v 1.801965 0.956830 2.746066
v 1.801965 0.237462 -3.358006
v 1.801965 0.535434 -3.481430
v 1.801965 0.114038 -3.060034
v 1.801965 0.237462 -2.762062
v 1.801965 0.535434 -2.638638
v 1.801965 0.833406 -2.762062
v 1.801965 0.833406 -3.358006
v 1.801965 0.956830 -3.060034
v -2.051803 0.536285 4.181348
v -1.836590 1.537141 4.062585
v -2.000000 0.536285 -4.000000
v -1.684878 1.536056 -3.996565
v -2.000000 0.536285 1.389458
v -2.000000 0.536285 -2.005029
v -1.712017 1.536056 -2.554925
v -1.797292 1.527201 1.933247
v -2.000000 0.536285 0.785496
v -1.676068 2.736993 -1.354223
v -1.675360 2.753877 1.337173
v -1.204844 0.536285 2.042094
v -1.816737 1.537035 3.007967
v -2.000000 0.536285 2.042094
v -2.000000 0.536285 3.347365
v -1.838034 1.036285 2.823926
v -1.204844 0.536285 3.347365
v -1.042878 1.036285 2.823926
v -1.049845 0.536285 -2.406794
v -1.698447 1.536056 -3.275745
v -2.000000 0.536285 -2.406794
v -2.000000 0.536285 -3.652898
v -1.838034 1.036285 -3.143493
v -1.049845 0.536285 -3.652898
v -0.887879 1.036285 -3.143493
v -1.520300 2.676873 1.371290
v -1.520823 1.626304 1.879681
v -1.842021 1.609550 1.139142
v -1.842021 1.609550 -1.586024
v -1.676068 2.736993 -0.025969
v -1.842021 1.609550 -0.223441
v -1.686723 2.664608 0.041209
v -1.686723 2.664608 1.198905
v -1.831367 1.681935 1.069760
v -1.831367 1.681935 -0.117858
v -1.689971 2.642542 -1.269442
v -1.828119 1.704001 -1.445380
v -1.828119 1.704001 -0.311097
v -1.689971 2.642542 -0.163737
v -1.553003 1.618841 -2.485421
v -1.553003 2.654437 -1.437742
v -1.334189 0.535434 2.219321
v -1.801965 0.535434 2.219321
v -1.334189 0.162969 2.373601
v -1.801965 0.162969 2.373601
v -1.334189 0.008689 2.746066
v -1.801965 0.008689 2.746066
v -1.334189 0.162969 3.118531
v -1.801965 0.162969 3.118531
v -1.334189 0.535434 3.272811
v -1.801965 0.535434 3.272811
v -1.334189 0.907899 3.118531
v -1.801965 0.907899 3.118531
v -1.334189 1.062179 2.746066
v -1.801965 1.062179 2.746066
v -1.334189 0.907899 2.373601
v -1.801965 0.907899 2.373601
v -1.334189 0.535434 -3.586779
v -1.801965 0.535434 -3.586779
v -1.334189 0.162969 -3.432499
v -1.801965 0.162969 -3.432499
v -1.334189 0.008689 -3.060034
v -1.801965 0.008689 -3.060034
v -1.334189 0.162969 -2.687569
v -1.801965 0.162969 -2.687569
v -1.334189 0.535434 -2.533289
v -1.801965 0.535434 -2.533289
v -1.334189 0.907899 -2.687569
v -1.801965 0.907899 -2.687569
v -1.334189 1.062179 -3.060034
v -1.801965 1.062179 -3.060034
v -1.334189 0.907899 -3.432499
v -1.801965 0.907899 -3.432499
v -1.801965 0.237462 2.448094
v -1.801965 0.535434 2.324670
v -1.801965 0.114038 2.746066
v -1.801965 0.237462 3.044038
v -1.801965 0.535434 3.167462
v -1.801965 0.833406 3.044038
v -1.801965 0.833406 2.448094
v -1.801965 0.956830 2.746066
v -1.801965 0.237462 -3.358006
v -1.801965 0.535434 -3.481430
v -1.801965 0.114038 -3.060034
v -1.801965 0.237462 -2.762062
v -1.801965 0.535434 -2.638638
v -1.801965 0.833406 -2.762062
v -1.801965 0.833406 -3.358006
v -1.801965 0.956830 -3.060034
v 1.813396 1.036278 4.090181
v -0.025902 1.036285 4.090674
v -1.944196 1.036713 4.121966
v 1.547320 1.000630 4.271717
v 1.662894 0.571954 4.349880
v -0.051834 0.571954 4.349880
v -0.029627 1.000636 4.272139
v -1.674304 1.001003 4.298968
v -1.766562 0.571954 4.349880
v 0.000074 2.738766 -0.025556
v 0.000000 1.036285 -4.000000
v -1.842439 1.036308 -3.998282
v 1.915153 1.035873 -4.030067
v 1.753713 1.013301 -4.127912
v 1.831380 0.555987 -4.100389
v 0.000619 0.555987 -4.100389
v 0.000619 1.013678 -4.100389
v -1.685914 1.013699 -4.098816
v -1.830142 0.555987 -4.100389
v 0.839297 1.536278 3.999507
v -0.985049 1.036499 4.106320
v -0.918295 1.536713 4.031292
v 0.893747 1.036281 4.090427
v -0.921220 1.036296 -3.999141
v 0.915153 1.536056 -4.030067
v 0.957577 1.036079 -4.015034
v -0.842439 1.536056 -3.998282
vn -0.0000 -0.9813 -0.1926
vn 0.9631 0.2686 0.0141
vn -0.0000 -0.7231 -0.6907
vn 0.9855 0.1684 0.0185
vn 0.9910 0.0850 -0.1037
vn 0.9838 0.1493 0.0989
vn 0.9804 0.1682 0.1026
vn 0.9852 0.1641 -0.0488
vn 0.9893 0.1456 -0.0000
vn 0.9788 0.2040 0.0184
vn -0.0000 -0.8274 -0.5616
vn -0.0918 0.7132 -0.6950
vn -0.0000 -0.8425 0.5388
vn 0.9600 0.2797 0.0109
vn 0.9645 0.2633 0.0181
vn 0.9531 0.3009 0.0335
vn 0.9513 0.3082 -0.0000
vn -0.0000 -0.7137 0.7005
vn 0.0183 0.4355 0.9000
vn 0.9757 0.1220 0.1818
vn 0.9867 0.1551 -0.0482
vn 0.9873 0.1588 0.0008
vn 0.9894 0.1450 0.0119
vn -0.0000 0.7112 -0.7030
vn -0.0000 -0.3827 -0.9239
vn -0.0000 -0.9239 -0.3827
vn -0.0000 -0.9239 0.3827
vn -0.0000 -0.3827 0.9239
vn -0.0000 0.3827 0.9239
vn 1.0000 -0.0000 -0.0000
vn -0.0000 0.9239 0.3827
vn -0.0000 0.9239 -0.3827
vn -0.0000 0.3827 -0.9239
vn 0.0005 1.0000 -0.0007
vn -0.0091 0.7894 -0.6139
vn -0.0074 1.0000 -0.0061
vn 0.0001 0.9812 0.1928
vn -0.0000 1.0000 -0.0000
vn -0.0002 0.9756 -0.2197
vn -0.9774 0.2107 -0.0196
vn -0.9536 0.3006 -0.0179
vn -0.9609 0.2766 -0.0152
vn -0.9589 0.2832 0.0160
vn -0.9871 0.1548 0.0407
vn -0.9691 0.1993 -0.1452
vn -0.9893 0.1456 -0.0000
vn -0.9634 0.2675 -0.0181
vn -0.0356 0.7088 -0.7045
vn -0.9911 0.1108 0.0733
vn -0.9779 0.2081 -0.0184
vn -0.9841 0.1459 -0.1012
vn -0.9513 0.3082 -0.0000
vn -0.9888 0.1320 0.0694
vn -0.9744 0.1730 -0.1439
vn -0.9908 0.1352 -0.0006
vn -0.9892 0.1461 -0.0085
vn -1.0000 -0.0000 -0.0000
vn -0.0005 1.0000 -0.0007
vn -0.0031 0.6804 -0.7329
vn 0.0056 1.0000 -0.0046
vn -0.0000 -0.9783 0.2071
vn 0.0248 0.1288 0.9914
vn 0.0004 0.1787 0.9839
vn 0.0001 0.1789 0.9839
vn 0.0079 0.1473 0.9891
vn -0.5167 0.2096 0.8301
vn 0.5136 0.2860 0.8090
vn 0.0034 0.9812 0.1928
vn 0.0034 1.0000 -0.0069
vn 0.0045 1.0000 0.0030
vn -0.0077 -0.0307 -0.9995
vn -0.0015 0.0010 -1.0000
vn -0.0241 -0.0481 -0.9986
vn -0.0004 0.0018 -1.0000
vn -0.5159 0.1655 -0.8405
vn 0.5143 0.0358 -0.8569
vn -0.0032 0.9756 -0.2197
vn 0.0004 0.1792 0.9838
vn -0.0013 1.0000 -0.0033
vn 0.0028 1.0000 -0.0037
vn 0.0247 0.1612 0.9866
vn -0.0241 -0.0161 -0.9996
vn -0.0015 0.0029 -1.0000
vt 0.636243 0.322498
vt 0.676849 0.322498
vt 0.673400 0.324830
vt 0.636231 0.324830
vt 0.299005 0.905868
vt 0.299825 0.938395
vt 0.347835 0.938395
vt 0.045111 0.950621
vt 0.053233 0.948013
vt 0.348158 0.938511
vt 0.298940 0.905868
vt 0.299389 0.922190
vt 0.299838 0.938511
vt 0.363349 0.905868
vt 0.347667 0.922202
vt 0.387255 0.905868
vt 0.320844 0.905868
vt 0.333814 0.906166
vt 0.331416 0.929767
vt 0.323307 0.928151
vt 0.328067 0.906166
vt 0.360366 0.906166
vt 0.366203 0.928141
vt 0.357346 0.929767
vt 0.344381 0.929767
vt 0.386979 0.938511
vt 0.045111 0.971485
vt 0.053233 0.968877
vt 0.452904 0.954561
vt 0.464934 0.928141
vt 0.463667 0.929972
vt 0.453699 0.952745
vt 0.053233 0.953229
vt 0.347835 0.922202
vt 0.320326 0.905868
vt 0.387234 0.905868
vt 0.387234 0.938395
vt 0.387234 0.922202
vt 0.362967 0.905868
vt 0.053233 0.974093
vt 0.500000 0.541667
vt 0.375000 0.562500
vt 0.375000 0.520833
vt 0.421880 0.928156
vt 0.422037 0.928151
vt 0.422120 0.929944
vt 0.427627 0.954561
vt 0.427387 0.952773
vt 0.004834 0.906350
vt 0.085496 0.906350
vt 0.085496 0.984327
vt 0.004834 0.984327
vt 0.430146 0.929767
vt 0.443111 0.929767
vt 0.442107 0.931359
vt 0.430806 0.931359
vt 0.456076 0.929767
vt 0.440266 0.954561
vt 0.441576 0.952484
vt 0.452097 0.952484
vt 0.428611 0.952969
vt 0.439626 0.952969
vt 0.006177 0.985669
vt 0.006177 0.905008
vt 0.084153 0.905008
vt 0.084153 0.985669
vt 0.454738 0.931845
vt 0.443945 0.931845
vt 0.012625 0.976701
vt 0.012625 0.914108
vt 0.020746 0.914108
vt 0.020746 0.976701
vt 0.028868 0.914108
vt 0.028868 0.976701
vt 0.036989 0.914108
vt 0.036989 0.976701
vt 0.045111 0.914108
vt 0.045111 0.976701
vt 0.053233 0.914108
vt 0.053233 0.976701
vt 0.077597 0.914108
vt 0.069476 0.914108
vt 0.061354 0.914108
vt 0.061354 0.976701
vt 0.069476 0.976701
vt 0.077597 0.976701
vt 0.005892 0.906350
vt 0.084467 0.906350
vt 0.084467 0.984327
vt 0.005892 0.984327
vt 0.084467 0.984327
vt 0.381627 0.929891
vt 0.381627 0.979751
vt 0.344642 0.979753
vt 0.344654 0.929891
vt 0.464462 0.928156
vt 0.383209 0.929891
vt 0.309442 0.954817
vt 0.309825 0.929879
vt 0.346236 0.929891
vt 0.671280 0.374937
vt 0.652644 0.374937
vt 0.634008 0.374937
vt 0.633932 0.371024
vt 0.665888 0.371023
vt 0.383209 0.954821
vt 0.309058 0.979756
vt 0.606948 0.336625
vt 0.633658 0.325561
vt 0.660368 0.336625
vt 0.671431 0.363335
vt 0.660368 0.390044
vt 0.633658 0.401108
vt 0.606948 0.390044
vt 0.595884 0.363335
vt 0.673650 0.381683
vt 0.654947 0.381682
vt 0.636243 0.381681
vt 0.636231 0.379005
vt 0.670472 0.379007
vt 0.322702 0.928171
vt 0.365598 0.928161
vt 0.464329 0.928161
vt 0.421432 0.928171
vt 0.381627 0.929141
vt 0.344654 0.929141
vt 0.383209 0.929141
vt 0.346236 0.929141
vt 0.308292 0.929161
vt 0.308675 0.954458
vt 0.633483 0.320046
vt 0.674012 0.320046
vt 0.668231 0.323962
vt 0.633482 0.323962
vt 0.383209 0.954446
vt 0.278370 0.076480
vt 0.212670 0.076466
vt 0.208098 0.110730
vt 0.270999 0.110759
vt 0.046741 0.905321
vt 0.064404 0.905321
vt 0.063359 0.957088
vt 0.047238 0.957089
vt 0.598734 0.323962
vt 0.600603 0.371064
vt 0.595134 0.374984
vt 0.592953 0.320046
vt 0.614571 0.374961
vt 0.306709 0.929161
vt 0.307476 0.979756
vt 0.308243 0.929879
vt 0.600638 0.378960
vt 0.599061 0.324830
vt 0.473095 0.917161
vt 0.473087 0.917161
vt 0.473079 0.928157
vt 0.473095 0.928156
vt 0.790255 0.319702
vt 0.868966 0.319719
vt 0.872453 0.400360
vt 0.797229 0.400326
vt 0.595638 0.322498
vt 0.597360 0.381632
vt 0.616802 0.381656
vt 0.211262 0.110700
vt 0.214992 0.076451
vt 0.277987 0.076451
vt 0.268753 0.110699
vt 0.383209 0.979751
vt 0.029601 0.957133
vt 0.028319 0.905344
vt 0.473381 0.928147
vt 0.473238 0.917156
vt 0.792248 0.400395
vt 0.798724 0.319737
vt 0.874446 0.319738
vt 0.861495 0.400397
s 0
f 74/1/1 104/2/1 209/3/1 206/4/1
f 5/5/2 8/6/2 13/7/2
f 16/8/3 15/9/3 17/9/3 18/8/3
f 20/10/4 3/11/4 203/12/4 4/13/4
f 21/14/5 23/15/5 20/10/5 6/16/5
f 3/11/6 20/10/6 23/15/6 22/17/6
f 9/18/7 28/19/7 8/20/7 5/21/7
f 6/22/8 7/23/8 29/24/8
f 6/22/9 29/24/9 31/25/9
f 6/16/10 20/10/10 7/26/10
f 23/27/11 21/28/11 19/28/11 25/27/11
f 10/29/12 7/30/12 40/31/12 41/32/12
f 14/33/13 16/8/13 18/8/13 12/33/13
f 13/7/14 16/34/14 14/35/14 5/5/14
f 1/36/15 13/7/15 2/37/15 191/38/15
f 15/39/16 16/34/16 13/7/16 1/36/16
f 18/8/17 17/9/17 12/33/17
f 22/40/18 23/27/18 25/27/18 24/40/18
f 25/41/17 19/42/17 24/43/17
f 79/44/19 8/45/19 27/46/19 82/46/19
f 8/45/19 11/47/19 26/48/19 27/46/19
f 34/49/9 35/50/9 32/51/9 33/52/9
f 28/53/9 31/54/9 35/55/9 34/56/9
f 8/45/20 28/53/20 11/47/20
f 29/57/21 7/30/21 10/29/21
f 10/29/9 30/58/9 39/59/9 36/60/9
f 31/25/9 28/19/9 9/18/9
f 9/18/9 6/22/9 31/25/9
f 30/58/22 11/47/22 33/61/22 32/62/22
f 11/47/23 28/53/23 34/56/23 33/61/23
f 31/54/9 30/58/9 32/62/9 35/55/9
f 39/63/9 38/64/9 37/65/9 36/66/9
f 29/57/9 10/29/9 36/60/9 37/67/9
f 31/54/9 29/57/9 37/67/9 38/68/9
f 30/58/9 31/54/9 38/68/9 39/59/9
f 80/29/24 10/29/24 41/32/24 85/32/24
f 42/69/25 43/70/25 45/71/25 44/72/25
f 44/72/26 45/71/26 47/73/26 46/74/26
f 46/74/27 47/73/27 49/75/27 48/76/27
f 48/76/28 49/75/28 51/77/28 50/78/28
f 50/78/29 51/77/29 53/79/29 52/80/29
f 43/81/30 57/82/30 92/82/30 87/81/30
f 52/80/31 53/79/31 55/83/31 54/84/31
f 47/73/30 45/71/30 86/71/30 88/73/30
f 55/83/30 53/79/30 91/79/30 93/83/30
f 54/84/32 55/83/32 57/82/32 56/85/32
f 56/85/33 57/82/33 43/81/33 42/86/33
f 58/69/25 59/70/25 61/71/25 60/72/25
f 60/72/26 61/71/26 63/73/26 62/74/26
f 62/74/27 63/73/27 65/75/27 64/76/27
f 64/76/28 65/75/28 67/77/28 66/78/28
f 66/78/29 67/77/29 69/79/29 68/80/29
f 71/83/30 69/79/30 99/79/30 101/83/30
f 68/80/31 69/79/31 71/83/31 70/84/31
f 67/77/30 65/75/30 97/75/30 98/77/30
f 73/82/30 71/83/30 101/83/30 100/82/30
f 70/84/32 71/83/32 73/82/32 72/85/32
f 72/85/33 73/82/33 59/81/33 58/86/33
f 40/87/24 84/88/24 85/89/24 41/90/24
f 26/91/19 83/90/19 82/87/19 27/88/19
f 11/47/19 81/47/19 83/48/19 26/48/19
f 10/92/34 80/93/34 200/94/34 30/95/34
f 7/30/35 78/96/35 84/31/35 40/31/35
f 8/97/36 210/98/36 2/99/36 13/100/36
f 191/101/37 213/102/37 192/103/37 197/104/37 194/105/37
f 4/97/38 215/106/38 78/107/38 7/99/38 20/100/38
f 91/108/30 90/109/30 89/110/30 88/111/30
f 86/112/30 87/113/30 92/114/30 88/111/30
f 88/111/30 92/114/30 93/115/30 91/108/30
f 53/79/30 51/77/30 90/77/30 91/79/30
f 45/71/30 43/70/30 87/70/30 86/71/30
f 49/75/30 47/73/30 88/73/30 89/75/30
f 57/82/30 55/83/30 93/83/30 92/82/30
f 51/77/30 49/75/30 89/75/30 90/77/30
f 99/108/30 98/109/30 97/110/30 96/111/30
f 94/112/30 95/113/30 100/114/30 96/111/30
f 96/111/30 100/114/30 101/115/30 99/108/30
f 63/73/30 61/71/30 94/71/30 96/73/30
f 59/81/30 73/82/30 100/82/30 95/81/30
f 69/79/30 67/77/30 98/77/30 99/79/30
f 61/71/30 59/70/30 95/70/30 94/71/30
f 65/75/30 63/73/30 96/73/30 97/75/30
f 202/116/39 214/117/39 201/118/39 207/119/39 208/120/39
f 106/5/40 114/7/40 109/6/40
f 117/8/3 119/8/3 118/9/3 116/9/3
f 121/10/41 105/13/41 202/12/41 104/11/41
f 122/14/42 107/16/42 121/10/42 124/15/42
f 104/11/43 123/17/43 124/15/43 121/10/43
f 110/18/44 106/21/44 109/121/44 129/19/44
f 107/22/45 130/24/45 108/122/45
f 107/22/46 132/25/46 130/24/46
f 107/16/47 108/26/47 121/10/47
f 124/27/11 126/27/11 120/28/11 122/28/11
f 111/29/48 142/32/48 141/31/48 108/123/48
f 115/33/13 113/33/13 119/8/13 117/8/13
f 114/7/49 106/5/49 115/35/49 117/34/49
f 102/36/50 193/38/50 103/37/50 114/7/50
f 116/39/51 102/36/51 114/7/51 117/34/51
f 119/8/52 113/33/52 118/9/52
f 123/40/18 125/40/18 126/27/18 124/27/18
f 126/41/52 125/43/52 120/42/52
f 79/44/19 82/46/19 128/46/19 109/124/19
f 109/124/19 128/46/19 127/48/19 112/47/19
f 135/49/46 134/52/46 133/51/46 136/50/46
f 129/53/46 135/56/46 136/55/46 132/54/46
f 109/124/53 112/47/53 129/53/53
f 130/57/54 111/29/54 108/123/54
f 111/29/46 137/60/46 140/59/46 131/58/46
f 132/25/46 110/18/46 129/19/46
f 110/18/46 132/25/46 107/22/46
f 131/58/55 133/62/55 134/61/55 112/47/55
f 112/47/56 134/61/56 135/56/56 129/53/56
f 132/54/46 136/55/46 133/62/46 131/58/46
f 140/63/46 137/66/46 138/65/46 139/64/46
f 130/57/46 138/67/46 137/60/46 111/29/46
f 132/54/46 139/68/46 138/67/46 130/57/46
f 131/58/46 140/59/46 139/68/46 132/54/46
f 80/29/24 85/32/24 142/32/24 111/29/24
f 143/69/25 145/72/25 146/71/25 144/70/25
f 145/72/26 147/74/26 148/73/26 146/71/26
f 147/74/27 149/76/27 150/75/27 148/73/27
f 149/76/28 151/78/28 152/77/28 150/75/28
f 151/78/29 153/80/29 154/79/29 152/77/29
f 144/81/57 176/81/57 181/82/57 158/82/57
f 153/80/31 155/84/31 156/83/31 154/79/31
f 148/73/57 177/73/57 175/71/57 146/71/57
f 156/83/57 182/83/57 180/79/57 154/79/57
f 155/84/32 157/85/32 158/82/32 156/83/32
f 157/85/33 143/86/33 144/81/33 158/82/33
f 159/69/25 161/72/25 162/71/25 160/70/25
f 161/72/26 163/74/26 164/73/26 162/71/26
f 163/74/27 165/76/27 166/75/27 164/73/27
f 165/76/28 167/78/28 168/77/28 166/75/28
f 167/78/29 169/80/29 170/79/29 168/77/29
f 172/83/57 190/83/57 188/79/57 170/79/57
f 169/80/31 171/84/31 172/83/31 170/79/31
f 168/77/57 187/77/57 186/75/57 166/75/57
f 174/82/57 189/82/57 190/83/57 172/83/57
f 171/84/32 173/85/32 174/82/32 172/83/32
f 173/85/33 159/86/33 160/81/33 174/82/33
f 141/87/24 142/90/24 85/89/24 84/88/24
f 127/91/19 128/88/19 82/87/19 83/90/19
f 112/47/19 127/48/19 83/48/19 81/47/19
f 111/125/58 131/126/58 200/94/58 80/93/58
f 108/123/59 141/31/59 84/31/59 78/96/59
f 109/127/60 114/128/60 103/129/60 212/130/60
f 76/131/61 1/132/61 195/133/61 196/134/61
f 105/127/38 121/128/38 108/129/38 78/107/38 217/135/38
f 180/108/57 177/111/57 178/110/57 179/109/57
f 175/112/57 177/111/57 181/114/57 176/113/57
f 177/111/57 180/108/57 182/115/57 181/114/57
f 154/79/57 180/79/57 179/77/57 152/77/57
f 146/71/57 175/71/57 176/70/57 144/70/57
f 150/75/57 178/75/57 177/73/57 148/73/57
f 158/82/57 181/82/57 182/83/57 156/83/57
f 152/77/57 179/77/57 178/75/57 150/75/57
f 188/108/57 185/111/57 186/110/57 187/109/57
f 183/112/57 185/111/57 189/114/57 184/113/57
f 185/111/57 188/108/57 190/115/57 189/114/57
f 164/73/57 185/73/57 183/71/57 162/71/57
f 160/81/57 184/81/57 189/82/57 174/82/57
f 170/79/57 188/79/57 187/77/57 168/77/57
f 162/71/57 183/71/57 184/70/57 160/70/57
f 166/75/57 186/75/57 185/73/57 164/73/57
f 193/136/62 211/137/62 212/138/62 103/139/62
f 192/140/63 213/141/63 210/142/63 77/143/63
f 195/133/64 194/105/64 197/104/64 196/134/64
f 199/144/65 196/134/65 197/104/65 198/145/65
f 193/146/66 102/147/66 199/144/66 198/145/66
f 1/132/67 191/101/67 194/105/67 195/133/67
f 192/103/68 211/148/68 193/146/68 198/145/68 197/104/68
f 102/147/61 76/131/61 196/134/61 199/144/61
f 200/94/69 131/126/69 112/149/69 81/150/69
f 30/95/70 200/94/70 81/150/70 11/151/70
f 206/4/71 207/119/71 204/152/71 205/153/71
f 201/154/72 214/155/72 217/156/72 75/157/72
f 203/158/73 216/159/73 215/160/73 4/161/73
f 206/4/74 209/3/74 208/120/74 207/119/74
f 104/2/75 202/116/75 208/120/75 209/3/75
f 3/162/1 74/1/1 206/4/1 205/153/1
f 203/163/76 3/162/76 205/153/76 204/152/76
f 201/118/77 216/164/77 203/163/77 204/152/77 207/119/77
f 210/165/78 213/166/78 191/167/78 2/168/78
f 212/130/79 77/107/79 79/169/79 109/127/79
f 210/98/80 8/97/80 79/169/80 77/107/80
f 212/170/81 211/171/81 192/140/81 77/143/81
f 215/172/82 216/173/82 201/154/82 75/157/82
f 217/135/38 78/107/38 75/169/38
f 78/107/38 215/106/38 75/169/38
f 217/174/83 214/175/83 202/176/83 105/177/83
