# Blender 4.4.3
# www.blender.org
o SM_RedBus_Car_V1.0
v 2.034601 0.400000 6.412287
v 1.853355 4.640031 6.109298
v 2.034601 0.400000 -6.412287
v 1.853355 4.640031 -6.109298
v 2.034601 2.520015 -6.649575
v 2.034601 2.520015 6.649575
v 2.034602 0.400000 3.711127
v 2.034601 0.400000 2.845342
v 2.034601 0.400000 -2.845342
v 2.034601 0.400000 -3.711126
v 1.853355 4.640031 -3.561465
v 1.853355 5.221252 -2.730596
v 1.853355 5.221252 2.730596
v 1.853355 4.640031 3.561465
v 2.034601 2.520015 -3.711126
v 2.034602 2.520015 3.711127
v 1.871475 4.428083 3.850672
v 1.871475 4.428083 5.889067
v 2.016481 2.731963 6.321316
v 2.016482 2.731963 3.970409
v 1.578462 4.482809 6.149365
v 1.732826 2.677238 6.609508
v 2.034601 0.400000 1.299247
v 2.034601 0.400000 -1.302723
v 1.853355 5.221252 -1.250257
v 1.853355 5.221252 1.246781
v 2.034601 2.520015 -1.302723
v 2.034601 2.520015 1.299247
v 1.867289 4.998681 1.571805
v 1.867289 4.998681 2.687634
v 1.867290 4.506830 3.390746
v 2.020667 2.712797 1.616203
v 2.020667 2.712797 3.517395
v 1.865618 4.522802 -3.411216
v 1.865618 5.025369 -2.692786
v 2.022338 2.689681 -3.540624
v 1.865618 5.025369 -1.536308
v 2.022338 2.689681 -1.581674
v 1.870068 4.444540 -5.906168
v 2.017888 2.715506 -6.346805
v 1.870068 4.444540 -3.828216
v 2.017888 2.715506 -3.950276
v 2.034601 0.400000 -0.001738
v 1.853355 5.221252 -0.001738
v 2.034601 2.520015 -0.001738
v 1.871479 4.951128 0.125737
v 1.871479 4.951128 1.124552
v 2.016477 2.790139 0.125737
v 2.016477 2.790139 1.166525
v 1.871479 4.951128 -1.128029
v 2.016477 2.790139 -1.170002
v 1.871479 4.951128 -0.129214
v 2.016477 2.790139 -0.129214
v 1.017301 1.231319 6.505334
v 1.017301 0.400000 6.412287
v 2.034601 1.231319 6.505334
v -1.813314 1.493874 4.458414
v -1.813314 1.105837 4.071476
v -1.813314 1.494651 5.006404
v -1.813314 1.107712 5.394443
v -1.813314 0.559721 5.395219
v -1.813314 0.171684 5.008281
v -1.813314 0.557845 4.072252
v -1.813314 0.170907 4.460290
v -1.813314 1.174101 3.906007
v -1.018524 1.174101 3.906007
v -1.813314 1.659148 4.389681
v -1.018524 1.659148 4.389681
v -1.813314 1.660119 5.074670
v -1.018524 1.660119 5.074670
v -1.813314 1.176445 5.559716
v -1.018524 1.176445 5.559716
v -1.813314 0.491457 5.560688
v -1.018524 0.491457 5.560688
v -1.813314 0.006410 5.077013
v -1.018524 0.006410 5.077013
v -1.813314 0.005439 4.392025
v -1.018524 0.005439 4.392025
v -1.813314 0.489112 3.906979
v -1.018524 0.489112 3.906979
v 1.018524 0.489112 -4.267946
v 1.813314 0.489112 -4.267946
v 1.018524 0.005439 -3.782900
v 1.813314 0.005439 -3.782900
v 1.018524 0.006410 -3.097911
v 1.813314 0.006410 -3.097911
v 1.018524 0.491457 -2.614236
v 1.813314 0.491457 -2.614236
v 1.018524 1.176445 -2.615208
v 1.813314 1.176445 -2.615208
v 1.018524 1.660119 -3.100255
v 1.813314 1.660119 -3.100255
v 1.018524 1.659148 -3.785243
v 1.813314 1.659148 -3.785243
v 1.018524 1.174101 -4.268917
v 1.813314 1.174101 -4.268917
v 1.813314 0.170907 -3.714634
v 1.813314 0.557845 -4.102673
v 1.813314 0.171684 -3.166644
v 1.813314 0.559721 -2.779706
v 1.813314 1.107712 -2.780482
v 1.813314 1.494651 -3.168520
v 1.813314 1.105837 -4.103448
v 1.813314 1.493874 -3.716510
v 2.034601 1.460008 -6.530931
v 1.464913 0.400000 -6.412287
v 1.464913 1.460008 -6.530931
v -2.034601 0.400000 6.412287
v -1.853355 4.640031 6.109298
v -2.034601 0.400000 -6.412287
v -1.853355 4.640031 -6.109298
v -2.034601 2.520015 -6.649575
v -2.034601 2.520015 6.649575
v -2.034602 0.400000 3.711127
v -2.034601 0.400000 2.845342
v -2.034601 0.400000 -2.845342
v -2.034601 0.400000 -3.711126
v -1.853355 4.640031 -3.561465
v -1.853355 5.221252 -2.730596
v -1.853355 5.221252 2.730596
v -1.853355 4.640031 3.561465
v -2.034601 2.520015 -3.711126
v -2.034602 2.520015 3.711127
v -1.871475 4.428083 3.850672
v -1.871475 4.428083 5.889067
v -2.016481 2.731963 6.321316
v -2.016482 2.731963 3.970409
v -1.578462 4.482809 6.149365
v -1.732826 2.677238 6.609508
v -2.034601 0.400000 1.299247
v -2.034601 0.400000 -1.302723
v -1.853355 5.221252 -1.250257
v -1.853355 5.221252 1.246781
v -2.034601 2.520015 -1.302723
v -2.034601 2.520015 1.299247
v -1.867289 4.998681 1.571805
v -1.867289 4.998681 2.687634
v -1.867290 4.506830 3.390746
v -2.020667 2.712797 1.616203
v -2.020667 2.712797 3.517395
v -1.865618 4.522802 -3.411216
v -1.865618 5.025369 -2.692786
v -2.022338 2.689681 -3.540624
v -1.865618 5.025369 -1.536308
v -2.022338 2.689681 -1.581674
v -1.870068 4.444540 -5.906168
v -2.017888 2.715506 -6.346805
v -1.870068 4.444540 -3.828216
v -2.017888 2.715506 -3.950276
v -2.034601 0.400000 -0.001738
v -1.853355 5.221252 -0.001738
v -2.034601 2.520015 -0.001738
v -1.871479 4.951128 0.125737
v -1.871479 4.951128 1.124552
v -2.016477 2.790139 0.125737
v -2.016477 2.790139 1.166525
v -1.871479 4.951128 -1.128029
v -2.016477 2.790139 -1.170002
v -1.871479 4.951128 -0.129214
v -2.016477 2.790139 -0.129214
v -1.017301 1.231319 6.505334
v -1.017301 0.400000 6.412287
v -2.034601 1.231319 6.505334
v 1.813314 1.493874 4.458414
v 1.813314 1.105837 4.071476
v 1.813314 1.494651 5.006404
v 1.813314 1.107712 5.394443
v 1.813314 0.559721 5.395219
v 1.813314 0.171684 5.008281
v 1.813314 0.557845 4.072252
v 1.813314 0.170907 4.460290
v 1.813314 1.174101 3.906007
v 1.018524 1.174101 3.906007
v 1.813314 1.659148 4.389681
v 1.018524 1.659148 4.389681
v 1.813314 1.660119 5.074670
v 1.018524 1.660119 5.074670
v 1.813314 1.176445 5.559716
v 1.018524 1.176445 5.559716
v 1.813314 0.491457 5.560688
v 1.018524 0.491457 5.560688
v 1.813314 0.006410 5.077013
v 1.018524 0.006410 5.077013
v 1.813314 0.005439 4.392025
v 1.018524 0.005439 4.392025
v 1.813314 0.489112 3.906979
v 1.018524 0.489112 3.906979
v -1.018524 0.489112 -4.267946
v -1.813314 0.489112 -4.267946
v -1.018524 0.005439 -3.782900
v -1.813314 0.005439 -3.782900
v -1.018524 0.006410 -3.097911
v -1.813314 0.006410 -3.097911
v -1.018524 0.491457 -2.614236
v -1.813314 0.491457 -2.614236
v -1.018524 1.176445 -2.615208
v -1.813314 1.176445 -2.615208
v -1.018524 1.660119 -3.100255
v -1.813314 1.660119 -3.100255
v -1.018524 1.659148 -3.785243
v -1.813314 1.659148 -3.785243
v -1.018524 1.174101 -4.268917
v -1.813314 1.174101 -4.268917
v -1.813314 0.170907 -3.714634
v -1.813314 0.557845 -4.102673
v -1.813314 0.171684 -3.166644
v -1.813314 0.559721 -2.779706
v -1.813314 1.107712 -2.780482
v -1.813314 1.494651 -3.168520
v -1.813314 1.105837 -4.103448
v -1.813314 1.493874 -3.716510
v -2.034601 1.460008 -6.530931
v -1.464913 0.400000 -6.412287
v -1.464913 1.460008 -6.530931
vn 0.9964 0.0852 -0.0000
vn 1.0000 -0.0000 -0.0000
vn 0.9981 0.0594 -0.0159
vn 0.9981 0.0594 0.0161
vn 0.9962 0.0862 0.0141
vn 0.9980 0.0625 -0.0000
vn -0.0000 0.2470 0.9690
vn 0.9977 0.0670 -0.0031
vn 0.9978 0.0669 -0.0000
vn 0.9974 0.0721 -0.0000
vn 0.9977 0.0550 0.0385
vn 0.9977 0.0670 0.0031
vn 0.9977 0.0550 -0.0385
vn 0.9962 0.0862 -0.0141
vn -1.0000 -0.0000 -0.0000
vn -0.0000 -0.0014 -1.0000
vn -0.0000 0.7061 -0.7081
vn -0.0000 1.0000 -0.0014
vn -0.0000 0.7081 0.7061
vn -0.0000 0.0014 1.0000
vn -0.0000 -0.7061 0.7081
vn -0.0000 -1.0000 0.0014
vn -0.0000 -0.7081 -0.7061
vn -0.0000 -0.1112 0.9938
vn -0.0000 -0.1112 -0.9938
vn -0.0000 1.0000 -0.0000
vn -0.0000 0.8194 -0.5732
vn -0.0000 0.8194 0.5732
vn -0.0000 0.2470 -0.9690
vn -0.9964 0.0852 -0.0000
vn -0.9981 0.0594 -0.0159
vn -0.9981 0.0594 0.0161
vn -0.9962 0.0862 0.0141
vn -0.9980 0.0625 -0.0000
vn -0.9977 0.0670 -0.0031
vn -0.9978 0.0669 -0.0000
vn -0.9974 0.0721 -0.0000
vn -0.9977 0.0550 0.0385
vn -0.9977 0.0670 0.0031
vn -0.9977 0.0550 -0.0385
vn -0.9962 0.0862 -0.0141
vt 0.917735 0.481419
vt 0.900597 0.481419
vt 0.902079 0.475161
vt 0.915790 0.475161
vt 0.021160 0.037876
vt 0.021160 0.206583
vt 0.005307 0.206583
vt 0.006085 0.104031
vt 0.006587 0.037876
vt 0.189404 0.037876
vt 0.190044 0.122230
vt 0.190684 0.206583
vt 0.174831 0.206583
vt 0.174831 0.037876
vt 0.062876 0.986470
vt 0.023339 0.986470
vt 0.023339 0.905021
vt 0.090185 0.968945
vt 0.986418 0.418829
vt 0.982784 0.481419
vt 0.981418 0.475647
vt 0.984382 0.424601
vt 0.916728 0.418829
vt 0.918032 0.424521
vt 0.918883 0.477486
vt 0.933304 0.498578
vt 0.923324 0.498578
vt 0.923613 0.492007
vt 0.931118 0.492007
vt 0.022317 0.903965
vt 0.022317 0.987852
vt 0.089480 0.987852
vt 0.089480 0.903965
vt 0.914984 0.425086
vt 0.896963 0.418829
vt 0.899171 0.425086
vt 0.900328 0.476777
vt 0.897233 0.423471
vt 0.950100 0.498578
vt 0.950453 0.418829
vt 0.952330 0.423838
vt 0.952025 0.492795
vt 0.020959 0.894094
vt 0.020020 0.845742
vt 0.022396 0.850577
vt 0.023147 0.889259
vt 0.043308 0.807793
vt 0.043308 0.845742
vt 0.020020 0.807793
vt 0.932952 0.418829
vt 0.930820 0.424521
vt 0.966653 0.418829
vt 0.965506 0.423838
vt 0.090185 0.905021
vt 0.960058 0.498578
vt 0.959803 0.492795
vt 0.965647 0.481419
vt 0.964636 0.477958
vt 0.968262 0.424601
vt 0.967441 0.475647
vt 0.034172 0.206583
vt 0.025831 0.037876
vt 0.034172 0.037876
vt 0.161838 0.206583
vt 0.161838 0.037876
vt 0.170160 0.037876
vt 0.066596 0.807793
vt 0.066596 0.845742
vt 0.065657 0.894094
vt 0.063469 0.889259
vt 0.064220 0.850577
vt 0.013889 0.905104
vt 0.013889 0.992222
vt 0.082307 0.992222
vt 0.085182 0.905104
vt 0.041026 0.850577
vt 0.043308 0.894094
vt 0.041026 0.889259
vt 0.084147 0.905104
vt 0.081272 0.992222
vt 0.012855 0.992222
vt 0.012855 0.905104
vt 0.045590 0.850577
vt 0.045590 0.889259
vt 0.045111 0.914108
vt 0.036989 0.914108
vt 0.069476 0.914108
vt 0.061354 0.914108
vt 0.028868 0.914108
vt 0.020746 0.914108
vt 0.012625 0.914108
vt 0.053233 0.914108
vt 0.671431 0.363335
vt 0.606948 0.336625
vt 0.595884 0.363335
vt 0.606948 0.390044
vt 0.660368 0.390044
vt 0.633658 0.401108
vt 0.660368 0.336625
vt 0.633658 0.325561
vt 0.069476 0.976701
vt 0.077597 0.976701
vt 0.077597 0.914108
vt 0.061354 0.976701
vt 0.053233 0.976701
vt 0.045111 0.976701
vt 0.036989 0.976701
vt 0.028868 0.976701
vt 0.020746 0.976701
vt 0.012625 0.976701
vt 0.089155 0.905934
vt 0.089155 0.961135
vt 0.703962 0.377295
vt 0.703962 0.322094
vt 0.771512 0.322094
vt 0.771512 0.377295
vt 0.190044 0.122230
vt 0.941702 0.498578
vt 0.806835 0.320136
vt 0.851868 0.320136
vt 0.851868 0.378791
vt 0.806835 0.378791
vt 0.015946 0.959291
vt 0.067221 0.959291
vt 0.067221 0.977842
vt 0.015946 0.977842
vt 0.006085 0.104031
s 0
f 14/1/1 2/2/1 18/3/1 17/4/1
f 7/5/2 16/6/2 6/7/2 56/8/2 1/9/2
f 3/10/2 105/11/2 5/12/2 15/13/2 10/14/2
f 35/15/3 37/16/3 38/17/3 34/18/3
f 30/15/4 31/18/4 32/17/4 29/16/4
f 5/19/1 4/20/1 39/21/1 40/22/1
f 14/1/5 16/23/5 33/24/5 31/25/5
f 26/26/6 13/27/6 30/28/6 29/29/6
f 20/30/1 17/31/1 18/32/1 19/33/1
f 16/23/1 14/1/1 17/4/1 20/34/1
f 6/35/1 16/23/1 20/34/1 19/36/1
f 2/2/1 6/35/1 19/36/1 18/3/1
f 6/35/7 2/2/7 21/37/7 22/38/7
f 25/39/8 27/40/8 38/41/8 37/42/8
f 26/43/9 28/44/9 49/45/9 47/46/9
f 43/47/2 45/48/2 28/44/2 23/49/2
f 28/50/10 32/51/10 33/24/10 16/23/10
f 13/27/11 14/1/11 31/25/11 30/28/11
f 28/50/12 26/26/12 29/29/12 32/51/12
f 15/52/10 36/53/10 38/41/10 27/40/10
f 34/18/1 38/17/1 36/54/1
f 12/55/6 25/39/6 37/42/6 35/56/6
f 11/57/13 12/55/13 35/56/13 34/58/13
f 15/52/14 11/57/14 34/58/14 36/53/14
f 40/30/1 39/31/1 41/32/1 42/33/1
f 15/52/1 5/19/1 40/22/1 42/59/1
f 4/20/1 11/57/1 41/60/1 39/21/1
f 11/57/1 15/52/1 42/59/1 41/60/1
f 28/61/2 16/6/2 7/5/2 8/62/2 23/63/2
f 15/13/2 27/64/2 24/65/2 9/66/2 10/14/2
f 32/17/1 31/18/1 33/54/1
f 24/67/2 27/68/2 45/48/2 43/47/2
f 27/68/9 25/69/9 50/70/9 51/71/9
f 48/72/9 46/73/9 47/74/9 49/75/9
f 28/44/9 45/48/9 48/76/9 49/45/9
f 44/77/9 26/43/9 47/46/9 46/78/9
f 45/48/9 44/77/9 46/78/9 48/76/9
f 51/79/9 50/80/9 52/81/9 53/82/9
f 45/48/9 27/68/9 51/71/9 53/83/9
f 25/69/9 44/77/9 52/84/9 50/70/9
f 44/77/9 45/48/9 53/83/9 52/84/9
f 71/85/15 60/85/15 61/86/15 73/86/15
f 65/87/15 58/87/15 57/88/15 67/88/15
f 73/86/15 61/86/15 62/89/15 75/89/15
f 77/90/15 64/90/15 63/91/15 79/91/15
f 69/92/15 59/92/15 60/85/15 71/85/15
f 62/93/15 59/94/15 57/95/15 58/96/15
f 64/97/15 62/93/15 58/96/15 63/98/15
f 59/94/15 62/93/15 61/99/15 60/100/15
f 66/101/16 80/102/16 79/103/16 65/87/16
f 68/104/17 66/101/17 65/87/17 67/88/17
f 67/88/15 57/88/15 59/92/15 69/92/15
f 75/89/15 62/89/15 64/90/15 77/90/15
f 70/105/18 68/104/18 67/88/18 69/92/18
f 79/103/15 63/103/15 58/87/15 65/87/15
f 72/106/19 70/105/19 69/92/19 71/85/19
f 74/107/20 72/106/20 71/85/20 73/86/20
f 76/108/21 74/107/21 73/86/21 75/89/21
f 78/109/22 76/108/22 75/89/22 77/90/22
f 80/110/23 78/109/23 77/90/23 79/91/23
f 81/110/23 82/91/23 84/90/23 83/109/23
f 83/109/22 84/90/22 86/89/22 85/108/22
f 85/108/21 86/89/21 88/86/21 87/107/21
f 87/107/20 88/86/20 90/85/20 89/106/20
f 89/106/19 90/85/19 92/92/19 91/105/19
f 82/103/2 96/87/2 103/87/2 98/103/2
f 91/105/18 92/92/18 94/88/18 93/104/18
f 86/89/2 84/90/2 97/90/2 99/89/2
f 94/88/2 92/92/2 102/92/2 104/88/2
f 93/104/17 94/88/17 96/87/17 95/101/17
f 95/101/16 96/87/16 82/103/16 81/102/16
f 102/94/2 101/100/2 100/99/2 99/93/2
f 97/97/2 98/98/2 103/96/2 99/93/2
f 99/93/2 103/96/2 104/95/2 102/94/2
f 92/92/2 90/85/2 101/85/2 102/92/2
f 84/90/2 82/91/2 98/91/2 97/90/2
f 88/86/2 86/89/2 99/89/2 100/86/2
f 96/87/2 94/88/2 104/88/2 103/87/2
f 90/85/2 88/86/2 100/86/2 101/85/2
f 162/111/24 55/111/24 54/112/24 161/112/24
f 54/113/24 55/114/24 1/115/24 56/116/24
f 105/11/25 107/117/25 5/12/25
f 25/39/26 132/39/26 151/118/26 44/118/26
f 3/119/25 106/120/25 107/121/25 105/122/25
f 44/118/26 151/118/26 133/26/26 26/26/26
f 106/123/25 213/124/25 214/125/25 107/126/25
f 112/12/25 5/12/25 107/117/25 214/117/25
f 11/57/27 118/57/27 119/55/27 12/55/27
f 26/26/26 133/26/26 120/27/26 13/27/26
f 12/55/26 119/55/26 132/39/26 25/39/26
f 129/38/7 113/35/7 6/35/7 22/38/7
f 14/1/26 121/1/26 109/2/26 2/2/26
f 13/27/28 120/27/28 121/1/28 14/1/28
f 6/7/24 113/7/24 163/8/24 161/127/24 54/127/24 56/8/24
f 2/2/7 109/2/7 128/37/7 21/37/7
f 112/19/29 111/20/29 4/20/29 5/19/29
f 4/20/26 111/20/26 118/57/26 11/57/26
f 121/1/30 124/4/30 125/3/30 109/2/30
f 114/5/15 108/9/15 163/8/15 113/7/15 123/6/15
f 110/10/15 117/14/15 122/13/15 112/12/15 212/11/15
f 142/15/31 141/18/31 145/17/31 144/16/31
f 137/15/32 136/16/32 139/17/32 138/18/32
f 112/19/30 147/22/30 146/21/30 111/20/30
f 121/1/33 138/25/33 140/24/33 123/23/33
f 133/26/34 136/29/34 137/28/34 120/27/34
f 127/30/30 126/33/30 125/32/30 124/31/30
f 123/23/30 127/34/30 124/4/30 121/1/30
f 113/35/30 126/36/30 127/34/30 123/23/30
f 109/2/30 125/3/30 126/36/30 113/35/30
f 113/35/7 129/38/7 128/37/7 109/2/7
f 132/39/35 144/42/35 145/41/35 134/40/35
f 133/43/36 154/46/36 156/45/36 135/44/36
f 150/47/15 130/49/15 135/44/15 152/48/15
f 135/50/37 123/23/37 140/24/37 139/51/37
f 120/27/38 137/28/38 138/25/38 121/1/38
f 135/50/39 139/51/39 136/29/39 133/26/39
f 122/52/37 134/40/37 145/41/37 143/53/37
f 141/18/30 143/54/30 145/17/30
f 119/55/34 142/56/34 144/42/34 132/39/34
f 118/57/40 141/58/40 142/56/40 119/55/40
f 122/52/41 143/53/41 141/58/41 118/57/41
f 147/30/30 149/33/30 148/32/30 146/31/30
f 122/52/30 149/59/30 147/22/30 112/19/30
f 111/20/30 146/21/30 148/60/30 118/57/30
f 118/57/30 148/60/30 149/59/30 122/52/30
f 135/61/15 130/63/15 115/62/15 114/5/15 123/6/15
f 122/13/15 117/14/15 116/66/15 131/65/15 134/64/15
f 139/17/30 140/54/30 138/18/30
f 131/67/15 150/47/15 152/48/15 134/68/15
f 134/68/36 158/71/36 157/70/36 132/69/36
f 155/72/36 156/75/36 154/74/36 153/73/36
f 135/44/36 156/45/36 155/76/36 152/48/36
f 151/77/36 153/78/36 154/46/36 133/43/36
f 152/48/36 155/76/36 153/78/36 151/77/36
f 158/79/36 160/82/36 159/81/36 157/80/36
f 152/48/36 160/83/36 158/71/36 134/68/36
f 132/69/36 157/70/36 159/84/36 151/77/36
f 151/77/36 159/84/36 160/83/36 152/48/36
f 178/85/2 180/86/2 168/86/2 167/85/2
f 172/87/2 174/88/2 164/88/2 165/87/2
f 180/86/2 182/89/2 169/89/2 168/86/2
f 184/90/2 186/91/2 170/91/2 171/90/2
f 176/92/2 178/85/2 167/85/2 166/92/2
f 169/93/2 165/96/2 164/95/2 166/94/2
f 171/97/2 170/98/2 165/96/2 169/93/2
f 166/94/2 167/100/2 168/99/2 169/93/2
f 173/101/16 172/87/16 186/103/16 187/102/16
f 175/104/17 174/88/17 172/87/17 173/101/17
f 174/88/2 176/92/2 166/92/2 164/88/2
f 182/89/2 184/90/2 171/90/2 169/89/2
f 177/105/18 176/92/18 174/88/18 175/104/18
f 186/103/2 172/87/2 165/87/2 170/103/2
f 179/106/19 178/85/19 176/92/19 177/105/19
f 181/107/20 180/86/20 178/85/20 179/106/20
f 183/108/21 182/89/21 180/86/21 181/107/21
f 185/109/22 184/90/22 182/89/22 183/108/22
f 187/110/23 186/91/23 184/90/23 185/109/23
f 188/110/23 190/109/23 191/90/23 189/91/23
f 190/109/22 192/108/22 193/89/22 191/90/22
f 192/108/21 194/107/21 195/86/21 193/89/21
f 194/107/20 196/106/20 197/85/20 195/86/20
f 196/106/19 198/105/19 199/92/19 197/85/19
f 189/103/15 205/103/15 210/87/15 203/87/15
f 198/105/18 200/104/18 201/88/18 199/92/18
f 193/89/15 206/89/15 204/90/15 191/90/15
f 201/88/15 211/88/15 209/92/15 199/92/15
f 200/104/17 202/101/17 203/87/17 201/88/17
f 202/101/16 188/102/16 189/103/16 203/87/16
f 209/94/15 206/93/15 207/99/15 208/100/15
f 204/97/15 206/93/15 210/96/15 205/98/15
f 206/93/15 209/94/15 211/95/15 210/96/15
f 199/92/15 209/92/15 208/85/15 197/85/15
f 191/90/15 204/90/15 205/91/15 189/91/15
f 195/86/15 207/86/15 206/89/15 193/89/15
f 203/87/15 210/87/15 211/88/15 201/88/15
f 197/85/15 208/85/15 207/86/15 195/86/15
f 161/113/24 163/116/24 108/115/24 162/114/24
f 212/11/25 112/12/25 214/117/25
f 110/119/25 212/122/25 214/121/25 213/120/25
f 21/31/7 128/31/7 129/30/7 22/30/7
