# Blender 4.4.3
# www.blender.org
o SM_TealTruck_Car_V1.0
v 2.000000 0.500000 5.475476
v 2.000000 1.844266 5.475476
v 2.000000 0.500000 -5.950000
v 2.000000 0.500000 3.120712
v 2.000000 1.991308 3.120712
v 2.000000 0.500000 2.588636
v 2.000000 3.422171 2.588636
v 2.000000 1.991308 4.298094
v 0.804042 0.500000 3.709403
v 2.000000 0.500000 3.709403
v 2.000000 0.500000 4.886786
v 2.000000 1.245654 4.298094
v 0.804042 0.500000 4.886786
v 0.804042 1.245654 4.298094
v 2.000000 0.500000 -1.680682
v 2.000000 4.684503 -1.680682
v 2.000000 4.684503 -3.815341
v 2.000000 0.500000 -3.815341
v 2.000000 4.684503 -2.748011
v 2.000000 4.684503 -4.882670
v 2.000000 1.309622 -2.748011
v 2.000000 1.309622 -3.815341
v 2.000000 1.309622 -4.882670
v 2.000000 1.309622 -1.680682
v 2.000000 1.309622 -5.950000
v 2.000000 0.500000 -3.441775
v 2.000000 0.500000 -2.054247
v 2.000000 0.500000 -5.576435
v 2.000000 0.500000 -4.188906
v 0.847766 1.309622 -2.748011
v 0.847766 1.309622 -4.882670
v 0.847766 0.500000 -3.441775
v 0.847766 0.500000 -2.054247
v 0.847766 0.500000 -5.576435
v 0.847766 0.500000 -4.188906
v 1.303004 0.315314 3.760015
v 1.817558 0.315314 3.760015
v 1.303004 0.002179 4.074039
v 1.817558 0.002180 4.074039
v 1.303004 0.002808 4.517507
v 1.817558 0.002808 4.517507
v 1.303004 0.316832 4.830642
v 1.817558 0.316832 4.830642
v 1.303004 0.760300 4.830013
v 1.817558 0.760300 4.830013
v 1.303004 1.073435 4.515990
v 1.817558 1.073435 4.515990
v 1.303004 1.072806 4.072522
v 1.817558 1.072806 4.072522
v 1.303004 0.758782 3.759387
v 1.817558 0.758782 3.759387
v 1.817558 0.109305 4.118235
v 1.817558 0.359813 3.867015
v 1.817558 0.109808 4.473009
v 1.817558 0.361027 4.723516
v 1.817558 0.715801 4.723013
v 1.817558 0.966309 4.471794
v 1.817558 0.714587 3.866513
v 1.817558 0.965806 4.117020
v 1.303004 0.315314 -3.283048
v 1.817558 0.315314 -3.283048
v 1.303004 0.002179 -2.969025
v 1.817558 0.002180 -2.969025
v 1.303004 0.002808 -2.525557
v 1.817558 0.002808 -2.525557
v 1.303004 0.316832 -2.212422
v 1.817558 0.316832 -2.212422
v 1.303004 0.760300 -2.213051
v 1.817558 0.760300 -2.213051
v 1.303004 1.073435 -2.527074
v 1.817558 1.073435 -2.527074
v 1.303004 1.072806 -2.970542
v 1.817558 1.072806 -2.970542
v 1.303004 0.758782 -3.283677
v 1.817558 0.758782 -3.283677
v 1.817558 0.109305 -2.924829
v 1.817558 0.359813 -3.176049
v 1.817558 0.109808 -2.570055
v 1.817558 0.361027 -2.319548
v 1.817558 0.715801 -2.320050
v 1.817558 0.966309 -2.571270
v 1.817558 0.714587 -3.176551
v 1.817558 0.965806 -2.926044
v 1.303004 0.315314 -5.418780
v 1.817558 0.315314 -5.418780
v 1.303004 0.002179 -5.104757
v 1.817558 0.002180 -5.104757
v 1.303004 0.002808 -4.661289
v 1.817558 0.002808 -4.661289
v 1.303004 0.316832 -4.348154
v 1.817558 0.316832 -4.348154
v 1.303004 0.760300 -4.348783
v 1.817558 0.760300 -4.348783
v 1.303004 1.073435 -4.662806
v 1.817558 1.073435 -4.662806
v 1.303004 1.072806 -5.106274
v 1.817558 1.072806 -5.106274
v 1.303004 0.758782 -5.419409
v 1.817558 0.758782 -5.419409
v 1.817558 0.109305 -5.060561
v 1.817558 0.359813 -5.311781
v 1.817558 0.109808 -4.705787
v 1.817558 0.361027 -4.455280
v 1.817558 0.715801 -4.455782
v 1.817558 0.966309 -4.707002
v 1.817558 0.714587 -5.312283
v 1.817558 0.965806 -5.061776
v 2.000000 3.422171 0.839310
v 2.000000 0.500000 0.839311
v 2.000000 2.212865 0.839311
v 2.000000 2.212865 2.886067
v 1.736443 2.131178 3.081432
v 1.736443 3.282301 2.633750
v 2.000000 3.250155 0.959353
v 2.000000 3.250155 2.468594
v 2.000000 2.333903 1.216490
v 2.000000 2.333903 2.766024
v 0.000000 2.131178 3.081432
v 0.000000 3.282301 2.633750
v 0.000000 0.500000 5.475476
v 0.000000 1.991308 3.120712
v 0.000000 3.422171 2.588636
v 0.000000 0.500000 -5.950000
v 0.000000 1.844266 5.475476
v -2.000000 0.500000 5.475476
v -2.000000 1.844266 5.475476
v -2.000000 0.500000 -5.950000
v -2.000000 4.684503 -5.950000
v -2.000000 0.500000 3.120712
v -2.000000 1.991308 3.120712
v -2.000000 0.500000 2.588636
v -2.000000 3.422171 2.588636
v -2.000000 1.991308 4.298094
v -0.804042 0.500000 3.709403
v -2.000000 0.500000 3.709403
v -2.000000 0.500000 4.886786
v -2.000000 1.245654 4.298094
v -0.804042 0.500000 4.886786
v -0.804042 1.245654 4.298094
v -2.000000 0.500000 -1.680682
v -2.000000 4.684503 -1.680682
v -2.000000 4.684503 -3.815341
v -2.000000 0.500000 -3.815341
v -2.000000 4.684503 -2.748011
v -2.000000 4.684503 -4.882670
v -2.000000 1.309622 -2.748011
v -2.000000 1.309622 -3.815341
v -2.000000 1.309622 -4.882670
v -2.000000 1.309622 -1.680682
v -2.000000 0.500000 -3.441775
v -2.000000 0.500000 -2.054247
v -2.000000 0.500000 -5.576435
v -2.000000 0.500000 -4.188906
v -0.847766 1.309622 -2.748011
v -0.847766 1.309622 -4.882670
v -0.847766 0.500000 -3.441775
v -0.847766 0.500000 -2.054247
v -0.847766 0.500000 -5.576435
v -0.847766 0.500000 -4.188906
v -1.303004 0.315314 3.760015
v -1.817558 0.315314 3.760015
v -1.303004 0.002179 4.074039
v -1.817558 0.002180 4.074039
v -1.303004 0.002808 4.517507
v -1.817558 0.002808 4.517507
v -1.303004 0.316832 4.830642
v -1.817558 0.316832 4.830642
v -1.303004 0.760300 4.830013
v -1.817558 0.760300 4.830013
v -1.303004 1.073435 4.515990
v -1.817558 1.073435 4.515990
v -1.303004 1.072806 4.072522
v -1.817558 1.072806 4.072522
v -1.303004 0.758782 3.759387
v -1.817558 0.758782 3.759387
v -1.817558 0.109305 4.118235
v -1.817558 0.359813 3.867015
v -1.817558 0.109808 4.473009
v -1.817558 0.361027 4.723516
v -1.817558 0.715801 4.723013
v -1.817558 0.966309 4.471794
v -1.817558 0.714587 3.866513
v -1.817558 0.965806 4.117020
v -1.303004 0.315314 -3.283048
v -1.817558 0.315314 -3.283048
v -1.303004 0.002179 -2.969025
v -1.817558 0.002180 -2.969025
v -1.303004 0.002808 -2.525557
v -1.817558 0.002808 -2.525557
v -1.303004 0.316832 -2.212422
v -1.817558 0.316832 -2.212422
v -1.303004 0.760300 -2.213051
v -1.817558 0.760300 -2.213051
v -1.303004 1.073435 -2.527074
v -1.817558 1.073435 -2.527074
v -1.303004 1.072806 -2.970542
v -1.817558 1.072806 -2.970542
v -1.303004 0.758782 -3.283677
v -1.817558 0.758782 -3.283677
v -1.817558 0.109305 -2.924829
v -1.817558 0.359813 -3.176049
v -1.817558 0.109808 -2.570055
v -1.817558 0.361027 -2.319548
v -1.817558 0.715801 -2.320050
v -1.817558 0.966309 -2.571270
v -1.817558 0.714587 -3.176551
v -1.817558 0.965806 -2.926044
v -1.303004 0.315314 -5.418780
v -1.817558 0.315314 -5.418780
v -1.303004 0.002179 -5.104757
v -1.817558 0.002180 -5.104757
v -1.303004 0.002808 -4.661289
v -1.817558 0.002808 -4.661289
v -1.303004 0.316832 -4.348154
v -1.817558 0.316832 -4.348154
v -1.303004 0.760300 -4.348783
v -1.817558 0.760300 -4.348783
v -1.303004 1.073435 -4.662806
v -1.817558 1.073435 -4.662806
v -1.303004 1.072806 -5.106274
v -1.817558 1.072806 -5.106274
v -1.303004 0.758782 -5.419409
v -1.817558 0.758782 -5.419409
v -1.817558 0.109305 -5.060561
v -1.817558 0.359813 -5.311781
v -1.817558 0.109808 -4.705787
v -1.817558 0.361027 -4.455280
v -1.817558 0.715801 -4.455782
v -1.817558 0.966309 -4.707002
v -1.817558 0.714587 -5.312283
v -1.817558 0.965806 -5.061776
v -2.000000 3.422171 0.839310
v -2.000000 0.500000 0.839311
v -2.000000 2.212865 0.839311
v -2.000000 2.212865 2.886067
v -1.736443 2.131178 3.081432
v -1.736443 3.282301 2.633750
v -2.000000 3.250155 0.959353
v -2.000000 3.250155 2.468594
v -2.000000 2.333903 1.216490
v -2.000000 2.333903 2.766024
v 2.000000 1.245654 5.475476
v -2.000000 1.245654 5.475476
v 0.000000 1.245654 5.475476
v 1.837315 1.215327 5.675476
v 1.837315 0.530327 5.675476
v 0.000000 0.530327 5.675476
v -1.837315 1.215327 5.675476
v -1.837315 0.530327 5.675476
v 0.000000 1.215327 5.675476
v 1.000000 1.245654 5.475476
v -1.000000 1.844266 5.475476
v 1.000000 1.844266 5.475476
v -1.000000 1.245654 5.475476
v 0.000000 3.422171 0.839310
v 2.000000 0.904811 -5.950000
v 0.000000 0.904811 -5.950000
v -2.000000 0.904811 -5.950000
v 1.000000 0.904811 -5.950000
v -1.000000 0.904811 -5.950000
v 1.000000 1.309622 -5.950000
v 1.715510 0.904811 -6.250000
v 1.715510 0.500000 -6.250000
v 0.000000 0.500000 -6.250000
v -1.715510 0.904811 -6.250000
v -1.715510 0.500000 -6.250000
v 0.000000 0.904811 -6.250000
v -0.857755 0.904811 -6.250000
v 0.857755 0.904811 -6.250000
v 2.000000 4.684503 -5.950000
v 0.000000 4.684503 -5.950000
v 0.000000 1.309622 -5.950000
v -2.000000 1.309622 -5.950000
v -1.000000 1.309622 -5.950000
v 1.764633 4.436273 -5.950000
v 0.882317 1.458560 -5.950000
v 1.764633 1.458560 -5.950000
v 2.000000 4.684503 0.839310
v 0.000000 4.684503 -1.680682
v 0.000000 4.684503 0.839310
v -2.000000 4.684503 0.839310
v 0.000000 4.436273 -5.950000
v -0.882317 1.458560 -5.950000
v -1.764633 1.458560 -5.950000
v 0.000000 1.458560 -5.950000
v -1.764633 4.436273 -5.950000
vn -0.0000 0.3625 0.9320
vn 1.0000 -0.0000 -0.0000
vn -0.0000 -0.6197 -0.7849
vn -0.0000 -0.6197 0.7849
vn -0.0000 -0.6507 -0.7593
vn -0.0000 -0.6507 0.7593
vn -0.0000 -0.7081 -0.7061
vn -0.0000 -1.0000 0.0014
vn -0.0000 -0.7061 0.7081
vn -0.0000 0.0014 1.0000
vn -0.0000 0.7081 0.7061
vn -0.0000 1.0000 -0.0014
vn -0.0000 0.7061 -0.7081
vn -0.0000 -0.0014 -1.0000
vn -0.0000 0.2704 0.9628
vn -0.0000 0.9981 0.0623
vn -0.7758 -0.0000 0.6310
vn 0.0103 0.3548 0.9349
vn -0.0000 1.0000 -0.0000
vn -0.0000 0.3070 0.9517
vn -1.0000 -0.0000 -0.0000
vn 0.0366 0.9950 0.0932
vn 0.7758 -0.0000 0.6310
vn -0.0103 0.3548 0.9349
vn -0.0000 -0.0000 1.0000
vn -0.0000 -0.9887 0.1499
vn -0.0000 0.9887 0.1499
vn -0.0366 0.9950 0.0932
vn -0.0000 -0.0000 -1.0000
vn -0.0000 -1.0000 -0.0000
vn 0.7256 -0.0000 -0.6881
vn -0.7256 -0.0000 -0.6881
vt 0.050555 0.905346
vt 0.050555 0.977307
vt 0.080229 0.977307
vt 0.080229 0.905346
vt 0.341795 0.805995
vt 0.341795 0.842382
vt 0.318224 0.842382
vt 0.294653 0.805995
vt 0.294653 0.842382
vt 0.294653 0.824189
vt 0.318224 0.824189
vt 0.330009 0.805995
vt 0.352447 0.805995
vt 0.346493 0.847788
vt 0.954174 0.709596
vt 0.954174 0.725857
vt 0.985416 0.745023
vt 0.985416 0.709596
vt 0.055000 0.981180
vt 0.006799 0.975839
vt 0.021087 0.904233
vt 0.047812 0.930187
vt 0.092292 0.963921
vt 0.075203 0.904233
vt 0.306438 0.805995
vt 0.901245 0.709596
vt 0.901245 0.717727
vt 0.901245 0.725857
vt 0.914477 0.725857
vt 0.905876 0.709596
vt 0.927710 0.709596
vt 0.927710 0.725857
vt 0.940942 0.725857
vt 0.932341 0.709596
vt 0.901245 0.780449
vt 0.914477 0.780449
vt 0.927710 0.780449
vt 0.940942 0.780449
vt 0.954174 0.780449
vt 0.949543 0.709596
vt 0.923078 0.709596
vt 0.012625 0.976701
vt 0.012625 0.914108
vt 0.020746 0.914108
vt 0.020746 0.976701
vt 0.028868 0.914108
vt 0.028868 0.976701
vt 0.036989 0.914108
vt 0.036989 0.976701
vt 0.045111 0.914108
vt 0.045111 0.976701
vt 0.053233 0.914108
vt 0.053233 0.976701
vt 0.077597 0.914108
vt 0.069476 0.914108
vt 0.061354 0.914108
vt 0.061354 0.976701
vt 0.069476 0.976701
vt 0.077597 0.976701
vt 0.606948 0.336625
vt 0.633658 0.325561
vt 0.660368 0.336625
vt 0.671431 0.363335
vt 0.660368 0.390044
vt 0.633658 0.401108
vt 0.606948 0.390044
vt 0.595884 0.363335
vt 0.387468 0.805995
vt 0.387468 0.847788
vt 0.985416 0.780449
vt 0.352447 0.892068
vt 0.348896 0.850741
vt 0.354850 0.887871
vt 0.342581 0.845795
vt 0.589745 0.396446
vt 0.589745 0.321218
vt 0.593371 0.324277
vt 0.593371 0.393386
vt 0.351544 0.888656
vt 0.020981 0.904814
vt 0.079823 0.904814
vt 0.079823 0.976999
vt 0.020981 0.976999
vt 0.387468 0.892068
vt 0.385065 0.887871
vt 0.379917 0.850741
vt 0.673939 0.399196
vt 0.654672 0.399196
vt 0.651931 0.399196
vt 0.668457 0.399196
vt 0.678897 0.321218
vt 0.678897 0.396446
vt 0.675271 0.393386
vt 0.675271 0.324277
vt 0.616137 0.399196
vt 0.596870 0.399196
vt 0.602352 0.399196
vt 0.618878 0.399196
vt 0.634321 0.324277
vt 0.634321 0.393386
vt 0.044665 0.904671
vt 0.081909 0.904671
vt 0.081909 0.965962
vt 0.044665 0.965962
vt 0.200222 0.076382
vt 0.282420 0.076382
vt 0.282420 0.137673
vt 0.200222 0.137673
vt 0.634321 0.321218
vt 0.656609 0.396446
vt 0.634321 0.396446
vt 0.612033 0.396446
vt 0.200622 0.137673
vt 0.200622 0.076382
vt 0.282820 0.076382
vt 0.282820 0.137673
vt 0.007422 0.965962
vt 0.007422 0.904671
vt 0.602352 0.325471
vt 0.635404 0.325471
vt 0.635404 0.399196
vt 0.939204 0.746209
vt 0.960610 0.746209
vt 0.960610 0.754874
vt 0.939204 0.754874
vt 0.795168 0.320866
vt 0.865848 0.320866
vt 0.865848 0.392408
vt 0.795168 0.392408
vt 0.794240 0.392408
vt 0.794240 0.320866
vt 0.864920 0.320866
vt 0.864920 0.392408
vt 0.917798 0.754874
vt 0.917798 0.746209
vt 0.668457 0.325471
vt 0.596870 0.325471
vt 0.673939 0.325471
vt 0.941302 0.712281
vt 0.963844 0.712281
vt 0.961192 0.715639
vt 0.941302 0.715639
vt 0.635701 0.320089
vt 0.653439 0.320089
vt 0.671177 0.320089
vt 0.671177 0.412233
vt 0.635701 0.412233
vt 0.600225 0.412233
vt 0.600225 0.320089
vt 0.617963 0.320089
vt 0.986387 0.712281
vt 0.986387 0.788358
vt 0.981081 0.782763
vt 0.981081 0.715639
vt 0.941302 0.788358
vt 0.896218 0.788358
vt 0.901524 0.782763
vt 0.941302 0.782763
vt 0.896218 0.712281
vt 0.918760 0.712281
vt 0.921413 0.715639
vt 0.901524 0.715639
vt 0.988499 0.755720
vt 0.925795 0.755720
vt 0.925795 0.753528
vt 0.941471 0.753528
vt 0.957147 0.753528
vt 0.972823 0.753528
vt 0.988499 0.753528
vt 0.888783 0.755720
vt 0.888783 0.753528
vt 0.988499 0.757913
vt 0.972823 0.757913
vt 0.957147 0.757913
vt 0.941471 0.757913
vt 0.925795 0.757913
vt 0.888783 0.757913
vt 0.912446 0.767503
vt 0.939439 0.767503
vt 0.939439 0.784539
vt 0.912446 0.784539
vt 0.966431 0.767503
vt 0.966431 0.784539
s 0
f 119/1/1 118/2/1 112/3/1 113/4/1
f 4/5/2 5/6/2 8/7/2
f 1/8/2 8/7/2 2/9/2 242/10/2
f 8/7/2 12/11/2 10/12/2 4/5/2
f 6/13/2 111/14/2 5/6/2 4/5/2
f 15/15/2 24/16/2 110/17/2 109/18/2
f 12/19/3 11/20/3 13/21/3 14/22/3
f 10/23/4 12/19/4 14/22/4 9/24/4
f 14/22/2 13/21/2 9/24/2
f 11/25/2 12/11/2 8/7/2 1/8/2
f 3/26/2 256/27/2 25/28/2 23/29/2 28/30/2
f 18/31/2 22/32/2 21/33/2 26/34/2
f 23/29/2 25/28/2 270/35/2 20/36/2
f 22/32/2 23/29/2 20/36/2 17/37/2
f 21/33/2 22/32/2 17/37/2 19/38/2
f 24/16/2 21/33/2 19/38/2 16/39/2
f 27/40/2 21/33/2 24/16/2 15/15/2
f 29/41/2 23/29/2 22/32/2 18/31/2
f 23/19/5 29/20/5 35/21/5 31/22/5
f 21/19/5 27/20/5 33/21/5 30/22/5
f 28/23/6 23/19/6 31/22/6 34/24/6
f 26/23/6 21/19/6 30/22/6 32/24/6
f 30/22/2 33/21/2 32/24/2
f 31/22/2 35/21/2 34/24/2
f 36/42/7 37/43/7 39/44/7 38/45/7
f 38/45/8 39/44/8 41/46/8 40/47/8
f 40/47/9 41/46/9 43/48/9 42/49/9
f 42/49/10 43/48/10 45/50/10 44/51/10
f 44/51/11 45/50/11 47/52/11 46/53/11
f 37/54/2 51/55/2 58/55/2 53/54/2
f 46/53/12 47/52/12 49/56/12 48/57/12
f 41/46/2 39/44/2 52/44/2 54/46/2
f 49/56/2 47/52/2 57/52/2 59/56/2
f 48/57/13 49/56/13 51/55/13 50/58/13
f 50/58/14 51/55/14 37/54/14 36/59/14
f 57/60/2 56/61/2 55/62/2 54/63/2
f 52/64/2 53/65/2 58/66/2 54/63/2
f 54/63/2 58/66/2 59/67/2 57/60/2
f 47/52/2 45/50/2 56/50/2 57/52/2
f 39/44/2 37/43/2 53/43/2 52/44/2
f 43/48/2 41/46/2 54/46/2 55/48/2
f 51/55/2 49/56/2 59/56/2 58/55/2
f 45/50/2 43/48/2 55/48/2 56/50/2
f 60/42/7 61/43/7 63/44/7 62/45/7
f 62/45/8 63/44/8 65/46/8 64/47/8
f 64/47/9 65/46/9 67/48/9 66/49/9
f 66/49/10 67/48/10 69/50/10 68/51/10
f 68/51/11 69/50/11 71/52/11 70/53/11
f 61/54/2 75/55/2 82/55/2 77/54/2
f 70/53/12 71/52/12 73/56/12 72/57/12
f 65/46/2 63/44/2 76/44/2 78/46/2
f 73/56/2 71/52/2 81/52/2 83/56/2
f 72/57/13 73/56/13 75/55/13 74/58/13
f 74/58/14 75/55/14 61/54/14 60/59/14
f 81/60/2 80/61/2 79/62/2 78/63/2
f 76/64/2 77/65/2 82/66/2 78/63/2
f 78/63/2 82/66/2 83/67/2 81/60/2
f 71/52/2 69/50/2 80/50/2 81/52/2
f 63/44/2 61/43/2 77/43/2 76/44/2
f 67/48/2 65/46/2 78/46/2 79/48/2
f 75/55/2 73/56/2 83/56/2 82/55/2
f 69/50/2 67/48/2 79/48/2 80/50/2
f 84/42/7 85/43/7 87/44/7 86/45/7
f 86/45/8 87/44/8 89/46/8 88/47/8
f 88/47/9 89/46/9 91/48/9 90/49/9
f 90/49/10 91/48/10 93/50/10 92/51/10
f 92/51/11 93/50/11 95/52/11 94/53/11
f 85/54/2 99/55/2 106/55/2 101/54/2
f 94/53/12 95/52/12 97/56/12 96/57/12
f 89/46/2 87/44/2 100/44/2 102/46/2
f 97/56/2 95/52/2 105/52/2 107/56/2
f 96/57/13 97/56/13 99/55/13 98/58/13
f 98/58/14 99/55/14 85/54/14 84/59/14
f 105/60/2 104/61/2 103/62/2 102/63/2
f 100/64/2 101/65/2 106/66/2 102/63/2
f 102/63/2 106/66/2 107/67/2 105/60/2
f 95/52/2 93/50/2 104/50/2 105/52/2
f 87/44/2 85/43/2 101/43/2 100/44/2
f 91/48/2 89/46/2 102/46/2 103/48/2
f 99/55/2 97/56/2 107/56/2 106/55/2
f 93/50/2 91/48/2 103/48/2 104/50/2
f 109/68/2 110/69/2 111/14/2 6/13/2
f 110/17/2 24/16/2 16/39/2 108/70/2
f 5/6/2 111/14/2 7/71/2
f 7/71/2 111/14/2 117/72/2 115/73/2
f 121/6/15 5/6/15 112/74/15 118/74/15
f 121/6/16 124/9/16 253/9/16
f 243/75/17 125/76/17 249/77/17 248/78/17
f 5/6/18 7/71/18 113/79/18 112/74/18
f 117/80/2 116/81/2 114/82/2 115/83/2
f 110/69/2 108/84/2 114/85/2 116/86/2
f 111/14/2 110/69/2 116/86/2 117/72/2
f 108/84/2 7/71/2 115/73/2 114/85/2
f 258/87/19 260/88/19 268/89/19 265/90/19
f 7/71/20 122/71/20 119/79/20 113/79/20
f 119/1/1 237/4/1 236/3/1 118/2/1
f 129/5/21 133/7/21 130/6/21
f 125/8/21 243/10/21 126/9/21 133/7/21
f 133/7/21 129/5/21 135/12/21 137/11/21
f 131/13/21 129/5/21 130/6/21 235/14/21
f 140/15/21 233/18/21 234/17/21 149/16/21
f 137/19/3 139/22/3 138/21/3 136/20/3
f 135/23/4 134/24/4 139/22/4 137/19/4
f 139/22/21 134/24/21 138/21/21
f 136/25/21 125/8/21 133/7/21 137/11/21
f 127/26/21 152/30/21 148/29/21 273/28/21 258/27/21
f 143/31/21 150/34/21 146/33/21 147/32/21
f 148/29/21 145/36/21 128/35/21 273/28/21
f 147/32/21 142/37/21 145/36/21 148/29/21
f 146/33/21 144/38/21 142/37/21 147/32/21
f 149/16/21 141/39/21 144/38/21 146/33/21
f 151/40/21 140/15/21 149/16/21 146/33/21
f 153/41/21 143/31/21 147/32/21 148/29/21
f 148/19/5 155/22/5 159/21/5 153/20/5
f 146/19/5 154/22/5 157/21/5 151/20/5
f 152/23/6 158/24/6 155/22/6 148/19/6
f 150/23/6 156/24/6 154/22/6 146/19/6
f 154/22/21 156/24/21 157/21/21
f 155/22/21 158/24/21 159/21/21
f 160/42/7 162/45/7 163/44/7 161/43/7
f 162/45/8 164/47/8 165/46/8 163/44/8
f 164/47/9 166/49/9 167/48/9 165/46/9
f 166/49/10 168/51/10 169/50/10 167/48/10
f 168/51/11 170/53/11 171/52/11 169/50/11
f 161/54/21 177/54/21 182/55/21 175/55/21
f 170/53/12 172/57/12 173/56/12 171/52/12
f 165/46/21 178/46/21 176/44/21 163/44/21
f 173/56/21 183/56/21 181/52/21 171/52/21
f 172/57/13 174/58/13 175/55/13 173/56/13
f 174/58/14 160/59/14 161/54/14 175/55/14
f 181/60/21 178/63/21 179/62/21 180/61/21
f 176/64/21 178/63/21 182/66/21 177/65/21
f 178/63/21 181/60/21 183/67/21 182/66/21
f 171/52/21 181/52/21 180/50/21 169/50/21
f 163/44/21 176/44/21 177/43/21 161/43/21
f 167/48/21 179/48/21 178/46/21 165/46/21
f 175/55/21 182/55/21 183/56/21 173/56/21
f 169/50/21 180/50/21 179/48/21 167/48/21
f 184/42/7 186/45/7 187/44/7 185/43/7
f 186/45/8 188/47/8 189/46/8 187/44/8
f 188/47/9 190/49/9 191/48/9 189/46/9
f 190/49/10 192/51/10 193/50/10 191/48/10
f 192/51/11 194/53/11 195/52/11 193/50/11
f 185/54/21 201/54/21 206/55/21 199/55/21
f 194/53/12 196/57/12 197/56/12 195/52/12
f 189/46/21 202/46/21 200/44/21 187/44/21
f 197/56/21 207/56/21 205/52/21 195/52/21
f 196/57/13 198/58/13 199/55/13 197/56/13
f 198/58/14 184/59/14 185/54/14 199/55/14
f 205/60/21 202/63/21 203/62/21 204/61/21
f 200/64/21 202/63/21 206/66/21 201/65/21
f 202/63/21 205/60/21 207/67/21 206/66/21
f 195/52/21 205/52/21 204/50/21 193/50/21
f 187/44/21 200/44/21 201/43/21 185/43/21
f 191/48/21 203/48/21 202/46/21 189/46/21
f 199/55/21 206/55/21 207/56/21 197/56/21
f 193/50/21 204/50/21 203/48/21 191/48/21
f 208/42/7 210/45/7 211/44/7 209/43/7
f 210/45/8 212/47/8 213/46/8 211/44/8
f 212/47/9 214/49/9 215/48/9 213/46/9
f 214/49/10 216/51/10 217/50/10 215/48/10
f 216/51/11 218/53/11 219/52/11 217/50/11
f 209/54/21 225/54/21 230/55/21 223/55/21
f 218/53/12 220/57/12 221/56/12 219/52/12
f 213/46/21 226/46/21 224/44/21 211/44/21
f 221/56/21 231/56/21 229/52/21 219/52/21
f 220/57/13 222/58/13 223/55/13 221/56/13
f 222/58/14 208/59/14 209/54/14 223/55/14
f 229/60/21 226/63/21 227/62/21 228/61/21
f 224/64/21 226/63/21 230/66/21 225/65/21
f 226/63/21 229/60/21 231/67/21 230/66/21
f 219/52/21 229/52/21 228/50/21 217/50/21
f 211/44/21 224/44/21 225/43/21 209/43/21
f 215/48/21 227/48/21 226/46/21 213/46/21
f 223/55/21 230/55/21 231/56/21 221/56/21
f 217/50/21 228/50/21 227/48/21 215/48/21
f 233/68/21 131/13/21 235/14/21 234/69/21
f 234/17/21 232/70/21 141/39/21 149/16/21
f 130/6/21 132/71/21 235/14/21
f 132/71/21 239/73/21 241/72/21 235/14/21
f 121/6/15 118/74/15 236/74/15 130/6/15
f 121/6/22 133/7/22 126/9/22 252/9/22
f 1/91/23 242/92/23 245/93/23 246/94/23
f 130/6/24 236/74/24 237/79/24 132/71/24
f 241/80/21 239/83/21 238/82/21 240/81/21
f 234/69/21 240/86/21 238/85/21 232/84/21
f 235/14/21 241/72/21 240/86/21 234/69/21
f 232/84/21 238/85/21 239/73/21 132/71/21
f 259/95/19 256/96/19 262/97/19 269/98/19
f 132/71/20 237/79/20 119/79/20 122/71/20
f 247/99/25 246/94/25 245/93/25 250/100/25
f 244/101/25 251/102/25 253/103/25 124/104/25
f 243/105/25 254/106/25 252/107/25 126/108/25
f 247/99/25 250/100/25 248/78/25 249/77/25
f 120/109/26 1/91/26 246/94/26 247/99/26
f 125/76/26 120/109/26 247/99/26 249/77/26
f 242/92/27 251/110/27 244/111/27 250/100/27 245/93/27
f 244/111/27 254/112/27 243/75/27 248/78/27 250/100/27
f 252/9/16 124/9/16 121/6/16
f 253/113/25 251/114/25 242/115/25 2/116/25
f 253/9/28 2/9/28 8/7/28 121/6/28
f 252/117/25 254/118/25 244/101/25 124/104/25
f 255/84/19 232/84/19 132/71/19 122/71/19
f 108/84/19 255/84/19 122/71/19 7/71/19
f 263/119/29 264/120/29 267/121/29 269/98/29 262/97/29
f 257/122/29 260/123/29 274/124/29 272/125/29
f 256/126/29 259/127/29 261/128/29 25/129/29
f 274/130/29 260/131/29 258/132/29 273/133/29
f 261/134/29 259/135/29 257/122/29 272/125/29
f 266/136/29 265/90/29 268/89/29 267/121/29 264/120/29
f 3/137/30 123/120/30 264/120/30 263/119/30
f 123/120/30 127/138/30 266/136/30 264/120/30
f 257/121/19 259/95/19 269/98/19 267/121/19
f 260/88/19 257/121/19 267/121/19 268/89/19
f 256/96/31 3/137/31 263/119/31 262/97/31
f 127/138/32 258/87/32 265/90/32 266/136/32
f 272/139/29 274/140/29 283/141/29 285/142/29
f 285/143/29 283/144/29 284/145/29 286/146/29 282/147/29 275/148/29 277/149/29 276/150/29
f 273/151/29 128/152/29 286/153/29 284/154/29
f 271/155/29 270/156/29 275/157/29 282/158/29
f 128/152/29 271/155/29 282/158/29 286/153/29
f 274/140/29 273/151/29 284/154/29 283/141/29
f 25/159/29 261/160/29 276/161/29 277/162/29
f 270/156/29 25/159/29 277/162/29 275/157/29
f 271/163/19 279/164/19 16/165/19 19/166/19 17/167/19 20/168/19 270/169/19
f 279/164/19 280/170/19 278/171/19 16/165/19
f 271/163/19 128/172/19 145/173/19 142/174/19 144/175/19 141/176/19 279/164/19
f 279/164/19 141/176/19 281/177/19 280/170/19
f 232/178/25 255/179/25 280/180/25 281/181/25
f 108/70/2 16/39/2 278/70/2
f 141/39/21 232/70/21 281/70/21
f 255/179/25 108/182/25 278/183/25 280/180/25
f 133/7/19 121/6/19 130/6/19
f 121/6/19 8/7/19 5/6/19
f 261/160/29 272/139/29 285/142/29 276/161/29
