# Blender 4.4.3
# www.blender.org
o SM_YellowMinivan_Car_V1.0
v 1.564764 0.346465 4.352306
v 1.564764 1.342733 4.352306
v 1.564764 0.346465 -3.615439
v 1.379832 2.790244 -3.669489
v 1.564764 0.346465 3.630315
v 0.814392 0.346465 3.630315
v 1.379832 2.790244 2.778565
v 1.564764 1.492290 3.630315
v 1.564764 1.503995 -4.159735
v 1.262922 2.709976 2.815937
v 1.432185 1.583316 3.587934
v 1.564764 0.346465 1.513169
v 1.379832 2.790244 1.456152
v 1.564764 1.503995 1.513169
v 1.564764 1.503995 2.921118
v 1.403035 2.633746 1.765438
v 1.398921 2.634615 2.594678
v 1.541655 1.675098 2.739377
v 1.541655 1.675098 1.691763
v 1.564764 0.346465 2.217144
v 1.564764 1.013730 2.921118
v 0.814392 0.346465 2.217144
v 0.814392 1.013730 2.921118
v 0.925814 0.315314 2.390441
v 1.440367 0.315314 2.390441
v 0.925814 0.002179 2.704464
v 1.440367 0.002180 2.704464
v 0.925814 0.002808 3.147932
v 1.440367 0.002808 3.147932
v 0.925814 0.316832 3.461067
v 1.440367 0.316832 3.461067
v 0.925814 0.760300 3.460438
v 1.440367 0.760300 3.460438
v 0.925814 1.073435 3.146415
v 1.440367 1.073435 3.146415
v 0.925814 1.072806 2.702947
v 1.440367 1.072806 2.702947
v 0.925814 0.758782 2.389812
v 1.440367 0.758782 2.389812
v 1.440367 0.109305 2.748660
v 1.440367 0.359813 2.497440
v 1.440367 0.109808 3.103434
v 1.440367 0.361027 3.353941
v 1.440367 0.715801 3.353439
v 1.440367 0.966309 3.102219
v 1.440367 0.714587 2.496938
v 1.440367 0.965806 2.747445
v 1.440367 0.315314 -2.867306
v 0.925814 0.315314 -2.867306
v 0.925136 0.346465 -2.974363
v 1.564764 1.503995 -2.412812
v 1.564764 0.346465 -2.974363
v 1.564764 1.013730 -2.413026
v 1.564764 0.346465 -1.692211
v 0.925136 1.013730 -2.413026
v 0.925136 0.346465 -1.692211
v 0.925814 0.002179 -2.553282
v 1.440367 0.002180 -2.553282
v 0.925814 0.002808 -2.109814
v 1.440367 0.002808 -2.109814
v 0.925814 0.316832 -1.796679
v 1.440367 0.316832 -1.796679
v 0.925814 0.760300 -1.797308
v 1.440367 0.760300 -1.797308
v 0.925814 1.073435 -2.111331
v 1.440367 1.073435 -2.111331
v 0.925814 1.072806 -2.554799
v 1.440367 1.072806 -2.554799
v 0.925814 0.758782 -2.867934
v 1.440367 0.758782 -2.867934
v 1.440367 0.109305 -2.509086
v 1.440367 0.359813 -2.760306
v 1.440367 0.109808 -2.154312
v 1.440367 0.361027 -1.903805
v 1.440367 0.715801 -1.904308
v 1.440367 0.966309 -2.155527
v 1.440367 0.714587 -2.760808
v 1.440367 0.965806 -2.510301
v 1.564764 1.503995 -1.109499
v 1.379832 2.790244 -1.106668
v 1.399240 2.650914 -0.929056
v 1.399240 2.650914 1.282255
v 1.545356 1.643325 1.331452
v 1.545356 1.643325 -0.931498
v 1.399655 2.647942 -3.513465
v 1.551550 1.598863 -3.938772
v 1.551550 1.598863 -2.423254
v 1.551550 1.598863 -1.292583
v 1.399655 2.647942 -1.290128
v 1.178601 2.637191 -3.726007
v 1.336563 1.834047 -4.103217
v -1.564764 0.346465 4.352306
v -1.564764 1.342733 4.352306
v -1.564764 0.346465 -3.615439
v -1.379832 2.790244 -3.669489
v -1.564764 0.346465 3.630315
v -0.814392 0.346465 3.630315
v -1.379832 2.790244 2.778565
v -1.564764 1.492290 3.630315
v -1.564764 1.503995 -4.159735
v -1.262922 2.709976 2.815937
v -1.432185 1.583316 3.587934
v -1.564764 0.346465 1.513169
v -1.379832 2.790244 1.456152
v -1.564764 1.503995 1.513169
v -1.564764 1.503995 2.921118
v -1.403035 2.633746 1.765438
v -1.398921 2.634615 2.594678
v -1.541655 1.675098 2.739377
v -1.541655 1.675098 1.691764
v -1.564764 0.346465 2.217144
v -1.564764 1.013730 2.921118
v -0.814392 0.346465 2.217144
v -0.814392 1.013730 2.921118
v -0.925814 0.315314 2.390441
v -1.440367 0.315314 2.390441
v -0.925814 0.002179 2.704464
v -1.440367 0.002180 2.704464
v -0.925814 0.002808 3.147932
v -1.440367 0.002808 3.147932
v -0.925814 0.316832 3.461067
v -1.440367 0.316832 3.461067
v -0.925814 0.760300 3.460438
v -1.440367 0.760300 3.460438
v -0.925814 1.073435 3.146415
v -1.440367 1.073435 3.146415
v -0.925814 1.072806 2.702947
v -1.440367 1.072806 2.702947
v -0.925814 0.758782 2.389812
v -1.440367 0.758782 2.389812
v -1.440367 0.109305 2.748660
v -1.440367 0.359813 2.497440
v -1.440367 0.109808 3.103434
v -1.440367 0.361027 3.353941
v -1.440367 0.715801 3.353439
v -1.440367 0.966309 3.102219
v -1.440367 0.714587 2.496938
v -1.440367 0.965806 2.747445
v -1.440367 0.315314 -2.867306
v -0.925814 0.315314 -2.867306
v -0.925136 0.346465 -2.974363
v -1.564764 1.503995 -2.412812
v -1.564764 0.346465 -2.974363
v -1.564764 1.013730 -2.413026
v -1.564764 0.346465 -1.692211
v -0.925136 1.013730 -2.413026
v -0.925136 0.346465 -1.692211
v -0.925814 0.002179 -2.553282
v -1.440367 0.002180 -2.553282
v -0.925814 0.002808 -2.109814
v -1.440367 0.002808 -2.109814
v -0.925814 0.316832 -1.796679
v -1.440367 0.316832 -1.796679
v -0.925814 0.760300 -1.797308
v -1.440367 0.760300 -1.797308
v -0.925814 1.073435 -2.111331
v -1.440367 1.073435 -2.111331
v -0.925814 1.072806 -2.554799
v -1.440367 1.072806 -2.554799
v -0.925814 0.758782 -2.867934
v -1.440367 0.758782 -2.867934
v -1.440367 0.109305 -2.509086
v -1.440367 0.359813 -2.760306
v -1.440367 0.109808 -2.154312
v -1.440367 0.361027 -1.903805
v -1.440367 0.715801 -1.904308
v -1.440367 0.966309 -2.155527
v -1.440367 0.714587 -2.760808
v -1.440367 0.965806 -2.510301
v -1.564764 1.503995 -1.109499
v -1.379832 2.790244 -1.106668
v -1.399240 2.650914 -0.929056
v -1.399240 2.650914 1.282255
v -1.545356 1.643325 1.331452
v -1.545356 1.643325 -0.931498
v -1.399655 2.647942 -3.513465
v -1.551550 1.598863 -3.938772
v -1.551550 1.598863 -2.423254
v -1.551550 1.598863 -1.292583
v -1.399655 2.647942 -1.290128
v -1.178601 2.637191 -3.726007
v -1.336563 1.834047 -4.103217
v 1.564764 0.844599 4.352306
v -1.564764 0.844599 4.352306
v 1.330737 0.807348 4.452306
v 1.330737 0.383716 4.452306
v -1.330737 0.807348 4.452306
v -1.330737 0.383716 4.452306
v 0.782382 0.844599 4.352306
v 0.782382 1.342733 4.352306
v -0.782382 0.844599 4.352306
v -0.782382 1.342733 4.352306
v 1.564764 1.141748 -3.989399
v -1.564764 1.141748 -3.989399
v 0.782382 1.503995 -4.159735
v 0.782382 1.141748 -3.989399
v -0.782382 1.141748 -3.989399
v -0.782382 1.503995 -4.159735
vn 1.0000 -0.0000 -0.0000
vn 0.9898 0.1426 0.0024
vn -0.0000 0.4221 0.9066
vn 0.9898 0.1427 -0.0045
vn -0.0000 -0.7283 -0.6852
vn 0.1654 0.4012 -0.9009
vn 0.0074 0.5572 0.8304
vn 0.9894 0.1452 0.0021
vn 0.9896 0.1438 -0.0048
vn 0.9908 0.1350 0.0018
vn 0.9910 0.1338 -0.0000
vn 0.9897 0.1428 -0.0000
vn -0.0000 -0.7258 0.6879
vn -0.0000 -0.7081 -0.7061
vn -0.0000 -1.0000 0.0014
vn -0.0000 -0.7061 0.7081
vn -0.0000 0.0014 1.0000
vn -0.0000 0.7081 0.7061
vn -0.0000 1.0000 -0.0014
vn -0.0000 0.7061 -0.7081
vn -0.0000 -0.0014 -1.0000
vn -0.0000 -0.6438 0.7652
vn -0.0000 -0.7338 -0.6793
vn 0.9896 0.1435 -0.0000
vn 0.9904 0.1380 -0.0000
vn 0.9897 0.1433 -0.0000
vn 0.9898 0.1428 -0.0006
vn 0.9898 0.1425 0.0006
vn -0.0000 -0.4255 -0.9049
vn -0.0000 0.5652 0.8249
vn -0.0000 0.1688 -0.9857
vn -0.0000 1.0000 -0.0000
vn -0.0000 0.9792 0.2028
vn -0.3929 -0.0000 0.9196
vn -0.0000 0.3464 -0.9381
vn -1.0000 -0.0000 -0.0000
vn -0.9898 0.1426 0.0024
vn -0.9898 0.1427 -0.0045
vn -0.1654 0.4012 -0.9009
vn -0.0074 0.5572 0.8304
vn -0.9894 0.1452 0.0021
vn -0.9896 0.1438 -0.0048
vn -0.9908 0.1350 0.0018
vn -0.9910 0.1338 -0.0000
vn -0.9897 0.1428 -0.0000
vn -0.9896 0.1435 -0.0000
vn -0.9904 0.1380 -0.0000
vn -0.9897 0.1433 -0.0000
vn -0.9898 0.1428 -0.0006
vn -0.9898 0.1425 0.0006
vn -0.0000 0.4251 -0.9051
vn -0.0000 -0.0000 1.0000
vn -0.0000 0.9371 0.3491
vn -0.0000 -0.9371 0.3491
vn 0.3929 -0.0000 0.9196
vt 0.698636 0.709173
vt 0.698636 0.782137
vt 0.691466 0.772614
vt 0.691466 0.740893
vt 0.691466 0.709173
vt 0.786396 0.709932
vt 0.793638 0.709929
vt 0.795094 0.790552
vt 0.864340 0.789730
vt 0.861318 0.785832
vt 0.808015 0.709929
vt 0.808597 0.790552
vt 0.805439 0.781048
vt 0.806191 0.720320
vt 0.770593 0.709173
vt 0.774306 0.759815
vt 0.758649 0.782883
vt 0.764226 0.709173
vt 0.045432 0.964105
vt 0.025744 0.964105
vt 0.025744 0.906549
vt 0.045432 0.932789
vt 0.860936 0.790552
vt 0.865942 0.709929
vt 0.865364 0.719224
vt 0.861513 0.781258
vt 0.869121 0.716088
vt 0.865694 0.720509
vt 0.719661 0.709173
vt 0.719661 0.782883
vt 0.705679 0.782883
vt 0.705679 0.751663
vt 0.712670 0.709173
vt 0.011818 0.903559
vt 0.085859 0.903559
vt 0.085859 0.989951
vt 0.011818 0.989951
vt 0.795494 0.720320
vt 0.796971 0.781101
vt 0.809870 0.718390
vt 0.810373 0.782091
vt 0.066128 0.964105
vt 0.066128 0.906549
vt 0.012625 0.976701
vt 0.012625 0.914108
vt 0.020746 0.914108
vt 0.020746 0.976701
vt 0.028868 0.914108
vt 0.028868 0.976701
vt 0.036989 0.914108
vt 0.036989 0.976701
vt 0.045111 0.914108
vt 0.045111 0.976701
vt 0.053233 0.914108
vt 0.053233 0.976701
vt 0.077597 0.914108
vt 0.069476 0.914108
vt 0.061354 0.914108
vt 0.061354 0.976701
vt 0.069476 0.976701
vt 0.077597 0.976701
vt 0.606948 0.336625
vt 0.633658 0.325561
vt 0.660368 0.336625
vt 0.671431 0.363335
vt 0.660368 0.390044
vt 0.633658 0.401108
vt 0.606948 0.390044
vt 0.595884 0.363335
vt 0.046132 0.935566
vt 0.024936 0.907870
vt 0.065397 0.907870
vt 0.065397 0.961839
vt 0.046132 0.961839
vt 0.024936 0.961839
vt 0.758652 0.751663
vt 0.751493 0.709173
vt 0.745706 0.782883
vt 0.014583 0.905409
vt 0.087310 0.905409
vt 0.087310 0.990679
vt 0.014583 0.990679
vt 0.848104 0.709929
vt 0.863685 0.715690
vt 0.848210 0.715690
vt 0.834795 0.709929
vt 0.834766 0.790552
vt 0.832953 0.782091
vt 0.832978 0.718390
vt 0.014695 0.989673
vt 0.014695 0.904209
vt 0.050253 0.904209
vt 0.087487 0.904737
vt 0.087371 0.989673
vt 0.836665 0.715690
vt 0.836640 0.781910
vt 0.859342 0.781910
vt 0.696304 0.709557
vt 0.766481 0.709557
vt 0.748937 0.766324
vt 0.713848 0.766324
vt 0.085859 0.989951
vt 0.085859 0.903559
vt 0.803109 0.799298
vt 0.785223 0.799298
vt 0.785223 0.793264
vt 0.803109 0.793264
vt 0.869121 0.708824
vt 0.590376 0.381879
vt 0.590376 0.322918
vt 0.596572 0.327327
vt 0.596572 0.377470
vt 0.872432 0.799298
vt 0.837770 0.799298
vt 0.837770 0.793264
vt 0.872432 0.793264
vt 0.774306 0.759815
vt 0.012481 0.905160
vt 0.012481 0.983503
vt 0.667038 0.327327
vt 0.667038 0.377470
vt 0.198702 0.076646
vt 0.287586 0.076646
vt 0.287586 0.161551
vt 0.198702 0.161551
vt 0.673234 0.381879
vt 0.652520 0.381879
vt 0.611091 0.381879
vt 0.673234 0.322918
vt 0.198284 0.161551
vt 0.198284 0.076646
vt 0.287168 0.076646
vt 0.287168 0.161551
vt 0.019941 0.989162
vt 0.019941 0.904257
vt 0.075789 0.904257
vt 0.075789 0.989162
vt 0.748937 0.792181
vt 0.713848 0.792181
vt 0.791906 0.352480
vt 0.866716 0.352480
vt 0.866716 0.402468
vt 0.791906 0.402468
vt 0.696304 0.766324
vt 0.792451 0.402468
vt 0.792451 0.352480
vt 0.867261 0.352480
vt 0.867261 0.402468
vt 0.766481 0.766324
vt 0.775998 0.782883
s 0
f 5/1/1 8/2/1 2/3/1 183/4/1 1/5/1
f 8/6/2 15/7/2 7/8/2
f 98/9/3 101/10/3 10/10/3 7/9/3
f 14/11/4 13/12/4 16/13/4 19/14/4
f 3/15/1 193/16/1 51/17/1 52/18/1
f 21/19/5 5/20/5 6/21/5 23/22/5
f 4/23/6 9/24/6 91/25/6 90/26/6
f 8/27/7 7/9/7 10/10/7 11/28/7
f 12/29/1 14/30/1 15/31/1 21/32/1 20/33/1
f 18/34/8 19/35/8 16/36/8 17/37/8
f 7/8/9 15/7/9 18/38/9 17/39/9
f 13/12/10 7/8/10 17/39/10 16/13/10
f 15/7/11 14/11/11 19/14/11 18/38/11
f 13/12/12 14/11/12 83/40/12 82/41/12
f 5/1/1 21/32/1 15/31/1 8/2/1
f 20/42/13 21/19/13 23/22/13 22/43/13
f 23/22/1 6/21/1 22/43/1
f 24/44/14 25/45/14 27/46/14 26/47/14
f 26/47/15 27/46/15 29/48/15 28/49/15
f 28/49/16 29/48/16 31/50/16 30/51/16
f 30/51/17 31/50/17 33/52/17 32/53/17
f 32/53/18 33/52/18 35/54/18 34/55/18
f 25/56/1 39/57/1 46/57/1 41/56/1
f 34/55/19 35/54/19 37/58/19 36/59/19
f 29/48/1 27/46/1 40/46/1 42/48/1
f 37/58/1 35/54/1 45/54/1 47/58/1
f 36/59/20 37/58/20 39/57/20 38/60/20
f 38/60/21 39/57/21 25/56/21 24/61/21
f 45/62/1 44/63/1 43/64/1 42/65/1
f 40/66/1 41/67/1 46/68/1 42/65/1
f 42/65/1 46/68/1 47/69/1 45/62/1
f 35/54/1 33/52/1 44/52/1 45/54/1
f 27/46/1 25/45/1 41/45/1 40/46/1
f 31/50/1 29/48/1 42/48/1 43/50/1
f 39/57/1 37/58/1 47/58/1 46/57/1
f 33/52/1 31/50/1 43/50/1 44/52/1
f 55/70/1 56/71/1 50/72/1
f 49/44/14 48/45/14 58/46/14 57/47/14
f 52/73/22 53/74/22 55/70/22 50/72/22
f 53/74/23 54/75/23 56/71/23 55/70/23
f 52/18/1 51/17/1 53/76/1
f 54/77/1 53/76/1 51/17/1
f 51/17/1 79/78/1 14/30/1 12/29/1 54/77/1
f 57/47/15 58/46/15 60/48/15 59/49/15
f 59/49/16 60/48/16 62/50/16 61/51/16
f 61/51/17 62/50/17 64/52/17 63/53/17
f 63/53/18 64/52/18 66/54/18 65/55/18
f 48/56/1 70/57/1 77/57/1 72/56/1
f 65/55/19 66/54/19 68/58/19 67/59/19
f 60/48/1 58/46/1 71/46/1 73/48/1
f 68/58/1 66/54/1 76/54/1 78/58/1
f 67/59/20 68/58/20 70/57/20 69/60/20
f 69/60/21 70/57/21 48/56/21 49/61/21
f 76/62/1 75/63/1 74/64/1 73/65/1
f 71/66/1 72/67/1 77/68/1 73/65/1
f 73/65/1 77/68/1 78/69/1 76/62/1
f 66/54/1 64/52/1 75/52/1 76/54/1
f 58/46/1 48/45/1 72/45/1 71/46/1
f 62/50/1 60/48/1 73/48/1 74/50/1
f 70/57/1 68/58/1 78/58/1 77/57/1
f 64/52/1 62/50/1 74/50/1 75/52/1
f 83/79/24 84/80/24 81/81/24 82/82/24
f 51/83/25 9/24/25 86/84/25 87/85/25
f 79/86/12 80/87/12 81/88/12 84/89/12
f 80/87/25 13/12/25 82/41/25 81/88/25
f 14/11/25 79/86/25 84/89/25 83/40/25
f 89/90/26 88/91/26 87/92/26 86/93/26 85/94/26
f 79/86/25 51/83/25 87/85/25 88/95/25
f 80/87/27 79/86/27 88/95/27 89/96/27
f 9/24/28 4/23/28 85/97/28 86/84/28
f 4/23/25 80/87/25 89/96/25 85/97/25
f 3/98/29 94/99/29 197/100/29 196/101/29
f 101/102/30 102/103/30 11/103/30 10/102/30
f 100/24/31 182/25/31 91/25/31 9/24/31 195/24/31 198/24/31
f 11/28/3 102/28/3 99/27/3 8/27/3
f 104/104/32 98/105/32 7/106/32 13/107/32
f 99/27/33 192/108/33 190/108/33 8/27/33
f 184/109/34 92/110/34 188/111/34 187/112/34
f 95/113/32 171/114/32 104/104/32 13/107/32 80/115/32 4/116/32
f 90/26/35 181/26/35 95/23/35 4/23/35
f 96/1/36 92/5/36 184/4/36 93/3/36 99/2/36
f 99/6/37 98/8/37 106/7/37
f 105/11/38 110/14/38 107/13/38 104/12/38
f 94/15/36 143/18/36 142/17/36 194/117/36
f 112/19/5 114/22/5 97/21/5 96/20/5
f 95/23/39 181/26/39 182/25/39 100/24/39
f 99/27/40 102/28/40 101/10/40 98/9/40
f 103/29/36 111/33/36 112/32/36 106/31/36 105/30/36
f 109/34/41 108/37/41 107/36/41 110/35/41
f 98/8/42 108/39/42 109/38/42 106/7/42
f 104/12/43 107/13/43 108/39/43 98/8/43
f 106/7/44 109/38/44 110/14/44 105/11/44
f 104/12/45 173/41/45 174/40/45 105/11/45
f 96/1/36 99/2/36 106/31/36 112/32/36
f 111/42/13 113/43/13 114/22/13 112/19/13
f 114/22/36 113/43/36 97/21/36
f 115/44/14 117/47/14 118/46/14 116/45/14
f 117/47/15 119/49/15 120/48/15 118/46/15
f 119/49/16 121/51/16 122/50/16 120/48/16
f 121/51/17 123/53/17 124/52/17 122/50/17
f 123/53/18 125/55/18 126/54/18 124/52/18
f 116/56/36 132/56/36 137/57/36 130/57/36
f 125/55/19 127/59/19 128/58/19 126/54/19
f 120/48/36 133/48/36 131/46/36 118/46/36
f 128/58/36 138/58/36 136/54/36 126/54/36
f 127/59/20 129/60/20 130/57/20 128/58/20
f 129/60/21 115/61/21 116/56/21 130/57/21
f 136/62/36 133/65/36 134/64/36 135/63/36
f 131/66/36 133/65/36 137/68/36 132/67/36
f 133/65/36 136/62/36 138/69/36 137/68/36
f 126/54/36 136/54/36 135/52/36 124/52/36
f 118/46/36 131/46/36 132/45/36 116/45/36
f 122/50/36 134/50/36 133/48/36 120/48/36
f 130/57/36 137/57/36 138/58/36 128/58/36
f 124/52/36 135/52/36 134/50/36 122/50/36
f 146/70/36 141/72/36 147/71/36
f 140/44/14 148/47/14 149/46/14 139/45/14
f 143/73/22 141/72/22 146/70/22 144/74/22
f 144/74/23 146/70/23 147/71/23 145/75/23
f 143/18/36 144/76/36 142/17/36
f 145/77/36 142/17/36 144/76/36
f 142/17/36 145/77/36 103/29/36 105/30/36 170/78/36
f 148/47/15 150/49/15 151/48/15 149/46/15
f 150/49/16 152/51/16 153/50/16 151/48/16
f 152/51/17 154/53/17 155/52/17 153/50/17
f 154/53/18 156/55/18 157/54/18 155/52/18
f 139/56/36 163/56/36 168/57/36 161/57/36
f 156/55/19 158/59/19 159/58/19 157/54/19
f 151/48/36 164/48/36 162/46/36 149/46/36
f 159/58/36 169/58/36 167/54/36 157/54/36
f 158/59/20 160/60/20 161/57/20 159/58/20
f 160/60/21 140/61/21 139/56/21 161/57/21
f 167/62/36 164/65/36 165/64/36 166/63/36
f 162/66/36 164/65/36 168/68/36 163/67/36
f 164/65/36 167/62/36 169/69/36 168/68/36
f 157/54/36 167/54/36 166/52/36 155/52/36
f 149/46/36 162/46/36 163/45/36 139/45/36
f 153/50/36 165/50/36 164/48/36 151/48/36
f 161/57/36 168/57/36 169/58/36 159/58/36
f 155/52/36 166/52/36 165/50/36 153/50/36
f 174/79/46 173/82/46 172/81/46 175/80/46
f 142/83/47 178/85/47 177/84/47 100/24/47
f 170/86/45 175/89/45 172/88/45 171/87/45
f 171/87/47 172/88/47 173/41/47 104/12/47
f 105/11/47 174/40/47 175/89/47 170/86/47
f 180/90/48 176/94/48 177/93/48 178/92/48 179/91/48
f 170/86/47 179/95/47 178/85/47 142/83/47
f 171/87/49 180/96/49 179/95/49 170/86/49
f 100/24/50 177/84/50 176/97/50 95/23/50
f 95/23/47 176/97/47 180/96/47 171/87/47
f 182/118/51 181/119/51 90/119/51 91/118/51
f 188/111/52 186/120/52 185/121/52 187/112/52
f 184/122/52 191/123/52 192/124/52 93/125/52
f 183/126/53 189/127/53 191/128/53 184/109/53 187/112/53 185/121/53
f 92/110/54 1/129/54 186/120/54 188/111/54
f 1/129/55 183/126/55 185/121/55 186/120/55
f 8/27/33 190/108/33 2/108/33
f 190/130/52 189/131/52 183/132/52 2/133/52
f 192/134/52 191/135/52 189/136/52 190/137/52
f 192/108/33 99/27/33 93/108/33
f 197/100/29 198/138/29 195/139/29 196/101/29
f 193/140/29 196/141/29 195/142/29 9/143/29
f 196/101/29 193/144/29 3/98/29
f 198/145/29 197/146/29 194/147/29 100/148/29
f 197/100/29 94/99/29 194/149/29
f 194/117/36 142/17/36 100/150/36
f 51/17/1 193/16/1 9/150/1
