# Blender 4.4.3
# www.blender.org
o SM_CornerDouble_Buildings_V1.0
v -1.000000 0.000000 -1.000000
v -1.000000 3.000000 -1.000000
v 1.000000 0.000000 1.000000
v 1.000000 3.000000 1.000000
v 1.000000 0.000000 -1.000000
v 1.000000 3.000000 -1.000000
v -0.250000 0.000000 1.000000
v -1.000000 0.000000 0.250000
v -0.537013 0.000000 0.942910
v -0.780330 0.000000 0.780330
v -0.942910 0.000000 0.537013
v -1.000000 3.000000 0.250000
v -0.250000 3.000000 1.000000
v -0.942910 3.000000 0.537013
v -0.780330 3.000000 0.780330
v -0.537013 3.000000 0.942910
v -1.000000 1.611947 -1.000000
v -0.262618 1.613746 1.113952
v -1.000000 1.388053 -1.000000
v 1.000000 1.611947 -1.000000
v -0.262618 1.386254 1.113952
v 1.000000 1.388053 -1.000000
v 1.000000 1.611947 1.000000
v 1.113887 1.386254 1.113952
v 1.000000 1.388053 1.000000
v -0.250000 1.388053 1.000000
v 1.113887 1.613746 1.113952
v -0.250000 1.611947 1.000000
v -0.537013 1.611947 0.942910
v 1.113887 1.386254 -1.088455
v -0.537013 1.388053 0.942910
v -0.780330 1.611947 0.780330
v 1.113887 1.613746 -1.088455
v -0.780330 1.388053 0.780330
v -0.942910 1.611947 0.537013
v -1.088521 1.386254 -1.088455
v -0.942910 1.388053 0.537013
v -1.000000 1.611947 0.250000
v -1.088521 1.613746 -1.088455
v -1.000000 1.388053 0.250000
v -0.578678 1.613746 1.051084
v -0.578678 1.386254 1.051084
v -0.846620 1.613746 0.872051
v -0.846620 1.386254 0.872051
v -1.025653 1.613746 0.604109
v -1.025653 1.386254 0.604109
v -1.088521 1.613746 0.288049
v -1.088521 1.386254 0.288049
v -0.250000 2.305974 1.000000
v -1.000000 2.305974 -1.000000
v 1.000000 2.305974 -1.000000
v 1.000000 2.305974 1.000000
v -0.537013 2.305974 0.942910
v -0.780330 2.305974 0.780330
v -0.942910 2.305974 0.537013
v -1.000000 2.305974 0.250000
v -1.000000 0.694026 -1.000000
v 1.000000 0.694026 -1.000000
v 1.000000 0.694026 1.000000
v -0.537013 0.694026 0.942910
v -0.780330 0.694026 0.780330
v -0.942910 0.694026 0.537013
v -1.000000 0.694026 0.250000
v -0.250000 0.694026 1.000000
v -1.000000 2.930597 0.125000
v -1.000000 2.930597 -0.875000
v -1.000000 2.375376 -0.875000
v -1.000000 2.375376 0.125000
v -1.000000 2.091103 -0.875000
v -1.000000 1.826818 -0.875000
v -1.000000 2.091103 0.125000
v -1.000000 1.826818 0.125000
v -1.000000 1.318650 0.125000
v -1.000000 1.318650 -0.875000
v -1.000000 0.763429 -0.875000
v -1.000000 0.763429 0.125000
v -1.000000 0.449171 -0.875000
v -1.000000 0.244855 -0.875000
v -1.000000 0.449171 0.125000
v -1.000000 0.244855 0.125000
v -0.980000 2.930597 0.125000
v -0.980000 2.930597 -0.875000
v -0.980000 2.375376 -0.875000
v -0.980000 2.375376 0.125000
v -0.980000 2.091103 -0.875000
v -0.980000 1.826818 -0.875000
v -0.980000 2.091103 0.125000
v -0.980000 1.826818 0.125000
v -0.980000 1.318650 0.125000
v -0.980000 1.318650 -0.875000
v -0.980000 0.763429 -0.875000
v -0.980000 0.763429 0.125000
v -0.980000 0.449171 -0.875000
v -0.980000 0.244855 -0.875000
v -0.980000 0.449171 0.125000
v -0.980000 0.244855 0.125000
v -0.106250 2.526433 1.000000
v -0.106250 2.779541 1.000000
v 0.856250 2.779541 1.000000
v 0.856250 2.526433 1.000000
v 0.875000 2.236571 1.000000
v 0.875000 1.681350 1.000000
v -0.125000 1.681350 1.000000
v -0.125000 2.236571 1.000000
v -0.125000 0.903380 1.000000
v -0.125000 1.178699 1.000000
v 0.875000 1.178699 1.000000
v 0.875000 0.903380 1.000000
v 0.875000 0.624624 1.000000
v 0.875000 0.069403 1.000000
v -0.125000 0.069403 1.000000
v -0.125000 0.624624 1.000000
v -0.106250 2.526433 0.980000
v -0.106250 2.779541 0.980000
v 0.856250 2.779541 0.980000
v 0.856250 2.526433 0.980000
v 0.875000 2.236571 0.980000
v 0.875000 1.681350 0.980000
v -0.125000 1.681350 0.980000
v -0.125000 2.236571 0.980000
v -0.125000 0.903380 0.980000
v -0.125000 1.178699 0.980000
v 0.875000 1.178699 0.980000
v 0.875000 0.903380 0.980000
v 0.875000 0.624624 0.980000
v 0.875000 0.069403 0.980000
v -0.125000 0.069403 0.980000
v -0.125000 0.624624 0.980000
v -1.000000 3.100000 -1.000000
v 1.000000 3.100000 -1.000000
v 1.000000 3.100000 1.000000
v -0.250000 3.100000 1.000000
v -0.537013 3.100000 0.942910
v -0.780330 3.100000 0.780330
v -0.942910 3.100000 0.537013
v -1.000000 3.100000 0.250000
v 0.109835 3.100000 -0.109835
v -1.112981 2.994194 -1.113725
v 1.119274 2.994194 -1.113725
v 1.119274 2.994194 1.118530
v -0.275885 2.994194 1.118530
v -0.596228 2.994194 1.054809
v -0.867801 2.994194 0.873350
v -1.049261 2.994194 0.601777
v -1.112981 2.994194 0.281434
v 1.119274 3.105806 -1.113725
v -1.112981 3.105806 -1.113725
v -1.049261 3.105806 0.601777
v -0.867801 3.105806 0.873350
v 1.119274 3.105806 1.118530
v -0.275885 3.105806 1.118530
v -0.596228 3.105806 1.054809
v -1.112981 3.105806 0.281434
vn -0.0000 -0.0000 1.0000
vn -0.0000 -0.0000 -1.0000
vn 1.0000 -0.0000 -0.0000
vn -1.0000 -0.0000 -0.0000
vn -0.1951 -0.0000 0.9808
vn -0.5556 -0.0000 0.8315
vn -0.8315 -0.0000 0.5556
vn -0.9808 -0.0000 0.1951
vn -0.0000 -0.9998 0.0203
vn 0.0031 0.9999 -0.0154
vn 0.0141 -0.9999 -0.0094
vn -0.0158 0.9999 -0.0000
vn 0.0187 0.9998 -0.0037
vn 0.0031 -0.9999 -0.0154
vn -0.0000 0.9999 -0.0158
vn 0.0088 0.9999 -0.0132
vn -0.0158 -0.9999 -0.0000
vn 0.0203 -0.9998 -0.0000
vn 0.0141 0.9999 -0.0094
vn -0.0000 0.9998 0.0203
vn 0.0088 -0.9999 -0.0132
vn -0.0000 -0.9999 -0.0158
vn 0.0203 0.9998 -0.0000
vn 0.0187 -0.9998 -0.0037
vn -0.0000 -0.9987 0.0510
vn 0.0093 -0.9989 -0.0469
vn -0.0486 0.9988 -0.0000
vn -0.0000 -0.9988 -0.0489
vn -0.0000 1.0000 -0.0000
vn -0.0000 -1.0000 -0.0000
vn -0.0000 0.9987 0.0510
vn 0.0388 -0.9989 -0.0259
vn -0.0000 0.9988 -0.0489
vn 0.0513 -0.9987 -0.0000
vn 0.0093 0.9989 -0.0469
vn 0.0486 -0.9988 -0.0097
vn 0.0256 0.9989 -0.0383
vn 0.0388 0.9989 -0.0259
vn 0.0256 -0.9989 -0.0383
vn -0.0486 -0.9988 -0.0000
vn 0.0486 0.9988 -0.0097
vn 0.0513 0.9987 -0.0000
vt 0.377499 0.996866
vt 0.342436 0.996866
vt 0.346469 0.996107
vt 0.373467 0.996107
vt 0.182985 0.946627
vt 0.182985 0.988673
vt 0.111301 0.988673
vt 0.111301 0.946627
vt 0.182962 0.988673
vt 0.182962 0.946627
vt 0.377499 0.990267
vt 0.373467 0.991025
vt 0.184810 0.951035
vt 0.184810 0.998127
vt 0.164038 0.998127
vt 0.164038 0.951035
vt 0.143265 0.998127
vt 0.143265 0.951035
vt 0.122492 0.998127
vt 0.122492 0.951035
vt 0.101719 0.998127
vt 0.101719 0.951035
vt 0.057370 0.992415
vt 0.057370 0.990805
vt 0.059976 0.990805
vt 0.059976 0.992415
vt 0.205692 0.994913
vt 0.209073 0.994913
vt 0.209073 0.997519
vt 0.205692 0.997519
vt 0.057370 0.988539
vt 0.057370 0.986929
vt 0.059976 0.986929
vt 0.059976 0.988539
vt 0.229640 0.989468
vt 0.225653 0.989468
vt 0.225653 0.920953
vt 0.229640 0.920953
vt 0.255961 0.994913
vt 0.266600 0.994913
vt 0.266600 0.997519
vt 0.255961 0.997519
vt 0.274028 0.989469
vt 0.261090 0.989468
vt 0.261090 0.920953
vt 0.274028 0.920953
vt 0.230350 0.994913
vt 0.233731 0.994913
vt 0.233731 0.997519
vt 0.230350 0.997519
vt 0.212715 0.989468
vt 0.198983 0.989468
vt 0.198983 0.920952
vt 0.212715 0.920953
vt 0.057370 0.985318
vt 0.057370 0.984807
vt 0.059976 0.984807
vt 0.059976 0.985318
vt 0.287760 0.989469
vt 0.287760 0.920953
vt 0.111301 0.904580
vt 0.182985 0.904580
vt 0.278192 0.994913
vt 0.278192 0.997519
vt 0.182962 0.904581
vt 0.219712 0.994913
vt 0.219712 0.997519
vt 0.257103 0.989468
vt 0.257103 0.920953
vt 0.342436 0.990267
vt 0.243371 0.989468
vt 0.243372 0.920953
vt 0.057370 0.994026
vt 0.059976 0.994026
vt 0.057370 0.989050
vt 0.059976 0.989050
vt 0.245323 0.994913
vt 0.245323 0.997519
vt 0.057370 0.995780
vt 0.059976 0.995780
vt 0.084982 0.985127
vt 0.011351 0.985124
vt 0.007188 0.984489
vt 0.089380 0.984492
vt 0.028372 0.995955
vt 0.038943 0.996274
vt 0.037989 0.996936
vt 0.026187 0.996580
vt 0.256464 0.997179
vt 0.213315 0.997180
vt 0.210875 0.997473
vt 0.259041 0.997472
vt 0.084982 0.996272
vt 0.089380 0.996934
vt 0.122492 0.903943
vt 0.101719 0.903943
vt 0.143265 0.903943
vt 0.164038 0.903943
vt 0.184810 0.903943
vt 0.307374 0.996866
vt 0.338930 0.996206
vt 0.310880 0.996206
vt 0.307374 0.990267
vt 0.338930 0.990926
vt 0.310880 0.990926
vt 0.213435 0.996511
vt 0.272346 0.996103
vt 0.274872 0.996259
vt 0.211337 0.996738
vt 0.346469 0.991025
vt 0.476175 0.904353
vt 0.476175 0.977719
vt 0.403601 0.977719
vt 0.403601 0.904353
vt 0.213863 0.989283
vt 0.211337 0.989127
vt 0.272774 0.988876
vt 0.274872 0.988648
vt 0.200594 0.994013
vt 0.252151 0.994013
vt 0.237309 0.996514
vt 0.200594 0.998519
vt 0.283086 0.995703
vt 0.283086 0.998519
vt 0.274025 0.994508
vt 0.280731 0.995056
vt 0.263989 0.994142
vt 0.256465 0.992033
vt 0.259041 0.991728
vt 0.013425 0.993692
vt 0.019411 0.995048
vt 0.016184 0.995568
vt 0.009502 0.994053
vt 0.213300 0.993963
vt 0.210857 0.993883
vt 0.011326 0.992091
vt 0.007158 0.992266
vt 0.257103 0.920953
vt 0.261090 0.920953
vt 0.261090 0.989468
vt 0.257103 0.989468
vt 0.212715 0.920952
vt 0.225653 0.920953
vt 0.225653 0.989468
vt 0.212715 0.989468
vt 0.198983 0.920952
vt 0.198983 0.989468
vt 0.229640 0.920953
vt 0.243371 0.920953
vt 0.243371 0.989468
vt 0.229640 0.989468
vt 0.287760 0.989469
vt 0.274028 0.989468
vt 0.214530 0.993225
vt 0.212231 0.993058
vt 0.218038 0.992598
vt 0.216147 0.992359
vt 0.223289 0.992180
vt 0.222009 0.991891
vt 0.229484 0.992032
vt 0.228925 0.991727
s 0
f 13/1/1 49/2/1 97/3/1 98/4/1
f 50/5/2 2/6/2 6/7/2 51/8/2
f 51/8/3 6/7/3 4/9/3 52/10/3
f 12/1/4 2/11/4 66/12/4 65/4/4
f 49/13/5 13/14/5 16/15/5 53/16/5
f 53/16/6 16/15/6 15/17/6 54/18/6
f 54/18/7 15/17/7 14/19/7 55/20/7
f 55/20/8 14/19/8 12/21/8 56/22/8
f 62/16/8 37/15/8 40/14/8 63/13/8
f 22/23/9 19/24/9 36/25/9 30/26/9
f 28/27/10 29/28/10 41/29/10 18/30/10
f 61/18/7 34/17/7 37/15/7 62/16/7
f 37/31/11 34/32/11 44/33/11 46/34/11
f 45/35/8 47/36/8 48/37/8 46/38/8
f 60/20/6 31/19/6 34/17/6 61/18/6
f 20/39/12 23/40/12 27/41/12 33/42/12
f 27/43/1 18/44/1 21/45/1 24/46/1
f 64/22/5 26/21/5 31/19/5 60/20/5
f 35/47/13 38/48/13 47/49/13 45/50/13
f 39/51/2 33/52/2 30/53/2 36/54/2
f 63/2/4 40/1/4 73/4/4 76/3/4
f 31/55/14 26/56/14 21/57/14 42/58/14
f 33/59/3 27/43/3 24/46/3 30/60/3
f 58/8/3 22/61/3 25/62/3 59/5/3
f 23/40/15 28/63/15 18/64/15 27/41/15
f 47/36/4 39/51/4 36/54/4 48/37/4
f 57/10/2 19/65/2 22/61/2 58/8/2
f 29/28/16 32/66/16 43/67/16 41/29/16
f 21/45/5 18/44/5 41/68/5 42/69/5
f 64/70/1 59/2/1 108/1/1 105/11/1
f 43/71/7 45/35/7 46/38/7 44/72/7
f 41/68/6 43/71/6 44/72/6 42/69/6
f 25/73/17 22/23/17 30/26/17 24/74/17
f 19/24/18 40/75/18 48/76/18 36/25/18
f 32/66/19 35/47/19 45/50/19 43/67/19
f 17/77/20 20/39/20 33/42/20 39/78/20
f 34/32/21 31/55/21 42/58/21 44/33/21
f 26/79/22 25/73/22 24/74/22 21/80/22
f 38/48/23 17/77/23 39/78/23 47/49/23
f 40/75/24 37/31/24 46/34/24 48/76/24
f 6/81/25 2/82/25 138/83/25 139/84/25
f 16/85/26 13/86/26 141/87/26 142/88/26
f 130/89/27 131/90/27 150/91/27 146/92/27
f 13/86/28 4/93/28 140/94/28 141/87/28
f 35/95/8 55/20/8 56/22/8 38/96/8
f 32/97/7 54/18/7 55/20/7 35/95/7
f 29/98/6 53/16/6 54/18/6 32/97/6
f 28/99/5 49/13/5 53/16/5 29/98/5
f 38/100/4 56/2/4 71/101/4 72/102/4
f 20/61/3 51/8/3 52/10/3 23/65/3
f 17/62/2 50/5/2 51/8/2 20/61/2
f 23/103/1 52/70/1 101/104/1 102/105/1
f 7/104/1 3/101/1 110/102/1 111/105/1
f 1/9/2 57/10/2 58/8/2 5/7/2
f 5/7/3 58/8/3 59/5/3 3/6/3
f 8/100/4 63/2/4 79/101/4 80/102/4
f 7/96/5 64/22/5 60/20/5 9/95/5
f 9/95/6 60/20/6 61/18/6 10/97/6
f 10/97/7 61/18/7 62/16/7 11/98/7
f 11/98/8 62/16/8 63/13/8 8/99/8
f 80/106/2 79/107/2 95/108/2 96/109/2
f 56/2/4 12/1/4 65/4/4 68/3/4
f 2/11/4 50/70/4 67/110/4 66/12/4
f 50/70/4 56/2/4 68/3/4 67/110/4
f 70/106/29 72/107/29 88/108/29 86/109/29
f 50/70/4 17/103/4 70/105/4 69/104/4
f 17/103/4 38/100/4 72/102/4 70/105/4
f 56/2/4 50/70/4 69/104/4 71/101/4
f 74/106/1 75/107/1 91/108/1 90/109/1
f 19/11/4 57/70/4 75/110/4 74/12/4
f 57/70/4 63/2/4 76/3/4 75/110/4
f 40/1/4 19/11/4 74/12/4 73/4/4
f 68/106/2 65/107/2 81/108/2 84/109/2
f 57/70/4 1/103/4 78/105/4 77/104/4
f 1/103/4 8/100/4 80/102/4 78/105/4
f 63/2/4 57/70/4 77/104/4 79/101/4
f 84/111/4 81/112/4 82/113/4 83/114/4
f 88/111/4 87/112/4 85/113/4 86/114/4
f 92/111/4 89/112/4 90/113/4 91/114/4
f 96/111/4 95/112/4 93/113/4 94/114/4
f 67/115/29 68/106/29 84/109/29 83/116/29
f 76/117/2 73/115/2 89/116/2 92/118/2
f 71/117/30 69/115/30 85/116/30 87/118/30
f 78/115/29 80/106/29 96/109/29 94/116/29
f 75/107/29 76/117/29 92/118/29 91/108/29
f 79/107/30 77/117/30 93/118/30 95/108/30
f 65/107/30 66/117/30 82/118/30 81/108/30
f 69/115/1 70/106/1 86/109/1 85/116/1
f 66/117/1 67/115/1 83/116/1 82/118/1
f 73/115/30 74/106/30 90/109/30 89/116/30
f 72/107/2 71/117/2 87/118/2 88/108/2
f 77/117/1 78/115/1 94/116/1 93/118/1
f 111/106/29 110/107/29 126/108/29 127/109/29
f 49/2/1 52/70/1 100/110/1 97/3/1
f 52/70/1 4/11/1 99/12/1 100/110/1
f 4/11/1 13/1/1 98/4/1 99/12/1
f 104/106/3 103/107/3 119/108/3 120/109/3
f 52/70/1 49/2/1 104/101/1 101/104/1
f 49/2/1 28/100/1 103/102/1 104/101/1
f 28/100/1 23/103/1 102/105/1 103/102/1
f 107/106/30 106/107/30 122/108/30 123/109/30
f 26/110/1 64/70/1 105/11/1 106/12/1
f 59/2/1 25/3/1 107/4/1 108/1/1
f 25/3/1 26/110/1 106/12/1 107/4/1
f 100/106/4 99/107/4 115/108/4 116/109/4
f 3/101/1 59/2/1 109/100/1 110/102/1
f 59/2/1 64/70/1 112/103/1 109/100/1
f 64/70/1 7/104/1 111/105/1 112/103/1
f 116/111/1 115/112/1 114/113/1 113/114/1
f 118/111/1 117/112/1 120/113/1 119/114/1
f 124/111/1 123/112/1 122/113/1 121/114/1
f 126/111/1 125/112/1 128/113/1 127/114/1
f 97/115/29 100/106/29 116/109/29 113/116/29
f 108/115/4 107/106/4 123/109/4 124/116/4
f 101/115/30 104/106/30 120/109/30 117/116/30
f 112/115/3 111/106/3 127/109/3 128/116/3
f 105/117/29 108/115/29 124/116/29 121/118/29
f 109/117/30 112/115/30 128/116/30 125/118/30
f 98/117/3 97/115/3 113/116/3 114/118/3
f 102/117/4 101/115/4 117/116/4 118/118/4
f 99/107/30 98/117/30 114/118/30 115/108/30
f 106/107/3 105/117/3 121/118/3 122/108/3
f 103/107/29 102/117/29 118/118/29 119/108/29
f 110/107/4 109/117/4 125/118/4 126/108/4
f 129/119/29 136/120/29 137/121/29 130/122/29
f 130/122/29 137/121/29 132/123/29 131/124/29
f 132/123/29 137/121/29 134/125/29 133/126/29
f 137/121/29 136/120/29 135/127/29 134/125/29
f 129/128/31 130/89/31 146/92/31 147/129/31
f 14/130/32 15/131/32 143/132/32 144/133/32
f 131/90/33 132/134/33 151/135/33 150/91/33
f 2/82/34 12/136/34 145/137/34 138/83/34
f 142/138/5 141/139/5 151/140/5 152/141/5
f 138/142/4 145/143/4 153/144/4 147/145/4
f 139/146/2 138/142/2 147/145/2 146/147/2
f 144/148/7 143/149/7 149/150/7 148/151/7
f 145/143/8 144/148/8 148/151/8 153/144/8
f 140/46/3 139/60/3 146/152/3 150/153/3
f 141/139/1 140/46/1 150/153/1 151/140/1
f 143/149/6 142/138/6 152/141/6 149/150/6
f 132/134/35 133/154/35 152/155/35 151/135/35
f 12/136/36 14/130/36 144/133/36 145/137/36
f 133/154/37 134/156/37 149/157/37 152/155/37
f 134/156/38 135/158/38 148/159/38 149/157/38
f 15/131/39 16/85/39 142/88/39 143/132/39
f 4/93/40 6/81/40 139/84/40 140/94/40
f 135/158/41 136/160/41 153/161/41 148/159/41
f 136/160/42 129/128/42 147/129/42 153/161/42
