# Blender 4.4.3
# www.blender.org
o SM_CrazyMismatch_Buildings_V1.0
v -0.968716 3.000000 0.798125
v -0.968716 4.000000 0.798125
v -0.628424 3.000000 -1.172713
v -0.628424 4.000000 -1.172713
v 1.002122 3.000000 1.138416
v 1.002122 4.000000 1.138416
v 1.342414 3.000000 -0.832422
v 1.342414 4.000000 -0.832422
v 1.305882 3.000000 0.847585
v 1.305882 2.000000 0.847585
v -0.677885 3.000000 1.101885
v -0.677885 2.000000 1.101885
v 1.051582 3.000000 -1.136182
v 1.051582 2.000000 -1.136182
v -0.932185 3.000000 -0.881882
v -0.932185 2.000000 -0.881882
v -0.458214 1.000000 -1.275677
v -0.458214 2.000000 -1.275677
v 1.445377 1.000000 -0.662212
v 1.445377 2.000000 -0.662212
v -1.071679 1.000000 0.627915
v -1.071679 2.000000 0.627915
v 0.831912 1.000000 1.241380
v 0.831912 2.000000 1.241380
v 1.186849 1.000000 0.982852
v 1.186849 0.000000 0.982852
v -0.813151 1.000000 0.982852
v -0.813151 0.000000 0.982852
v 1.186849 1.000000 -1.017149
v 1.186849 0.000000 -1.017149
v -0.813151 1.000000 -1.017148
v -0.813151 0.000000 -1.017148
v -0.540426 0.886948 0.903281
v -0.540426 2.135085 0.903281
v -0.556086 0.886948 0.941087
v -0.556086 2.135085 0.941087
v -0.593891 0.886948 0.956747
v -0.593891 2.135085 0.956747
v -0.631697 0.886948 0.941087
v -0.631697 2.135085 0.941087
v -0.647357 0.886948 0.903281
v -0.647357 2.135085 0.903281
v -0.631697 0.886948 0.865475
v -0.631697 2.135085 0.865475
v -0.593891 0.886948 0.849815
v -0.593891 2.135085 0.849815
v -0.556085 0.886948 0.865475
v -0.556085 2.135085 0.865475
v 0.847723 1.979660 0.979420
v 0.847723 3.227797 0.979420
v 0.832063 1.979660 1.017226
v 0.832063 3.227797 1.017226
v 0.794257 1.979660 1.032885
v 0.794257 3.227797 1.032885
v 0.756451 1.979660 1.017225
v 0.756451 3.227797 1.017225
v 0.740792 1.979660 0.979420
v 0.740792 3.227797 0.979420
v 0.756451 1.979660 0.941614
v 0.756451 3.227797 0.941614
v 0.794257 1.979660 0.925954
v 0.794257 3.227797 0.925954
v 0.832063 1.979660 0.941614
v 0.832063 3.227797 0.941614
v -0.673651 0.886948 -0.769099
v -0.673651 2.135085 -0.769099
v -0.689311 0.886948 -0.731293
v -0.689311 2.135085 -0.731293
v -0.727117 0.886948 -0.715633
v -0.727117 2.135085 -0.715633
v -0.764923 0.886948 -0.731293
v -0.764923 2.135085 -0.731293
v -0.780582 0.886948 -0.769099
v -0.780582 2.135085 -0.769099
v -0.764923 0.886948 -0.806905
v -0.764923 2.135085 -0.806905
v -0.727117 0.886948 -0.822565
v -0.727117 2.135085 -0.822565
v -0.689311 0.886948 -0.806905
v -0.689311 2.135085 -0.806905
v -0.348977 1.882256 -1.055666
v -0.348977 3.130392 -1.055666
v -0.364637 1.882256 -1.017861
v -0.364637 3.130392 -1.017861
v -0.402443 1.882256 -1.002201
v -0.402443 3.130392 -1.002201
v -0.440249 1.882256 -1.017860
v -0.440249 3.130392 -1.017860
v -0.455909 1.882256 -1.055666
v -0.455909 3.130392 -1.055666
v -0.440249 1.882256 -1.093472
v -0.440249 3.130392 -1.093472
v -0.402443 1.882256 -1.109132
v -0.402443 3.130392 -1.109132
v -0.364637 1.882256 -1.093472
v -0.364637 3.130392 -1.093472
v -0.782080 1.882256 0.568115
v -0.782080 3.130392 0.568115
v -0.797739 1.882256 0.605920
v -0.797739 3.130392 0.605920
v -0.835545 1.882256 0.621580
v -0.835545 3.130392 0.621580
v -0.873351 1.882256 0.605920
v -0.873351 3.130392 0.605920
v -0.889011 1.882256 0.568115
v -0.889011 3.130392 0.568115
v -0.873351 1.882256 0.530308
v -0.873351 3.130392 0.530308
v -0.835545 1.882256 0.514649
v -0.835545 3.130392 0.514649
v -0.797739 1.882256 0.530308
v -0.797739 3.130392 0.530308
v 1.152167 0.886948 0.735061
v 1.152167 2.135085 0.735061
v 1.136507 0.886948 0.772867
v 1.136507 2.135085 0.772867
v 1.098701 0.886948 0.788527
v 1.098701 2.135085 0.788527
v 1.060896 0.886948 0.772867
v 1.060896 2.135085 0.772867
v 1.045236 0.886948 0.735061
v 1.045236 2.135085 0.735061
v 1.060896 0.886948 0.697255
v 1.060896 2.135085 0.697255
v 1.098701 0.886948 0.681595
v 1.098701 2.135085 0.681595
v 1.136507 0.886948 0.697255
v 1.136507 2.135085 0.697255
v 1.263793 1.979660 -0.592389
v 1.263793 3.227797 -0.592389
v 1.248134 1.979660 -0.554583
v 1.248134 3.227797 -0.554583
v 1.210328 1.979660 -0.538924
v 1.210328 3.227797 -0.538924
v 1.172522 1.979660 -0.554583
v 1.172522 3.227797 -0.554583
v 1.156862 1.979660 -0.592389
v 1.156862 3.227797 -0.592389
v 1.172522 1.979660 -0.630195
v 1.172522 3.227797 -0.630195
v 1.210328 1.979660 -0.645855
v 1.210328 3.227797 -0.645855
v 1.248134 1.979660 -0.630195
v 1.248134 3.227797 -0.630195
vn -0.9854 -0.0000 -0.1701
vn 0.1701 -0.0000 -0.9854
vn 0.9854 -0.0000 0.1701
vn -0.1701 -0.0000 0.9854
vn -0.0000 -1.0000 -0.0000
vn -0.0000 1.0000 -0.0000
vn -0.9919 -0.0000 0.1271
vn 0.1271 -0.0000 0.9919
vn 0.9919 -0.0000 -0.1271
vn -0.1272 -0.0000 -0.9919
vn 0.3067 -0.0000 -0.9518
vn 0.9518 -0.0000 0.3067
vn -0.3067 -0.0000 0.9518
vn -0.9518 -0.0000 -0.3067
vn -1.0000 -0.0000 -0.0000
vn -0.0000 -0.0000 1.0000
vn 1.0000 -0.0000 -0.0000
vn -0.0000 -0.0000 -1.0000
vn 0.9239 -0.0000 0.3827
vn 0.3827 -0.0000 0.9239
vn -0.3827 -0.0000 0.9239
vn -0.9239 -0.0000 0.3827
vn -0.9239 -0.0000 -0.3827
vn -0.3827 -0.0000 -0.9239
vn 0.3827 -0.0000 -0.9239
vn 0.9239 -0.0000 -0.3827
vt 0.180712 0.903718
vt 0.180712 0.980016
vt 0.104414 0.980016
vt 0.104414 0.903718
vt 0.180712 0.909487
vt 0.104414 0.909487
vt 0.180712 0.976290
vt 0.104414 0.976290
vt 0.381552 0.981117
vt 0.381552 0.986846
vt 0.298554 0.986846
vt 0.298554 0.981117
vt 0.381552 0.903848
vt 0.381552 0.908933
vt 0.298554 0.908933
vt 0.298554 0.903848
vt 0.483012 0.903974
vt 0.483012 0.987936
vt 0.399050 0.987936
vt 0.399050 0.903974
vt 0.483012 0.911275
vt 0.399050 0.911275
vt 0.483012 0.972458
vt 0.399050 0.972458
vt 0.286309 0.973337
vt 0.286309 0.985357
vt 0.204102 0.985357
vt 0.204102 0.973337
vt 0.286309 0.903150
vt 0.204102 0.903150
vt 0.483106 0.711728
vt 0.483106 0.786447
vt 0.472226 0.786447
vt 0.472226 0.711728
vt 0.461346 0.786447
vt 0.461346 0.711728
vt 0.450466 0.786447
vt 0.450466 0.711728
vt 0.439586 0.786447
vt 0.439586 0.711728
vt 0.428706 0.786447
vt 0.428706 0.711728
vt 0.417826 0.786447
vt 0.417826 0.711728
vt 0.406946 0.786447
vt 0.406946 0.711728
vt 0.396066 0.786447
vt 0.396066 0.711728
s 0
f 1/1/1 2/2/1 4/3/1 3/4/1
f 3/1/2 4/2/2 8/3/2 7/4/2
f 7/1/3 8/2/3 6/3/3 5/4/3
f 5/1/4 6/2/4 2/3/4 1/4/4
f 3/1/5 7/5/5 5/6/5 1/4/5
f 8/7/6 4/2/6 2/3/6 6/8/6
f 9/9/6 13/10/6 15/11/6 11/12/6
f 14/13/5 10/14/5 12/15/5 16/16/5
f 12/13/7 11/10/7 15/11/7 16/16/7
f 10/13/8 9/10/8 11/11/8 12/16/8
f 14/13/9 13/10/9 9/11/9 10/16/9
f 16/13/10 15/10/10 13/11/10 14/16/10
f 17/17/11 18/18/11 20/19/11 19/20/11
f 19/17/12 20/18/12 24/19/12 23/20/12
f 23/17/13 24/18/13 22/19/13 21/20/13
f 21/17/14 22/18/14 18/19/14 17/20/14
f 19/17/5 23/21/5 21/22/5 17/20/5
f 24/23/6 20/18/6 18/19/6 22/24/6
f 25/25/6 29/26/6 31/27/6 27/28/6
f 28/29/15 27/26/15 31/27/15 32/30/15
f 26/29/16 25/26/16 27/27/16 28/30/16
f 30/29/17 29/26/17 25/27/17 26/30/17
f 32/29/18 31/26/18 29/27/18 30/30/18
f 33/31/19 34/32/19 36/33/19 35/34/19
f 35/34/20 36/33/20 38/35/20 37/36/20
f 37/36/21 38/35/21 40/37/21 39/38/21
f 39/38/22 40/37/22 42/39/22 41/40/22
f 41/40/23 42/39/23 44/41/23 43/42/23
f 43/42/24 44/41/24 46/43/24 45/44/24
f 45/44/25 46/43/25 48/45/25 47/46/25
f 47/46/26 48/45/26 34/47/26 33/48/26
f 49/31/19 50/32/19 52/33/19 51/34/19
f 51/34/20 52/33/20 54/35/20 53/36/20
f 53/36/21 54/35/21 56/37/21 55/38/21
f 55/38/22 56/37/22 58/39/22 57/40/22
f 57/40/23 58/39/23 60/41/23 59/42/23
f 59/42/24 60/41/24 62/43/24 61/44/24
f 61/44/25 62/43/25 64/45/25 63/46/25
f 63/46/26 64/45/26 50/47/26 49/48/26
f 65/31/19 66/32/19 68/33/19 67/34/19
f 67/34/20 68/33/20 70/35/20 69/36/20
f 69/36/21 70/35/21 72/37/21 71/38/21
f 71/38/22 72/37/22 74/39/22 73/40/22
f 73/40/23 74/39/23 76/41/23 75/42/23
f 75/42/24 76/41/24 78/43/24 77/44/24
f 77/44/25 78/43/25 80/45/25 79/46/25
f 79/46/26 80/45/26 66/47/26 65/48/26
f 81/31/19 82/32/19 84/33/19 83/34/19
f 83/34/20 84/33/20 86/35/20 85/36/20
f 85/36/21 86/35/21 88/37/21 87/38/21
f 87/38/22 88/37/22 90/39/22 89/40/22
f 89/40/23 90/39/23 92/41/23 91/42/23
f 91/42/24 92/41/24 94/43/24 93/44/24
f 93/44/25 94/43/25 96/45/25 95/46/25
f 95/46/26 96/45/26 82/47/26 81/48/26
f 97/31/19 98/32/19 100/33/19 99/34/19
f 99/34/20 100/33/20 102/35/20 101/36/20
f 101/36/21 102/35/21 104/37/21 103/38/21
f 103/38/22 104/37/22 106/39/22 105/40/22
f 105/40/23 106/39/23 108/41/23 107/42/23
f 107/42/24 108/41/24 110/43/24 109/44/24
f 109/44/25 110/43/25 112/45/25 111/46/25
f 111/46/26 112/45/26 98/47/26 97/48/26
f 113/31/19 114/32/19 116/33/19 115/34/19
f 115/34/20 116/33/20 118/35/20 117/36/20
f 117/36/21 118/35/21 120/37/21 119/38/21
f 119/38/22 120/37/22 122/39/22 121/40/22
f 121/40/23 122/39/23 124/41/23 123/42/23
f 123/42/24 124/41/24 126/43/24 125/44/24
f 125/44/25 126/43/25 128/45/25 127/46/25
f 127/46/26 128/45/26 114/47/26 113/48/26
f 129/31/19 130/32/19 132/33/19 131/34/19
f 131/34/20 132/33/20 134/35/20 133/36/20
f 133/36/21 134/35/21 136/37/21 135/38/21
f 135/38/22 136/37/22 138/39/22 137/40/22
f 137/40/23 138/39/23 140/41/23 139/42/23
f 139/42/24 140/41/24 142/43/24 141/44/24
f 141/44/25 142/43/25 144/45/25 143/46/25
f 143/46/26 144/45/26 130/47/26 129/48/26
