# Blender 4.4.3
# www.blender.org
o SM_CrazySpike_Buildings_V1.001
v -1.000000 0.000000 1.000000
v -1.000000 3.000000 1.000000
v -1.000000 0.000000 -1.000000
v -1.000000 3.000000 -1.000000
v 1.000000 0.000000 1.000000
v 1.000000 3.000000 1.000000
v 1.000000 0.000000 -1.000000
v 1.000000 3.000000 -1.000000
v -1.000000 0.000000 -0.333333
v -1.000000 0.000000 0.333333
v -1.000000 1.000000 1.000000
v -1.000000 2.000000 1.000000
v -1.000000 3.000000 0.333333
v -1.000000 3.000000 -0.333333
v -1.000000 2.000000 -1.000000
v -1.000000 1.000000 -1.000000
v 0.333333 0.000000 -1.000000
v -0.333333 0.000000 -1.000000
v -0.333333 3.000000 -1.000000
v 0.333333 3.000000 -1.000000
v 1.000000 2.000000 -1.000000
v 1.000000 1.000000 -1.000000
v 1.000000 0.000000 0.333333
v 1.000000 0.000000 -0.333333
v 1.000000 3.000000 -0.333333
v 1.000000 3.000000 0.333333
v 1.000000 2.000000 1.000000
v 1.000000 1.000000 1.000000
v -0.333333 0.000000 1.000000
v 0.333333 0.000000 1.000000
v 0.333333 3.000000 1.000000
v -0.333333 3.000000 1.000000
v 0.000000 3.000000 0.000000
v 0.333333 1.000000 1.000000
v -0.333333 1.000000 1.000000
v 0.333333 2.000000 1.000000
v -0.333333 2.000000 1.000000
v 1.000000 1.000000 -0.333333
v 1.000000 1.000000 0.333333
v 1.000000 2.000000 -0.333333
v 1.000000 2.000000 0.333333
v -0.333333 1.000000 -1.000000
v 0.333333 1.000000 -1.000000
v -0.333333 2.000000 -1.000000
v 0.333333 2.000000 -1.000000
v -1.000000 1.000000 0.333333
v -1.000000 1.000000 -0.333333
v -1.000000 2.000000 0.333333
v -1.000000 2.000000 -0.333333
v -1.300000 1.000000 0.666667
v -1.300000 2.000000 0.666667
v -1.300000 3.000000 0.000000
v -1.300000 2.000000 0.000000
v -1.300000 3.000000 -0.666667
v -1.300000 1.000000 -0.666667
v -1.300000 2.000000 -0.666667
v -1.300000 0.000000 -0.001222
v -1.300000 1.000000 -0.001222
v -0.666667 0.000000 -1.300000
v -0.666667 1.000000 -1.300000
v 0.000000 3.000000 -1.300000
v 0.000000 1.000000 -1.300000
v 0.000000 2.000000 -1.300000
v 0.666667 1.000000 -1.300000
v 0.666667 2.000000 -1.300000
v 1.300000 3.000000 -0.666667
v 1.300000 2.000000 -0.666667
v 1.300000 0.000000 0.000000
v 1.300000 1.000000 0.000000
v 1.300000 2.000000 0.000000
v 1.300000 0.000000 -0.672790
v 1.300000 1.000000 -0.672790
v 1.300000 3.000000 0.666667
v 1.300000 2.000000 0.666667
v -0.666667 3.000000 1.300000
v -0.666667 2.000000 1.300000
v 0.000000 1.000000 1.300000
v 0.000000 2.000000 1.300000
v 0.666667 1.000000 1.300000
v 0.666667 2.000000 1.300000
v -0.666667 0.000000 1.300000
v -0.666667 1.000000 1.300000
vn -0.7433 -0.0000 -0.6690
vn -0.0000 1.0000 -0.0000
vn 0.7433 -0.0000 0.6690
vn -0.0000 -0.0000 1.0000
vn 1.0000 -0.0000 -0.0000
vn 0.7493 -0.0000 0.6622
vn -0.0000 -0.0000 -1.0000
vn 0.6690 -0.0000 -0.7433
vn -1.0000 -0.0000 -0.0000
vn -0.7421 -0.0000 -0.6703
vn -0.6690 -0.0000 0.7433
vn 0.6690 -0.0000 0.7433
vn -0.7433 -0.0000 0.6690
vn -0.7445 -0.0000 0.6676
vn -0.6690 -0.0000 -0.7433
vn 0.7433 -0.0000 -0.6690
vn 0.7371 -0.0000 -0.6758
vn -0.0000 -1.0000 -0.0000
vt 0.438679 0.791522
vt 0.438679 0.773170
vt 0.474919 0.773170
vt 0.474919 0.791522
vt 0.794131 0.908265
vt 0.870031 0.908266
vt 0.832081 0.978117
vt 0.144544 0.791522
vt 0.144544 0.779288
vt 0.180784 0.779288
vt 0.180784 0.791522
vt 0.734681 0.984018
vt 0.764072 0.987065
vt 0.764072 0.993158
vt 0.744478 0.993158
vt 0.724884 0.993158
vt 0.705290 0.980971
vt 0.705290 0.987065
vt 0.724884 0.974878
vt 0.744478 0.974878
vt 0.764072 0.974878
vt 0.764072 0.980971
vt 0.410632 0.791419
vt 0.410632 0.708585
vt 0.460575 0.708585
vt 0.460575 0.791419
vt 0.122109 0.780117
vt 0.122109 0.710363
vt 0.172052 0.710363
vt 0.172052 0.780117
vt 0.460575 0.778964
vt 0.460575 0.791419
vt 0.410632 0.791419
vt 0.410632 0.778964
vt 0.122109 0.785728
vt 0.122109 0.779390
vt 0.172052 0.779390
vt 0.172052 0.785728
vt 0.416783 0.785728
vt 0.416783 0.773273
vt 0.466726 0.773273
vt 0.466726 0.785728
vt 0.144510 0.791522
vt 0.144510 0.779288
vt 0.180750 0.779288
vt 0.180750 0.791522
vt 0.438668 0.791636
vt 0.438668 0.773285
vt 0.474908 0.773285
vt 0.474908 0.791636
vt 0.416783 0.765515
vt 0.416783 0.709113
vt 0.466726 0.709113
vt 0.466726 0.765515
vt 0.438679 0.773170
vt 0.438679 0.791522
vt 0.402439 0.791522
vt 0.402439 0.773170
vt 0.402439 0.773170
vt 0.402439 0.791522
vt 0.474919 0.773170
vt 0.474919 0.791522
vt 0.108270 0.791522
vt 0.108270 0.779288
vt 0.402427 0.791636
vt 0.402427 0.773285
vt 0.108304 0.791522
vt 0.108304 0.779288
vt 0.705290 0.993158
vt 0.705290 0.974878
vt 0.473200 0.759040
vt 0.410308 0.759040
vt 0.410308 0.709097
vt 0.473200 0.709097
s 0
f 56/1/1 54/2/1 4/3/1 15/4/1
f 45/5/2 21/6/2 65/7/2
f 74/8/3 73/9/3 6/10/3 27/11/3
f 33/12/2 13/13/2 2/14/2 32/15/2
f 26/5/2 6/6/2 73/7/2
f 33/12/2 32/15/2 31/16/2
f 8/5/2 25/6/2 66/7/2
f 25/17/2 33/12/2 26/18/2
f 20/19/2 19/20/2 33/12/2
f 19/20/2 4/21/2 14/22/2 33/12/2
f 33/12/2 14/22/2 13/13/2
f 35/23/4 37/24/4 12/25/4 11/26/4
f 5/27/4 28/28/4 34/29/4 30/30/4
f 30/31/4 34/32/4 35/33/4 29/34/4
f 27/31/4 6/32/4 31/33/4 36/34/4
f 36/35/4 31/36/4 32/37/4 37/38/4
f 23/39/5 39/40/5 28/41/5 5/42/5
f 39/27/5 41/28/5 27/29/5 28/30/5
f 71/1/6 72/2/6 38/3/6 24/4/6
f 68/43/3 69/44/3 39/45/3 23/46/3
f 22/5/2 38/6/2 72/7/2
f 69/47/3 70/48/3 41/49/3 39/50/3
f 67/43/3 66/44/3 25/45/3 40/46/3
f 40/5/2 41/6/2 70/7/2
f 17/27/7 43/28/7 22/29/7 7/30/7
f 64/43/8 65/44/8 21/45/8 22/46/8
f 59/1/8 60/2/8 42/3/8 18/4/8
f 18/51/7 42/52/7 43/53/7 17/54/7
f 16/5/2 42/6/2 60/7/2
f 62/1/8 63/2/8 45/3/8 43/4/8
f 15/35/7 4/36/7 19/37/7 44/38/7
f 63/43/8 61/44/8 20/45/8 45/46/8
f 9/27/9 47/28/9 16/29/9 3/30/9
f 55/43/1 56/44/1 15/45/1 16/46/1
f 1/27/9 11/28/9 46/29/9 10/30/9
f 57/43/10 58/44/10 47/45/10 9/46/10
f 50/55/1 51/56/1 48/57/1 46/58/1
f 46/5/2 47/6/2 58/7/2
f 12/5/2 48/6/2 51/7/2
f 53/43/1 52/44/1 14/45/1 49/46/1
f 35/45/11 77/44/11 78/43/11 37/46/11
f 37/3/12 32/4/12 75/1/12 76/2/12
f 12/59/11 76/2/11 75/1/11 2/60/11
f 11/61/13 12/62/13 51/56/13 50/55/13
f 48/63/13 13/64/13 52/44/13 53/43/13
f 47/63/13 49/64/13 56/44/13 55/43/13
f 49/60/13 14/59/13 54/2/13 56/1/13
f 10/63/14 46/64/14 58/44/14 57/43/14
f 3/60/15 16/59/15 60/2/15 59/1/15
f 44/63/15 19/64/15 61/44/15 63/43/15
f 42/60/15 44/59/15 63/2/15 62/1/15
f 43/63/15 45/64/15 65/44/15 64/43/15
f 21/63/16 8/64/16 66/44/16 67/43/16
f 38/65/16 40/66/16 70/48/16 69/47/16
f 24/63/16 38/64/16 69/44/16 68/43/16
f 7/60/17 22/59/17 72/2/17 71/1/17
f 41/67/16 26/68/16 73/9/16 74/8/16
f 2/5/2 75/6/2 32/7/2
f 29/3/12 35/4/12 82/1/12 81/2/12
f 1/59/11 81/2/11 82/1/11 11/60/11
f 12/5/18 37/6/18 76/7/18
f 36/63/12 78/43/12 77/44/12 34/64/12
f 79/55/11 80/56/11 36/57/11 34/58/11
f 28/61/12 27/62/12 80/56/12 79/55/12
f 34/5/18 77/6/18 35/7/18
f 36/5/2 37/6/2 78/7/2
f 34/5/18 28/6/18 79/7/18
f 36/5/2 80/6/2 27/7/2
f 11/5/2 82/6/2 35/7/2
f 6/69/2 26/18/2 33/12/2 31/16/2
f 25/17/2 8/70/2 20/19/2 33/12/2
f 27/5/18 41/6/18 74/7/18
f 41/35/5 40/36/5 25/37/5 26/38/5
f 40/5/18 21/6/18 67/7/18
f 38/71/5 22/72/5 21/73/5 40/74/5
f 21/39/7 45/40/7 20/41/7 8/42/7
f 42/35/7 16/36/7 15/37/7 44/38/7
f 43/5/18 42/6/18 62/7/18
f 22/5/18 43/6/18 64/7/18
f 19/5/2 20/6/2 61/7/2
f 49/5/18 48/6/18 53/7/18
f 48/35/9 12/36/9 2/37/9 13/38/9
f 46/5/18 11/6/18 50/7/18
f 16/5/18 47/6/18 55/7/18
f 14/5/2 4/6/2 54/7/2
f 13/5/2 14/6/2 52/7/2
f 47/71/9 46/72/9 48/73/9 49/74/9
