# Blender 4.4.3
# www.blender.org
o SM_CrazyTower_Buildings_V1.0
v 0.745264 2.275001 -0.776503
v 0.745264 0.025001 -0.776503
v 0.745264 2.275001 0.723497
v 0.745264 0.025001 0.723497
v -0.754736 2.275001 -0.776503
v -0.754736 0.025001 -0.776503
v -0.754736 2.275001 0.723497
v -0.754736 0.025001 0.723497
v 0.245264 2.275001 0.723497
v -0.254736 2.275001 0.723497
v -0.254736 2.275001 -0.776503
v 0.245264 2.275001 -0.776503
v 0.745264 2.275001 -0.276503
v 0.745264 2.275001 0.223497
v 0.370264 2.275001 0.348497
v 0.370264 2.275001 0.598497
v -0.754736 2.275001 0.223497
v -0.754736 2.275001 -0.276503
v 0.620264 2.275001 0.598497
v 0.620264 2.275001 0.348497
v 0.245264 2.275001 -0.276503
v 0.245264 2.275001 0.223497
v -0.254736 2.275001 -0.276503
v -0.254736 2.275001 0.223497
v -0.379736 2.275001 0.598497
v -0.629736 2.275001 0.598497
v -0.379736 2.275001 0.348497
v -0.629736 2.275001 0.348497
v -0.629736 2.275001 -0.401503
v -0.629736 2.275001 -0.651503
v -0.379736 2.275001 -0.651503
v -0.379736 2.275001 -0.401503
v 0.370264 2.275001 -0.651503
v 0.620264 2.275001 -0.651503
v 0.620264 2.275001 -0.401503
v 0.370264 2.275001 -0.401503
v 0.745264 2.875001 -0.776503
v 0.745264 5.125001 -0.776503
v 0.745264 2.875001 0.723497
v 0.745264 5.125001 0.723497
v -0.754736 2.875001 -0.776503
v -0.754736 5.125001 -0.776503
v -0.754736 2.875001 0.723497
v -0.754736 5.125001 0.723497
v 0.245264 2.875001 0.723497
v -0.254736 2.875001 0.723497
v -0.254736 2.875001 -0.776503
v 0.245264 2.875001 -0.776503
v 0.745264 2.875001 -0.276503
v 0.745264 2.875001 0.223497
v 0.370264 2.875001 0.348497
v 0.370264 2.875001 0.598497
v -0.754736 2.875001 0.223497
v -0.754736 2.875001 -0.276503
v 0.620264 2.875001 0.598497
v 0.620264 2.875001 0.348497
v 0.245264 2.875001 -0.276503
v 0.245264 2.875001 0.223497
v -0.254736 2.875001 -0.276503
v -0.254736 2.875001 0.223497
v -0.379736 2.875001 0.598497
v -0.629736 2.875001 0.598497
v -0.379736 2.875001 0.348497
v -0.629736 2.875001 0.348497
v -0.629736 2.875001 -0.401503
v -0.629736 2.875001 -0.651503
v -0.379736 2.875001 -0.651503
v -0.379736 2.875001 -0.401503
v 0.370264 2.875001 -0.651503
v 0.620264 2.875001 -0.651503
v 0.620264 2.875001 -0.401503
v 0.370264 2.875001 -0.401503
v -0.754736 4.000001 0.723497
v 0.745264 4.000001 -0.776503
v 0.745264 4.000001 0.723497
v -0.754736 4.000001 -0.776503
v -0.004736 4.000001 0.723497
v -0.004736 5.125001 0.723497
v -0.004736 2.875001 0.723497
v -0.754736 2.875001 -0.026503
v -0.754736 4.000001 -0.026503
v -0.754736 5.125001 -0.026503
v -0.004736 4.000001 -0.776503
v -0.004736 5.125001 -0.776503
v -0.004736 2.875001 -0.776503
v 0.745264 2.875001 -0.026503
v 0.745264 4.000001 -0.026503
v 0.745264 5.125001 -0.026503
v -0.754736 1.150001 0.723497
v 0.745264 1.150001 -0.776503
v 0.745264 1.150001 0.723497
v -0.754736 1.150001 -0.776503
v 0.745264 2.275001 -0.026503
v 0.745264 0.025001 -0.026503
v 0.745264 1.150001 -0.026503
v -0.004736 2.275001 0.723497
v -0.004736 1.150001 0.723497
v -0.004736 0.025001 0.723497
v -0.754736 2.275001 -0.026503
v -0.754736 0.025001 -0.026503
v -0.754736 1.150001 -0.026503
v -0.004736 0.025001 -0.776503
v -0.004736 1.150001 -0.776503
v -0.004736 2.275001 -0.776503
v -0.004736 2.275001 -0.905672
v 0.745264 2.275001 -0.905672
v 0.745264 1.150001 -0.905672
v -0.004736 1.150001 -0.905672
v 0.968667 2.275001 -0.776503
v 0.968667 2.275001 -0.026503
v 0.968667 1.150001 -0.776503
v 0.968667 1.150001 -0.026503
v 0.968667 2.275001 -0.905672
v 0.968667 1.150001 -0.905672
v 0.825533 2.275001 -0.026503
v 0.825533 2.275001 0.723497
v 0.825533 1.150001 0.723497
v 0.825533 1.150001 -0.026503
v 0.745264 2.275001 0.872947
v -0.004736 2.275001 0.872947
v 0.745264 1.150001 0.872947
v -0.004736 1.150001 0.872947
v -0.004736 2.275001 0.784507
v -0.754736 2.275001 0.784507
v -0.754736 1.150001 0.784507
v -0.004736 1.150001 0.784507
v -0.929750 1.150001 0.723497
v -0.929750 2.275001 0.723497
v -0.929750 2.275001 -0.026503
v -0.929750 1.150001 -0.026503
v -1.040653 2.275001 -0.026503
v -1.040653 2.275001 -0.776503
v -1.040653 1.150001 -0.776503
v -1.040653 1.150001 -0.026503
v 0.910543 1.150001 0.723497
v 0.910543 0.025001 0.723497
v 0.910543 0.025001 -0.026503
v 0.910543 1.150001 -0.026503
v 0.745264 1.150001 0.772314
v 0.745264 0.025001 0.772314
v -0.004736 0.025001 0.772314
v -0.004736 1.150001 0.772314
v -0.754736 0.025001 0.903733
v -0.754736 1.150001 0.903733
v -0.004736 1.150001 0.903733
v -0.004736 0.025001 0.903733
v -0.987288 0.025001 -0.026503
v -0.987288 0.025001 0.723497
v -0.987288 1.150001 0.723497
v -0.987288 1.150001 -0.026503
v -0.754736 1.150001 -0.829968
v -0.754736 0.025001 -0.829968
v -0.004736 0.025001 -0.829968
v -0.004736 1.150001 -0.829968
v 0.902415 2.875001 -0.026503
v 0.902415 2.875001 0.723497
v 0.902415 4.000001 0.723497
v 0.902415 4.000001 -0.026503
v 0.745264 2.875001 0.867440
v -0.004736 2.875001 0.867440
v 0.745264 4.000001 0.867440
v -0.004736 4.000001 0.867440
v 0.902415 2.875001 0.867440
v 0.902415 4.000001 0.867440
v 0.745264 4.000001 0.817153
v 0.745264 5.125001 0.817153
v -0.004736 5.125001 0.817153
v -0.004736 4.000001 0.817153
v -0.754736 5.125001 0.882305
v -0.754736 4.000001 0.882305
v -0.004736 4.000001 0.882305
v -0.004736 5.125001 0.882305
v -0.004736 2.875001 0.789456
v -0.754736 2.875001 0.789456
v -0.754736 4.000001 0.789456
v -0.004736 4.000001 0.789456
v -0.849996 4.000001 0.723497
v -0.849996 2.875001 0.723497
v -0.849996 2.875001 -0.026503
v -0.849996 4.000001 -0.026503
v -0.903131 5.125001 -0.026503
v -0.903131 5.125001 0.723497
v -0.903131 4.000001 0.723497
v -0.903131 4.000001 -0.026503
v -0.837437 4.000001 -0.776503
v -0.837437 5.125001 -0.776503
v -0.837437 4.000001 -0.026503
v -0.837437 5.125001 -0.026503
v -0.963846 2.875001 -0.026503
v -0.963846 2.875001 -0.776503
v -0.963846 4.000001 -0.776503
v -0.963846 4.000001 -0.026503
v -0.754736 2.875001 -0.880089
v -0.004736 2.875001 -0.880089
v -0.754736 4.000001 -0.880089
v -0.004736 4.000001 -0.880089
v 0.745264 4.000001 -0.935614
v 0.745264 5.125001 -0.935614
v -0.004736 4.000001 -0.935614
v -0.004736 5.125001 -0.935614
v 0.832029 2.875001 -0.776503
v 0.832029 2.875001 -0.026503
v 0.832029 4.000001 -0.776503
v 0.832029 4.000001 -0.026503
v 0.877105 4.000001 -0.776503
v 0.877105 5.125001 -0.776503
v 0.877105 5.125001 -0.026503
v 0.877105 4.000001 -0.026503
v 0.942185 4.000001 0.723497
v 0.942185 5.125001 0.723497
v 0.942185 4.000001 -0.026503
v 0.942185 5.125001 -0.026503
vn -0.0000 1.0000 -0.0000
vn -1.0000 -0.0000 -0.0000
vn 1.0000 -0.0000 -0.0000
vn -0.0000 0.8575 -0.5145
vn -0.5145 0.8575 -0.0000
vn -0.0000 -0.0000 1.0000
vn 0.5145 -0.8575 -0.0000
vn -0.0000 -0.0000 -1.0000
vn -0.0000 0.8575 0.5145
vn -0.0000 -0.8575 -0.5145
vn -0.5145 -0.8575 -0.0000
vn 0.5145 0.8575 -0.0000
vn -0.0000 -1.0000 -0.0000
vn -0.0000 -0.8575 0.5145
vt 0.232756 0.833180
vt 0.207948 0.833180
vt 0.214150 0.826978
vt 0.226554 0.826978
vt 0.282373 0.808372
vt 0.282373 0.833180
vt 0.276171 0.826978
vt 0.276171 0.814574
vt 0.380288 0.808696
vt 0.380288 0.897043
vt 0.375412 0.897043
vt 0.375412 0.808696
vt 0.257565 0.833180
vt 0.257565 0.808372
vt 0.263767 0.814574
vt 0.263767 0.826978
vt 0.232756 0.808372
vt 0.245160 0.808372
vt 0.257565 0.882797
vt 0.245160 0.882797
vt 0.232756 0.882797
vt 0.232756 0.857988
vt 0.257565 0.857988
vt 0.282373 0.857988
vt 0.276171 0.864190
vt 0.263767 0.864190
vt 0.282373 0.845584
vt 0.207948 0.808372
vt 0.226554 0.814574
vt 0.214150 0.814574
vt 0.171793 0.896396
vt 0.116001 0.896396
vt 0.129375 0.881010
vt 0.163609 0.881142
vt 0.172352 0.808897
vt 0.172352 0.897499
vt 0.113284 0.897499
vt 0.113284 0.808897
vt 0.226554 0.876595
vt 0.226554 0.864190
vt 0.207948 0.857988
vt 0.207948 0.845584
vt 0.207948 0.882797
vt 0.214150 0.876595
vt 0.214150 0.864190
vt 0.263767 0.876595
vt 0.282373 0.882797
vt 0.276171 0.876595
vt 0.162151 0.808235
vt 0.162151 0.890369
vt 0.140515 0.890369
vt 0.140515 0.808235
vt 0.182435 0.808235
vt 0.182435 0.890369
vt 0.121198 0.808235
vt 0.121198 0.890369
vt 0.107676 0.890369
vt 0.107676 0.808235
vt 0.477106 0.893890
vt 0.395029 0.893890
vt 0.395029 0.808797
vt 0.477106 0.808797
vt 0.181920 0.807756
vt 0.181920 0.896826
vt 0.174016 0.889392
vt 0.174016 0.807756
vt 0.362861 0.892150
vt 0.344251 0.892150
vt 0.344251 0.809321
vt 0.362861 0.809321
vt 0.106768 0.818656
vt 0.106768 0.855362
vt 0.106768 0.892068
vt 0.143474 0.892068
vt 0.180180 0.892068
vt 0.180180 0.855362
vt 0.180180 0.818656
vt 0.143474 0.818656
vt 0.476113 0.807927
vt 0.476113 0.890764
vt 0.462380 0.879172
vt 0.462380 0.819520
vt 0.175755 0.809951
vt 0.175755 0.894446
vt 0.166639 0.888915
vt 0.166639 0.816612
vt 0.381472 0.892150
vt 0.381472 0.809321
vt 0.325641 0.892150
vt 0.325641 0.809321
vt 0.307031 0.892150
vt 0.307031 0.809321
vt 0.207940 0.812098
vt 0.266576 0.811915
vt 0.266576 0.873525
vt 0.207940 0.874246
vt 0.231283 0.806758
vt 0.275688 0.806758
vt 0.267447 0.813551
vt 0.213563 0.813551
vt 0.405640 0.811628
vt 0.463389 0.810975
vt 0.469032 0.820900
vt 0.405242 0.820191
vt 0.203934 0.806846
vt 0.243708 0.805599
vt 0.273842 0.808929
vt 0.208595 0.808848
vt 0.380017 0.898657
vt 0.302534 0.897823
vt 0.312260 0.889448
vt 0.380286 0.888394
vt 0.270058 0.881379
vt 0.204653 0.881379
vt 0.211265 0.876955
vt 0.269848 0.876955
vt 0.384155 0.807276
vt 0.384155 0.896904
vt 0.368366 0.880221
vt 0.368366 0.823855
vt 0.179892 0.809259
vt 0.179892 0.895575
vt 0.302109 0.896631
vt 0.302109 0.807707
vt 0.312667 0.820780
vt 0.312667 0.881333
vt 0.329794 0.807425
vt 0.356193 0.807425
vt 0.356193 0.812662
vt 0.200713 0.808700
vt 0.281488 0.808700
vt 0.281488 0.812045
vt 0.200713 0.812045
vt 0.275527 0.807953
vt 0.275527 0.873812
vt 0.273030 0.805647
vt 0.114085 0.896289
vt 0.112389 0.810127
vt 0.116655 0.809361
vt 0.116896 0.894106
vt 0.377800 0.809947
vt 0.377800 0.896486
vt 0.366118 0.896486
vt 0.366118 0.809947
vt 0.417090 0.898827
vt 0.393592 0.880657
vt 0.417090 0.879954
vt 0.303329 0.892442
vt 0.303329 0.817182
vt 0.313546 0.814283
vt 0.313546 0.883011
vt 0.380042 0.809061
vt 0.380042 0.896970
vt 0.367665 0.887574
vt 0.367665 0.809061
vt 0.263978 0.810568
vt 0.263978 0.879502
vt 0.210541 0.879502
vt 0.210541 0.810568
vt 0.396263 0.807296
vt 0.396263 0.896894
vt 0.478326 0.896894
vt 0.478326 0.807296
vt 0.113155 0.897490
vt 0.113155 0.808888
vt 0.132844 0.897490
vt 0.274883 0.879862
vt 0.208134 0.880496
vt 0.366821 0.812380
vt 0.366821 0.884909
vt 0.329679 0.877690
vt 0.337098 0.820450
vt 0.207401 0.806852
vt 0.417090 0.806586
vt 0.482048 0.806586
vt 0.482048 0.879954
vt 0.311654 0.882165
vt 0.315843 0.814649
vt 0.351752 0.803492
vt 0.348175 0.896077
vt 0.482048 0.898827
vt 0.401619 0.808580
vt 0.480219 0.808580
vt 0.480219 0.814956
vt 0.401619 0.814956
vt 0.393592 0.806586
vt 0.208595 0.880080
vt 0.273842 0.880080
vt 0.203934 0.880080
vt 0.369199 0.814283
vt 0.369199 0.883011
vt 0.378250 0.814283
vt 0.378250 0.892442
vt 0.336085 0.892442
vt 0.340395 0.811497
vt 0.340395 0.890097
vt 0.324733 0.890097
vt 0.324733 0.811497
vt 0.171970 0.809361
vt 0.170964 0.893230
vt 0.154029 0.896637
vt 0.169201 0.897273
vt 0.301661 0.887833
vt 0.301661 0.809061
vt 0.338854 0.896917
vt 0.302141 0.897110
vt 0.417936 0.827358
vt 0.460257 0.827358
vt 0.460257 0.870643
vt 0.417936 0.870643
vt 0.460257 0.900406
vt 0.392587 0.899256
vt 0.392587 0.806616
vt 0.486393 0.900413
vt 0.486393 0.806616
vt 0.313104 0.896486
vt 0.313104 0.809947
vt 0.301422 0.896486
vt 0.301422 0.809947
vt 0.381256 0.897516
vt 0.306546 0.897516
vt 0.306546 0.892674
vt 0.381256 0.892674
vt 0.478618 0.807296
vt 0.478618 0.896894
vt 0.409419 0.899470
vt 0.409419 0.807327
vt 0.414535 0.807327
vt 0.414535 0.899470
vt 0.266347 0.809749
vt 0.267496 0.869624
vt 0.213372 0.869624
vt 0.213372 0.809749
vt 0.201779 0.879428
vt 0.201779 0.809749
vt 0.275438 0.809530
vt 0.275326 0.879428
vt 0.163836 0.809332
vt 0.129082 0.808923
vt 0.172001 0.809065
vt 0.115608 0.809767
vt 0.307009 0.897043
vt 0.307009 0.808696
vt 0.381488 0.900047
vt 0.302774 0.900047
vt 0.302774 0.894435
vt 0.381488 0.894435
vt 0.302132 0.897043
vt 0.302132 0.808696
vt 0.379944 0.809781
vt 0.379944 0.889652
vt 0.302184 0.889652
vt 0.302184 0.809781
vt 0.303572 0.808626
vt 0.356370 0.808626
vt 0.382769 0.809888
vt 0.303572 0.809888
vt 0.347951 0.806759
vt 0.347951 0.889857
vt 0.331357 0.889857
vt 0.331357 0.806759
vt 0.364426 0.816006
vt 0.364426 0.882000
vt 0.345866 0.877520
vt 0.345866 0.821810
vt 0.469032 0.891700
vt 0.405242 0.891700
vt 0.325097 0.882576
vt 0.325097 0.815469
vt 0.343353 0.892978
vt 0.343605 0.806354
vt 0.393836 0.811556
vt 0.468079 0.898036
vt 0.393836 0.898036
vt 0.107656 0.890663
vt 0.107656 0.807756
vt 0.107656 0.897745
vt 0.312260 0.820262
vt 0.380286 0.820262
vt 0.382160 0.890874
vt 0.311809 0.890874
vt 0.311809 0.886395
vt 0.382160 0.886395
vt 0.302534 0.807125
vt 0.380286 0.807125
vt 0.179394 0.891933
vt 0.104101 0.891933
vt 0.104101 0.814099
vt 0.179919 0.814949
vt 0.141505 0.807907
vt 0.188019 0.808362
vt 0.103798 0.807395
vt 0.188019 0.891933
vt 0.408623 0.879172
vt 0.408623 0.819520
vt 0.394890 0.890764
vt 0.394890 0.807927
vt 0.269848 0.807964
vt 0.211265 0.807964
vt 0.204653 0.807964
vt 0.319588 0.880221
vt 0.319588 0.823855
vt 0.302908 0.806612
vt 0.368383 0.806612
vt 0.302908 0.896904
vt 0.267447 0.868801
vt 0.213563 0.868801
vt 0.205170 0.806758
vt 0.275688 0.875921
vt 0.205170 0.875921
vt 0.366365 0.820780
vt 0.366365 0.881333
vt 0.380712 0.896631
vt 0.380712 0.807707
vt 0.467128 0.899568
vt 0.394264 0.899568
vt 0.394264 0.814292
vt 0.467128 0.815177
vt 0.428819 0.808167
vt 0.474986 0.809065
vt 0.474986 0.899568
vt 0.395358 0.807206
vt 0.114492 0.887752
vt 0.114492 0.816267
vt 0.114478 0.807469
vt 0.115023 0.896826
vt 0.172222 0.808888
vt 0.172222 0.897490
vt 0.108136 0.895575
vt 0.108136 0.809259
s 0
f 24/1/1 17/2/1 28/3/1 27/4/1
f 3/5/1 14/6/1 20/7/1 19/8/1
f 6/9/2 92/10/2 151/11/2 152/12/2
f 22/13/1 9/14/1 16/15/1 15/16/1
f 9/14/1 3/5/1 19/8/1 16/15/1
f 22/13/1 24/1/1 10/17/1 96/18/1 9/14/1
f 12/19/1 104/20/1 11/21/1 23/22/1 21/23/1
f 21/23/1 13/24/1 35/25/1 36/26/1
f 13/24/1 21/23/1 22/13/1 14/6/1 93/27/1
f 7/28/1 10/17/1 25/29/1 26/30/1
f 89/31/1 101/32/1 150/33/1 149/34/1
f 14/6/1 22/13/1 15/16/1 20/7/1
f 2/35/3 90/36/3 95/37/3 94/38/3
f 23/22/1 11/21/1 31/39/1 32/40/1
f 23/22/1 18/41/1 99/42/1 17/2/1 24/1/1
f 10/17/1 24/1/1 27/4/1 25/29/1
f 17/2/1 7/28/1 26/30/1 28/3/1
f 11/21/1 5/43/1 30/44/1 31/39/1
f 5/43/1 18/41/1 29/45/1 30/44/1
f 18/41/1 23/22/1 32/40/1 29/45/1
f 12/19/1 21/23/1 36/26/1 33/46/1
f 13/24/1 1/47/1 34/48/1 35/25/1
f 1/47/1 12/19/1 33/46/1 34/48/1
f 34/49/3 56/50/3 55/51/3 35/52/3
f 33/53/4 51/54/4 56/50/4 34/49/4
f 36/55/2 52/56/2 51/57/2 33/58/2
f 29/55/5 72/56/5 69/57/5 30/58/5
f 32/52/6 71/51/6 72/56/6 29/55/6
f 31/49/7 70/50/7 71/51/7 32/52/7
f 30/53/8 69/54/8 70/50/8 31/49/8
f 26/55/2 65/56/2 66/57/2 28/58/2
f 25/52/9 68/51/9 65/56/9 26/55/9
f 27/49/3 67/50/3 68/51/3 25/52/3
f 28/53/10 66/54/10 67/50/10 27/49/10
f 15/52/8 64/51/8 63/56/8 20/55/8
f 16/49/11 62/50/11 64/51/11 15/52/11
f 19/53/6 61/54/6 62/50/6 16/49/6
f 20/55/12 63/56/12 61/57/12 19/58/12
f 60/22/13 63/40/13 64/45/13 53/41/13
f 39/47/13 55/48/13 56/25/13 50/24/13
f 42/59/8 84/60/8 83/61/8 76/62/8
f 75/63/3 40/64/3 166/65/3 165/66/3
f 58/23/13 51/26/13 52/46/13 45/19/13
f 45/19/13 52/46/13 55/48/13 39/47/13
f 58/23/13 45/19/13 79/20/13 46/21/13 60/22/13
f 48/14/13 57/13/13 59/1/13 47/17/13 85/18/13
f 57/67/3 58/68/3 22/69/3 21/70/3
f 57/13/13 72/16/13 71/7/13 49/6/13
f 49/6/13 86/27/13 50/24/13 58/23/13 57/13/13
f 43/43/13 62/44/13 61/39/13 46/21/13
f 42/71/1 82/72/1 44/73/1 78/74/1 40/75/1 88/76/1 38/77/1 84/78/1
f 73/79/6 44/80/6 182/81/6 183/82/6
f 50/24/13 56/25/13 51/26/13 58/23/13
f 74/83/8 38/84/8 206/85/8 205/86/8
f 59/1/13 68/4/13 67/29/13 47/17/13
f 59/1/13 60/22/13 53/41/13 80/42/13 54/2/13
f 46/21/13 61/39/13 63/40/13 60/22/13
f 53/41/13 64/45/13 62/44/13 43/43/13
f 47/17/13 67/29/13 66/30/13 41/28/13
f 41/28/13 66/30/13 65/3/13 54/2/13
f 54/2/13 65/3/13 68/4/13 59/1/13
f 48/14/13 69/15/13 72/16/13 57/13/13
f 49/6/13 71/7/13 70/8/13 37/5/13
f 37/5/13 70/8/13 69/15/13 48/14/13
f 35/52/14 55/51/14 52/56/14 36/55/14
f 59/87/8 57/67/8 21/70/8 23/88/8
f 58/68/6 60/89/6 24/90/6 22/69/6
f 60/89/2 59/91/2 23/92/2 24/90/2
f 107/93/8 108/94/8 105/95/8 106/96/8
f 47/97/13 41/98/13 193/99/13 194/100/13
f 45/101/13 39/102/13 159/103/13 160/104/13
f 43/105/13 46/106/13 173/107/13 174/108/13
f 44/109/2 73/110/2 170/111/2 169/112/2
f 82/113/1 42/114/1 186/115/1 188/116/1
f 80/117/6 81/118/6 192/119/6 189/120/6
f 85/121/8 83/122/8 48/121/8
f 38/123/3 74/124/3 197/125/3 198/126/3
f 50/127/13 86/128/13 155/129/13
f 75/130/13 87/131/13 211/132/13 209/133/13
f 103/134/2 104/135/2 105/95/2 108/94/2
f 93/136/1 14/106/1 115/107/1
f 7/137/2 89/138/2 125/139/2 124/140/2
f 94/141/8 95/142/8 138/143/8 137/144/8
f 13/145/1 93/146/1 110/147/1
f 96/148/2 97/149/2 122/150/2 120/151/2
f 89/152/6 7/153/6 128/154/6 127/155/6
f 100/156/2 101/157/2 92/158/2 6/159/2
f 102/160/8 103/161/8 90/162/8 2/163/8
f 104/164/8 103/165/8 11/166/8
f 12/167/1 1/168/1 106/96/1 105/95/1
f 104/135/1 12/167/1 105/95/1
f 107/169/8 106/170/8 113/171/8 114/172/8
f 90/173/13 103/134/13 108/94/13 107/93/13
f 110/147/3 112/174/3 111/175/3 109/176/3
f 109/177/3 111/178/3 114/172/3 113/171/3
f 90/179/13 107/169/13 114/172/13 111/178/13
f 106/170/1 1/180/1 109/177/1 113/171/1
f 1/181/1 13/145/1 110/147/1 109/176/1
f 95/182/13 90/183/13 111/184/13 112/185/13
f 93/146/6 95/186/6 112/174/6 110/147/6
f 117/187/3 118/188/3 115/107/3 116/108/3
f 14/106/1 3/105/1 116/108/1 115/107/1
f 3/105/6 91/189/6 117/187/6 116/108/6
f 120/151/6 122/150/6 121/190/6 119/191/6
f 91/192/3 3/193/3 119/191/3 121/190/3
f 9/194/1 96/148/1 120/151/1
f 97/195/13 91/196/13 121/197/13 122/198/13
f 3/193/1 9/194/1 120/151/1 119/191/1
f 125/139/6 126/199/6 123/200/6 124/140/6
f 10/201/1 7/137/1 124/140/1 123/200/1
f 96/202/1 10/201/1 123/200/1
f 129/203/2 130/204/2 127/155/2 128/154/2
f 7/153/1 17/205/1 129/203/1 128/154/1
f 17/205/1 99/206/1 129/203/1
f 133/207/2 134/208/2 131/209/2 132/210/2
f 18/211/1 5/212/1 132/210/1 131/209/1
f 5/212/8 92/213/8 133/207/8 132/210/8
f 99/214/1 18/211/1 131/209/1
f 101/215/6 99/214/6 131/209/6 134/208/6
f 137/144/3 138/143/3 135/216/3 136/217/3
f 91/218/6 4/219/6 136/217/6 135/216/6
f 95/220/1 91/221/1 135/222/1 138/223/1
f 140/224/6 139/225/6 142/161/6 141/160/6
f 4/226/3 91/227/3 139/228/3 140/229/3
f 146/230/6 145/231/6 144/232/6 143/233/6
f 89/234/2 8/235/2 143/233/2 144/232/2
f 98/236/3 97/237/3 145/231/3 146/230/3
f 97/237/1 89/234/1 144/232/1 145/231/1
f 148/238/2 149/34/2 150/33/2 147/239/2
f 8/240/6 89/31/6 149/34/6 148/238/6
f 101/32/8 100/241/8 147/239/8 150/33/8
f 152/12/8 151/11/8 154/242/8 153/243/8
f 92/244/1 103/245/1 154/246/1 151/247/1
f 103/248/3 102/249/3 153/243/3 154/242/3
f 101/215/13 134/208/13 133/207/13 92/213/13
f 155/250/3 158/251/3 157/252/3 156/253/3
f 39/254/13 50/255/13 155/256/13 156/257/13
f 86/258/8 87/259/8 158/260/8 155/261/8
f 156/262/3 157/263/3 164/264/3 163/265/3
f 161/266/6 162/267/6 160/104/6 159/103/6
f 161/268/6 159/269/6 163/265/6 164/264/6
f 157/263/1 75/270/1 161/268/1 164/264/1
f 39/271/13 156/262/13 163/265/13 159/269/13
f 79/272/13 45/101/13 160/104/13
f 75/273/1 77/274/1 162/267/1 161/266/1
f 77/274/2 79/272/2 160/104/2 162/267/2
f 166/65/6 167/275/6 168/276/6 165/66/6
f 40/64/1 78/277/1 167/275/1 166/65/1
f 171/278/6 172/279/6 169/112/6 170/111/6
f 78/280/1 44/281/1 169/282/1 172/283/1
f 73/110/13 77/284/13 171/278/13 170/111/13
f 77/284/3 78/285/3 172/279/3 171/278/3
f 173/107/6 176/188/6 175/187/6 174/108/6
f 46/106/13 79/136/13 173/107/13
f 73/189/2 43/105/2 174/108/2 175/187/2
f 177/286/2 180/287/2 179/288/2 178/289/2
f 53/290/13 43/291/13 178/289/13 179/288/13
f 80/292/13 53/290/13 179/288/13
f 43/291/6 73/293/6 177/286/6 178/289/6
f 182/81/2 181/294/2 184/295/2 183/82/2
f 44/80/1 82/296/1 181/294/1 182/81/1
f 82/296/8 81/297/8 184/295/8 181/294/8
f 81/297/13 73/79/13 183/82/13 184/295/13
f 187/298/2 188/116/2 186/115/2 185/299/2
f 42/114/8 76/300/8 185/299/8 186/115/8
f 189/120/2 192/119/2 191/301/2 190/302/2
f 41/303/13 54/304/13 189/120/13 190/302/13
f 54/304/13 80/117/13 189/120/13
f 81/118/1 76/305/1 191/301/1 192/119/1
f 76/305/8 41/303/8 190/302/8 191/301/8
f 195/306/8 196/307/8 194/100/8 193/99/8
f 85/308/13 47/97/13 194/100/13
f 76/309/1 83/310/1 196/307/1 195/306/1
f 41/98/2 76/309/2 195/306/2 193/99/2
f 83/310/3 85/308/3 194/100/3 196/307/3
f 199/311/8 200/312/8 198/126/8 197/125/8
f 84/313/1 38/123/1 198/126/1 200/312/1
f 74/124/13 83/314/13 199/311/13 197/125/13
f 83/314/2 84/313/2 200/312/2 199/311/2
f 203/315/3 204/316/3 202/317/3 201/318/3
f 49/319/13 37/320/13 201/318/13 202/317/13
f 37/320/8 74/321/8 203/315/8 201/318/8
f 86/322/13 49/319/13 202/317/13
f 206/85/3 207/323/3 208/324/3 205/86/3
f 87/325/13 74/83/13 205/86/13 208/324/13
f 38/84/1 88/326/1 207/323/1 206/85/1
f 211/230/3 212/231/3 210/232/3 209/233/3
f 40/234/6 75/235/6 209/233/6 210/232/6
f 87/236/8 88/237/8 212/231/8 211/230/8
f 88/237/1 40/234/1 210/232/1 212/231/1
f 11/166/8 103/165/8 92/327/8 5/328/8
f 48/121/8 83/122/8 74/329/8 37/330/8
