# Blender 4.4.3
# www.blender.org
o SM_CornerStore_Buildings_V1.0
v -1.000000 2.000000 1.000000
v -1.000000 0.000000 -1.000000
v -1.000000 2.000000 -1.000000
v 1.000000 0.000000 1.000000
v 1.000000 2.000000 1.000000
v 1.000000 0.000000 -1.000000
v 1.000000 2.000000 -1.000000
v -0.900000 0.900000 0.900000
v -1.000000 1.100000 1.000000
v -1.000000 1.100000 -1.000000
v -1.000000 0.900000 -1.000000
v 1.000000 1.100000 1.000000
v -1.000000 0.000000 -0.800000
v 1.000000 0.900000 1.000000
v -1.000000 0.900000 -0.800000
v -1.000000 1.100000 -0.800000
v 0.800000 0.000000 1.000000
v 0.800000 0.900000 1.000000
v 0.800000 1.100000 1.000000
v 1.000000 0.900000 1.100000
v 1.000000 0.000000 1.100000
v 0.800000 0.000000 1.100000
v -1.000000 0.900000 1.100000
v -1.000000 1.100000 1.100000
v 1.000000 1.100000 1.100000
v 0.800000 0.900000 1.100000
v 0.800000 1.100000 1.100000
v -1.100000 0.900000 -1.000000
v -1.100000 0.000000 -1.000000
v -1.100000 0.900000 1.000000
v -1.100000 1.100000 1.000000
v -1.100000 1.100000 -1.000000
v -1.100000 0.000000 -0.800000
v -1.100000 1.100000 -0.800000
v -1.100000 0.900000 -0.800000
v -1.100000 0.900000 1.100000
v -1.100000 1.100000 1.100000
v -1.000000 0.900000 0.500000
v -1.000000 0.000000 0.500000
v -0.500000 0.900000 1.000000
v -0.500000 0.000000 1.000000
v -0.900000 0.450000 0.900000
v -0.500000 0.450000 1.000000
v -1.000000 0.450000 0.500000
v -0.080800 1.208000 1.000000
v -0.164800 1.838000 1.000000
v 0.395200 1.838000 1.000000
v 0.311200 1.208000 1.000000
v -0.080800 1.208000 0.900000
v -0.164800 1.838000 0.900000
v 0.395200 1.838000 0.900000
v 0.311200 1.208000 0.900000
v -0.985000 1.200800 0.087680
v -1.000000 1.848800 0.174080
v -1.000000 1.848800 -0.401920
v -0.985000 1.200800 -0.315520
v 0.399074 1.839038 1.000000
v -0.915000 1.200800 0.087680
v -0.900000 1.848800 0.174080
v -0.900000 1.848800 -0.401920
v -0.915000 1.200800 -0.315520
v 1.102015 2.112451 -1.102015
v 1.102015 2.112451 1.102015
v -1.102015 2.112451 1.102015
v -1.102015 2.112451 -1.102015
v 1.102015 2.162803 -1.102015
v 1.102015 2.162803 1.102015
v -1.102015 2.162803 1.102015
v -1.102015 2.162803 -1.102015
vn -0.0000 -0.0000 -1.0000
vn 0.7406 -0.6719 -0.0000
vn -0.0000 -0.0000 1.0000
vn 1.0000 -0.0000 -0.0000
vn -0.0000 -1.0000 -0.0000
vn -0.0000 1.0000 -0.0000
vn -0.0000 0.1322 0.9912
vn -1.0000 -0.0000 -0.0000
vn -0.9999 -0.0092 -0.0084
vn -0.7071 -0.0000 0.7071
vn -0.9701 -0.0000 0.2425
vn -0.2425 -0.0000 0.9701
vn -0.9997 0.0231 -0.0000
vn 0.9912 0.1322 -0.0000
vn -0.9912 0.1322 -0.0000
vn -0.9891 0.1472 -0.0000
vn -0.9996 -0.0126 0.0238
vn -0.0000 0.1322 -0.9912
vn -0.0000 -0.6719 0.7406
vn -0.0000 -0.6719 -0.7406
vn -0.7406 -0.6719 -0.0000
vt 0.573722 0.937667
vt 0.573722 0.945035
vt 0.496025 0.978192
vt 0.496025 0.904511
vt 0.852483 0.993657
vt 0.852608 0.985667
vt 0.855355 0.985024
vt 0.855355 0.994289
vt 0.677839 0.966339
vt 0.677779 0.905689
vt 0.611513 0.905908
vt 0.607917 0.938060
vt 0.021495 0.945674
vt 0.035723 0.959902
vt 0.049952 0.974131
vt 0.048371 0.975712
vt 0.019914 0.947255
vt 0.740104 0.903377
vt 0.740104 0.952343
vt 0.730208 0.952343
vt 0.730208 0.903377
vt 0.748416 0.994590
vt 0.748416 0.994278
vt 0.748772 0.994278
vt 0.748772 0.994590
vt 0.664457 0.983625
vt 0.679793 0.988508
vt 0.663930 0.993145
vt 0.007267 0.931446
vt 0.005686 0.933027
vt 0.744346 0.994278
vt 0.744346 0.994590
vt 0.661291 0.980636
vt 0.666061 0.927620
vt 0.675434 0.915235
vt 0.674597 0.990919
vt 0.743634 0.994278
vt 0.743634 0.994590
vt 0.763562 0.951795
vt 0.763562 0.962274
vt 0.729733 0.962274
vt 0.729733 0.951795
vt 0.573722 0.904511
vt 0.573722 0.978192
vt 0.767321 0.951795
vt 0.767321 0.962274
vt 0.767321 0.904641
vt 0.763562 0.904641
vt 0.064180 0.959902
vt 0.078408 0.945674
vt 0.079989 0.947255
vt 0.051532 0.975712
vt 0.721470 0.984954
vt 0.726836 0.984954
vt 0.726836 0.988128
vt 0.721470 0.988128
vt 0.092298 0.931785
vt 0.093879 0.933366
vt 0.692144 0.951795
vt 0.692144 0.962274
vt 0.688385 0.962274
vt 0.688385 0.951795
vt 0.692144 0.904641
vt 0.688385 0.904641
vt 0.725974 0.951795
vt 0.725974 0.962274
vt 0.727853 0.951795
vt 0.727853 0.962274
vt 0.049952 0.977293
vt 0.762886 0.987188
vt 0.762886 0.980840
vt 0.765570 0.980840
vt 0.765570 0.987188
vt 0.748416 0.988653
vt 0.748772 0.988653
vt 0.748416 0.988028
vt 0.748772 0.988028
vt 0.490331 0.946310
vt 0.574410 0.946334
vt 0.551579 0.941283
vt 0.533269 0.941277
vt 0.490380 0.946310
vt 0.490368 0.904271
vt 0.528914 0.911341
vt 0.532941 0.941566
vt 0.607128 0.964634
vt 0.805724 0.976566
vt 0.805724 0.903536
vt 0.866105 0.903536
vt 0.866105 0.976566
vt 0.607917 0.936253
vt 0.589534 0.935954
vt 0.590979 0.903740
vt 0.804409 0.987931
vt 0.804409 0.905288
vt 0.848340 0.905288
vt 0.848340 0.987931
vt 0.583764 0.904297
vt 0.490343 0.904271
vt 0.529353 0.911849
vt 0.555511 0.911856
vt 0.555692 0.911808
vt 0.583752 0.946336
vt 0.613257 0.978149
vt 0.603883 0.990534
vt 0.618027 0.925133
vt 0.604721 0.914850
vt 0.583715 0.904307
vt 0.555797 0.911352
vt 0.583670 0.946336
vt 0.574334 0.946325
vt 0.551733 0.941568
vt 0.853433 0.994820
vt 0.810074 0.994820
vt 0.811224 0.994599
vt 0.852283 0.994599
vt 0.817301 0.993497
vt 0.814553 0.994139
vt 0.817426 0.985507
vt 0.814553 0.984875
vt 0.811224 0.986483
vt 0.852283 0.986483
vt 0.853433 0.985955
vt 0.853433 0.995127
vt 0.852283 0.993987
vt 0.852283 0.987095
vt 0.810074 0.986262
vt 0.853433 0.986262
s 0
f 11/1/1 10/2/1 7/3/1 6/4/1
f 5/5/2 7/6/2 62/7/2 63/8/2
f 17/9/3 18/10/3 40/11/3 43/12/3
f 7/3/4 12/2/4 14/1/4 6/4/4
f 15/13/5 38/14/5 8/15/5 30/16/5 35/17/5
f 11/18/1 2/19/1 29/20/1 28/21/1
f 24/22/6 9/23/6 31/24/6 37/25/6
f 43/26/5 42/27/5 44/28/5
f 13/29/3 15/13/3 35/17/3 33/30/3
f 19/31/6 9/23/6 24/22/6 27/32/6
f 55/33/7 56/34/7 61/35/7 60/36/7
f 12/37/6 19/31/6 27/32/6 25/38/6
f 45/33/6 48/34/6 52/35/6 49/36/6
f 26/39/3 27/40/3 24/41/3 23/42/3
f 6/4/4 14/1/4 4/43/4
f 12/2/4 7/3/4 5/44/4
f 6/4/1 2/43/1 11/1/1
f 7/3/1 10/2/1 3/44/1
f 20/45/3 25/46/3 27/40/3 26/39/3
f 21/47/3 20/45/3 26/39/3 22/48/3
f 8/15/5 40/49/5 18/50/5 26/51/5 23/52/5
f 4/18/4 14/19/4 20/20/4 21/21/4
f 14/53/4 12/54/4 25/55/4 20/56/4
f 18/50/8 17/57/8 22/58/8 26/51/8
f 35/59/8 34/60/8 32/61/8 28/62/8
f 33/63/8 35/59/8 28/62/8 29/64/8
f 30/65/8 31/66/8 34/60/8 35/59/8
f 31/66/8 30/65/8 36/67/8 37/68/8
f 8/15/5 23/52/5 36/69/5 30/16/5
f 10/70/1 11/71/1 28/72/1 32/73/1
f 9/23/6 16/74/6 34/75/6 31/24/6
f 16/74/6 10/76/6 32/77/6 34/75/6
f 23/42/3 24/41/3 37/68/3 36/67/3
f 9/78/3 19/79/3 48/80/3 45/81/3
f 9/82/9 1/83/9 54/84/9 53/85/9
f 39/86/8 44/12/8 13/9/8
f 44/87/10 39/88/10 41/89/10 43/90/10
f 13/9/8 44/12/8 38/11/8 15/10/8
f 43/12/3 41/86/3 17/9/3
f 44/91/11 42/92/11 8/93/11 38/11/11
f 42/92/12 43/91/12 40/11/12 8/93/12
f 60/94/13 61/95/13 58/96/13 59/97/13
f 5/98/3 1/99/3 46/100/3 47/101/3 57/102/3
f 1/99/3 9/78/3 45/81/3 46/100/3
f 57/102/3 12/103/3 5/98/3
f 51/94/3 50/95/3 49/96/3 52/97/3
f 46/104/14 45/33/14 49/36/14 50/105/14
f 47/106/5 46/104/5 50/105/5 51/107/5
f 48/34/15 47/106/15 51/107/15 52/35/15
f 12/103/3 57/102/3 47/101/3 48/80/3 19/79/3
f 1/83/8 3/108/8 55/109/8 54/84/8
f 55/109/8 3/108/8 10/110/8
f 16/111/16 9/82/16 53/85/16 56/112/16
f 10/110/17 16/111/17 56/112/17 55/109/17
f 56/34/6 53/106/6 58/107/6 61/35/6
f 53/106/18 54/104/18 59/105/18 58/107/18
f 54/104/5 55/33/5 60/36/5 59/105/5
f 62/113/1 65/114/1 69/115/1 66/116/1
f 1/117/19 5/5/19 63/8/19 64/118/19
f 7/6/20 3/119/20 65/120/20 62/7/20
f 3/119/21 1/117/21 64/118/21 65/120/21
f 66/116/6 69/115/6 68/121/6 67/122/6
f 63/123/4 62/124/4 66/125/4 67/126/4
f 64/127/3 63/128/3 67/122/3 68/121/3
f 65/114/8 64/127/8 68/121/8 69/115/8
