# Blender 4.4.3
# www.blender.org
o SM_DarkBlue_Storefront_V1.0
v -1.010000 0.000000 0.500000
v -1.010000 1.220000 0.500000
v -1.010000 0.000000 0.000000
v -1.010000 1.220000 0.000000
v -1.010000 0.805582 0.500000
v -0.197267 0.802640 0.200000
v -0.553101 1.220000 0.500000
v -1.010000 0.200345 0.500000
v -0.197267 0.000000 0.500000
v -0.197267 0.805582 0.500000
v -0.197267 0.200345 0.500000
v -0.197267 0.000000 0.200000
v -0.197267 0.200345 0.200000
v -1.010000 0.805227 0.000000
v -1.010000 0.200345 0.000000
v 1.010000 0.000000 0.500000
v 1.010000 1.220000 0.500000
v 1.010000 0.000000 0.000000
v 1.010000 1.220000 0.000000
v 1.010000 0.805582 0.500000
v 0.197267 0.802640 0.200000
v 0.553101 1.220000 0.500000
v 1.010000 0.200345 0.500000
v 0.197267 0.000000 0.500000
v 0.197267 0.805582 0.500000
v 0.197267 0.200345 0.500000
v 0.197267 0.000000 0.200000
v 0.197267 0.200345 0.200000
v 1.010000 0.805227 0.000000
v 1.010000 0.200345 0.000000
v -0.553101 1.040000 0.720000
v -1.010000 1.040000 0.720000
v -0.197267 0.805582 0.900000
v -1.010000 0.805582 0.900000
v 0.553101 1.040000 0.720000
v 1.010000 1.040000 0.720000
v 0.197267 0.805582 0.900000
v 1.010000 0.805582 0.900000
v -0.172370 0.944290 0.662171
v -0.882526 0.944290 0.662171
v 0.172370 0.944290 0.662171
v 0.882526 0.944290 0.662171
vn -0.0000 -0.0000 1.0000
vn 1.0000 -0.0000 -0.0000
vn -0.0000 1.0000 -0.0000
vn -1.0000 -0.0000 -0.0000
vn -0.0000 -1.0000 0.0098
vn -0.0000 0.6090 0.7931
vn 0.7363 -0.6767 -0.0000
vn -0.0000 -0.8638 -0.5038
vn -0.0000 0.7740 0.6332
vn -0.0000 -0.7599 0.6500
vn -0.7363 -0.6767 -0.0000
vt 0.227319 0.709587
vt 0.227319 0.720723
vt 0.860915 0.416050
vt 0.860915 0.489897
vt 0.804076 0.489897
vt 0.804076 0.416050
vt 0.270174 0.709593
vt 0.270174 0.730011
vt 0.241317 0.730011
vt 0.241317 0.709593
vt 0.287489 0.709593
vt 0.287489 0.730011
vt 0.153138 0.772818
vt 0.152871 0.782623
vt 0.162769 0.788000
vt 0.226755 0.728272
vt 0.145245 0.786875
vt 0.157072 0.795672
vt 0.212460 0.729838
vt 0.212460 0.709593
vt 0.804076 0.416050
vt 0.860915 0.489897
vt 0.804076 0.416050
vt 0.860915 0.416050
vt 0.860915 0.489897
vt 0.804076 0.489896
vt 0.136096 0.771039
vt 0.144450 0.772364
vt 0.401548 0.765092
vt 0.401548 0.708812
vt 0.401548 0.740647
vt 0.478454 0.708812
vt 0.478454 0.740647
vt 0.461059 0.740647
vt 0.418943 0.740647
vt 0.432491 0.708812
vt 0.447511 0.708812
vt 0.406401 0.727649
vt 0.478454 0.765092
vt 0.433439 0.727649
vt 0.446564 0.727649
vt 0.418943 0.765092
vt 0.461059 0.765092
vt 0.473601 0.727649
s 0
f 12/1/1 27/1/1 28/2/1 13/2/1
f 11/3/1 10/4/1 5/5/1 8/6/1
f 9/7/1 11/8/1 8/9/1 1/10/1
f 11/8/2 9/7/2 12/11/2 13/12/2
f 7/13/3 22/13/3 17/14/3 19/15/3 4/15/3 2/14/3
f 13/2/1 28/2/1 21/16/1 6/16/1
f 5/17/4 2/14/4 4/15/4 14/18/4
f 8/9/4 15/19/4 3/20/4 1/10/4
f 14/5/4 15/21/4 8/3/4 5/22/4
f 11/23/2 13/24/2 6/25/2 10/26/2
f 6/27/5 21/27/5 25/28/5 10/28/5
f 26/3/1 23/6/1 20/5/1 25/4/1
f 24/7/1 16/10/1 23/9/1 26/8/1
f 26/8/4 28/12/4 27/11/4 24/7/4
f 20/17/2 29/18/2 19/15/2 17/14/2
f 23/9/2 16/10/2 18/20/2 30/19/2
f 29/5/2 20/22/2 23/3/2 30/21/2
f 26/23/4 25/26/4 21/25/4 28/24/4
f 2/29/4 5/30/4 34/30/4 32/31/4
f 38/32/6 36/33/6 35/34/6 31/35/6 32/31/6 34/30/6 33/36/6 37/37/6
f 34/30/7 5/30/7 40/38/7
f 20/32/2 17/39/2 36/33/2 38/32/2
f 33/36/8 34/30/8 40/38/8 39/40/8
f 37/37/8 33/36/8 39/40/8 41/41/8
f 7/42/9 2/29/9 32/31/9 31/35/9
f 17/39/9 22/43/9 35/34/9 36/33/9
f 22/43/9 7/42/9 31/35/9 35/34/9
f 10/36/10 25/37/10 41/41/10 39/40/10
f 38/32/8 37/37/8 41/41/8 42/44/8
f 20/17/11 38/17/11 42/17/11
f 5/30/10 10/36/10 39/40/10 40/38/10
f 25/37/10 20/32/10 42/44/10 41/41/10
