# Blender 4.4.3
# www.blender.org
o SM_Green_Storefront_V1.0
v -1.010000 0.000000 0.500000
v -1.010000 1.220000 0.500000
v -1.010000 0.000000 0.000000
v -1.010000 1.220000 0.000000
v 1.010000 0.000000 0.500000
v 1.010000 1.220000 0.500000
v 1.010000 0.000000 0.000000
v 1.010000 1.220000 0.000000
v -1.010000 0.876197 0.500000
v 1.010000 0.876197 0.500000
v 0.059739 0.000000 0.500000
v 0.059739 1.220000 0.500000
v 0.059739 0.876197 0.500000
v -0.553101 0.876197 0.200000
v 1.010000 0.107856 0.500000
v 0.500000 0.000000 0.500000
v -0.553101 1.220000 0.500000
v -1.010000 0.107856 0.500000
v 0.059739 0.876197 0.200000
v -0.553101 0.000000 0.500000
v 0.500000 1.220000 0.500000
v -0.553101 0.876197 0.500000
v 0.500000 0.876197 0.500000
v 0.059739 0.107856 0.500000
v 0.059739 0.107856 0.200000
v 0.059739 0.000000 0.200000
v 0.500000 0.107856 0.500000
v -0.553101 0.107856 0.500000
v -0.553101 0.000000 0.200000
v -0.553101 0.107856 0.200000
v -1.010000 0.875842 0.000000
v 1.010000 0.875733 0.000000
v -1.010000 0.106943 0.000000
v -0.553101 0.744392 0.200000
v 0.059739 0.748674 0.200000
v -0.553101 0.714074 0.500000
v 0.871707 0.099872 0.022777
v 0.871707 0.002802 0.022777
v 0.547169 0.002802 0.022777
v 0.871707 0.791379 0.022777
v 0.547169 0.791379 0.022777
v 0.547169 0.099872 0.022777
v 0.917229 0.000000 0.500000
v 0.917229 0.876197 0.500000
v 0.917229 0.107856 0.500000
v 1.010000 0.108053 0.000000
v -0.518747 1.129017 0.500000
v -0.915270 1.129017 0.500000
v 0.415644 1.129017 0.500000
v 0.025011 1.129017 0.500000
v -0.518747 0.947181 0.500000
v -0.915270 0.947181 0.500000
v 0.415644 0.947181 0.500000
v 0.025011 0.947181 0.500000
vn -1.0000 -0.0000 -0.0000
vn -0.0000 1.0000 -0.0000
vn -0.0000 -0.0000 1.0000
vn 1.0000 -0.0000 -0.0000
vn -0.0000 -0.9846 0.1750
vn -0.0000 -1.0000 -0.0000
vn 0.9952 -0.0000 0.0984
vn -0.9955 -0.0000 0.0950
vt 0.714125 0.827660
vt 0.714125 0.836131
vt 0.696811 0.836131
vt 0.696811 0.827660
vt 0.656290 0.839928
vt 0.647121 0.889432
vt 0.637222 0.884055
vt 0.637489 0.874250
vt 0.639839 0.861700
vt 0.642719 0.849407
vt 0.645638 0.841309
vt 0.659308 0.416050
vt 0.659308 0.474315
vt 0.659308 0.489897
vt 0.602469 0.489897
vt 0.602469 0.416050
vt 0.602469 0.489896
vt 0.602469 0.474315
vt 0.659308 0.475403
vt 0.659308 0.489897
vt 0.644774 0.864084
vt 0.647829 0.869067
vt 0.644911 0.877164
vt 0.636875 0.873702
vt 0.619341 0.870568
vt 0.655077 0.870568
vt 0.653052 0.874708
vt 0.621345 0.874708
vt 0.742983 0.827660
vt 0.742983 0.836131
vt 0.642583 0.836327
vt 0.634684 0.845945
vt 0.714125 0.844602
vt 0.742983 0.844601
vt 0.696811 0.844601
vt 0.631010 0.859873
vt 0.628801 0.873796
vt 0.620447 0.872470
vt 0.622657 0.858547
vt 0.619341 0.889450
vt 0.593282 0.889450
vt 0.598223 0.885311
vt 0.621345 0.885311
vt 0.857526 0.811018
vt 0.857526 0.822155
vt 0.805899 0.822155
vt 0.805899 0.811018
vt 0.857526 0.886361
vt 0.805899 0.885918
vt 0.655077 0.889450
vt 0.653052 0.885311
vt 0.602469 0.475815
vt 0.629596 0.888306
vt 0.641423 0.897103
vt 0.771840 0.836203
vt 0.771840 0.844602
vt 0.723665 0.811978
vt 0.725056 0.814578
vt 0.713902 0.822216
vt 0.712226 0.819748
vt 0.631997 0.810452
vt 0.664119 0.810465
vt 0.664119 0.859785
vt 0.631997 0.859815
vt 0.602469 0.416050
vt 0.659308 0.489897
vt 0.711106 0.814133
vt 0.762733 0.814575
vt 0.762733 0.829704
vt 0.711106 0.829704
vt 0.602469 0.416050
vt 0.659308 0.416050
vt 0.084307 0.904344
vt 0.084307 0.911439
vt 0.054658 0.911439
vt 0.054658 0.904344
vt 0.084307 0.961981
vt 0.054658 0.961981
vt 0.708215 0.826351
vt 0.708215 0.810127
vt 0.765399 0.810548
vt 0.765399 0.825150
vt 0.668907 0.841495
vt 0.608551 0.841495
vt 0.607924 0.811632
vt 0.662245 0.811632
vt 0.626679 0.859815
vt 0.626679 0.810452
vt 0.665961 0.821621
vt 0.631073 0.821296
vt 0.665961 0.872164
vt 0.748790 0.815447
vt 0.748790 0.822542
vt 0.664119 0.880617
vt 0.631997 0.880617
vt 0.813469 0.594043
vt 0.813469 0.605449
vt 0.788597 0.605449
vt 0.788597 0.594043
vt 0.847577 0.594043
vt 0.847577 0.605449
vt 0.872080 0.594043
vt 0.872080 0.605449
vt 0.680750 0.870568
vt 0.675831 0.874708
vt 0.680750 0.889450
vt 0.675831 0.885311
vt 0.593282 0.870568
vt 0.598223 0.874708
s 0
f 11/1/1 24/2/1 25/3/1 26/4/1
f 8/5/2 4/6/2 2/7/2 17/8/2 12/9/2 21/10/2 6/11/2
f 28/12/3 36/13/3 22/14/3 9/15/3 18/16/3
f 27/12/3 23/14/3 13/15/3 24/16/3
f 22/17/4 36/18/4 34/19/4 14/20/4
f 10/21/3 6/22/3 21/23/3 23/24/3
f 22/25/3 13/26/3 54/27/3 51/28/3
f 16/29/3 27/30/3 24/2/3 11/1/3
f 10/31/5 23/32/5 41/32/5 40/31/5
f 20/33/3 28/2/3 18/30/3 1/34/3
f 28/2/4 20/33/4 29/35/4 30/3/4
f 13/36/6 22/37/6 14/38/6 19/39/6
f 17/40/3 2/41/3 48/42/3 47/43/3
f 26/44/3 25/45/3 30/46/3 29/47/3
f 25/45/3 35/48/3 34/49/3 30/46/3
f 12/50/3 17/40/3 47/43/3 50/51/3
f 24/12/1 35/52/1 25/16/1
f 9/53/1 2/7/1 4/6/1 31/54/1
f 18/30/1 33/55/1 3/56/1 1/34/1
f 7/57/4 46/58/4 15/59/4 5/60/4
f 15/61/4 46/62/4 32/63/4 10/64/4
f 31/15/1 33/65/1 18/12/1 9/66/1
f 35/52/1 24/12/1 13/14/1 19/15/1
f 34/67/3 35/68/3 19/69/3 14/70/3
f 34/19/4 28/71/4 30/72/4
f 28/71/4 34/19/4 36/18/4
f 38/73/3 37/74/3 42/75/3 39/76/3
f 37/74/3 40/77/3 41/78/3 42/75/3
f 27/79/7 16/80/7 39/81/7 42/82/7
f 23/83/7 27/84/7 42/85/7 41/86/7
f 15/61/3 10/64/3 44/87/3 45/88/3
f 5/60/3 15/59/3 45/59/3 43/60/3
f 37/89/8 45/90/8 44/31/8 40/91/8
f 38/92/8 43/60/8 45/59/8 37/93/8
f 10/64/4 32/63/4 8/94/4 6/95/4
f 51/96/3 47/97/3 48/98/3 52/99/3
f 54/100/3 50/101/3 47/97/3 51/96/3
f 53/102/3 49/103/3 50/101/3 54/100/3
f 13/26/3 23/104/3 53/105/3 54/27/3
f 21/106/3 12/50/3 50/51/3 49/107/3
f 23/104/3 21/106/3 49/107/3 53/105/3
f 2/41/3 9/108/3 52/109/3 48/42/3
f 9/108/3 22/25/3 51/28/3 52/109/3
