# Blender 4.4.3
# www.blender.org
o SM_Purple_Storefront_V1.0
v -1.010000 0.000000 0.500000
v -1.010000 1.220000 0.500000
v -1.010000 0.000000 0.000000
v -1.010000 1.220000 0.000000
v 1.010000 0.000000 0.500000
v 1.010000 1.220000 0.500000
v 1.010000 0.000000 0.000000
v 1.010000 1.220000 0.000000
v -1.010000 0.876197 0.500000
v 1.010000 0.876197 0.500000
v 0.059739 0.000000 0.500000
v 0.059739 1.220000 0.500000
v 0.059739 0.876197 0.500000
v -0.553101 0.876197 0.200000
v 1.010000 0.107856 0.500000
v 0.500000 0.000000 0.500000
v -0.553101 1.220000 0.500000
v -1.010000 0.107856 0.500000
v 0.059739 0.876197 0.200000
v -0.553101 0.000000 0.500000
v 0.500000 1.220000 0.500000
v -0.553101 0.876197 0.500000
v 0.500000 0.876197 0.500000
v 0.059739 0.107856 0.500000
v 0.059739 0.107856 0.200000
v 0.059739 0.000000 0.200000
v 0.500000 0.107856 0.500000
v -0.553101 0.107856 0.500000
v -0.553101 0.000000 0.200000
v -0.553101 0.107856 0.200000
v -1.010000 0.875842 0.000000
v 1.010000 0.875733 0.000000
v -1.010000 0.106943 0.000000
v -0.553101 0.744392 0.200000
v 0.059739 0.748674 0.200000
v -0.553101 0.714074 0.500000
v 0.871707 0.099872 0.022777
v 0.871707 0.002802 0.022777
v 0.547169 0.002802 0.022777
v 0.871707 0.791379 0.022777
v 0.547169 0.791379 0.022777
v 0.547169 0.099872 0.022777
v 0.917229 0.000000 0.500000
v 0.917229 0.876197 0.500000
v 0.917229 0.107856 0.500000
v 1.010000 0.108053 0.000000
v -0.518747 1.129017 0.500000
v -0.915270 1.129017 0.500000
v 0.415644 1.129017 0.500000
v 0.025011 1.129017 0.500000
v -0.518747 0.947181 0.500000
v -0.915270 0.947181 0.500000
v 0.415644 0.947181 0.500000
v 0.025011 0.947181 0.500000
vn -1.0000 -0.0000 -0.0000
vn -0.0000 1.0000 -0.0000
vn -0.0000 -0.0000 1.0000
vn 1.0000 -0.0000 -0.0000
vn -0.0000 -0.9846 0.1750
vn -0.0000 -1.0000 -0.0000
vn 0.9952 -0.0000 0.0984
vn -0.9955 -0.0000 0.0950
vt 0.321138 0.921159
vt 0.321138 0.929630
vt 0.303824 0.929630
vt 0.303824 0.921159
vt 0.263302 0.933427
vt 0.254133 0.982931
vt 0.244234 0.977554
vt 0.244501 0.967749
vt 0.246852 0.955199
vt 0.249732 0.942906
vt 0.252651 0.934808
vt 0.859454 0.511010
vt 0.859454 0.569274
vt 0.859454 0.584856
vt 0.802615 0.584856
vt 0.802615 0.511009
vt 0.802615 0.584856
vt 0.802615 0.569274
vt 0.859454 0.570363
vt 0.859454 0.584856
vt 0.251787 0.957583
vt 0.254842 0.962565
vt 0.251923 0.970663
vt 0.243888 0.967201
vt 0.226354 0.964067
vt 0.262090 0.964067
vt 0.260065 0.968206
vt 0.228357 0.968206
vt 0.349995 0.921159
vt 0.349995 0.929630
vt 0.249596 0.929825
vt 0.241697 0.939444
vt 0.321138 0.938100
vt 0.349995 0.938100
vt 0.303824 0.938100
vt 0.238023 0.953372
vt 0.235813 0.967295
vt 0.227460 0.965969
vt 0.229669 0.952046
vt 0.226354 0.982949
vt 0.200294 0.982949
vt 0.205235 0.978810
vt 0.228357 0.978810
vt 0.464539 0.904517
vt 0.464539 0.915654
vt 0.412912 0.915654
vt 0.412912 0.904517
vt 0.464539 0.979859
vt 0.412912 0.979417
vt 0.262090 0.982949
vt 0.260065 0.978810
vt 0.802615 0.570774
vt 0.236609 0.981805
vt 0.248435 0.990602
vt 0.378853 0.929702
vt 0.378853 0.938100
vt 0.330677 0.905477
vt 0.332069 0.908077
vt 0.320915 0.915715
vt 0.319239 0.913247
vt 0.239009 0.903951
vt 0.271132 0.903964
vt 0.271132 0.953284
vt 0.239009 0.953313
vt 0.802615 0.511010
vt 0.859454 0.584856
vt 0.318119 0.907632
vt 0.369745 0.908074
vt 0.369745 0.923203
vt 0.318119 0.923203
vt 0.802615 0.511009
vt 0.859454 0.511009
vt 0.084307 0.904344
vt 0.084307 0.911439
vt 0.054658 0.911439
vt 0.054658 0.904344
vt 0.084307 0.961981
vt 0.054658 0.961981
vt 0.315227 0.919849
vt 0.315227 0.903626
vt 0.372411 0.904047
vt 0.372411 0.918648
vt 0.275920 0.934994
vt 0.215564 0.934994
vt 0.214937 0.905131
vt 0.269257 0.905131
vt 0.233692 0.953313
vt 0.233692 0.903951
vt 0.272973 0.915120
vt 0.238086 0.914794
vt 0.272973 0.965662
vt 0.355802 0.908946
vt 0.355802 0.916041
vt 0.271132 0.974116
vt 0.239009 0.974116
vt 0.813469 0.690086
vt 0.813469 0.701492
vt 0.788597 0.701492
vt 0.788597 0.690086
vt 0.847577 0.690086
vt 0.847577 0.701492
vt 0.872080 0.690086
vt 0.872080 0.701492
vt 0.287763 0.964067
vt 0.282844 0.968206
vt 0.287763 0.982949
vt 0.282844 0.978810
vt 0.200295 0.964067
vt 0.205235 0.968206
s 0
f 11/1/1 24/2/1 25/3/1 26/4/1
f 8/5/2 4/6/2 2/7/2 17/8/2 12/9/2 21/10/2 6/11/2
f 28/12/3 36/13/3 22/14/3 9/15/3 18/16/3
f 27/12/3 23/14/3 13/15/3 24/16/3
f 22/17/4 36/18/4 34/19/4 14/20/4
f 10/21/3 6/22/3 21/23/3 23/24/3
f 22/25/3 13/26/3 54/27/3 51/28/3
f 16/29/3 27/30/3 24/2/3 11/1/3
f 10/31/5 23/32/5 41/32/5 40/31/5
f 20/33/3 28/2/3 18/30/3 1/34/3
f 28/2/4 20/33/4 29/35/4 30/3/4
f 13/36/6 22/37/6 14/38/6 19/39/6
f 17/40/3 2/41/3 48/42/3 47/43/3
f 26/44/3 25/45/3 30/46/3 29/47/3
f 25/45/3 35/48/3 34/49/3 30/46/3
f 12/50/3 17/40/3 47/43/3 50/51/3
f 24/12/1 35/52/1 25/16/1
f 9/53/1 2/7/1 4/6/1 31/54/1
f 18/30/1 33/55/1 3/56/1 1/34/1
f 7/57/4 46/58/4 15/59/4 5/60/4
f 15/61/4 46/62/4 32/63/4 10/64/4
f 31/15/1 33/65/1 18/12/1 9/66/1
f 35/52/1 24/12/1 13/14/1 19/15/1
f 34/67/3 35/68/3 19/69/3 14/70/3
f 34/19/4 28/71/4 30/72/4
f 28/71/4 34/19/4 36/18/4
f 38/73/3 37/74/3 42/75/3 39/76/3
f 37/74/3 40/77/3 41/78/3 42/75/3
f 27/79/7 16/80/7 39/81/7 42/82/7
f 23/83/7 27/84/7 42/85/7 41/86/7
f 15/61/3 10/64/3 44/87/3 45/88/3
f 5/60/3 15/59/3 45/59/3 43/60/3
f 37/89/8 45/90/8 44/31/8 40/91/8
f 38/92/8 43/60/8 45/59/8 37/93/8
f 10/64/4 32/63/4 8/94/4 6/95/4
f 51/96/3 47/97/3 48/98/3 52/99/3
f 54/100/3 50/101/3 47/97/3 51/96/3
f 53/102/3 49/103/3 50/101/3 54/100/3
f 13/26/3 23/104/3 53/105/3 54/27/3
f 21/106/3 12/50/3 50/51/3 49/107/3
f 23/104/3 21/106/3 49/107/3 53/105/3
f 2/41/3 9/108/3 52/109/3 48/42/3
f 9/108/3 22/25/3 51/28/3 52/109/3
