# Blender 4.4.3
# www.blender.org
o SM_Sky-P_Buildings_V1.0
v 1.000000 9.000000 -1.000000
v 1.000000 0.000000 -1.000000
v 1.000000 9.000000 1.000000
v 1.000000 0.000000 1.000000
v -1.000000 9.000000 -1.000000
v -1.000000 0.000000 -1.000000
v -1.000000 9.000000 1.000000
v -1.000000 0.000000 1.007223
v 0.333333 9.000000 1.000000
v -0.333333 9.000000 1.000000
v -0.333333 9.000000 -1.000000
v 0.333333 9.000000 -1.000000
v 1.000000 9.000000 -0.333333
v 1.000000 9.000000 0.333333
v -1.000000 9.000000 0.333333
v -1.000000 9.000000 -0.333333
v 0.332500 8.988750 1.425000
v -0.332500 8.988750 1.425000
v -0.332500 0.011250 1.425000
v -0.332500 8.988750 -1.425000
v 0.332500 8.988750 -1.425000
v 0.332500 0.011250 -1.425000
v -0.332500 0.011250 -1.425000
v 1.425000 8.988750 -0.332500
v 1.425000 8.988750 0.332500
v 1.425000 0.011250 -0.332500
v -1.425000 8.988750 0.332500
v -1.425000 8.988750 -0.332500
v -0.333333 9.700000 1.000000
v -0.333333 9.000000 0.333334
v 0.333333 9.700000 -0.333334
v 0.333333 9.000000 0.333334
v 0.333333 9.700000 0.333334
v -0.333333 9.700000 -0.333334
v -1.000000 9.700000 -0.333333
v -1.000000 9.700000 0.333333
v 1.000000 9.700000 0.333333
v 1.000000 9.700000 -0.333333
v 0.333333 9.700000 -1.000000
v -0.333333 9.700000 -1.000000
v 0.333333 9.700000 1.000000
v 0.333333 9.000000 -0.333334
v -0.333333 9.000000 -0.333334
v -0.333333 9.700000 0.333334
v 1.000000 0.675000 -1.000000
v -1.000000 0.675000 -1.000000
v -0.333333 0.675000 -1.000000
v 0.333333 0.675000 -1.000000
v 0.333333 0.675000 1.000000
v -0.333333 0.675000 1.000000
v -1.000000 0.675000 0.333333
v -1.000000 0.675000 -0.333333
v 1.000000 0.675000 -0.333333
v 1.000000 0.675000 0.333333
v 0.332500 0.684562 -1.425000
v 0.332500 0.684562 1.425000
v -1.425000 0.684562 -0.332500
v 1.425000 0.684562 0.332500
v 0.332500 0.011250 1.425000
v 1.000000 0.675000 1.000000
v -1.425000 0.011250 0.332500
v -0.332500 0.684562 -1.425000
v -0.332500 0.684562 1.425000
v 1.425000 0.011250 0.332500
v -1.425000 0.011250 -0.332500
v -1.425000 0.684562 0.332500
v 1.425000 0.684562 -0.332500
v -1.000000 0.675000 1.000000
v 0.333333 9.000000 1.000000
v -0.333333 9.000000 1.000000
v -0.333333 9.000000 -1.000000
v 0.333333 9.000000 -1.000000
v 1.000000 9.000000 -0.333333
v 1.000000 9.000000 0.333333
v -1.000000 9.000000 0.333333
v -1.000000 9.000000 -0.333333
v -0.333333 9.700000 1.000000
v -0.333333 9.000000 0.333334
v 0.333333 9.700000 -0.333334
v 0.333333 9.000000 0.333334
v 0.333333 9.700000 0.333334
v -0.333333 9.700000 -0.333334
v -1.000000 9.700000 -0.333333
v -1.000000 9.700000 0.333333
v 1.000000 9.700000 0.333333
v 1.000000 9.700000 -0.333333
v 0.333333 9.700000 -1.000000
v -0.333333 9.700000 -1.000000
v 0.333333 9.700000 1.000000
v 0.333333 9.000000 -0.333334
v -0.333333 9.000000 -0.333334
v -0.333333 9.700000 0.333334
vn -0.0000 -0.0000 1.0000
vn 1.0000 -0.0000 -0.0000
vn -0.0000 -0.0000 -1.0000
vn -1.0000 -0.0000 -0.0000
vn -0.0000 0.9996 0.0265
vn -1.0000 -0.0000 -0.0020
vn 0.0265 0.9996 -0.0000
vn 1.0000 -0.0000 0.0020
vn -0.0020 -0.0000 1.0000
vn -0.0000 0.9997 -0.0225
vn 0.0020 -0.0000 -1.0000
vn -0.0000 0.9996 -0.0265
vn -0.0265 0.9996 -0.0000
vn -0.0000 1.0000 -0.0000
vn 0.0020 -0.0000 1.0000
vn 0.0225 0.9997 -0.0000
vn -0.0020 -0.0000 -1.0000
vn -1.0000 -0.0000 0.0020
vn -0.0225 0.9997 -0.0000
vn 1.0000 -0.0000 -0.0020
vn 0.8435 -0.0000 -0.5371
vn -0.8448 0.0029 0.5350
vn 0.5371 -0.0000 0.8435
vn -0.5371 -0.0000 -0.8435
vn -0.8435 -0.0000 -0.5371
vn 0.5371 -0.0000 -0.8435
vn 0.8435 -0.0000 0.5371
vn -0.5339 0.0045 0.8456
vn -0.0000 0.9997 0.0225
vt 0.676029 0.709343
vt 0.676029 0.796783
vt 0.593194 0.796783
vt 0.593194 0.709343
vt 0.675926 0.709343
vt 0.675926 0.796783
vt 0.593091 0.796783
vt 0.593091 0.709343
vt 0.675857 0.796783
vt 0.675857 0.709343
vt 0.848063 0.734179
vt 0.848063 0.775617
vt 0.810316 0.775617
vt 0.810316 0.734179
vt 0.578585 0.711480
vt 0.538265 0.749516
vt 0.495843 0.711480
vt 0.810048 0.775217
vt 0.810048 0.733779
vt 0.847795 0.733779
vt 0.847795 0.775217
vt 0.810048 0.733879
vt 0.847660 0.733879
vt 0.847660 0.775217
vt 0.817395 0.792129
vt 0.843803 0.792129
vt 0.843803 0.793726
vt 0.817395 0.793726
vt 0.843803 0.795323
vt 0.817395 0.795323
vt 0.843803 0.796920
vt 0.817395 0.796920
vt 0.790987 0.795323
vt 0.790987 0.793726
vt 0.870211 0.795323
vt 0.870211 0.793726
vt 0.593194 0.796783
vt 0.593194 0.709343
vt 0.676029 0.709343
vt 0.676029 0.796783
vt 0.515818 0.711195
vt 0.515818 0.787516
vt 0.509463 0.787516
vt 0.509463 0.711195
vt 0.558742 0.711195
vt 0.558742 0.787516
vt 0.552387 0.787516
vt 0.552387 0.711195
vt 0.580215 0.711195
vt 0.580215 0.787516
vt 0.573860 0.787516
vt 0.573860 0.711195
vt 0.537280 0.711195
vt 0.537280 0.787516
vt 0.530925 0.787516
vt 0.530925 0.711195
vt 0.523372 0.711195
vt 0.523372 0.787516
vt 0.566325 0.711195
vt 0.566325 0.787516
vt 0.501910 0.711195
vt 0.501910 0.787516
vt 0.494356 0.787516
vt 0.494356 0.711195
vt 0.544834 0.711195
vt 0.544834 0.787516
vt 0.654999 0.710384
vt 0.661637 0.710384
vt 0.661637 0.790635
vt 0.654999 0.790635
vt 0.641723 0.710385
vt 0.648361 0.710384
vt 0.648361 0.790635
vt 0.641723 0.790635
vt 0.621809 0.710384
vt 0.628447 0.710384
vt 0.628447 0.790635
vt 0.621809 0.790635
vt 0.668275 0.710385
vt 0.668275 0.790635
vt 0.674913 0.710385
vt 0.674913 0.790635
vt 0.635085 0.710384
vt 0.635085 0.790635
vt 0.595258 0.710384
vt 0.601896 0.710384
vt 0.601896 0.790635
vt 0.595258 0.790635
vt 0.615171 0.710384
vt 0.615171 0.790635
vt 0.608534 0.710384
vt 0.608534 0.790635
s 0
f 50/1/1 10/2/1 7/3/1 68/4/1
f 54/1/2 14/2/2 3/3/2 60/4/2
f 48/1/3 12/2/3 1/3/3 45/4/3
f 52/5/4 16/6/4 5/7/4 46/8/4
f 46/8/3 5/7/3 11/9/3 47/10/3
f 60/1/1 3/2/1 9/3/1 49/4/1
f 9/11/5 10/12/5 18/13/5 17/14/5
f 68/1/4 7/2/4 15/3/4 51/4/4
f 45/1/2 1/2/2 13/3/2 53/4/2
f 47/1/6 11/2/6 20/3/6 62/4/6
f 62/1/3 20/2/3 21/3/3 55/4/3
f 56/1/1 17/2/1 18/3/1 63/4/1
f 66/1/4 27/2/4 28/3/4 57/4/4
f 67/1/2 24/2/2 25/3/2 58/4/2
f 13/11/7 14/12/7 25/13/7 24/14/7
f 49/1/8 9/2/8 17/3/8 56/4/8
f 51/1/9 15/2/9 27/3/9 66/4/9
f 60/15/10 49/16/10 56/17/10
f 53/1/11 13/2/11 24/3/11 67/4/11
f 11/18/12 12/19/12 21/20/12 20/21/12
f 15/11/13 16/12/13 28/13/13 27/14/13
f 30/11/14 15/12/14 7/13/14 10/14/14
f 14/11/14 32/12/14 9/13/14 3/14/14
f 12/11/14 42/12/14 13/13/14 1/14/14
f 11/18/14 5/22/14 16/23/14 43/24/14
f 29/25/14 41/26/14 33/27/14 44/28/14
f 44/28/14 33/27/14 31/29/14 34/30/14
f 34/30/14 31/29/14 39/31/14 40/32/14
f 34/30/14 35/33/14 36/34/14 44/28/14
f 38/35/14 31/29/14 33/27/14 37/36/14
f 14/37/15 54/38/15 58/39/15 25/40/15
f 68/15/16 51/16/16 66/17/16
f 16/37/17 52/38/17 57/39/17 28/40/17
f 10/37/18 50/38/18 63/39/18 18/40/18
f 45/15/19 53/16/19 67/17/19
f 12/37/20 48/38/20 55/39/20 21/40/20
f 50/15/10 68/16/10 63/17/10
f 26/41/2 67/42/2 58/43/2 64/44/2
f 61/45/4 66/46/4 57/47/4 65/48/4
f 59/49/1 56/50/1 63/51/1 19/52/1
f 23/53/3 62/54/3 55/55/3 22/56/3
f 2/57/21 45/58/21 67/42/21 26/41/21
f 8/59/22 68/60/22 66/46/22 61/45/22
f 4/61/23 60/62/23 56/63/23 59/64/23
f 6/65/24 46/66/24 62/54/24 23/53/24
f 65/48/25 57/47/25 46/66/25 6/65/25
f 22/56/26 55/55/26 45/58/26 2/57/26
f 64/44/27 58/43/27 60/62/27 4/61/27
f 19/52/28 63/51/28 68/60/28 8/59/28
f 46/15/29 47/16/29 62/17/29
f 52/15/16 46/16/16 57/17/16
f 48/15/29 45/16/29 55/17/29
f 54/15/19 60/16/19 58/17/19
f 76/67/4 75/68/4 84/69/4 83/70/4
f 71/71/4 91/72/4 82/73/4 88/74/4
f 73/75/3 90/76/3 79/77/3 86/78/3
f 75/68/1 78/79/1 92/80/1 84/69/1
f 78/79/4 70/81/4 77/82/4 92/80/4
f 91/72/3 76/67/3 83/70/3 82/73/3
f 90/76/2 72/83/2 87/84/2 79/77/2
f 70/85/1 69/86/1 89/87/1 77/88/1
f 74/89/2 73/75/2 86/78/2 85/90/2
f 69/86/2 80/91/2 81/92/2 89/87/2
f 80/91/1 74/89/1 85/90/1 81/92/1
f 72/83/3 71/71/3 88/74/3 87/84/3
