# Blender 4.4.3
# www.blender.org
o SM_SmallHouse_Buildings_V1.0
v 1.000000 3.000000 -1.000000
v 1.000000 3.000000 1.000000
v -1.000000 3.000000 -1.000000
v 1.001000 1.000000 1.100000
v -1.000000 3.000000 1.000000
v 1.001000 2.000000 1.100000
v 1.000000 2.000000 1.000000
v 1.000000 2.000000 -1.000000
v 1.000000 1.000000 -1.000000
v -1.001000 1.000000 1.100000
v -1.000000 2.000000 1.000000
v -1.008000 0.000000 1.200000
v 1.008000 0.000000 1.200000
v 1.008000 1.000000 1.200000
v 1.008000 0.000000 -1.000000
v -1.008000 0.000000 -1.000000
v -1.008000 1.000000 -1.000000
v -1.008000 1.000000 1.200000
v -1.001000 2.000000 -1.000000
v -1.001000 2.000000 1.100000
v 0.000000 3.000000 1.000000
v 0.000000 3.000000 -1.000000
v 0.000000 1.000000 1.100000
v 0.000000 2.000000 1.000000
v 0.002158 0.002917 1.196663
v 0.000000 0.000000 -1.000000
v 0.000000 1.000000 1.200000
v 0.000000 1.000000 -1.000000
v 0.000000 2.000000 -1.000000
v 0.000000 2.000000 1.100000
v 1.000000 3.000000 0.000000
v -1.000000 3.000000 0.000000
v 1.000500 1.000000 0.050000
v -1.000500 2.000000 0.000000
v -1.008000 0.000000 0.100000
v 1.008000 0.000000 0.100000
v 0.564591 2.850000 0.900000
v 1.000000 2.000000 0.000000
v -1.004500 1.000000 0.050000
v 0.564591 2.850000 1.000000
v 0.710000 2.150000 1.000000
v 0.144591 2.850000 1.000000
v 0.290000 2.150000 1.000000
v -0.716716 1.100000 1.100000
v -0.608141 1.900000 1.100000
v -0.284284 1.100000 1.100000
v -0.175709 1.900000 1.100000
v 0.286272 0.100000 1.200000
v 0.721728 0.100000 1.200000
v 0.618103 0.900000 1.200000
v 0.182647 0.900000 1.200000
v -0.907200 0.000000 1.200000
v -0.788991 0.800000 1.200000
v -0.219009 0.800000 1.200000
v -0.098642 0.002917 1.196663
v -0.907200 0.000000 1.100000
v -0.788991 0.800000 1.100000
v -0.219009 0.800000 1.100000
v -0.100800 0.000000 1.100000
v 0.710000 2.150000 0.900000
v 0.144591 2.850000 0.900000
v 0.290000 2.150000 0.900000
v -0.716716 1.100000 1.000000
v -0.608141 1.900000 1.000000
v -0.284284 1.100000 1.000000
v -0.175709 1.900000 1.000000
v 0.286272 0.100000 1.100000
v 0.721728 0.100000 1.100000
v 0.618103 0.900000 1.100000
v 0.182647 0.900000 1.100000
v 0.000000 3.200000 1.000000
v -1.000000 3.200000 1.000000
v 1.000000 3.500000 0.000000
v 1.000000 3.200000 1.000000
v 0.000000 3.200000 -1.000000
v 1.000000 3.900000 -1.000000
v -1.000000 3.500000 0.000000
v -1.000000 3.900000 -1.000000
v -1.000000 3.000000 1.314443
v -1.000000 3.038263 1.323475
v -1.000000 3.005127 1.346969
v -1.000000 3.019132 1.350275
v 1.000000 3.038263 1.323475
v 1.000000 3.000000 1.314443
v 1.000000 3.019132 1.350275
v 1.000000 3.005127 1.346969
v 0.000000 3.000000 1.314443
v 0.000000 3.038263 1.323475
v 0.000000 3.005127 1.346969
v 0.000000 3.019132 1.350275
v 0.000000 3.402692 1.000000
v 0.000000 3.902692 -1.000000
v 0.000000 3.702692 0.000000
vn -0.0000 -0.0000 -1.0000
vn 1.0000 0.0002 -0.0002
vn -0.0000 -0.0000 1.0000
vn -1.0000 0.0037 0.0033
vn 1.0000 -0.0000 -0.0000
vn -0.0000 1.0000 -0.0000
vn -1.0000 0.0008 0.0002
vn -1.0000 0.0012 0.0022
vn -1.0000 0.0040 0.0005
vn 1.0000 0.0009 -0.0013
vn 1.0000 0.0075 -0.0005
vn 1.0000 0.0005 -0.0000
vn -1.0000 0.0055 0.0020
vn -1.0000 0.0064 -0.0058
vn -1.0000 0.0018 0.0016
vn -1.0000 0.0002 0.0002
vn 1.0000 0.0077 -0.0002
vn 1.0000 0.0064 -0.0058
vn -1.0000 -0.0000 -0.0000
vn -0.0023 -0.0170 0.9999
vn 0.9791 0.2034 -0.0000
vn 0.9917 0.1285 -0.0000
vn -0.0072 -0.0023 1.0000
vn -0.9889 -0.1478 0.0130
vn 0.0022 -0.0036 1.0000
vn -0.0000 -1.0000 -0.0000
vn 0.9893 -0.1462 -0.0000
vn -0.9791 -0.2034 -0.0000
vn -0.9917 -0.1285 -0.0000
vn -0.9909 0.1345 -0.0000
vn 0.9909 -0.1345 -0.0000
vn 0.1906 0.9403 0.2821
vn -0.0979 0.9532 0.2860
vn -0.1906 0.9403 0.2821
vn 0.0979 0.9532 0.2860
vn -0.0000 0.8944 0.4472
vn -0.0000 0.8139 0.5810
vn -0.0000 -0.2298 0.9732
vn -0.0000 -0.9878 0.1557
vt 0.180057 0.709037
vt 0.144416 0.709037
vt 0.144416 0.723848
vt 0.180057 0.775684
vt 0.481591 0.781171
vt 0.481613 0.709053
vt 0.481591 0.709053
vt 0.246903 0.710254
vt 0.246903 0.782977
vt 0.208538 0.782977
vt 0.208538 0.710254
vt 0.299418 0.708913
vt 0.299706 0.771433
vt 0.299562 0.771433
vt 0.285268 0.782977
vt 0.285268 0.710254
vt 0.120906 0.707868
vt 0.162587 0.707868
vt 0.162587 0.765712
vt 0.120906 0.765712
vt 0.337938 0.708141
vt 0.362123 0.708141
vt 0.362292 0.779161
vt 0.337938 0.779161
vt 0.434021 0.710185
vt 0.458205 0.710185
vt 0.458375 0.781206
vt 0.434021 0.781206
vt 0.208500 0.710254
vt 0.208519 0.710254
vt 0.340799 0.708913
vt 0.340799 0.771433
vt 0.381850 0.771433
vt 0.382179 0.708913
vt 0.299418 0.771433
vt 0.303556 0.758929
vt 0.336661 0.758929
vt 0.437587 0.709053
vt 0.437587 0.781171
vt 0.393385 0.709053
vt 0.393539 0.709053
vt 0.393539 0.781171
vt 0.393583 0.781171
vt 0.313584 0.779161
vt 0.313754 0.708141
vt 0.481635 0.709053
vt 0.481635 0.781171
vt 0.393231 0.709053
vt 0.409836 0.710185
vt 0.409667 0.781206
vt 0.274142 0.721163
vt 0.258029 0.721163
vt 0.108776 0.709037
vt 0.108776 0.775684
vt 0.176703 0.712134
vt 0.179827 0.711005
vt 0.176690 0.712508
vt 0.393561 0.781171
vt 0.381891 0.771433
vt 0.381871 0.771433
vt 0.382179 0.771433
vt 0.108776 0.723848
vt 0.108776 0.746063
vt 0.206517 0.711808
vt 0.277757 0.711808
vt 0.264722 0.722962
vt 0.219552 0.722962
vt 0.274142 0.772069
vt 0.258029 0.772069
vt 0.340887 0.709095
vt 0.370427 0.715165
vt 0.352550 0.715165
vt 0.425078 0.716265
vt 0.406049 0.716265
vt 0.425078 0.773959
vt 0.406049 0.773959
vt 0.352550 0.765181
vt 0.370427 0.765181
vt 0.202973 0.748724
vt 0.223823 0.748724
vt 0.223823 0.760495
vt 0.202973 0.760495
vt 0.336749 0.709095
vt 0.303556 0.708913
vt 0.755830 0.904674
vt 0.755830 0.988193
vt 0.705719 0.988193
vt 0.705719 0.904674
vt 0.244840 0.748724
vt 0.244840 0.760495
vt 0.265690 0.748724
vt 0.265690 0.760495
vt 0.277757 0.791995
vt 0.206517 0.791995
vt 0.219552 0.780842
vt 0.264722 0.780842
vt 0.180057 0.723848
vt 0.180057 0.746063
vt 0.144416 0.761073
vt 0.144416 0.738857
vt 0.144416 0.775883
vt 0.144416 0.723848
vt 0.144416 0.711871
vt 0.180057 0.711871
vt 0.108776 0.711871
vt 0.176524 0.712325
vt 0.176517 0.712253
vt 0.108776 0.710454
vt 0.144416 0.710454
vt 0.108776 0.709417
vt 0.144416 0.709417
vt 0.180057 0.710454
vt 0.180057 0.709417
vt 0.180087 0.714267
vt 0.730841 0.905667
vt 0.730841 0.967237
vt 0.693332 0.905667
vt 0.768349 0.905667
s 0
f 1/1/1 22/2/1 75/3/1 76/4/1
f 38/5/2 33/6/2 9/7/2 8/5/2
f 24/8/3 21/9/3 5/10/3 11/11/3
f 35/12/4 10/13/4 39/14/4
f 29/8/1 22/9/1 1/15/1 8/16/1
f 60/17/3 37/18/3 61/19/3 62/20/3
f 68/17/3 69/18/3 70/19/3 67/20/3
f 38/16/5 31/15/5 2/15/5 7/16/5
f 23/21/6 10/22/6 18/23/6 27/24/6
f 24/25/6 11/26/6 20/27/6 30/28/6
f 3/10/7 19/29/7 34/30/7 32/10/7
f 31/15/5 38/16/5 8/16/5 1/15/5
f 26/31/1 28/32/1 9/33/1 15/34/1
f 63/17/3 65/18/3 66/19/3 64/20/3
f 27/32/3 18/35/3 53/36/3 54/37/3
f 28/38/1 29/39/1 8/5/1 9/7/1
f 39/40/8 10/41/8 20/42/8 11/43/8
f 27/24/6 14/44/6 4/45/6 23/21/6
f 4/46/3 6/47/3 30/39/3 23/38/3
f 17/48/1 19/42/1 29/39/1 28/38/1
f 16/12/1 17/35/1 28/32/1 26/31/1
f 7/49/6 24/25/6 30/28/6 6/50/6
f 19/29/1 3/10/1 22/9/1 29/8/1
f 24/8/3 7/16/3 41/51/3 43/52/3
f 22/2/1 3/53/1 78/54/1 75/3/1
f 84/55/5 2/56/5 83/57/5
f 11/43/9 34/58/9 39/40/9
f 4/46/10 33/6/10 7/5/10 6/47/10
f 4/59/11 36/34/11 33/60/11
f 7/5/12 33/6/12 38/5/12
f 39/40/13 34/58/13 19/42/13 17/48/13
f 18/35/14 10/13/14 35/12/14 12/12/14
f 35/12/15 39/14/15 17/35/15 16/12/15
f 32/10/16 34/30/16 11/11/16 5/10/16
f 33/60/17 36/34/17 15/34/17 9/33/17
f 13/34/18 36/34/18 4/59/18 14/61/18
f 32/53/19 5/53/19 72/62/19 77/63/19
f 44/64/6 46/65/6 65/66/6 63/67/6
f 7/16/3 2/15/3 40/68/3 41/51/3
f 21/9/3 24/8/3 43/52/3 42/69/3
f 2/15/3 21/9/3 42/69/3 40/68/3
f 25/70/20 13/34/20 49/71/20 48/72/20
f 10/41/3 23/38/3 46/73/3 44/74/3
f 42/64/21 43/65/21 62/66/21 61/67/21
f 23/38/3 30/39/3 47/75/3 46/73/3
f 30/39/3 20/42/3 45/76/3 47/75/3
f 20/42/3 10/41/3 44/74/3 45/76/3
f 51/64/22 48/65/22 67/66/22 70/67/22
f 14/61/3 27/32/3 51/77/3 50/78/3
f 27/32/23 25/70/23 48/72/23 51/77/23
f 13/34/3 14/61/3 50/78/3 49/71/3
f 55/79/24 54/80/24 58/81/24 59/82/24
f 25/70/25 27/32/25 54/37/25 55/83/25
f 18/35/3 12/12/3 52/84/3 53/36/3
f 59/85/3 58/86/3 57/87/3 56/88/3
f 54/80/26 53/89/26 57/90/26 58/81/26
f 53/89/27 52/91/27 56/92/27 57/90/27
f 41/93/28 40/94/28 37/95/28 60/96/28
f 48/65/6 49/93/6 68/96/6 67/66/6
f 47/93/26 45/94/26 64/95/26 66/96/26
f 49/93/29 50/94/29 69/95/29 68/96/29
f 40/94/26 42/64/26 61/67/26 37/95/26
f 46/65/30 47/93/30 66/96/30 65/66/30
f 50/94/26 51/64/26 70/67/26 69/95/26
f 43/65/6 41/93/6 60/96/6 62/66/6
f 45/94/31 44/64/31 63/67/31 64/95/31
f 74/97/32 73/98/32 93/99/32 91/100/32
f 77/63/33 93/99/33 92/101/33 78/54/33
f 72/62/34 91/100/34 93/99/34 77/63/34
f 73/98/35 76/4/35 92/101/35 93/99/35
f 2/1/5 31/1/5 73/98/5 74/97/5
f 31/1/5 1/1/5 76/4/5 73/98/5
f 74/97/36 71/102/36 88/103/36 83/104/36
f 3/53/19 32/53/19 77/63/19 78/54/19
f 71/102/36 72/62/36 80/105/36 88/103/36
f 21/2/26 2/1/26 84/1/26 87/2/26
f 5/53/26 21/2/26 87/2/26 79/53/26
f 85/106/5 86/107/5 84/55/5
f 88/103/37 80/105/37 82/108/37 90/109/37
f 90/109/38 82/108/38 81/110/38 89/111/38
f 89/111/39 81/110/39 79/53/39 87/2/39
f 83/104/37 88/103/37 90/109/37 85/112/37
f 85/112/38 90/109/38 89/111/38 86/113/38
f 86/113/39 89/111/39 87/2/39 84/1/39
f 81/110/19 82/108/19 80/105/19
f 2/56/5 74/114/5 83/57/5
f 83/57/5 85/106/5 84/55/5
f 80/105/19 72/62/19 5/53/19
f 5/53/19 79/53/19 80/105/19
f 79/53/19 81/110/19 80/105/19
f 71/115/3 91/116/3 72/117/3
f 71/115/3 74/118/3 91/116/3
f 75/3/1 92/101/1 76/4/1
f 75/3/1 78/54/1 92/101/1
