# Blender 4.4.3
# www.blender.org
o SM_SmallTheatre_Buildings_V1.1
v 0.988636 2.000000 1.788636
v -1.011364 2.000000 1.788636
v 0.988637 0.000000 -1.211364
v 0.988637 2.000000 -1.211364
v -1.011363 0.000000 -1.211364
v -1.011363 2.000000 -1.211364
v -1.011364 0.000000 0.788636
v -1.011364 2.000000 0.788636
v 0.988636 0.000000 0.788637
v 0.988636 2.000000 0.788637
v -1.011364 3.600000 0.788636
v -1.011363 3.600000 -1.211364
v 0.988637 3.600000 -1.211364
v 0.988636 3.600000 0.788637
v 0.612959 2.800000 0.788636
v -0.635686 2.800000 0.788636
v -0.635686 2.000000 0.788636
v 0.612959 2.000000 0.788636
v 0.612959 2.000000 1.288636
v -0.635686 2.000000 1.288636
v -0.635686 2.800000 1.288636
v 0.612959 2.800000 1.288636
v -0.635686 3.600000 0.788636
v 0.612959 3.600000 0.788636
v 0.988636 0.800000 1.788636
v -1.011364 0.800000 1.788636
v -1.011364 0.800000 1.688636
v -1.011364 0.000000 1.688636
v 0.988636 0.000000 1.688637
v 0.988636 0.800000 1.688637
v -0.611364 0.800000 1.588636
v -0.211364 0.800000 1.588636
v 0.188636 0.800000 1.588636
v 0.588636 0.800000 1.588636
v 0.663923 0.000000 1.579055
v 0.127155 0.000000 1.604007
v -0.149882 0.000000 1.604007
v -0.686650 0.000000 1.579055
v -0.686650 0.000000 1.698218
v -0.149882 0.000000 1.673266
v 0.127155 0.000000 1.673266
v 0.663923 0.000000 1.698218
v 0.588636 0.800000 1.688637
v 0.188636 0.800000 1.688636
v -0.211364 0.800000 1.688636
v -0.611364 0.800000 1.688636
v 0.988637 0.000000 -2.211364
v -1.011364 0.000000 -2.211364
v -1.011364 2.000000 -2.211364
v 0.988637 2.000000 -2.211364
v 0.088636 2.000000 1.788636
v -0.111364 2.000000 1.788636
v 0.088636 0.800000 1.788636
v -0.111364 0.800000 1.788636
v 0.051258 1.896141 1.788636
v 0.051258 1.758272 1.788636
v 0.051258 1.041729 1.788636
v 0.051258 0.903859 1.788636
v -0.073985 1.896141 1.788636
v -0.073985 1.758272 1.788636
v -0.073985 1.041729 1.788636
v -0.073985 0.903859 1.788636
v 0.051258 1.896141 1.927435
v 0.051258 1.758272 1.888636
v 0.051258 1.041729 1.888636
v 0.051258 0.903859 1.927435
v -0.073985 1.896141 1.927435
v -0.073985 1.758272 1.888636
v -0.073985 1.041729 1.888636
v -0.073985 0.903859 1.927435
v 0.051258 1.896141 2.149838
v 0.051258 1.758272 2.188637
v 0.051258 1.041729 2.188637
v 0.051258 0.903859 2.149838
v -0.073985 1.896141 2.149838
v -0.073985 1.758272 2.188637
v -0.073985 1.041729 2.188637
v -0.073985 0.903859 2.149838
v 0.988636 2.000000 1.788636
v -1.011364 2.000000 1.788636
v -1.011364 2.000000 0.788636
v 0.988636 2.000000 0.788637
v -0.635686 2.000000 0.788636
v 0.612959 2.000000 0.788636
v 0.612959 2.000000 1.288636
v -0.635686 2.000000 1.288636
v 0.088636 2.000000 1.788636
v -0.111364 2.000000 1.788636
vn -0.0000 1.0000 -0.0000
vn -1.0000 -0.0000 -0.0000
vn 1.0000 -0.0000 -0.0000
vn -0.0000 -0.0000 -1.0000
vn -0.0000 -0.0000 1.0000
vn 0.0266 0.0038 0.9996
vn -0.0132 0.0066 0.9999
vn 0.9956 -0.0937 -0.0000
vn -0.0000 -1.0000 -0.0000
vn 0.0132 0.0066 0.9999
vn -0.0000 -0.0192 0.9998
vn -0.9956 -0.0937 -0.0000
vn -0.9971 -0.0766 -0.0000
vn -0.0266 0.0038 0.9996
vn 0.9971 -0.0766 -0.0000
vn -0.0000 -0.2709 0.9626
vn -0.0000 0.2709 0.9626
vt 0.474425 0.973487
vt 0.411529 0.973487
vt 0.411529 0.904625
vt 0.280055 0.905685
vt 0.280055 0.991065
vt 0.206949 0.991065
vt 0.206949 0.905685
vt 0.206949 0.996530
vt 0.280055 0.996530
vt 0.222763 0.941850
vt 0.262069 0.994258
vt 0.262069 0.906912
vt 0.222763 0.906912
vt 0.101718 0.904176
vt 0.186404 0.904176
vt 0.186404 0.984669
vt 0.101718 0.984669
vt 0.101587 0.905064
vt 0.117331 0.905064
vt 0.117331 0.944897
vt 0.117331 0.984729
vt 0.101587 0.984729
vt 0.474425 0.904625
vt 0.169659 0.944897
vt 0.169659 0.984729
vt 0.377399 0.992059
vt 0.377399 0.996782
vt 0.364635 0.996782
vt 0.322208 0.996782
vt 0.309443 0.996782
vt 0.309443 0.992059
vt 0.169659 0.905064
vt 0.185402 0.905064
vt 0.185402 0.984729
vt 0.218396 0.941850
vt 0.222763 0.941850
vt 0.218396 0.994258
vt 0.222763 0.906912
vt 0.468108 0.710757
vt 0.468108 0.795722
vt 0.425625 0.795722
vt 0.425625 0.710757
vt 0.263549 0.907638
vt 0.262386 0.996836
vt 0.218389 0.996836
vt 0.219553 0.907638
vt 0.164973 0.905168
vt 0.164973 0.989680
vt 0.122718 0.989680
vt 0.122718 0.905168
vt 0.340783 0.939062
vt 0.366001 0.939062
vt 0.366001 0.944266
vt 0.340783 0.944266
vt 0.398704 0.982497
vt 0.428881 0.982497
vt 0.425528 0.994299
vt 0.412116 0.994299
vt 0.398704 0.994299
vt 0.328174 0.944266
vt 0.340783 0.949470
vt 0.328174 0.949470
vt 0.328174 0.939062
vt 0.302955 0.944266
vt 0.302955 0.949470
vt 0.302955 0.939062
vt 0.366001 0.949470
vt 0.180816 0.908091
vt 0.180816 0.987224
vt 0.111577 0.987224
vt 0.111577 0.908091
vt 0.218389 0.996836
vt 0.219553 0.907638
vt 0.263549 0.907638
vt 0.262386 0.996836
vt 0.305505 0.985625
vt 0.380625 0.985625
vt 0.380625 0.994280
vt 0.305505 0.994280
vt 0.145426 0.913679
vt 0.144047 0.906989
vt 0.151425 0.906989
vt 0.150046 0.913679
vt 0.144047 0.984292
vt 0.145426 0.977602
vt 0.150046 0.977602
vt 0.151425 0.984292
vt 0.070202 0.905055
vt 0.078796 0.905055
vt 0.078796 0.989345
vt 0.070202 0.989345
vt 0.165580 0.990253
vt 0.141622 0.990253
vt 0.141622 0.986066
vt 0.165580 0.986066
vt 0.012546 0.905055
vt 0.035079 0.905055
vt 0.035079 0.989345
vt 0.012546 0.989345
vt 0.110849 0.984292
vt 0.110849 0.906989
vt 0.145426 0.922561
vt 0.145426 0.968720
vt 0.150046 0.968720
vt 0.184623 0.984292
vt 0.438899 0.708463
vt 0.438899 0.718718
vt 0.412918 0.718718
vt 0.412918 0.708463
vt 0.435587 0.982497
vt 0.438940 0.994299
vt 0.465763 0.982497
vt 0.465763 0.994299
vt 0.452352 0.994299
vt 0.150046 0.922561
vt 0.184623 0.906989
vt 0.438899 0.718718
vt 0.438899 0.708463
vt 0.464879 0.708463
vt 0.464879 0.718718
vt 0.047669 0.905055
vt 0.047669 0.989345
vt 0.316614 0.987710
vt 0.327524 0.987710
vt 0.327524 0.995368
vt 0.316614 0.995368
vt 0.351330 0.987710
vt 0.362240 0.987710
vt 0.362240 0.995368
vt 0.351330 0.995368
vt 0.658252 0.039849
vt 0.658252 0.211981
vt 0.620456 0.211981
vt 0.620456 0.039849
vt 0.306647 0.995368
vt 0.306647 0.987710
vt 0.438899 0.782276
vt 0.438899 0.772020
vt 0.464879 0.772020
vt 0.464879 0.782276
vt 0.438899 0.772020
vt 0.438899 0.782276
vt 0.412918 0.782276
vt 0.412918 0.772020
vt 0.372207 0.987710
vt 0.372207 0.995368
vt 0.318497 0.992903
vt 0.305578 0.992903
vt 0.305578 0.988752
vt 0.318497 0.990827
vt 0.374354 0.992902
vt 0.361435 0.992902
vt 0.361435 0.990827
vt 0.374354 0.988752
vt 0.336527 0.988752
vt 0.343405 0.988752
s 0
f 15/1/1 16/2/1 21/2/1 22/1/1
f 16/2/2 17/3/2 20/3/2 21/2/2
f 7/4/2 8/5/2 6/6/2 5/7/2
f 10/5/3 4/6/3 13/8/3 14/9/3
f 27/10/2 8/11/2 7/12/2 28/13/2
f 3/7/3 4/6/3 10/5/3 9/4/3
f 4/14/4 6/15/4 12/16/4 13/17/4
f 8/18/5 17/19/5 16/20/5 23/21/5 11/22/5
f 6/6/2 8/5/2 11/9/2 12/8/2
f 18/23/3 15/1/3 22/1/3 19/23/3
f 16/20/5 15/24/5 24/25/5 23/21/5
f 12/26/1 11/27/1 23/28/1 24/29/1 14/30/1 13/31/1
f 20/3/5 19/23/5 22/1/5 21/2/5
f 18/32/5 10/33/5 14/34/5 24/25/5 15/24/5
f 25/35/3 30/36/3 10/11/3 1/37/3
f 29/38/3 9/12/3 10/11/3 30/36/3
f 35/39/6 34/40/6 33/41/6 36/42/6
f 5/43/2 6/44/2 49/45/2 48/46/2
f 39/47/7 46/48/7 27/49/7 28/50/7
f 27/10/2 26/35/2 2/37/2 8/11/2
f 46/51/8 39/52/8 38/53/8 31/54/8
f 25/55/9 53/56/9 44/57/9 43/58/9 30/59/9
f 29/47/10 30/48/10 43/49/10 42/50/10
f 43/60/9 44/54/9 33/61/9 34/62/9
f 41/47/11 44/48/11 45/49/11 40/50/11
f 45/63/9 46/51/9 31/54/9 32/60/9
f 42/64/12 43/60/12 34/62/12 35/65/12
f 40/66/13 45/63/13 32/60/13 37/64/13
f 37/39/14 32/40/14 31/41/14 38/42/14
f 44/54/15 41/53/15 36/67/15 33/61/15
f 48/68/4 49/69/4 50/70/4 47/71/4
f 4/72/3 3/73/3 47/74/3 50/75/3
f 6/76/1 4/77/1 50/78/1 49/79/1
f 55/80/5 51/81/5 52/82/5 59/83/5
f 53/84/5 58/85/5 62/86/5 54/87/5
f 60/88/9 56/89/9 64/90/9 68/91/9
f 57/92/5 56/93/5 60/94/5 61/95/5
f 56/96/3 55/97/3 63/98/3 64/99/3
f 25/100/5 1/101/5 56/102/5 57/103/5
f 54/87/5 62/86/5 61/104/5 26/105/5
f 66/106/3 65/107/3 73/108/3 74/109/3
f 44/57/9 53/56/9 54/110/9 45/111/9
f 45/111/9 54/110/9 26/112/9 27/113/9 46/114/9
f 57/103/5 58/85/5 53/84/5 25/100/5
f 56/102/5 1/101/5 51/81/5 55/80/5
f 26/105/5 61/104/5 60/115/5 2/116/5
f 2/116/5 60/115/5 59/83/5 52/82/5
f 69/117/2 70/118/2 78/119/2 77/120/2
f 62/97/9 58/121/9 66/122/9 70/98/9
f 55/97/1 59/121/1 67/122/1 63/98/1
f 57/88/1 61/89/1 69/90/1 65/91/1
f 61/96/2 62/97/2 70/98/2 69/99/2
f 59/121/2 60/88/2 68/91/2 67/122/2
f 58/121/3 57/88/3 65/91/3 66/122/3
f 74/123/16 73/124/16 77/125/16 78/126/16
f 72/127/17 71/128/17 75/129/17 76/130/17
f 69/131/4 68/132/4 64/133/4 65/134/4
f 70/135/9 66/136/9 74/123/9 78/126/9
f 67/137/2 68/138/2 76/139/2 75/140/2
f 64/141/3 63/142/3 71/143/3 72/144/3
f 63/145/1 67/146/1 75/129/1 71/128/1
f 77/125/5 73/124/5 72/127/5 76/130/5
f 69/117/2 77/120/2 76/139/2 68/138/2
f 73/108/3 65/107/3 64/141/3 72/144/3
f 83/147/1 81/148/1 80/149/1 86/150/1
f 82/151/1 84/152/1 85/153/1 79/154/1
f 80/149/1 88/155/1 86/150/1
f 86/150/1 88/155/1 87/156/1 85/153/1
f 85/153/1 87/156/1 79/154/1
