# Blender 4.4.3
# www.blender.org
o SM_SkySquare_Buildings_V1.0
v 1.000000 6.000000 -0.750000
v 0.750000 6.000000 -1.000000
v 0.750000 0.000000 -1.000000
v 1.000000 0.000000 -0.750000
v 0.750000 6.000000 1.000000
v 1.000000 6.000000 0.750000
v 1.000000 0.000000 0.750000
v 0.750000 0.000000 1.000000
v -0.750000 6.000000 -1.000000
v -1.000000 6.000000 -0.750000
v -1.000000 0.000000 -0.750000
v -0.750000 0.000000 -1.000000
v -1.000000 6.000000 0.750000
v -0.750000 6.000000 1.000000
v -0.750000 0.000000 1.000000
v -1.000000 0.000000 0.750000
v 0.750000 4.800000 1.000000
v 0.750000 4.620000 1.000000
v 0.750000 3.000000 1.000000
v 0.750000 2.820000 1.000000
v 0.750000 1.200000 1.000000
v 0.750000 1.020000 1.000000
v 1.000000 1.020000 0.750000
v 1.000000 1.200000 0.750000
v 1.000000 2.820000 0.750000
v 1.000000 3.000000 0.750000
v 1.000000 4.620000 0.750000
v 1.000000 4.800000 0.750000
v 1.000000 4.800000 -0.750000
v 1.000000 4.620000 -0.750000
v 1.000000 3.000000 -0.750000
v 1.000000 2.820000 -0.750000
v 1.000000 1.200000 -0.750000
v 1.000000 1.020000 -0.750000
v 0.750000 1.020000 -1.000000
v 0.750000 1.200000 -1.000000
v 0.750000 2.820000 -1.000000
v 0.750000 3.000000 -1.000000
v 0.750000 4.620000 -1.000000
v 0.750000 4.800000 -1.000000
v -0.750000 4.800000 -1.000000
v -0.750000 4.620000 -1.000000
v -0.750000 3.000000 -1.000000
v -0.750000 2.820000 -1.000000
v -0.750000 1.200000 -1.000000
v -0.750000 1.020000 -1.000000
v -1.000000 1.020000 -0.750000
v -1.000000 1.200000 -0.750000
v -1.000000 2.820000 -0.750000
v -1.000000 3.000000 -0.750000
v -1.000000 4.620000 -0.750000
v -1.000000 4.800000 -0.750000
v -0.750000 1.020000 1.000000
v -0.750000 1.200000 1.000000
v -0.750000 2.820000 1.000000
v -0.750000 3.000000 1.000000
v -0.750000 4.620000 1.000000
v -0.750000 4.800000 1.000000
v -1.000000 4.800000 0.750000
v -1.000000 4.620000 0.750000
v -1.000000 3.000000 0.750000
v -1.000000 2.820000 0.750000
v -1.000000 1.200000 0.750000
v -1.000000 1.020000 0.750000
v 0.675000 4.791000 0.900000
v 0.675000 4.629000 0.900000
v 0.900000 4.629000 0.675000
v 0.900000 4.791000 0.675000
v 0.900000 4.791000 -0.675000
v 0.900000 4.629000 -0.675000
v 0.675000 4.629000 -0.900000
v 0.675000 4.791000 -0.900000
v -0.675000 4.791000 -0.900000
v -0.675000 4.629000 -0.900000
v -0.900000 4.629000 -0.675000
v -0.900000 4.791000 -0.675000
v -0.675000 4.629000 0.900000
v -0.675000 4.791000 0.900000
v -0.900000 4.791000 0.675000
v -0.900000 4.629000 0.675000
v 0.675000 2.991000 0.900000
v 0.675000 2.829000 0.900000
v 0.900000 2.829000 0.675000
v 0.900000 2.991000 0.675000
v 0.900000 2.991000 -0.675000
v 0.900000 2.829000 -0.675000
v 0.675000 2.829000 -0.900000
v 0.675000 2.991000 -0.900000
v -0.675000 2.991000 -0.900000
v -0.675000 2.829000 -0.900000
v -0.900000 2.829000 -0.675000
v -0.900000 2.991000 -0.675000
v -0.675000 2.829000 0.900000
v -0.675000 2.991000 0.900000
v -0.900000 2.991000 0.675000
v -0.900000 2.829000 0.675000
v 0.675000 1.191000 0.900000
v 0.675000 1.029000 0.900000
v 0.900000 1.029000 0.675000
v 0.900000 1.191000 0.675000
v 0.900000 1.191000 -0.675000
v 0.900000 1.029000 -0.675000
v 0.675000 1.029000 -0.900000
v 0.675000 1.191000 -0.900000
v -0.675000 1.191000 -0.900000
v -0.675000 1.029000 -0.900000
v -0.900000 1.029000 -0.675000
v -0.900000 1.191000 -0.675000
v -0.675000 1.029000 0.900000
v -0.675000 1.191000 0.900000
v -0.900000 1.191000 0.675000
v -0.900000 1.029000 0.675000
v 0.618722 6.000000 0.824962
v 0.618722 6.000000 -0.824962
v -0.618722 6.000000 -0.824962
v -0.618722 6.000000 0.824962
v 0.824962 6.000000 0.618722
v 0.824962 6.000000 -0.618722
v -0.824962 6.000000 -0.618722
v -0.824962 6.000000 0.618722
v 0.618722 6.197849 0.824962
v 0.618722 6.197849 -0.824962
v -0.618722 6.197849 -0.824962
v -0.618722 6.197849 0.824962
v 0.824962 6.101726 0.618722
v 0.824962 6.101726 -0.618722
v -0.824962 6.101726 -0.618722
v -0.824962 6.101726 0.618722
vn 1.0000 -0.0000 -0.0000
vn -0.0000 -0.0000 1.0000
vn -1.0000 -0.0000 -0.0000
vn -0.0000 1.0000 -0.0000
vn 0.7071 -0.0000 0.7071
vn 0.7071 -0.0000 -0.7071
vn -0.7071 -0.0000 -0.7071
vn -0.7071 -0.0000 0.7071
vn -0.0896 -0.9960 -0.0000
vn -0.0513 -0.9974 0.0513
vn 0.0513 -0.9974 -0.0513
vn -0.0896 0.9960 -0.0000
vn 0.0513 0.9974 0.0513
vn -0.0513 0.9974 0.0513
vn -0.0000 -0.9960 0.0896
vn -0.0000 -0.0000 -1.0000
vn -0.0513 0.9974 -0.0513
vn -0.0000 0.9960 0.0896
vn 0.0513 -0.9974 0.0513
vn -0.0513 -0.9974 -0.0513
vn 0.0513 0.9974 -0.0513
vn 0.0896 0.9960 -0.0000
vn -0.0000 0.9960 -0.0896
vn 0.0896 -0.9960 -0.0000
vn -0.0000 -0.9960 -0.0896
vn 0.4224 0.9064 -0.0000
vn -0.4224 0.9064 -0.0000
vt 0.830083 0.805909
vt 0.830083 0.868335
vt 0.815394 0.868335
vt 0.815394 0.805909
vt 0.811955 0.805909
vt 0.811955 0.868335
vt 0.797410 0.868335
vt 0.797410 0.805909
vt 0.012979 0.980120
vt 0.009386 0.980120
vt 0.009386 0.925127
vt 0.012979 0.925127
vt 0.830083 0.868335
vt 0.830083 0.805908
vt 0.844773 0.805908
vt 0.844773 0.868335
vt 0.848212 0.868335
vt 0.848212 0.805908
vt 0.862756 0.805908
vt 0.862756 0.868335
vt 0.793972 0.868335
vt 0.793972 0.805908
vt 0.808662 0.805908
vt 0.808662 0.868335
vt 0.793972 0.868335
vt 0.793972 0.805909
vt 0.066062 0.980120
vt 0.050712 0.980120
vt 0.050712 0.925127
vt 0.066062 0.925127
vt 0.031921 0.980120
vt 0.028329 0.980120
vt 0.028329 0.925127
vt 0.031921 0.925127
vt 0.041881 0.980120
vt 0.038288 0.980120
vt 0.038288 0.925127
vt 0.041881 0.925127
vt 0.826645 0.805908
vt 0.826645 0.868335
vt 0.812100 0.868335
vt 0.812100 0.805908
vt 0.051553 0.980120
vt 0.051553 0.925127
vt 0.848067 0.868335
vt 0.848067 0.805909
vt 0.851505 0.805909
vt 0.851505 0.868335
vt 0.833522 0.805909
vt 0.833522 0.868335
vt 0.055951 0.980120
vt 0.055111 0.980120
vt 0.055111 0.925127
vt 0.055951 0.925127
vt 0.042722 0.980120
vt 0.042722 0.925127
vt 0.028177 0.980120
vt 0.028177 0.925127
vt 0.866195 0.805909
vt 0.866195 0.868335
vt 0.065911 0.980120
vt 0.065911 0.925127
vt 0.047120 0.980120
vt 0.031770 0.980120
vt 0.031770 0.925127
vt 0.047120 0.925127
vt 0.866195 0.805908
vt 0.866195 0.868335
vt 0.069503 0.980120
vt 0.069503 0.925127
vt 0.046279 0.980120
vt 0.046279 0.925127
vt 0.620977 0.853591
vt 0.620977 0.805823
vt 0.632746 0.805823
vt 0.632746 0.853591
vt 0.647152 0.853591
vt 0.647152 0.805823
vt 0.649907 0.805823
vt 0.649907 0.853591
vt 0.664429 0.805823
vt 0.664429 0.853591
vt 0.661675 0.853591
vt 0.661675 0.805823
vt 0.618223 0.853591
vt 0.618223 0.805823
vt 0.635500 0.805823
vt 0.635500 0.853591
vt 0.606571 0.853591
vt 0.606571 0.805823
vt 0.084853 0.980120
vt 0.084853 0.925127
vt 0.559133 0.881745
vt 0.559133 0.893364
vt 0.555062 0.893364
vt 0.555062 0.881745
vt 0.559133 0.896110
vt 0.555062 0.896110
vt 0.512261 0.881745
vt 0.512261 0.878999
vt 0.516332 0.878999
vt 0.516332 0.881745
vt 0.069655 0.980120
vt 0.069655 0.925127
vt 0.084853 0.980120
vt 0.084853 0.925127
vt 0.516332 0.896110
vt 0.516332 0.893364
vt 0.555062 0.878999
vt 0.512261 0.893364
vt 0.559133 0.878999
vt 0.512261 0.896110
vt 0.516332 0.877765
vt 0.555062 0.877765
vt 0.555062 0.897344
vt 0.516332 0.897344
s 0
f 31/1/1 30/2/1 27/3/1 26/4/1
f 17/1/2 5/2/2 14/3/2 58/4/2
f 59/5/3 13/6/3 10/7/3 52/8/3
f 1/9/4 2/10/4 114/11/4 118/12/4
f 22/13/5 8/14/5 7/15/5 23/16/5
f 34/17/6 4/18/6 3/19/6 35/20/6
f 46/21/7 12/22/7 11/23/7 47/24/7
f 9/25/7 41/26/7 52/8/7 10/7/7
f 58/4/8 14/3/8 13/6/8 59/5/8
f 10/27/4 13/28/4 120/29/4 119/30/4
f 5/31/4 6/32/4 117/33/4 113/34/4
f 4/18/1 34/17/1 23/16/1 7/15/1
f 63/35/9 48/36/9 108/37/9 111/38/9
f 54/4/8 55/3/8 62/6/8 63/5/8
f 56/9/10 61/10/10 95/11/10 94/12/10
f 56/8/8 57/7/8 60/25/8 61/26/8
f 40/9/11 29/10/11 69/11/11 72/12/11
f 15/39/8 53/40/8 64/41/8 16/42/8
f 36/43/11 33/28/11 101/29/11 104/44/11
f 44/25/7 45/26/7 48/8/7 49/7/7
f 49/35/12 62/36/12 96/37/12 91/38/12
f 42/45/7 43/46/7 50/47/7 51/48/7
f 51/35/12 60/36/12 80/37/12 75/38/12
f 1/45/6 29/46/6 40/47/6 2/48/6
f 18/43/13 27/28/13 67/29/13 66/44/13
f 30/2/6 31/1/6 38/49/6 39/50/6
f 62/51/14 55/52/14 93/53/14 96/54/14
f 32/45/6 33/46/6 36/47/6 37/48/6
f 54/55/10 63/35/10 111/38/10 110/56/10
f 5/2/5 17/1/5 28/49/5 6/50/5
f 60/51/14 57/52/14 77/53/14 80/54/14
f 18/6/5 19/5/5 26/4/5 27/3/5
f 19/57/15 56/9/15 94/12/15 81/58/15
f 20/2/5 21/1/5 24/49/5 25/50/5
f 22/9/13 23/10/13 99/11/13 98/12/13
f 41/59/16 9/60/16 2/48/16 40/47/16
f 17/61/15 58/28/15 78/29/15 65/62/15
f 43/46/16 42/45/16 39/50/16 38/49/16
f 44/55/17 49/35/17 91/38/17 90/56/17
f 45/59/16 44/60/16 37/48/16 36/47/16
f 47/63/12 64/64/12 112/65/12 107/66/12
f 12/67/16 46/68/16 35/20/16 3/19/16
f 64/64/14 53/57/14 109/58/14 112/65/14
f 63/5/3 62/6/3 49/7/3 48/8/3
f 55/52/18 20/43/18 82/44/18 93/53/18
f 61/59/3 60/60/3 51/48/3 50/47/3
f 28/69/19 17/61/19 65/62/19 68/70/19
f 16/42/3 64/41/3 47/24/3 11/23/3
f 21/71/15 54/55/15 110/56/15 97/72/15
f 21/1/2 20/2/2 55/3/2 54/4/2
f 50/69/20 43/61/20 89/62/20 92/70/20
f 19/5/2 18/6/2 57/7/2 56/8/2
f 57/52/18 18/43/18 66/44/18 77/53/18
f 8/14/2 22/13/2 53/40/2 15/39/2
f 24/63/19 21/71/19 97/72/19 100/66/19
f 32/63/21 37/71/21 87/72/21 86/66/21
f 33/46/1 32/45/1 25/50/1 24/49/1
f 42/55/17 51/35/17 75/38/17 74/56/17
f 29/46/1 1/45/1 6/50/1 28/49/1
f 70/73/1 69/74/1 68/75/1 67/76/1
f 77/77/8 78/78/8 79/79/8 80/80/8
f 73/81/7 74/82/7 75/83/7 76/84/7
f 69/74/6 70/73/6 71/85/6 72/86/6
f 65/87/5 66/88/5 67/76/5 68/75/5
f 74/89/16 73/90/16 72/86/16 71/85/16
f 80/80/3 79/79/3 76/84/3 75/83/3
f 66/88/2 65/87/2 78/78/2 77/77/2
f 58/28/10 59/63/10 79/66/10 78/29/10
f 59/63/9 52/64/9 76/65/9 79/66/9
f 27/28/22 30/63/22 70/66/22 67/29/22
f 30/63/21 39/71/21 71/72/21 70/66/21
f 39/71/23 42/55/23 74/56/23 71/72/23
f 52/64/20 41/57/20 73/58/20 76/65/20
f 29/91/24 28/69/24 68/70/24 69/92/24
f 41/57/25 40/9/25 72/12/25 73/58/25
f 86/73/1 85/74/1 84/75/1 83/76/1
f 93/77/8 94/78/8 95/79/8 96/80/8
f 89/81/7 90/82/7 91/83/7 92/84/7
f 85/74/6 86/73/6 87/85/6 88/86/6
f 81/87/5 82/88/5 83/76/5 84/75/5
f 90/89/16 89/90/16 88/86/16 87/85/16
f 96/80/3 95/79/3 92/84/3 91/83/3
f 82/88/2 81/87/2 94/78/2 93/77/2
f 61/91/9 50/69/9 92/70/9 95/92/9
f 25/28/22 32/63/22 86/66/22 83/29/22
f 37/71/23 44/55/23 90/56/23 87/72/23
f 31/63/24 26/64/24 84/65/24 85/66/24
f 43/61/25 38/28/25 88/29/25 89/62/25
f 26/64/19 19/57/19 81/58/19 84/65/19
f 20/43/13 25/28/13 83/29/13 82/44/13
f 38/28/11 31/63/11 85/66/11 88/29/11
f 102/73/1 101/74/1 100/75/1 99/76/1
f 109/77/8 110/78/8 111/79/8 112/80/8
f 105/81/7 106/82/7 107/83/7 108/84/7
f 101/74/6 102/73/6 103/85/6 104/86/6
f 97/87/5 98/88/5 99/76/5 100/75/5
f 106/89/16 105/90/16 104/86/16 103/85/16
f 112/80/3 111/79/3 108/84/3 107/83/3
f 98/88/2 97/87/2 110/78/2 109/77/2
f 23/91/22 34/69/22 102/70/22 99/92/22
f 35/61/23 46/28/23 106/29/23 103/62/23
f 34/69/21 35/61/21 103/62/21 102/70/21
f 33/28/24 24/63/24 100/66/24 101/29/24
f 48/51/20 45/52/20 105/53/20 108/54/20
f 45/52/25 36/43/25 104/44/25 105/53/25
f 46/28/17 47/63/17 107/66/17 106/29/17
f 53/57/18 22/9/18 98/12/18 109/58/18
f 116/93/2 113/94/2 121/95/2 124/96/2
f 113/94/5 117/97/5 125/98/5 121/95/5
f 115/99/7 119/100/7 127/101/7 123/102/7
f 13/28/4 14/63/4 116/66/4 120/29/4
f 14/63/4 5/31/4 113/34/4 116/66/4
f 9/103/4 10/27/4 119/30/4 115/104/4
f 2/105/4 9/103/4 115/104/4 114/106/4
f 6/32/4 1/9/4 118/12/4 117/33/4
f 126/107/26 122/108/26 121/95/26 125/98/26
f 121/95/4 122/108/4 123/102/4 124/96/4
f 124/96/27 123/102/27 127/101/27 128/109/27
f 114/110/16 115/99/16 123/102/16 122/108/16
f 120/111/8 116/93/8 124/96/8 128/109/8
f 118/112/6 114/110/6 122/108/6 126/107/6
f 119/113/3 120/114/3 128/109/3 127/101/3
f 117/115/1 118/116/1 126/107/1 125/98/1
