# Blender 4.4.3
# www.blender.org
o SM_SkyRound_Buildings_V1.0
v -0.000000 0.401215 -1.056000
v -0.000000 6.761805 -1.056000
v 0.620701 0.401215 -0.854322
v 0.620701 6.761805 -0.854322
v 1.004316 0.401215 -0.326322
v 1.004316 6.761805 -0.326322
v 1.004316 0.401215 0.326322
v 1.004316 6.761805 0.326322
v 0.620701 0.401215 0.854322
v 0.620701 6.761805 0.854322
v -0.000000 0.401215 1.056000
v -0.000000 6.761805 1.056000
v -0.620701 0.401215 0.854322
v -0.620701 6.761805 0.854322
v -1.004316 0.401215 0.326322
v -1.004316 6.761805 0.326322
v -1.004316 0.401215 -0.326322
v -1.004316 6.761805 -0.326322
v -0.620701 0.401215 -0.854322
v -0.620701 6.761805 -0.854322
v 0.000000 3.381510 -0.781906
v 0.459593 3.381510 -0.632575
v 0.743637 3.381510 -0.241622
v 0.743637 3.381510 0.241622
v 0.459593 3.381510 0.632575
v 0.000000 3.381510 0.781906
v -0.459593 3.381510 0.632575
v -0.743637 3.381510 0.241622
v -0.743637 3.381510 -0.241622
v -0.459593 3.381510 -0.632575
v -0.000000 0.420066 -1.155529
v 0.679203 0.420066 -0.934843
v 1.098974 0.420066 -0.357078
v 1.098974 0.420066 0.357078
v 0.679203 0.420066 0.934843
v -0.000000 0.420066 1.155529
v -0.679203 0.420066 0.934843
v -1.098974 0.420066 0.357078
v -1.098974 0.420066 -0.357078
v -0.679203 0.420066 -0.934843
v -0.000000 -0.017635 -1.155529
v 0.679203 -0.017635 -0.934843
v 1.098974 -0.017635 -0.357078
v 1.098974 -0.017635 0.357078
v 0.679203 -0.017635 0.934843
v -0.000000 -0.017635 1.155529
v -0.679203 -0.017635 0.934843
v -1.098974 -0.017635 0.357078
v -1.098974 -0.017635 -0.357078
v -0.679203 -0.017635 -0.934843
v -0.000000 6.761805 -0.326322
v -0.620701 6.761805 -0.326321
v 0.620701 6.761805 -0.326322
v 0.620701 6.761805 0.326322
v -0.000000 6.761805 0.326322
v -0.620701 6.761805 0.326322
v 0.795495 6.761805 -0.470031
v 0.725112 6.761805 -0.566905
v 0.725112 6.761805 -0.470031
v 0.748573 7.747018 -0.502322
v -0.233593 6.761805 0.743445
v -0.387108 6.761805 0.693565
v -0.233593 6.761805 0.562977
v -0.387108 6.761805 0.562977
v -0.387108 7.429416 0.562977
v -0.233593 7.429416 0.562977
v -0.387108 7.429416 0.693565
v -0.233593 7.429416 0.743445
v 0.362817 6.761805 0.055167
v 0.362817 6.761805 -0.055167
v 0.257884 6.761805 -0.055167
v 0.257884 6.761805 0.055167
v 0.362817 7.135600 0.055167
v 0.362817 7.135600 -0.055167
v 0.257884 7.135600 -0.055167
v 0.257884 7.135600 0.055167
vn 0.3081 -0.0769 -0.9482
vn 0.8066 -0.0769 -0.5860
vn 0.9970 -0.0769 -0.0000
vn 0.8066 -0.0769 0.5860
vn 0.3081 -0.0769 0.9482
vn -0.0000 1.0000 -0.0000
vn -0.3081 -0.0769 0.9482
vn -0.8066 -0.0769 0.5860
vn -0.9970 -0.0769 -0.0000
vn -0.8066 -0.0769 -0.5860
vn -0.3081 -0.0769 -0.9482
vn -0.3078 0.0871 -0.9474
vn -0.8059 0.0871 -0.5855
vn -0.9962 0.0871 -0.0000
vn -0.8059 0.0871 0.5855
vn -0.3078 0.0871 0.9474
vn 0.3078 0.0871 0.9474
vn 0.8059 0.0871 0.5855
vn 0.9962 0.0871 -0.0000
vn 0.8059 0.0871 -0.5855
vn 0.3078 0.0871 -0.9474
vn 0.1580 0.9807 0.1148
vn 0.1580 0.9807 -0.1148
vn -0.1580 0.9807 0.1148
vn -0.1580 0.9807 -0.1148
vn -0.8090 -0.0000 0.5878
vn -0.3090 -0.0000 0.9511
vn -1.0000 -0.0000 -0.0000
vn 0.3090 -0.0000 0.9511
vn -0.8090 -0.0000 -0.5878
vn 0.8090 -0.0000 0.5878
vn 0.3090 -0.0000 -0.9511
vn 1.0000 -0.0000 -0.0000
vn -0.3090 -0.0000 -0.9511
vn 0.8090 -0.0000 -0.5878
vn -0.0604 0.9807 -0.1857
vn -0.1953 0.9807 -0.0000
vn -0.0604 0.9807 0.1857
vn 0.1953 0.9807 -0.0000
vn 0.0604 0.9807 -0.1857
vn 0.0604 0.9807 0.1857
vn -0.0000 0.0328 0.9995
vn -0.9997 0.0238 -0.0000
vn 0.8089 0.0193 -0.5877
vn -0.0000 -0.0000 -1.0000
vn -0.0000 -0.0000 1.0000
vt 0.209664 0.889718
vt 0.209664 0.805798
vt 0.216011 0.805798
vt 0.216011 0.889718
vt 0.222357 0.805798
vt 0.222357 0.889718
vt 0.228703 0.805798
vt 0.228703 0.889718
vt 0.235050 0.805798
vt 0.235050 0.889718
vt 0.241396 0.805798
vt 0.241396 0.889718
vt 0.358240 0.875069
vt 0.358240 0.878259
vt 0.371545 0.878259
vt 0.247742 0.805798
vt 0.247742 0.889718
vt 0.336711 0.873850
vt 0.344813 0.875739
vt 0.350137 0.876040
vt 0.254089 0.805798
vt 0.254089 0.889718
vt 0.315181 0.875069
vt 0.315181 0.878259
vt 0.336711 0.878259
vt 0.260435 0.805798
vt 0.260435 0.889718
vt 0.315181 0.882203
vt 0.301876 0.882203
vt 0.309119 0.883072
vt 0.311560 0.883072
vt 0.266781 0.805798
vt 0.266781 0.889718
vt 0.273128 0.805798
vt 0.273128 0.889718
vt 0.076438 0.964573
vt 0.076435 0.948261
vt 0.078853 0.947476
vt 0.078853 0.965360
vt 0.051325 0.982796
vt 0.066844 0.977759
vt 0.068335 0.979812
vt 0.051326 0.985338
vt 0.051295 0.930025
vt 0.035775 0.935050
vt 0.034286 0.932996
vt 0.051294 0.927484
vt 0.026185 0.948234
vt 0.026190 0.964547
vt 0.023772 0.965331
vt 0.023770 0.947447
vt 0.156434 0.873514
vt 0.150429 0.873514
vt 0.150429 0.807902
vt 0.156434 0.807902
vt 0.162438 0.873514
vt 0.162438 0.807902
vt 0.141841 0.873514
vt 0.141841 0.807902
vt 0.168442 0.873514
vt 0.168442 0.807902
vt 0.135837 0.873514
vt 0.135837 0.807902
vt 0.174447 0.873514
vt 0.174447 0.807902
vt 0.129833 0.873514
vt 0.123828 0.873514
vt 0.123828 0.807902
vt 0.129833 0.807902
vt 0.117824 0.873514
vt 0.109236 0.873514
vt 0.109236 0.807902
vt 0.117824 0.807902
vt 0.035793 0.977751
vt 0.034298 0.979811
vt 0.066829 0.935063
vt 0.068324 0.933002
vt 0.135605 0.806855
vt 0.144255 0.806855
vt 0.138488 0.882961
vt 0.301876 0.878259
vt 0.336711 0.882203
vt 0.315181 0.885394
vt 0.336711 0.886613
vt 0.358240 0.882203
vt 0.358240 0.885394
vt 0.371545 0.882203
vt 0.327766 0.879898
vt 0.327766 0.880565
vt 0.311560 0.883657
vt 0.415490 0.807018
vt 0.415490 0.899884
vt 0.350137 0.876829
vt 0.344813 0.876829
vt 0.454612 0.899884
vt 0.454612 0.807018
vt 0.352081 0.806223
vt 0.332375 0.806223
vt 0.332375 0.876420
vt 0.352081 0.876420
vt 0.324126 0.880565
vt 0.324126 0.879898
s 0
f 21/1/1 2/2/1 4/3/1 22/4/1
f 22/4/2 4/3/2 6/5/2 23/6/2
f 23/6/3 6/5/3 8/7/3 24/8/3
f 24/8/4 8/7/4 10/9/4 25/10/4
f 25/10/5 10/9/5 12/11/5 26/12/5
f 14/13/6 56/14/6 16/15/6
f 26/12/7 12/11/7 14/16/7 27/17/7
f 14/13/6 12/18/6 61/19/6 62/20/6
f 27/17/8 14/16/8 16/21/8 28/22/8
f 10/23/6 54/24/6 55/25/6 12/18/6
f 28/22/9 16/21/9 18/26/9 29/27/9
f 53/28/6 6/29/6 57/30/6 59/31/6
f 29/27/10 18/26/10 20/32/10 30/33/10
f 30/33/11 20/32/11 2/34/11 21/35/11
f 19/3/12 30/4/12 21/1/12 1/2/12
f 17/5/13 29/6/13 30/4/13 19/3/13
f 15/7/14 28/8/14 29/6/14 17/5/14
f 13/9/15 27/10/15 28/8/15 15/7/15
f 11/11/16 26/12/16 27/10/16 13/9/16
f 9/16/17 25/17/17 26/12/17 11/11/17
f 7/21/18 24/22/18 25/17/18 9/16/18
f 5/26/19 23/27/19 24/22/19 7/21/19
f 3/32/20 22/33/20 23/27/20 5/26/20
f 1/34/21 21/35/21 22/33/21 3/32/21
f 17/36/22 19/37/22 40/38/22 39/39/22
f 13/40/23 15/41/23 38/42/23 37/43/23
f 3/44/24 5/45/24 33/46/24 32/47/24
f 7/48/25 9/49/25 35/50/25 34/51/25
f 37/52/26 38/53/26 48/54/26 47/55/26
f 36/56/27 37/52/27 47/55/27 46/57/27
f 38/53/28 39/58/28 49/59/28 48/54/28
f 35/60/29 36/56/29 46/57/29 45/61/29
f 39/58/30 40/62/30 50/63/30 49/59/30
f 34/64/31 35/60/31 45/61/31 44/65/31
f 31/66/32 32/67/32 42/68/32 41/69/32
f 33/70/33 34/71/33 44/72/33 43/73/33
f 40/62/34 31/66/34 41/69/34 50/63/34
f 32/67/35 33/70/35 43/73/35 42/68/35
f 9/49/36 11/74/36 36/75/36 35/50/36
f 5/45/37 7/48/37 34/51/37 33/46/37
f 1/76/38 3/44/38 32/47/38 31/77/38
f 15/41/39 17/36/39 39/39/39 38/42/39
f 11/74/40 13/40/40 37/43/40 36/75/40
f 19/37/41 1/76/41 31/77/41 40/38/41
f 59/78/42 57/79/42 60/80/42
f 6/29/6 53/28/6 54/24/6 8/81/6
f 51/82/6 53/28/6 4/83/6 2/84/6
f 52/85/6 51/82/6 2/84/6 20/86/6
f 18/87/6 52/85/6 20/86/6
f 8/81/6 54/24/6 10/23/6
f 51/82/6 55/25/6 72/88/6 71/89/6
f 56/14/6 55/25/6 51/82/6 52/85/6
f 16/15/6 56/14/6 52/85/6 18/87/6
f 4/83/6 53/28/6 59/31/6 58/90/6
f 6/29/6 4/83/6 58/90/6 57/30/6
f 64/91/28 62/91/28 67/92/28 65/92/28
f 58/78/43 59/78/43 60/80/43
f 57/79/44 58/78/44 60/80/44
f 56/14/6 14/13/6 62/20/6 64/93/6
f 55/25/6 56/14/6 64/93/6 63/94/6
f 12/18/6 55/25/6 63/94/6 61/19/6
f 68/95/6 66/95/6 65/92/6 67/92/6
f 62/91/27 61/96/27 68/95/27 67/92/27
f 63/96/45 64/91/45 65/92/45 66/95/45
f 61/96/33 63/96/33 66/95/33 68/95/33
f 70/97/45 71/98/45 75/99/45 74/100/45
f 53/28/6 51/82/6 71/89/6 70/101/6
f 54/24/6 53/28/6 70/101/6 69/102/6
f 55/25/6 54/24/6 69/102/6 72/88/6
f 76/99/6 73/100/6 74/100/6 75/99/6
f 71/98/28 72/98/28 76/99/28 75/99/28
f 69/97/33 70/97/33 74/100/33 73/100/33
f 72/98/46 69/97/46 73/100/46 76/99/46
