# Blender 4.4.3
# www.blender.org
o SM_SmallOffice_Buildings_V1.0
v 1.000000 3.000000 -1.000000
v 1.000000 0.000000 -1.000000
v 1.000000 3.000000 1.000000
v -1.000000 3.000000 -1.000000
v -1.000000 0.000000 -1.000000
v -1.000000 3.000000 1.000000
v 1.000000 0.740260 1.000000
v 1.000000 0.740260 -1.000000
v -1.000000 0.740260 -1.000000
v -1.000000 0.740260 1.000000
v -1.000000 0.000000 0.800000
v 1.000000 0.000000 0.800000
v 1.000000 0.740260 0.800000
v -1.000000 0.740260 0.800000
v -1.000000 1.192208 1.000000
v -1.000000 1.644156 1.000000
v -1.000000 2.096104 1.000000
v -1.000000 2.548052 1.000000
v 1.000000 2.548052 1.000000
v 1.000000 2.096104 1.000000
v 1.000000 1.644156 1.000000
v 1.000000 1.192208 1.000000
v -1.000000 1.192208 0.900000
v -1.000000 1.644156 0.900000
v -1.000000 2.096104 0.900000
v -1.000000 2.548052 0.900000
v 1.000000 2.548052 0.900000
v 1.000000 2.096104 0.900000
v 1.000000 1.644156 0.900000
v 1.000000 1.192208 0.900000
v 0.950000 3.000000 0.950000
v -0.950000 3.000000 0.950000
v 0.950000 3.000000 -0.950000
v -0.950000 3.000000 -0.950000
v 1.000000 3.300000 1.000000
v -1.000000 3.300000 1.000000
v 1.000000 3.300000 -1.000000
v -1.000000 3.300000 -1.000000
v 0.950000 3.300000 0.950000
v -0.950000 3.300000 0.950000
v 0.950000 3.300000 -0.950000
v -0.950000 3.300000 -0.950000
vn -0.0000 -0.0000 1.0000
vn -1.0000 -0.0000 -0.0000
vn -0.0000 -0.0000 -1.0000
vn -0.0000 -1.0000 -0.0000
vn 1.0000 -0.0000 -0.0000
vn -0.0000 1.0000 -0.0000
vt 0.517583 0.872020
vt 0.498538 0.872020
vt 0.498538 0.809628
vt 0.517583 0.809628
vt 0.698735 0.881621
vt 0.698735 0.808064
vt 0.761899 0.808064
vt 0.761899 0.881621
vt 0.871835 0.806768
vt 0.793343 0.825439
vt 0.789212 0.825439
vt 0.789212 0.806768
vt 0.789308 0.899549
vt 0.790277 0.807222
vt 0.871736 0.807222
vt 0.871736 0.899549
vt 0.866727 0.808537
vt 0.866727 0.890731
vt 0.791920 0.890731
vt 0.791920 0.808537
vt 0.867556 0.811002
vt 0.867556 0.888985
vt 0.791638 0.888985
vt 0.791638 0.811002
vt 0.570578 0.865615
vt 0.501106 0.865615
vt 0.501106 0.808841
vt 0.570578 0.808841
vt 0.866669 0.890731
vt 0.866669 0.808537
vt 0.791533 0.808537
vt 0.791533 0.890731
vt 0.677299 0.809189
vt 0.677299 0.882157
vt 0.594943 0.882157
vt 0.594943 0.809189
vt 0.677299 0.809166
vt 0.677299 0.882133
vt 0.594943 0.882133
vt 0.594943 0.809166
vt 0.797474 0.900122
vt 0.789212 0.900122
vt 0.789212 0.881451
vt 0.793343 0.881451
vt 0.789212 0.844110
vt 0.793343 0.844110
vt 0.793343 0.862781
vt 0.789212 0.862781
vt 0.871835 0.900122
vt 0.801374 0.894868
vt 0.859989 0.894868
vt 0.859989 0.898503
vt 0.801374 0.898503
vt 0.498538 0.871801
vt 0.517583 0.871801
vt 0.517583 0.809405
vt 0.498538 0.809405
vt 0.532773 0.871801
vt 0.551818 0.871801
vt 0.551818 0.809405
vt 0.532773 0.809405
vt 0.532773 0.872020
vt 0.532773 0.809628
vt 0.551818 0.809628
vt 0.567008 0.809628
vt 0.567008 0.809405
vt 0.567008 0.871801
vt 0.551818 0.872020
vt 0.567008 0.872020
s 0
f 6/1/1 3/2/1 35/3/1 36/4/1
f 19/5/1 3/6/1 6/7/1 18/8/1
f 4/9/2 26/10/2 18/11/2 6/12/2
f 9/13/3 4/14/3 1/15/3 8/16/3
f 5/17/3 9/18/3 8/19/3 2/20/3
f 12/21/1 13/22/1 14/23/1 11/24/1
f 7/25/4 10/26/4 14/27/4 13/28/4
f 2/20/5 8/19/5 13/29/5 12/30/5
f 9/18/2 5/17/2 11/31/2 14/32/2
f 7/5/1 22/6/1 15/7/1 10/8/1
f 21/25/4 16/26/4 24/27/4 29/28/4
f 21/5/1 20/6/1 17/7/1 16/8/1
f 19/25/4 18/26/4 26/27/4 27/28/4
f 30/33/1 29/34/1 24/35/1 23/36/1
f 28/37/1 27/38/1 26/39/1 25/40/1
f 14/41/2 10/42/2 15/43/2 23/44/2
f 17/45/2 25/46/2 24/47/2 16/48/2
f 17/25/6 20/26/6 28/27/6 25/28/6
f 15/25/6 22/26/6 30/27/6 23/28/6
f 4/9/2 9/49/2 14/41/2 23/44/2
f 24/47/2 25/46/2 4/9/2 23/44/2
f 4/9/2 25/46/2 26/10/2
f 3/12/5 19/11/5 27/10/5 1/9/5
f 22/43/5 7/42/5 13/41/5 30/44/5
f 20/45/5 21/48/5 29/47/5 28/46/5
f 27/10/5 28/46/5 1/9/5
f 30/44/5 1/9/5 28/46/5 29/47/5
f 1/9/5 30/44/5 13/41/5 8/49/5
f 33/50/6 34/51/6 32/52/6 31/53/6
f 31/54/3 32/55/3 40/56/3 39/57/3
f 34/58/1 33/59/1 41/60/1 42/61/1
f 4/62/2 6/1/2 36/4/2 38/63/2
f 36/4/6 35/3/6 39/57/6 40/56/6
f 37/64/6 38/63/6 42/61/6 41/60/6
f 35/65/6 37/64/6 41/60/6 39/66/6
f 38/63/6 36/4/6 40/56/6 42/61/6
f 32/55/5 34/58/5 42/61/5 40/56/5
f 33/59/2 31/67/2 39/66/2 41/60/2
f 1/68/3 4/62/3 38/63/3 37/64/3
f 3/69/5 1/68/5 37/64/5 35/65/5
