# Blender 4.4.3
# www.blender.org
o SM_2D-Tall_PedestrainBridge_V1.1
v -15.337286 0.000000 0.000000
v -15.337286 4.000000 -0.000000
v -11.662711 4.000000 -0.000000
v -15.000001 4.085313 -0.000000
v -15.000001 4.085313 -0.000000
v -15.200158 4.901240 -0.000000
v -15.200158 4.998760 -0.000000
v -14.799842 4.901240 -0.000000
v -15.000001 4.901240 -0.000000
v -15.000001 4.901240 -0.000000
v -14.799842 4.998760 -0.000000
v -7.911502 3.749866 -0.000000
v -10.599281 4.005177 -0.000000
v -6.990369 7.800000 -0.000001
v -4.933199 7.224999 -0.000001
v -6.911502 0.049866 -0.000000
v -6.995628 5.648434 -0.000000
v -10.597731 4.420289 -0.000000
v -10.198405 4.418707 -0.000000
v -10.196913 4.818033 -0.000000
v -9.797588 4.816453 -0.000000
v -9.796095 5.215777 -0.000000
v -9.396771 5.214198 -0.000000
v -9.395277 5.613522 -0.000000
v -8.995955 5.611944 -0.000000
v -8.994459 6.011267 -0.000000
v -8.595138 6.009690 -0.000000
v -8.593641 6.409011 -0.000000
v -8.194321 6.407435 -0.000000
v -8.192823 6.806756 -0.000001
v -7.793504 6.805182 -0.000001
v -7.792006 7.204500 -0.000001
v -7.392687 7.202927 -0.000001
v -7.391188 7.602245 -0.000001
v -6.991870 7.600673 -0.000001
v 0.000000 7.800138 -0.000001
v 0.000000 7.205968 -0.000001
v -11.800000 4.901240 1.281723
v -11.800000 4.998760 1.281723
v -11.799842 4.901240 1.683699
v -11.799842 4.998760 1.683699
v -10.797930 4.901240 1.479758
v -10.597930 4.001240 1.479758
v -10.597930 5.001240 1.479758
v -12.200158 4.901240 1.683700
v -12.200158 4.998760 1.683700
v -7.004153 7.607463 1.479757
v -12.200158 4.801240 1.901680
v -12.200158 4.898760 1.901680
v -11.799842 4.801240 1.901680
v -11.799842 4.898760 1.901680
v -7.004153 8.839885 1.479757
v -12.200158 1.001240 5.301681
v -12.200158 1.098760 5.301681
v -11.799842 1.001240 5.301680
v -11.799842 1.098760 5.301680
v -6.786172 8.939884 1.479757
v -12.200158 0.901240 5.501681
v -12.200158 0.998760 5.501681
v -11.799842 0.901240 5.501680
v -11.799842 0.998760 5.501680
v -12.200158 0.901240 6.501681
v -12.200158 0.998760 6.501681
v -11.799842 0.901240 6.501680
v -11.799842 0.998760 6.501680
v -12.002193 4.901240 1.280601
v -12.201180 4.901240 1.479487
v -12.060769 4.901240 1.420912
v -12.201180 4.998760 1.479487
v -12.002193 4.998760 1.280601
v -12.060769 4.998760 1.420912
v -11.798965 4.901240 1.480719
v -11.798965 4.001240 1.480719
v -12.000000 4.901240 1.481681
v -12.000000 4.001240 1.481681
v -12.000001 4.901240 1.683699
v -12.000001 4.001240 1.701680
v -12.000001 4.801240 1.901680
v -12.000001 3.801240 1.901680
v -12.000001 1.001240 5.301680
v -12.000001 0.001240 5.301680
v -12.000001 0.901240 5.501680
v -12.000001 0.001240 5.501680
v -12.000001 0.901240 6.501680
v -12.000001 0.001240 6.501680
v -6.793468 7.804996 1.481680
v -6.793468 8.937417 1.481680
v -12.000001 0.001240 6.501680
v -12.000001 0.901240 6.501680
v -12.000001 0.001240 5.501680
v -12.000001 0.901240 5.501680
v -12.000001 0.001240 5.301680
v -12.000001 1.001240 5.301680
v -14.799842 4.901240 1.683699
v -14.799842 4.998760 1.683699
v -15.000001 4.001240 1.701680
v -15.000001 4.901240 1.683699
v -15.200158 4.901240 1.683700
v -15.200158 4.998760 1.683700
v -15.200158 4.801240 1.901680
v -15.200158 4.898760 1.901680
v -14.799842 4.801240 1.901680
v -14.799842 4.898760 1.901680
v -15.200158 1.001240 5.301681
v -15.200158 1.098760 5.301681
v -14.799842 1.001240 5.301680
v -14.799842 1.098760 5.301680
v -15.200158 0.901240 5.501681
v -15.200158 0.998760 5.501681
v -14.799842 0.901240 5.501680
v -14.799842 0.998760 5.501680
v -15.200158 0.901240 6.501681
v -15.200158 0.998760 6.501681
v -14.799842 0.901240 6.501680
v -14.799842 0.998760 6.501680
v -15.000001 4.901240 1.683699
v -15.000001 4.001240 1.701680
v -15.000001 4.801240 1.901680
v -15.000001 3.801240 1.901680
v -15.000001 1.001240 5.301680
v -15.000001 0.001240 5.301680
v -15.000001 0.901240 5.501680
v -15.000001 0.001240 5.501680
v -15.000001 0.901240 6.501680
v -15.000001 0.001240 6.501680
v -15.000001 4.801240 1.901680
v -15.000001 3.801240 1.901680
v -15.000001 1.001240 5.301680
v -15.000001 0.001240 5.301680
v -15.000001 0.901240 5.501680
v -15.000001 0.001240 5.501680
v -15.000001 0.901240 6.501680
v -15.000001 0.001240 6.501680
v -15.000001 4.001240 0.001680
v -15.000001 4.001240 0.001680
v -15.337286 0.000000 5.500000
v -11.662711 0.000000 5.500000
v -15.337286 0.250000 5.500000
v -15.337286 4.000000 1.750000
v -15.337286 0.250000 5.125000
v -15.337286 0.625000 5.125000
v -15.337286 0.625000 4.750000
v -15.337286 1.000000 4.750000
v -15.337286 1.000000 4.375000
v -15.337286 1.375000 4.375000
v -15.337286 1.375000 4.000000
v -15.337286 1.750000 4.000000
v -15.337286 1.750000 3.625000
v -15.337286 2.125000 3.625000
v -15.337286 2.125000 3.250000
v -15.337286 2.500000 3.250000
v -15.337286 2.500000 2.875000
v -15.337286 2.875000 2.875000
v -15.337286 2.875000 2.500000
v -15.337286 3.250000 2.500000
v -15.337286 3.250000 2.125000
v -15.337286 3.625000 2.125000
v -15.337286 3.625000 1.750000
v -11.662711 4.000000 1.816818
v -11.662711 0.250000 5.500000
v -11.662711 3.725000 1.816818
v -11.662711 3.625000 2.125000
v -11.662711 3.250000 2.125000
v -11.662711 3.250000 2.500000
v -11.662711 2.875000 2.500000
v -11.662711 2.875000 2.875000
v -11.662711 2.500000 2.875000
v -11.662711 2.500000 3.250000
v -11.662711 2.125000 3.250000
v -11.662711 2.125000 3.625000
v -11.662711 1.750000 3.625000
v -11.662711 1.750000 4.000000
v -11.662711 1.375000 4.000000
v -11.662711 1.375000 4.375000
v -11.662711 1.000000 4.375000
v -11.662711 1.000000 4.750000
v -11.662711 0.625000 4.750000
v -11.662711 0.625000 5.125000
v -11.662711 0.250000 5.125000
v -7.911502 3.749866 1.816818
v -10.599281 4.005177 1.816818
v -6.793468 8.924634 1.281722
v -6.793468 9.022155 1.281722
v -6.793309 8.924634 1.683698
v -6.793309 9.022155 1.683698
v -6.793468 8.937417 1.481680
v -12.000001 3.801240 1.901680
v -6.793468 7.804996 1.481680
v -6.990369 7.800000 1.816817
v -4.933199 7.224999 1.816817
v -11.662711 0.025000 2.625000
v -6.911502 0.049866 2.625000
v -12.000001 4.801240 1.901680
v -12.000001 4.001240 1.701680
v -7.004153 8.827102 1.279600
v -7.004153 8.924622 1.279600
v -7.004153 8.827102 1.679916
v -7.004153 8.924622 1.679916
v -10.597931 5.001240 1.279601
v -10.597931 5.098760 1.279601
v -10.597930 5.001240 1.679917
v -10.597930 5.098760 1.679917
v -10.797931 4.901240 1.279601
v -10.797931 4.998760 1.279601
v -10.797930 4.901240 1.679917
v -10.797930 4.998760 1.679917
v -11.797931 4.901240 1.279601
v -11.797931 4.998760 1.279601
v -11.797930 4.901240 1.679917
v -11.797930 4.998760 1.679917
v -6.995628 5.648434 1.816818
v -6.786172 8.939884 1.479757
v -7.004153 8.839885 1.479757
v -7.004153 7.607463 1.479757
v -10.597930 5.001240 1.479758
v -10.597930 4.001240 1.479758
v -10.797930 4.901240 1.479758
v -10.797930 4.001240 1.479758
v -12.000001 4.901240 1.683699
v -12.000000 4.001240 1.481681
v -12.000000 4.901240 1.481681
v -11.798965 4.001240 1.480719
v -11.798965 4.901240 1.480719
v -10.597731 4.420288 1.816818
v -6.991870 7.600673 1.816817
v -7.391188 7.602245 1.816817
v -7.392687 7.202928 1.816817
v -7.792006 7.204501 1.816817
v -7.793504 6.805182 1.816818
v -8.192823 6.806756 1.816818
v -8.194321 6.407436 1.816818
v -8.593641 6.409011 1.816818
v -8.595138 6.009690 1.816818
v -8.994460 6.011267 1.816818
v -8.995955 5.611944 1.816818
v -9.395277 5.613522 1.816818
v -9.396771 5.214199 1.816818
v -9.796096 5.215777 1.816818
v -9.797588 4.816453 1.816818
v -10.196914 4.818033 1.816818
v -10.198405 4.418707 1.816818
v 0.000000 8.910692 1.682684
v 0.000000 9.027415 1.281722
v 0.000000 8.923475 1.481680
v 0.000000 9.027415 1.682684
v 0.000000 8.910692 1.281722
v 0.000000 8.691053 1.481680
v 0.000000 7.801680 1.481680
v 0.000000 7.801680 1.481680
v 0.000000 7.205969 1.816817
v 0.000000 7.800138 1.816817
v -10.797930 4.001240 1.479758
v 0.000000 8.923475 1.481680
v 0.000000 7.801680 1.481680
v 15.337286 0.000000 0.000000
v 15.337286 4.000000 -0.000000
v 11.662711 4.000000 -0.000000
v 15.000001 4.085313 -0.000000
v 15.000001 4.085313 -0.000000
v 15.200158 4.901240 -0.000000
v 15.200158 4.998760 -0.000000
v 14.799842 4.901240 -0.000000
v 15.000001 4.901240 -0.000000
v 15.000001 4.901240 -0.000000
v 14.799842 4.998760 -0.000000
v 7.911502 3.749866 -0.000000
v 10.599281 4.005177 -0.000000
v 6.990369 7.800000 -0.000001
v 4.933199 7.224999 -0.000001
v 6.911502 0.049866 -0.000000
v 6.995628 5.648434 -0.000000
v 10.597731 4.420289 -0.000000
v 10.198405 4.418707 -0.000000
v 10.196913 4.818033 -0.000000
v 9.797588 4.816453 -0.000000
v 9.796095 5.215777 -0.000000
v 9.396771 5.214198 -0.000000
v 9.395277 5.613522 -0.000000
v 8.995955 5.611944 -0.000000
v 8.994459 6.011267 -0.000000
v 8.595138 6.009690 -0.000000
v 8.593641 6.409011 -0.000000
v 8.194321 6.407435 -0.000000
v 8.192823 6.806756 -0.000001
v 7.793504 6.805182 -0.000001
v 7.792006 7.204500 -0.000001
v 7.392687 7.202927 -0.000001
v 7.391188 7.602245 -0.000001
v 6.991870 7.600673 -0.000001
v 11.800000 4.901240 1.281723
v 11.800000 4.998760 1.281723
v 11.799842 4.901240 1.683699
v 11.799842 4.998760 1.683699
v 10.797930 4.901240 1.479758
v 10.597930 4.001240 1.479758
v 10.597930 5.001240 1.479758
v 12.200158 4.901240 1.683700
v 12.200158 4.998760 1.683700
v 7.004153 7.607463 1.479757
v 12.200158 4.801240 1.901680
v 12.200158 4.898760 1.901680
v 11.799842 4.801240 1.901680
v 11.799842 4.898760 1.901680
v 7.004153 8.839885 1.479757
v 12.200158 1.001240 5.301681
v 12.200158 1.098760 5.301681
v 11.799842 1.001240 5.301680
v 11.799842 1.098760 5.301680
v 6.786172 8.939884 1.479757
v 12.200158 0.901240 5.501681
v 12.200158 0.998760 5.501681
v 11.799842 0.901240 5.501680
v 11.799842 0.998760 5.501680
v 12.200158 0.901240 6.501681
v 12.200158 0.998760 6.501681
v 11.799842 0.901240 6.501680
v 11.799842 0.998760 6.501680
v 12.002193 4.901240 1.280601
v 12.201180 4.901240 1.479487
v 12.060769 4.901240 1.420912
v 12.201180 4.998760 1.479487
v 12.002193 4.998760 1.280601
v 12.060769 4.998760 1.420912
v 11.798965 4.901240 1.480719
v 11.798965 4.001240 1.480719
v 12.000000 4.901240 1.481681
v 12.000000 4.001240 1.481681
v 12.000001 4.901240 1.683699
v 12.000001 4.001240 1.701680
v 12.000001 4.801240 1.901680
v 12.000001 3.801240 1.901680
v 12.000001 1.001240 5.301680
v 12.000001 0.001240 5.301680
v 12.000001 0.901240 5.501680
v 12.000001 0.001240 5.501680
v 12.000001 0.901240 6.501680
v 12.000001 0.001240 6.501680
v 6.793468 7.804996 1.481680
v 6.793468 8.937417 1.481680
v 12.000001 0.001240 6.501680
v 12.000001 0.901240 6.501680
v 12.000001 0.001240 5.501680
v 12.000001 0.901240 5.501680
v 12.000001 0.001240 5.301680
v 12.000001 1.001240 5.301680
v 14.799842 4.901240 1.683699
v 14.799842 4.998760 1.683699
v 15.000001 4.001240 1.701680
v 15.000001 4.901240 1.683699
v 15.200158 4.901240 1.683700
v 15.200158 4.998760 1.683700
v 15.200158 4.801240 1.901680
v 15.200158 4.898760 1.901680
v 14.799842 4.801240 1.901680
v 14.799842 4.898760 1.901680
v 15.200158 1.001240 5.301681
v 15.200158 1.098760 5.301681
v 14.799842 1.001240 5.301680
v 14.799842 1.098760 5.301680
v 15.200158 0.901240 5.501681
v 15.200158 0.998760 5.501681
v 14.799842 0.901240 5.501680
v 14.799842 0.998760 5.501680
v 15.200158 0.901240 6.501681
v 15.200158 0.998760 6.501681
v 14.799842 0.901240 6.501680
v 14.799842 0.998760 6.501680
v 15.000001 4.901240 1.683699
v 15.000001 4.001240 1.701680
v 15.000001 4.801240 1.901680
v 15.000001 3.801240 1.901680
v 15.000001 1.001240 5.301680
v 15.000001 0.001240 5.301680
v 15.000001 0.901240 5.501680
v 15.000001 0.001240 5.501680
v 15.000001 0.901240 6.501680
v 15.000001 0.001240 6.501680
v 15.000001 4.801240 1.901680
v 15.000001 3.801240 1.901680
v 15.000001 1.001240 5.301680
v 15.000001 0.001240 5.301680
v 15.000001 0.901240 5.501680
v 15.000001 0.001240 5.501680
v 15.000001 0.901240 6.501680
v 15.000001 0.001240 6.501680
v 15.000001 4.001240 0.001680
v 15.000001 4.001240 0.001680
v 15.337286 0.000000 5.500000
v 11.662711 0.000000 5.500000
v 15.337286 0.250000 5.500000
v 15.337286 4.000000 1.750000
v 15.337286 0.250000 5.125000
v 15.337286 0.625000 5.125000
v 15.337286 0.625000 4.750000
v 15.337286 1.000000 4.750000
v 15.337286 1.000000 4.375000
v 15.337286 1.375000 4.375000
v 15.337286 1.375000 4.000000
v 15.337286 1.750000 4.000000
v 15.337286 1.750000 3.625000
v 15.337286 2.125000 3.625000
v 15.337286 2.125000 3.250000
v 15.337286 2.500000 3.250000
v 15.337286 2.500000 2.875000
v 15.337286 2.875000 2.875000
v 15.337286 2.875000 2.500000
v 15.337286 3.250000 2.500000
v 15.337286 3.250000 2.125000
v 15.337286 3.625000 2.125000
v 15.337286 3.625000 1.750000
v 11.662711 4.000000 1.816818
v 11.662711 0.250000 5.500000
v 11.662711 3.725000 1.816818
v 11.662711 3.625000 2.125000
v 11.662711 3.250000 2.125000
v 11.662711 3.250000 2.500000
v 11.662711 2.875000 2.500000
v 11.662711 2.875000 2.875000
v 11.662711 2.500000 2.875000
v 11.662711 2.500000 3.250000
v 11.662711 2.125000 3.250000
v 11.662711 2.125000 3.625000
v 11.662711 1.750000 3.625000
v 11.662711 1.750000 4.000000
v 11.662711 1.375000 4.000000
v 11.662711 1.375000 4.375000
v 11.662711 1.000000 4.375000
v 11.662711 1.000000 4.750000
v 11.662711 0.625000 4.750000
v 11.662711 0.625000 5.125000
v 11.662711 0.250000 5.125000
v 7.911502 3.749866 1.816818
v 10.599281 4.005177 1.816818
v 6.793468 8.924634 1.281722
v 6.793468 9.022155 1.281722
v 6.793309 8.924634 1.683698
v 6.793309 9.022155 1.683698
v 6.793468 8.937417 1.481680
v 12.000001 3.801240 1.901680
v 6.793468 7.804996 1.481680
v 6.990369 7.800000 1.816817
v 4.933199 7.224999 1.816817
v 11.662711 0.025000 2.625000
v 6.911502 0.049866 2.625000
v 12.000001 4.801240 1.901680
v 12.000001 4.001240 1.701680
v 7.004153 8.827102 1.279600
v 7.004153 8.924622 1.279600
v 7.004153 8.827102 1.679916
v 7.004153 8.924622 1.679916
v 10.597931 5.001240 1.279601
v 10.597931 5.098760 1.279601
v 10.597930 5.001240 1.679917
v 10.597930 5.098760 1.679917
v 10.797931 4.901240 1.279601
v 10.797931 4.998760 1.279601
v 10.797930 4.901240 1.679917
v 10.797930 4.998760 1.679917
v 11.797931 4.901240 1.279601
v 11.797931 4.998760 1.279601
v 11.797930 4.901240 1.679917
v 11.797930 4.998760 1.679917
v 6.995628 5.648434 1.816818
v 6.786172 8.939884 1.479757
v 7.004153 8.839885 1.479757
v 7.004153 7.607463 1.479757
v 10.597930 5.001240 1.479758
v 10.597930 4.001240 1.479758
v 10.797930 4.901240 1.479758
v 10.797930 4.001240 1.479758
v 12.000001 4.901240 1.683699
v 12.000000 4.001240 1.481681
v 12.000000 4.901240 1.481681
v 11.798965 4.001240 1.480719
v 11.798965 4.901240 1.480719
v 10.597731 4.420288 1.816818
v 6.991870 7.600673 1.816817
v 7.391188 7.602245 1.816817
v 7.392687 7.202928 1.816817
v 7.792006 7.204501 1.816817
v 7.793504 6.805182 1.816818
v 8.192823 6.806756 1.816818
v 8.194321 6.407436 1.816818
v 8.593641 6.409011 1.816818
v 8.595138 6.009690 1.816818
v 8.994460 6.011267 1.816818
v 8.995955 5.611944 1.816818
v 9.395277 5.613522 1.816818
v 9.396771 5.214199 1.816818
v 9.796096 5.215777 1.816818
v 9.797588 4.816453 1.816818
v 10.196914 4.818033 1.816818
v 10.198405 4.418707 1.816818
v 10.797930 4.001240 1.479758
v -11.800000 4.901240 -1.281723
v -11.800000 4.998760 -1.281723
v -11.799842 4.901240 -1.683699
v -11.799842 4.998760 -1.683699
v -10.797930 4.901240 -1.479758
v -10.597930 4.001240 -1.479758
v -10.597930 5.001240 -1.479758
v -12.200158 4.901240 -1.683700
v -12.200158 4.998760 -1.683700
v -7.004153 7.607463 -1.479759
v -12.200158 4.801240 -1.901680
v -12.200158 4.898760 -1.901680
v -11.799842 4.801240 -1.901680
v -11.799842 4.898760 -1.901680
v -7.004153 8.839885 -1.479759
v -12.200158 1.001240 -5.301681
v -12.200158 1.098760 -5.301681
v -11.799842 1.001240 -5.301680
v -11.799842 1.098760 -5.301680
v -6.786172 8.939884 -1.479759
v -12.200158 0.901240 -5.501681
v -12.200158 0.998760 -5.501681
v -11.799842 0.901240 -5.501680
v -11.799842 0.998760 -5.501680
v -12.200158 0.901240 -6.501681
v -12.200158 0.998760 -6.501681
v -11.799842 0.901240 -6.501680
v -11.799842 0.998760 -6.501680
v -12.002193 4.901240 -1.280601
v -12.201180 4.901240 -1.479487
v -12.060769 4.901240 -1.420912
v -12.201180 4.998760 -1.479487
v -12.002193 4.998760 -1.280601
v -12.060769 4.998760 -1.420912
v -11.798965 4.901240 -1.480719
v -11.798965 4.001240 -1.480719
v -12.000000 4.901240 -1.481681
v -12.000000 4.001240 -1.481681
v -12.000001 4.901240 -1.683699
v -12.000001 4.001240 -1.701680
v -12.000001 4.801240 -1.901680
v -12.000001 3.801240 -1.901680
v -12.000001 1.001240 -5.301680
v -12.000001 0.001240 -5.301680
v -12.000001 0.901240 -5.501680
v -12.000001 0.001240 -5.501680
v -12.000001 0.901240 -6.501680
v -12.000001 0.001240 -6.501680
v -6.793468 7.804996 -1.481682
v -6.793468 8.937417 -1.481682
v -12.000001 0.001240 -6.501680
v -12.000001 0.901240 -6.501680
v -12.000001 0.001240 -5.501680
v -12.000001 0.901240 -5.501680
v -12.000001 0.001240 -5.301680
v -12.000001 1.001240 -5.301680
v -14.799842 4.901240 -1.683699
v -14.799842 4.998760 -1.683699
v -15.000001 4.001240 -1.701680
v -15.000001 4.901240 -1.683699
v -15.200158 4.901240 -1.683700
v -15.200158 4.998760 -1.683700
v -15.200158 4.801240 -1.901680
v -15.200158 4.898760 -1.901680
v -14.799842 4.801240 -1.901680
v -14.799842 4.898760 -1.901680
v -15.200158 1.001240 -5.301681
v -15.200158 1.098760 -5.301681
v -14.799842 1.001240 -5.301680
v -14.799842 1.098760 -5.301680
v -15.200158 0.901240 -5.501681
v -15.200158 0.998760 -5.501681
v -14.799842 0.901240 -5.501680
v -14.799842 0.998760 -5.501680
v -15.200158 0.901240 -6.501681
v -15.200158 0.998760 -6.501681
v -14.799842 0.901240 -6.501680
v -14.799842 0.998760 -6.501680
v -15.000001 4.901240 -1.683699
v -15.000001 4.001240 -1.701680
v -15.000001 4.801240 -1.901680
v -15.000001 3.801240 -1.901680
v -15.000001 1.001240 -5.301680
v -15.000001 0.001240 -5.301680
v -15.000001 0.901240 -5.501680
v -15.000001 0.001240 -5.501680
v -15.000001 0.901240 -6.501680
v -15.000001 0.001240 -6.501680
v -15.000001 4.801240 -1.901680
v -15.000001 3.801240 -1.901680
v -15.000001 1.001240 -5.301680
v -15.000001 0.001240 -5.301680
v -15.000001 0.901240 -5.501680
v -15.000001 0.001240 -5.501680
v -15.000001 0.901240 -6.501680
v -15.000001 0.001240 -6.501680
v -15.000001 4.001240 -0.001680
v -15.000001 4.001240 -0.001680
v -15.337286 -0.000000 -5.500000
v -11.662711 -0.000000 -5.500000
v -15.337286 0.250000 -5.500000
v -15.337286 4.000000 -1.750000
v -15.337286 0.250000 -5.125000
v -15.337286 0.625000 -5.125000
v -15.337286 0.625000 -4.750000
v -15.337286 1.000000 -4.750000
v -15.337286 1.000000 -4.375000
v -15.337286 1.375000 -4.375000
v -15.337286 1.375000 -4.000000
v -15.337286 1.750000 -4.000000
v -15.337286 1.750000 -3.625000
v -15.337286 2.125000 -3.625000
v -15.337286 2.125000 -3.250000
v -15.337286 2.500000 -3.250000
v -15.337286 2.500000 -2.875000
v -15.337286 2.875000 -2.875000
v -15.337286 2.875000 -2.500000
v -15.337286 3.250000 -2.500000
v -15.337286 3.250000 -2.125000
v -15.337286 3.625000 -2.125000
v -15.337286 3.625000 -1.750000
v -11.662711 4.000000 -1.816818
v -11.662711 0.250000 -5.500000
v -11.662711 3.725000 -1.816818
v -11.662711 3.625000 -2.125000
v -11.662711 3.250000 -2.125000
v -11.662711 3.250000 -2.500000
v -11.662711 2.875000 -2.500000
v -11.662711 2.875000 -2.875000
v -11.662711 2.500000 -2.875000
v -11.662711 2.500000 -3.250000
v -11.662711 2.125000 -3.250000
v -11.662711 2.125000 -3.625000
v -11.662711 1.750000 -3.625000
v -11.662711 1.750000 -4.000000
v -11.662711 1.375000 -4.000000
v -11.662711 1.375000 -4.375000
v -11.662711 1.000000 -4.375000
v -11.662711 1.000000 -4.750000
v -11.662711 0.625000 -4.750000
v -11.662711 0.625000 -5.125000
v -11.662711 0.250000 -5.125000
v -7.911502 3.749866 -1.816818
v -10.599281 4.005177 -1.816818
v -6.793468 8.924634 -1.281724
v -6.793468 9.022155 -1.281724
v -6.793309 8.924634 -1.683700
v -6.793309 9.022155 -1.683700
v -6.793468 8.937417 -1.481682
v -12.000001 3.801240 -1.901680
v -6.793468 7.804996 -1.481682
v -6.990369 7.800000 -1.816819
v -4.933199 7.224999 -1.816819
v -11.662711 0.025000 -2.625000
v -6.911502 0.049866 -2.625000
v -12.000001 4.801240 -1.901680
v -12.000001 4.001240 -1.701680
v -7.004153 8.827102 -1.279602
v -7.004153 8.924622 -1.279602
v -7.004153 8.827102 -1.679918
v -7.004153 8.924622 -1.679918
v -10.597931 5.001240 -1.279601
v -10.597931 5.098760 -1.279601
v -10.597930 5.001240 -1.679917
v -10.597930 5.098760 -1.679917
v -10.797931 4.901240 -1.279601
v -10.797931 4.998760 -1.279601
v -10.797930 4.901240 -1.679917
v -10.797930 4.998760 -1.679917
v -11.797931 4.901240 -1.279601
v -11.797931 4.998760 -1.279601
v -11.797930 4.901240 -1.679917
v -11.797930 4.998760 -1.679917
v -6.995628 5.648434 -1.816818
v -6.786172 8.939884 -1.479759
v -7.004153 8.839885 -1.479759
v -7.004153 7.607463 -1.479759
v -10.597930 5.001240 -1.479758
v -10.597930 4.001240 -1.479758
v -10.797930 4.901240 -1.479758
v -10.797930 4.001240 -1.479758
v -12.000001 4.901240 -1.683699
v -12.000000 4.001240 -1.481681
v -12.000000 4.901240 -1.481681
v -11.798965 4.001240 -1.480719
v -11.798965 4.901240 -1.480719
v -10.597731 4.420288 -1.816818
v -6.991870 7.600673 -1.816819
v -7.391188 7.602245 -1.816819
v -7.392687 7.202928 -1.816819
v -7.792006 7.204501 -1.816819
v -7.793504 6.805182 -1.816818
v -8.192823 6.806756 -1.816818
v -8.194321 6.407436 -1.816818
v -8.593641 6.409011 -1.816818
v -8.595138 6.009690 -1.816818
v -8.994460 6.011267 -1.816818
v -8.995955 5.611944 -1.816818
v -9.395277 5.613522 -1.816818
v -9.396771 5.214199 -1.816818
v -9.796096 5.215777 -1.816818
v -9.797588 4.816453 -1.816818
v -10.196914 4.818033 -1.816818
v -10.198405 4.418707 -1.816818
v 0.000000 8.910692 -1.682686
v 0.000000 9.027415 -1.281724
v 0.000000 8.923475 -1.481682
v 0.000000 9.027415 -1.682686
v 0.000000 8.910692 -1.281724
v 0.000000 8.691053 -1.481682
v 0.000000 7.801680 -1.481682
v 0.000000 7.801680 -1.481682
v 0.000000 7.205969 -1.816819
v 0.000000 7.800138 -1.816819
v -10.797930 4.001240 -1.479758
v 0.000000 8.923475 -1.481682
v 0.000000 7.801680 -1.481682
v 11.800000 4.901240 -1.281723
v 11.800000 4.998760 -1.281723
v 11.799842 4.901240 -1.683699
v 11.799842 4.998760 -1.683699
v 10.797930 4.901240 -1.479758
v 10.597930 4.001240 -1.479758
v 10.597930 5.001240 -1.479758
v 12.200158 4.901240 -1.683700
v 12.200158 4.998760 -1.683700
v 7.004153 7.607463 -1.479759
v 12.200158 4.801240 -1.901680
v 12.200158 4.898760 -1.901680
v 11.799842 4.801240 -1.901680
v 11.799842 4.898760 -1.901680
v 7.004153 8.839885 -1.479759
v 12.200158 1.001240 -5.301681
v 12.200158 1.098760 -5.301681
v 11.799842 1.001240 -5.301680
v 11.799842 1.098760 -5.301680
v 6.786172 8.939884 -1.479759
v 12.200158 0.901240 -5.501681
v 12.200158 0.998760 -5.501681
v 11.799842 0.901240 -5.501680
v 11.799842 0.998760 -5.501680
v 12.200158 0.901240 -6.501681
v 12.200158 0.998760 -6.501681
v 11.799842 0.901240 -6.501680
v 11.799842 0.998760 -6.501680
v 12.002193 4.901240 -1.280601
v 12.201180 4.901240 -1.479487
v 12.060769 4.901240 -1.420912
v 12.201180 4.998760 -1.479487
v 12.002193 4.998760 -1.280601
v 12.060769 4.998760 -1.420912
v 11.798965 4.901240 -1.480719
v 11.798965 4.001240 -1.480719
v 12.000000 4.901240 -1.481681
v 12.000000 4.001240 -1.481681
v 12.000001 4.901240 -1.683699
v 12.000001 4.001240 -1.701680
v 12.000001 4.801240 -1.901680
v 12.000001 3.801240 -1.901680
v 12.000001 1.001240 -5.301680
v 12.000001 0.001240 -5.301680
v 12.000001 0.901240 -5.501680
v 12.000001 0.001240 -5.501680
v 12.000001 0.901240 -6.501680
v 12.000001 0.001240 -6.501680
v 6.793468 7.804996 -1.481682
v 6.793468 8.937417 -1.481682
v 12.000001 0.001240 -6.501680
v 12.000001 0.901240 -6.501680
v 12.000001 0.001240 -5.501680
v 12.000001 0.901240 -5.501680
v 12.000001 0.001240 -5.301680
v 12.000001 1.001240 -5.301680
v 14.799842 4.901240 -1.683699
v 14.799842 4.998760 -1.683699
v 15.000001 4.001240 -1.701680
v 15.000001 4.901240 -1.683699
v 15.200158 4.901240 -1.683700
v 15.200158 4.998760 -1.683700
v 15.200158 4.801240 -1.901680
v 15.200158 4.898760 -1.901680
v 14.799842 4.801240 -1.901680
v 14.799842 4.898760 -1.901680
v 15.200158 1.001240 -5.301681
v 15.200158 1.098760 -5.301681
v 14.799842 1.001240 -5.301680
v 14.799842 1.098760 -5.301680
v 15.200158 0.901240 -5.501681
v 15.200158 0.998760 -5.501681
v 14.799842 0.901240 -5.501680
v 14.799842 0.998760 -5.501680
v 15.200158 0.901240 -6.501681
v 15.200158 0.998760 -6.501681
v 14.799842 0.901240 -6.501680
v 14.799842 0.998760 -6.501680
v 15.000001 4.901240 -1.683699
v 15.000001 4.001240 -1.701680
v 15.000001 4.801240 -1.901680
v 15.000001 3.801240 -1.901680
v 15.000001 1.001240 -5.301680
v 15.000001 0.001240 -5.301680
v 15.000001 0.901240 -5.501680
v 15.000001 0.001240 -5.501680
v 15.000001 0.901240 -6.501680
v 15.000001 0.001240 -6.501680
v 15.000001 4.801240 -1.901680
v 15.000001 3.801240 -1.901680
v 15.000001 1.001240 -5.301680
v 15.000001 0.001240 -5.301680
v 15.000001 0.901240 -5.501680
v 15.000001 0.001240 -5.501680
v 15.000001 0.901240 -6.501680
v 15.000001 0.001240 -6.501680
v 15.000001 4.001240 -0.001680
v 15.000001 4.001240 -0.001680
v 15.337286 -0.000000 -5.500000
v 11.662711 -0.000000 -5.500000
v 15.337286 0.250000 -5.500000
v 15.337286 4.000000 -1.750000
v 15.337286 0.250000 -5.125000
v 15.337286 0.625000 -5.125000
v 15.337286 0.625000 -4.750000
v 15.337286 1.000000 -4.750000
v 15.337286 1.000000 -4.375000
v 15.337286 1.375000 -4.375000
v 15.337286 1.375000 -4.000000
v 15.337286 1.750000 -4.000000
v 15.337286 1.750000 -3.625000
v 15.337286 2.125000 -3.625000
v 15.337286 2.125000 -3.250000
v 15.337286 2.500000 -3.250000
v 15.337286 2.500000 -2.875000
v 15.337286 2.875000 -2.875000
v 15.337286 2.875000 -2.500000
v 15.337286 3.250000 -2.500000
v 15.337286 3.250000 -2.125000
v 15.337286 3.625000 -2.125000
v 15.337286 3.625000 -1.750000
v 11.662711 4.000000 -1.816818
v 11.662711 0.250000 -5.500000
v 11.662711 3.725000 -1.816818
v 11.662711 3.625000 -2.125000
v 11.662711 3.250000 -2.125000
v 11.662711 3.250000 -2.500000
v 11.662711 2.875000 -2.500000
v 11.662711 2.875000 -2.875000
v 11.662711 2.500000 -2.875000
v 11.662711 2.500000 -3.250000
v 11.662711 2.125000 -3.250000
v 11.662711 2.125000 -3.625000
v 11.662711 1.750000 -3.625000
v 11.662711 1.750000 -4.000000
v 11.662711 1.375000 -4.000000
v 11.662711 1.375000 -4.375000
v 11.662711 1.000000 -4.375000
v 11.662711 1.000000 -4.750000
v 11.662711 0.625000 -4.750000
v 11.662711 0.625000 -5.125000
v 11.662711 0.250000 -5.125000
v 7.911502 3.749866 -1.816818
v 10.599281 4.005177 -1.816818
v 6.793468 8.924634 -1.281724
v 6.793468 9.022155 -1.281724
v 6.793309 8.924634 -1.683700
v 6.793309 9.022155 -1.683700
v 6.793468 8.937417 -1.481682
v 12.000001 3.801240 -1.901680
v 6.793468 7.804996 -1.481682
v 6.990369 7.800000 -1.816819
v 4.933199 7.224999 -1.816819
v 11.662711 0.025000 -2.625000
v 6.911502 0.049866 -2.625000
v 12.000001 4.801240 -1.901680
v 12.000001 4.001240 -1.701680
v 7.004153 8.827102 -1.279602
v 7.004153 8.924622 -1.279602
v 7.004153 8.827102 -1.679918
v 7.004153 8.924622 -1.679918
v 10.597931 5.001240 -1.279601
v 10.597931 5.098760 -1.279601
v 10.597930 5.001240 -1.679917
v 10.597930 5.098760 -1.679917
v 10.797931 4.901240 -1.279601
v 10.797931 4.998760 -1.279601
v 10.797930 4.901240 -1.679917
v 10.797930 4.998760 -1.679917
v 11.797931 4.901240 -1.279601
v 11.797931 4.998760 -1.279601
v 11.797930 4.901240 -1.679917
v 11.797930 4.998760 -1.679917
v 6.995628 5.648434 -1.816818
v 6.786172 8.939884 -1.479759
v 7.004153 8.839885 -1.479759
v 7.004153 7.607463 -1.479759
v 10.597930 5.001240 -1.479758
v 10.597930 4.001240 -1.479758
v 10.797930 4.901240 -1.479758
v 10.797930 4.001240 -1.479758
v 12.000001 4.901240 -1.683699
v 12.000000 4.001240 -1.481681
v 12.000000 4.901240 -1.481681
v 11.798965 4.001240 -1.480719
v 11.798965 4.901240 -1.480719
v 10.597731 4.420288 -1.816818
v 6.991870 7.600673 -1.816819
v 7.391188 7.602245 -1.816819
v 7.392687 7.202928 -1.816819
v 7.792006 7.204501 -1.816819
v 7.793504 6.805182 -1.816818
v 8.192823 6.806756 -1.816818
v 8.194321 6.407436 -1.816818
v 8.593641 6.409011 -1.816818
v 8.595138 6.009690 -1.816818
v 8.994460 6.011267 -1.816818
v 8.995955 5.611944 -1.816818
v 9.395277 5.613522 -1.816818
v 9.396771 5.214199 -1.816818
v 9.796096 5.215777 -1.816818
v 9.797588 4.816453 -1.816818
v 10.196914 4.818033 -1.816818
v 10.198405 4.418707 -1.816818
v 10.797930 4.001240 -1.479758
vn -0.0000 -0.0000 -1.0000
vn -0.0000 -1.0000 -0.0000
vn -0.0000 -0.9089 -0.4170
vn -0.0000 1.0000 -0.0000
vn -1.0000 -0.0000 0.0050
vn -1.0000 -0.0000 0.0046
vn -1.0000 -0.0000 0.0005
vn 1.0000 -0.0000 -0.0000
vn -0.0000 0.9089 0.4170
vn -0.0000 0.6668 0.7452
vn -0.0000 -0.8944 -0.4472
vn -1.0000 -0.0000 -0.0000
vn -0.0000 -0.6668 -0.7452
vn -0.0000 0.8944 0.4472
vn -0.0000 -0.0000 1.0000
vn 0.0004 -0.0000 1.0000
vn 0.0005 -0.0000 1.0000
vn 0.0029 -0.0000 1.0000
vn -0.0009 0.0001 1.0000
vn -0.0041 0.0006 1.0000
vn -0.0051 0.0008 1.0000
vn -0.7069 -0.0000 -0.7073
vn 0.0055 -0.0000 -1.0000
vn -0.0029 -0.0000 -1.0000
vn -0.0048 -0.0000 -1.0000
vn -0.0024 1.0000 -0.0000
vn -0.0182 -0.0000 0.9998
vn -0.0148 0.9893 0.1448
vn -0.0049 1.0000 -0.0000
vn -0.0008 1.0000 -0.0000
vn 0.0006 -0.0000 -1.0000
vn 0.0093 -0.0000 -1.0000
vn -1.0000 0.0075 -0.0000
vn -1.0000 0.0037 -0.0000
vn 0.6073 -0.7945 -0.0000
vn -0.0012 0.2132 0.9770
vn 0.9654 0.2609 -0.0000
vn 0.4200 -0.9075 -0.0001
vn -0.0179 -0.0000 0.9998
vn -0.4200 0.9075 0.0001
vn -0.7289 0.6847 -0.0000
vn 0.4472 -0.8944 -0.0000
vn 0.0086 -0.0000 -1.0000
vn 0.0018 -0.0000 -1.0000
vn 0.7289 -0.6847 -0.0000
vn -0.4472 0.8944 -0.0000
vn 0.9007 -0.4345 -0.0000
vn 0.0051 -0.0008 -1.0000
vn 0.0042 -0.0006 -1.0000
vn 0.0009 -0.0001 -1.0000
vn -0.0004 -0.0000 -1.0000
vn -0.0005 -0.0000 -1.0000
vn 0.0039 1.0000 -0.0000
vn -1.0000 0.0038 -0.0000
vn 0.0040 1.0000 -0.0000
vn -0.0039 -1.0000 -0.0000
vn 0.0048 -0.0000 1.0000
vn 0.0001 -0.0000 1.0000
vn -0.0021 -1.0000 -0.0000
vn 1.0000 -0.0000 0.0050
vn 1.0000 -0.0000 0.0005
vn 1.0000 -0.0000 0.0046
vn -0.0005 -0.0000 1.0000
vn -0.0004 -0.0000 1.0000
vn -0.0029 -0.0000 1.0000
vn 0.0010 0.0001 1.0000
vn 0.0041 0.0006 1.0000
vn 0.0051 0.0008 1.0000
vn 0.7069 -0.0000 -0.7073
vn -0.0055 -0.0000 -1.0000
vn 0.0029 -0.0000 -1.0000
vn 0.0048 -0.0000 -1.0000
vn 0.0024 1.0000 -0.0000
vn 0.0182 -0.0000 0.9998
vn 0.0148 0.9893 0.1448
vn 0.0049 1.0000 -0.0000
vn 0.0008 1.0000 -0.0000
vn -0.0093 -0.0000 -1.0000
vn -0.0006 -0.0000 -1.0000
vn 1.0000 0.0075 -0.0000
vn 1.0000 0.0037 -0.0000
vn -0.6073 -0.7945 -0.0000
vn 0.0012 0.2132 0.9770
vn -0.9654 0.2609 -0.0000
vn -0.4200 -0.9075 -0.0001
vn 0.0179 -0.0000 0.9998
vn 0.4200 0.9075 0.0001
vn 0.7289 0.6847 -0.0000
vn -0.4472 -0.8944 -0.0000
vn -0.0086 -0.0000 -1.0000
vn -0.0018 -0.0000 -1.0000
vn -0.7289 -0.6847 -0.0000
vn 0.4472 0.8944 -0.0000
vn -0.9007 -0.4345 -0.0000
vn -0.0051 -0.0008 -1.0000
vn -0.0009 -0.0001 -1.0000
vn -0.0042 -0.0006 -1.0000
vn 0.0004 -0.0000 -1.0000
vn 0.0005 -0.0000 -1.0000
vn -0.0039 1.0000 -0.0000
vn 1.0000 0.0038 -0.0000
vn -0.0040 1.0000 -0.0000
vn 0.0039 -1.0000 -0.0000
vn -0.0048 -0.0000 1.0000
vn -0.0001 -0.0000 1.0000
vn 0.0021 -1.0000 -0.0000
vn -0.0000 -0.9089 0.4170
vn -1.0000 -0.0000 -0.0050
vn -1.0000 -0.0000 -0.0005
vn -1.0000 -0.0000 -0.0046
vn -0.0000 0.9089 -0.4170
vn -0.0000 0.6668 -0.7452
vn -0.0000 -0.8944 0.4472
vn -0.0000 -0.6668 0.7452
vn -0.0000 0.8944 -0.4472
vn -0.0010 0.0001 -1.0000
vn -0.0041 0.0006 -1.0000
vn -0.0051 0.0008 -1.0000
vn -0.7069 -0.0000 0.7073
vn 0.0055 -0.0000 1.0000
vn -0.0182 -0.0000 -0.9998
vn -0.0148 0.9893 -0.1448
vn 0.0093 -0.0000 1.0000
vn 0.0006 -0.0000 1.0000
vn -0.0012 0.2132 -0.9770
vn 0.4200 -0.9075 0.0001
vn -0.0179 -0.0000 -0.9998
vn -0.4200 0.9075 -0.0001
vn 0.0086 -0.0000 1.0000
vn 0.0018 -0.0000 1.0000
vn 0.0051 -0.0008 1.0000
vn 0.0009 -0.0001 1.0000
vn 0.0042 -0.0006 1.0000
vn 0.0001 -0.0000 -1.0000
vn 1.0000 -0.0000 -0.0050
vn 1.0000 -0.0000 -0.0046
vn 1.0000 -0.0000 -0.0005
vn 0.0009 0.0001 -1.0000
vn 0.0041 0.0006 -1.0000
vn 0.0051 0.0008 -1.0000
vn 0.7069 -0.0000 0.7073
vn -0.0055 -0.0000 1.0000
vn 0.0182 -0.0000 -0.9998
vn 0.0148 0.9893 -0.1448
vn -0.0006 -0.0000 1.0000
vn -0.0093 -0.0000 1.0000
vn 0.0012 0.2132 -0.9770
vn -0.4200 -0.9075 0.0001
vn 0.0179 -0.0000 -0.9998
vn 0.4200 0.9075 -0.0001
vn -0.0086 -0.0000 1.0000
vn -0.0018 -0.0000 1.0000
vn -0.0051 -0.0008 1.0000
vn -0.0042 -0.0006 1.0000
vn -0.0009 -0.0001 1.0000
vn -0.0001 -0.0000 -1.0000
vt 0.971986 0.972094
vt 0.971986 0.979159
vt 0.936493 0.877150
vt 0.936510 0.808648
vt 0.958434 0.808487
vt 0.964717 0.832518
vt 0.991282 0.807911
vt 0.888317 0.807911
vt 0.888317 0.890553
vt 0.991282 0.890553
vt 0.623699 0.652164
vt 0.776445 0.652164
vt 0.776445 0.675800
vt 0.623699 0.675800
vt 0.914552 0.808487
vt 0.936476 0.808648
vt 0.908269 0.832518
vt 0.920186 0.806965
vt 0.951341 0.806965
vt 0.951341 0.810299
vt 0.920186 0.810299
vt 0.900579 0.879023
vt 0.983221 0.879023
vt 0.983221 0.897148
vt 0.900579 0.897148
vt 0.898479 0.807077
vt 0.981121 0.807077
vt 0.981121 0.873792
vt 0.898479 0.873792
vt 0.893337 0.877150
vt 0.893208 0.842551
vt 0.973157 0.807911
vt 0.906442 0.807911
vt 0.973157 0.890553
vt 0.906442 0.890553
vt 0.974255 0.814324
vt 0.891613 0.814324
vt 0.891613 0.806432
vt 0.974255 0.806432
vt 0.971715 0.881454
vt 0.971715 0.806704
vt 0.925229 0.806704
vt 0.925230 0.881454
vt 0.991282 0.815045
vt 0.888317 0.815045
vt 0.906442 0.815045
vt 0.973157 0.815045
vt 0.744559 0.602793
vt 0.749006 0.601417
vt 0.749006 0.579310
vt 0.744559 0.580686
vt 0.920886 0.887861
vt 0.968078 0.887861
vt 0.968078 0.892464
vt 0.920886 0.892464
vt 0.973157 0.892215
vt 0.906442 0.892215
vt 0.888317 0.892215
vt 0.991282 0.892215
vt 0.769254 0.601417
vt 0.769254 0.579310
vt 0.640622 0.700731
vt 0.745709 0.626261
vt 0.745709 0.604155
vt 0.640622 0.678625
vt 0.951341 0.826793
vt 0.920186 0.826793
vt 0.635895 0.702389
vt 0.635895 0.680283
vt 0.951341 0.814331
vt 0.920186 0.812865
vt 0.745646 0.601416
vt 0.750094 0.600040
vt 0.750094 0.577933
vt 0.745646 0.579309
vt 0.926653 0.807162
vt 0.973846 0.807162
vt 0.973846 0.876637
vt 0.926653 0.876637
vt 0.979778 0.842551
vt 0.951341 0.812865
vt 0.920186 0.814331
vt 0.628721 0.701012
vt 0.628721 0.678906
vt 0.631295 0.678906
vt 0.631295 0.701012
vt 0.635832 0.701012
vt 0.635832 0.678906
vt 0.640559 0.677248
vt 0.640559 0.699354
vt 0.770341 0.577933
vt 0.770341 0.600040
vt 0.979649 0.877150
vt 0.634745 0.701823
vt 0.639472 0.700542
vt 0.639472 0.678436
vt 0.634745 0.679717
vt 0.639472 0.700731
vt 0.639472 0.678625
vt 0.978312 0.969520
vt 0.898374 0.969520
vt 0.898374 0.914368
vt 0.978312 0.914368
vt 0.933807 0.936765
vt 0.941244 0.943831
vt 0.971986 0.903791
vt 0.897914 0.943910
vt 0.977852 0.943910
vt 0.898374 0.903353
vt 0.978312 0.903353
vt 0.896618 0.903791
vt 0.904056 0.908502
vt 0.896618 0.908502
vt 0.904056 0.915568
vt 0.911494 0.915568
vt 0.970995 0.979159
vt 0.970995 0.972094
vt 0.963557 0.965028
vt 0.963557 0.972094
vt 0.911494 0.922633
vt 0.918931 0.922633
vt 0.918931 0.929699
vt 0.926369 0.929699
vt 0.926369 0.936765
vt 0.933807 0.943831
vt 0.941244 0.950897
vt 0.948682 0.950897
vt 0.948682 0.957962
vt 0.956119 0.957962
vt 0.956119 0.965028
vt 0.887508 0.944674
vt 0.998331 0.944674
vt 0.998331 0.945448
vt 0.887508 0.945448
vt 0.652351 0.680000
vt 0.617950 0.680000
vt 0.617950 0.682065
vt 0.618280 0.702106
vt 0.652351 0.702106
vt 0.938658 0.877328
vt 0.938658 0.807377
vt 0.980020 0.807377
vt 0.980020 0.877328
vt 0.938658 0.814847
vt 0.980020 0.814847
vt 0.998331 0.949975
vt 0.998331 0.908300
vt 0.887509 0.908300
vt 0.887509 0.949975
vt 0.998331 0.904771
vt 0.887509 0.904771
vt 0.976443 0.957711
vt 0.898083 0.956441
vt 0.898842 0.903299
vt 0.996897 0.904770
vt 0.956982 0.987851
vt 0.930389 0.987851
vt 0.917092 0.903310
vt 0.956982 0.903310
vt 0.926208 0.936227
vt 0.916280 0.927466
vt 0.969491 0.903854
vt 0.887509 0.907202
vt 0.998331 0.907202
vt 0.887509 0.946336
vt 0.998331 0.946336
vt 0.887509 0.909084
vt 0.998331 0.909084
vt 0.887509 0.946378
vt 0.998331 0.946378
vt 0.887509 0.907285
vt 0.998331 0.907285
vt 0.887509 0.942738
vt 0.998331 0.942738
vt 0.887509 0.905486
vt 0.998331 0.905486
vt 0.887509 0.944620
vt 0.998331 0.944620
vt 0.887509 0.905527
vt 0.998331 0.905527
vt 0.887509 0.944661
vt 0.998331 0.944661
vt 0.887509 0.905568
vt 0.998331 0.905568
vt 0.887509 0.945623
vt 0.998331 0.945623
vt 0.887509 0.905610
vt 0.998331 0.905609
vt 0.887509 0.945664
vt 0.998331 0.945664
vt 0.887509 0.905650
vt 0.998331 0.905650
vt 0.887509 0.943864
vt 0.998331 0.943864
vt 0.974370 0.936855
vt 0.967240 0.936853
vt 0.967213 0.937420
vt 0.960084 0.937418
vt 0.960057 0.937985
vt 0.952927 0.937983
vt 0.952900 0.938550
vt 0.945771 0.938548
vt 0.945744 0.939115
vt 0.938614 0.939113
vt 0.938588 0.939681
vt 0.931458 0.939678
vt 0.931431 0.940246
vt 0.924301 0.940244
vt 0.924275 0.940811
vt 0.917145 0.940809
vt 0.917118 0.941376
vt 0.909988 0.941374
vt 0.909961 0.941964
vt 0.886909 0.941971
vt 0.886909 0.942362
vt 0.957950 0.942327
vt 0.974303 0.939629
vt 0.990466 0.936962
vt 0.978502 0.949766
vt 0.967426 0.946670
vt 0.940865 0.949767
vt 0.978510 0.948693
vt 0.980668 0.946552
vt 0.946063 0.953747
vt 0.936135 0.944987
vt 0.955991 0.962508
vt 0.965919 0.971268
vt 0.985522 0.991156
vt 0.975847 0.980028
vt 0.896424 0.909945
vt 0.886181 0.904143
vt 0.906352 0.918706
vt 0.908561 0.954217
vt 0.908561 0.950691
vt 0.974642 0.950691
vt 0.974642 0.954217
vt 0.998331 0.969342
vt 0.887508 0.969342
vt 0.980020 0.863091
vt 0.938658 0.863091
vt 0.980020 0.877105
vt 0.938658 0.877105
vt 0.940865 0.946568
s 1
f 15/1/1 14/2/1 36/2/1 37/1/1
f 40/3/2 45/4/2 67/5/2 68/6/2
f 50/7/3 48/8/3 45/9/3 40/10/3
f 87/11/1 253/12/1 254/13/1 86/14/1
f 69/15/4 46/16/4 41/3/4 71/17/4
f 67/18/5 45/19/6 46/20/7 69/21/5
f 41/22/8 51/23/8 50/24/8 40/25/8
f 46/26/9 49/27/9 51/28/9 41/29/9
f 39/30/4 70/31/4 71/17/4 41/3/4
f 49/7/10 54/8/10 56/9/10 51/10/10
f 55/7/11 60/8/11 58/9/11 53/10/11
f 48/32/12 53/33/12 54/8/12 49/7/12
f 50/34/13 55/35/13 53/33/13 48/32/13
f 45/36/6 48/37/12 49/38/12 46/39/7
f 54/33/14 59/32/14 61/34/14 56/35/14
f 64/40/2 62/41/2 58/42/2 60/43/2
f 53/44/12 58/45/12 59/46/12 54/47/12
f 51/10/8 56/9/8 55/35/8 50/34/8
f 44/48/15 42/49/16 252/50/17 43/51/15
f 61/52/8 65/53/8 64/54/8 60/55/8
f 56/56/8 61/57/8 60/58/8 55/59/8
f 42/49/16 223/60/18 222/61/18 252/50/17
f 52/62/19 44/63/15 43/64/15 47/65/20
f 62/18/15 64/19/15 65/66/15 63/67/15
f 57/68/21 52/62/19 47/65/20 86/69/21
f 58/18/12 62/19/12 63/70/12 59/71/12
f 93/72/8 91/73/8 90/74/8 92/75/8
f 59/76/4 63/77/4 65/78/4 61/79/4
f 66/80/2 68/6/2 67/5/2
f 69/15/4 71/17/4 70/31/4
f 66/18/22 67/19/22 69/81/22 70/71/22
f 38/18/23 66/19/23 70/81/23 39/82/23
f 72/83/24 73/84/24 75/85/25 74/86/25
f 76/87/12 77/88/12 79/89/12 78/90/12
f 74/86/12 75/85/12 77/88/12 76/87/12
f 78/90/12 79/89/12 81/75/12 80/72/12
f 82/73/12 83/74/12 85/91/12 84/92/12
f 80/72/12 81/75/12 83/74/12 82/73/12
f 40/3/2 68/6/2 66/80/2 38/93/2
f 102/7/3 100/8/3 98/9/3 94/10/3
f 97/94/8 126/95/8 127/96/8 96/97/8
f 95/22/8 103/23/8 102/24/8 94/25/8
f 99/26/9 101/27/9 103/28/9 95/29/9
f 101/7/10 105/8/10 107/9/10 103/10/10
f 106/7/11 110/8/11 108/9/11 104/10/11
f 100/32/12 104/33/12 105/8/12 101/7/12
f 102/34/13 106/35/13 104/33/13 100/32/13
f 98/36/12 100/37/12 101/38/12 99/39/12
f 105/33/14 109/32/14 111/34/14 107/35/14
f 114/40/2 112/41/2 108/42/2 110/43/2
f 104/44/12 108/45/12 109/46/12 105/47/12
f 103/10/8 107/9/8 106/35/8 102/34/8
f 111/52/8 115/53/8 114/54/8 110/55/8
f 107/56/8 111/57/8 110/58/8 106/59/8
f 128/48/8 130/49/8 131/50/8 129/51/8
f 112/18/15 114/19/15 115/66/15 113/67/15
f 126/98/8 128/48/8 129/51/8 127/99/8
f 108/18/12 112/19/12 113/70/12 109/71/12
f 130/49/8 132/60/8 133/61/8 131/50/8
f 109/76/4 113/77/4 115/78/4 111/79/4
f 116/94/12 117/97/12 119/96/12 118/95/12
f 118/98/12 119/99/12 121/51/12 120/48/12
f 122/49/12 123/50/12 125/61/12 124/60/12
f 120/48/12 121/51/12 123/50/12 122/49/12
f 3/100/26 2/101/4 139/102/4 159/103/26
f 148/104/12 150/105/12 1/106/12
f 159/103/27 139/102/27 158/107/27 161/108/27
f 161/108/28 158/107/28 157/109/28 162/110/28
f 162/110/15 157/109/15 156/107/15 163/108/15
f 163/108/4 156/107/4 155/109/4 164/110/4
f 164/110/15 155/109/15 154/107/15 165/108/15
f 165/108/4 154/107/4 153/109/4 166/110/4
f 166/110/15 153/109/15 152/107/15 167/108/15
f 167/108/4 152/107/4 151/109/4 168/110/4
f 168/110/15 151/109/15 150/107/15 169/108/15
f 169/108/4 150/107/4 149/109/4 170/110/4
f 170/110/15 149/109/15 148/107/15 171/108/15
f 171/108/4 148/107/4 147/109/4 172/110/4
f 172/110/15 147/109/15 146/107/15 173/108/15
f 173/108/4 146/107/4 145/109/4 174/110/4
f 174/110/15 145/109/15 144/107/15 175/108/15
f 175/108/4 144/107/4 143/109/4 176/110/4
f 176/110/15 143/109/15 142/107/15 177/108/15
f 177/108/4 142/107/4 141/109/4 178/110/4
f 178/110/15 141/109/15 140/107/15 179/108/15
f 179/108/4 140/107/4 138/109/4 160/110/4
f 137/108/15 160/110/15 138/109/15 136/107/15
f 1/106/12 136/111/12 140/112/12
f 136/111/12 138/113/12 140/112/12
f 140/112/12 141/114/12 142/115/12
f 139/116/12 2/2/12 158/117/12
f 2/2/12 1/106/12 158/117/12
f 156/118/12 157/119/12 158/117/12
f 1/106/12 140/112/12 142/115/12
f 142/115/12 143/120/12 144/121/12
f 144/121/12 145/122/12 146/123/12
f 146/123/12 147/124/12 148/104/12
f 148/104/12 149/125/12 150/105/12
f 150/105/12 151/126/12 152/127/12
f 152/127/12 153/128/12 154/129/12
f 154/129/12 155/130/12 156/118/12
f 156/118/12 158/117/12 1/106/12
f 1/106/12 142/115/12 144/121/12
f 1/106/12 144/121/12 146/123/12
f 154/129/12 156/118/12 1/106/12
f 152/127/12 154/129/12 1/106/12
f 1/106/12 146/123/12 148/104/12
f 150/105/12 152/127/12 1/106/12
f 3/131/26 159/132/26 181/133/29 13/134/29
f 161/117/8 162/119/8 163/118/8
f 160/113/8 137/111/8 179/112/8
f 177/115/8 178/114/8 179/112/8
f 163/118/8 164/130/8 165/129/8
f 165/129/8 166/128/8 167/127/8
f 167/127/8 168/126/8 169/105/8
f 169/105/8 170/125/8 171/104/8
f 171/104/8 172/124/8 173/123/8
f 173/123/8 174/122/8 175/121/8
f 175/121/8 176/120/8 177/115/8
f 95/22/8 94/25/8 8/25/8 11/22/8
f 99/26/4 95/29/4 11/29/4 7/26/4
f 98/36/12 99/39/12 7/39/12 6/36/12
f 94/10/2 98/9/2 6/9/2 8/10/2
f 117/135/8 135/136/8 5/137/8 9/138/8 116/139/8
f 97/139/12 10/138/12 4/137/12 134/136/12 96/135/12
f 245/140/4 243/141/4 183/142/30 185/143/30
f 246/144/1 182/145/31 183/142/32 243/141/1
f 225/146/33 189/147/33 14/148/33 35/149/33
f 13/134/34 181/133/34 224/150/34 18/151/34
f 211/117/35 17/1/35 15/1/35 190/117/35
f 180/152/36 161/153/36 191/154/36 192/155/36
f 12/156/37 180/157/37 192/158/37 16/159/37
f 173/160/8 175/161/8 191/162/8
f 197/7/38 195/8/38 182/9/38 184/10/38
f 91/73/8 89/92/8 88/91/8 90/74/8
f 185/22/39 198/23/39 197/24/39 184/25/39
f 183/26/40 196/27/40 198/28/40 185/29/40
f 196/7/41 200/8/41 202/9/41 198/10/41
f 201/7/42 205/8/42 203/9/42 199/10/42
f 195/32/43 199/33/1 200/8/1 196/7/44
f 197/34/45 201/35/45 199/33/45 195/32/45
f 182/36/31 195/37/43 196/38/44 183/39/32
f 200/33/46 204/32/46 206/34/46 202/35/46
f 209/40/2 207/41/2 203/42/2 205/43/2
f 199/44/1 203/45/1 204/46/1 200/47/1
f 198/10/15 202/9/15 201/35/15 197/34/15
f 206/52/15 210/53/15 209/54/15 205/55/15
f 202/56/15 206/57/15 205/58/15 201/59/15
f 193/90/8 93/72/8 92/75/8 187/89/8
f 180/117/47 12/1/47 17/1/47 211/117/47
f 207/18/12 209/19/12 210/66/12 208/67/12
f 221/86/8 219/87/8 194/88/8 220/85/8
f 203/18/1 207/19/1 208/70/1 204/71/1
f 219/87/8 193/90/8 187/89/8 194/88/8
f 204/76/4 208/77/4 210/78/4 206/79/4
f 212/68/48 188/69/48 214/65/49 213/62/50
f 213/62/50 214/65/49 216/64/1 215/63/1
f 217/49/51 218/50/52 73/61/24 72/60/24
f 215/48/1 216/51/1 218/50/52 217/49/51
f 225/146/53 35/149/53 34/163/53 226/164/53
f 226/164/54 34/163/54 33/165/54 227/166/54
f 227/166/53 33/165/53 32/167/53 228/168/53
f 228/168/54 32/167/54 31/169/54 229/170/54
f 229/170/53 31/169/53 30/171/53 230/172/53
f 230/172/54 30/171/54 29/173/54 231/174/54
f 231/174/53 29/173/53 28/175/53 232/176/53
f 232/176/34 28/175/34 27/177/34 233/178/34
f 233/178/55 27/177/55 26/179/55 234/180/55
f 234/180/34 26/179/34 25/181/34 235/182/34
f 235/182/55 25/181/55 24/183/55 236/184/55
f 236/184/34 24/183/34 23/185/34 237/186/34
f 237/186/55 23/185/55 22/187/55 238/188/55
f 238/188/34 22/187/34 21/189/34 239/190/34
f 239/190/55 21/189/55 20/191/55 240/192/55
f 240/192/34 20/191/34 19/193/34 241/194/34
f 241/194/55 19/193/55 18/151/55 224/150/55
f 225/195/15 226/196/15 227/197/15
f 227/197/15 228/198/15 229/199/15
f 229/199/15 230/200/15 231/201/15
f 231/201/15 232/202/15 233/203/15
f 233/203/15 234/204/15 235/205/15
f 235/205/15 236/206/15 237/207/15
f 237/207/15 238/208/15 239/209/15
f 239/209/15 240/210/15 241/211/15
f 241/211/15 224/212/15 181/213/15
f 181/213/15 159/214/15 161/215/15
f 180/216/15 211/217/15 235/205/15
f 211/217/15 190/218/15 227/197/15
f 189/219/15 190/220/15 251/221/15
f 181/213/15 161/215/15 180/216/15
f 239/209/15 241/211/15 180/216/15
f 241/211/15 181/213/15 180/216/15
f 235/205/15 237/207/15 180/216/15
f 237/207/15 239/209/15 180/216/15
f 233/203/15 235/205/15 211/217/15
f 227/197/15 229/199/15 211/217/15
f 229/199/15 231/201/15 211/217/15
f 231/201/15 233/203/15 211/217/15
f 190/220/15 225/222/15 227/223/15
f 169/224/8 171/225/8 191/162/8
f 171/225/8 173/160/8 191/162/8
f 167/226/8 169/224/8 191/162/8
f 165/227/8 167/226/8 191/162/8
f 191/162/8 161/228/8 163/229/8
f 179/230/8 137/231/8 191/162/8
f 177/232/8 179/230/8 191/162/8
f 191/162/8 163/229/8 165/227/8
f 175/161/8 177/232/8 191/162/8
f 190/233/56 15/234/56 37/235/2 250/236/2
f 14/148/4 189/147/4 251/237/4 36/238/4
f 223/83/18 221/86/57 220/85/57 222/84/18
f 186/11/15 188/14/15 249/13/15 244/12/15
f 184/239/58 242/240/15 245/140/15 185/143/58
f 184/142/59 182/241/59 246/242/2 242/141/2
f 225/222/15 190/220/15 189/219/15
f 251/221/15 190/220/15 250/243/15
f 269/1/1 37/1/1 36/2/1 268/2/1
f 292/3/2 320/6/2 319/5/2 297/4/2
f 302/7/3 292/10/3 297/9/3 300/8/3
f 339/11/1 338/14/1 254/13/1 253/12/1
f 321/15/4 323/17/4 293/3/4 298/16/4
f 319/18/60 321/21/60 298/20/61 297/19/62
f 293/22/12 292/25/12 302/24/12 303/23/12
f 298/26/9 293/29/9 303/28/9 301/27/9
f 291/30/4 293/3/4 323/17/4 322/31/4
f 301/7/10 303/10/10 308/9/10 306/8/10
f 307/7/11 305/10/11 310/9/11 312/8/11
f 300/32/8 301/7/8 306/8/8 305/33/8
f 302/34/13 300/32/13 305/33/13 307/35/13
f 297/36/62 298/39/61 301/38/8 300/37/8
f 306/33/14 308/35/14 313/34/14 311/32/14
f 316/40/2 312/43/2 310/42/2 314/41/2
f 305/44/8 306/47/8 311/46/8 310/45/8
f 303/10/12 302/34/12 307/35/12 308/9/12
f 296/48/15 295/51/15 494/50/63 294/49/64
f 313/52/12 312/55/12 316/54/12 317/53/12
f 308/56/12 307/59/12 312/58/12 313/57/12
f 294/49/64 494/50/63 474/61/65 475/60/65
f 304/62/66 299/65/67 295/64/15 296/63/15
f 314/18/15 315/67/15 317/66/15 316/19/15
f 309/68/68 338/69/68 299/65/67 304/62/66
f 310/18/8 311/71/8 315/70/8 314/19/8
f 345/72/12 344/75/12 342/74/12 343/73/12
f 311/76/4 313/79/4 317/78/4 315/77/4
f 318/80/2 319/5/2 320/6/2
f 321/15/4 322/31/4 323/17/4
f 318/18/69 322/71/69 321/81/69 319/19/69
f 290/18/70 291/82/70 322/81/70 318/19/70
f 324/83/71 326/86/72 327/85/72 325/84/71
f 328/87/8 330/90/8 331/89/8 329/88/8
f 326/86/8 328/87/8 329/88/8 327/85/8
f 330/90/8 332/72/8 333/75/8 331/89/8
f 334/73/8 336/92/8 337/91/8 335/74/8
f 332/72/8 334/73/8 335/74/8 333/75/8
f 292/3/2 290/93/2 318/80/2 320/6/2
f 354/7/3 346/10/3 350/9/3 352/8/3
f 349/94/12 348/97/12 379/96/12 378/95/12
f 347/22/12 346/25/12 354/24/12 355/23/12
f 351/26/9 347/29/9 355/28/9 353/27/9
f 353/7/10 355/10/10 359/9/10 357/8/10
f 358/7/11 356/10/11 360/9/11 362/8/11
f 352/32/8 353/7/8 357/8/8 356/33/8
f 354/34/13 352/32/13 356/33/13 358/35/13
f 350/36/8 351/39/8 353/38/8 352/37/8
f 357/33/14 359/35/14 363/34/14 361/32/14
f 366/40/2 362/43/2 360/42/2 364/41/2
f 356/44/8 357/47/8 361/46/8 360/45/8
f 355/10/12 354/34/12 358/35/12 359/9/12
f 363/52/12 362/55/12 366/54/12 367/53/12
f 359/56/12 358/59/12 362/58/12 363/57/12
f 380/48/12 381/51/12 383/50/12 382/49/12
f 364/18/15 365/67/15 367/66/15 366/19/15
f 378/98/12 379/99/12 381/51/12 380/48/12
f 360/18/8 361/71/8 365/70/8 364/19/8
f 382/49/12 383/50/12 385/61/12 384/60/12
f 361/76/4 363/79/4 367/78/4 365/77/4
f 368/94/8 370/95/8 371/96/8 369/97/8
f 370/98/8 372/48/8 373/51/8 371/99/8
f 374/49/8 376/60/8 377/61/8 375/50/8
f 372/48/8 374/49/8 375/50/8 373/51/8
f 257/100/73 411/103/73 391/102/4 256/101/4
f 400/104/8 255/106/8 402/105/8
f 411/103/74 413/108/74 410/107/74 391/102/74
f 413/108/75 414/110/75 409/109/75 410/107/75
f 414/110/15 415/108/15 408/107/15 409/109/15
f 415/108/4 416/110/4 407/109/4 408/107/4
f 416/110/15 417/108/15 406/107/15 407/109/15
f 417/108/4 418/110/4 405/109/4 406/107/4
f 418/110/15 419/108/15 404/107/15 405/109/15
f 419/108/4 420/110/4 403/109/4 404/107/4
f 420/110/15 421/108/15 402/107/15 403/109/15
f 421/108/4 422/110/4 401/109/4 402/107/4
f 422/110/15 423/108/15 400/107/15 401/109/15
f 423/108/4 424/110/4 399/109/4 400/107/4
f 424/110/15 425/108/15 398/107/15 399/109/15
f 425/108/4 426/110/4 397/109/4 398/107/4
f 426/110/15 427/108/15 396/107/15 397/109/15
f 427/108/4 428/110/4 395/109/4 396/107/4
f 428/110/15 429/108/15 394/107/15 395/109/15
f 429/108/4 430/110/4 393/109/4 394/107/4
f 430/110/15 431/108/15 392/107/15 393/109/15
f 431/108/4 412/110/4 390/109/4 392/107/4
f 389/108/15 388/107/15 390/109/15 412/110/15
f 255/106/8 392/112/8 388/111/8
f 388/111/8 392/112/8 390/113/8
f 392/112/8 394/115/8 393/114/8
f 391/116/8 410/117/8 256/2/8
f 256/2/8 410/117/8 255/106/8
f 408/118/8 410/117/8 409/119/8
f 255/106/8 394/115/8 392/112/8
f 394/115/8 396/121/8 395/120/8
f 396/121/8 398/123/8 397/122/8
f 398/123/8 400/104/8 399/124/8
f 400/104/8 402/105/8 401/125/8
f 402/105/8 404/127/8 403/126/8
f 404/127/8 406/129/8 405/128/8
f 406/129/8 408/118/8 407/130/8
f 408/118/8 255/106/8 410/117/8
f 255/106/8 396/121/8 394/115/8
f 255/106/8 398/123/8 396/121/8
f 406/129/8 255/106/8 408/118/8
f 404/127/8 255/106/8 406/129/8
f 255/106/8 400/104/8 398/123/8
f 402/105/8 255/106/8 404/127/8
f 257/131/73 267/134/76 433/133/76 411/132/73
f 413/117/12 415/118/12 414/119/12
f 412/113/12 431/112/12 389/111/12
f 429/115/12 431/112/12 430/114/12
f 415/118/12 417/129/12 416/130/12
f 417/129/12 419/127/12 418/128/12
f 419/127/12 421/105/12 420/126/12
f 421/105/12 423/104/12 422/125/12
f 423/104/12 425/123/12 424/124/12
f 425/123/12 427/121/12 426/122/12
f 427/121/12 429/115/12 428/120/12
f 347/22/12 265/22/12 262/25/12 346/25/12
f 351/26/4 261/26/4 265/29/4 347/29/4
f 350/36/8 260/36/8 261/39/8 351/39/8
f 346/10/2 262/10/2 260/9/2 350/9/2
f 369/135/12 368/139/12 263/138/12 259/137/12 387/136/12
f 349/139/8 348/135/8 386/136/8 258/137/8 264/138/8
f 245/140/4 437/143/77 435/142/77 243/141/4
f 246/144/1 243/141/1 435/142/78 434/145/79
f 477/146/80 289/149/80 268/148/80 441/147/80
f 267/134/81 272/151/81 476/150/81 433/133/81
f 463/117/82 442/117/82 269/1/82 271/1/82
f 432/152/83 444/155/83 443/154/83 413/153/83
f 266/156/84 270/159/84 444/158/84 432/157/84
f 425/160/12 443/162/12 427/161/12
f 449/7/85 436/10/85 434/9/85 447/8/85
f 343/73/12 342/74/12 340/91/12 341/92/12
f 437/22/86 436/25/86 449/24/86 450/23/86
f 435/26/87 437/29/87 450/28/87 448/27/87
f 448/7/88 450/10/88 454/9/88 452/8/88
f 453/7/89 451/10/89 455/9/89 457/8/89
f 447/32/90 448/7/91 452/8/1 451/33/1
f 449/34/92 447/32/92 451/33/92 453/35/92
f 434/36/79 435/39/78 448/38/91 447/37/90
f 452/33/93 454/35/93 458/34/93 456/32/93
f 461/40/2 457/43/2 455/42/2 459/41/2
f 451/44/1 452/47/1 456/46/1 455/45/1
f 450/10/15 449/34/15 453/35/15 454/9/15
f 458/52/15 457/55/15 461/54/15 462/53/15
f 454/56/15 453/59/15 457/58/15 458/57/15
f 445/90/12 439/89/12 344/75/12 345/72/12
f 432/117/94 463/117/94 271/1/94 266/1/94
f 459/18/8 460/67/8 462/66/8 461/19/8
f 473/86/12 472/85/12 446/88/12 471/87/12
f 455/18/1 456/71/1 460/70/1 459/19/1
f 471/87/12 446/88/12 439/89/12 445/90/12
f 456/76/4 458/79/4 462/78/4 460/77/4
f 464/68/95 465/62/96 466/65/97 440/69/95
f 465/62/96 467/63/1 468/64/1 466/65/97
f 469/49/98 324/60/71 325/61/71 470/50/99
f 467/48/1 469/49/98 470/50/99 468/51/1
f 477/146/100 478/164/100 288/163/100 289/149/100
f 478/164/101 479/166/101 287/165/101 288/163/101
f 479/166/100 480/168/100 286/167/100 287/165/100
f 480/168/101 481/170/101 285/169/101 286/167/101
f 481/170/100 482/172/100 284/171/100 285/169/100
f 482/172/101 483/174/101 283/173/101 284/171/101
f 483/174/100 484/176/100 282/175/100 283/173/100
f 484/176/81 485/178/81 281/177/81 282/175/81
f 485/178/102 486/180/102 280/179/102 281/177/102
f 486/180/81 487/182/81 279/181/81 280/179/81
f 487/182/102 488/184/102 278/183/102 279/181/102
f 488/184/81 489/186/81 277/185/81 278/183/81
f 489/186/102 490/188/102 276/187/102 277/185/102
f 490/188/81 491/190/81 275/189/81 276/187/81
f 491/190/102 492/192/102 274/191/102 275/189/102
f 492/192/81 493/194/81 273/193/81 274/191/81
f 493/194/102 476/150/102 272/151/102 273/193/102
f 477/195/15 479/197/15 478/196/15
f 479/197/15 481/199/15 480/198/15
f 481/199/15 483/201/15 482/200/15
f 483/201/15 485/203/15 484/202/15
f 485/203/15 487/205/15 486/204/15
f 487/205/15 489/207/15 488/206/15
f 489/207/15 491/209/15 490/208/15
f 491/209/15 493/211/15 492/210/15
f 493/211/15 433/213/15 476/212/15
f 433/213/15 413/215/15 411/214/15
f 432/216/15 487/205/15 463/217/15
f 463/217/15 479/197/15 442/218/15
f 441/219/15 251/221/15 442/220/15
f 433/213/15 432/216/15 413/215/15
f 491/209/15 432/216/15 493/211/15
f 493/211/15 432/216/15 433/213/15
f 487/205/15 432/216/15 489/207/15
f 489/207/15 432/216/15 491/209/15
f 485/203/15 463/217/15 487/205/15
f 479/197/15 463/217/15 481/199/15
f 481/199/15 463/217/15 483/201/15
f 483/201/15 463/217/15 485/203/15
f 442/220/15 479/223/15 477/222/15
f 421/224/12 443/162/12 423/225/12
f 423/225/12 443/162/12 425/160/12
f 419/226/12 443/162/12 421/224/12
f 417/227/12 443/162/12 419/226/12
f 443/162/12 415/229/12 413/228/12
f 431/230/12 443/162/12 389/231/12
f 429/232/12 443/162/12 431/230/12
f 443/162/12 417/227/12 415/229/12
f 427/161/12 443/162/12 429/232/12
f 442/233/103 250/236/2 37/235/2 269/234/103
f 268/148/4 36/238/4 251/237/4 441/147/4
f 475/83/65 474/84/65 472/85/104 473/86/104
f 438/11/15 244/12/15 249/13/15 440/14/15
f 436/239/105 437/143/105 245/140/15 242/240/15
f 436/142/106 242/141/2 246/242/2 434/241/106
f 477/222/15 441/219/15 442/220/15
f 251/221/15 250/243/15 442/220/15
f 497/3/2 525/6/2 524/5/2 502/4/2
f 507/7/107 497/10/107 502/9/107 505/8/107
f 544/11/15 543/14/15 711/13/15 710/12/15
f 526/15/4 528/17/4 498/3/4 503/16/4
f 524/18/108 526/21/108 503/20/109 502/19/110
f 498/22/8 497/25/8 507/24/8 508/23/8
f 503/26/111 498/29/111 508/28/111 506/27/111
f 496/30/4 498/3/4 528/17/4 527/31/4
f 506/7/112 508/10/112 513/9/112 511/8/112
f 512/7/113 510/10/113 515/9/113 517/8/113
f 505/32/12 506/7/12 511/8/12 510/33/12
f 507/34/114 505/32/114 510/33/114 512/35/114
f 502/36/110 503/39/109 506/38/12 505/37/12
f 511/33/115 513/35/115 518/34/115 516/32/115
f 521/40/2 517/43/2 515/42/2 519/41/2
f 510/44/12 511/47/12 516/46/12 515/45/12
f 508/10/8 507/34/8 512/35/8 513/9/8
f 501/48/1 500/51/1 709/50/99 499/49/98
f 518/52/8 517/55/8 521/54/8 522/53/8
f 513/56/8 512/59/8 517/58/8 518/57/8
f 499/49/98 709/50/99 679/61/71 680/60/71
f 509/62/116 504/65/117 500/64/1 501/63/1
f 519/18/1 520/67/1 522/66/1 521/19/1
f 514/68/118 543/69/118 504/65/117 509/62/116
f 515/18/12 516/71/12 520/70/12 519/19/12
f 550/72/8 549/75/8 547/74/8 548/73/8
f 516/76/4 518/79/4 522/78/4 520/77/4
f 523/80/2 524/5/2 525/6/2
f 526/15/4 527/31/4 528/17/4
f 523/18/119 527/71/119 526/81/119 524/19/119
f 495/18/120 496/82/120 527/81/120 523/19/120
f 529/83/65 531/86/104 532/85/104 530/84/65
f 533/87/12 535/90/12 536/89/12 534/88/12
f 531/86/12 533/87/12 534/88/12 532/85/12
f 535/90/12 537/72/12 538/75/12 536/89/12
f 539/73/12 541/92/12 542/91/12 540/74/12
f 537/72/12 539/73/12 540/74/12 538/75/12
f 497/3/2 495/93/2 523/80/2 525/6/2
f 559/7/107 551/10/107 555/9/107 557/8/107
f 554/94/8 553/97/8 584/96/8 583/95/8
f 552/22/8 551/25/8 559/24/8 560/23/8
f 556/26/111 552/29/111 560/28/111 558/27/111
f 558/7/112 560/10/112 564/9/112 562/8/112
f 563/7/113 561/10/113 565/9/113 567/8/113
f 557/32/12 558/7/12 562/8/12 561/33/12
f 559/34/114 557/32/114 561/33/114 563/35/114
f 555/36/12 556/39/12 558/38/12 557/37/12
f 562/33/115 564/35/115 568/34/115 566/32/115
f 571/40/2 567/43/2 565/42/2 569/41/2
f 561/44/12 562/47/12 566/46/12 565/45/12
f 560/10/8 559/34/8 563/35/8 564/9/8
f 568/52/8 567/55/8 571/54/8 572/53/8
f 564/56/8 563/59/8 567/58/8 568/57/8
f 585/48/8 586/51/8 588/50/8 587/49/8
f 569/18/1 570/67/1 572/66/1 571/19/1
f 583/98/8 584/99/8 586/51/8 585/48/8
f 565/18/12 566/71/12 570/70/12 569/19/12
f 587/49/8 588/50/8 590/61/8 589/60/8
f 566/76/4 568/79/4 572/78/4 570/77/4
f 573/94/12 575/95/12 576/96/12 574/97/12
f 575/98/12 577/48/12 578/51/12 576/99/12
f 579/49/12 581/60/12 582/61/12 580/50/12
f 577/48/12 579/49/12 580/50/12 578/51/12
f 3/100/26 616/103/26 596/102/4 2/101/4
f 605/104/12 1/106/12 607/105/12
f 616/103/121 618/108/121 615/107/121 596/102/121
f 618/108/122 619/110/122 614/109/122 615/107/122
f 619/110/1 620/108/1 613/107/1 614/109/1
f 620/108/4 621/110/4 612/109/4 613/107/4
f 621/110/1 622/108/1 611/107/1 612/109/1
f 622/108/4 623/110/4 610/109/4 611/107/4
f 623/110/1 624/108/1 609/107/1 610/109/1
f 624/108/4 625/110/4 608/109/4 609/107/4
f 625/110/1 626/108/1 607/107/1 608/109/1
f 626/108/4 627/110/4 606/109/4 607/107/4
f 627/110/1 628/108/1 605/107/1 606/109/1
f 628/108/4 629/110/4 604/109/4 605/107/4
f 629/110/1 630/108/1 603/107/1 604/109/1
f 630/108/4 631/110/4 602/109/4 603/107/4
f 631/110/1 632/108/1 601/107/1 602/109/1
f 632/108/4 633/110/4 600/109/4 601/107/4
f 633/110/1 634/108/1 599/107/1 600/109/1
f 634/108/4 635/110/4 598/109/4 599/107/4
f 635/110/1 636/108/1 597/107/1 598/109/1
f 636/108/4 617/110/4 595/109/4 597/107/4
f 594/108/1 593/107/1 595/109/1 617/110/1
f 1/106/12 597/112/12 593/111/12
f 593/111/12 597/112/12 595/113/12
f 597/112/12 599/115/12 598/114/12
f 596/116/12 615/117/12 2/2/12
f 2/2/12 615/117/12 1/106/12
f 613/118/12 615/117/12 614/119/12
f 1/106/12 599/115/12 597/112/12
f 599/115/12 601/121/12 600/120/12
f 601/121/12 603/123/12 602/122/12
f 603/123/12 605/104/12 604/124/12
f 605/104/12 607/105/12 606/125/12
f 607/105/12 609/127/12 608/126/12
f 609/127/12 611/129/12 610/128/12
f 611/129/12 613/118/12 612/130/12
f 613/118/12 1/106/12 615/117/12
f 1/106/12 601/121/12 599/115/12
f 1/106/12 603/123/12 601/121/12
f 611/129/12 1/106/12 613/118/12
f 609/127/12 1/106/12 611/129/12
f 1/106/12 605/104/12 603/123/12
f 607/105/12 1/106/12 609/127/12
f 3/131/26 13/134/29 638/133/29 616/132/26
f 618/117/8 620/118/8 619/119/8
f 617/113/8 636/112/8 594/111/8
f 634/115/8 636/112/8 635/114/8
f 620/118/8 622/129/8 621/130/8
f 622/129/8 624/127/8 623/128/8
f 624/127/8 626/105/8 625/126/8
f 626/105/8 628/104/8 627/125/8
f 628/104/8 630/123/8 629/124/8
f 630/123/8 632/121/8 631/122/8
f 632/121/8 634/115/8 633/120/8
f 552/22/8 11/22/8 8/25/8 551/25/8
f 556/26/4 7/26/4 11/29/4 552/29/4
f 555/36/12 6/36/12 7/39/12 556/39/12
f 551/10/2 8/10/2 6/9/2 555/9/2
f 574/135/8 573/139/8 9/138/8 5/137/8 592/136/8
f 554/139/12 553/135/12 591/136/12 4/137/12 10/138/12
f 702/140/4 642/143/30 640/142/30 700/141/4
f 703/144/15 700/141/15 640/142/123 639/145/124
f 682/146/33 35/149/33 14/148/33 646/147/33
f 13/134/34 18/151/34 681/150/34 638/133/34
f 668/117/35 647/117/35 15/1/35 17/1/35
f 637/152/125 649/155/125 648/154/125 618/153/125
f 12/156/37 16/159/37 649/158/37 637/157/37
f 630/160/8 648/162/8 632/161/8
f 654/7/126 641/10/126 639/9/126 652/8/126
f 548/73/8 547/74/8 545/91/8 546/92/8
f 642/22/127 641/25/127 654/24/127 655/23/127
f 640/26/128 642/29/128 655/28/128 653/27/128
f 653/7/41 655/10/41 659/9/41 657/8/41
f 658/7/42 656/10/42 660/9/42 662/8/42
f 652/32/129 653/7/130 657/8/15 656/33/15
f 654/34/45 652/32/45 656/33/45 658/35/45
f 639/36/124 640/39/123 653/38/130 652/37/129
f 657/33/46 659/35/46 663/34/46 661/32/46
f 666/40/2 662/43/2 660/42/2 664/41/2
f 656/44/15 657/47/15 661/46/15 660/45/15
f 655/10/1 654/34/1 658/35/1 659/9/1
f 663/52/1 662/55/1 666/54/1 667/53/1
f 659/56/1 658/59/1 662/58/1 663/57/1
f 650/90/8 644/89/8 549/75/8 550/72/8
f 637/117/47 668/117/47 17/1/47 12/1/47
f 664/18/12 665/67/12 667/66/12 666/19/12
f 678/86/8 677/85/8 651/88/8 676/87/8
f 660/18/15 661/71/15 665/70/15 664/19/15
f 676/87/8 651/88/8 644/89/8 650/90/8
f 661/76/4 663/79/4 667/78/4 665/77/4
f 669/68/131 670/62/132 671/65/133 645/69/131
f 670/62/132 672/63/15 673/64/15 671/65/133
f 674/49/64 529/60/65 530/61/65 675/50/63
f 672/48/15 674/49/64 675/50/63 673/51/15
f 682/146/53 683/164/53 34/163/53 35/149/53
f 683/164/54 684/166/54 33/165/54 34/163/54
f 684/166/53 685/168/53 32/167/53 33/165/53
f 685/168/54 686/170/54 31/169/54 32/167/54
f 686/170/53 687/172/53 30/171/53 31/169/53
f 687/172/54 688/174/54 29/173/54 30/171/54
f 688/174/53 689/176/53 28/175/53 29/173/53
f 689/176/34 690/178/34 27/177/34 28/175/34
f 690/178/55 691/180/55 26/179/55 27/177/55
f 691/180/34 692/182/34 25/181/34 26/179/34
f 692/182/55 693/184/55 24/183/55 25/181/55
f 693/184/34 694/186/34 23/185/34 24/183/34
f 694/186/55 695/188/55 22/187/55 23/185/55
f 695/188/34 696/190/34 21/189/34 22/187/34
f 696/190/55 697/192/55 20/191/55 21/189/55
f 697/192/34 698/194/34 19/193/34 20/191/34
f 698/194/55 681/150/55 18/151/55 19/193/55
f 682/195/1 684/197/1 683/196/1
f 684/197/1 686/199/1 685/198/1
f 686/199/1 688/201/1 687/200/1
f 688/201/1 690/203/1 689/202/1
f 690/203/1 692/205/1 691/204/1
f 692/205/1 694/207/1 693/206/1
f 694/207/1 696/209/1 695/208/1
f 696/209/1 698/211/1 697/210/1
f 698/211/1 638/213/1 681/212/1
f 638/213/1 618/215/1 616/214/1
f 637/216/1 692/205/1 668/217/1
f 668/217/1 684/197/1 647/218/1
f 646/219/1 708/221/1 647/220/1
f 638/213/1 637/216/1 618/215/1
f 696/209/1 637/216/1 698/211/1
f 698/211/1 637/216/1 638/213/1
f 692/205/1 637/216/1 694/207/1
f 694/207/1 637/216/1 696/209/1
f 690/203/1 668/217/1 692/205/1
f 684/197/1 668/217/1 686/199/1
f 686/199/1 668/217/1 688/201/1
f 688/201/1 668/217/1 690/203/1
f 647/220/1 684/223/1 682/222/1
f 626/224/8 648/162/8 628/225/8
f 628/225/8 648/162/8 630/160/8
f 624/226/8 648/162/8 626/224/8
f 622/227/8 648/162/8 624/226/8
f 648/162/8 620/229/8 618/228/8
f 636/230/8 648/162/8 594/231/8
f 634/232/8 648/162/8 636/230/8
f 648/162/8 622/227/8 620/229/8
f 632/161/8 648/162/8 634/232/8
f 647/233/56 707/236/2 37/235/2 15/234/56
f 14/148/4 36/238/4 708/237/4 646/147/4
f 680/83/71 679/84/71 677/85/72 678/86/72
f 643/11/1 701/12/1 706/13/1 645/14/1
f 641/239/134 642/143/134 702/140/1 699/240/1
f 641/142/59 699/141/2 703/242/2 639/241/59
f 682/222/1 646/219/1 647/220/1
f 708/221/1 707/243/1 647/220/1
f 714/3/2 719/4/2 741/5/2 742/6/2
f 724/7/107 722/8/107 719/9/107 714/10/107
f 761/11/15 710/12/15 711/13/15 760/14/15
f 743/15/4 720/16/4 715/3/4 745/17/4
f 741/18/135 719/19/136 720/20/137 743/21/135
f 715/22/12 725/23/12 724/24/12 714/25/12
f 720/26/111 723/27/111 725/28/111 715/29/111
f 713/30/4 744/31/4 745/17/4 715/3/4
f 723/7/112 728/8/112 730/9/112 725/10/112
f 729/7/113 734/8/113 732/9/113 727/10/113
f 722/32/8 727/33/8 728/8/8 723/7/8
f 724/34/114 729/35/114 727/33/114 722/32/114
f 719/36/136 722/37/8 723/38/8 720/39/137
f 728/33/115 733/32/115 735/34/115 730/35/115
f 738/40/2 736/41/2 732/42/2 734/43/2
f 727/44/8 732/45/8 733/46/8 728/47/8
f 725/10/12 730/9/12 729/35/12 724/34/12
f 718/48/1 716/49/51 916/50/52 717/51/1
f 735/52/12 739/53/12 738/54/12 734/55/12
f 730/56/12 735/57/12 734/58/12 729/59/12
f 716/49/51 897/60/24 896/61/24 916/50/52
f 726/62/138 718/63/1 717/64/1 721/65/139
f 736/18/1 738/19/1 739/66/1 737/67/1
f 731/68/140 726/62/138 721/65/139 760/69/140
f 732/18/8 736/19/8 737/70/8 733/71/8
f 767/72/12 765/73/12 764/74/12 766/75/12
f 733/76/4 737/77/4 739/78/4 735/79/4
f 740/80/2 742/6/2 741/5/2
f 743/15/4 745/17/4 744/31/4
f 740/18/141 741/19/141 743/81/141 744/71/141
f 712/18/142 740/19/142 744/81/142 713/82/142
f 746/83/18 747/84/18 749/85/57 748/86/57
f 750/87/8 751/88/8 753/89/8 752/90/8
f 748/86/8 749/85/8 751/88/8 750/87/8
f 752/90/8 753/89/8 755/75/8 754/72/8
f 756/73/8 757/74/8 759/91/8 758/92/8
f 754/72/8 755/75/8 757/74/8 756/73/8
f 714/3/2 742/6/2 740/80/2 712/93/2
f 776/7/107 774/8/107 772/9/107 768/10/107
f 771/94/12 800/95/12 801/96/12 770/97/12
f 769/22/12 777/23/12 776/24/12 768/25/12
f 773/26/111 775/27/111 777/28/111 769/29/111
f 775/7/112 779/8/112 781/9/112 777/10/112
f 780/7/113 784/8/113 782/9/113 778/10/113
f 774/32/8 778/33/8 779/8/8 775/7/8
f 776/34/114 780/35/114 778/33/114 774/32/114
f 772/36/8 774/37/8 775/38/8 773/39/8
f 779/33/115 783/32/115 785/34/115 781/35/115
f 788/40/2 786/41/2 782/42/2 784/43/2
f 778/44/8 782/45/8 783/46/8 779/47/8
f 777/10/12 781/9/12 780/35/12 776/34/12
f 785/52/12 789/53/12 788/54/12 784/55/12
f 781/56/12 785/57/12 784/58/12 780/59/12
f 802/48/12 804/49/12 805/50/12 803/51/12
f 786/18/1 788/19/1 789/66/1 787/67/1
f 800/98/12 802/48/12 803/51/12 801/99/12
f 782/18/8 786/19/8 787/70/8 783/71/8
f 804/49/12 806/60/12 807/61/12 805/50/12
f 783/76/4 787/77/4 789/78/4 785/79/4
f 790/94/8 791/97/8 793/96/8 792/95/8
f 792/98/8 793/99/8 795/51/8 794/48/8
f 796/49/8 797/50/8 799/61/8 798/60/8
f 794/48/8 795/51/8 797/50/8 796/49/8
f 257/100/73 256/101/4 813/102/4 833/103/73
f 822/104/8 824/105/8 255/106/8
f 833/103/143 813/102/143 832/107/143 835/108/143
f 835/108/144 832/107/144 831/109/144 836/110/144
f 836/110/1 831/109/1 830/107/1 837/108/1
f 837/108/4 830/107/4 829/109/4 838/110/4
f 838/110/1 829/109/1 828/107/1 839/108/1
f 839/108/4 828/107/4 827/109/4 840/110/4
f 840/110/1 827/109/1 826/107/1 841/108/1
f 841/108/4 826/107/4 825/109/4 842/110/4
f 842/110/1 825/109/1 824/107/1 843/108/1
f 843/108/4 824/107/4 823/109/4 844/110/4
f 844/110/1 823/109/1 822/107/1 845/108/1
f 845/108/4 822/107/4 821/109/4 846/110/4
f 846/110/1 821/109/1 820/107/1 847/108/1
f 847/108/4 820/107/4 819/109/4 848/110/4
f 848/110/1 819/109/1 818/107/1 849/108/1
f 849/108/4 818/107/4 817/109/4 850/110/4
f 850/110/1 817/109/1 816/107/1 851/108/1
f 851/108/4 816/107/4 815/109/4 852/110/4
f 852/110/1 815/109/1 814/107/1 853/108/1
f 853/108/4 814/107/4 812/109/4 834/110/4
f 811/108/1 834/110/1 812/109/1 810/107/1
f 255/106/8 810/111/8 814/112/8
f 810/111/8 812/113/8 814/112/8
f 814/112/8 815/114/8 816/115/8
f 813/116/8 256/2/8 832/117/8
f 256/2/8 255/106/8 832/117/8
f 830/118/8 831/119/8 832/117/8
f 255/106/8 814/112/8 816/115/8
f 816/115/8 817/120/8 818/121/8
f 818/121/8 819/122/8 820/123/8
f 820/123/8 821/124/8 822/104/8
f 822/104/8 823/125/8 824/105/8
f 824/105/8 825/126/8 826/127/8
f 826/127/8 827/128/8 828/129/8
f 828/129/8 829/130/8 830/118/8
f 830/118/8 832/117/8 255/106/8
f 255/106/8 816/115/8 818/121/8
f 255/106/8 818/121/8 820/123/8
f 828/129/8 830/118/8 255/106/8
f 826/127/8 828/129/8 255/106/8
f 255/106/8 820/123/8 822/104/8
f 824/105/8 826/127/8 255/106/8
f 257/131/73 833/132/73 855/133/76 267/134/76
f 835/117/12 836/119/12 837/118/12
f 834/113/12 811/111/12 853/112/12
f 851/115/12 852/114/12 853/112/12
f 837/118/12 838/130/12 839/129/12
f 839/129/12 840/128/12 841/127/12
f 841/127/12 842/126/12 843/105/12
f 843/105/12 844/125/12 845/104/12
f 845/104/12 846/124/12 847/123/12
f 847/123/12 848/122/12 849/121/12
f 849/121/12 850/120/12 851/115/12
f 769/22/12 768/25/12 262/25/12 265/22/12
f 773/26/4 769/29/4 265/29/4 261/26/4
f 772/36/8 773/39/8 261/39/8 260/36/8
f 768/10/2 772/9/2 260/9/2 262/10/2
f 791/135/12 809/136/12 259/137/12 263/138/12 790/139/12
f 771/139/8 264/138/8 258/137/8 808/136/8 770/135/8
f 702/140/4 700/141/4 857/142/77 859/143/77
f 703/144/15 856/145/145 857/142/146 700/141/15
f 899/146/80 863/147/80 268/148/80 289/149/80
f 267/134/81 855/133/81 898/150/81 272/151/81
f 885/117/82 271/1/82 269/1/82 864/117/82
f 854/152/147 835/153/147 865/154/147 866/155/147
f 266/156/84 854/157/84 866/158/84 270/159/84
f 847/160/12 849/161/12 865/162/12
f 871/7/148 869/8/148 856/9/148 858/10/148
f 765/73/12 763/92/12 762/91/12 764/74/12
f 859/22/149 872/23/149 871/24/149 858/25/149
f 857/26/150 870/27/150 872/28/150 859/29/150
f 870/7/88 874/8/88 876/9/88 872/10/88
f 875/7/89 879/8/89 877/9/89 873/10/89
f 869/32/151 873/33/15 874/8/15 870/7/152
f 871/34/92 875/35/92 873/33/92 869/32/92
f 856/36/145 869/37/151 870/38/152 857/39/146
f 874/33/93 878/32/93 880/34/93 876/35/93
f 883/40/2 881/41/2 877/42/2 879/43/2
f 873/44/15 877/45/15 878/46/15 874/47/15
f 872/10/1 876/9/1 875/35/1 871/34/1
f 880/52/1 884/53/1 883/54/1 879/55/1
f 876/56/1 880/57/1 879/58/1 875/59/1
f 867/90/12 767/72/12 766/75/12 861/89/12
f 854/117/94 266/1/94 271/1/94 885/117/94
f 881/18/8 883/19/8 884/66/8 882/67/8
f 895/86/12 893/87/12 868/88/12 894/85/12
f 877/18/15 881/19/15 882/70/15 878/71/15
f 893/87/12 867/90/12 861/89/12 868/88/12
f 878/76/4 882/77/4 884/78/4 880/79/4
f 886/68/153 862/69/153 888/65/154 887/62/155
f 887/62/155 888/65/154 890/64/15 889/63/15
f 891/49/16 892/50/17 747/61/18 746/60/18
f 889/48/15 890/51/15 892/50/17 891/49/16
f 899/146/100 289/149/100 288/163/100 900/164/100
f 900/164/101 288/163/101 287/165/101 901/166/101
f 901/166/100 287/165/100 286/167/100 902/168/100
f 902/168/101 286/167/101 285/169/101 903/170/101
f 903/170/100 285/169/100 284/171/100 904/172/100
f 904/172/101 284/171/101 283/173/101 905/174/101
f 905/174/100 283/173/100 282/175/100 906/176/100
f 906/176/81 282/175/81 281/177/81 907/178/81
f 907/178/102 281/177/102 280/179/102 908/180/102
f 908/180/81 280/179/81 279/181/81 909/182/81
f 909/182/102 279/181/102 278/183/102 910/184/102
f 910/184/81 278/183/81 277/185/81 911/186/81
f 911/186/102 277/185/102 276/187/102 912/188/102
f 912/188/81 276/187/81 275/189/81 913/190/81
f 913/190/102 275/189/102 274/191/102 914/192/102
f 914/192/81 274/191/81 273/193/81 915/194/81
f 915/194/102 273/193/102 272/151/102 898/150/102
f 899/195/1 900/196/1 901/197/1
f 901/197/1 902/198/1 903/199/1
f 903/199/1 904/200/1 905/201/1
f 905/201/1 906/202/1 907/203/1
f 907/203/1 908/204/1 909/205/1
f 909/205/1 910/206/1 911/207/1
f 911/207/1 912/208/1 913/209/1
f 913/209/1 914/210/1 915/211/1
f 915/211/1 898/212/1 855/213/1
f 855/213/1 833/214/1 835/215/1
f 854/216/1 885/217/1 909/205/1
f 885/217/1 864/218/1 901/197/1
f 863/219/1 864/220/1 708/221/1
f 855/213/1 835/215/1 854/216/1
f 913/209/1 915/211/1 854/216/1
f 915/211/1 855/213/1 854/216/1
f 909/205/1 911/207/1 854/216/1
f 911/207/1 913/209/1 854/216/1
f 907/203/1 909/205/1 885/217/1
f 901/197/1 903/199/1 885/217/1
f 903/199/1 905/201/1 885/217/1
f 905/201/1 907/203/1 885/217/1
f 864/220/1 899/222/1 901/223/1
f 843/224/12 845/225/12 865/162/12
f 845/225/12 847/160/12 865/162/12
f 841/226/12 843/224/12 865/162/12
f 839/227/12 841/226/12 865/162/12
f 865/162/12 835/228/12 837/229/12
f 853/230/12 811/231/12 865/162/12
f 851/232/12 853/230/12 865/162/12
f 865/162/12 837/229/12 839/227/12
f 849/161/12 851/232/12 865/162/12
f 864/233/103 269/234/103 37/235/2 707/236/2
f 268/148/4 863/147/4 708/237/4 36/238/4
f 897/83/24 895/86/25 894/85/25 896/84/24
f 860/11/1 862/14/1 706/13/1 701/12/1
f 858/239/156 699/240/1 702/140/1 859/143/156
f 858/142/106 856/241/106 703/242/2 699/141/2
f 899/222/1 864/220/1 863/219/1
f 708/221/1 864/220/1 707/243/1
l 247 248
l 704 705
