# Blender 4.4.3
# www.blender.org
o SM_2D-Normal_PedestrainBridge_V1.0
v -7.800000 4.901240 1.281723
v -7.800000 4.998760 1.281723
v -7.799842 4.901240 1.683699
v -7.799842 4.998760 1.683699
v -8.000001 4.001240 1.701680
v -7.800000 4.901240 1.481681
v -8.000001 4.901240 1.683699
v -8.200158 4.901240 1.683700
v -8.200158 4.998760 1.683700
v -8.000000 4.001240 1.481681
v -8.200158 4.801240 1.901680
v -8.200158 4.898760 1.901680
v -7.799842 4.801240 1.901680
v -7.799842 4.898760 1.901680
v -8.000000 4.901240 1.481681
v -8.200158 1.001240 5.301681
v -8.200158 1.098760 5.301681
v -7.799842 1.001240 5.301680
v -7.799842 1.098760 5.301680
v -7.800000 4.001240 1.481681
v -8.200158 0.901240 5.501681
v -8.200158 0.998760 5.501681
v -7.799842 0.901240 5.501680
v -7.799842 0.998760 5.501680
v -8.200158 0.901240 6.501681
v -8.200158 0.998760 6.501681
v -7.799842 0.901240 6.501680
v -7.799842 0.998760 6.501680
v -8.002193 4.901240 1.280601
v -8.201180 4.901240 1.479487
v -8.060769 4.901240 1.420912
v -8.201180 4.998760 1.479487
v -8.002193 4.998760 1.280601
v -8.060769 4.998760 1.420912
v -7.800000 4.901240 1.481681
v -7.800000 4.001240 1.481681
v -8.000000 4.901240 1.481681
v -8.000000 4.001240 1.481681
v -8.000001 4.901240 1.683699
v -8.000001 4.001240 1.701680
v -8.000001 4.801240 1.901680
v -8.000001 3.801240 1.901680
v -8.000001 1.001240 5.301680
v -8.000001 0.001240 5.301680
v -8.000001 0.901240 5.501680
v -8.000001 0.001240 5.501680
v -8.000001 0.901240 6.501680
v -8.000001 0.001240 6.501680
v -8.000001 4.801240 1.901680
v -8.000001 3.801240 1.901680
v -8.000001 1.001240 5.301680
v -8.000001 0.001240 5.301680
v -8.000001 0.901240 5.501680
v -8.000001 0.001240 5.501680
v -8.000001 0.901240 6.501680
v -8.000001 0.001240 6.501680
v 0.000000 4.901240 1.682669
v 0.000000 4.998760 1.682669
v 0.000000 4.901240 1.281723
v 0.000000 4.998760 1.281723
v 0.000000 4.901240 1.481681
v 0.000000 4.001240 1.481681
v 0.000000 4.901240 1.481681
v 0.000000 4.001240 1.481681
v -10.799842 4.901240 1.683699
v -10.799842 4.998760 1.683699
v -11.000001 4.001240 1.701680
v -11.000001 4.901240 1.683699
v -11.200158 4.901240 1.683700
v -11.200158 4.998760 1.683700
v -11.200158 4.801240 1.901680
v -11.200158 4.898760 1.901680
v -10.799842 4.801240 1.901680
v -10.799842 4.898760 1.901680
v -11.200158 1.001240 5.301681
v -11.200158 1.098760 5.301681
v -10.799842 1.001240 5.301680
v -10.799842 1.098760 5.301680
v -11.200158 0.901240 5.501681
v -11.200158 0.998760 5.501681
v -10.799842 0.901240 5.501680
v -10.799842 0.998760 5.501680
v -11.200158 0.901240 6.501681
v -11.200158 0.998760 6.501681
v -10.799842 0.901240 6.501680
v -10.799842 0.998760 6.501680
v -11.000001 4.901240 1.683699
v -11.000001 4.001240 1.701680
v -11.000001 4.801240 1.901680
v -11.000001 3.801240 1.901680
v -11.000001 1.001240 5.301680
v -11.000001 0.001240 5.301680
v -11.000001 0.901240 5.501680
v -11.000001 0.001240 5.501680
v -11.000001 0.901240 6.501680
v -11.000001 0.001240 6.501680
v -11.000001 4.801240 1.901680
v -11.000001 3.801240 1.901680
v -11.000001 1.001240 5.301680
v -11.000001 0.001240 5.301680
v -11.000001 0.901240 5.501680
v -11.000001 0.001240 5.501680
v -11.000001 0.901240 6.501680
v -11.000001 0.001240 6.501680
v -11.000001 4.001240 0.001680
v -11.000001 4.001240 0.001680
v -11.109630 0.000000 5.500000
v -11.109630 0.000000 0.000000
v -11.109630 4.000000 0.000000
v -7.890369 0.000000 5.500000
v -7.890369 0.000000 0.000000
v -7.890369 4.000000 0.000000
v -11.109630 0.250000 5.500000
v -11.109630 4.000000 1.750000
v -11.109630 0.250000 5.125000
v -11.109630 0.625000 5.125000
v -11.109630 0.625000 4.750000
v -11.109630 1.000000 4.750000
v -11.109630 1.000000 4.375000
v -11.109630 1.375000 4.375000
v -11.109630 1.375000 4.000000
v -11.109630 1.750000 4.000000
v -11.109630 1.750000 3.625000
v -11.109630 2.125000 3.625000
v -11.109630 2.125000 3.250000
v -11.109630 2.500000 3.250000
v -11.109630 2.500000 2.875000
v -11.109630 2.875000 2.875000
v -11.109630 2.875000 2.500000
v -11.109630 3.250000 2.500000
v -11.109630 3.250000 2.125000
v -11.109630 3.625000 2.125000
v -11.109630 3.625000 1.750000
v -7.890369 4.000000 1.750000
v -7.890369 0.250000 5.500000
v -7.890369 3.725000 1.750000
v -7.890369 3.625000 2.125000
v -7.890369 3.250000 2.125000
v -7.890369 3.250000 2.500000
v -7.890369 2.875000 2.500000
v -7.890369 2.875000 2.875000
v -7.890369 2.500000 2.875000
v -7.890369 2.500000 3.250000
v -7.890369 2.125000 3.250000
v -7.890369 2.125000 3.625000
v -7.890369 1.750000 3.625000
v -7.890369 1.750000 4.000000
v -7.890369 1.375000 4.000000
v -7.890369 1.375000 4.375000
v -7.890369 1.000000 4.375000
v -7.890369 1.000000 4.750000
v -7.890369 0.625000 4.750000
v -7.890369 0.625000 5.125000
v -7.890369 0.250000 5.125000
v -11.000001 4.085313 0.000000
v -11.000001 4.085313 0.000000
v -11.200158 4.901240 0.000000
v -11.200158 4.998760 0.000000
v -10.799842 4.901240 0.000000
v -11.000001 4.901240 0.000000
v -11.000001 4.901240 0.000000
v -10.799842 4.998760 0.000000
v -7.890369 3.725000 0.000000
v 0.000000 3.725000 1.750000
v 0.000000 4.000000 1.750000
v 0.000000 4.000000 0.000000
v 0.000000 3.725000 0.000000
v 7.800000 4.901240 1.281723
v 7.800000 4.998760 1.281723
v 7.799842 4.901240 1.683699
v 7.799842 4.998760 1.683699
v 8.000001 4.001240 1.701680
v 7.800000 4.901240 1.481681
v 8.000001 4.901240 1.683699
v 8.200158 4.901240 1.683700
v 8.200158 4.998760 1.683700
v 8.000000 4.001240 1.481681
v 8.200158 4.801240 1.901680
v 8.200158 4.898760 1.901680
v 7.799842 4.801240 1.901680
v 7.799842 4.898760 1.901680
v 8.000000 4.901240 1.481681
v 8.200158 1.001240 5.301681
v 8.200158 1.098760 5.301681
v 7.799842 1.001240 5.301680
v 7.799842 1.098760 5.301680
v 7.800000 4.001240 1.481681
v 8.200158 0.901240 5.501681
v 8.200158 0.998760 5.501681
v 7.799842 0.901240 5.501680
v 7.799842 0.998760 5.501680
v 8.200158 0.901240 6.501681
v 8.200158 0.998760 6.501681
v 7.799842 0.901240 6.501680
v 7.799842 0.998760 6.501680
v 8.002193 4.901240 1.280601
v 8.201180 4.901240 1.479487
v 8.060769 4.901240 1.420912
v 8.201180 4.998760 1.479487
v 8.002193 4.998760 1.280601
v 8.060769 4.998760 1.420912
v 7.800000 4.901240 1.481681
v 7.800000 4.001240 1.481681
v 8.000000 4.901240 1.481681
v 8.000000 4.001240 1.481681
v 8.000001 4.901240 1.683699
v 8.000001 4.001240 1.701680
v 8.000001 4.801240 1.901680
v 8.000001 3.801240 1.901680
v 8.000001 1.001240 5.301680
v 8.000001 0.001240 5.301680
v 8.000001 0.901240 5.501680
v 8.000001 0.001240 5.501680
v 8.000001 0.901240 6.501680
v 8.000001 0.001240 6.501680
v 8.000001 4.801240 1.901680
v 8.000001 3.801240 1.901680
v 8.000001 1.001240 5.301680
v 8.000001 0.001240 5.301680
v 8.000001 0.901240 5.501680
v 8.000001 0.001240 5.501680
v 8.000001 0.901240 6.501680
v 8.000001 0.001240 6.501680
v 10.799842 4.901240 1.683699
v 10.799842 4.998760 1.683699
v 11.000001 4.001240 1.701680
v 11.000001 4.901240 1.683699
v 11.200158 4.901240 1.683700
v 11.200158 4.998760 1.683700
v 11.200158 4.801240 1.901680
v 11.200158 4.898760 1.901680
v 10.799842 4.801240 1.901680
v 10.799842 4.898760 1.901680
v 11.200158 1.001240 5.301681
v 11.200158 1.098760 5.301681
v 10.799842 1.001240 5.301680
v 10.799842 1.098760 5.301680
v 11.200158 0.901240 5.501681
v 11.200158 0.998760 5.501681
v 10.799842 0.901240 5.501680
v 10.799842 0.998760 5.501680
v 11.200158 0.901240 6.501681
v 11.200158 0.998760 6.501681
v 10.799842 0.901240 6.501680
v 10.799842 0.998760 6.501680
v 11.000001 4.901240 1.683699
v 11.000001 4.001240 1.701680
v 11.000001 4.801240 1.901680
v 11.000001 3.801240 1.901680
v 11.000001 1.001240 5.301680
v 11.000001 0.001240 5.301680
v 11.000001 0.901240 5.501680
v 11.000001 0.001240 5.501680
v 11.000001 0.901240 6.501680
v 11.000001 0.001240 6.501680
v 11.000001 4.801240 1.901680
v 11.000001 3.801240 1.901680
v 11.000001 1.001240 5.301680
v 11.000001 0.001240 5.301680
v 11.000001 0.901240 5.501680
v 11.000001 0.001240 5.501680
v 11.000001 0.901240 6.501680
v 11.000001 0.001240 6.501680
v 11.000001 4.001240 0.001680
v 11.000001 4.001240 0.001680
v 11.109630 0.000000 5.500000
v 11.109630 0.000000 0.000000
v 11.109630 4.000000 0.000000
v 7.890369 0.000000 5.500000
v 7.890369 0.000000 0.000000
v 7.890369 4.000000 0.000000
v 11.109630 0.250000 5.500000
v 11.109630 4.000000 1.750000
v 11.109630 0.250000 5.125000
v 11.109630 0.625000 5.125000
v 11.109630 0.625000 4.750000
v 11.109630 1.000000 4.750000
v 11.109630 1.000000 4.375000
v 11.109630 1.375000 4.375000
v 11.109630 1.375000 4.000000
v 11.109630 1.750000 4.000000
v 11.109630 1.750000 3.625000
v 11.109630 2.125000 3.625000
v 11.109630 2.125000 3.250000
v 11.109630 2.500000 3.250000
v 11.109630 2.500000 2.875000
v 11.109630 2.875000 2.875000
v 11.109630 2.875000 2.500000
v 11.109630 3.250000 2.500000
v 11.109630 3.250000 2.125000
v 11.109630 3.625000 2.125000
v 11.109630 3.625000 1.750000
v 7.890369 4.000000 1.750000
v 7.890369 0.250000 5.500000
v 7.890369 3.725000 1.750000
v 7.890369 3.625000 2.125000
v 7.890369 3.250000 2.125000
v 7.890369 3.250000 2.500000
v 7.890369 2.875000 2.500000
v 7.890369 2.875000 2.875000
v 7.890369 2.500000 2.875000
v 7.890369 2.500000 3.250000
v 7.890369 2.125000 3.250000
v 7.890369 2.125000 3.625000
v 7.890369 1.750000 3.625000
v 7.890369 1.750000 4.000000
v 7.890369 1.375000 4.000000
v 7.890369 1.375000 4.375000
v 7.890369 1.000000 4.375000
v 7.890369 1.000000 4.750000
v 7.890369 0.625000 4.750000
v 7.890369 0.625000 5.125000
v 7.890369 0.250000 5.125000
v 11.000001 4.085313 0.000000
v 11.000001 4.085313 0.000000
v 11.200158 4.901240 0.000000
v 11.200158 4.998760 0.000000
v 10.799842 4.901240 0.000000
v 11.000001 4.901240 0.000000
v 11.000001 4.901240 0.000000
v 10.799842 4.998760 0.000000
v 7.890369 3.725000 0.000000
v -7.800000 4.901240 -1.281723
v -7.800000 4.998760 -1.281723
v -7.799842 4.901240 -1.683699
v -7.799842 4.998760 -1.683699
v -8.000001 4.001240 -1.701680
v -7.800000 4.901240 -1.481681
v -8.000001 4.901240 -1.683699
v -8.200158 4.901240 -1.683700
v -8.200158 4.998760 -1.683700
v -8.000000 4.001240 -1.481681
v -8.200158 4.801240 -1.901680
v -8.200158 4.898760 -1.901680
v -7.799842 4.801240 -1.901680
v -7.799842 4.898760 -1.901680
v -8.000000 4.901240 -1.481681
v -8.200158 1.001240 -5.301681
v -8.200158 1.098760 -5.301681
v -7.799842 1.001240 -5.301680
v -7.799842 1.098760 -5.301680
v -7.800000 4.001240 -1.481681
v -8.200158 0.901240 -5.501681
v -8.200158 0.998760 -5.501681
v -7.799842 0.901240 -5.501680
v -7.799842 0.998760 -5.501680
v -8.200158 0.901240 -6.501681
v -8.200158 0.998760 -6.501681
v -7.799842 0.901240 -6.501680
v -7.799842 0.998760 -6.501680
v -8.002193 4.901240 -1.280601
v -8.201180 4.901240 -1.479487
v -8.060769 4.901240 -1.420912
v -8.201180 4.998760 -1.479487
v -8.002193 4.998760 -1.280601
v -8.060769 4.998760 -1.420912
v -7.800000 4.901240 -1.481681
v -7.800000 4.001240 -1.481681
v -8.000000 4.901240 -1.481681
v -8.000000 4.001240 -1.481681
v -8.000001 4.901240 -1.683699
v -8.000001 4.001240 -1.701680
v -8.000001 4.801240 -1.901680
v -8.000001 3.801240 -1.901680
v -8.000001 1.001240 -5.301680
v -8.000001 0.001240 -5.301680
v -8.000001 0.901240 -5.501680
v -8.000001 0.001240 -5.501680
v -8.000001 0.901240 -6.501680
v -8.000001 0.001240 -6.501680
v -8.000001 4.801240 -1.901680
v -8.000001 3.801240 -1.901680
v -8.000001 1.001240 -5.301680
v -8.000001 0.001240 -5.301680
v -8.000001 0.901240 -5.501680
v -8.000001 0.001240 -5.501680
v -8.000001 0.901240 -6.501680
v -8.000001 0.001240 -6.501680
v 0.000000 4.901240 -1.682669
v 0.000000 4.998760 -1.682669
v 0.000000 4.901240 -1.281723
v 0.000000 4.998760 -1.281723
v 0.000000 4.901240 -1.481681
v 0.000000 4.001240 -1.481681
v 0.000000 4.901240 -1.481681
v 0.000000 4.001240 -1.481681
v -10.799842 4.901240 -1.683699
v -10.799842 4.998760 -1.683699
v -11.000001 4.001240 -1.701680
v -11.000001 4.901240 -1.683699
v -11.200158 4.901240 -1.683700
v -11.200158 4.998760 -1.683700
v -11.200158 4.801240 -1.901680
v -11.200158 4.898760 -1.901680
v -10.799842 4.801240 -1.901680
v -10.799842 4.898760 -1.901680
v -11.200158 1.001240 -5.301681
v -11.200158 1.098760 -5.301681
v -10.799842 1.001240 -5.301680
v -10.799842 1.098760 -5.301680
v -11.200158 0.901240 -5.501681
v -11.200158 0.998760 -5.501681
v -10.799842 0.901240 -5.501680
v -10.799842 0.998760 -5.501680
v -11.200158 0.901240 -6.501681
v -11.200158 0.998760 -6.501681
v -10.799842 0.901240 -6.501680
v -10.799842 0.998760 -6.501680
v -11.000001 4.901240 -1.683699
v -11.000001 4.001240 -1.701680
v -11.000001 4.801240 -1.901680
v -11.000001 3.801240 -1.901680
v -11.000001 1.001240 -5.301680
v -11.000001 0.001240 -5.301680
v -11.000001 0.901240 -5.501680
v -11.000001 0.001240 -5.501680
v -11.000001 0.901240 -6.501680
v -11.000001 0.001240 -6.501680
v -11.000001 4.801240 -1.901680
v -11.000001 3.801240 -1.901680
v -11.000001 1.001240 -5.301680
v -11.000001 0.001240 -5.301680
v -11.000001 0.901240 -5.501680
v -11.000001 0.001240 -5.501680
v -11.000001 0.901240 -6.501680
v -11.000001 0.001240 -6.501680
v -11.000001 4.001240 -0.001680
v -11.000001 4.001240 -0.001680
v -11.109630 0.000000 -5.500000
v -7.890369 0.000000 -5.500000
v -11.109630 0.250000 -5.500000
v -11.109630 4.000000 -1.750000
v -11.109630 0.250000 -5.125000
v -11.109630 0.625000 -5.125000
v -11.109630 0.625000 -4.750000
v -11.109630 1.000000 -4.750000
v -11.109630 1.000000 -4.375000
v -11.109630 1.375000 -4.375000
v -11.109630 1.375000 -4.000000
v -11.109630 1.750000 -4.000000
v -11.109630 1.750000 -3.625000
v -11.109630 2.125000 -3.625000
v -11.109630 2.125000 -3.250000
v -11.109630 2.500000 -3.250000
v -11.109630 2.500000 -2.875000
v -11.109630 2.875000 -2.875000
v -11.109630 2.875000 -2.500000
v -11.109630 3.250000 -2.500000
v -11.109630 3.250000 -2.125000
v -11.109630 3.625000 -2.125000
v -11.109630 3.625000 -1.750000
v -7.890369 4.000000 -1.750000
v -7.890369 0.250000 -5.500000
v -7.890369 3.725000 -1.750000
v -7.890369 3.625000 -2.125000
v -7.890369 3.250000 -2.125000
v -7.890369 3.250000 -2.500000
v -7.890369 2.875000 -2.500000
v -7.890369 2.875000 -2.875000
v -7.890369 2.500000 -2.875000
v -7.890369 2.500000 -3.250000
v -7.890369 2.125000 -3.250000
v -7.890369 2.125000 -3.625000
v -7.890369 1.750000 -3.625000
v -7.890369 1.750000 -4.000000
v -7.890369 1.375000 -4.000000
v -7.890369 1.375000 -4.375000
v -7.890369 1.000000 -4.375000
v -7.890369 1.000000 -4.750000
v -7.890369 0.625000 -4.750000
v -7.890369 0.625000 -5.125000
v -7.890369 0.250000 -5.125000
v 0.000000 3.725000 -1.750000
v 0.000000 4.000000 -1.750000
v 7.800000 4.901240 -1.281723
v 7.800000 4.998760 -1.281723
v 7.799842 4.901240 -1.683699
v 7.799842 4.998760 -1.683699
v 8.000001 4.001240 -1.701680
v 7.800000 4.901240 -1.481681
v 8.000001 4.901240 -1.683699
v 8.200158 4.901240 -1.683700
v 8.200158 4.998760 -1.683700
v 8.000000 4.001240 -1.481681
v 8.200158 4.801240 -1.901680
v 8.200158 4.898760 -1.901680
v 7.799842 4.801240 -1.901680
v 7.799842 4.898760 -1.901680
v 8.000000 4.901240 -1.481681
v 8.200158 1.001240 -5.301681
v 8.200158 1.098760 -5.301681
v 7.799842 1.001240 -5.301680
v 7.799842 1.098760 -5.301680
v 7.800000 4.001240 -1.481681
v 8.200158 0.901240 -5.501681
v 8.200158 0.998760 -5.501681
v 7.799842 0.901240 -5.501680
v 7.799842 0.998760 -5.501680
v 8.200158 0.901240 -6.501681
v 8.200158 0.998760 -6.501681
v 7.799842 0.901240 -6.501680
v 7.799842 0.998760 -6.501680
v 8.002193 4.901240 -1.280601
v 8.201180 4.901240 -1.479487
v 8.060769 4.901240 -1.420912
v 8.201180 4.998760 -1.479487
v 8.002193 4.998760 -1.280601
v 8.060769 4.998760 -1.420912
v 7.800000 4.901240 -1.481681
v 7.800000 4.001240 -1.481681
v 8.000000 4.901240 -1.481681
v 8.000000 4.001240 -1.481681
v 8.000001 4.901240 -1.683699
v 8.000001 4.001240 -1.701680
v 8.000001 4.801240 -1.901680
v 8.000001 3.801240 -1.901680
v 8.000001 1.001240 -5.301680
v 8.000001 0.001240 -5.301680
v 8.000001 0.901240 -5.501680
v 8.000001 0.001240 -5.501680
v 8.000001 0.901240 -6.501680
v 8.000001 0.001240 -6.501680
v 8.000001 4.801240 -1.901680
v 8.000001 3.801240 -1.901680
v 8.000001 1.001240 -5.301680
v 8.000001 0.001240 -5.301680
v 8.000001 0.901240 -5.501680
v 8.000001 0.001240 -5.501680
v 8.000001 0.901240 -6.501680
v 8.000001 0.001240 -6.501680
v 10.799842 4.901240 -1.683699
v 10.799842 4.998760 -1.683699
v 11.000001 4.001240 -1.701680
v 11.000001 4.901240 -1.683699
v 11.200158 4.901240 -1.683700
v 11.200158 4.998760 -1.683700
v 11.200158 4.801240 -1.901680
v 11.200158 4.898760 -1.901680
v 10.799842 4.801240 -1.901680
v 10.799842 4.898760 -1.901680
v 11.200158 1.001240 -5.301681
v 11.200158 1.098760 -5.301681
v 10.799842 1.001240 -5.301680
v 10.799842 1.098760 -5.301680
v 11.200158 0.901240 -5.501681
v 11.200158 0.998760 -5.501681
v 10.799842 0.901240 -5.501680
v 10.799842 0.998760 -5.501680
v 11.200158 0.901240 -6.501681
v 11.200158 0.998760 -6.501681
v 10.799842 0.901240 -6.501680
v 10.799842 0.998760 -6.501680
v 11.000001 4.901240 -1.683699
v 11.000001 4.001240 -1.701680
v 11.000001 4.801240 -1.901680
v 11.000001 3.801240 -1.901680
v 11.000001 1.001240 -5.301680
v 11.000001 0.001240 -5.301680
v 11.000001 0.901240 -5.501680
v 11.000001 0.001240 -5.501680
v 11.000001 0.901240 -6.501680
v 11.000001 0.001240 -6.501680
v 11.000001 4.801240 -1.901680
v 11.000001 3.801240 -1.901680
v 11.000001 1.001240 -5.301680
v 11.000001 0.001240 -5.301680
v 11.000001 0.901240 -5.501680
v 11.000001 0.001240 -5.501680
v 11.000001 0.901240 -6.501680
v 11.000001 0.001240 -6.501680
v 11.000001 4.001240 -0.001680
v 11.000001 4.001240 -0.001680
v 11.109630 0.000000 -5.500000
v 7.890369 0.000000 -5.500000
v 11.109630 0.250000 -5.500000
v 11.109630 4.000000 -1.750000
v 11.109630 0.250000 -5.125000
v 11.109630 0.625000 -5.125000
v 11.109630 0.625000 -4.750000
v 11.109630 1.000000 -4.750000
v 11.109630 1.000000 -4.375000
v 11.109630 1.375000 -4.375000
v 11.109630 1.375000 -4.000000
v 11.109630 1.750000 -4.000000
v 11.109630 1.750000 -3.625000
v 11.109630 2.125000 -3.625000
v 11.109630 2.125000 -3.250000
v 11.109630 2.500000 -3.250000
v 11.109630 2.500000 -2.875000
v 11.109630 2.875000 -2.875000
v 11.109630 2.875000 -2.500000
v 11.109630 3.250000 -2.500000
v 11.109630 3.250000 -2.125000
v 11.109630 3.625000 -2.125000
v 11.109630 3.625000 -1.750000
v 7.890369 4.000000 -1.750000
v 7.890369 0.250000 -5.500000
v 7.890369 3.725000 -1.750000
v 7.890369 3.625000 -2.125000
v 7.890369 3.250000 -2.125000
v 7.890369 3.250000 -2.500000
v 7.890369 2.875000 -2.500000
v 7.890369 2.875000 -2.875000
v 7.890369 2.500000 -2.875000
v 7.890369 2.500000 -3.250000
v 7.890369 2.125000 -3.250000
v 7.890369 2.125000 -3.625000
v 7.890369 1.750000 -3.625000
v 7.890369 1.750000 -4.000000
v 7.890369 1.375000 -4.000000
v 7.890369 1.375000 -4.375000
v 7.890369 1.000000 -4.375000
v 7.890369 1.000000 -4.750000
v 7.890369 0.625000 -4.750000
v 7.890369 0.625000 -5.125000
v 7.890369 0.250000 -5.125000
vn -0.0000 1.0000 -0.0000
vn -0.0000 -0.0000 -1.0000
vn -0.0000 -1.0000 -0.0000
vn -0.0000 -0.9089 -0.4170
vn 1.0000 -0.0000 -0.0000
vn -1.0000 -0.0000 0.0050
vn -0.0000 0.9089 0.4170
vn -0.0000 0.6668 0.7452
vn -0.0000 -0.8944 -0.4472
vn -1.0000 -0.0000 -0.0000
vn -0.0000 -0.6668 -0.7452
vn -0.0000 0.8944 0.4472
vn -0.0000 -0.0000 1.0000
vn -0.7069 -0.0000 -0.7073
vn 0.0056 -0.0000 -1.0000
vn 0.0001 -0.0000 1.0000
vn -0.0154 0.9911 0.1321
vn 1.0000 -0.0000 0.0050
vn 0.7069 -0.0000 -0.7073
vn -0.0056 -0.0000 -1.0000
vn -0.0001 -0.0000 1.0000
vn 0.0154 0.9911 0.1321
vn -0.0000 -0.9089 0.4170
vn -1.0000 -0.0000 -0.0050
vn -0.0000 0.9089 -0.4170
vn -0.0000 0.6668 -0.7452
vn -0.0000 -0.8944 0.4472
vn -0.0000 -0.6668 0.7452
vn -0.0000 0.8944 -0.4472
vn -0.7069 -0.0000 0.7073
vn 0.0056 -0.0000 1.0000
vn 0.0001 -0.0000 -1.0000
vn -0.0154 0.9911 -0.1321
vn 1.0000 -0.0000 -0.0050
vn 0.7069 -0.0000 0.7073
vn -0.0056 -0.0000 1.0000
vn -0.0001 -0.0000 -1.0000
vn 0.0154 0.9911 -0.1321
vt 0.938009 0.877328
vt 0.938009 0.807377
vt 0.980020 0.807377
vt 0.980020 0.877328
vt 0.938009 0.814847
vt 0.980020 0.814847
vt 0.936493 0.877150
vt 0.936510 0.808648
vt 0.958434 0.808487
vt 0.964717 0.832518
vt 0.991282 0.807911
vt 0.888317 0.807911
vt 0.888317 0.890553
vt 0.991282 0.890553
vt 0.634745 0.702389
vt 0.639472 0.700731
vt 0.639472 0.678625
vt 0.634745 0.680283
vt 0.914552 0.808487
vt 0.936476 0.808648
vt 0.908269 0.832518
vt 0.920186 0.806965
vt 0.951341 0.806965
vt 0.951341 0.810299
vt 0.920186 0.810299
vt 0.900579 0.879023
vt 0.983221 0.879023
vt 0.983221 0.897148
vt 0.900579 0.897148
vt 0.898479 0.807077
vt 0.981121 0.807077
vt 0.981121 0.873792
vt 0.898479 0.873792
vt 0.893337 0.877150
vt 0.893208 0.842551
vt 0.973157 0.807911
vt 0.906442 0.807911
vt 0.973157 0.890553
vt 0.906442 0.890553
vt 0.974255 0.814324
vt 0.891613 0.814324
vt 0.891613 0.806432
vt 0.974255 0.806432
vt 0.906442 0.807911
vt 0.973157 0.807911
vt 0.973157 0.890553
vt 0.906442 0.890553
vt 0.971715 0.881454
vt 0.971715 0.806704
vt 0.925229 0.806704
vt 0.925230 0.881454
vt 0.991282 0.815045
vt 0.888317 0.815045
vt 0.906442 0.815045
vt 0.973157 0.815045
vt 0.632336 0.702389
vt 0.632336 0.680283
vt 0.920886 0.887861
vt 0.968078 0.887861
vt 0.968078 0.892464
vt 0.920886 0.892464
vt 0.973157 0.892215
vt 0.906442 0.892215
vt 0.888317 0.892215
vt 0.991282 0.892215
vt 0.744559 0.602793
vt 0.749006 0.601417
vt 0.749006 0.579310
vt 0.744559 0.580686
vt 0.630280 0.702389
vt 0.630280 0.680283
vt 0.951341 0.826793
vt 0.920186 0.826793
vt 0.951341 0.814331
vt 0.920186 0.812865
vt 0.769254 0.601417
vt 0.769254 0.579310
vt 0.926653 0.807162
vt 0.973846 0.807162
vt 0.973846 0.876637
vt 0.926653 0.876637
vt 0.979778 0.842551
vt 0.951341 0.812865
vt 0.920186 0.814331
vt 0.979649 0.877150
vt 0.980020 0.863091
vt 0.938009 0.863091
vt 0.980020 0.877105
vt 0.938009 0.877105
vt 0.667398 0.652394
vt 0.782045 0.652394
vt 0.782045 0.676030
vt 0.667398 0.676030
vt 0.634745 0.701823
vt 0.639472 0.700542
vt 0.639472 0.678436
vt 0.634745 0.679717
vt 0.978312 0.969520
vt 0.898374 0.969520
vt 0.898374 0.914368
vt 0.978312 0.914368
vt 0.933807 0.936765
vt 0.941244 0.943831
vt 0.971986 0.903791
vt 0.948682 0.950897
vt 0.897914 0.943910
vt 0.977852 0.943910
vt 0.898374 0.903353
vt 0.978312 0.903353
vt 0.897914 0.943910
vt 0.898374 0.903353
vt 0.978312 0.903353
vt 0.977852 0.943910
vt 0.896618 0.903791
vt 0.904056 0.908502
vt 0.896618 0.908502
vt 0.904056 0.915568
vt 0.911494 0.915568
vt 0.970995 0.979159
vt 0.971986 0.979159
vt 0.970995 0.972094
vt 0.963557 0.965028
vt 0.963557 0.972094
vt 0.911494 0.922633
vt 0.918931 0.922633
vt 0.918931 0.929699
vt 0.926369 0.929699
vt 0.926369 0.936765
vt 0.933807 0.943831
vt 0.941244 0.950897
vt 0.948682 0.957962
vt 0.956119 0.957962
vt 0.956119 0.965028
vt 0.971986 0.972094
vt 0.956119 0.965028
vt 0.956119 0.957962
vt 0.926369 0.929699
vt 0.974255 0.814324
vt 0.652351 0.680000
vt 0.652351 0.702106
vt 0.618280 0.702106
vt 0.617950 0.682065
vt 0.617950 0.680000
vt 0.908561 0.954973
vt 0.908561 0.954217
vt 0.975798 0.954217
vt 0.975798 0.954973
vt 0.908561 0.958500
vt 0.975798 0.958500
vt 0.908561 0.950691
vt 0.975798 0.950691
s 0
f 58/1/1 60/2/1 2/3/1 4/4/1
f 59/5/2 1/6/2 2/3/2 60/2/2
f 3/7/3 8/8/3 30/9/3 31/10/3
f 13/11/4 11/12/4 8/13/4 3/14/4
f 7/15/5 49/16/5 50/17/5 5/18/5
f 32/19/1 9/20/1 4/7/1 34/21/1
f 30/22/6 8/23/6 9/24/6 32/25/6
f 4/26/5 14/27/5 13/28/5 3/29/5
f 9/30/7 12/31/7 14/32/7 4/33/7
f 2/34/1 33/35/1 34/21/1 4/7/1
f 12/11/8 17/12/8 19/13/8 14/14/8
f 18/11/9 23/12/9 21/13/9 16/14/9
f 11/36/10 16/37/10 17/12/10 12/11/10
f 13/38/11 18/39/11 16/37/11 11/36/11
f 8/40/10 11/41/10 12/42/10 9/43/10
f 17/44/12 22/45/12 24/46/12 19/47/12
f 27/48/3 25/49/3 21/50/3 23/51/3
f 16/52/10 21/53/10 22/54/10 17/55/10
f 14/14/5 19/13/5 18/39/5 13/38/5
f 15/56/5 7/15/5 5/18/5 10/57/5
f 24/58/5 28/59/5 27/60/5 23/61/5
f 19/62/5 24/63/5 23/64/5 18/65/5
f 51/66/5 53/67/5 54/68/5 52/69/5
f 6/70/13 15/56/13 10/57/13 20/71/13
f 25/22/13 27/23/13 28/72/13 26/73/13
f 49/16/5 51/66/5 52/69/5 50/17/5
f 21/22/10 25/23/10 26/74/10 22/75/10
f 53/67/5 55/76/5 56/77/5 54/68/5
f 22/78/1 26/79/1 28/80/1 24/81/1
f 29/82/3 31/10/3 30/9/3
f 32/19/1 34/21/1 33/35/1
f 29/22/14 30/23/14 32/83/14 33/75/14
f 1/22/15 29/23/15 33/83/15 2/84/15
f 35/70/2 36/71/2 38/57/2 37/56/2
f 39/15/10 40/18/10 42/17/10 41/16/10
f 37/56/10 38/57/10 40/18/10 39/15/10
f 41/16/10 42/17/10 44/69/10 43/66/10
f 45/67/10 46/68/10 48/77/10 47/76/10
f 43/66/10 44/69/10 46/68/10 45/67/10
f 3/7/3 31/10/3 29/82/3 1/85/3
f 3/86/16 57/87/16 58/1/16 4/4/16
f 3/3/3 1/88/3 59/89/3 57/2/3
f 35/90/2 61/91/2 62/92/2 36/93/2
f 6/90/13 20/93/13 64/92/13 63/91/13
f 73/11/4 71/12/4 69/13/4 65/14/4
f 68/94/5 97/95/5 98/96/5 67/97/5
f 66/26/5 74/27/5 73/28/5 65/29/5
f 70/30/7 72/31/7 74/32/7 66/33/7
f 72/11/8 76/12/8 78/13/8 74/14/8
f 77/11/9 81/12/9 79/13/9 75/14/9
f 71/36/10 75/37/10 76/12/10 72/11/10
f 73/38/11 77/39/11 75/37/11 71/36/11
f 69/40/10 71/41/10 72/42/10 70/43/10
f 76/44/12 80/45/12 82/46/12 78/47/12
f 85/48/3 83/49/3 79/50/3 81/51/3
f 75/52/10 79/53/10 80/54/10 76/55/10
f 74/14/5 78/13/5 77/39/5 73/38/5
f 82/58/5 86/59/5 85/60/5 81/61/5
f 78/62/5 82/63/5 81/64/5 77/65/5
f 99/66/5 101/67/5 102/68/5 100/69/5
f 83/22/13 85/23/13 86/72/13 84/73/13
f 97/16/5 99/66/5 100/69/5 98/17/5
f 79/22/10 83/23/10 84/74/10 80/75/10
f 101/67/5 103/76/5 104/77/5 102/68/5
f 80/78/1 84/79/1 86/80/1 82/81/1
f 87/94/10 88/97/10 90/96/10 89/95/10
f 89/16/10 90/17/10 92/69/10 91/66/10
f 93/67/10 94/68/10 96/77/10 95/76/10
f 91/66/10 92/69/10 94/68/10 93/67/10
f 112/98/1 109/99/1 114/100/1 134/101/1
f 123/102/10 125/103/10 108/104/10
f 111/104/5 142/105/5 144/103/5
f 134/101/13 114/100/13 133/106/13 136/107/13
f 136/107/17 133/106/17 132/108/17 137/109/17
f 137/109/13 132/108/13 131/106/13 138/107/13
f 138/107/1 131/106/1 130/108/1 139/109/1
f 139/109/13 130/108/13 129/106/13 140/107/13
f 140/107/1 129/106/1 128/108/1 141/109/1
f 141/109/13 128/108/13 127/110/13 142/107/13
f 142/107/1 127/110/1 126/111/1 143/109/1
f 143/109/13 126/111/13 125/110/13 144/107/13
f 144/107/1 125/110/1 124/108/1 145/109/1
f 145/109/13 124/108/13 123/106/13 146/107/13
f 146/107/1 123/106/1 122/111/1 147/112/1
f 147/112/13 122/111/13 121/110/13 148/113/13
f 148/113/1 121/110/1 120/108/1 149/109/1
f 149/109/13 120/108/13 119/106/13 150/113/13
f 150/113/1 119/106/1 118/108/1 151/112/1
f 151/112/13 118/108/13 117/106/13 152/107/13
f 152/107/1 117/106/1 116/108/1 153/112/1
f 153/112/13 116/108/13 115/106/13 154/113/13
f 154/113/1 115/106/1 113/108/1 135/109/1
f 110/113/13 135/109/13 113/108/13 107/110/13
f 108/104/10 107/114/10 115/115/10
f 107/114/10 113/116/10 115/115/10
f 115/115/10 116/117/10 117/118/10
f 114/119/10 109/120/10 133/121/10
f 109/120/10 108/104/10 133/121/10
f 131/122/10 132/123/10 133/121/10
f 108/104/10 115/115/10 117/118/10
f 117/118/10 118/124/10 119/125/10
f 119/125/10 120/126/10 121/127/10
f 121/127/10 122/128/10 123/102/10
f 123/102/10 124/129/10 125/103/10
f 125/103/10 126/130/10 127/105/10
f 127/105/10 128/131/10 129/132/10
f 129/132/10 130/133/10 131/122/10
f 131/122/10 133/121/10 108/104/10
f 108/104/10 117/118/10 119/125/10
f 108/104/10 119/125/10 121/127/10
f 129/132/10 131/122/10 108/104/10
f 127/105/10 129/132/10 108/104/10
f 108/104/10 121/127/10 123/102/10
f 125/103/10 127/105/10 108/104/10
f 166/120/5 165/119/5 164/121/5 167/134/5
f 136/121/5 137/123/5 138/122/5
f 135/116/5 110/114/5 154/115/5
f 110/114/5 111/104/5 154/115/5
f 152/118/5 153/117/5 154/115/5
f 111/104/5 136/121/5 138/122/5
f 138/122/5 139/135/5 140/136/5
f 140/136/5 141/131/5 142/105/5
f 142/105/5 143/130/5 144/103/5
f 144/103/5 145/129/5 146/102/5
f 146/102/5 147/128/5 148/137/5
f 148/137/5 149/126/5 150/125/5
f 150/125/5 151/124/5 152/118/5
f 152/118/5 154/115/5 111/104/5
f 111/104/5 138/122/5 140/136/5
f 111/104/5 140/136/5 142/105/5
f 150/125/5 152/118/5 111/104/5
f 144/103/5 146/102/5 111/104/5
f 146/102/5 148/137/5 111/104/5
f 148/137/5 150/125/5 111/104/5
f 66/26/5 65/29/5 159/29/5 162/26/5
f 70/30/1 66/33/1 162/33/1 158/30/1
f 69/40/10 70/43/10 158/43/10 157/138/10
f 65/14/3 69/13/3 157/13/3 159/14/3
f 88/139/10 87/140/10 160/141/10 156/142/10 106/143/10
f 68/140/5 67/139/5 105/143/5 155/142/5 161/141/5
f 163/134/2 112/120/2 166/120/2 167/134/2
f 163/134/5 136/121/5 111/104/5
f 134/144/13 136/145/13 164/146/13 165/147/13
f 112/148/1 134/144/1 165/147/1 166/149/1
f 136/145/3 163/150/3 167/151/3 164/146/3
f 58/1/1 171/4/1 169/3/1 60/2/1
f 59/5/2 60/2/2 169/3/2 168/6/2
f 170/7/3 198/10/3 197/9/3 175/8/3
f 180/11/4 170/14/4 175/13/4 178/12/4
f 174/15/10 172/18/10 217/17/10 216/16/10
f 199/19/1 201/21/1 171/7/1 176/20/1
f 197/22/18 199/25/18 176/24/18 175/23/18
f 171/26/10 170/29/10 180/28/10 181/27/10
f 176/30/7 171/33/7 181/32/7 179/31/7
f 169/34/1 171/7/1 201/21/1 200/35/1
f 179/11/8 181/14/8 186/13/8 184/12/8
f 185/11/9 183/14/9 188/13/9 190/12/9
f 178/36/5 179/11/5 184/12/5 183/37/5
f 180/38/11 178/36/11 183/37/11 185/39/11
f 175/40/5 176/43/5 179/42/5 178/41/5
f 184/44/12 186/47/12 191/46/12 189/45/12
f 194/48/3 190/51/3 188/50/3 192/49/3
f 183/52/5 184/55/5 189/54/5 188/53/5
f 181/14/10 180/38/10 185/39/10 186/13/10
f 182/56/10 177/57/10 172/18/10 174/15/10
f 191/58/10 190/61/10 194/60/10 195/59/10
f 186/62/10 185/65/10 190/64/10 191/63/10
f 218/66/10 219/69/10 221/68/10 220/67/10
f 173/70/13 187/71/13 177/57/13 182/56/13
f 192/22/13 193/73/13 195/72/13 194/23/13
f 216/16/10 217/17/10 219/69/10 218/66/10
f 188/22/5 189/75/5 193/74/5 192/23/5
f 220/67/10 221/68/10 223/77/10 222/76/10
f 189/78/1 191/81/1 195/80/1 193/79/1
f 196/82/3 197/9/3 198/10/3
f 199/19/1 200/35/1 201/21/1
f 196/22/19 200/75/19 199/83/19 197/23/19
f 168/22/20 169/84/20 200/83/20 196/23/20
f 202/70/2 204/56/2 205/57/2 203/71/2
f 206/15/5 208/16/5 209/17/5 207/18/5
f 204/56/5 206/15/5 207/18/5 205/57/5
f 208/16/5 210/66/5 211/69/5 209/17/5
f 212/67/5 214/76/5 215/77/5 213/68/5
f 210/66/5 212/67/5 213/68/5 211/69/5
f 170/7/3 168/85/3 196/82/3 198/10/3
f 170/86/21 171/4/21 58/1/21 57/87/21
f 170/3/3 57/2/3 59/89/3 168/88/3
f 202/90/2 203/93/2 62/92/2 61/91/2
f 173/90/13 63/91/13 64/92/13 187/93/13
f 232/11/4 224/14/4 228/13/4 230/12/4
f 227/94/10 226/97/10 257/96/10 256/95/10
f 225/26/10 224/29/10 232/28/10 233/27/10
f 229/30/7 225/33/7 233/32/7 231/31/7
f 231/11/8 233/14/8 237/13/8 235/12/8
f 236/11/9 234/14/9 238/13/9 240/12/9
f 230/36/5 231/11/5 235/12/5 234/37/5
f 232/38/11 230/36/11 234/37/11 236/39/11
f 228/40/5 229/43/5 231/42/5 230/41/5
f 235/44/12 237/47/12 241/46/12 239/45/12
f 244/48/3 240/51/3 238/50/3 242/49/3
f 234/52/5 235/55/5 239/54/5 238/53/5
f 233/14/10 232/38/10 236/39/10 237/13/10
f 241/58/10 240/61/10 244/60/10 245/59/10
f 237/62/10 236/65/10 240/64/10 241/63/10
f 258/66/10 259/69/10 261/68/10 260/67/10
f 242/22/13 243/73/13 245/72/13 244/23/13
f 256/16/10 257/17/10 259/69/10 258/66/10
f 238/22/5 239/75/5 243/74/5 242/23/5
f 260/67/10 261/68/10 263/77/10 262/76/10
f 239/78/1 241/81/1 245/80/1 243/79/1
f 246/94/5 248/95/5 249/96/5 247/97/5
f 248/16/5 250/66/5 251/69/5 249/17/5
f 252/67/5 254/76/5 255/77/5 253/68/5
f 250/66/5 252/67/5 253/68/5 251/69/5
f 271/98/1 293/101/1 273/100/1 268/99/1
f 282/102/5 267/104/5 284/103/5
f 270/104/10 303/103/10 301/105/10
f 293/101/13 295/107/13 292/106/13 273/100/13
f 295/107/22 296/109/22 291/108/22 292/106/22
f 296/109/13 297/107/13 290/106/13 291/108/13
f 297/107/1 298/109/1 289/108/1 290/106/1
f 298/109/13 299/107/13 288/106/13 289/108/13
f 299/107/1 300/109/1 287/108/1 288/106/1
f 300/109/13 301/107/13 286/110/13 287/108/13
f 301/107/1 302/109/1 285/111/1 286/110/1
f 302/109/13 303/107/13 284/110/13 285/111/13
f 303/107/1 304/109/1 283/108/1 284/110/1
f 304/109/13 305/107/13 282/106/13 283/108/13
f 305/107/1 306/112/1 281/111/1 282/106/1
f 306/112/13 307/113/13 280/110/13 281/111/13
f 307/113/1 308/109/1 279/108/1 280/110/1
f 308/109/13 309/113/13 278/106/13 279/108/13
f 309/113/1 310/112/1 277/108/1 278/106/1
f 310/112/13 311/107/13 276/106/13 277/108/13
f 311/107/1 312/112/1 275/108/1 276/106/1
f 312/112/13 313/113/13 274/106/13 275/108/13
f 313/113/1 294/109/1 272/108/1 274/106/1
f 269/113/13 266/110/13 272/108/13 294/109/13
f 267/104/5 274/115/5 266/114/5
f 266/114/5 274/115/5 272/116/5
f 274/115/5 276/118/5 275/117/5
f 273/119/5 292/121/5 268/120/5
f 268/120/5 292/121/5 267/104/5
f 290/122/5 292/121/5 291/123/5
f 267/104/5 276/118/5 274/115/5
f 276/118/5 278/125/5 277/124/5
f 278/125/5 280/127/5 279/126/5
f 280/127/5 282/102/5 281/128/5
f 282/102/5 284/103/5 283/129/5
f 284/103/5 286/105/5 285/130/5
f 286/105/5 288/132/5 287/131/5
f 288/132/5 290/122/5 289/133/5
f 290/122/5 267/104/5 292/121/5
f 267/104/5 278/125/5 276/118/5
f 267/104/5 280/127/5 278/125/5
f 288/132/5 267/104/5 290/122/5
f 286/105/5 267/104/5 288/132/5
f 267/104/5 282/102/5 280/127/5
f 284/103/5 267/104/5 286/105/5
f 295/121/10 297/122/10 296/123/10
f 294/116/10 313/115/10 269/114/10
f 269/114/10 313/115/10 270/104/10
f 311/118/10 313/115/10 312/117/10
f 270/104/10 297/122/10 295/121/10
f 297/122/10 299/136/10 298/135/10
f 299/136/10 301/105/10 300/131/10
f 301/105/10 303/103/10 302/130/10
f 303/103/10 305/102/10 304/129/10
f 305/102/10 307/137/10 306/128/10
f 307/137/10 309/125/10 308/126/10
f 309/125/10 311/118/10 310/124/10
f 311/118/10 270/104/10 313/115/10
f 270/104/10 299/136/10 297/122/10
f 270/104/10 301/105/10 299/136/10
f 309/125/10 270/104/10 311/118/10
f 303/103/10 270/104/10 305/102/10
f 305/102/10 270/104/10 307/137/10
f 307/137/10 270/104/10 309/125/10
f 225/26/10 321/26/10 318/29/10 224/29/10
f 229/30/1 317/30/1 321/33/1 225/33/1
f 228/40/5 316/138/5 317/43/5 229/43/5
f 224/14/3 318/14/3 316/13/3 228/13/3
f 247/139/5 265/143/5 315/142/5 319/141/5 246/140/5
f 227/140/10 320/141/10 314/142/10 264/143/10 226/139/10
f 322/134/2 167/134/2 166/120/2 271/120/2
f 322/134/10 270/104/10 295/121/10
f 293/144/13 165/147/13 164/146/13 295/145/13
f 271/148/1 166/149/1 165/147/1 293/144/1
f 295/145/3 164/146/3 167/151/3 322/150/3
f 380/1/1 326/4/1 324/3/1 382/2/1
f 381/5/13 382/2/13 324/3/13 323/6/13
f 325/7/3 353/10/3 352/9/3 330/8/3
f 335/11/23 325/14/23 330/13/23 333/12/23
f 329/15/5 327/18/5 372/17/5 371/16/5
f 354/19/1 356/21/1 326/7/1 331/20/1
f 352/22/24 354/25/24 331/24/24 330/23/24
f 326/26/5 325/29/5 335/28/5 336/27/5
f 331/30/25 326/33/25 336/32/25 334/31/25
f 324/34/1 326/7/1 356/21/1 355/35/1
f 334/11/26 336/14/26 341/13/26 339/12/26
f 340/11/27 338/14/27 343/13/27 345/12/27
f 333/36/10 334/11/10 339/12/10 338/37/10
f 335/38/28 333/36/28 338/37/28 340/39/28
f 330/40/10 331/43/10 334/42/10 333/41/10
f 339/44/29 341/47/29 346/46/29 344/45/29
f 349/48/3 345/51/3 343/50/3 347/49/3
f 338/52/10 339/55/10 344/54/10 343/53/10
f 336/14/5 335/38/5 340/39/5 341/13/5
f 337/56/5 332/57/5 327/18/5 329/15/5
f 346/58/5 345/61/5 349/60/5 350/59/5
f 341/62/5 340/65/5 345/64/5 346/63/5
f 373/66/5 374/69/5 376/68/5 375/67/5
f 328/70/2 342/71/2 332/57/2 337/56/2
f 347/22/2 348/73/2 350/72/2 349/23/2
f 371/16/5 372/17/5 374/69/5 373/66/5
f 343/22/10 344/75/10 348/74/10 347/23/10
f 375/67/5 376/68/5 378/77/5 377/76/5
f 344/78/1 346/81/1 350/80/1 348/79/1
f 351/82/3 352/9/3 353/10/3
f 354/19/1 355/35/1 356/21/1
f 351/22/30 355/75/30 354/83/30 352/23/30
f 323/22/31 324/84/31 355/83/31 351/23/31
f 357/70/13 359/56/13 360/57/13 358/71/13
f 361/15/10 363/16/10 364/17/10 362/18/10
f 359/56/10 361/15/10 362/18/10 360/57/10
f 363/16/10 365/66/10 366/69/10 364/17/10
f 367/67/10 369/76/10 370/77/10 368/68/10
f 365/66/10 367/67/10 368/68/10 366/69/10
f 325/7/3 323/85/3 351/82/3 353/10/3
f 325/86/32 326/4/32 380/1/32 379/87/32
f 325/3/3 379/2/3 381/89/3 323/88/3
f 357/90/13 358/93/13 384/92/13 383/91/13
f 328/90/2 385/91/2 386/92/2 342/93/2
f 395/11/23 387/14/23 391/13/23 393/12/23
f 390/94/5 389/97/5 420/96/5 419/95/5
f 388/26/5 387/29/5 395/28/5 396/27/5
f 392/30/25 388/33/25 396/32/25 394/31/25
f 394/11/26 396/14/26 400/13/26 398/12/26
f 399/11/27 397/14/27 401/13/27 403/12/27
f 393/36/10 394/11/10 398/12/10 397/37/10
f 395/38/28 393/36/28 397/37/28 399/39/28
f 391/40/10 392/43/10 394/42/10 393/41/10
f 398/44/29 400/47/29 404/46/29 402/45/29
f 407/48/3 403/51/3 401/50/3 405/49/3
f 397/52/10 398/55/10 402/54/10 401/53/10
f 396/14/5 395/38/5 399/39/5 400/13/5
f 404/58/5 403/61/5 407/60/5 408/59/5
f 400/62/5 399/65/5 403/64/5 404/63/5
f 421/66/5 422/69/5 424/68/5 423/67/5
f 405/22/2 406/73/2 408/72/2 407/23/2
f 419/16/5 420/17/5 422/69/5 421/66/5
f 401/22/10 402/75/10 406/74/10 405/23/10
f 423/67/5 424/68/5 426/77/5 425/76/5
f 402/78/1 404/81/1 408/80/1 406/79/1
f 409/94/10 411/95/10 412/96/10 410/97/10
f 411/16/10 413/66/10 414/69/10 412/17/10
f 415/67/10 417/76/10 418/77/10 416/68/10
f 413/66/10 415/67/10 416/68/10 414/69/10
f 112/98/1 452/101/1 432/100/1 109/99/1
f 441/102/10 108/104/10 443/103/10
f 111/104/5 462/103/5 460/105/5
f 452/101/2 454/107/2 451/106/2 432/100/2
f 454/107/33 455/109/33 450/108/33 451/106/33
f 455/109/2 456/107/2 449/106/2 450/108/2
f 456/107/1 457/109/1 448/108/1 449/106/1
f 457/109/2 458/107/2 447/106/2 448/108/2
f 458/107/1 459/109/1 446/108/1 447/106/1
f 459/109/2 460/107/2 445/110/2 446/108/2
f 460/107/1 461/109/1 444/111/1 445/110/1
f 461/109/2 462/107/2 443/110/2 444/111/2
f 462/107/1 463/109/1 442/108/1 443/110/1
f 463/109/2 464/107/2 441/106/2 442/108/2
f 464/107/1 465/112/1 440/111/1 441/106/1
f 465/112/2 466/113/2 439/110/2 440/111/2
f 466/113/1 467/109/1 438/108/1 439/110/1
f 467/109/2 468/113/2 437/106/2 438/108/2
f 468/113/1 469/112/1 436/108/1 437/106/1
f 469/112/2 470/107/2 435/106/2 436/108/2
f 470/107/1 471/112/1 434/108/1 435/106/1
f 471/112/2 472/113/2 433/106/2 434/108/2
f 472/113/1 453/109/1 431/108/1 433/106/1
f 430/113/2 429/110/2 431/108/2 453/109/2
f 108/104/10 433/115/10 429/114/10
f 429/114/10 433/115/10 431/116/10
f 433/115/10 435/118/10 434/117/10
f 432/119/10 451/121/10 109/120/10
f 109/120/10 451/121/10 108/104/10
f 449/122/10 451/121/10 450/123/10
f 108/104/10 435/118/10 433/115/10
f 435/118/10 437/125/10 436/124/10
f 437/125/10 439/127/10 438/126/10
f 439/127/10 441/102/10 440/128/10
f 441/102/10 443/103/10 442/129/10
f 443/103/10 445/105/10 444/130/10
f 445/105/10 447/132/10 446/131/10
f 447/132/10 449/122/10 448/133/10
f 449/122/10 108/104/10 451/121/10
f 108/104/10 437/125/10 435/118/10
f 108/104/10 439/127/10 437/125/10
f 447/132/10 108/104/10 449/122/10
f 445/105/10 108/104/10 447/132/10
f 108/104/10 441/102/10 439/127/10
f 443/103/10 108/104/10 445/105/10
f 166/120/5 167/134/5 473/121/5 474/119/5
f 454/121/5 456/122/5 455/123/5
f 453/116/5 472/115/5 430/114/5
f 430/114/5 472/115/5 111/104/5
f 470/118/5 472/115/5 471/117/5
f 111/104/5 456/122/5 454/121/5
f 456/122/5 458/136/5 457/135/5
f 458/136/5 460/105/5 459/131/5
f 460/105/5 462/103/5 461/130/5
f 462/103/5 464/102/5 463/129/5
f 464/102/5 466/137/5 465/128/5
f 466/137/5 468/125/5 467/126/5
f 468/125/5 470/118/5 469/124/5
f 470/118/5 111/104/5 472/115/5
f 111/104/5 458/136/5 456/122/5
f 111/104/5 460/105/5 458/136/5
f 468/125/5 111/104/5 470/118/5
f 462/103/5 111/104/5 464/102/5
f 464/102/5 111/104/5 466/137/5
f 466/137/5 111/104/5 468/125/5
f 388/26/5 162/26/5 159/29/5 387/29/5
f 392/30/1 158/30/1 162/33/1 388/33/1
f 391/40/10 157/138/10 158/43/10 392/43/10
f 387/14/3 159/14/3 157/13/3 391/13/3
f 410/139/10 428/143/10 156/142/10 160/141/10 409/140/10
f 390/140/5 161/141/5 155/142/5 427/143/5 389/139/5
f 163/134/5 111/104/5 454/121/5
f 452/144/2 474/147/2 473/146/2 454/145/2
f 112/148/1 166/149/1 474/147/1 452/144/1
f 454/145/3 473/146/3 167/151/3 163/150/3
f 380/1/1 382/2/1 476/3/1 478/4/1
f 381/5/13 475/6/13 476/3/13 382/2/13
f 477/7/3 482/8/3 504/9/3 505/10/3
f 487/11/23 485/12/23 482/13/23 477/14/23
f 481/15/10 523/16/10 524/17/10 479/18/10
f 506/19/1 483/20/1 478/7/1 508/21/1
f 504/22/34 482/23/34 483/24/34 506/25/34
f 478/26/10 488/27/10 487/28/10 477/29/10
f 483/30/25 486/31/25 488/32/25 478/33/25
f 476/34/1 507/35/1 508/21/1 478/7/1
f 486/11/26 491/12/26 493/13/26 488/14/26
f 492/11/27 497/12/27 495/13/27 490/14/27
f 485/36/5 490/37/5 491/12/5 486/11/5
f 487/38/28 492/39/28 490/37/28 485/36/28
f 482/40/5 485/41/5 486/42/5 483/43/5
f 491/44/29 496/45/29 498/46/29 493/47/29
f 501/48/3 499/49/3 495/50/3 497/51/3
f 490/52/5 495/53/5 496/54/5 491/55/5
f 488/14/10 493/13/10 492/39/10 487/38/10
f 489/56/10 481/15/10 479/18/10 484/57/10
f 498/58/10 502/59/10 501/60/10 497/61/10
f 493/62/10 498/63/10 497/64/10 492/65/10
f 525/66/10 527/67/10 528/68/10 526/69/10
f 480/70/2 489/56/2 484/57/2 494/71/2
f 499/22/2 501/23/2 502/72/2 500/73/2
f 523/16/10 525/66/10 526/69/10 524/17/10
f 495/22/5 499/23/5 500/74/5 496/75/5
f 527/67/10 529/76/10 530/77/10 528/68/10
f 496/78/1 500/79/1 502/80/1 498/81/1
f 503/82/3 505/10/3 504/9/3
f 506/19/1 508/21/1 507/35/1
f 503/22/35 504/23/35 506/83/35 507/75/35
f 475/22/36 503/23/36 507/83/36 476/84/36
f 509/70/13 510/71/13 512/57/13 511/56/13
f 513/15/5 514/18/5 516/17/5 515/16/5
f 511/56/5 512/57/5 514/18/5 513/15/5
f 515/16/5 516/17/5 518/69/5 517/66/5
f 519/67/5 520/68/5 522/77/5 521/76/5
f 517/66/5 518/69/5 520/68/5 519/67/5
f 477/7/3 505/10/3 503/82/3 475/85/3
f 477/86/37 379/87/37 380/1/37 478/4/37
f 477/3/3 475/88/3 381/89/3 379/2/3
f 509/90/13 383/91/13 384/92/13 510/93/13
f 480/90/2 494/93/2 386/92/2 385/91/2
f 539/11/23 537/12/23 535/13/23 531/14/23
f 534/94/10 563/95/10 564/96/10 533/97/10
f 532/26/10 540/27/10 539/28/10 531/29/10
f 536/30/25 538/31/25 540/32/25 532/33/25
f 538/11/26 542/12/26 544/13/26 540/14/26
f 543/11/27 547/12/27 545/13/27 541/14/27
f 537/36/5 541/37/5 542/12/5 538/11/5
f 539/38/28 543/39/28 541/37/28 537/36/28
f 535/40/5 537/41/5 538/42/5 536/43/5
f 542/44/29 546/45/29 548/46/29 544/47/29
f 551/48/3 549/49/3 545/50/3 547/51/3
f 541/52/5 545/53/5 546/54/5 542/55/5
f 540/14/10 544/13/10 543/39/10 539/38/10
f 548/58/10 552/59/10 551/60/10 547/61/10
f 544/62/10 548/63/10 547/64/10 543/65/10
f 565/66/10 567/67/10 568/68/10 566/69/10
f 549/22/2 551/23/2 552/72/2 550/73/2
f 563/16/10 565/66/10 566/69/10 564/17/10
f 545/22/5 549/23/5 550/74/5 546/75/5
f 567/67/10 569/76/10 570/77/10 568/68/10
f 546/78/1 550/79/1 552/80/1 548/81/1
f 553/94/5 554/97/5 556/96/5 555/95/5
f 555/16/5 556/17/5 558/69/5 557/66/5
f 559/67/5 560/68/5 562/77/5 561/76/5
f 557/66/5 558/69/5 560/68/5 559/67/5
f 271/98/1 268/99/1 576/100/1 596/101/1
f 585/102/5 587/103/5 267/104/5
f 270/104/10 604/105/10 606/103/10
f 596/101/2 576/100/2 595/106/2 598/107/2
f 598/107/38 595/106/38 594/108/38 599/109/38
f 599/109/2 594/108/2 593/106/2 600/107/2
f 600/107/1 593/106/1 592/108/1 601/109/1
f 601/109/2 592/108/2 591/106/2 602/107/2
f 602/107/1 591/106/1 590/108/1 603/109/1
f 603/109/2 590/108/2 589/110/2 604/107/2
f 604/107/1 589/110/1 588/111/1 605/109/1
f 605/109/2 588/111/2 587/110/2 606/107/2
f 606/107/1 587/110/1 586/108/1 607/109/1
f 607/109/2 586/108/2 585/106/2 608/107/2
f 608/107/1 585/106/1 584/111/1 609/112/1
f 609/112/2 584/111/2 583/110/2 610/113/2
f 610/113/1 583/110/1 582/108/1 611/109/1
f 611/109/2 582/108/2 581/106/2 612/113/2
f 612/113/1 581/106/1 580/108/1 613/112/1
f 613/112/2 580/108/2 579/106/2 614/107/2
f 614/107/1 579/106/1 578/108/1 615/112/1
f 615/112/2 578/108/2 577/106/2 616/113/2
f 616/113/1 577/106/1 575/108/1 597/109/1
f 574/113/2 597/109/2 575/108/2 573/110/2
f 267/104/5 573/114/5 577/115/5
f 573/114/5 575/116/5 577/115/5
f 577/115/5 578/117/5 579/118/5
f 576/119/5 268/120/5 595/121/5
f 268/120/5 267/104/5 595/121/5
f 593/122/5 594/123/5 595/121/5
f 267/104/5 577/115/5 579/118/5
f 579/118/5 580/124/5 581/125/5
f 581/125/5 582/126/5 583/127/5
f 583/127/5 584/128/5 585/102/5
f 585/102/5 586/129/5 587/103/5
f 587/103/5 588/130/5 589/105/5
f 589/105/5 590/131/5 591/132/5
f 591/132/5 592/133/5 593/122/5
f 593/122/5 595/121/5 267/104/5
f 267/104/5 579/118/5 581/125/5
f 267/104/5 581/125/5 583/127/5
f 591/132/5 593/122/5 267/104/5
f 589/105/5 591/132/5 267/104/5
f 267/104/5 583/127/5 585/102/5
f 587/103/5 589/105/5 267/104/5
f 598/121/10 599/123/10 600/122/10
f 597/116/10 574/114/10 616/115/10
f 574/114/10 270/104/10 616/115/10
f 614/118/10 615/117/10 616/115/10
f 270/104/10 598/121/10 600/122/10
f 600/122/10 601/135/10 602/136/10
f 602/136/10 603/131/10 604/105/10
f 604/105/10 605/130/10 606/103/10
f 606/103/10 607/129/10 608/102/10
f 608/102/10 609/128/10 610/137/10
f 610/137/10 611/126/10 612/125/10
f 612/125/10 613/124/10 614/118/10
f 614/118/10 616/115/10 270/104/10
f 270/104/10 600/122/10 602/136/10
f 270/104/10 602/136/10 604/105/10
f 612/125/10 614/118/10 270/104/10
f 606/103/10 608/102/10 270/104/10
f 608/102/10 610/137/10 270/104/10
f 610/137/10 612/125/10 270/104/10
f 532/26/10 531/29/10 318/29/10 321/26/10
f 536/30/1 532/33/1 321/33/1 317/30/1
f 535/40/5 536/43/5 317/43/5 316/138/5
f 531/14/3 535/13/3 316/13/3 318/14/3
f 554/139/5 553/140/5 319/141/5 315/142/5 572/143/5
f 534/140/10 533/139/10 571/143/10 314/142/10 320/141/10
f 322/134/10 598/121/10 270/104/10
f 596/144/2 598/145/2 473/146/2 474/147/2
f 271/148/1 596/144/1 474/147/1 166/149/1
f 598/145/3 322/150/3 167/151/3 473/146/3
