# Blender 4.4.3
# www.blender.org
o SM_2D-Tall_PedestrainBridge_V1.0
v -15.337286 0.000000 0.000000
v -15.337286 4.000000 0.000000
v -11.662711 4.000000 0.000000
v -15.000001 4.085313 0.000000
v -15.000001 4.085313 0.000000
v -15.200158 4.901240 0.000000
v -15.200158 4.998760 0.000000
v -14.799842 4.901240 0.000000
v -15.000001 4.901240 0.000000
v -15.000001 4.901240 0.000000
v -14.799842 4.998760 0.000000
v -11.890369 3.725000 0.000000
v -7.911502 3.749866 0.000000
v -10.599281 4.005177 0.000000
v -6.990369 7.800000 0.000000
v -4.933199 7.224999 0.000000
v -11.890369 0.025000 0.000000
v -6.911502 0.049866 0.000000
v -6.995628 5.648434 0.000000
v -10.597731 4.420289 0.000000
v -10.198405 4.418707 0.000000
v -10.196913 4.818033 0.000000
v -9.797588 4.816453 0.000000
v -9.796095 5.215777 0.000000
v -9.396771 5.214198 0.000000
v -9.395277 5.613522 0.000000
v -8.995955 5.611944 0.000000
v -8.994459 6.011267 0.000000
v -8.595138 6.009690 0.000000
v -8.593641 6.409011 0.000000
v -8.194321 6.407435 0.000000
v -8.192823 6.806756 0.000000
v -7.793504 6.805182 0.000000
v -7.792006 7.204500 0.000000
v -7.392687 7.202927 0.000000
v -7.391188 7.602245 0.000000
v -6.991870 7.600673 0.000000
v 0.000000 7.800138 0.000000
v 0.000000 7.205968 0.000000
v -11.800000 4.901240 1.281723
v -11.800000 4.998760 1.281723
v -11.799842 4.901240 1.683699
v -11.799842 4.998760 1.683699
v -10.797930 4.901240 1.479758
v -10.597930 4.001240 1.479758
v -10.597930 5.001240 1.479758
v -12.200158 4.901240 1.683700
v -12.200158 4.998760 1.683700
v -7.004153 7.607463 1.479758
v -12.200158 4.801240 1.901680
v -12.200158 4.898760 1.901680
v -11.799842 4.801240 1.901680
v -11.799842 4.898760 1.901680
v -7.004153 8.839885 1.479758
v -12.200158 1.001240 5.301681
v -12.200158 1.098760 5.301681
v -11.799842 1.001240 5.301680
v -11.799842 1.098760 5.301680
v -6.786172 8.939884 1.479758
v -12.200158 0.901240 5.501681
v -12.200158 0.998760 5.501681
v -11.799842 0.901240 5.501680
v -11.799842 0.998760 5.501680
v -12.200158 0.901240 6.501681
v -12.200158 0.998760 6.501681
v -11.799842 0.901240 6.501680
v -11.799842 0.998760 6.501680
v -12.002193 4.901240 1.280601
v -12.201180 4.901240 1.479487
v -12.060769 4.901240 1.420912
v -12.201180 4.998760 1.479487
v -12.002193 4.998760 1.280601
v -12.060769 4.998760 1.420912
v -11.798965 4.901240 1.480719
v -11.798965 4.001240 1.480719
v -12.000000 4.901240 1.481681
v -12.000000 4.001240 1.481681
v -12.000001 4.901240 1.683699
v -12.000001 4.001240 1.701680
v -12.000001 4.801240 1.901680
v -12.000001 3.801240 1.901680
v -12.000001 1.001240 5.301680
v -12.000001 0.001240 5.301680
v -12.000001 0.901240 5.501680
v -12.000001 0.001240 5.501680
v -12.000001 0.901240 6.501680
v -12.000001 0.001240 6.501680
v -6.793468 7.804996 1.481681
v -6.793468 8.937417 1.481681
v -12.000001 0.001240 6.501680
v -12.000001 0.901240 6.501680
v -12.000001 0.001240 5.501680
v -12.000001 0.901240 5.501680
v -12.000001 0.001240 5.301680
v -12.000001 1.001240 5.301680
v -14.799842 4.901240 1.683699
v -14.799842 4.998760 1.683699
v -15.000001 4.001240 1.701680
v -15.000001 4.901240 1.683699
v -15.200158 4.901240 1.683700
v -15.200158 4.998760 1.683700
v -15.200158 4.801240 1.901680
v -15.200158 4.898760 1.901680
v -14.799842 4.801240 1.901680
v -14.799842 4.898760 1.901680
v -15.200158 1.001240 5.301681
v -15.200158 1.098760 5.301681
v -14.799842 1.001240 5.301680
v -14.799842 1.098760 5.301680
v -15.200158 0.901240 5.501681
v -15.200158 0.998760 5.501681
v -14.799842 0.901240 5.501680
v -14.799842 0.998760 5.501680
v -15.200158 0.901240 6.501681
v -15.200158 0.998760 6.501681
v -14.799842 0.901240 6.501680
v -14.799842 0.998760 6.501680
v -15.000001 4.901240 1.683699
v -15.000001 4.001240 1.701680
v -15.000001 4.801240 1.901680
v -15.000001 3.801240 1.901680
v -15.000001 1.001240 5.301680
v -15.000001 0.001240 5.301680
v -15.000001 0.901240 5.501680
v -15.000001 0.001240 5.501680
v -15.000001 0.901240 6.501680
v -15.000001 0.001240 6.501680
v -15.000001 4.801240 1.901680
v -15.000001 3.801240 1.901680
v -15.000001 1.001240 5.301680
v -15.000001 0.001240 5.301680
v -15.000001 0.901240 5.501680
v -15.000001 0.001240 5.501680
v -15.000001 0.901240 6.501680
v -15.000001 0.001240 6.501680
v -15.000001 4.001240 0.001680
v -15.000001 4.001240 0.001680
v -15.337286 0.000000 5.500000
v -11.662711 0.000000 5.500000
v -15.337286 0.250000 5.500000
v -15.337286 4.000000 1.750000
v -15.337286 0.250000 5.125000
v -15.337286 0.625000 5.125000
v -15.337286 0.625000 4.750000
v -15.337286 1.000000 4.750000
v -15.337286 1.000000 4.375000
v -15.337286 1.375000 4.375000
v -15.337286 1.375000 4.000000
v -15.337286 1.750000 4.000000
v -15.337286 1.750000 3.625000
v -15.337286 2.125000 3.625000
v -15.337286 2.125000 3.250000
v -15.337286 2.500000 3.250000
v -15.337286 2.500000 2.875000
v -15.337286 2.875000 2.875000
v -15.337286 2.875000 2.500000
v -15.337286 3.250000 2.500000
v -15.337286 3.250000 2.125000
v -15.337286 3.625000 2.125000
v -15.337286 3.625000 1.750000
v -11.662711 4.000000 1.816818
v -11.662711 0.250000 5.500000
v -11.662711 3.725000 1.816818
v -11.662711 3.625000 2.125000
v -11.662711 3.250000 2.125000
v -11.662711 3.250000 2.500000
v -11.662711 2.875000 2.500000
v -11.662711 2.875000 2.875000
v -11.662711 2.500000 2.875000
v -11.662711 2.500000 3.250000
v -11.662711 2.125000 3.250000
v -11.662711 2.125000 3.625000
v -11.662711 1.750000 3.625000
v -11.662711 1.750000 4.000000
v -11.662711 1.375000 4.000000
v -11.662711 1.375000 4.375000
v -11.662711 1.000000 4.375000
v -11.662711 1.000000 4.750000
v -11.662711 0.625000 4.750000
v -11.662711 0.625000 5.125000
v -11.662711 0.250000 5.125000
v -7.911502 3.749866 1.816818
v -10.599281 4.005177 1.816818
v -6.793468 8.924634 1.281723
v -6.793468 9.022155 1.281723
v -6.793309 8.924634 1.683699
v -6.793309 9.022155 1.683699
v -6.793468 8.937417 1.481681
v -12.000001 3.801240 1.901680
v -6.793468 7.804996 1.481681
v -6.990369 7.800000 1.816818
v -4.933199 7.224999 1.816818
v -11.662711 0.025000 2.625000
v -6.911502 0.049866 2.625000
v -12.000001 4.801240 1.901680
v -12.000001 4.001240 1.701680
v -7.004153 8.827102 1.279601
v -7.004153 8.924622 1.279601
v -7.004153 8.827102 1.679917
v -7.004153 8.924622 1.679917
v -10.597931 5.001240 1.279601
v -10.597931 5.098760 1.279601
v -10.597930 5.001240 1.679917
v -10.597930 5.098760 1.679917
v -10.797931 4.901240 1.279601
v -10.797931 4.998760 1.279601
v -10.797930 4.901240 1.679917
v -10.797930 4.998760 1.679917
v -11.797931 4.901240 1.279601
v -11.797931 4.998760 1.279601
v -11.797930 4.901240 1.679917
v -11.797930 4.998760 1.679917
v -6.995628 5.648434 1.816818
v -6.786172 8.939884 1.479758
v -7.004153 8.839885 1.479758
v -7.004153 7.607463 1.479758
v -10.597930 5.001240 1.479758
v -10.597930 4.001240 1.479758
v -10.797930 4.901240 1.479758
v -10.797930 4.001240 1.479758
v -12.000001 4.901240 1.683699
v -12.000000 4.001240 1.481681
v -12.000000 4.901240 1.481681
v -11.798965 4.001240 1.480719
v -11.798965 4.901240 1.480719
v -10.597731 4.420288 1.816818
v -6.991870 7.600673 1.816818
v -7.391188 7.602245 1.816818
v -7.392687 7.202928 1.816818
v -7.792006 7.204501 1.816818
v -7.793504 6.805182 1.816818
v -8.192823 6.806756 1.816818
v -8.194321 6.407436 1.816818
v -8.593641 6.409011 1.816818
v -8.595138 6.009690 1.816818
v -8.994460 6.011267 1.816818
v -8.995955 5.611944 1.816818
v -9.395277 5.613522 1.816818
v -9.396771 5.214199 1.816818
v -9.796096 5.215777 1.816818
v -9.797588 4.816453 1.816818
v -10.196914 4.818033 1.816818
v -10.198405 4.418707 1.816818
v 0.000000 8.910692 1.682685
v 0.000000 9.027415 1.281723
v 0.000000 8.923475 1.481681
v 0.000000 9.027415 1.682685
v 0.000000 8.910692 1.281723
v 0.000000 8.691053 1.481681
v 0.000000 7.801680 1.481681
v 0.000000 7.801680 1.481681
v 0.000000 7.205969 1.816818
v 0.000000 7.800138 1.816818
v -10.797930 4.001240 1.479758
v 0.000000 8.923475 1.481681
v 0.000000 7.801680 1.481681
v 15.337286 0.000000 0.000000
v 15.337286 4.000000 0.000000
v 11.662711 4.000000 0.000000
v 15.000001 4.085313 0.000000
v 15.000001 4.085313 0.000000
v 15.200158 4.901240 0.000000
v 15.200158 4.998760 0.000000
v 14.799842 4.901240 0.000000
v 15.000001 4.901240 0.000000
v 15.000001 4.901240 0.000000
v 14.799842 4.998760 0.000000
v 11.890369 3.725000 0.000000
v 7.911502 3.749866 0.000000
v 10.599281 4.005177 0.000000
v 6.990369 7.800000 0.000000
v 4.933199 7.224999 0.000000
v 11.890369 0.025000 0.000000
v 6.911502 0.049866 0.000000
v 6.995628 5.648434 0.000000
v 10.597731 4.420289 0.000000
v 10.198405 4.418707 0.000000
v 10.196913 4.818033 0.000000
v 9.797588 4.816453 0.000000
v 9.796095 5.215777 0.000000
v 9.396771 5.214198 0.000000
v 9.395277 5.613522 0.000000
v 8.995955 5.611944 0.000000
v 8.994459 6.011267 0.000000
v 8.595138 6.009690 0.000000
v 8.593641 6.409011 0.000000
v 8.194321 6.407435 0.000000
v 8.192823 6.806756 0.000000
v 7.793504 6.805182 0.000000
v 7.792006 7.204500 0.000000
v 7.392687 7.202927 0.000000
v 7.391188 7.602245 0.000000
v 6.991870 7.600673 0.000000
v 11.800000 4.901240 1.281723
v 11.800000 4.998760 1.281723
v 11.799842 4.901240 1.683699
v 11.799842 4.998760 1.683699
v 10.797930 4.901240 1.479758
v 10.597930 4.001240 1.479758
v 10.597930 5.001240 1.479758
v 12.200158 4.901240 1.683700
v 12.200158 4.998760 1.683700
v 7.004153 7.607463 1.479758
v 12.200158 4.801240 1.901680
v 12.200158 4.898760 1.901680
v 11.799842 4.801240 1.901680
v 11.799842 4.898760 1.901680
v 7.004153 8.839885 1.479758
v 12.200158 1.001240 5.301681
v 12.200158 1.098760 5.301681
v 11.799842 1.001240 5.301680
v 11.799842 1.098760 5.301680
v 6.786172 8.939884 1.479758
v 12.200158 0.901240 5.501681
v 12.200158 0.998760 5.501681
v 11.799842 0.901240 5.501680
v 11.799842 0.998760 5.501680
v 12.200158 0.901240 6.501681
v 12.200158 0.998760 6.501681
v 11.799842 0.901240 6.501680
v 11.799842 0.998760 6.501680
v 12.002193 4.901240 1.280601
v 12.201180 4.901240 1.479487
v 12.060769 4.901240 1.420912
v 12.201180 4.998760 1.479487
v 12.002193 4.998760 1.280601
v 12.060769 4.998760 1.420912
v 11.798965 4.901240 1.480719
v 11.798965 4.001240 1.480719
v 12.000000 4.901240 1.481681
v 12.000000 4.001240 1.481681
v 12.000001 4.901240 1.683699
v 12.000001 4.001240 1.701680
v 12.000001 4.801240 1.901680
v 12.000001 3.801240 1.901680
v 12.000001 1.001240 5.301680
v 12.000001 0.001240 5.301680
v 12.000001 0.901240 5.501680
v 12.000001 0.001240 5.501680
v 12.000001 0.901240 6.501680
v 12.000001 0.001240 6.501680
v 6.793468 7.804996 1.481681
v 6.793468 8.937417 1.481681
v 12.000001 0.001240 6.501680
v 12.000001 0.901240 6.501680
v 12.000001 0.001240 5.501680
v 12.000001 0.901240 5.501680
v 12.000001 0.001240 5.301680
v 12.000001 1.001240 5.301680
v 14.799842 4.901240 1.683699
v 14.799842 4.998760 1.683699
v 15.000001 4.001240 1.701680
v 15.000001 4.901240 1.683699
v 15.200158 4.901240 1.683700
v 15.200158 4.998760 1.683700
v 15.200158 4.801240 1.901680
v 15.200158 4.898760 1.901680
v 14.799842 4.801240 1.901680
v 14.799842 4.898760 1.901680
v 15.200158 1.001240 5.301681
v 15.200158 1.098760 5.301681
v 14.799842 1.001240 5.301680
v 14.799842 1.098760 5.301680
v 15.200158 0.901240 5.501681
v 15.200158 0.998760 5.501681
v 14.799842 0.901240 5.501680
v 14.799842 0.998760 5.501680
v 15.200158 0.901240 6.501681
v 15.200158 0.998760 6.501681
v 14.799842 0.901240 6.501680
v 14.799842 0.998760 6.501680
v 15.000001 4.901240 1.683699
v 15.000001 4.001240 1.701680
v 15.000001 4.801240 1.901680
v 15.000001 3.801240 1.901680
v 15.000001 1.001240 5.301680
v 15.000001 0.001240 5.301680
v 15.000001 0.901240 5.501680
v 15.000001 0.001240 5.501680
v 15.000001 0.901240 6.501680
v 15.000001 0.001240 6.501680
v 15.000001 4.801240 1.901680
v 15.000001 3.801240 1.901680
v 15.000001 1.001240 5.301680
v 15.000001 0.001240 5.301680
v 15.000001 0.901240 5.501680
v 15.000001 0.001240 5.501680
v 15.000001 0.901240 6.501680
v 15.000001 0.001240 6.501680
v 15.000001 4.001240 0.001680
v 15.000001 4.001240 0.001680
v 15.337286 0.000000 5.500000
v 11.662711 0.000000 5.500000
v 15.337286 0.250000 5.500000
v 15.337286 4.000000 1.750000
v 15.337286 0.250000 5.125000
v 15.337286 0.625000 5.125000
v 15.337286 0.625000 4.750000
v 15.337286 1.000000 4.750000
v 15.337286 1.000000 4.375000
v 15.337286 1.375000 4.375000
v 15.337286 1.375000 4.000000
v 15.337286 1.750000 4.000000
v 15.337286 1.750000 3.625000
v 15.337286 2.125000 3.625000
v 15.337286 2.125000 3.250000
v 15.337286 2.500000 3.250000
v 15.337286 2.500000 2.875000
v 15.337286 2.875000 2.875000
v 15.337286 2.875000 2.500000
v 15.337286 3.250000 2.500000
v 15.337286 3.250000 2.125000
v 15.337286 3.625000 2.125000
v 15.337286 3.625000 1.750000
v 11.662711 4.000000 1.816818
v 11.662711 0.250000 5.500000
v 11.662711 3.725000 1.816818
v 11.662711 3.625000 2.125000
v 11.662711 3.250000 2.125000
v 11.662711 3.250000 2.500000
v 11.662711 2.875000 2.500000
v 11.662711 2.875000 2.875000
v 11.662711 2.500000 2.875000
v 11.662711 2.500000 3.250000
v 11.662711 2.125000 3.250000
v 11.662711 2.125000 3.625000
v 11.662711 1.750000 3.625000
v 11.662711 1.750000 4.000000
v 11.662711 1.375000 4.000000
v 11.662711 1.375000 4.375000
v 11.662711 1.000000 4.375000
v 11.662711 1.000000 4.750000
v 11.662711 0.625000 4.750000
v 11.662711 0.625000 5.125000
v 11.662711 0.250000 5.125000
v 7.911502 3.749866 1.816818
v 10.599281 4.005177 1.816818
v 6.793468 8.924634 1.281723
v 6.793468 9.022155 1.281723
v 6.793309 8.924634 1.683699
v 6.793309 9.022155 1.683699
v 6.793468 8.937417 1.481681
v 12.000001 3.801240 1.901680
v 6.793468 7.804996 1.481681
v 6.990369 7.800000 1.816818
v 4.933199 7.224999 1.816818
v 11.662711 0.025000 2.625000
v 6.911502 0.049866 2.625000
v 12.000001 4.801240 1.901680
v 12.000001 4.001240 1.701680
v 7.004153 8.827102 1.279601
v 7.004153 8.924622 1.279601
v 7.004153 8.827102 1.679917
v 7.004153 8.924622 1.679917
v 10.597931 5.001240 1.279601
v 10.597931 5.098760 1.279601
v 10.597930 5.001240 1.679917
v 10.597930 5.098760 1.679917
v 10.797931 4.901240 1.279601
v 10.797931 4.998760 1.279601
v 10.797930 4.901240 1.679917
v 10.797930 4.998760 1.679917
v 11.797931 4.901240 1.279601
v 11.797931 4.998760 1.279601
v 11.797930 4.901240 1.679917
v 11.797930 4.998760 1.679917
v 6.995628 5.648434 1.816818
v 6.786172 8.939884 1.479758
v 7.004153 8.839885 1.479758
v 7.004153 7.607463 1.479758
v 10.597930 5.001240 1.479758
v 10.597930 4.001240 1.479758
v 10.797930 4.901240 1.479758
v 10.797930 4.001240 1.479758
v 12.000001 4.901240 1.683699
v 12.000000 4.001240 1.481681
v 12.000000 4.901240 1.481681
v 11.798965 4.001240 1.480719
v 11.798965 4.901240 1.480719
v 10.597731 4.420288 1.816818
v 6.991870 7.600673 1.816818
v 7.391188 7.602245 1.816818
v 7.392687 7.202928 1.816818
v 7.792006 7.204501 1.816818
v 7.793504 6.805182 1.816818
v 8.192823 6.806756 1.816818
v 8.194321 6.407436 1.816818
v 8.593641 6.409011 1.816818
v 8.595138 6.009690 1.816818
v 8.994460 6.011267 1.816818
v 8.995955 5.611944 1.816818
v 9.395277 5.613522 1.816818
v 9.396771 5.214199 1.816818
v 9.796096 5.215777 1.816818
v 9.797588 4.816453 1.816818
v 10.196914 4.818033 1.816818
v 10.198405 4.418707 1.816818
v 10.797930 4.001240 1.479758
v -11.800000 4.901240 -1.281723
v -11.800000 4.998760 -1.281723
v -11.799842 4.901240 -1.683699
v -11.799842 4.998760 -1.683699
v -10.797930 4.901240 -1.479758
v -10.597930 4.001240 -1.479758
v -10.597930 5.001240 -1.479758
v -12.200158 4.901240 -1.683700
v -12.200158 4.998760 -1.683700
v -7.004153 7.607463 -1.479758
v -12.200158 4.801240 -1.901680
v -12.200158 4.898760 -1.901680
v -11.799842 4.801240 -1.901680
v -11.799842 4.898760 -1.901680
v -7.004153 8.839885 -1.479758
v -12.200158 1.001240 -5.301681
v -12.200158 1.098760 -5.301681
v -11.799842 1.001240 -5.301680
v -11.799842 1.098760 -5.301680
v -6.786172 8.939884 -1.479758
v -12.200158 0.901240 -5.501681
v -12.200158 0.998760 -5.501681
v -11.799842 0.901240 -5.501680
v -11.799842 0.998760 -5.501680
v -12.200158 0.901240 -6.501681
v -12.200158 0.998760 -6.501681
v -11.799842 0.901240 -6.501680
v -11.799842 0.998760 -6.501680
v -12.002193 4.901240 -1.280601
v -12.201180 4.901240 -1.479487
v -12.060769 4.901240 -1.420912
v -12.201180 4.998760 -1.479487
v -12.002193 4.998760 -1.280601
v -12.060769 4.998760 -1.420912
v -11.798965 4.901240 -1.480719
v -11.798965 4.001240 -1.480719
v -12.000000 4.901240 -1.481681
v -12.000000 4.001240 -1.481681
v -12.000001 4.901240 -1.683699
v -12.000001 4.001240 -1.701680
v -12.000001 4.801240 -1.901680
v -12.000001 3.801240 -1.901680
v -12.000001 1.001240 -5.301680
v -12.000001 0.001240 -5.301680
v -12.000001 0.901240 -5.501680
v -12.000001 0.001240 -5.501680
v -12.000001 0.901240 -6.501680
v -12.000001 0.001240 -6.501680
v -6.793468 7.804996 -1.481681
v -6.793468 8.937417 -1.481681
v -12.000001 0.001240 -6.501680
v -12.000001 0.901240 -6.501680
v -12.000001 0.001240 -5.501680
v -12.000001 0.901240 -5.501680
v -12.000001 0.001240 -5.301680
v -12.000001 1.001240 -5.301680
v -14.799842 4.901240 -1.683699
v -14.799842 4.998760 -1.683699
v -15.000001 4.001240 -1.701680
v -15.000001 4.901240 -1.683699
v -15.200158 4.901240 -1.683700
v -15.200158 4.998760 -1.683700
v -15.200158 4.801240 -1.901680
v -15.200158 4.898760 -1.901680
v -14.799842 4.801240 -1.901680
v -14.799842 4.898760 -1.901680
v -15.200158 1.001240 -5.301681
v -15.200158 1.098760 -5.301681
v -14.799842 1.001240 -5.301680
v -14.799842 1.098760 -5.301680
v -15.200158 0.901240 -5.501681
v -15.200158 0.998760 -5.501681
v -14.799842 0.901240 -5.501680
v -14.799842 0.998760 -5.501680
v -15.200158 0.901240 -6.501681
v -15.200158 0.998760 -6.501681
v -14.799842 0.901240 -6.501680
v -14.799842 0.998760 -6.501680
v -15.000001 4.901240 -1.683699
v -15.000001 4.001240 -1.701680
v -15.000001 4.801240 -1.901680
v -15.000001 3.801240 -1.901680
v -15.000001 1.001240 -5.301680
v -15.000001 0.001240 -5.301680
v -15.000001 0.901240 -5.501680
v -15.000001 0.001240 -5.501680
v -15.000001 0.901240 -6.501680
v -15.000001 0.001240 -6.501680
v -15.000001 4.801240 -1.901680
v -15.000001 3.801240 -1.901680
v -15.000001 1.001240 -5.301680
v -15.000001 0.001240 -5.301680
v -15.000001 0.901240 -5.501680
v -15.000001 0.001240 -5.501680
v -15.000001 0.901240 -6.501680
v -15.000001 0.001240 -6.501680
v -15.000001 4.001240 -0.001680
v -15.000001 4.001240 -0.001680
v -15.337286 0.000000 -5.500000
v -11.662711 0.000000 -5.500000
v -15.337286 0.250000 -5.500000
v -15.337286 4.000000 -1.750000
v -15.337286 0.250000 -5.125000
v -15.337286 0.625000 -5.125000
v -15.337286 0.625000 -4.750000
v -15.337286 1.000000 -4.750000
v -15.337286 1.000000 -4.375000
v -15.337286 1.375000 -4.375000
v -15.337286 1.375000 -4.000000
v -15.337286 1.750000 -4.000000
v -15.337286 1.750000 -3.625000
v -15.337286 2.125000 -3.625000
v -15.337286 2.125000 -3.250000
v -15.337286 2.500000 -3.250000
v -15.337286 2.500000 -2.875000
v -15.337286 2.875000 -2.875000
v -15.337286 2.875000 -2.500000
v -15.337286 3.250000 -2.500000
v -15.337286 3.250000 -2.125000
v -15.337286 3.625000 -2.125000
v -15.337286 3.625000 -1.750000
v -11.662711 4.000000 -1.816818
v -11.662711 0.250000 -5.500000
v -11.662711 3.725000 -1.816818
v -11.662711 3.625000 -2.125000
v -11.662711 3.250000 -2.125000
v -11.662711 3.250000 -2.500000
v -11.662711 2.875000 -2.500000
v -11.662711 2.875000 -2.875000
v -11.662711 2.500000 -2.875000
v -11.662711 2.500000 -3.250000
v -11.662711 2.125000 -3.250000
v -11.662711 2.125000 -3.625000
v -11.662711 1.750000 -3.625000
v -11.662711 1.750000 -4.000000
v -11.662711 1.375000 -4.000000
v -11.662711 1.375000 -4.375000
v -11.662711 1.000000 -4.375000
v -11.662711 1.000000 -4.750000
v -11.662711 0.625000 -4.750000
v -11.662711 0.625000 -5.125000
v -11.662711 0.250000 -5.125000
v -7.911502 3.749866 -1.816818
v -10.599281 4.005177 -1.816818
v -6.793468 8.924634 -1.281723
v -6.793468 9.022155 -1.281723
v -6.793309 8.924634 -1.683699
v -6.793309 9.022155 -1.683699
v -6.793468 8.937417 -1.481681
v -12.000001 3.801240 -1.901680
v -6.793468 7.804996 -1.481681
v -6.990369 7.800000 -1.816818
v -4.933199 7.224999 -1.816818
v -11.662711 0.025000 -2.625000
v -6.911502 0.049866 -2.625000
v -12.000001 4.801240 -1.901680
v -12.000001 4.001240 -1.701680
v -7.004153 8.827102 -1.279601
v -7.004153 8.924622 -1.279601
v -7.004153 8.827102 -1.679917
v -7.004153 8.924622 -1.679917
v -10.597931 5.001240 -1.279601
v -10.597931 5.098760 -1.279601
v -10.597930 5.001240 -1.679917
v -10.597930 5.098760 -1.679917
v -10.797931 4.901240 -1.279601
v -10.797931 4.998760 -1.279601
v -10.797930 4.901240 -1.679917
v -10.797930 4.998760 -1.679917
v -11.797931 4.901240 -1.279601
v -11.797931 4.998760 -1.279601
v -11.797930 4.901240 -1.679917
v -11.797930 4.998760 -1.679917
v -6.995628 5.648434 -1.816818
v -6.786172 8.939884 -1.479758
v -7.004153 8.839885 -1.479758
v -7.004153 7.607463 -1.479758
v -10.597930 5.001240 -1.479758
v -10.597930 4.001240 -1.479758
v -10.797930 4.901240 -1.479758
v -10.797930 4.001240 -1.479758
v -12.000001 4.901240 -1.683699
v -12.000000 4.001240 -1.481681
v -12.000000 4.901240 -1.481681
v -11.798965 4.001240 -1.480719
v -11.798965 4.901240 -1.480719
v -10.597731 4.420288 -1.816818
v -6.991870 7.600673 -1.816818
v -7.391188 7.602245 -1.816818
v -7.392687 7.202928 -1.816818
v -7.792006 7.204501 -1.816818
v -7.793504 6.805182 -1.816818
v -8.192823 6.806756 -1.816818
v -8.194321 6.407436 -1.816818
v -8.593641 6.409011 -1.816818
v -8.595138 6.009690 -1.816818
v -8.994460 6.011267 -1.816818
v -8.995955 5.611944 -1.816818
v -9.395277 5.613522 -1.816818
v -9.396771 5.214199 -1.816818
v -9.796096 5.215777 -1.816818
v -9.797588 4.816453 -1.816818
v -10.196914 4.818033 -1.816818
v -10.198405 4.418707 -1.816818
v 0.000000 8.910692 -1.682685
v 0.000000 9.027415 -1.281723
v 0.000000 8.923475 -1.481681
v 0.000000 9.027415 -1.682685
v 0.000000 8.910692 -1.281723
v 0.000000 8.691053 -1.481681
v 0.000000 7.801680 -1.481681
v 0.000000 7.801680 -1.481681
v 0.000000 7.205969 -1.816818
v 0.000000 7.800138 -1.816818
v -10.797930 4.001240 -1.479758
v 0.000000 8.923475 -1.481681
v 0.000000 7.801680 -1.481681
v 11.800000 4.901240 -1.281723
v 11.800000 4.998760 -1.281723
v 11.799842 4.901240 -1.683699
v 11.799842 4.998760 -1.683699
v 10.797930 4.901240 -1.479758
v 10.597930 4.001240 -1.479758
v 10.597930 5.001240 -1.479758
v 12.200158 4.901240 -1.683700
v 12.200158 4.998760 -1.683700
v 7.004153 7.607463 -1.479758
v 12.200158 4.801240 -1.901680
v 12.200158 4.898760 -1.901680
v 11.799842 4.801240 -1.901680
v 11.799842 4.898760 -1.901680
v 7.004153 8.839885 -1.479758
v 12.200158 1.001240 -5.301681
v 12.200158 1.098760 -5.301681
v 11.799842 1.001240 -5.301680
v 11.799842 1.098760 -5.301680
v 6.786172 8.939884 -1.479758
v 12.200158 0.901240 -5.501681
v 12.200158 0.998760 -5.501681
v 11.799842 0.901240 -5.501680
v 11.799842 0.998760 -5.501680
v 12.200158 0.901240 -6.501681
v 12.200158 0.998760 -6.501681
v 11.799842 0.901240 -6.501680
v 11.799842 0.998760 -6.501680
v 12.002193 4.901240 -1.280601
v 12.201180 4.901240 -1.479487
v 12.060769 4.901240 -1.420912
v 12.201180 4.998760 -1.479487
v 12.002193 4.998760 -1.280601
v 12.060769 4.998760 -1.420912
v 11.798965 4.901240 -1.480719
v 11.798965 4.001240 -1.480719
v 12.000000 4.901240 -1.481681
v 12.000000 4.001240 -1.481681
v 12.000001 4.901240 -1.683699
v 12.000001 4.001240 -1.701680
v 12.000001 4.801240 -1.901680
v 12.000001 3.801240 -1.901680
v 12.000001 1.001240 -5.301680
v 12.000001 0.001240 -5.301680
v 12.000001 0.901240 -5.501680
v 12.000001 0.001240 -5.501680
v 12.000001 0.901240 -6.501680
v 12.000001 0.001240 -6.501680
v 6.793468 7.804996 -1.481681
v 6.793468 8.937417 -1.481681
v 12.000001 0.001240 -6.501680
v 12.000001 0.901240 -6.501680
v 12.000001 0.001240 -5.501680
v 12.000001 0.901240 -5.501680
v 12.000001 0.001240 -5.301680
v 12.000001 1.001240 -5.301680
v 14.799842 4.901240 -1.683699
v 14.799842 4.998760 -1.683699
v 15.000001 4.001240 -1.701680
v 15.000001 4.901240 -1.683699
v 15.200158 4.901240 -1.683700
v 15.200158 4.998760 -1.683700
v 15.200158 4.801240 -1.901680
v 15.200158 4.898760 -1.901680
v 14.799842 4.801240 -1.901680
v 14.799842 4.898760 -1.901680
v 15.200158 1.001240 -5.301681
v 15.200158 1.098760 -5.301681
v 14.799842 1.001240 -5.301680
v 14.799842 1.098760 -5.301680
v 15.200158 0.901240 -5.501681
v 15.200158 0.998760 -5.501681
v 14.799842 0.901240 -5.501680
v 14.799842 0.998760 -5.501680
v 15.200158 0.901240 -6.501681
v 15.200158 0.998760 -6.501681
v 14.799842 0.901240 -6.501680
v 14.799842 0.998760 -6.501680
v 15.000001 4.901240 -1.683699
v 15.000001 4.001240 -1.701680
v 15.000001 4.801240 -1.901680
v 15.000001 3.801240 -1.901680
v 15.000001 1.001240 -5.301680
v 15.000001 0.001240 -5.301680
v 15.000001 0.901240 -5.501680
v 15.000001 0.001240 -5.501680
v 15.000001 0.901240 -6.501680
v 15.000001 0.001240 -6.501680
v 15.000001 4.801240 -1.901680
v 15.000001 3.801240 -1.901680
v 15.000001 1.001240 -5.301680
v 15.000001 0.001240 -5.301680
v 15.000001 0.901240 -5.501680
v 15.000001 0.001240 -5.501680
v 15.000001 0.901240 -6.501680
v 15.000001 0.001240 -6.501680
v 15.000001 4.001240 -0.001680
v 15.000001 4.001240 -0.001680
v 15.337286 0.000000 -5.500000
v 11.662711 0.000000 -5.500000
v 15.337286 0.250000 -5.500000
v 15.337286 4.000000 -1.750000
v 15.337286 0.250000 -5.125000
v 15.337286 0.625000 -5.125000
v 15.337286 0.625000 -4.750000
v 15.337286 1.000000 -4.750000
v 15.337286 1.000000 -4.375000
v 15.337286 1.375000 -4.375000
v 15.337286 1.375000 -4.000000
v 15.337286 1.750000 -4.000000
v 15.337286 1.750000 -3.625000
v 15.337286 2.125000 -3.625000
v 15.337286 2.125000 -3.250000
v 15.337286 2.500000 -3.250000
v 15.337286 2.500000 -2.875000
v 15.337286 2.875000 -2.875000
v 15.337286 2.875000 -2.500000
v 15.337286 3.250000 -2.500000
v 15.337286 3.250000 -2.125000
v 15.337286 3.625000 -2.125000
v 15.337286 3.625000 -1.750000
v 11.662711 4.000000 -1.816818
v 11.662711 0.250000 -5.500000
v 11.662711 3.725000 -1.816818
v 11.662711 3.625000 -2.125000
v 11.662711 3.250000 -2.125000
v 11.662711 3.250000 -2.500000
v 11.662711 2.875000 -2.500000
v 11.662711 2.875000 -2.875000
v 11.662711 2.500000 -2.875000
v 11.662711 2.500000 -3.250000
v 11.662711 2.125000 -3.250000
v 11.662711 2.125000 -3.625000
v 11.662711 1.750000 -3.625000
v 11.662711 1.750000 -4.000000
v 11.662711 1.375000 -4.000000
v 11.662711 1.375000 -4.375000
v 11.662711 1.000000 -4.375000
v 11.662711 1.000000 -4.750000
v 11.662711 0.625000 -4.750000
v 11.662711 0.625000 -5.125000
v 11.662711 0.250000 -5.125000
v 7.911502 3.749866 -1.816818
v 10.599281 4.005177 -1.816818
v 6.793468 8.924634 -1.281723
v 6.793468 9.022155 -1.281723
v 6.793309 8.924634 -1.683699
v 6.793309 9.022155 -1.683699
v 6.793468 8.937417 -1.481681
v 12.000001 3.801240 -1.901680
v 6.793468 7.804996 -1.481681
v 6.990369 7.800000 -1.816818
v 4.933199 7.224999 -1.816818
v 11.662711 0.025000 -2.625000
v 6.911502 0.049866 -2.625000
v 12.000001 4.801240 -1.901680
v 12.000001 4.001240 -1.701680
v 7.004153 8.827102 -1.279601
v 7.004153 8.924622 -1.279601
v 7.004153 8.827102 -1.679917
v 7.004153 8.924622 -1.679917
v 10.597931 5.001240 -1.279601
v 10.597931 5.098760 -1.279601
v 10.597930 5.001240 -1.679917
v 10.597930 5.098760 -1.679917
v 10.797931 4.901240 -1.279601
v 10.797931 4.998760 -1.279601
v 10.797930 4.901240 -1.679917
v 10.797930 4.998760 -1.679917
v 11.797931 4.901240 -1.279601
v 11.797931 4.998760 -1.279601
v 11.797930 4.901240 -1.679917
v 11.797930 4.998760 -1.679917
v 6.995628 5.648434 -1.816818
v 6.786172 8.939884 -1.479758
v 7.004153 8.839885 -1.479758
v 7.004153 7.607463 -1.479758
v 10.597930 5.001240 -1.479758
v 10.597930 4.001240 -1.479758
v 10.797930 4.901240 -1.479758
v 10.797930 4.001240 -1.479758
v 12.000001 4.901240 -1.683699
v 12.000000 4.001240 -1.481681
v 12.000000 4.901240 -1.481681
v 11.798965 4.001240 -1.480719
v 11.798965 4.901240 -1.480719
v 10.597731 4.420288 -1.816818
v 6.991870 7.600673 -1.816818
v 7.391188 7.602245 -1.816818
v 7.392687 7.202928 -1.816818
v 7.792006 7.204501 -1.816818
v 7.793504 6.805182 -1.816818
v 8.192823 6.806756 -1.816818
v 8.194321 6.407436 -1.816818
v 8.593641 6.409011 -1.816818
v 8.595138 6.009690 -1.816818
v 8.994460 6.011267 -1.816818
v 8.995955 5.611944 -1.816818
v 9.395277 5.613522 -1.816818
v 9.396771 5.214199 -1.816818
v 9.796096 5.215777 -1.816818
v 9.797588 4.816453 -1.816818
v 10.196914 4.818033 -1.816818
v 10.198405 4.418707 -1.816818
v 10.797930 4.001240 -1.479758
vn -0.0000 -0.0000 -1.0000
vn -0.0000 -1.0000 -0.0000
vn -0.0000 -0.9089 -0.4170
vn -0.0000 1.0000 -0.0000
vn -1.0000 -0.0000 0.0050
vn 1.0000 -0.0000 -0.0000
vn -0.0000 0.9089 0.4170
vn -0.0000 0.6668 0.7452
vn -0.0000 -0.8944 -0.4472
vn -1.0000 -0.0000 -0.0000
vn -0.0000 -0.6668 -0.7452
vn -0.0000 0.8944 0.4472
vn -0.0000 -0.0000 1.0000
vn 0.0010 -0.0000 1.0000
vn -0.0051 0.0008 1.0000
vn -0.7069 -0.0000 -0.7073
vn 0.0056 -0.0000 -1.0000
vn -0.0048 -0.0000 -1.0000
vn -0.0182 -0.0000 0.9998
vn -0.0148 0.9893 0.1448
vn -0.0049 1.0000 -0.0000
vn -0.0008 1.0000 -0.0000
vn -1.0000 0.0075 -0.0000
vn -1.0000 0.0037 -0.0000
vn 0.6073 -0.7945 -0.0000
vn -0.0012 0.2132 0.9770
vn 0.0051 -1.0000 -0.0002
vn -0.9947 0.0111 0.1020
vn 0.9654 0.2609 -0.0000
vn 0.4200 -0.9075 -0.0001
vn -0.0179 -0.0000 0.9998
vn -0.4200 0.9075 0.0001
vn -0.7289 0.6847 -0.0000
vn 0.4472 -0.8944 -0.0000
vn 0.7289 -0.6847 -0.0000
vn 0.0101 -0.0000 -0.9999
vn -0.4472 0.8944 -0.0000
vn 0.9007 -0.4345 -0.0000
vn 0.0051 -0.0008 -1.0000
vn -0.0010 -0.0000 -1.0000
vn 0.0039 1.0000 -0.0000
vn -1.0000 0.0038 -0.0000
vn 0.0040 1.0000 -0.0000
vn -0.0039 -1.0000 -0.0000
vn 0.0048 -0.0000 1.0000
vn 0.0001 -0.0000 1.0000
vn -0.0021 -1.0000 -0.0000
vn 1.0000 -0.0000 0.0050
vn -0.0010 -0.0000 1.0000
vn 0.0051 0.0008 1.0000
vn 0.7069 -0.0000 -0.7073
vn -0.0056 -0.0000 -1.0000
vn 0.0048 -0.0000 -1.0000
vn 0.0182 -0.0000 0.9998
vn 0.0148 0.9893 0.1448
vn 0.0049 1.0000 -0.0000
vn 0.0008 1.0000 -0.0000
vn 1.0000 0.0075 -0.0000
vn 1.0000 0.0037 -0.0000
vn -0.6073 -0.7945 -0.0000
vn 0.0012 0.2132 0.9770
vn -0.0051 -1.0000 -0.0002
vn 0.9947 0.0111 0.1020
vn -0.9654 0.2609 -0.0000
vn -0.4200 -0.9075 -0.0001
vn 0.0179 -0.0000 0.9998
vn 0.4200 0.9075 0.0001
vn 0.7289 0.6847 -0.0000
vn -0.4472 -0.8944 -0.0000
vn -0.7289 -0.6847 -0.0000
vn -0.0101 -0.0000 -0.9999
vn 0.4472 0.8944 -0.0000
vn -0.9007 -0.4345 -0.0000
vn -0.0051 -0.0008 -1.0000
vn 0.0010 -0.0000 -1.0000
vn -0.0039 1.0000 -0.0000
vn 1.0000 0.0038 -0.0000
vn -0.0040 1.0000 -0.0000
vn 0.0039 -1.0000 -0.0000
vn -0.0048 -0.0000 1.0000
vn -0.0001 -0.0000 1.0000
vn 0.0021 -1.0000 -0.0000
vn -0.0000 -0.9089 0.4170
vn -1.0000 -0.0000 -0.0050
vn -0.0000 0.9089 -0.4170
vn -0.0000 0.6668 -0.7452
vn -0.0000 -0.8944 0.4472
vn -0.0000 -0.6668 0.7452
vn -0.0000 0.8944 -0.4472
vn -0.0051 0.0008 -1.0000
vn -0.7069 -0.0000 0.7073
vn 0.0056 -0.0000 1.0000
vn -0.0182 -0.0000 -0.9998
vn -0.0148 0.9893 -0.1448
vn -0.0012 0.2132 -0.9770
vn 0.0051 -1.0000 0.0002
vn -0.9947 0.0111 -0.1020
vn 0.4200 -0.9075 0.0001
vn -0.0179 -0.0000 -0.9998
vn -0.4200 0.9075 -0.0001
vn 0.0101 -0.0000 0.9999
vn 0.0051 -0.0008 1.0000
vn 0.0001 -0.0000 -1.0000
vn 1.0000 -0.0000 -0.0050
vn 0.0051 0.0008 -1.0000
vn 0.7069 -0.0000 0.7073
vn -0.0056 -0.0000 1.0000
vn 0.0182 -0.0000 -0.9998
vn 0.0148 0.9893 -0.1448
vn 0.0012 0.2132 -0.9770
vn -0.0051 -1.0000 0.0002
vn 0.9947 0.0111 -0.1020
vn -0.4200 -0.9075 0.0001
vn 0.0179 -0.0000 -0.9998
vn 0.4200 0.9075 -0.0001
vn -0.0101 -0.0000 0.9999
vn -0.0051 -0.0008 1.0000
vn -0.0001 -0.0000 -1.0000
vt 0.971986 0.972094
vt 0.971986 0.979159
vt 0.971986 0.972094
vt 0.936493 0.877150
vt 0.936510 0.808648
vt 0.958434 0.808487
vt 0.964717 0.832518
vt 0.991282 0.807911
vt 0.888317 0.807911
vt 0.888317 0.890553
vt 0.991282 0.890553
vt 0.623699 0.652164
vt 0.776445 0.652164
vt 0.776445 0.675800
vt 0.623699 0.675800
vt 0.914552 0.808487
vt 0.936476 0.808648
vt 0.908269 0.832518
vt 0.920186 0.806965
vt 0.951341 0.806965
vt 0.951341 0.810299
vt 0.920186 0.810299
vt 0.900579 0.879023
vt 0.983221 0.879023
vt 0.983221 0.897148
vt 0.900579 0.897148
vt 0.898479 0.807077
vt 0.981121 0.807077
vt 0.981121 0.873792
vt 0.898479 0.873792
vt 0.893337 0.877150
vt 0.893208 0.842551
vt 0.973157 0.807911
vt 0.906442 0.807911
vt 0.973157 0.890553
vt 0.906442 0.890553
vt 0.974255 0.814324
vt 0.891613 0.814324
vt 0.891613 0.806432
vt 0.974255 0.806432
vt 0.906442 0.807911
vt 0.973157 0.807911
vt 0.973157 0.890553
vt 0.906442 0.890553
vt 0.971715 0.881454
vt 0.971715 0.806704
vt 0.925229 0.806704
vt 0.925230 0.881454
vt 0.991282 0.815045
vt 0.888317 0.815045
vt 0.906442 0.815045
vt 0.973157 0.815045
vt 0.744559 0.602793
vt 0.749006 0.601417
vt 0.749006 0.579310
vt 0.744559 0.580686
vt 0.920886 0.887861
vt 0.968078 0.887861
vt 0.968078 0.892464
vt 0.920886 0.892464
vt 0.973157 0.892215
vt 0.906442 0.892215
vt 0.888317 0.892215
vt 0.991282 0.892215
vt 0.769254 0.601417
vt 0.769254 0.579310
vt 0.640622 0.700731
vt 0.745709 0.626261
vt 0.745709 0.604155
vt 0.640622 0.678625
vt 0.951341 0.826793
vt 0.920186 0.826793
vt 0.635895 0.702389
vt 0.635895 0.680283
vt 0.951341 0.814331
vt 0.920186 0.812865
vt 0.745646 0.601416
vt 0.750094 0.600040
vt 0.750094 0.577933
vt 0.745646 0.579309
vt 0.926653 0.807162
vt 0.973846 0.807162
vt 0.973846 0.876637
vt 0.926653 0.876637
vt 0.979778 0.842551
vt 0.951341 0.812865
vt 0.920186 0.814331
vt 0.628721 0.701012
vt 0.628721 0.678906
vt 0.631295 0.678906
vt 0.631295 0.701012
vt 0.635832 0.701012
vt 0.635832 0.678906
vt 0.640559 0.677248
vt 0.640559 0.699354
vt 0.770341 0.577933
vt 0.770341 0.600040
vt 0.979649 0.877150
vt 0.634745 0.701823
vt 0.639472 0.700542
vt 0.639472 0.678436
vt 0.634745 0.679717
vt 0.639472 0.700731
vt 0.639472 0.678625
vt 0.978312 0.969520
vt 0.898374 0.969520
vt 0.898374 0.914368
vt 0.978312 0.914368
vt 0.933807 0.936765
vt 0.941244 0.943831
vt 0.971986 0.903791
vt 0.897914 0.943910
vt 0.977852 0.943910
vt 0.898374 0.903353
vt 0.978312 0.903353
vt 0.897914 0.943910
vt 0.898374 0.903353
vt 0.978312 0.903353
vt 0.977852 0.943910
vt 0.896618 0.903791
vt 0.904056 0.908502
vt 0.896618 0.908502
vt 0.904056 0.915568
vt 0.911494 0.915568
vt 0.970995 0.979159
vt 0.970995 0.972094
vt 0.963557 0.965028
vt 0.963557 0.972094
vt 0.911494 0.922633
vt 0.918931 0.922633
vt 0.918931 0.929699
vt 0.926369 0.929699
vt 0.926369 0.936765
vt 0.933807 0.943831
vt 0.941244 0.950897
vt 0.948682 0.950897
vt 0.948682 0.957962
vt 0.956119 0.957962
vt 0.956119 0.965028
vt 0.887508 0.944674
vt 0.998331 0.944674
vt 0.998331 0.945448
vt 0.887508 0.945448
vt 0.956119 0.965028
vt 0.956119 0.957962
vt 0.926369 0.929699
vt 0.974255 0.814324
vt 0.652351 0.680000
vt 0.617950 0.680000
vt 0.617950 0.682065
vt 0.618280 0.702106
vt 0.652351 0.702106
vt 0.938658 0.877328
vt 0.938658 0.807377
vt 0.980020 0.807377
vt 0.980020 0.877328
vt 0.938658 0.814847
vt 0.980020 0.814847
vt 0.998331 0.949975
vt 0.998331 0.908300
vt 0.887509 0.908300
vt 0.887509 0.949975
vt 0.998331 0.904771
vt 0.887509 0.904771
vt 0.970995 0.972094
vt 0.971986 0.972094
vt 0.976443 0.957711
vt 0.898083 0.956441
vt 0.898842 0.903299
vt 0.996897 0.904770
vt 0.000000 0.000000
vt 0.956982 0.987851
vt 0.930389 0.987851
vt 0.917092 0.903310
vt 0.956982 0.903310
vt 0.926208 0.936227
vt 0.916280 0.927466
vt 0.969491 0.903854
vt 0.887509 0.907202
vt 0.998331 0.907202
vt 0.887509 0.946336
vt 0.998331 0.946336
vt 0.887509 0.909084
vt 0.998331 0.909084
vt 0.887509 0.946378
vt 0.998331 0.946378
vt 0.887509 0.907285
vt 0.998331 0.907285
vt 0.887509 0.942738
vt 0.998331 0.942738
vt 0.887509 0.905486
vt 0.998331 0.905486
vt 0.887509 0.944620
vt 0.998331 0.944620
vt 0.887509 0.905527
vt 0.998331 0.905527
vt 0.887509 0.944661
vt 0.998331 0.944661
vt 0.887509 0.905568
vt 0.998331 0.905568
vt 0.887509 0.945623
vt 0.998331 0.945623
vt 0.887509 0.905610
vt 0.998331 0.905609
vt 0.887509 0.945664
vt 0.998331 0.945664
vt 0.887509 0.905650
vt 0.998331 0.905650
vt 0.887509 0.943864
vt 0.998331 0.943864
vt 0.974370 0.936855
vt 0.967240 0.936853
vt 0.967213 0.937420
vt 0.960084 0.937418
vt 0.960057 0.937985
vt 0.952927 0.937983
vt 0.952900 0.938550
vt 0.945771 0.938548
vt 0.945744 0.939115
vt 0.938614 0.939113
vt 0.938588 0.939681
vt 0.931458 0.939678
vt 0.931431 0.940246
vt 0.924301 0.940244
vt 0.924275 0.940811
vt 0.917145 0.940809
vt 0.917118 0.941376
vt 0.909988 0.941374
vt 0.909961 0.941964
vt 0.886909 0.941971
vt 0.886909 0.942362
vt 0.957950 0.942327
vt 0.974303 0.939629
vt 0.990466 0.936962
vt 0.978502 0.949766
vt 0.967426 0.946670
vt 0.940865 0.949767
vt 0.978510 0.948693
vt 0.980668 0.946552
vt 0.946063 0.953747
vt 0.936135 0.944987
vt 0.955991 0.962508
vt 0.965919 0.971268
vt 0.985522 0.991156
vt 0.975847 0.980028
vt 0.896424 0.909945
vt 0.886181 0.904143
vt 0.906352 0.918706
vt 0.908561 0.954217
vt 0.908561 0.950691
vt 0.974642 0.950691
vt 0.974642 0.954217
vt 0.998331 0.969342
vt 0.887508 0.969342
vt 0.980020 0.863091
vt 0.938658 0.863091
vt 0.980020 0.877105
vt 0.938658 0.877105
vt 0.940865 0.946568
s 0
f 16/1/1 15/2/1 38/2/1 39/3/1
f 42/4/2 47/5/2 69/6/2 70/7/2
f 52/8/3 50/9/3 47/10/3 42/11/3
f 89/12/1 255/13/1 256/14/1 88/15/1
f 71/16/4 48/17/4 43/4/4 73/18/4
f 69/19/5 47/20/5 48/21/5 71/22/5
f 43/23/6 53/24/6 52/25/6 42/26/6
f 48/27/7 51/28/7 53/29/7 43/30/7
f 41/31/4 72/32/4 73/18/4 43/4/4
f 51/8/8 56/9/8 58/10/8 53/11/8
f 57/8/9 62/9/9 60/10/9 55/11/9
f 50/33/10 55/34/10 56/9/10 51/8/10
f 52/35/11 57/36/11 55/34/11 50/33/11
f 47/37/10 50/38/10 51/39/10 48/40/10
f 56/41/12 61/42/12 63/43/12 58/44/12
f 66/45/2 64/46/2 60/47/2 62/48/2
f 55/49/10 60/50/10 61/51/10 56/52/10
f 53/11/6 58/10/6 57/36/6 52/35/6
f 46/53/13 44/54/13 254/55/13 45/56/13
f 63/57/6 67/58/6 66/59/6 62/60/6
f 58/61/6 63/62/6 62/63/6 57/64/6
f 44/54/14 225/65/14 224/66/14 254/55/14
f 54/67/13 46/68/13 45/69/13 49/70/13
f 64/19/13 66/20/13 67/71/13 65/72/13
f 59/73/15 54/67/15 49/70/15 88/74/15
f 60/19/10 64/20/10 65/75/10 61/76/10
f 95/77/6 93/78/6 92/79/6 94/80/6
f 61/81/4 65/82/4 67/83/4 63/84/4
f 68/85/2 70/7/2 69/6/2
f 71/16/4 73/18/4 72/32/4
f 68/19/16 69/20/16 71/86/16 72/76/16
f 40/19/17 68/20/17 72/86/17 41/87/17
f 74/88/18 75/89/18 77/90/18 76/91/18
f 78/92/10 79/93/10 81/94/10 80/95/10
f 76/91/10 77/90/10 79/93/10 78/92/10
f 80/95/10 81/94/10 83/80/10 82/77/10
f 84/78/10 85/79/10 87/96/10 86/97/10
f 82/77/10 83/80/10 85/79/10 84/78/10
f 42/4/2 70/7/2 68/85/2 40/98/2
f 104/8/3 102/9/3 100/10/3 96/11/3
f 99/99/6 128/100/6 129/101/6 98/102/6
f 97/23/6 105/24/6 104/25/6 96/26/6
f 101/27/7 103/28/7 105/29/7 97/30/7
f 103/8/8 107/9/8 109/10/8 105/11/8
f 108/8/9 112/9/9 110/10/9 106/11/9
f 102/33/10 106/34/10 107/9/10 103/8/10
f 104/35/11 108/36/11 106/34/11 102/33/11
f 100/37/10 102/38/10 103/39/10 101/40/10
f 107/41/12 111/42/12 113/43/12 109/44/12
f 116/45/2 114/46/2 110/47/2 112/48/2
f 106/49/10 110/50/10 111/51/10 107/52/10
f 105/11/6 109/10/6 108/36/6 104/35/6
f 113/57/6 117/58/6 116/59/6 112/60/6
f 109/61/6 113/62/6 112/63/6 108/64/6
f 130/53/6 132/54/6 133/55/6 131/56/6
f 114/19/13 116/20/13 117/71/13 115/72/13
f 128/103/6 130/53/6 131/56/6 129/104/6
f 110/19/10 114/20/10 115/75/10 111/76/10
f 132/54/6 134/65/6 135/66/6 133/55/6
f 111/81/4 115/82/4 117/83/4 113/84/4
f 118/99/10 119/102/10 121/101/10 120/100/10
f 120/103/10 121/104/10 123/56/10 122/53/10
f 124/54/10 125/55/10 127/66/10 126/65/10
f 122/53/10 123/56/10 125/55/10 124/54/10
f 3/105/4 2/106/4 141/107/4 161/108/4
f 150/109/10 152/110/10 1/111/10
f 161/108/19 141/107/19 160/112/19 163/113/19
f 163/113/20 160/112/20 159/114/20 164/115/20
f 164/115/13 159/114/13 158/112/13 165/113/13
f 165/113/4 158/112/4 157/114/4 166/115/4
f 166/115/13 157/114/13 156/112/13 167/113/13
f 167/113/4 156/112/4 155/114/4 168/115/4
f 168/115/13 155/114/13 154/116/13 169/113/13
f 169/113/4 154/116/4 153/117/4 170/115/4
f 170/115/13 153/117/13 152/116/13 171/113/13
f 171/113/4 152/116/4 151/114/4 172/115/4
f 172/115/13 151/114/13 150/112/13 173/113/13
f 173/113/4 150/112/4 149/117/4 174/118/4
f 174/118/13 149/117/13 148/116/13 175/119/13
f 175/119/4 148/116/4 147/114/4 176/115/4
f 176/115/13 147/114/13 146/112/13 177/119/13
f 177/119/4 146/112/4 145/114/4 178/118/4
f 178/118/13 145/114/13 144/112/13 179/113/13
f 179/113/4 144/112/4 143/114/4 180/118/4
f 180/118/13 143/114/13 142/112/13 181/119/13
f 181/119/4 142/112/4 140/114/4 162/115/4
f 139/119/13 162/115/13 140/114/13 138/116/13
f 1/111/10 138/120/10 142/121/10
f 138/120/10 140/122/10 142/121/10
f 142/121/10 143/123/10 144/124/10
f 141/125/10 2/2/10 160/126/10
f 2/2/10 1/111/10 160/126/10
f 158/127/10 159/128/10 160/126/10
f 1/111/10 142/121/10 144/124/10
f 144/124/10 145/129/10 146/130/10
f 146/130/10 147/131/10 148/132/10
f 148/132/10 149/133/10 150/109/10
f 150/109/10 151/134/10 152/110/10
f 152/110/10 153/135/10 154/136/10
f 154/136/10 155/137/10 156/138/10
f 156/138/10 157/139/10 158/127/10
f 158/127/10 160/126/10 1/111/10
f 1/111/10 144/124/10 146/130/10
f 1/111/10 146/130/10 148/132/10
f 156/138/10 158/127/10 1/111/10
f 154/136/10 156/138/10 1/111/10
f 1/111/10 148/132/10 150/109/10
f 152/110/10 154/136/10 1/111/10
f 3/140/21 161/141/21 183/142/21 14/143/21
f 163/126/6 164/128/6 165/127/6
f 162/122/6 139/120/6 181/121/6
f 179/124/6 180/123/6 181/121/6
f 165/127/6 166/144/6 167/145/6
f 167/145/6 168/137/6 169/136/6
f 169/136/6 170/135/6 171/110/6
f 171/110/6 172/134/6 173/109/6
f 173/109/6 174/133/6 175/146/6
f 175/146/6 176/131/6 177/130/6
f 177/130/6 178/129/6 179/124/6
f 97/23/6 96/26/6 8/26/6 11/23/6
f 101/27/4 97/30/4 11/30/4 7/27/4
f 100/37/10 101/40/10 7/40/10 6/147/10
f 96/11/2 100/10/2 6/10/2 8/11/2
f 119/148/6 137/149/6 5/150/6 9/151/6 118/152/6
f 99/152/10 10/151/10 4/150/10 136/149/10 98/148/10
f 247/153/22 245/154/22 185/155/22 187/156/22
f 248/157/1 184/158/1 185/155/1 245/154/1
f 227/159/23 191/160/23 15/161/23 37/162/23
f 14/143/24 183/142/24 226/163/24 20/164/24
f 213/165/25 19/166/25 16/1/25 192/126/25
f 182/167/26 163/168/26 193/169/26 194/170/26
f 193/126/27 17/1/27 18/166/27 194/165/27
f 163/171/28 12/171/28 17/171/28 193/171/28
f 13/172/29 182/173/29 194/174/29 18/175/29
f 175/176/6 177/177/6 193/178/6
f 199/8/30 197/9/30 184/10/30 186/11/30
f 93/78/6 91/97/6 90/96/6 92/79/6
f 187/23/31 200/24/31 199/25/31 186/26/31
f 185/27/32 198/28/32 200/29/32 187/30/32
f 198/8/33 202/9/33 204/10/33 200/11/33
f 203/8/34 207/9/34 205/10/34 201/11/34
f 197/33/1 201/34/1 202/9/1 198/8/1
f 199/35/35 203/36/35 201/34/35 197/33/35
f 184/37/36 197/38/36 198/39/36 185/40/36
f 202/41/37 206/42/37 208/43/37 204/44/37
f 211/45/2 209/46/2 205/47/2 207/48/2
f 201/49/1 205/50/1 206/51/1 202/52/1
f 200/11/13 204/10/13 203/36/13 199/35/13
f 208/57/13 212/58/13 211/59/13 207/60/13
f 204/61/13 208/62/13 207/63/13 203/64/13
f 195/95/6 95/77/6 94/80/6 189/94/6
f 182/165/38 13/166/38 19/166/38 213/165/38
f 209/19/10 211/20/10 212/71/10 210/72/10
f 223/91/6 221/92/6 196/93/6 222/90/6
f 205/19/1 209/20/1 210/75/1 206/76/1
f 221/92/6 195/95/6 189/94/6 196/93/6
f 206/81/4 210/82/4 212/83/4 208/84/4
f 214/73/39 190/74/39 216/70/39 215/67/39
f 215/67/1 216/70/1 218/69/1 217/68/1
f 219/54/40 220/55/40 75/66/40 74/65/40
f 217/53/1 218/56/1 220/55/1 219/54/1
f 227/159/41 37/162/41 36/179/41 228/180/41
f 228/180/42 36/179/42 35/181/42 229/182/42
f 229/182/41 35/181/41 34/183/41 230/184/41
f 230/184/42 34/183/42 33/185/42 231/186/42
f 231/186/41 33/185/41 32/187/41 232/188/41
f 232/188/24 32/187/24 31/189/24 233/190/24
f 233/190/41 31/189/41 30/191/41 234/192/41
f 234/192/24 30/191/24 29/193/24 235/194/24
f 235/194/41 29/193/41 28/195/41 236/196/41
f 236/196/24 28/195/24 27/197/24 237/198/24
f 237/198/43 27/197/43 26/199/43 238/200/43
f 238/200/24 26/199/24 25/201/24 239/202/24
f 239/202/43 25/201/43 24/203/43 240/204/43
f 240/204/24 24/203/24 23/205/24 241/206/24
f 241/206/43 23/205/43 22/207/43 242/208/43
f 242/208/24 22/207/24 21/209/24 243/210/24
f 243/210/43 21/209/43 20/164/43 226/163/43
f 227/211/13 228/212/13 229/213/13
f 229/213/13 230/214/13 231/215/13
f 231/215/13 232/216/13 233/217/13
f 233/217/13 234/218/13 235/219/13
f 235/219/13 236/220/13 237/221/13
f 237/221/13 238/222/13 239/223/13
f 239/223/13 240/224/13 241/225/13
f 241/225/13 242/226/13 243/227/13
f 243/227/13 226/228/13 183/229/13
f 183/229/13 161/230/13 163/231/13
f 182/232/13 213/233/13 237/221/13
f 213/233/13 192/234/13 229/213/13
f 191/235/13 192/236/13 253/237/13
f 183/229/13 163/231/13 182/232/13
f 241/225/13 243/227/13 182/232/13
f 243/227/13 183/229/13 182/232/13
f 237/221/13 239/223/13 182/232/13
f 239/223/13 241/225/13 182/232/13
f 235/219/13 237/221/13 213/233/13
f 229/213/13 231/215/13 213/233/13
f 231/215/13 233/217/13 213/233/13
f 233/217/13 235/219/13 213/233/13
f 192/236/13 227/238/13 229/239/13
f 171/240/6 173/241/6 193/178/6
f 173/241/6 175/176/6 193/178/6
f 169/242/6 171/240/6 193/178/6
f 167/243/6 169/242/6 193/178/6
f 193/178/6 163/244/6 165/245/6
f 181/246/6 139/247/6 193/178/6
f 179/248/6 181/246/6 193/178/6
f 193/178/6 165/245/6 167/243/6
f 177/177/6 179/248/6 193/178/6
f 192/249/44 16/250/44 39/251/44 252/252/44
f 15/161/4 191/160/4 253/253/4 38/254/4
f 225/88/45 223/91/45 222/90/45 224/89/45
f 188/12/13 190/15/13 251/14/13 246/13/13
f 186/255/46 244/256/46 247/153/46 187/156/46
f 186/155/47 184/257/47 248/258/47 244/154/47
f 227/238/13 192/236/13 191/235/13
f 253/237/13 192/236/13 252/259/13
f 272/1/1 39/3/1 38/2/1 271/2/1
f 296/4/2 324/7/2 323/6/2 301/5/2
f 306/8/3 296/11/3 301/10/3 304/9/3
f 343/12/1 342/15/1 256/14/1 255/13/1
f 325/16/4 327/18/4 297/4/4 302/17/4
f 323/19/48 325/22/48 302/21/48 301/20/48
f 297/23/10 296/26/10 306/25/10 307/24/10
f 302/27/7 297/30/7 307/29/7 305/28/7
f 295/31/4 297/4/4 327/18/4 326/32/4
f 305/8/8 307/11/8 312/10/8 310/9/8
f 311/8/9 309/11/9 314/10/9 316/9/9
f 304/33/6 305/8/6 310/9/6 309/34/6
f 306/35/11 304/33/11 309/34/11 311/36/11
f 301/37/6 302/40/6 305/39/6 304/38/6
f 310/41/12 312/44/12 317/43/12 315/42/12
f 320/45/2 316/48/2 314/47/2 318/46/2
f 309/49/6 310/52/6 315/51/6 314/50/6
f 307/11/10 306/35/10 311/36/10 312/10/10
f 300/53/13 299/56/13 498/55/13 298/54/13
f 317/57/10 316/60/10 320/59/10 321/58/10
f 312/61/10 311/64/10 316/63/10 317/62/10
f 298/54/49 498/55/49 478/66/49 479/65/49
f 308/67/13 303/70/13 299/69/13 300/68/13
f 318/19/13 319/72/13 321/71/13 320/20/13
f 313/73/50 342/74/50 303/70/50 308/67/50
f 314/19/6 315/76/6 319/75/6 318/20/6
f 349/77/10 348/80/10 346/79/10 347/78/10
f 315/81/4 317/84/4 321/83/4 319/82/4
f 322/85/2 323/6/2 324/7/2
f 325/16/4 326/32/4 327/18/4
f 322/19/51 326/76/51 325/86/51 323/20/51
f 294/19/52 295/87/52 326/86/52 322/20/52
f 328/88/53 330/91/53 331/90/53 329/89/53
f 332/92/6 334/95/6 335/94/6 333/93/6
f 330/91/6 332/92/6 333/93/6 331/90/6
f 334/95/6 336/77/6 337/80/6 335/94/6
f 338/78/6 340/97/6 341/96/6 339/79/6
f 336/77/6 338/78/6 339/79/6 337/80/6
f 296/4/2 294/98/2 322/85/2 324/7/2
f 358/8/3 350/11/3 354/10/3 356/9/3
f 353/99/10 352/102/10 383/101/10 382/100/10
f 351/23/10 350/26/10 358/25/10 359/24/10
f 355/27/7 351/30/7 359/29/7 357/28/7
f 357/8/8 359/11/8 363/10/8 361/9/8
f 362/8/9 360/11/9 364/10/9 366/9/9
f 356/33/6 357/8/6 361/9/6 360/34/6
f 358/35/11 356/33/11 360/34/11 362/36/11
f 354/37/6 355/40/6 357/39/6 356/38/6
f 361/41/12 363/44/12 367/43/12 365/42/12
f 370/45/2 366/48/2 364/47/2 368/46/2
f 360/49/6 361/52/6 365/51/6 364/50/6
f 359/11/10 358/35/10 362/36/10 363/10/10
f 367/57/10 366/60/10 370/59/10 371/58/10
f 363/61/10 362/64/10 366/63/10 367/62/10
f 384/53/10 385/56/10 387/55/10 386/54/10
f 368/19/13 369/72/13 371/71/13 370/20/13
f 382/103/10 383/104/10 385/56/10 384/53/10
f 364/19/6 365/76/6 369/75/6 368/20/6
f 386/54/10 387/55/10 389/66/10 388/65/10
f 365/81/4 367/84/4 371/83/4 369/82/4
f 372/99/6 374/100/6 375/101/6 373/102/6
f 374/103/6 376/53/6 377/56/6 375/104/6
f 378/54/6 380/65/6 381/66/6 379/55/6
f 376/53/6 378/54/6 379/55/6 377/56/6
f 259/105/4 415/108/4 395/107/4 258/106/4
f 404/109/6 257/111/6 406/110/6
f 415/108/54 417/113/54 414/112/54 395/107/54
f 417/113/55 418/115/55 413/114/55 414/112/55
f 418/115/13 419/113/13 412/112/13 413/114/13
f 419/113/4 420/115/4 411/114/4 412/112/4
f 420/115/13 421/113/13 410/112/13 411/114/13
f 421/113/4 422/115/4 409/114/4 410/112/4
f 422/115/13 423/113/13 408/116/13 409/114/13
f 423/113/4 424/115/4 407/117/4 408/116/4
f 424/115/13 425/113/13 406/116/13 407/117/13
f 425/113/4 426/115/4 405/114/4 406/116/4
f 426/115/13 427/113/13 404/112/13 405/114/13
f 427/113/4 428/118/4 403/117/4 404/112/4
f 428/118/13 429/119/13 402/116/13 403/117/13
f 429/119/4 430/115/4 401/114/4 402/116/4
f 430/115/13 431/119/13 400/112/13 401/114/13
f 431/119/4 432/118/4 399/114/4 400/112/4
f 432/118/13 433/113/13 398/112/13 399/114/13
f 433/113/4 434/118/4 397/114/4 398/112/4
f 434/118/13 435/119/13 396/112/13 397/114/13
f 435/119/4 416/115/4 394/114/4 396/112/4
f 393/119/13 392/116/13 394/114/13 416/115/13
f 257/111/6 396/121/6 392/120/6
f 392/120/6 396/121/6 394/122/6
f 396/121/6 398/124/6 397/123/6
f 395/125/6 414/126/6 258/2/6
f 258/2/6 414/126/6 257/111/6
f 412/127/6 414/126/6 413/128/6
f 257/111/6 398/124/6 396/121/6
f 398/124/6 400/130/6 399/129/6
f 400/130/6 402/132/6 401/131/6
f 402/132/6 404/109/6 403/133/6
f 404/109/6 406/110/6 405/134/6
f 406/110/6 408/136/6 407/135/6
f 408/136/6 410/138/6 409/137/6
f 410/138/6 412/127/6 411/139/6
f 412/127/6 257/111/6 414/126/6
f 257/111/6 400/130/6 398/124/6
f 257/111/6 402/132/6 400/130/6
f 410/138/6 257/111/6 412/127/6
f 408/136/6 257/111/6 410/138/6
f 257/111/6 404/109/6 402/132/6
f 406/110/6 257/111/6 408/136/6
f 259/140/56 270/143/56 437/142/56 415/141/56
f 417/126/10 419/127/10 418/128/10
f 416/122/10 435/121/10 393/120/10
f 433/124/10 435/121/10 434/123/10
f 419/127/10 421/145/10 420/144/10
f 421/145/10 423/136/10 422/137/10
f 423/136/10 425/110/10 424/135/10
f 425/110/10 427/109/10 426/134/10
f 427/109/10 429/146/10 428/133/10
f 429/146/10 431/130/10 430/131/10
f 431/130/10 433/124/10 432/129/10
f 351/23/10 267/23/10 264/26/10 350/26/10
f 355/27/4 263/27/4 267/30/4 351/30/4
f 354/37/6 262/147/6 263/40/6 355/40/6
f 350/11/2 264/11/2 262/10/2 354/10/2
f 373/148/10 372/152/10 265/151/10 261/150/10 391/149/10
f 353/152/6 352/148/6 390/149/6 260/150/6 266/151/6
f 247/153/57 441/156/57 439/155/57 245/154/57
f 248/157/1 245/154/1 439/155/1 438/158/1
f 481/159/58 293/162/58 271/161/58 445/160/58
f 270/143/59 276/164/59 480/163/59 437/142/59
f 467/165/60 446/126/60 272/1/60 275/166/60
f 436/167/61 448/170/61 447/169/61 417/168/61
f 447/126/62 448/165/62 274/166/62 273/1/62
f 417/171/63 447/171/63 273/171/63 268/171/63
f 269/172/64 274/175/64 448/174/64 436/173/64
f 429/176/10 447/178/10 431/177/10
f 453/8/65 440/11/65 438/10/65 451/9/65
f 347/78/10 346/79/10 344/96/10 345/97/10
f 441/23/66 440/26/66 453/25/66 454/24/66
f 439/27/67 441/30/67 454/29/67 452/28/67
f 452/8/68 454/11/68 458/10/68 456/9/68
f 457/8/69 455/11/69 459/10/69 461/9/69
f 451/33/1 452/8/1 456/9/1 455/34/1
f 453/35/70 451/33/70 455/34/70 457/36/70
f 438/37/71 439/40/71 452/39/71 451/38/71
f 456/41/72 458/44/72 462/43/72 460/42/72
f 465/45/2 461/48/2 459/47/2 463/46/2
f 455/49/1 456/52/1 460/51/1 459/50/1
f 454/11/13 453/35/13 457/36/13 458/10/13
f 462/57/13 461/60/13 465/59/13 466/58/13
f 458/61/13 457/64/13 461/63/13 462/62/13
f 449/95/10 443/94/10 348/80/10 349/77/10
f 436/165/73 467/165/73 275/166/73 269/166/73
f 463/19/6 464/72/6 466/71/6 465/20/6
f 477/91/10 476/90/10 450/93/10 475/92/10
f 459/19/1 460/76/1 464/75/1 463/20/1
f 475/92/10 450/93/10 443/94/10 449/95/10
f 460/81/4 462/84/4 466/83/4 464/82/4
f 468/73/74 469/67/74 470/70/74 444/74/74
f 469/67/1 471/68/1 472/69/1 470/70/1
f 473/54/75 328/65/75 329/66/75 474/55/75
f 471/53/1 473/54/1 474/55/1 472/56/1
f 481/159/76 482/180/76 292/179/76 293/162/76
f 482/180/77 483/182/77 291/181/77 292/179/77
f 483/182/76 484/184/76 290/183/76 291/181/76
f 484/184/77 485/186/77 289/185/77 290/183/77
f 485/186/76 486/188/76 288/187/76 289/185/76
f 486/188/59 487/190/59 287/189/59 288/187/59
f 487/190/76 488/192/76 286/191/76 287/189/76
f 488/192/59 489/194/59 285/193/59 286/191/59
f 489/194/76 490/196/76 284/195/76 285/193/76
f 490/196/59 491/198/59 283/197/59 284/195/59
f 491/198/78 492/200/78 282/199/78 283/197/78
f 492/200/59 493/202/59 281/201/59 282/199/59
f 493/202/78 494/204/78 280/203/78 281/201/78
f 494/204/59 495/206/59 279/205/59 280/203/59
f 495/206/78 496/208/78 278/207/78 279/205/78
f 496/208/59 497/210/59 277/209/59 278/207/59
f 497/210/78 480/163/78 276/164/78 277/209/78
f 481/211/13 483/213/13 482/212/13
f 483/213/13 485/215/13 484/214/13
f 485/215/13 487/217/13 486/216/13
f 487/217/13 489/219/13 488/218/13
f 489/219/13 491/221/13 490/220/13
f 491/221/13 493/223/13 492/222/13
f 493/223/13 495/225/13 494/224/13
f 495/225/13 497/227/13 496/226/13
f 497/227/13 437/229/13 480/228/13
f 437/229/13 417/231/13 415/230/13
f 436/232/13 491/221/13 467/233/13
f 467/233/13 483/213/13 446/234/13
f 445/235/13 253/237/13 446/236/13
f 437/229/13 436/232/13 417/231/13
f 495/225/13 436/232/13 497/227/13
f 497/227/13 436/232/13 437/229/13
f 491/221/13 436/232/13 493/223/13
f 493/223/13 436/232/13 495/225/13
f 489/219/13 467/233/13 491/221/13
f 483/213/13 467/233/13 485/215/13
f 485/215/13 467/233/13 487/217/13
f 487/217/13 467/233/13 489/219/13
f 446/236/13 483/239/13 481/238/13
f 425/240/10 447/178/10 427/241/10
f 427/241/10 447/178/10 429/176/10
f 423/242/10 447/178/10 425/240/10
f 421/243/10 447/178/10 423/242/10
f 447/178/10 419/245/10 417/244/10
f 435/246/10 447/178/10 393/247/10
f 433/248/10 447/178/10 435/246/10
f 447/178/10 421/243/10 419/245/10
f 431/177/10 447/178/10 433/248/10
f 446/249/79 252/252/79 39/251/79 272/250/79
f 271/161/4 38/254/4 253/253/4 445/160/4
f 479/88/80 478/89/80 476/90/80 477/91/80
f 442/12/13 246/13/13 251/14/13 444/15/13
f 440/255/81 441/156/81 247/153/81 244/256/81
f 440/155/82 244/154/82 248/258/82 438/257/82
f 481/238/13 445/235/13 446/236/13
f 253/237/13 252/259/13 446/236/13
f 501/4/2 529/7/2 528/6/2 506/5/2
f 511/8/83 501/11/83 506/10/83 509/9/83
f 548/12/13 547/15/13 715/14/13 714/13/13
f 530/16/4 532/18/4 502/4/4 507/17/4
f 528/19/84 530/22/84 507/21/84 506/20/84
f 502/23/6 501/26/6 511/25/6 512/24/6
f 507/27/85 502/30/85 512/29/85 510/28/85
f 500/31/4 502/4/4 532/18/4 531/32/4
f 510/8/86 512/11/86 517/10/86 515/9/86
f 516/8/87 514/11/87 519/10/87 521/9/87
f 509/33/10 510/8/10 515/9/10 514/34/10
f 511/35/88 509/33/88 514/34/88 516/36/88
f 506/37/10 507/40/10 510/39/10 509/38/10
f 515/41/89 517/44/89 522/43/89 520/42/89
f 525/45/2 521/48/2 519/47/2 523/46/2
f 514/49/10 515/52/10 520/51/10 519/50/10
f 512/11/6 511/35/6 516/36/6 517/10/6
f 505/53/1 504/56/1 713/55/1 503/54/1
f 522/57/6 521/60/6 525/59/6 526/58/6
f 517/61/6 516/64/6 521/63/6 522/62/6
f 503/54/75 713/55/75 683/66/75 684/65/75
f 513/67/1 508/70/1 504/69/1 505/68/1
f 523/19/1 524/72/1 526/71/1 525/20/1
f 518/73/90 547/74/90 508/70/90 513/67/90
f 519/19/10 520/76/10 524/75/10 523/20/10
f 554/77/6 553/80/6 551/79/6 552/78/6
f 520/81/4 522/84/4 526/83/4 524/82/4
f 527/85/2 528/6/2 529/7/2
f 530/16/4 531/32/4 532/18/4
f 527/19/91 531/76/91 530/86/91 528/20/91
f 499/19/92 500/87/92 531/86/92 527/20/92
f 533/88/80 535/91/80 536/90/80 534/89/80
f 537/92/10 539/95/10 540/94/10 538/93/10
f 535/91/10 537/92/10 538/93/10 536/90/10
f 539/95/10 541/77/10 542/80/10 540/94/10
f 543/78/10 545/97/10 546/96/10 544/79/10
f 541/77/10 543/78/10 544/79/10 542/80/10
f 501/4/2 499/98/2 527/85/2 529/7/2
f 563/8/83 555/11/83 559/10/83 561/9/83
f 558/99/6 557/102/6 588/101/6 587/100/6
f 556/23/6 555/26/6 563/25/6 564/24/6
f 560/27/85 556/30/85 564/29/85 562/28/85
f 562/8/86 564/11/86 568/10/86 566/9/86
f 567/8/87 565/11/87 569/10/87 571/9/87
f 561/33/10 562/8/10 566/9/10 565/34/10
f 563/35/88 561/33/88 565/34/88 567/36/88
f 559/37/10 560/40/10 562/39/10 561/38/10
f 566/41/89 568/44/89 572/43/89 570/42/89
f 575/45/2 571/48/2 569/47/2 573/46/2
f 565/49/10 566/52/10 570/51/10 569/50/10
f 564/11/6 563/35/6 567/36/6 568/10/6
f 572/57/6 571/60/6 575/59/6 576/58/6
f 568/61/6 567/64/6 571/63/6 572/62/6
f 589/53/6 590/56/6 592/55/6 591/54/6
f 573/19/1 574/72/1 576/71/1 575/20/1
f 587/103/6 588/104/6 590/56/6 589/53/6
f 569/19/10 570/76/10 574/75/10 573/20/10
f 591/54/6 592/55/6 594/66/6 593/65/6
f 570/81/4 572/84/4 576/83/4 574/82/4
f 577/99/10 579/100/10 580/101/10 578/102/10
f 579/103/10 581/53/10 582/56/10 580/104/10
f 583/54/10 585/65/10 586/66/10 584/55/10
f 581/53/10 583/54/10 584/55/10 582/56/10
f 3/105/4 620/108/4 600/107/4 2/106/4
f 609/109/10 1/111/10 611/110/10
f 620/108/93 622/113/93 619/112/93 600/107/93
f 622/113/94 623/115/94 618/114/94 619/112/94
f 623/115/1 624/113/1 617/112/1 618/114/1
f 624/113/4 625/115/4 616/114/4 617/112/4
f 625/115/1 626/113/1 615/112/1 616/114/1
f 626/113/4 627/115/4 614/114/4 615/112/4
f 627/115/1 628/113/1 613/116/1 614/114/1
f 628/113/4 629/115/4 612/117/4 613/116/4
f 629/115/1 630/113/1 611/116/1 612/117/1
f 630/113/4 631/115/4 610/114/4 611/116/4
f 631/115/1 632/113/1 609/112/1 610/114/1
f 632/113/4 633/118/4 608/117/4 609/112/4
f 633/118/1 634/119/1 607/116/1 608/117/1
f 634/119/4 635/115/4 606/114/4 607/116/4
f 635/115/1 636/119/1 605/112/1 606/114/1
f 636/119/4 637/118/4 604/114/4 605/112/4
f 637/118/1 638/113/1 603/112/1 604/114/1
f 638/113/4 639/118/4 602/114/4 603/112/4
f 639/118/1 640/119/1 601/112/1 602/114/1
f 640/119/4 621/115/4 599/114/4 601/112/4
f 598/119/1 597/116/1 599/114/1 621/115/1
f 1/111/10 601/121/10 597/120/10
f 597/120/10 601/121/10 599/122/10
f 601/121/10 603/124/10 602/123/10
f 600/125/10 619/126/10 2/2/10
f 2/2/10 619/126/10 1/111/10
f 617/127/10 619/126/10 618/128/10
f 1/111/10 603/124/10 601/121/10
f 603/124/10 605/130/10 604/129/10
f 605/130/10 607/132/10 606/131/10
f 607/132/10 609/109/10 608/133/10
f 609/109/10 611/110/10 610/134/10
f 611/110/10 613/136/10 612/135/10
f 613/136/10 615/138/10 614/137/10
f 615/138/10 617/127/10 616/139/10
f 617/127/10 1/111/10 619/126/10
f 1/111/10 605/130/10 603/124/10
f 1/111/10 607/132/10 605/130/10
f 615/138/10 1/111/10 617/127/10
f 613/136/10 1/111/10 615/138/10
f 1/111/10 609/109/10 607/132/10
f 611/110/10 1/111/10 613/136/10
f 3/140/21 14/143/21 642/142/21 620/141/21
f 622/126/6 624/127/6 623/128/6
f 621/122/6 640/121/6 598/120/6
f 638/124/6 640/121/6 639/123/6
f 624/127/6 626/145/6 625/144/6
f 626/145/6 628/136/6 627/137/6
f 628/136/6 630/110/6 629/135/6
f 630/110/6 632/109/6 631/134/6
f 632/109/6 634/146/6 633/133/6
f 634/146/6 636/130/6 635/131/6
f 636/130/6 638/124/6 637/129/6
f 556/23/6 11/23/6 8/26/6 555/26/6
f 560/27/4 7/27/4 11/30/4 556/30/4
f 559/37/10 6/147/10 7/40/10 560/40/10
f 555/11/2 8/11/2 6/10/2 559/10/2
f 578/148/6 577/152/6 9/151/6 5/150/6 596/149/6
f 558/152/10 557/148/10 595/149/10 4/150/10 10/151/10
f 706/153/22 646/156/22 644/155/22 704/154/22
f 707/157/13 704/154/13 644/155/13 643/158/13
f 686/159/23 37/162/23 15/161/23 650/160/23
f 14/143/24 20/164/24 685/163/24 642/142/24
f 672/165/25 651/126/25 16/1/25 19/166/25
f 641/167/95 653/170/95 652/169/95 622/168/95
f 652/126/96 653/165/96 18/166/96 17/1/96
f 622/171/97 652/171/97 17/171/97 12/171/97
f 13/172/29 18/175/29 653/174/29 641/173/29
f 634/176/6 652/178/6 636/177/6
f 658/8/98 645/11/98 643/10/98 656/9/98
f 552/78/6 551/79/6 549/96/6 550/97/6
f 646/23/99 645/26/99 658/25/99 659/24/99
f 644/27/100 646/30/100 659/29/100 657/28/100
f 657/8/33 659/11/33 663/10/33 661/9/33
f 662/8/34 660/11/34 664/10/34 666/9/34
f 656/33/13 657/8/13 661/9/13 660/34/13
f 658/35/35 656/33/35 660/34/35 662/36/35
f 643/37/101 644/40/101 657/39/101 656/38/101
f 661/41/37 663/44/37 667/43/37 665/42/37
f 670/45/2 666/48/2 664/47/2 668/46/2
f 660/49/13 661/52/13 665/51/13 664/50/13
f 659/11/1 658/35/1 662/36/1 663/10/1
f 667/57/1 666/60/1 670/59/1 671/58/1
f 663/61/1 662/64/1 666/63/1 667/62/1
f 654/95/6 648/94/6 553/80/6 554/77/6
f 641/165/38 672/165/38 19/166/38 13/166/38
f 668/19/10 669/72/10 671/71/10 670/20/10
f 682/91/6 681/90/6 655/93/6 680/92/6
f 664/19/13 665/76/13 669/75/13 668/20/13
f 680/92/6 655/93/6 648/94/6 654/95/6
f 665/81/4 667/84/4 671/83/4 669/82/4
f 673/73/102 674/67/102 675/70/102 649/74/102
f 674/67/13 676/68/13 677/69/13 675/70/13
f 678/54/49 533/65/49 534/66/49 679/55/49
f 676/53/13 678/54/13 679/55/13 677/56/13
f 686/159/41 687/180/41 36/179/41 37/162/41
f 687/180/42 688/182/42 35/181/42 36/179/42
f 688/182/41 689/184/41 34/183/41 35/181/41
f 689/184/42 690/186/42 33/185/42 34/183/42
f 690/186/41 691/188/41 32/187/41 33/185/41
f 691/188/24 692/190/24 31/189/24 32/187/24
f 692/190/41 693/192/41 30/191/41 31/189/41
f 693/192/24 694/194/24 29/193/24 30/191/24
f 694/194/41 695/196/41 28/195/41 29/193/41
f 695/196/24 696/198/24 27/197/24 28/195/24
f 696/198/43 697/200/43 26/199/43 27/197/43
f 697/200/24 698/202/24 25/201/24 26/199/24
f 698/202/43 699/204/43 24/203/43 25/201/43
f 699/204/24 700/206/24 23/205/24 24/203/24
f 700/206/43 701/208/43 22/207/43 23/205/43
f 701/208/24 702/210/24 21/209/24 22/207/24
f 702/210/43 685/163/43 20/164/43 21/209/43
f 686/211/1 688/213/1 687/212/1
f 688/213/1 690/215/1 689/214/1
f 690/215/1 692/217/1 691/216/1
f 692/217/1 694/219/1 693/218/1
f 694/219/1 696/221/1 695/220/1
f 696/221/1 698/223/1 697/222/1
f 698/223/1 700/225/1 699/224/1
f 700/225/1 702/227/1 701/226/1
f 702/227/1 642/229/1 685/228/1
f 642/229/1 622/231/1 620/230/1
f 641/232/1 696/221/1 672/233/1
f 672/233/1 688/213/1 651/234/1
f 650/235/1 712/237/1 651/236/1
f 642/229/1 641/232/1 622/231/1
f 700/225/1 641/232/1 702/227/1
f 702/227/1 641/232/1 642/229/1
f 696/221/1 641/232/1 698/223/1
f 698/223/1 641/232/1 700/225/1
f 694/219/1 672/233/1 696/221/1
f 688/213/1 672/233/1 690/215/1
f 690/215/1 672/233/1 692/217/1
f 692/217/1 672/233/1 694/219/1
f 651/236/1 688/239/1 686/238/1
f 630/240/6 652/178/6 632/241/6
f 632/241/6 652/178/6 634/176/6
f 628/242/6 652/178/6 630/240/6
f 626/243/6 652/178/6 628/242/6
f 652/178/6 624/245/6 622/244/6
f 640/246/6 652/178/6 598/247/6
f 638/248/6 652/178/6 640/246/6
f 652/178/6 626/243/6 624/245/6
f 636/177/6 652/178/6 638/248/6
f 651/249/44 711/252/44 39/251/44 16/250/44
f 15/161/4 38/254/4 712/253/4 650/160/4
f 684/88/53 683/89/53 681/90/53 682/91/53
f 647/12/1 705/13/1 710/14/1 649/15/1
f 645/255/103 646/156/103 706/153/103 703/256/103
f 645/155/47 703/154/47 707/258/47 643/257/47
f 686/238/1 650/235/1 651/236/1
f 712/237/1 711/259/1 651/236/1
f 718/4/2 723/5/2 745/6/2 746/7/2
f 728/8/83 726/9/83 723/10/83 718/11/83
f 765/12/13 714/13/13 715/14/13 764/15/13
f 747/16/4 724/17/4 719/4/4 749/18/4
f 745/19/104 723/20/104 724/21/104 747/22/104
f 719/23/10 729/24/10 728/25/10 718/26/10
f 724/27/85 727/28/85 729/29/85 719/30/85
f 717/31/4 748/32/4 749/18/4 719/4/4
f 727/8/86 732/9/86 734/10/86 729/11/86
f 733/8/87 738/9/87 736/10/87 731/11/87
f 726/33/6 731/34/6 732/9/6 727/8/6
f 728/35/88 733/36/88 731/34/88 726/33/88
f 723/37/6 726/38/6 727/39/6 724/40/6
f 732/41/89 737/42/89 739/43/89 734/44/89
f 742/45/2 740/46/2 736/47/2 738/48/2
f 731/49/6 736/50/6 737/51/6 732/52/6
f 729/11/10 734/10/10 733/36/10 728/35/10
f 722/53/1 720/54/1 920/55/1 721/56/1
f 739/57/10 743/58/10 742/59/10 738/60/10
f 734/61/10 739/62/10 738/63/10 733/64/10
f 720/54/40 901/65/40 900/66/40 920/55/40
f 730/67/1 722/68/1 721/69/1 725/70/1
f 740/19/1 742/20/1 743/71/1 741/72/1
f 735/73/105 730/67/105 725/70/105 764/74/105
f 736/19/6 740/20/6 741/75/6 737/76/6
f 771/77/10 769/78/10 768/79/10 770/80/10
f 737/81/4 741/82/4 743/83/4 739/84/4
f 744/85/2 746/7/2 745/6/2
f 747/16/4 749/18/4 748/32/4
f 744/19/106 745/20/106 747/86/106 748/76/106
f 716/19/107 744/20/107 748/86/107 717/87/107
f 750/88/45 751/89/45 753/90/45 752/91/45
f 754/92/6 755/93/6 757/94/6 756/95/6
f 752/91/6 753/90/6 755/93/6 754/92/6
f 756/95/6 757/94/6 759/80/6 758/77/6
f 760/78/6 761/79/6 763/96/6 762/97/6
f 758/77/6 759/80/6 761/79/6 760/78/6
f 718/4/2 746/7/2 744/85/2 716/98/2
f 780/8/83 778/9/83 776/10/83 772/11/83
f 775/99/10 804/100/10 805/101/10 774/102/10
f 773/23/10 781/24/10 780/25/10 772/26/10
f 777/27/85 779/28/85 781/29/85 773/30/85
f 779/8/86 783/9/86 785/10/86 781/11/86
f 784/8/87 788/9/87 786/10/87 782/11/87
f 778/33/6 782/34/6 783/9/6 779/8/6
f 780/35/88 784/36/88 782/34/88 778/33/88
f 776/37/6 778/38/6 779/39/6 777/40/6
f 783/41/89 787/42/89 789/43/89 785/44/89
f 792/45/2 790/46/2 786/47/2 788/48/2
f 782/49/6 786/50/6 787/51/6 783/52/6
f 781/11/10 785/10/10 784/36/10 780/35/10
f 789/57/10 793/58/10 792/59/10 788/60/10
f 785/61/10 789/62/10 788/63/10 784/64/10
f 806/53/10 808/54/10 809/55/10 807/56/10
f 790/19/1 792/20/1 793/71/1 791/72/1
f 804/103/10 806/53/10 807/56/10 805/104/10
f 786/19/6 790/20/6 791/75/6 787/76/6
f 808/54/10 810/65/10 811/66/10 809/55/10
f 787/81/4 791/82/4 793/83/4 789/84/4
f 794/99/6 795/102/6 797/101/6 796/100/6
f 796/103/6 797/104/6 799/56/6 798/53/6
f 800/54/6 801/55/6 803/66/6 802/65/6
f 798/53/6 799/56/6 801/55/6 800/54/6
f 259/105/4 258/106/4 817/107/4 837/108/4
f 826/109/6 828/110/6 257/111/6
f 837/108/108 817/107/108 836/112/108 839/113/108
f 839/113/109 836/112/109 835/114/109 840/115/109
f 840/115/1 835/114/1 834/112/1 841/113/1
f 841/113/4 834/112/4 833/114/4 842/115/4
f 842/115/1 833/114/1 832/112/1 843/113/1
f 843/113/4 832/112/4 831/114/4 844/115/4
f 844/115/1 831/114/1 830/116/1 845/113/1
f 845/113/4 830/116/4 829/117/4 846/115/4
f 846/115/1 829/117/1 828/116/1 847/113/1
f 847/113/4 828/116/4 827/114/4 848/115/4
f 848/115/1 827/114/1 826/112/1 849/113/1
f 849/113/4 826/112/4 825/117/4 850/118/4
f 850/118/1 825/117/1 824/116/1 851/119/1
f 851/119/4 824/116/4 823/114/4 852/115/4
f 852/115/1 823/114/1 822/112/1 853/119/1
f 853/119/4 822/112/4 821/114/4 854/118/4
f 854/118/1 821/114/1 820/112/1 855/113/1
f 855/113/4 820/112/4 819/114/4 856/118/4
f 856/118/1 819/114/1 818/112/1 857/119/1
f 857/119/4 818/112/4 816/114/4 838/115/4
f 815/119/1 838/115/1 816/114/1 814/116/1
f 257/111/6 814/120/6 818/121/6
f 814/120/6 816/122/6 818/121/6
f 818/121/6 819/123/6 820/124/6
f 817/125/6 258/2/6 836/126/6
f 258/2/6 257/111/6 836/126/6
f 834/127/6 835/128/6 836/126/6
f 257/111/6 818/121/6 820/124/6
f 820/124/6 821/129/6 822/130/6
f 822/130/6 823/131/6 824/132/6
f 824/132/6 825/133/6 826/109/6
f 826/109/6 827/134/6 828/110/6
f 828/110/6 829/135/6 830/136/6
f 830/136/6 831/137/6 832/138/6
f 832/138/6 833/139/6 834/127/6
f 834/127/6 836/126/6 257/111/6
f 257/111/6 820/124/6 822/130/6
f 257/111/6 822/130/6 824/132/6
f 832/138/6 834/127/6 257/111/6
f 830/136/6 832/138/6 257/111/6
f 257/111/6 824/132/6 826/109/6
f 828/110/6 830/136/6 257/111/6
f 259/140/56 837/141/56 859/142/56 270/143/56
f 839/126/10 840/128/10 841/127/10
f 838/122/10 815/120/10 857/121/10
f 855/124/10 856/123/10 857/121/10
f 841/127/10 842/144/10 843/145/10
f 843/145/10 844/137/10 845/136/10
f 845/136/10 846/135/10 847/110/10
f 847/110/10 848/134/10 849/109/10
f 849/109/10 850/133/10 851/146/10
f 851/146/10 852/131/10 853/130/10
f 853/130/10 854/129/10 855/124/10
f 773/23/10 772/26/10 264/26/10 267/23/10
f 777/27/4 773/30/4 267/30/4 263/27/4
f 776/37/6 777/40/6 263/40/6 262/147/6
f 772/11/2 776/10/2 262/10/2 264/11/2
f 795/148/10 813/149/10 261/150/10 265/151/10 794/152/10
f 775/152/6 266/151/6 260/150/6 812/149/6 774/148/6
f 706/153/57 704/154/57 861/155/57 863/156/57
f 707/157/13 860/158/13 861/155/13 704/154/13
f 903/159/58 867/160/58 271/161/58 293/162/58
f 270/143/59 859/142/59 902/163/59 276/164/59
f 889/165/60 275/166/60 272/1/60 868/126/60
f 858/167/110 839/168/110 869/169/110 870/170/110
f 869/126/111 273/1/111 274/166/111 870/165/111
f 839/171/112 268/171/112 273/171/112 869/171/112
f 269/172/64 858/173/64 870/174/64 274/175/64
f 851/176/10 853/177/10 869/178/10
f 875/8/113 873/9/113 860/10/113 862/11/113
f 769/78/10 767/97/10 766/96/10 768/79/10
f 863/23/114 876/24/114 875/25/114 862/26/114
f 861/27/115 874/28/115 876/29/115 863/30/115
f 874/8/68 878/9/68 880/10/68 876/11/68
f 879/8/69 883/9/69 881/10/69 877/11/69
f 873/33/13 877/34/13 878/9/13 874/8/13
f 875/35/70 879/36/70 877/34/70 873/33/70
f 860/37/116 873/38/116 874/39/116 861/40/116
f 878/41/72 882/42/72 884/43/72 880/44/72
f 887/45/2 885/46/2 881/47/2 883/48/2
f 877/49/13 881/50/13 882/51/13 878/52/13
f 876/11/1 880/10/1 879/36/1 875/35/1
f 884/57/1 888/58/1 887/59/1 883/60/1
f 880/61/1 884/62/1 883/63/1 879/64/1
f 871/95/10 771/77/10 770/80/10 865/94/10
f 858/165/73 269/166/73 275/166/73 889/165/73
f 885/19/6 887/20/6 888/71/6 886/72/6
f 899/91/10 897/92/10 872/93/10 898/90/10
f 881/19/13 885/20/13 886/75/13 882/76/13
f 897/92/10 871/95/10 865/94/10 872/93/10
f 882/81/4 886/82/4 888/83/4 884/84/4
f 890/73/117 866/74/117 892/70/117 891/67/117
f 891/67/13 892/70/13 894/69/13 893/68/13
f 895/54/14 896/55/14 751/66/14 750/65/14
f 893/53/13 894/56/13 896/55/13 895/54/13
f 903/159/76 293/162/76 292/179/76 904/180/76
f 904/180/77 292/179/77 291/181/77 905/182/77
f 905/182/76 291/181/76 290/183/76 906/184/76
f 906/184/77 290/183/77 289/185/77 907/186/77
f 907/186/76 289/185/76 288/187/76 908/188/76
f 908/188/59 288/187/59 287/189/59 909/190/59
f 909/190/76 287/189/76 286/191/76 910/192/76
f 910/192/59 286/191/59 285/193/59 911/194/59
f 911/194/76 285/193/76 284/195/76 912/196/76
f 912/196/59 284/195/59 283/197/59 913/198/59
f 913/198/78 283/197/78 282/199/78 914/200/78
f 914/200/59 282/199/59 281/201/59 915/202/59
f 915/202/78 281/201/78 280/203/78 916/204/78
f 916/204/59 280/203/59 279/205/59 917/206/59
f 917/206/78 279/205/78 278/207/78 918/208/78
f 918/208/59 278/207/59 277/209/59 919/210/59
f 919/210/78 277/209/78 276/164/78 902/163/78
f 903/211/1 904/212/1 905/213/1
f 905/213/1 906/214/1 907/215/1
f 907/215/1 908/216/1 909/217/1
f 909/217/1 910/218/1 911/219/1
f 911/219/1 912/220/1 913/221/1
f 913/221/1 914/222/1 915/223/1
f 915/223/1 916/224/1 917/225/1
f 917/225/1 918/226/1 919/227/1
f 919/227/1 902/228/1 859/229/1
f 859/229/1 837/230/1 839/231/1
f 858/232/1 889/233/1 913/221/1
f 889/233/1 868/234/1 905/213/1
f 867/235/1 868/236/1 712/237/1
f 859/229/1 839/231/1 858/232/1
f 917/225/1 919/227/1 858/232/1
f 919/227/1 859/229/1 858/232/1
f 913/221/1 915/223/1 858/232/1
f 915/223/1 917/225/1 858/232/1
f 911/219/1 913/221/1 889/233/1
f 905/213/1 907/215/1 889/233/1
f 907/215/1 909/217/1 889/233/1
f 909/217/1 911/219/1 889/233/1
f 868/236/1 903/238/1 905/239/1
f 847/240/10 849/241/10 869/178/10
f 849/241/10 851/176/10 869/178/10
f 845/242/10 847/240/10 869/178/10
f 843/243/10 845/242/10 869/178/10
f 869/178/10 839/244/10 841/245/10
f 857/246/10 815/247/10 869/178/10
f 855/248/10 857/246/10 869/178/10
f 869/178/10 841/245/10 843/243/10
f 853/177/10 855/248/10 869/178/10
f 868/249/79 272/250/79 39/251/79 711/252/79
f 271/161/4 867/160/4 712/253/4 38/254/4
f 901/88/18 899/91/18 898/90/18 900/89/18
f 864/12/1 866/15/1 710/14/1 705/13/1
f 862/255/118 703/256/118 706/153/118 863/156/118
f 862/155/82 860/257/82 707/258/82 703/154/82
f 903/238/1 868/236/1 867/235/1
f 712/237/1 868/236/1 711/259/1
l 249 250
l 708 709
