# Blender 4.4.3
# www.blender.org
o SM_Boombox_NeonSign_V1.0
v 2.000000 -0.070711 -0.000000
v 2.000000 0.000000 0.070711
v 2.000000 0.070711 -0.000000
v 2.224479 -0.011599 0.000320
v 2.167800 0.045079 0.070070
v 2.099941 0.112939 0.000320
v 2.000000 2.499974 -0.000000
v 2.000000 2.429264 0.070711
v 2.000000 2.358553 -0.000000
v 2.217026 2.440863 0.000320
v 2.167800 2.384184 0.070070
v 2.099941 2.316325 0.000320
v 1.267859 2.600000 0.000320
v 1.200000 2.600000 0.070070
v 1.132141 2.600000 0.000320
v 1.000000 3.599974 -0.000000
v 1.000000 3.529263 0.070711
v 1.000000 3.458553 -0.000000
v 1.215684 3.530040 0.000320
v 1.155278 3.473361 0.070070
v 1.087419 3.405502 0.000320
v 1.166388 0.474544 0.007658
v 1.166388 0.426806 0.055395
v 1.166388 0.379069 0.007658
v 1.796109 1.152472 0.007658
v 1.714956 1.138151 0.007658
v 1.755533 1.145311 0.055395
v 1.714956 0.980529 0.007658
v 1.755532 0.973368 0.055395
v 1.796109 0.966207 0.007658
v 1.847612 1.059296 0.007658
v 1.799874 1.059296 0.055395
v 1.752137 1.059296 0.007658
v 0.991616 1.929700 0.008316
v 0.991616 1.975464 0.054080
v 0.991616 2.021228 0.008316
v 0.620006 1.529386 0.008316
v 0.620006 1.575150 0.054080
v 0.620006 1.620914 0.008316
v 0.642268 0.202622 0.011792
v 0.607892 0.202622 0.047126
v 0.573516 0.202622 0.011792
v 0.506577 0.709186 0.011630
v 0.506577 0.673365 0.047450
v 0.506577 0.637545 0.011630
v 0.624295 0.677187 0.011792
v 0.593514 0.646406 0.047126
v 0.559138 0.612030 0.011792
v 2.200000 2.222986 0.070070
v 2.200000 0.206278 0.070070
v 2.132141 2.166651 0.000320
v 2.132141 0.262612 0.000320
v 2.267859 0.149943 0.000320
v 2.267859 2.279320 0.000320
v 1.200000 3.305999 0.070070
v 1.132141 3.254444 0.000320
v 1.267859 3.357554 0.000320
v 0.642268 0.570207 0.011792
v 0.573516 0.535831 0.011792
v 0.607892 0.553019 0.047126
v 1.073300 0.430571 0.007658
v 1.080460 0.471148 0.055395
v 1.087621 0.511725 0.007658
v 1.252404 0.471148 0.055395
v 1.245243 0.511725 0.007658
v 1.259564 0.430571 0.007658
v 1.074208 1.689017 0.007658
v 1.088530 1.607863 0.007658
v 1.081369 1.648440 0.055395
v 1.246152 1.607863 0.007658
v 1.253313 1.648440 0.055395
v 1.260473 1.689017 0.007658
v 1.167385 1.740519 0.007658
v 1.167385 1.692782 0.055395
v 1.167385 1.645045 0.007658
v 0.537664 0.967116 0.007658
v 0.618817 0.981437 0.007658
v 0.578240 0.974277 0.055395
v 0.618817 1.139060 0.007658
v 0.578241 1.146220 0.055395
v 0.537664 1.153381 0.007658
v 0.486161 1.060293 0.007658
v 0.533899 1.060293 0.055395
v 0.581636 1.060293 0.007658
v -2.000000 -0.070711 -0.000000
v -2.000000 0.000000 0.070711
v -2.000000 0.070711 -0.000000
v -2.224479 -0.011599 0.000320
v -2.167800 0.045079 0.070070
v -2.099941 0.112939 0.000320
v -2.000000 2.499974 -0.000000
v -2.000000 2.429264 0.070711
v -2.000000 2.358553 -0.000000
v -2.217026 2.440863 0.000320
v -2.167800 2.384184 0.070070
v -2.099941 2.316325 0.000320
v -1.267859 2.600000 0.000320
v -1.200000 2.600000 0.070070
v -1.132141 2.600000 0.000320
v -1.000000 3.599974 -0.000000
v -1.000000 3.529263 0.070711
v -1.000000 3.458553 -0.000000
v -1.215684 3.530040 0.000320
v -1.155278 3.473361 0.070070
v -1.087419 3.405502 0.000320
v -1.166388 0.474544 0.007658
v -1.166388 0.426806 0.055395
v -1.166388 0.379069 0.007658
v -1.796109 1.152472 0.007658
v -1.714956 1.138151 0.007658
v -1.755533 1.145311 0.055395
v -1.714956 0.980529 0.007658
v -1.755532 0.973368 0.055395
v -1.796109 0.966207 0.007658
v -1.847612 1.059296 0.007658
v -1.799874 1.059296 0.055395
v -1.752137 1.059296 0.007658
v -0.991616 1.929700 0.008316
v -0.991616 1.975464 0.054080
v -0.991616 2.021228 0.008316
v -0.620006 1.529386 0.008316
v -0.620006 1.575150 0.054080
v -0.620006 1.620914 0.008316
v -0.642268 0.202622 0.011792
v -0.607892 0.202622 0.047126
v -0.573516 0.202622 0.011792
v -0.506577 0.709186 0.011630
v -0.506577 0.673365 0.047450
v -0.506577 0.637545 0.011630
v -0.624295 0.677187 0.011792
v -0.593514 0.646406 0.047126
v -0.559138 0.612030 0.011792
v -2.200000 2.222986 0.070070
v -2.200000 0.206278 0.070070
v -2.132141 2.166651 0.000320
v -2.132141 0.262612 0.000320
v -2.267859 0.149943 0.000320
v -2.267859 2.279320 0.000320
v -1.200000 3.305999 0.070070
v -1.132141 3.254444 0.000320
v -1.267859 3.357554 0.000320
v -0.642268 0.570207 0.011792
v -0.573516 0.535831 0.011792
v -0.607892 0.553019 0.047126
v -1.073300 0.430571 0.007658
v -1.080460 0.471148 0.055395
v -1.087621 0.511725 0.007658
v -1.252404 0.471148 0.055395
v -1.245243 0.511725 0.007658
v -1.259564 0.430571 0.007658
v -1.074208 1.689017 0.007658
v -1.088530 1.607863 0.007658
v -1.081369 1.648440 0.055395
v -1.246152 1.607863 0.007658
v -1.253313 1.648440 0.055395
v -1.260473 1.689017 0.007658
v -1.167385 1.740519 0.007658
v -1.167385 1.692782 0.055395
v -1.167385 1.645045 0.007658
v -0.537664 0.967116 0.007658
v -0.618817 0.981437 0.007658
v -0.578240 0.974277 0.055395
v -0.618817 1.139060 0.007658
v -0.578241 1.146220 0.055395
v -0.537664 1.153381 0.007658
v -0.486161 1.060293 0.007658
v -0.533899 1.060293 0.055395
v -0.581636 1.060293 0.007658
vn 0.1839 -0.6900 0.7000
vn -0.2090 0.6438 0.7361
vn -0.6479 -0.1342 0.7498
vn 0.1884 0.6937 0.6952
vn -0.2090 -0.6438 0.7361
vn 0.6702 -0.1569 0.7254
vn -0.3357 0.6788 0.6531
vn 0.3592 -0.6715 0.6481
vn -0.6261 -0.1759 0.7597
vn 0.2280 0.6704 0.7061
vn -0.2750 -0.6147 0.7393
vn 0.7168 -0.0000 0.6973
vn -0.0000 0.7071 0.7071
vn -0.5768 0.5779 0.5773
vn 0.5779 0.5768 0.5773
vn 0.5768 -0.5779 0.5773
vn 0.6714 -0.3595 0.6480
vn -0.6787 0.3360 0.6530
vn -0.0000 -0.7071 0.7071
vn -0.7168 -0.0000 0.6973
vn 0.1944 0.6728 0.7138
vn -0.2369 -0.6320 0.7379
vn 0.6917 0.1117 0.7135
vn 0.6798 0.1749 0.7122
vn -0.6479 0.1342 0.7498
vn 0.6479 0.1847 0.7390
vn -0.6694 -0.1135 0.7341
vn 0.3360 0.6787 0.6530
vn -0.3595 -0.6714 0.6480
vn -0.5779 -0.5768 0.5773
vn 0.5768 -0.5779 0.5774
vn 0.6715 0.3592 0.6481
vn -0.6788 -0.3357 0.6531
vn 0.5779 -0.5768 0.5773
vn 0.3595 0.6714 0.6480
vn -0.3360 -0.6787 0.6530
vn -0.3592 0.6715 0.6481
vn 0.3357 -0.6788 0.6531
vn -0.6714 0.3595 0.6480
vn 0.6787 -0.3360 0.6530
vn -0.6715 -0.3592 0.6481
vn 0.6788 0.3357 0.6531
vn -0.1839 -0.6900 0.7000
vn 0.2090 0.6438 0.7361
vn 0.6479 -0.1342 0.7498
vn -0.1884 0.6937 0.6952
vn 0.2090 -0.6438 0.7361
vn -0.6702 -0.1569 0.7254
vn 0.3357 0.6788 0.6531
vn -0.3592 -0.6715 0.6481
vn 0.6261 -0.1759 0.7597
vn -0.2280 0.6704 0.7061
vn 0.2750 -0.6147 0.7393
vn 0.5768 0.5779 0.5773
vn -0.5779 0.5768 0.5773
vn -0.5768 -0.5779 0.5773
vn -0.6714 -0.3595 0.6480
vn 0.6787 0.3360 0.6530
vn -0.1944 0.6728 0.7138
vn 0.2369 -0.6320 0.7379
vn -0.6917 0.1117 0.7135
vn -0.6798 0.1749 0.7122
vn 0.6479 0.1342 0.7498
vn -0.6479 0.1847 0.7390
vn 0.6694 -0.1135 0.7341
vn -0.3360 0.6787 0.6530
vn 0.3595 -0.6714 0.6480
vn -0.5768 -0.5779 0.5774
vn -0.6715 0.3592 0.6481
vn 0.6788 -0.3357 0.6531
vn -0.3595 0.6714 0.6480
vn 0.3360 -0.6787 0.6530
vn 0.3592 0.6715 0.6481
vn -0.3357 -0.6788 0.6531
vn 0.6714 0.3595 0.6480
vn -0.6787 -0.3360 0.6530
vn 0.6715 -0.3592 0.6481
vn -0.6788 0.3357 0.6531
vt 0.866292 0.419314
vt 0.866292 0.418073
vt 0.870991 0.418123
vt 0.869801 0.419314
vt 0.866292 0.420554
vt 0.868610 0.420504
vt 0.868610 0.447326
vt 0.869801 0.447723
vt 0.869801 0.461928
vt 0.868610 0.460738
vt 0.866292 0.461928
vt 0.870991 0.463118
vt 0.866292 0.463168
vt 0.866292 0.460688
vt 0.869801 0.433518
vt 0.870991 0.433122
vt 0.851669 0.426913
vt 0.851669 0.426076
vt 0.853178 0.427579
vt 0.853052 0.428290
vt 0.851669 0.425238
vt 0.853304 0.426867
vt 0.851068 0.476403
vt 0.852259 0.477308
vt 0.852259 0.481224
vt 0.851068 0.480034
vt 0.848750 0.481224
vt 0.853449 0.482415
vt 0.848750 0.482465
vt 0.848750 0.479984
vt 0.852259 0.464923
vt 0.853449 0.464923
vt 0.853449 0.478212
vt 0.850162 0.427579
vt 0.850287 0.428290
vt 0.850036 0.426867
vt 0.848603 0.454770
vt 0.848603 0.453967
vt 0.841269 0.422868
vt 0.841872 0.422868
vt 0.841872 0.426997
vt 0.841269 0.426696
vt 0.840095 0.431126
vt 0.841872 0.431126
vt 0.842475 0.431729
vt 0.840095 0.431754
vt 0.840095 0.430498
vt 0.841269 0.430523
vt 0.842475 0.427299
vt 0.842084 0.446945
vt 0.842084 0.446142
vt 0.870991 0.448120
vt 0.868610 0.433915
vt 0.851068 0.464923
vt 0.842475 0.422868
vt 0.842084 0.447748
vt 0.848603 0.453165
s 0
f 2/1/1 1/2/1 4/3/1 5/4/1
f 3/5/2 2/1/2 5/4/2 6/6/2
f 51/7/3 49/8/3 11/9/3 12/10/3
f 8/11/4 11/9/4 10/12/4 7/13/4
f 9/14/5 12/10/5 11/9/5 8/11/5
f 50/15/6 5/4/6 4/3/6 53/16/6
f 22/17/7 23/18/7 64/19/7 65/20/7
f 24/21/8 66/22/8 64/19/8 23/18/8
f 56/23/9 55/24/9 20/25/9 21/26/9
f 17/27/10 20/25/10 19/28/10 16/29/10
f 18/30/11 21/26/11 20/25/11 17/27/11
f 55/24/12 14/31/12 13/32/12 57/33/12
f 91/13/13 92/11/13 8/11/13 7/13/13
f 65/20/14 64/19/14 29/34/14 28/35/14
f 77/20/15 78/19/15 62/34/15 63/35/15
f 69/19/16 80/34/16 79/35/16 68/20/16
f 72/36/15 71/34/15 27/19/15 25/22/15
f 29/34/17 30/36/17 31/21/17 32/18/17
f 28/35/18 29/34/18 32/18/18 33/17/18
f 17/27/19 101/27/19 102/30/19 18/30/19
f 16/29/13 100/29/13 101/27/13 17/27/13
f 36/37/13 120/37/13 119/38/13 35/38/13
f 42/39/20 41/40/20 60/41/20 59/42/20
f 44/43/21 47/44/21 46/45/21 43/46/21
f 45/47/22 48/48/22 47/44/22 44/43/22
f 47/44/23 60/41/23 58/49/23 46/45/23
f 122/50/19 121/51/19 37/51/19 38/50/19
f 44/43/19 128/43/19 129/47/19 45/47/19
f 11/9/24 49/8/24 54/52/24 10/12/24
f 49/8/12 50/15/12 53/16/12 54/52/12
f 6/6/25 5/4/25 50/15/25 52/53/25
f 52/53/20 50/15/20 49/8/20 51/7/20
f 20/25/26 55/24/26 57/33/26 19/28/26
f 15/54/20 14/31/20 55/24/20 56/23/20
f 58/49/12 60/41/12 41/40/12 40/55/12
f 59/42/27 60/41/27 47/44/27 48/48/27
f 63/35/28 62/34/28 23/18/28 22/17/28
f 62/34/29 61/36/29 24/21/29 23/18/29
f 27/19/30 71/34/30 70/35/30 26/20/30
f 64/19/31 66/22/31 30/36/31 29/34/31
f 31/21/32 25/22/32 27/19/32 32/18/32
f 33/17/33 32/18/33 27/19/33 26/20/33
f 162/19/34 146/34/34 145/36/34 160/22/34
f 67/22/14 81/36/14 80/34/14 69/19/14
f 71/34/35 72/36/35 73/21/35 74/18/35
f 70/35/36 71/34/36 74/18/36 75/17/36
f 73/21/37 67/22/37 69/19/37 74/18/37
f 75/17/38 74/18/38 69/19/38 68/20/38
f 80/34/39 81/36/39 82/21/39 83/18/39
f 79/35/40 80/34/40 83/18/40 84/17/40
f 82/21/41 76/22/41 78/19/41 83/18/41
f 84/17/42 83/18/42 78/19/42 77/20/42
f 123/56/13 122/50/13 38/50/13 39/56/13
f 35/38/19 119/38/19 118/57/19 34/57/19
f 92/11/19 93/14/19 9/14/19 8/11/19
f 86/1/19 85/2/19 1/2/19 2/1/19
f 87/5/13 86/1/13 2/1/13 3/5/13
f 86/1/43 89/4/43 88/3/43 85/2/43
f 87/5/44 90/6/44 89/4/44 86/1/44
f 135/7/45 96/10/45 95/9/45 133/8/45
f 92/11/46 91/13/46 94/12/46 95/9/46
f 93/14/47 92/11/47 95/9/47 96/10/47
f 134/15/48 137/16/48 88/3/48 89/4/48
f 106/17/49 149/20/49 148/19/49 107/18/49
f 108/21/50 107/18/50 148/19/50 150/22/50
f 140/23/51 105/26/51 104/25/51 139/24/51
f 101/27/52 100/29/52 103/28/52 104/25/52
f 102/30/53 101/27/53 104/25/53 105/26/53
f 139/24/20 141/33/20 97/32/20 98/31/20
f 149/20/54 112/35/54 113/34/54 148/19/54
f 161/20/55 147/35/55 146/34/55 162/19/55
f 163/35/56 164/34/56 153/19/56 152/20/56
f 111/19/55 155/34/55 156/36/55 109/22/55
f 113/34/57 116/18/57 115/21/57 114/36/57
f 112/35/58 117/17/58 116/18/58 113/34/58
f 126/39/12 143/42/12 144/41/12 125/40/12
f 128/43/59 127/46/59 130/45/59 131/44/59
f 129/47/60 128/43/60 131/44/60 132/48/60
f 131/44/61 130/45/61 142/49/61 144/41/61
f 95/9/62 94/12/62 138/52/62 133/8/62
f 133/8/20 138/52/20 137/16/20 134/15/20
f 90/6/63 136/53/63 134/15/63 89/4/63
f 136/53/12 135/7/12 133/8/12 134/15/12
f 104/25/64 103/28/64 141/33/64 139/24/64
f 99/54/12 140/23/12 139/24/12 98/31/12
f 142/49/20 124/55/20 125/40/20 144/41/20
f 143/42/65 132/48/65 131/44/65 144/41/65
f 147/35/66 106/17/66 107/18/66 146/34/66
f 146/34/67 107/18/67 108/21/67 145/36/67
f 110/20/34 154/35/34 155/34/34 111/19/34
f 148/19/68 113/34/68 114/36/68 150/22/68
f 115/21/69 116/18/69 111/19/69 109/22/69
f 117/17/70 110/20/70 111/19/70 116/18/70
f 153/19/54 164/34/54 165/36/54 151/22/54
f 155/34/71 158/18/71 157/21/71 156/36/71
f 154/35/72 159/17/72 158/18/72 155/34/72
f 157/21/73 158/18/73 153/19/73 151/22/73
f 159/17/74 152/20/74 153/19/74 158/18/74
f 164/34/75 167/18/75 166/21/75 165/36/75
f 163/35/76 168/17/76 167/18/76 164/34/76
f 166/21/77 167/18/77 162/19/77 160/22/77
f 168/17/78 161/20/78 162/19/78 167/18/78
f 43/46/13 127/46/13 128/43/13 44/43/13
f 78/19/30 76/22/30 61/36/30 62/34/30
