# Blender 4.4.3
# www.blender.org
o SM_TV_NeonSign_V1.0
v 2.000000 -0.070711 -0.000000
v 2.000000 0.000000 0.070711
v 2.000000 0.070711 -0.000000
v 2.224479 -0.011599 0.000320
v 2.167800 0.045079 0.070070
v 2.099941 0.112939 0.000320
v 2.000000 2.926556 -0.000000
v 2.000000 2.855845 0.070711
v 2.000000 2.785135 -0.000000
v 2.217026 2.867445 0.000320
v 2.167800 2.810766 0.070070
v 2.099941 2.742907 0.000320
v -1.729001 0.428238 0.000320
v -1.796860 0.360379 0.070070
v -1.853539 0.303700 0.000320
v -1.629059 0.386010 -0.000000
v -1.629059 0.315300 0.070711
v -1.629059 0.244589 -0.000000
v 1.142673 2.455517 0.000320
v 1.142673 0.465242 0.000320
v 1.006954 0.577912 0.000320
v 2.200000 2.649567 0.070070
v 2.200000 0.206278 0.070070
v 2.132141 2.593232 0.000320
v 2.132141 0.262612 0.000320
v 2.267859 0.149943 0.000320
v 2.267859 2.705902 0.000320
v 1.006954 2.342848 0.000320
v 1.074813 0.521577 0.070070
v 1.074813 2.399182 0.070070
v -2.000000 -0.070711 -0.000000
v -2.000000 0.000000 0.070711
v -2.000000 0.070711 -0.000000
v -2.224479 -0.011599 0.000320
v -2.167800 0.045079 0.070070
v -2.099941 0.112939 0.000320
v -2.000000 2.926556 -0.000000
v -2.000000 2.855845 0.070711
v -2.000000 2.785135 -0.000000
v -2.217026 2.867445 0.000320
v -2.167800 2.810766 0.070070
v -2.099941 2.742907 0.000320
v 0.974755 2.492522 0.000320
v 1.042614 2.560381 0.070070
v 1.091839 2.617060 0.000320
v 0.874813 2.534750 -0.000000
v 0.874813 2.605460 0.070711
v 0.874813 2.676171 -0.000000
v 0.974755 0.428238 0.000320
v 1.042614 0.360379 0.070070
v 1.099293 0.303700 0.000320
v -2.200000 2.649567 0.070070
v -2.200000 0.206278 0.070070
v -2.132141 2.593232 0.000320
v -2.132141 0.262612 0.000320
v -2.267859 0.149943 0.000320
v -2.267859 2.705902 0.000320
v 0.874813 0.386010 -0.000000
v 0.874813 0.315300 0.070711
v 0.874813 0.244589 -0.000000
v -1.896919 2.455517 0.000320
v -1.896919 0.465242 0.000320
v -1.761200 0.577912 0.000320
v -1.761200 2.342848 0.000320
v -1.829059 0.521577 0.070070
v -1.829059 2.399182 0.070070
v -1.729001 2.492522 0.000320
v -1.796860 2.560381 0.070070
v -1.846085 2.617060 0.000320
v -1.629059 2.534750 -0.000000
v -1.629059 2.605460 0.070711
v -1.629059 2.676171 -0.000000
v 1.856717 1.960448 0.012401
v 1.887935 1.948274 0.045909
v 1.919153 1.936100 0.012401
v 1.661636 2.345413 0.012401
v 1.650305 2.288690 0.012401
v 1.655970 2.317051 0.045909
v 1.753383 2.248492 0.012401
v 1.768414 2.273201 0.045909
v 1.783444 2.297910 0.012401
v 1.735704 2.355331 0.012401
v 1.723529 2.324112 0.045909
v 1.711355 2.292894 0.012401
v 1.861732 1.888359 0.012401
v 1.837023 1.903390 0.045909
v 1.812314 1.918421 0.012401
v 1.880873 2.015833 0.045909
v 1.852512 2.021498 0.012401
v 1.909235 2.010168 0.012401
v 1.326391 2.097814 0.012401
v 1.383114 2.086483 0.012401
v 1.354752 2.092149 0.045909
v 1.423311 2.189561 0.012401
v 1.398602 2.204592 0.045909
v 1.373893 2.219623 0.012401
v 1.316473 2.171882 0.012401
v 1.347691 2.159707 0.045909
v 1.378909 2.147533 0.012401
v 1.573990 1.762569 0.012401
v 1.585321 1.819292 0.012401
v 1.579655 1.790930 0.045909
v 1.482243 1.859490 0.012401
v 1.467212 1.834780 0.045909
v 1.452181 1.810071 0.012401
v 1.499922 1.752651 0.012401
v 1.512096 1.783869 0.045909
v 1.524271 1.815087 0.012401
v 1.750603 1.123495 0.012401
v 1.767985 1.094848 0.045909
v 1.785367 1.066201 0.012401
v 1.829800 1.547738 0.012401
v 1.786314 1.509595 0.012401
v 1.808057 1.528666 0.045909
v 1.843707 1.415006 0.012401
v 1.870664 1.425483 0.045909
v 1.897621 1.435961 0.012401
v 1.894633 1.510576 0.012401
v 1.865986 1.493194 0.045909
v 1.837339 1.475812 0.012401
v 1.710753 1.063213 0.012401
v 1.700275 1.090170 0.045909
v 1.689798 1.117127 0.012401
v 1.803458 1.152777 0.045909
v 1.784386 1.174520 0.012401
v 1.822529 1.131035 0.012401
v 1.413096 1.555008 0.012401
v 1.451239 1.511523 0.012401
v 1.432168 1.533265 0.045909
v 1.545828 1.568915 0.012401
v 1.535350 1.595873 0.045909
v 1.524873 1.622830 0.012401
v 1.450258 1.619842 0.012401
v 1.467640 1.591195 0.045909
v 1.485022 1.562547 0.012401
v 1.405826 1.138305 0.012401
v 1.449311 1.176448 0.012401
v 1.427569 1.157376 0.045909
v 1.391919 1.271036 0.012401
v 1.364962 1.260559 0.045909
v 1.338004 1.250081 0.012401
v 1.340993 1.175467 0.012401
v 1.369640 1.192848 0.045909
v 1.398287 1.210230 0.012401
v 1.823237 0.532439 0.012401
v 1.850093 0.512401 0.045909
v 1.876949 0.492363 0.012401
v 1.737559 0.955421 0.012401
v 1.711551 0.903754 0.012401
v 1.724555 0.929587 0.045909
v 1.800226 0.837591 0.012401
v 1.821287 0.857413 0.045909
v 1.842348 0.877235 0.012401
v 1.811597 0.945284 0.012401
v 1.791559 0.918427 0.045909
v 1.771521 0.891571 0.012401
v 1.808901 0.461612 0.012401
v 1.789079 0.482673 0.045909
v 1.769256 0.503734 0.012401
v 1.861253 0.579405 0.045909
v 1.835419 0.592409 0.012401
v 1.887086 0.566402 0.012401
v 1.348539 0.805893 0.012401
v 1.400206 0.779885 0.012401
v 1.374373 0.792889 0.045909
v 1.466369 0.868561 0.012401
v 1.446547 0.889622 0.045909
v 1.426725 0.910683 0.012401
v 1.358676 0.879931 0.012401
v 1.385532 0.859893 0.045909
v 1.412389 0.839855 0.012401
v 1.498067 0.416874 0.012401
v 1.524075 0.468541 0.012401
v 1.511071 0.442707 0.045909
v 1.435399 0.534703 0.012401
v 1.414338 0.514881 0.045909
v 1.393278 0.495059 0.012401
v 1.424029 0.427011 0.012401
v 1.444067 0.453867 0.045909
v 1.464105 0.480723 0.012401
v 1.299460 4.670084 -0.000000
v 1.240080 4.708477 0.070711
v 1.180700 4.746870 -0.000000
v 0.228875 3.014268 -0.000000
v 0.169495 3.052661 0.070711
v 0.110115 3.091053 -0.000000
v -1.057258 4.954279 -0.000000
v -1.119055 4.919911 0.070711
v -1.180851 4.885542 -0.000000
v -0.098894 3.231080 -0.000000
v -0.160691 3.196711 0.070711
v -0.222487 3.162343 -0.000000
vn 0.1839 -0.6900 0.7000
vn -0.2090 0.6438 0.7361
vn -0.6479 -0.1342 0.7498
vn 0.1884 0.6937 0.6952
vn -0.2090 -0.6438 0.7361
vn 0.6702 -0.1569 0.7254
vn -0.0000 0.7071 0.7071
vn -0.0000 -0.7071 0.7071
vn -0.7168 -0.0000 0.6973
vn -0.6479 0.1342 0.7498
vn 0.7168 -0.0000 0.6973
vn 0.6798 0.1749 0.7122
vn -0.1839 -0.6900 0.7000
vn 0.2090 0.6438 0.7361
vn 0.6479 -0.1342 0.7498
vn -0.1884 0.6937 0.6952
vn 0.2090 -0.6438 0.7361
vn -0.6702 -0.1569 0.7254
vn 0.6479 0.1342 0.7498
vn -0.6798 0.1749 0.7122
vn -0.7544 -0.0661 0.6531
vn 0.7561 0.0907 0.6481
vn -0.7482 -0.3269 0.5773
vn -0.3269 0.7482 0.5773
vn 0.7482 0.3269 0.5773
vn -0.3270 0.7482 0.5773
vn 0.5789 0.4949 0.6480
vn -0.5596 -0.5103 0.6530
vn -0.5103 0.5596 0.6530
vn 0.4949 -0.5789 0.6480
vn 0.3269 -0.7482 0.5773
vn 0.7482 0.3270 0.5773
vn -0.0906 0.7561 0.6481
vn 0.0661 -0.7544 0.6531
vn -0.7482 -0.3270 0.5774
vn -0.4949 0.5789 0.6480
vn 0.5103 -0.5596 0.6530
vn -0.7561 -0.0907 0.6481
vn 0.7544 0.0661 0.6531
vn -0.5789 -0.4949 0.6480
vn 0.5596 0.5103 0.6530
vn 0.0907 -0.7561 0.6481
vn -0.0661 0.7544 0.6531
vn 0.3270 -0.7482 0.5773
vn -0.6391 0.4062 0.6531
vn 0.6554 -0.3878 0.6481
vn -0.7928 0.1955 0.5773
vn 0.1955 0.7928 0.5773
vn 0.7928 -0.1955 0.5773
vn 0.1953 0.7928 0.5773
vn 0.7605 0.0410 0.6480
vn -0.7546 -0.0649 0.6530
vn -0.0649 0.7546 0.6530
vn 0.0410 -0.7605 0.6480
vn -0.1955 -0.7928 0.5773
vn 0.7928 -0.1953 0.5773
vn 0.3878 0.6554 0.6481
vn -0.4062 -0.6391 0.6531
vn -0.7928 0.1953 0.5773
vn -0.0410 0.7605 0.6480
vn 0.0649 -0.7546 0.6530
vn -0.6554 0.3878 0.6481
vn 0.6391 -0.4062 0.6531
vn -0.7605 -0.0410 0.6480
vn 0.7546 0.0649 0.6530
vn -0.3878 -0.6554 0.6481
vn 0.4062 0.6391 0.6531
vn -0.1953 -0.7928 0.5773
vn -0.7448 0.1369 0.6531
vn 0.7530 -0.1137 0.6481
vn -0.8082 -0.1161 0.5773
vn -0.1161 0.8082 0.5773
vn 0.8082 0.1161 0.5773
vn -0.1163 0.8082 0.5773
vn 0.6896 0.3232 0.6480
vn -0.6752 -0.3431 0.6530
vn -0.3431 0.6752 0.6530
vn 0.3232 -0.6896 0.6480
vn 0.1161 -0.8082 0.5773
vn 0.8082 0.1163 0.5773
vn 0.1137 0.7530 0.6481
vn -0.1369 -0.7448 0.6531
vn -0.8082 -0.1163 0.5773
vn -0.3232 0.6896 0.6480
vn 0.3431 -0.6752 0.6530
vn -0.7530 0.1137 0.6481
vn 0.7448 -0.1369 0.6531
vn -0.6896 -0.3232 0.6480
vn 0.6752 0.3431 0.6530
vn -0.1137 -0.7530 0.6481
vn 0.1369 0.7448 0.6531
vn 0.1163 -0.8082 0.5773
vn 0.5938 -0.3839 0.7071
vn -0.5938 0.3839 0.7071
vn 0.6180 0.3437 0.7071
vn -0.6180 -0.3437 0.7071
vt 0.760804 0.419314
vt 0.760804 0.418073
vt 0.765503 0.418123
vt 0.764313 0.419314
vt 0.760804 0.420554
vt 0.763122 0.420504
vt 0.763122 0.447326
vt 0.764313 0.447723
vt 0.764313 0.461928
vt 0.763122 0.460738
vt 0.760804 0.461928
vt 0.765503 0.463118
vt 0.760804 0.463168
vt 0.760804 0.460688
vt 0.764313 0.433518
vt 0.765503 0.433122
vt 0.763122 0.433915
vt 0.765503 0.448120
vt 0.746181 0.426913
vt 0.746181 0.426076
vt 0.747690 0.427579
vt 0.747564 0.428290
vt 0.746181 0.425238
vt 0.747815 0.426867
vt 0.744674 0.427579
vt 0.744799 0.428290
vt 0.744548 0.426867
s 0
f 2/1/1 1/2/1 4/3/1 5/4/1
f 3/5/2 2/1/2 5/4/2 6/6/2
f 24/7/3 22/8/3 11/9/3 12/10/3
f 8/11/4 11/9/4 10/12/4 7/13/4
f 9/14/5 12/10/5 11/9/5 8/11/5
f 23/15/6 5/4/6 4/3/6 26/16/6
f 16/5/7 17/1/7 59/1/7 58/5/7
f 17/1/8 18/2/8 60/2/8 59/1/8
f 71/11/8 70/14/8 46/14/8 47/11/8
f 21/17/9 29/15/9 30/8/9 28/7/9
f 37/13/7 38/11/7 8/11/7 7/13/7
f 49/6/10 50/4/10 29/15/10 21/17/10
f 30/8/11 29/15/11 20/16/11 19/18/11
f 11/9/12 22/8/12 27/18/12 10/12/12
f 22/8/11 23/15/11 26/16/11 27/18/11
f 6/6/10 5/4/10 23/15/10 25/17/10
f 25/17/9 23/15/9 22/8/9 24/7/9
f 44/9/12 30/8/12 19/18/12 45/12/12
f 72/13/7 71/11/7 47/11/7 48/13/7
f 38/11/8 39/14/8 9/14/8 8/11/8
f 32/1/8 31/2/8 1/2/8 2/1/8
f 33/5/7 32/1/7 2/1/7 3/5/7
f 32/1/13 35/4/13 34/3/13 31/2/13
f 33/5/14 36/6/14 35/4/14 32/1/14
f 54/7/15 42/10/15 41/9/15 52/8/15
f 38/11/16 37/13/16 40/12/16 41/9/16
f 39/14/17 38/11/17 41/9/17 42/10/17
f 53/15/18 56/16/18 34/3/18 35/4/18
f 29/15/6 50/4/6 51/3/6 20/16/6
f 46/14/5 43/10/5 44/9/5 47/11/5
f 47/11/4 44/9/4 45/12/4 48/13/4
f 28/7/3 30/8/3 44/9/3 43/10/3
f 13/6/19 63/17/19 65/15/19 14/4/19
f 41/9/20 40/12/20 57/18/20 52/8/20
f 52/8/9 57/18/9 56/16/9 53/15/9
f 36/6/19 55/17/19 53/15/19 35/4/19
f 55/17/11 54/7/11 52/8/11 53/15/11
f 58/5/2 59/1/2 50/4/2 49/6/2
f 59/1/1 60/2/1 51/3/1 50/4/1
f 68/9/20 69/12/20 61/18/20 66/8/20
f 65/15/18 62/16/18 15/3/18 14/4/18
f 70/14/17 71/11/17 68/9/17 67/10/17
f 66/8/9 61/18/9 62/16/9 65/15/9
f 63/17/11 64/7/11 66/8/11 65/15/11
f 16/5/14 13/6/14 14/4/14 17/1/14
f 17/1/13 14/4/13 15/3/13 18/2/13
f 64/7/15 67/10/15 68/9/15 66/8/15
f 71/11/16 72/13/16 69/12/16 68/9/16
f 73/19/21 74/20/21 88/21/21 89/22/21
f 75/23/22 90/24/22 88/21/22 74/20/22
f 89/22/23 88/21/23 80/25/23 79/26/23
f 101/22/24 102/21/24 86/25/24 87/26/24
f 93/21/25 104/25/25 103/26/25 92/22/25
f 96/27/26 95/25/26 78/21/26 76/24/26
f 80/25/27 81/27/27 82/23/27 83/20/27
f 79/26/28 80/25/28 83/20/28 84/19/28
f 87/26/29 86/25/29 74/20/29 73/19/29
f 86/25/30 85/27/30 75/23/30 74/20/30
f 78/21/31 95/25/31 94/26/31 77/22/31
f 88/21/32 90/24/32 81/27/32 80/25/32
f 82/23/33 76/24/33 78/21/33 83/20/33
f 84/19/34 83/20/34 78/21/34 77/22/34
f 91/24/35 105/27/35 104/25/35 93/21/35
f 95/25/36 96/27/36 97/23/36 98/20/36
f 94/26/37 95/25/37 98/20/37 99/19/37
f 97/23/38 91/24/38 93/21/38 98/20/38
f 99/19/39 98/20/39 93/21/39 92/22/39
f 104/25/40 105/27/40 106/23/40 107/20/40
f 103/26/41 104/25/41 107/20/41 108/19/41
f 106/23/42 100/24/42 102/21/42 107/20/42
f 108/19/43 107/20/43 102/21/43 101/22/43
f 102/21/44 100/24/44 85/27/44 86/25/44
f 109/19/45 110/20/45 124/21/45 125/22/45
f 111/23/46 126/24/46 124/21/46 110/20/46
f 125/22/47 124/21/47 116/25/47 115/26/47
f 137/22/48 138/21/48 122/25/48 123/26/48
f 129/21/49 140/25/49 139/26/49 128/22/49
f 132/27/50 131/25/50 114/21/50 112/24/50
f 116/25/51 117/27/51 118/23/51 119/20/51
f 115/26/52 116/25/52 119/20/52 120/19/52
f 123/26/53 122/25/53 110/20/53 109/19/53
f 122/25/54 121/27/54 111/23/54 110/20/54
f 114/21/55 131/25/55 130/26/55 113/22/55
f 124/21/56 126/24/56 117/27/56 116/25/56
f 118/23/57 112/24/57 114/21/57 119/20/57
f 120/19/58 119/20/58 114/21/58 113/22/58
f 127/24/59 141/27/59 140/25/59 129/21/59
f 131/25/60 132/27/60 133/23/60 134/20/60
f 130/26/61 131/25/61 134/20/61 135/19/61
f 133/23/62 127/24/62 129/21/62 134/20/62
f 135/19/63 134/20/63 129/21/63 128/22/63
f 140/25/64 141/27/64 142/23/64 143/20/64
f 139/26/65 140/25/65 143/20/65 144/19/65
f 142/23/66 136/24/66 138/21/66 143/20/66
f 144/19/67 143/20/67 138/21/67 137/22/67
f 138/21/68 136/24/68 121/27/68 122/25/68
f 145/19/69 146/20/69 160/21/69 161/22/69
f 147/23/70 162/24/70 160/21/70 146/20/70
f 161/22/71 160/21/71 152/25/71 151/26/71
f 173/22/72 174/21/72 158/25/72 159/26/72
f 165/21/73 176/25/73 175/26/73 164/22/73
f 168/27/74 167/25/74 150/21/74 148/24/74
f 152/25/75 153/27/75 154/23/75 155/20/75
f 151/26/76 152/25/76 155/20/76 156/19/76
f 159/26/77 158/25/77 146/20/77 145/19/77
f 158/25/78 157/27/78 147/23/78 146/20/78
f 150/21/79 167/25/79 166/26/79 149/22/79
f 160/21/80 162/24/80 153/27/80 152/25/80
f 154/23/81 148/24/81 150/21/81 155/20/81
f 156/19/82 155/20/82 150/21/82 149/22/82
f 163/24/83 177/27/83 176/25/83 165/21/83
f 167/25/84 168/27/84 169/23/84 170/20/84
f 166/26/85 167/25/85 170/20/85 171/19/85
f 169/23/86 163/24/86 165/21/86 170/20/86
f 171/19/87 170/20/87 165/21/87 164/22/87
f 176/25/88 177/27/88 178/23/88 179/20/88
f 175/26/89 176/25/89 179/20/89 180/19/89
f 178/23/90 172/24/90 174/21/90 179/20/90
f 180/19/91 179/20/91 174/21/91 173/22/91
f 174/21/92 172/24/92 157/27/92 158/25/92
f 185/11/93 184/14/93 181/14/93 182/11/93
f 186/13/94 185/11/94 182/11/94 183/13/94
f 191/11/95 190/14/95 187/14/95 188/11/95
f 192/13/96 191/11/96 188/11/96 189/13/96
