# Blender 4.4.3
# www.blender.org
o SM_Collider-2D-Tall_PedestrainBridge_V1.0
v -15.337286 0.000000 0.000000
v -15.337286 4.000000 -0.000000
v -11.662711 4.000000 -0.000000
v -15.200158 4.901240 -0.000000
v -15.200158 4.998760 -0.000000
v -14.799842 4.901240 -0.000000
v -15.000001 4.901240 -0.000000
v -15.000001 4.901240 -0.000000
v -14.799842 4.998760 -0.000000
v -7.911502 3.749866 -0.000000
v -10.599281 4.005177 -0.000000
v -4.933199 7.224999 -0.000001
v -6.911502 0.049866 -0.000000
v -6.995628 5.648434 -0.000000
v -6.990369 7.800000 -0.000001
v 0.000000 7.800138 -0.000001
v 0.000000 7.205968 -0.000001
v -6.793468 7.804996 1.481680
v -6.793468 8.937417 1.481680
v -14.799842 4.901240 1.683699
v -14.799842 4.998760 1.683699
v -15.000001 4.001240 1.701680
v -15.000001 4.901240 1.683699
v -15.200158 4.901240 1.683700
v -15.200158 4.998760 1.683700
v -15.000001 4.901240 1.683699
v -15.000001 4.001240 1.701680
v -15.337286 0.000000 5.500000
v -11.662711 0.000000 5.500000
v -15.337286 4.000000 1.750000
v -11.662711 4.000000 1.816818
v -11.662711 3.725000 1.816818
v -7.911502 3.749866 1.816818
v -10.599281 4.005177 1.816818
v -6.793468 8.924634 1.281722
v -6.793468 9.022155 1.281722
v -6.793309 8.924634 1.683698
v -6.793309 9.022155 1.683698
v -6.793468 8.937417 1.481680
v -6.793468 7.804996 1.481680
v -6.990369 7.800000 1.816817
v -4.933199 7.224999 1.816817
v -11.662711 0.025000 2.625000
v -6.911502 0.049866 2.625000
v -6.995628 5.648434 1.816818
v 0.000000 8.910692 1.682684
v 0.000000 9.027415 1.281722
v 0.000000 8.923475 1.481680
v 0.000000 9.027415 1.682684
v 0.000000 8.910692 1.281722
v 0.000000 7.801680 1.481680
v 0.000000 7.801680 1.481680
v 0.000000 7.205969 1.816817
v 0.000000 7.800138 1.816817
v 0.000000 8.923475 1.481680
v 0.000000 7.801680 1.481680
v 15.337286 0.000000 0.000000
v 15.337286 4.000000 -0.000000
v 11.662711 4.000000 -0.000000
v 15.200158 4.901240 -0.000000
v 15.200158 4.998760 -0.000000
v 14.799842 4.901240 -0.000000
v 15.000001 4.901240 -0.000000
v 15.000001 4.901240 -0.000000
v 14.799842 4.998760 -0.000000
v 7.911502 3.749866 -0.000000
v 10.599281 4.005177 -0.000000
v 4.933199 7.224999 -0.000001
v 6.911502 0.049866 -0.000000
v 6.995628 5.648434 -0.000000
v 6.990369 7.800000 -0.000001
v 6.793468 7.804996 1.481680
v 6.793468 8.937417 1.481680
v 14.799842 4.901240 1.683699
v 14.799842 4.998760 1.683699
v 15.000001 4.001240 1.701680
v 15.000001 4.901240 1.683699
v 15.200158 4.901240 1.683700
v 15.200158 4.998760 1.683700
v 15.000001 4.901240 1.683699
v 15.000001 4.001240 1.701680
v 15.337286 0.000000 5.500000
v 11.662711 0.000000 5.500000
v 15.337286 4.000000 1.750000
v 11.662711 4.000000 1.816818
v 11.662711 3.725000 1.816818
v 7.911502 3.749866 1.816818
v 10.599281 4.005177 1.816818
v 6.793468 8.924634 1.281722
v 6.793468 9.022155 1.281722
v 6.793309 8.924634 1.683698
v 6.793309 9.022155 1.683698
v 6.793468 8.937417 1.481680
v 6.793468 7.804996 1.481680
v 6.990369 7.800000 1.816817
v 4.933199 7.224999 1.816817
v 11.662711 0.025000 2.625000
v 6.911502 0.049866 2.625000
v 6.995628 5.648434 1.816818
v -6.793468 7.804996 -1.481682
v -6.793468 8.937417 -1.481682
v -14.799842 4.901240 -1.683699
v -14.799842 4.998760 -1.683699
v -15.000001 4.001240 -1.701680
v -15.000001 4.901240 -1.683699
v -15.200158 4.901240 -1.683700
v -15.200158 4.998760 -1.683700
v -15.000001 4.901240 -1.683699
v -15.000001 4.001240 -1.701680
v -15.337286 -0.000000 -5.500000
v -11.662711 -0.000000 -5.500000
v -15.337286 4.000000 -1.750000
v -11.662711 4.000000 -1.816818
v -11.662711 3.725000 -1.816818
v -7.911502 3.749866 -1.816818
v -10.599281 4.005177 -1.816818
v -6.793468 8.924634 -1.281724
v -6.793468 9.022155 -1.281724
v -6.793309 8.924634 -1.683700
v -6.793309 9.022155 -1.683700
v -6.793468 8.937417 -1.481682
v -6.793468 7.804996 -1.481682
v -6.990369 7.800000 -1.816819
v -4.933199 7.224999 -1.816819
v -11.662711 0.025000 -2.625000
v -6.911502 0.049866 -2.625000
v -6.995628 5.648434 -1.816818
v 0.000000 8.910692 -1.682686
v 0.000000 9.027415 -1.281724
v 0.000000 8.923475 -1.481682
v 0.000000 9.027415 -1.682686
v 0.000000 8.910692 -1.281724
v 0.000000 7.801680 -1.481682
v 0.000000 7.801680 -1.481682
v 0.000000 7.205969 -1.816819
v 0.000000 7.800138 -1.816819
v 0.000000 8.923475 -1.481682
v 0.000000 7.801680 -1.481682
v 6.793468 7.804996 -1.481682
v 6.793468 8.937417 -1.481682
v 14.799842 4.901240 -1.683699
v 14.799842 4.998760 -1.683699
v 15.000001 4.001240 -1.701680
v 15.000001 4.901240 -1.683699
v 15.200158 4.901240 -1.683700
v 15.200158 4.998760 -1.683700
v 15.000001 4.901240 -1.683699
v 15.000001 4.001240 -1.701680
v 15.337286 -0.000000 -5.500000
v 11.662711 -0.000000 -5.500000
v 15.337286 4.000000 -1.750000
v 11.662711 4.000000 -1.816818
v 11.662711 3.725000 -1.816818
v 7.911502 3.749866 -1.816818
v 10.599281 4.005177 -1.816818
v 6.793468 8.924634 -1.281724
v 6.793468 9.022155 -1.281724
v 6.793309 8.924634 -1.683700
v 6.793309 9.022155 -1.683700
v 6.793468 8.937417 -1.481682
v 6.793468 7.804996 -1.481682
v 6.990369 7.800000 -1.816819
v 4.933199 7.224999 -1.816819
v 11.662711 0.025000 -2.625000
v 6.911502 0.049866 -2.625000
v 6.995628 5.648434 -1.816818
vn -0.0000 -0.0000 -1.0000
vn -0.0024 1.0000 -0.0000
vn -0.4895 0.4894 -0.7218
vn -0.9900 -0.1408 -0.0000
vn -0.0182 -0.0000 0.9998
vn 0.7142 -0.3240 0.6204
vn 0.8531 -0.3828 0.3545
vn -0.0049 -0.0008 1.0000
vn -0.0000 -0.0008 1.0000
vn -1.0000 -0.0000 -0.0000
vn 1.0000 -0.0000 -0.0000
vn -0.0049 1.0000 -0.0000
vn -0.0000 1.0000 -0.0000
vn -0.0000 -1.0000 -0.0000
vn -0.0008 1.0000 -0.0000
vn -0.7068 0.0003 -0.7074
vn -0.6982 -0.0000 -0.7159
vn 0.6073 -0.7945 -0.0000
vn -0.0012 0.2132 0.9770
vn 0.9654 0.2609 -0.0000
vn 0.9007 -0.4345 -0.0000
vn -0.3665 -0.4354 0.8223
vn -0.0000 -0.0000 1.0000
vn -0.6526 -0.3329 0.6807
vn -0.0039 -1.0000 -0.0000
vn 0.0001 -0.0000 1.0000
vn -0.0021 -1.0000 -0.0000
vn -1.0000 -0.0000 0.0004
vn -0.9906 0.1368 -0.0000
vn -1.0000 0.0033 -0.0000
vn 0.0024 1.0000 -0.0000
vn 0.9900 -0.1408 -0.0001
vn 0.9998 -0.0210 -0.0003
vn 0.0182 -0.0000 0.9998
vn -0.7142 -0.3240 0.6204
vn -0.0000 -0.0009 1.0000
vn 0.0049 -0.0009 1.0000
vn -0.8531 -0.3827 0.3545
vn 0.0049 1.0000 -0.0000
vn 0.0008 1.0000 -0.0000
vn 0.6982 -0.0000 -0.7159
vn 0.7068 -0.0000 -0.7074
vn -0.6073 -0.7945 -0.0000
vn 0.0012 0.2132 0.9770
vn -0.9654 0.2609 -0.0000
vn -0.9007 -0.4345 -0.0000
vn 0.3665 -0.4355 0.8222
vn 0.6526 -0.3329 0.6807
vn 0.0039 -1.0000 -0.0000
vn -0.0001 -0.0000 1.0000
vn 0.0021 -1.0000 -0.0000
vn 1.0000 -0.0000 0.0004
vn 0.9906 0.1368 -0.0000
vn 1.0000 0.0032 -0.0000
vn -0.9900 -0.1408 0.0001
vn -0.0182 -0.0000 -0.9998
vn 0.7142 -0.3240 -0.6204
vn -0.0000 -0.0009 -1.0000
vn -0.0049 -0.0009 -1.0000
vn 0.8531 -0.3827 -0.3545
vn -0.6982 -0.0000 0.7159
vn -0.7068 -0.0000 0.7074
vn -0.0012 0.2132 -0.9770
vn -0.3665 -0.4355 -0.8222
vn -0.6526 -0.3329 -0.6807
vn 0.0001 -0.0000 -1.0000
vn -1.0000 -0.0000 -0.0004
vn 0.9900 -0.1409 -0.0000
vn 0.0182 -0.0000 -0.9998
vn -0.7142 -0.3240 -0.6205
vn -0.8532 -0.3827 -0.3545
vn 0.0049 -0.0009 -1.0000
vn 0.7068 -0.0000 0.7074
vn 0.6982 -0.0000 0.7159
vn 0.0012 0.2132 -0.9770
vn 0.3665 -0.4355 -0.8222
vn 0.6526 -0.3330 -0.6806
vn -0.0001 -0.0000 -1.0000
vn 1.0000 -0.0000 -0.0004
vt 0.623699 0.652164
vt 0.776445 0.652164
vt 0.776445 0.675800
vt 0.623699 0.675800
vt 0.978312 0.969520
vt 0.898374 0.969520
vt 0.898374 0.914368
vt 0.978312 0.914368
vt 0.897914 0.943910
vt 0.977852 0.943910
vt 0.978312 0.903353
vt 0.898374 0.903353
vt 0.971986 0.903791
vt 0.896618 0.903791
vt 0.904056 0.908502
vt 0.971986 0.979159
vt 0.970995 0.972094
vt 0.896424 0.909945
vt 0.886181 0.904143
vt 0.969491 0.903854
vt 0.985522 0.991156
vt 0.887508 0.944674
vt 0.998331 0.944674
vt 0.998331 0.945448
vt 0.887508 0.945448
vt 0.900579 0.879023
vt 0.900579 0.897148
vt 0.898479 0.807077
vt 0.898479 0.873792
vt 0.974255 0.814324
vt 0.974255 0.806432
vt 0.991282 0.890553
vt 0.888317 0.890553
vt 0.652351 0.680000
vt 0.652351 0.702106
vt 0.618280 0.702106
vt 0.938658 0.877328
vt 0.938658 0.807377
vt 0.980020 0.807377
vt 0.980020 0.877328
vt 0.938658 0.814847
vt 0.980020 0.814847
vt 0.971986 0.972094
vt 0.976443 0.957711
vt 0.898083 0.956441
vt 0.898842 0.903299
vt 0.996897 0.904770
vt 0.956982 0.987851
vt 0.930389 0.987851
vt 0.917092 0.903310
vt 0.956982 0.903310
vt 0.909961 0.941964
vt 0.886909 0.941971
vt 0.886909 0.942362
vt 0.957950 0.942327
vt 0.974303 0.939629
vt 0.938588 0.939681
vt 0.990466 0.936962
vt 0.967213 0.937420
vt 0.978502 0.949766
vt 0.967426 0.946670
vt 0.940865 0.949767
vt 0.917118 0.941376
vt 0.908561 0.954217
vt 0.908561 0.950691
vt 0.974642 0.950691
vt 0.974642 0.954217
vt 0.887509 0.908300
vt 0.998331 0.908300
vt 0.998331 0.969342
vt 0.887508 0.969342
vt 0.980020 0.863091
vt 0.938658 0.863091
vt 0.980020 0.877105
vt 0.938658 0.877105
vt 0.940865 0.946568
vt 0.998331 0.925197
vt 0.942919 0.945448
vt 0.998331 0.945623
s 1
f 19/1/1 55/2/1 56/3/1 18/4/1
f 3/5/2 2/6/3 30/7/4 31/8/2
f 31/8/5 30/9/5 32/10/5
f 29/10/6 31/11/7 30/12/8 28/9/9
f 1/13/10 28/14/10 30/15/4
f 2/16/3 1/13/10 30/17/4
f 31/18/7 29/19/6 43/20/11 32/21/11
f 3/22/2 31/23/2 34/24/12 11/25/12
f 21/26/11 20/27/11 6/27/11 9/26/11
f 25/28/13 21/29/13 9/29/13 5/28/13
f 24/30/10 25/31/10 5/31/10 4/30/10
f 20/32/14 24/33/14 4/33/14 6/32/14
f 109/34/11 108/35/11 7/36/11 26/35/11 27/34/11
f 49/37/13 47/38/13 36/39/15 38/40/15
f 50/41/1 35/42/16 36/39/17 47/38/1
f 45/17/18 14/43/18 12/43/18 42/17/18
f 33/44/19 32/45/19 43/46/19 44/47/19
f 10/48/20 33/49/20 44/50/20 13/51/20
f 33/17/21 10/43/21 14/43/21 45/17/21
f 34/52/22 31/53/23 32/54/23
f 33/55/23 45/56/23 41/57/24
f 45/56/23 42/58/23 41/59/24
f 41/60/24 42/61/23 54/62/23
f 34/52/22 32/54/23 33/55/23
f 41/63/24 34/52/22 33/55/23
f 42/64/25 12/65/25 17/66/14 53/67/14
f 15/68/13 41/69/13 54/70/13 16/71/13
f 39/1/23 40/4/23 52/3/23 48/2/23
f 37/72/26 46/73/23 49/37/23 38/40/26
f 37/39/27 35/74/27 50/75/14 46/38/14
f 54/62/23 42/61/23 53/76/23
f 38/40/28 36/39/17 35/74/16 37/72/28
f 15/77/29 11/78/30 34/24/22 41/79/24
f 73/1/1 72/4/1 56/3/1 55/2/1
f 59/5/31 85/8/31 84/7/32 58/6/33
f 85/8/34 86/10/34 84/9/34
f 83/10/35 82/9/36 84/12/37 85/11/38
f 57/13/11 84/15/32 82/14/11
f 58/16/33 84/17/32 57/13/11
f 85/18/38 86/21/10 97/20/10 83/19/35
f 59/22/31 67/25/39 88/24/39 85/23/31
f 75/26/10 65/26/10 62/27/10 74/27/10
f 79/28/13 61/28/13 65/29/13 75/29/13
f 78/30/11 60/30/11 61/31/11 79/31/11
f 74/32/14 62/32/14 60/33/14 78/33/14
f 144/35/11 64/36/11 77/35/11 76/34/11 143/34/11
f 49/37/13 92/40/40 90/39/40 47/38/13
f 50/41/1 47/38/1 90/39/41 89/42/42
f 99/17/43 96/17/43 68/43/43 70/43/43
f 87/44/44 98/47/44 97/46/44 86/45/44
f 66/48/45 69/51/45 98/50/45 87/49/45
f 87/17/46 99/17/46 70/43/46 66/43/46
f 88/52/47 86/54/23 85/53/23
f 87/55/23 95/57/48 99/56/23
f 99/56/23 95/59/48 96/58/23
f 95/60/48 54/62/23 96/61/23
f 88/52/47 87/55/23 86/54/23
f 95/63/48 87/55/23 88/52/47
f 96/64/49 53/67/14 17/66/14 68/65/49
f 71/68/13 16/71/13 54/70/13 95/69/13
f 93/1/23 48/2/23 52/3/23 94/4/23
f 91/72/50 92/40/50 49/37/23 46/73/23
f 91/39/51 46/38/14 50/75/14 89/74/51
f 54/62/23 53/76/23 96/61/23
f 92/40/52 91/72/52 89/74/42 90/39/41
f 71/77/53 95/79/48 88/24/47 67/78/54
f 101/1/23 100/4/23 138/3/23 137/2/23
f 3/5/2 113/8/2 112/7/55 2/6/3
f 113/8/56 114/10/56 112/9/56
f 111/10/57 110/9/58 112/12/59 113/11/60
f 1/13/10 112/15/55 110/14/10
f 2/16/3 112/17/55 1/13/10
f 113/18/60 114/21/11 125/20/11 111/19/57
f 3/22/2 11/25/12 116/24/12 113/23/2
f 103/26/11 9/26/11 6/27/11 102/27/11
f 107/28/13 5/28/13 9/29/13 103/29/13
f 106/30/10 4/30/10 5/31/10 107/31/10
f 102/32/14 6/32/14 4/33/14 106/33/14
f 131/37/13 120/40/15 118/39/15 129/38/13
f 132/41/23 129/38/23 118/39/61 117/42/62
f 127/17/18 124/17/18 12/43/18 14/43/18
f 115/44/63 126/47/63 125/46/63 114/45/63
f 10/48/20 13/51/20 126/50/20 115/49/20
f 115/17/21 127/17/21 14/43/21 10/43/21
f 116/52/64 114/54/1 113/53/1
f 115/55/1 123/57/65 127/56/1
f 127/56/1 123/59/65 124/58/1
f 123/60/65 136/62/1 124/61/1
f 116/52/64 115/55/1 114/54/1
f 123/63/65 115/55/1 116/52/64
f 124/64/25 135/67/14 17/66/14 12/65/25
f 15/68/13 16/71/13 136/70/13 123/69/13
f 121/1/1 130/2/1 134/3/1 122/4/1
f 119/72/66 120/40/66 131/37/1 128/73/1
f 119/39/27 128/38/14 132/75/14 117/74/27
f 136/62/1 135/76/1 124/61/1
f 120/40/67 119/72/67 117/74/62 118/39/61
f 15/77/29 123/79/65 116/24/64 11/78/30
f 140/1/23 137/2/23 138/3/23 139/4/23
f 59/5/31 58/6/33 151/7/68 152/8/31
f 152/8/69 151/9/69 153/10/69
f 150/10/70 152/11/71 151/12/72 149/9/58
f 57/13/11 149/14/11 151/15/68
f 58/16/33 57/13/11 151/17/68
f 152/18/71 150/19/70 164/20/10 153/21/10
f 59/22/31 152/23/31 155/24/39 67/25/39
f 142/26/10 141/27/10 62/27/10 65/26/10
f 146/28/13 142/29/13 65/29/13 61/28/13
f 145/30/11 146/31/11 61/31/11 60/30/11
f 141/32/14 145/33/14 60/33/14 62/32/14
f 131/37/13 129/38/13 157/39/40 159/40/40
f 132/41/23 156/42/73 157/39/74 129/38/23
f 166/17/43 70/43/43 68/43/43 163/17/43
f 154/44/75 153/45/75 164/46/75 165/47/75
f 66/48/45 154/49/45 165/50/45 69/51/45
f 154/17/46 66/43/46 70/43/46 166/17/46
f 155/52/76 152/53/1 153/54/1
f 154/55/1 166/56/1 162/57/77
f 166/56/1 163/58/1 162/59/77
f 162/60/77 163/61/1 136/62/1
f 155/52/76 153/54/1 154/55/1
f 162/63/77 155/52/76 154/55/1
f 163/64/49 68/65/49 17/66/14 135/67/14
f 71/68/13 162/69/13 136/70/13 16/71/13
f 160/1/1 161/4/1 134/3/1 130/2/1
f 158/72/78 128/73/1 131/37/1 159/40/78
f 158/39/51 156/74/51 132/75/14 128/38/14
f 136/62/1 163/61/1 135/76/1
f 159/40/79 157/39/74 156/74/73 158/72/79
f 71/77/53 67/78/54 155/24/76 162/79/77
f 105/35/10 104/34/10 22/34/10 23/35/10 8/36/10
f 148/34/10 81/34/10 80/35/10 63/36/10 147/35/10
