# Blender 4.4.3
# www.blender.org
o SM_Collider-Smooth_Stairs_V1.0
v 1.609631 0.012294 1.989585
v 1.609631 0.012294 -1.997165
v 1.609631 3.883255 -1.991925
v 1.609631 -3.987706 1.989585
v 1.609631 -3.987706 -1.997165
v -1.609631 0.012294 1.989585
v -1.609631 0.012294 -1.997165
v -1.609631 3.883255 -1.991925
v -1.609631 -3.987706 1.989585
v -1.609631 -3.987706 -1.997165
vn 1.0000 -0.0000 -0.0000
vn 1.0000 -0.0000 -0.0001
vn 0.9381 -0.1434 0.3154
vn -0.0000 -0.0042 1.0000
vn -0.9224 -0.3563 0.1488
vn -1.0000 -0.0000 -0.0002
vn -0.0000 -0.0000 -1.0000
vn -0.0000 -0.0000 1.0000
vn -1.0000 -0.0000 -0.0000
vn -0.0000 -1.0000 -0.0000
vt 0.921756 0.939985
vt 0.958930 0.939985
vt 0.921724 0.943638
vt 0.952102 0.940697
vt 0.952102 0.944369
vt 0.921756 0.902688
vt 0.958930 0.902688
vt 0.922095 0.933121
vt 0.922095 0.961756
vt 0.922095 0.904277
vt 0.952102 0.903200
vt 0.977852 0.943910
vt 0.971986 0.903791
s 1
f 1/1/1 2/2/2 3/3/3
f 6/4/4 1/4/4 3/5/3 8/5/5
f 2/2/2 1/1/1 4/6/1 5/7/1
f 7/8/6 8/9/5 3/9/3 2/8/2
f 5/10/7 10/10/7 7/8/6 2/8/2
f 6/4/4 9/11/8 4/11/8 1/4/4
f 6/1/9 8/3/5 7/2/6
f 7/2/6 10/7/9 9/6/9 6/1/9
f 4/12/10 9/12/10 10/13/10 5/13/10
