# Blender 4.4.3
# www.blender.org
o SM_Collider-2D-Normal_PedestrainBridge_V1.0
v -7.800000 4.901240 1.281723
v -7.800000 4.998760 1.281723
v -7.799842 4.901240 1.683699
v -7.799842 4.998760 1.683699
v -7.800000 4.901240 1.481681
v -8.200158 4.901240 1.683700
v -8.200158 4.998760 1.683700
v -8.000000 4.001240 1.481681
v -8.000000 4.901240 1.481681
v -7.800000 4.001240 1.481681
v -8.204447 4.901240 1.289566
v -8.204447 4.998760 1.289566
v -7.800000 4.901240 1.481681
v -7.800000 4.001240 1.481681
v -8.000000 4.901240 1.481681
v -8.000000 4.001240 1.481681
v 0.000000 4.901240 1.682669
v 0.000000 4.998760 1.682669
v 0.000000 4.901240 1.281723
v 0.000000 4.998760 1.281723
v 0.000000 4.901240 1.481681
v 0.000000 4.001240 1.481681
v 0.000000 4.901240 1.481681
v 0.000000 4.001240 1.481681
v -10.799842 4.901240 1.683699
v -10.799842 4.998760 1.683699
v -11.000001 4.001240 1.701680
v -11.000001 4.901240 1.683699
v -11.200158 4.901240 1.683700
v -11.200158 4.998760 1.683700
v -11.000001 4.901240 1.683699
v -11.000001 4.001240 1.701680
v -11.109630 0.000000 5.500000
v -11.109630 0.000000 0.000000
v -11.109630 4.000000 -0.000000
v -7.890369 0.000000 5.500000
v -7.890369 0.000000 0.000000
v -7.890369 4.000000 -0.000000
v -11.109630 4.000000 1.750000
v -7.890369 4.000000 1.750000
v -7.890369 3.725000 1.750000
v -11.200158 4.901240 -0.000000
v -11.200158 4.998760 -0.000000
v -10.799842 4.901240 -0.000000
v -11.000001 4.901240 -0.000000
v -11.000001 4.901240 -0.000000
v -10.799842 4.998760 -0.000000
v -7.890369 3.725000 -0.000000
v 0.000000 3.725000 1.750000
v 0.000000 4.000000 1.750000
v 0.000000 4.000000 -0.000000
v 0.000000 3.725000 -0.000000
v 7.800000 4.901240 1.281723
v 7.800000 4.998760 1.281723
v 7.799842 4.901240 1.683699
v 7.799842 4.998760 1.683699
v 7.800000 4.901240 1.481681
v 8.200158 4.901240 1.683700
v 8.200158 4.998760 1.683700
v 8.000000 4.001240 1.481681
v 8.000000 4.901240 1.481681
v 7.800000 4.001240 1.481681
v 8.204447 4.901240 1.289566
v 8.204447 4.998760 1.289566
v 7.800000 4.901240 1.481681
v 7.800000 4.001240 1.481681
v 8.000000 4.901240 1.481681
v 8.000000 4.001240 1.481681
v 10.799842 4.901240 1.683699
v 10.799842 4.998760 1.683699
v 11.000001 4.001240 1.701680
v 11.000001 4.901240 1.683699
v 11.200158 4.901240 1.683700
v 11.200158 4.998760 1.683700
v 11.000001 4.901240 1.683699
v 11.000001 4.001240 1.701680
v 11.109630 0.000000 5.500000
v 11.109630 0.000000 0.000000
v 11.109630 4.000000 -0.000000
v 7.890369 0.000000 5.500000
v 7.890369 0.000000 0.000000
v 7.890369 4.000000 -0.000000
v 11.109630 4.000000 1.750000
v 7.890369 4.000000 1.750000
v 7.890369 3.725000 1.750000
v 11.200158 4.901240 -0.000000
v 11.200158 4.998760 -0.000000
v 10.799842 4.901240 -0.000000
v 11.000001 4.901240 -0.000000
v 11.000001 4.901240 -0.000000
v 10.799842 4.998760 -0.000000
v 7.890369 3.725000 -0.000000
v -7.800000 4.901240 -1.281723
v -7.800000 4.998760 -1.281723
v -7.799842 4.901240 -1.683699
v -7.799842 4.998760 -1.683699
v -7.800000 4.901240 -1.481681
v -8.200158 4.901240 -1.683700
v -8.200158 4.998760 -1.683700
v -8.000000 4.001240 -1.481681
v -8.000000 4.901240 -1.481681
v -7.800000 4.001240 -1.481681
v -8.204447 4.901240 -1.289567
v -8.204447 4.998760 -1.289567
v -7.800000 4.901240 -1.481681
v -7.800000 4.001240 -1.481681
v -8.000000 4.901240 -1.481681
v -8.000000 4.001240 -1.481681
v 0.000000 4.901240 -1.682669
v 0.000000 4.998760 -1.682669
v 0.000000 4.901240 -1.281723
v 0.000000 4.998760 -1.281723
v 0.000000 4.901240 -1.481681
v 0.000000 4.001240 -1.481681
v 0.000000 4.901240 -1.481681
v 0.000000 4.001240 -1.481681
v -10.799842 4.901240 -1.683699
v -10.799842 4.998760 -1.683699
v -11.000001 4.001240 -1.701680
v -11.000001 4.901240 -1.683699
v -11.200158 4.901240 -1.683700
v -11.200158 4.998760 -1.683700
v -11.000001 4.901240 -1.683699
v -11.000001 4.001240 -1.701680
v -11.109630 -0.000000 -5.500000
v -7.890369 -0.000000 -5.500000
v -11.109630 4.000000 -1.750000
v -7.890369 4.000000 -1.750000
v -7.890369 3.725000 -1.750000
v 0.000000 3.725000 -1.750000
v 0.000000 4.000000 -1.750000
v 7.800000 4.901240 -1.281723
v 7.800000 4.998760 -1.281723
v 7.799842 4.901240 -1.683699
v 7.799842 4.998760 -1.683699
v 7.800000 4.901240 -1.481681
v 8.200158 4.901240 -1.683700
v 8.200158 4.998760 -1.683700
v 8.000000 4.001240 -1.481681
v 8.000000 4.901240 -1.481681
v 7.800000 4.001240 -1.481681
v 8.204447 4.901240 -1.289567
v 8.204447 4.998760 -1.289567
v 7.800000 4.901240 -1.481681
v 7.800000 4.001240 -1.481681
v 8.000000 4.901240 -1.481681
v 8.000000 4.001240 -1.481681
v 10.799842 4.901240 -1.683699
v 10.799842 4.998760 -1.683699
v 11.000001 4.001240 -1.701680
v 11.000001 4.901240 -1.683699
v 11.200158 4.901240 -1.683700
v 11.200158 4.998760 -1.683700
v 11.000001 4.901240 -1.683699
v 11.000001 4.001240 -1.701680
v 11.109630 -0.000000 -5.500000
v 7.890369 -0.000000 -5.500000
v 11.109630 4.000000 -1.750000
v 7.890369 4.000000 -1.750000
v 7.890369 3.725000 -1.750000
vn -0.0000 1.0000 -0.0000
vn -0.0000 -0.0000 -1.0000
vn 0.1637 -0.0000 -0.9865
vn -0.0000 -1.0000 -0.0000
vn -0.9273 -0.0000 0.3744
vn -0.4487 -0.4130 0.7926
vn -0.4522 0.4088 0.7927
vn -0.0000 -0.0000 1.0000
vn 0.3484 -0.0000 -0.9373
vn 0.0001 -0.0000 1.0000
vn -0.4895 0.4894 -0.7218
vn -0.9894 -0.1453 -0.0004
vn 0.4820 -0.7951 0.3681
vn 0.6528 -0.6819 -0.3298
vn -0.0000 -0.0008 1.0000
vn -1.0000 -0.0000 -0.0000
vn 1.0000 -0.0000 -0.0000
vn -0.1637 -0.0000 -0.9865
vn 0.9273 -0.0000 0.3744
vn 0.4522 0.4088 0.7927
vn 0.4487 -0.4130 0.7926
vn -0.3484 -0.0000 -0.9374
vn -0.0001 -0.0000 1.0000
vn 0.9894 -0.1454 -0.0004
vn 0.9998 -0.0210 -0.0008
vn -0.4820 -0.7951 0.3681
vn -0.0000 -0.0009 1.0000
vn -0.6528 -0.6819 -0.3299
vn 0.1637 -0.0000 0.9865
vn -0.9273 -0.0000 -0.3744
vn -0.4522 0.4088 -0.7927
vn -0.4487 -0.4130 -0.7926
vn 0.3484 -0.0000 0.9374
vn 0.0001 -0.0000 -1.0000
vn -0.9894 -0.1454 0.0004
vn 0.4820 -0.7951 -0.3681
vn -0.0000 -0.0008 -1.0000
vn -0.0000 -0.0009 -1.0000
vn 0.6528 -0.6819 0.3299
vn -0.1636 -0.0000 0.9865
vn 0.9273 -0.0000 -0.3744
vn 0.4487 -0.4130 -0.7926
vn 0.4522 0.4088 -0.7927
vn -0.3483 -0.0000 0.9374
vn -0.0001 -0.0000 -1.0000
vn 0.9894 -0.1454 0.0004
vn -0.4820 -0.7951 -0.3681
vn -0.6528 -0.6819 0.3300
vt 0.938009 0.877328
vt 0.938009 0.807377
vt 0.980020 0.807377
vt 0.980020 0.877328
vt 0.938009 0.814847
vt 0.980020 0.814847
vt 0.936493 0.877150
vt 0.936510 0.808648
vt 0.964717 0.832518
vt 0.914552 0.808487
vt 0.936476 0.808648
vt 0.920186 0.806965
vt 0.951341 0.806965
vt 0.951341 0.810299
vt 0.920186 0.810299
vt 0.893337 0.877150
vt 0.908269 0.832518
vt 0.630280 0.702389
vt 0.632336 0.702389
vt 0.632336 0.680283
vt 0.630280 0.680283
vt 0.951341 0.812865
vt 0.920186 0.814331
vt 0.979778 0.842551
vt 0.979649 0.877150
vt 0.980020 0.863091
vt 0.938009 0.863091
vt 0.980020 0.877105
vt 0.938009 0.877105
vt 0.667398 0.652394
vt 0.782045 0.652394
vt 0.782045 0.676030
vt 0.667398 0.676030
vt 0.978312 0.969520
vt 0.898374 0.969520
vt 0.898374 0.914368
vt 0.978312 0.914368
vt 0.897914 0.943910
vt 0.977852 0.943910
vt 0.978312 0.903353
vt 0.898374 0.903353
vt 0.971986 0.903791
vt 0.896618 0.903791
vt 0.904056 0.908502
vt 0.971986 0.979159
vt 0.970995 0.972094
vt 0.970995 0.979159
vt 0.971986 0.972094
vt 0.908561 0.950691
vt 0.908561 0.954217
vt 0.900579 0.879023
vt 0.900579 0.897148
vt 0.898479 0.807077
vt 0.898479 0.873792
vt 0.974255 0.814324
vt 0.974255 0.806432
vt 0.991282 0.890553
vt 0.888317 0.890553
vt 0.652351 0.680000
vt 0.652351 0.702106
vt 0.618280 0.702106
vt 0.908561 0.954973
vt 0.975798 0.954217
vt 0.975798 0.954973
vt 0.908561 0.958500
vt 0.975798 0.958500
vt 0.975798 0.950691
s 1
f 18/1/1 20/2/1 2/3/1 4/4/1
f 19/5/2 1/6/3 2/3/3 20/2/2
f 3/7/4 6/8/4 11/9/4
f 12/10/1 7/11/1 4/7/1
f 11/12/5 6/13/6 7/14/7 12/15/5
f 2/16/1 12/17/1 4/7/1
f 5/18/8 9/19/8 8/20/8 10/21/8
f 1/12/3 11/13/9 12/22/9 2/23/3
f 13/18/2 14/21/2 16/20/2 15/19/2
f 3/7/4 11/24/4 1/25/4
f 3/26/10 17/27/8 18/1/8 4/4/10
f 3/3/4 1/28/4 19/29/4 17/2/4
f 13/30/2 21/31/2 22/32/2 14/33/2
f 5/30/8 10/33/8 24/32/8 23/31/8
f 38/34/1 35/35/11 39/36/12 40/37/1
f 40/37/8 39/38/8 41/39/8
f 36/39/13 40/40/14 39/41/15 33/38/15
f 34/42/16 33/43/16 39/44/12
f 35/45/11 34/42/16 39/46/12
f 51/45/17 50/47/17 49/46/17 52/48/17
f 48/49/17 41/50/17 37/42/17
f 26/51/17 25/52/17 44/52/17 47/51/17
f 30/53/1 26/54/1 47/54/1 43/53/1
f 29/55/16 30/56/16 43/56/16 42/55/16
f 25/57/4 29/58/4 42/58/4 44/57/4
f 124/59/16 32/59/16 31/60/16 45/61/16 123/60/16
f 48/48/2 38/45/2 51/45/2 52/48/2
f 40/62/8 41/50/8 49/63/8 50/64/8
f 38/65/1 40/62/1 50/64/1 51/66/1
f 41/50/4 48/49/4 52/67/4 49/63/4
f 6/13/6 3/26/8 4/7/8 7/14/7
f 40/40/14 36/39/13 41/39/17
f 41/39/17 36/39/13 37/42/17
f 18/1/1 56/4/1 54/3/1 20/2/1
f 19/5/2 20/2/2 54/3/18 53/6/18
f 55/7/4 63/9/4 58/8/4
f 64/10/1 56/7/1 59/11/1
f 63/12/19 64/15/19 59/14/20 58/13/21
f 54/16/1 56/7/1 64/17/1
f 57/18/8 62/21/8 60/20/8 61/19/8
f 53/12/18 54/23/18 64/22/22 63/13/22
f 65/18/2 67/19/2 68/20/2 66/21/2
f 55/7/4 53/25/4 63/24/4
f 55/26/23 56/4/23 18/1/8 17/27/8
f 55/3/4 17/2/4 19/29/4 53/28/4
f 65/30/2 66/33/2 22/32/2 21/31/2
f 57/30/8 23/31/8 24/32/8 62/33/8
f 82/34/1 84/37/1 83/36/24 79/35/25
f 84/37/8 85/39/8 83/38/8
f 80/39/26 77/38/15 83/41/27 84/40/28
f 78/42/17 83/44/24 77/43/17
f 79/45/25 83/46/24 78/42/17
f 92/49/16 81/42/16 85/50/16
f 70/51/16 91/51/16 88/52/16 69/52/16
f 74/53/1 87/53/1 91/54/1 70/54/1
f 73/55/17 86/55/17 87/56/17 74/56/17
f 69/57/4 88/57/4 86/58/4 73/58/4
f 155/59/17 154/60/17 89/61/17 75/60/17 76/59/17
f 92/48/2 52/48/2 51/45/2 82/45/2
f 84/62/8 50/64/8 49/63/8 85/50/8
f 82/65/1 51/66/1 50/64/1 84/62/1
f 85/50/4 49/63/4 52/67/4 92/49/4
f 58/13/21 59/14/20 56/7/8 55/26/8
f 84/40/28 85/39/16 80/39/26
f 85/39/16 81/42/16 80/39/26
f 110/1/1 96/4/1 94/3/1 112/2/1
f 111/5/8 112/2/8 94/3/29 93/6/29
f 95/7/4 103/9/4 98/8/4
f 104/10/1 96/7/1 99/11/1
f 103/12/30 104/15/30 99/14/31 98/13/32
f 94/16/1 96/7/1 104/17/1
f 97/18/2 102/21/2 100/20/2 101/19/2
f 93/12/29 94/23/29 104/22/33 103/13/33
f 105/18/8 107/19/8 108/20/8 106/21/8
f 95/7/4 93/25/4 103/24/4
f 95/26/34 96/4/34 110/1/2 109/27/2
f 95/3/4 109/2/4 111/29/4 93/28/4
f 105/30/8 106/33/8 114/32/8 113/31/8
f 97/30/2 115/31/2 116/32/2 102/33/2
f 38/34/1 128/37/1 127/36/35 35/35/11
f 128/37/2 129/39/2 127/38/2
f 126/39/36 125/38/37 127/41/38 128/40/39
f 34/42/16 127/44/35 125/43/16
f 35/45/11 127/46/35 34/42/16
f 51/45/17 52/48/17 130/46/17 131/47/17
f 48/49/17 37/42/17 129/50/17
f 118/51/17 47/51/17 44/52/17 117/52/17
f 122/53/1 43/53/1 47/54/1 118/54/1
f 121/55/16 42/55/16 43/56/16 122/56/16
f 117/57/4 44/57/4 42/58/4 121/58/4
f 128/62/2 131/64/2 130/63/2 129/50/2
f 38/65/1 51/66/1 131/64/1 128/62/1
f 129/50/4 130/63/4 52/67/4 48/49/4
f 98/13/32 99/14/31 96/7/2 95/26/2
f 128/40/39 129/39/17 126/39/36
f 129/39/17 37/42/17 126/39/36
f 110/1/1 112/2/1 133/3/1 135/4/1
f 111/5/8 132/6/40 133/3/40 112/2/8
f 134/7/4 137/8/4 142/9/4
f 143/10/1 138/11/1 135/7/1
f 142/12/41 137/13/42 138/14/43 143/15/41
f 133/16/1 143/17/1 135/7/1
f 136/18/2 140/19/2 139/20/2 141/21/2
f 132/12/40 142/13/44 143/22/44 133/23/40
f 144/18/8 145/21/8 147/20/8 146/19/8
f 134/7/4 142/24/4 132/25/4
f 134/26/45 109/27/2 110/1/2 135/4/45
f 134/3/4 132/28/4 111/29/4 109/2/4
f 144/30/8 113/31/8 114/32/8 145/33/8
f 136/30/2 141/33/2 116/32/2 115/31/2
f 82/34/1 79/35/25 158/36/46 159/37/1
f 159/37/2 158/38/2 160/39/2
f 157/39/47 159/40/48 158/41/38 156/38/38
f 78/42/17 156/43/17 158/44/46
f 79/45/25 78/42/17 158/46/46
f 92/49/16 160/50/16 81/42/16
f 149/51/16 148/52/16 88/52/16 91/51/16
f 153/53/1 149/54/1 91/54/1 87/53/1
f 152/55/17 153/56/17 87/56/17 86/55/17
f 148/57/4 152/58/4 86/58/4 88/57/4
f 159/62/2 160/50/2 130/63/2 131/64/2
f 82/65/1 159/62/1 131/64/1 51/66/1
f 160/50/4 92/49/4 52/67/4 130/63/4
f 137/13/42 134/26/2 135/7/2 138/14/43
f 159/40/48 157/39/47 160/39/16
f 160/39/16 157/39/47 81/42/16
f 120/60/17 46/61/17 28/60/17 27/59/17 119/59/17
f 151/60/16 150/59/16 71/59/16 72/60/16 90/61/16
