# Blender 4.4.3
# www.blender.org
o SM_Collider-Normal_Stairs_V1.0
v 1.609631 0.000000 3.100000
v 1.609631 -0.000000 -3.400000
v 1.609631 4.000000 -3.400000
v 1.609631 4.000000 -1.650000
v 1.609631 0.250000 3.100000
v 1.609631 0.250000 1.725000
v -1.609631 0.000000 3.100000
v -1.609631 -0.000000 -3.400000
v -1.609631 4.000000 -3.400000
v -1.609631 4.000000 -1.650000
v -1.609631 0.250000 3.100000
v -1.609631 0.250000 1.725000
v 1.609631 -0.000000 -4.500000
v 1.609631 4.000000 -4.500000
v -1.609631 -0.000000 -4.500000
v -1.609631 4.000000 -4.500000
vn 1.0000 -0.0000 -0.0000
vn 0.8207 -0.4411 0.3633
vn 0.6257 0.0085 0.7800
vn -0.0002 1.0000 -0.0000
vn -0.6257 0.0085 0.7800
vn -0.6659 -0.3768 0.6439
vn -0.0000 -0.0000 1.0000
vn -1.0000 -0.0001 -0.0000
vn -0.0000 1.0000 -0.0000
vn -1.0000 -0.0000 -0.0000
vn -0.0000 -0.0000 -1.0000
vt 0.896618 0.908502
vt 0.896618 0.903791
vt 0.904056 0.908502
vt 0.971986 0.903791
vt 0.911494 0.915568
vt 0.971986 0.972094
vt 0.970995 0.972094
vt 0.978312 0.903353
vt 0.977852 0.943910
vt 0.978312 0.969520
vt 0.978312 0.914368
s 1
f 5/1/1 1/2/1 6/3/2
f 1/2/1 2/4/1 6/3/2
f 4/5/3 6/3/2 2/4/1
f 3/6/4 4/7/3 2/4/1
f 10/8/5 12/9/6 6/9/2 4/8/3
f 7/9/7 1/9/7 5/8/7 11/8/7
f 9/10/8 10/11/5 4/11/3 3/10/4
f 3/10/4 14/10/9 16/10/9 9/10/8
f 11/1/10 12/3/10 7/2/10
f 7/2/10 12/3/6 8/4/10
f 10/5/5 8/4/10 12/3/6
f 9/6/8 8/4/10 10/7/5
f 12/9/9 11/8/9 5/8/9 6/9/9
f 8/4/10 9/6/8 16/6/10 15/4/10
f 3/6/4 2/4/1 13/4/1 14/6/1
f 16/10/11 14/6/11 13/4/11 15/4/11
