# Blender 4.4.3
# www.blender.org
o SM_Collider-Tall_PedestrainBridge_V1.0
v -15.337286 0.000000 0.000000
v -15.337286 4.000000 -0.000000
v -11.662711 4.000000 -0.000000
v -7.911502 3.749866 -0.000000
v -10.599281 4.005177 -0.000000
v -4.933199 7.224999 -0.000001
v -6.911502 0.049866 -0.000000
v -6.995628 5.648434 -0.000000
v -6.990369 7.800000 -0.000001
v 0.000000 7.800138 -0.000001
v 0.000000 7.205968 -0.000001
v -15.337286 0.000000 5.500000
v -11.662711 0.000000 5.500000
v -15.337286 4.000000 1.750000
v -11.662711 4.000000 1.816818
v -11.662711 3.725000 1.816818
v -7.911502 3.749866 1.816818
v -10.599281 4.005177 1.816818
v -6.990369 7.800000 1.816817
v -4.933199 7.224999 1.816817
v -11.662711 0.025000 2.625000
v -6.911502 0.049866 2.625000
v -6.995628 5.648434 1.816818
v 0.000000 7.801680 1.481680
v 0.000000 7.205969 1.816817
v 0.000000 7.800138 1.816817
v 15.337286 0.000000 0.000000
v 15.337286 4.000000 -0.000000
v 11.662711 4.000000 -0.000000
v 7.911502 3.749866 -0.000000
v 10.599281 4.005177 -0.000000
v 4.933199 7.224999 -0.000001
v 6.911502 0.049866 -0.000000
v 6.995628 5.648434 -0.000000
v 6.990369 7.800000 -0.000001
v 15.337286 0.000000 5.500000
v 11.662711 0.000000 5.500000
v 15.337286 4.000000 1.750000
v 11.662711 4.000000 1.816818
v 11.662711 3.725000 1.816818
v 7.911502 3.749866 1.816818
v 10.599281 4.005177 1.816818
v 6.990369 7.800000 1.816817
v 4.933199 7.224999 1.816817
v 11.662711 0.025000 2.625000
v 6.911502 0.049866 2.625000
v 6.995628 5.648434 1.816818
v -15.337286 -0.000000 -5.500000
v -11.662711 -0.000000 -5.500000
v -15.337286 4.000000 -1.750000
v -11.662711 4.000000 -1.816818
v -11.662711 3.725000 -1.816818
v -7.911502 3.749866 -1.816818
v -10.599281 4.005177 -1.816818
v -6.990369 7.800000 -1.816819
v -4.933199 7.224999 -1.816819
v -11.662711 0.025000 -2.625000
v -6.911502 0.049866 -2.625000
v -6.995628 5.648434 -1.816818
v 0.000000 7.801680 -1.481682
v 0.000000 7.205969 -1.816819
v 0.000000 7.800138 -1.816819
v 15.337286 -0.000000 -5.500000
v 11.662711 -0.000000 -5.500000
v 15.337286 4.000000 -1.750000
v 11.662711 4.000000 -1.816818
v 11.662711 3.725000 -1.816818
v 7.911502 3.749866 -1.816818
v 10.599281 4.005177 -1.816818
v 6.990369 7.800000 -1.816819
v 4.933199 7.224999 -1.816819
v 11.662711 0.025000 -2.625000
v 6.911502 0.049866 -2.625000
v 6.995628 5.648434 -1.816818
vn -0.0024 1.0000 -0.0000
vn -0.4893 0.4892 -0.7219
vn -0.9900 -0.1410 -0.0000
vn 0.7142 -0.3240 0.6204
vn 0.7036 -0.3970 0.5893
vn -0.0049 -0.0010 1.0000
vn -0.0000 -0.0010 1.0000
vn -1.0000 -0.0000 -0.0000
vn 1.0000 -0.0000 -0.0000
vn 0.1622 -0.0000 0.9868
vn -0.0049 1.0000 -0.0000
vn 0.6073 -0.7945 -0.0000
vn -0.0012 0.2132 0.9770
vn 0.9654 0.2609 -0.0000
vn 0.9007 -0.4345 -0.0000
vn -0.3665 -0.4356 0.8222
vn -0.0000 -0.0000 1.0000
vn -0.6526 -0.3331 0.6806
vn -0.0039 -1.0000 -0.0000
vn -0.0000 -1.0000 -0.0000
vn -0.0000 1.0000 -0.0000
vn -0.9906 0.1366 -0.0000
vn -1.0000 0.0031 -0.0000
vn 0.0024 1.0000 -0.0000
vn 0.9900 -0.1411 -0.0001
vn 0.9998 -0.0213 -0.0002
vn -0.7142 -0.3240 0.6204
vn -0.0000 -0.0011 1.0000
vn 0.0049 -0.0011 1.0000
vn -0.7036 -0.3970 0.5894
vn -0.1621 -0.0000 0.9868
vn 0.0049 1.0000 -0.0000
vn -0.6073 -0.7945 -0.0000
vn 0.0012 0.2132 0.9770
vn -0.9654 0.2609 -0.0000
vn -0.9007 -0.4345 -0.0000
vn 0.3665 -0.4356 0.8221
vn 0.6526 -0.3331 0.6805
vn 0.0039 -1.0000 -0.0000
vn 0.9906 0.1366 -0.0000
vn 1.0000 0.0030 -0.0000
vn -0.9900 -0.1411 0.0001
vn 0.7142 -0.3240 -0.6204
vn -0.0000 -0.0011 -1.0000
vn -0.0049 -0.0011 -1.0000
vn 0.7036 -0.3970 -0.5894
vn 0.1621 -0.0000 -0.9868
vn -0.0012 0.2132 -0.9770
vn -0.3665 -0.4356 -0.8221
vn -0.0000 -0.0000 -1.0000
vn -0.6526 -0.3331 -0.6805
vn 0.9900 -0.1411 -0.0000
vn -0.7142 -0.3240 -0.6205
vn -0.7036 -0.3970 -0.5894
vn 0.0049 -0.0011 -1.0000
vn -0.1621 -0.0000 -0.9868
vn 0.0012 0.2132 -0.9770
vn 0.3665 -0.4357 -0.8221
vn 0.6526 -0.3332 -0.6805
vt 0.978312 0.969520
vt 0.898374 0.969520
vt 0.898374 0.914368
vt 0.978312 0.914368
vt 0.977852 0.943910
vt 0.978312 0.903353
vt 0.898374 0.903353
vt 0.897914 0.943910
vt 0.971986 0.903791
vt 0.896618 0.903791
vt 0.904056 0.908502
vt 0.971986 0.979159
vt 0.970995 0.972094
vt 0.896424 0.909945
vt 0.886181 0.904143
vt 0.969491 0.903854
vt 0.985522 0.991156
vt 0.887508 0.944674
vt 0.998331 0.944674
vt 0.998331 0.945448
vt 0.887508 0.945448
vt 0.971986 0.972094
vt 0.976443 0.957711
vt 0.898083 0.956441
vt 0.898842 0.903299
vt 0.996897 0.904770
vt 0.956982 0.987851
vt 0.930389 0.987851
vt 0.917092 0.903310
vt 0.956982 0.903310
vt 0.909961 0.941964
vt 0.886909 0.941971
vt 0.886909 0.942362
vt 0.957950 0.942327
vt 0.974303 0.939629
vt 0.938588 0.939681
vt 0.990466 0.936962
vt 0.967213 0.937420
vt 0.978502 0.949766
vt 0.967426 0.946670
vt 0.940865 0.949767
vt 0.917118 0.941376
vt 0.908561 0.954217
vt 0.908561 0.950691
vt 0.974642 0.950691
vt 0.974642 0.954217
vt 0.887509 0.908300
vt 0.998331 0.908300
vt 0.998331 0.969342
vt 0.887508 0.969342
vt 0.940865 0.946568
vt 0.998331 0.925197
vt 0.942919 0.945448
vt 0.998331 0.945623
s 1
f 3/1/1 2/2/2 14/3/3 15/4/1
f 13/5/4 15/6/5 14/7/6 12/8/7
f 1/9/8 12/10/8 14/11/3
f 2/12/2 1/9/8 14/13/3
f 15/14/5 13/15/4 21/16/9 16/17/10
f 3/18/1 15/19/1 18/20/11 5/21/11
f 23/13/12 8/22/12 6/22/12 20/13/12
f 17/23/13 16/24/13 21/25/13 22/26/13
f 4/27/14 17/28/14 22/29/14 7/30/14
f 17/13/15 4/22/15 8/22/15 23/13/15
f 18/31/16 15/32/5 16/33/10
f 17/34/17 23/35/17 19/36/18
f 23/35/17 20/37/17 19/38/18
f 19/39/18 20/40/17 26/41/17
f 18/31/16 16/33/10 17/34/17
f 19/42/18 18/31/16 17/34/17
f 20/43/19 6/44/19 11/45/20 25/46/20
f 9/47/21 19/48/21 26/49/21 10/50/21
f 26/41/17 20/40/17 25/51/17
f 9/52/22 5/53/23 18/20/16 19/54/18
f 29/1/24 39/4/24 38/3/25 28/2/26
f 37/5/27 36/8/28 38/7/29 39/6/30
f 27/9/9 38/11/25 36/10/9
f 28/12/26 38/13/25 27/9/9
f 39/14/30 40/17/31 45/16/8 37/15/27
f 29/18/24 31/21/32 42/20/32 39/19/24
f 47/13/33 44/13/33 32/22/33 34/22/33
f 41/23/34 46/26/34 45/25/34 40/24/34
f 30/27/35 33/30/35 46/29/35 41/28/35
f 41/13/36 47/13/36 34/22/36 30/22/36
f 42/31/37 40/33/31 39/32/30
f 41/34/17 43/36/38 47/35/17
f 47/35/17 43/38/38 44/37/17
f 43/39/38 26/41/17 44/40/17
f 42/31/37 41/34/17 40/33/31
f 43/42/38 41/34/17 42/31/37
f 44/43/39 25/46/20 11/45/20 32/44/39
f 35/47/21 10/50/21 26/49/21 43/48/21
f 26/41/17 25/51/17 44/40/17
f 35/52/40 43/54/38 42/20/37 31/53/41
f 3/1/1 51/4/1 50/3/42 2/2/2
f 49/5/43 48/8/44 50/7/45 51/6/46
f 1/9/8 50/11/42 48/10/8
f 2/12/2 50/13/42 1/9/8
f 51/14/46 52/17/47 57/16/9 49/15/43
f 3/18/1 5/21/11 54/20/11 51/19/1
f 59/13/12 56/13/12 6/22/12 8/22/12
f 53/23/48 58/26/48 57/25/48 52/24/48
f 4/27/14 7/30/14 58/29/14 53/28/14
f 53/13/15 59/13/15 8/22/15 4/22/15
f 54/31/49 52/33/47 51/32/46
f 53/34/50 55/36/51 59/35/50
f 59/35/50 55/38/51 56/37/50
f 55/39/51 62/41/50 56/40/50
f 54/31/49 53/34/50 52/33/47
f 55/42/51 53/34/50 54/31/49
f 56/43/19 61/46/20 11/45/20 6/44/19
f 9/47/21 10/50/21 62/49/21 55/48/21
f 62/41/50 61/51/50 56/40/50
f 9/52/22 55/54/51 54/20/49 5/53/23
f 29/1/24 28/2/26 65/3/52 66/4/24
f 64/5/53 66/6/54 65/7/55 63/8/44
f 27/9/9 63/10/9 65/11/52
f 28/12/26 27/9/9 65/13/52
f 66/14/54 64/15/53 72/16/8 67/17/56
f 29/18/24 66/19/24 69/20/32 31/21/32
f 74/13/33 34/22/33 32/22/33 71/13/33
f 68/23/57 67/24/57 72/25/57 73/26/57
f 30/27/35 68/28/35 73/29/35 33/30/35
f 68/13/36 30/22/36 34/22/36 74/13/36
f 69/31/58 66/32/54 67/33/56
f 68/34/50 74/35/50 70/36/59
f 74/35/50 71/37/50 70/38/59
f 70/39/59 71/40/50 62/41/50
f 69/31/58 67/33/56 68/34/50
f 70/42/59 69/31/58 68/34/50
f 71/43/39 32/44/39 11/45/20 61/46/20
f 35/47/21 70/48/21 62/49/21 10/50/21
f 62/41/50 71/40/50 61/51/50
f 35/52/40 31/53/41 69/20/58 70/54/59
