# Blender 4.4.3
# www.blender.org
o SM_Collider-Corner_Stairs_V1.0
v -3.337286 -0.000000 -1.825707
v -3.337286 0.000000 5.500000
v 0.337289 0.000000 5.500000
v -3.337286 4.000000 1.750000
v 0.337289 4.000000 1.816818
v 4.988498 3.749866 1.816818
v 1.400719 4.005177 1.816818
v 5.008130 7.600673 1.816817
v 0.337289 0.025000 1.825000
v 4.988498 0.049866 1.825000
v 5.004372 5.648434 1.816818
v -3.337286 4.000000 -1.750000
v 0.337289 4.000000 -1.816818
v 4.988498 3.749866 -1.816818
v 1.400719 4.005177 -1.816818
v 5.008130 7.600673 -1.816819
v 0.337289 0.002372 -1.825000
v 4.988498 0.027238 -1.825000
v 5.004372 5.648434 -1.816818
vn -0.0049 1.0000 -0.0000
vn -0.0067 0.6807 0.7326
vn -1.0000 -0.0000 -0.0000
vn -0.0000 1.0000 -0.0000
vn -0.0000 0.0020 -1.0000
vn 1.0000 -0.0000 -0.0000
vn -0.0000 -0.0000 1.0000
vn -0.0000 0.0021 1.0000
vn -0.7059 0.7083 -0.0000
vn 0.0002 0.0022 -1.0000
vn -0.0090 0.0105 -0.9999
vn -0.0000 -0.0000 -1.0000
vn 1.0000 -0.0084 -0.0000
vn 1.0000 -0.0019 -0.0000
vn 0.0002 0.0022 1.0000
vt 0.909961 0.941964
vt 0.886909 0.946343
vt 0.886909 0.942362
vt 0.977852 0.943910
vt 0.978312 0.903353
vt 0.898374 0.903353
vt 0.897914 0.943910
vt 0.971986 0.903791
vt 0.896618 0.903791
vt 0.904056 0.908502
vt 0.978312 0.914368
vt 0.978312 0.947705
vt 0.898374 0.947705
vt 0.898374 0.914368
vt 0.943634 0.905030
vt 0.965341 0.904853
vt 0.909961 0.946335
vt 0.950015 0.930853
vt 0.921969 0.930823
vt 0.921937 0.902265
vt 0.950110 0.902121
vt 0.957950 0.942327
vt 0.974303 0.939629
vt 0.938588 0.939681
vt 0.922512 0.905295
vt 0.900828 0.950503
vt 0.900805 0.904995
vt 0.917118 0.941376
vt 0.913552 0.907039
vt 0.908038 0.903363
vt 0.950308 0.903731
vt 0.970995 0.979159
vt 0.970995 0.972094
vt 0.943562 0.950863
vt 0.986604 0.904996
vt 0.898374 0.948308
vt 0.978312 0.948308
vt 0.949999 0.945508
vt 0.921953 0.945477
s 0
f 15/1/1 13/2/1 5/3/1 7/1/1
f 3/4/2 5/5/2 4/6/2 2/7/2
f 1/8/3 2/9/3 4/10/3
f 5/11/4 13/12/4 12/13/4 4/14/4
f 18/15/5 17/16/5 13/2/5 15/17/5
f 14/18/6 6/19/6 10/20/6 18/21/6
f 6/22/7 11/23/7 8/24/7
f 10/25/8 7/1/8 5/26/8 9/27/8
f 8/28/7 7/1/7 6/22/7
f 5/29/6 3/30/6 9/31/6
f 12/32/3 1/8/3 4/33/3
f 16/28/9 15/1/9 7/1/9 8/28/9
f 15/17/10 14/34/10 18/15/10
f 1/35/11 12/36/11 13/37/11 17/16/11
f 14/22/12 16/24/12 19/23/12
f 16/28/12 14/22/12 15/1/12
f 6/19/13 14/18/13 19/38/13 11/39/13
f 11/39/14 19/23/14 16/28/14 8/28/14
f 7/1/15 10/25/15 6/22/15
