# Blender 4.4.3
# www.blender.org
o SM_Collider-3D-Tall_PedestrainBridge_V1.0
v -15.204241 4.931240 1.696719
v -15.204241 4.968760 1.696719
v -14.804323 4.968760 1.699719
v -14.804323 4.931240 1.699719
v -15.174240 4.901240 1.696719
v -15.174240 4.998760 1.696719
v -14.834324 4.901240 1.696719
v -14.834324 4.998760 1.696719
v -14.804323 4.968760 -0.000000
v -14.804323 4.931240 -0.000000
v -14.997726 4.000651 1.029552
v -14.997726 4.948652 1.029552
v -14.948229 4.000651 1.050054
v -14.948229 4.948652 1.050054
v -14.927726 4.000651 1.099552
v -14.927726 4.948652 1.099552
v -14.948229 4.000651 1.149049
v -14.948229 4.948652 1.149049
v -14.997726 4.000651 1.169552
v -14.997726 4.948652 1.169552
v -15.047224 4.000651 1.149049
v -15.047224 4.948652 1.149049
v -15.067726 4.000651 1.099552
v -15.067726 4.948652 1.099552
v -15.047224 4.000651 1.050054
v -15.047224 4.948652 1.050054
v -14.997726 4.000651 0.329552
v -14.997726 4.948652 0.329552
v -14.948229 4.000651 0.350054
v -14.948229 4.948652 0.350054
v -14.927726 4.000651 0.399552
v -14.927726 4.948652 0.399552
v -14.948229 4.000651 0.449049
v -14.948229 4.948652 0.449049
v -14.997726 4.000651 0.469552
v -14.997726 4.948652 0.469552
v -15.047224 4.000651 0.449049
v -15.047224 4.948652 0.449049
v -15.067726 4.000651 0.399552
v -15.067726 4.948652 0.399552
v -15.047224 4.000651 0.350054
v -15.047224 4.948652 0.350054
v -14.834324 4.998760 -0.000000
v -15.174240 4.998760 -0.000000
v -15.174240 4.901240 -0.000000
v -15.204241 4.931240 -0.000000
v -14.834324 4.901240 -0.000000
v -15.204241 4.968760 -0.000000
v -6.980000 8.931240 1.300042
v -7.000000 8.998760 1.330042
v -7.000000 8.998760 1.669958
v -0.527916 7.750079 1.429551
v -0.527916 8.948652 1.429551
v -0.478418 7.750079 1.450053
v -0.478418 8.948652 1.450053
v -0.457915 7.750079 1.499551
v -0.457915 8.948652 1.499551
v -0.478418 7.750079 1.549048
v -0.478418 8.948652 1.549048
v -0.527916 7.750079 1.569551
v -0.527916 8.948652 1.569551
v -0.577413 7.750079 1.549048
v -0.577413 8.948652 1.549048
v -0.597916 7.750079 1.499551
v -0.597916 8.948652 1.499551
v -0.577413 7.750079 1.450053
v -0.577413 8.948652 1.450053
v -1.527916 7.750079 1.429551
v -1.527916 8.948652 1.429551
v -1.478418 7.750079 1.450053
v -1.478418 8.948652 1.450053
v -1.457915 7.750079 1.499551
v -1.457915 8.948652 1.499551
v -1.478418 7.750079 1.549048
v -1.478418 8.948652 1.549048
v -1.527916 7.750079 1.569551
v -1.527916 8.948652 1.569551
v -1.577413 7.750079 1.549048
v -1.577413 8.948652 1.549048
v -1.597916 7.750079 1.499551
v -1.597916 8.948652 1.499551
v -1.577413 7.750079 1.450053
v -1.577413 8.948652 1.450053
v -2.527916 7.750079 1.429551
v -2.527916 8.948652 1.429551
v -2.478418 7.750079 1.450053
v -2.478418 8.948652 1.450053
v -2.457915 7.750079 1.499551
v -2.457915 8.948652 1.499551
v -2.478418 7.750079 1.549048
v -2.478418 8.948652 1.549048
v -2.527916 7.750079 1.569551
v -2.527916 8.948652 1.569551
v -2.577413 7.750079 1.549048
v -2.577413 8.948652 1.549048
v -2.597916 7.750079 1.499551
v -2.597916 8.948652 1.499551
v -2.577413 7.750079 1.450053
v -2.577413 8.948652 1.450053
v -3.527916 7.750079 1.429551
v -3.527916 8.948652 1.429551
v -3.478418 7.750079 1.450053
v -3.478418 8.948652 1.450053
v -3.457915 7.750079 1.499551
v -3.457915 8.948652 1.499551
v -3.478418 7.750079 1.549048
v -3.478418 8.948652 1.549048
v -3.527916 7.750079 1.569551
v -3.527916 8.948652 1.569551
v -3.577413 7.750079 1.549048
v -3.577413 8.948652 1.549048
v -3.597916 7.750079 1.499551
v -3.597916 8.948652 1.499551
v -3.577413 7.750079 1.450053
v -3.577413 8.948652 1.450053
v -4.527916 7.750079 1.429551
v -4.527916 8.948652 1.429551
v -4.478418 7.750079 1.450053
v -4.478418 8.948652 1.450053
v -4.457915 7.750079 1.499551
v -4.457915 8.948652 1.499551
v -4.478418 7.750079 1.549048
v -4.478418 8.948652 1.549048
v -4.527916 7.750079 1.569551
v -4.527916 8.948652 1.569551
v -4.577414 7.750079 1.549048
v -4.577414 8.948652 1.549048
v -4.597916 7.750079 1.499551
v -4.597916 8.948652 1.499551
v -4.577414 7.750079 1.450053
v -4.577414 8.948652 1.450053
v -5.527916 7.750079 1.429551
v -5.527916 8.948652 1.429551
v -5.478418 7.750079 1.450053
v -5.478418 8.948652 1.450053
v -5.457915 7.750079 1.499551
v -5.457915 8.948652 1.499551
v -5.478418 7.750079 1.549048
v -5.478418 8.948652 1.549048
v -5.527916 7.750079 1.569551
v -5.527916 8.948652 1.569551
v -5.577414 7.750079 1.549048
v -5.577414 8.948652 1.549048
v -5.597916 7.750079 1.499551
v -5.597916 8.948652 1.499551
v -5.577414 7.750079 1.450053
v -5.577414 8.948652 1.450053
v -6.527916 7.750079 1.429551
v -6.527916 8.948652 1.429551
v -6.478418 7.750079 1.450053
v -6.478418 8.948652 1.450053
v -6.457915 7.750079 1.499551
v -6.457915 8.948652 1.499551
v -6.478418 7.750079 1.549048
v -6.478418 8.948652 1.549048
v -6.527916 7.750079 1.569551
v -6.527916 8.948652 1.569551
v -6.577414 7.750079 1.549048
v -6.577414 8.948652 1.549048
v -6.597916 7.750079 1.499551
v -6.597916 8.948652 1.499551
v -6.577414 7.750079 1.450053
v -6.577414 8.948652 1.450053
v -6.999820 8.901239 1.332842
v -7.002820 8.931240 1.702759
v -7.002820 8.968760 1.702759
v -6.999820 8.968760 1.302842
v 0.000000 8.968760 1.699958
v 0.000000 8.931240 1.300042
v 0.000000 8.998760 1.330042
v 0.000000 8.998760 1.669958
v 0.000000 8.931240 1.699958
v 0.000000 8.968760 1.300042
v 0.000000 8.901239 1.330042
v 0.000000 8.901239 1.669958
v -6.999820 8.901239 1.672759
v -15.337286 0.000000 0.000000
v -15.337286 4.000000 -0.000000
v -11.662711 4.000000 -0.000000
v -7.911502 3.749866 -0.000000
v -10.599281 4.005177 -0.000000
v -4.933199 7.224999 -0.000001
v -6.911502 0.049866 -0.000000
v -6.995628 5.648434 -0.000000
v -6.990369 7.800000 -0.000001
v 0.000000 7.800138 -0.000001
v 0.000000 7.205968 -0.000001
v -15.337286 0.000000 5.500000
v -11.662711 0.000000 5.500000
v -15.337286 4.000000 1.750000
v -11.662711 4.000000 1.816818
v -11.662711 3.725000 1.816818
v -7.911502 3.749866 1.816818
v -10.599281 4.005177 1.816818
v -6.990369 7.800000 1.816817
v -4.933199 7.224999 1.816817
v -11.662711 0.025000 2.625000
v -6.911502 0.049866 2.625000
v -6.995628 5.648434 1.816818
v 0.000000 7.801680 1.481680
v 0.000000 7.205969 1.816817
v 0.000000 7.800138 1.816817
v 15.204241 4.931240 1.696719
v 15.204241 4.968760 1.696719
v 14.804323 4.968760 1.699719
v 14.804323 4.931240 1.699719
v 15.174240 4.901240 1.696719
v 15.174240 4.998760 1.696719
v 14.834324 4.901240 1.696719
v 14.834324 4.998760 1.696719
v 14.804323 4.968760 -0.000000
v 14.804323 4.931240 -0.000000
v 14.997726 4.000651 1.029552
v 14.997726 4.948652 1.029552
v 14.948229 4.000651 1.050054
v 14.948229 4.948652 1.050054
v 14.927726 4.000651 1.099552
v 14.927726 4.948652 1.099552
v 14.948229 4.000651 1.149049
v 14.948229 4.948652 1.149049
v 14.997726 4.000651 1.169552
v 14.997726 4.948652 1.169552
v 15.047224 4.000651 1.149049
v 15.047224 4.948652 1.149049
v 15.067726 4.000651 1.099552
v 15.067726 4.948652 1.099552
v 15.047224 4.000651 1.050054
v 15.047224 4.948652 1.050054
v 14.997726 4.000651 0.329552
v 14.997726 4.948652 0.329552
v 14.948229 4.000651 0.350054
v 14.948229 4.948652 0.350054
v 14.927726 4.000651 0.399552
v 14.927726 4.948652 0.399552
v 14.948229 4.000651 0.449049
v 14.948229 4.948652 0.449049
v 14.997726 4.000651 0.469552
v 14.997726 4.948652 0.469552
v 15.047224 4.000651 0.449049
v 15.047224 4.948652 0.449049
v 15.067726 4.000651 0.399552
v 15.067726 4.948652 0.399552
v 15.047224 4.000651 0.350054
v 15.047224 4.948652 0.350054
v 14.834324 4.998760 -0.000000
v 15.174240 4.998760 -0.000000
v 15.174240 4.901240 -0.000000
v 15.204241 4.931240 -0.000000
v 14.834324 4.901240 -0.000000
v 15.204241 4.968760 -0.000000
v 6.980000 8.931240 1.300042
v 7.000000 8.998760 1.330042
v 7.000000 8.998760 1.669958
v 0.527916 7.750079 1.429551
v 0.527916 8.948652 1.429551
v 0.478418 7.750079 1.450053
v 0.478418 8.948652 1.450053
v 0.457915 7.750079 1.499551
v 0.457915 8.948652 1.499551
v 0.478418 7.750079 1.549048
v 0.478418 8.948652 1.549048
v 0.527916 7.750079 1.569551
v 0.527916 8.948652 1.569551
v 0.577413 7.750079 1.549048
v 0.577413 8.948652 1.549048
v 0.597916 7.750079 1.499551
v 0.597916 8.948652 1.499551
v 0.577413 7.750079 1.450053
v 0.577413 8.948652 1.450053
v 1.527916 7.750079 1.429551
v 1.527916 8.948652 1.429551
v 1.478418 7.750079 1.450053
v 1.478418 8.948652 1.450053
v 1.457915 7.750079 1.499551
v 1.457915 8.948652 1.499551
v 1.478418 7.750079 1.549048
v 1.478418 8.948652 1.549048
v 1.527916 7.750079 1.569551
v 1.527916 8.948652 1.569551
v 1.577413 7.750079 1.549048
v 1.577413 8.948652 1.549048
v 1.597916 7.750079 1.499551
v 1.597916 8.948652 1.499551
v 1.577413 7.750079 1.450053
v 1.577413 8.948652 1.450053
v 2.527916 7.750079 1.429551
v 2.527916 8.948652 1.429551
v 2.478418 7.750079 1.450053
v 2.478418 8.948652 1.450053
v 2.457915 7.750079 1.499551
v 2.457915 8.948652 1.499551
v 2.478418 7.750079 1.549048
v 2.478418 8.948652 1.549048
v 2.527916 7.750079 1.569551
v 2.527916 8.948652 1.569551
v 2.577413 7.750079 1.549048
v 2.577413 8.948652 1.549048
v 2.597916 7.750079 1.499551
v 2.597916 8.948652 1.499551
v 2.577413 7.750079 1.450053
v 2.577413 8.948652 1.450053
v 3.527916 7.750079 1.429551
v 3.527916 8.948652 1.429551
v 3.478418 7.750079 1.450053
v 3.478418 8.948652 1.450053
v 3.457915 7.750079 1.499551
v 3.457915 8.948652 1.499551
v 3.478418 7.750079 1.549048
v 3.478418 8.948652 1.549048
v 3.527916 7.750079 1.569551
v 3.527916 8.948652 1.569551
v 3.577413 7.750079 1.549048
v 3.577413 8.948652 1.549048
v 3.597916 7.750079 1.499551
v 3.597916 8.948652 1.499551
v 3.577413 7.750079 1.450053
v 3.577413 8.948652 1.450053
v 4.527916 7.750079 1.429551
v 4.527916 8.948652 1.429551
v 4.478418 7.750079 1.450053
v 4.478418 8.948652 1.450053
v 4.457915 7.750079 1.499551
v 4.457915 8.948652 1.499551
v 4.478418 7.750079 1.549048
v 4.478418 8.948652 1.549048
v 4.527916 7.750079 1.569551
v 4.527916 8.948652 1.569551
v 4.577414 7.750079 1.549048
v 4.577414 8.948652 1.549048
v 4.597916 7.750079 1.499551
v 4.597916 8.948652 1.499551
v 4.577414 7.750079 1.450053
v 4.577414 8.948652 1.450053
v 5.527916 7.750079 1.429551
v 5.527916 8.948652 1.429551
v 5.478418 7.750079 1.450053
v 5.478418 8.948652 1.450053
v 5.457915 7.750079 1.499551
v 5.457915 8.948652 1.499551
v 5.478418 7.750079 1.549048
v 5.478418 8.948652 1.549048
v 5.527916 7.750079 1.569551
v 5.527916 8.948652 1.569551
v 5.577414 7.750079 1.549048
v 5.577414 8.948652 1.549048
v 5.597916 7.750079 1.499551
v 5.597916 8.948652 1.499551
v 5.577414 7.750079 1.450053
v 5.577414 8.948652 1.450053
v 6.527916 7.750079 1.429551
v 6.527916 8.948652 1.429551
v 6.478418 7.750079 1.450053
v 6.478418 8.948652 1.450053
v 6.457915 7.750079 1.499551
v 6.457915 8.948652 1.499551
v 6.478418 7.750079 1.549048
v 6.478418 8.948652 1.549048
v 6.527916 7.750079 1.569551
v 6.527916 8.948652 1.569551
v 6.577414 7.750079 1.549048
v 6.577414 8.948652 1.549048
v 6.597916 7.750079 1.499551
v 6.597916 8.948652 1.499551
v 6.577414 7.750079 1.450053
v 6.577414 8.948652 1.450053
v 6.999820 8.901239 1.332842
v 7.002820 8.931240 1.702759
v 7.002820 8.968760 1.702759
v 6.999820 8.968760 1.302842
v 6.999820 8.901239 1.672759
v 15.337286 0.000000 0.000000
v 15.337286 4.000000 -0.000000
v 11.662711 4.000000 -0.000000
v 7.911502 3.749866 -0.000000
v 10.599281 4.005177 -0.000000
v 4.933199 7.224999 -0.000001
v 6.911502 0.049866 -0.000000
v 6.995628 5.648434 -0.000000
v 6.990369 7.800000 -0.000001
v 15.337286 0.000000 5.500000
v 11.662711 0.000000 5.500000
v 15.337286 4.000000 1.750000
v 11.662711 4.000000 1.816818
v 11.662711 3.725000 1.816818
v 7.911502 3.749866 1.816818
v 10.599281 4.005177 1.816818
v 6.990369 7.800000 1.816817
v 4.933199 7.224999 1.816817
v 11.662711 0.025000 2.625000
v 6.911502 0.049866 2.625000
v 6.995628 5.648434 1.816818
v -15.204241 4.931240 -1.696719
v -15.204241 4.968760 -1.696719
v -14.804323 4.968760 -1.699719
v -14.804323 4.931240 -1.699719
v -15.174240 4.901240 -1.696719
v -15.174240 4.998760 -1.696719
v -14.834324 4.901240 -1.696719
v -14.834324 4.998760 -1.696719
v -14.997726 4.000651 -1.029552
v -14.997726 4.948652 -1.029552
v -14.948229 4.000651 -1.050054
v -14.948229 4.948652 -1.050054
v -14.927726 4.000651 -1.099552
v -14.927726 4.948652 -1.099552
v -14.948229 4.000651 -1.149049
v -14.948229 4.948652 -1.149049
v -14.997726 4.000651 -1.169552
v -14.997726 4.948652 -1.169552
v -15.047224 4.000651 -1.149049
v -15.047224 4.948652 -1.149049
v -15.067726 4.000651 -1.099552
v -15.067726 4.948652 -1.099552
v -15.047224 4.000651 -1.050054
v -15.047224 4.948652 -1.050054
v -14.997726 4.000651 -0.329552
v -14.997726 4.948652 -0.329552
v -14.948229 4.000651 -0.350054
v -14.948229 4.948652 -0.350054
v -14.927726 4.000651 -0.399552
v -14.927726 4.948652 -0.399552
v -14.948229 4.000651 -0.449049
v -14.948229 4.948652 -0.449049
v -14.997726 4.000651 -0.469552
v -14.997726 4.948652 -0.469552
v -15.047224 4.000651 -0.449049
v -15.047224 4.948652 -0.449049
v -15.067726 4.000651 -0.399552
v -15.067726 4.948652 -0.399552
v -15.047224 4.000651 -0.350054
v -15.047224 4.948652 -0.350054
v -6.980000 8.931240 -1.300044
v -7.000000 8.998760 -1.330044
v -7.000000 8.998760 -1.669960
v -0.527916 7.750079 -1.429553
v -0.527916 8.948652 -1.429553
v -0.478418 7.750079 -1.450055
v -0.478418 8.948652 -1.450055
v -0.457915 7.750079 -1.499553
v -0.457915 8.948652 -1.499553
v -0.478418 7.750079 -1.549050
v -0.478418 8.948652 -1.549050
v -0.527916 7.750079 -1.569553
v -0.527916 8.948652 -1.569553
v -0.577413 7.750079 -1.549050
v -0.577413 8.948652 -1.549050
v -0.597916 7.750079 -1.499553
v -0.597916 8.948652 -1.499553
v -0.577413 7.750079 -1.450055
v -0.577413 8.948652 -1.450055
v -1.527916 7.750079 -1.429553
v -1.527916 8.948652 -1.429553
v -1.478418 7.750079 -1.450055
v -1.478418 8.948652 -1.450055
v -1.457915 7.750079 -1.499553
v -1.457915 8.948652 -1.499553
v -1.478418 7.750079 -1.549050
v -1.478418 8.948652 -1.549050
v -1.527916 7.750079 -1.569553
v -1.527916 8.948652 -1.569553
v -1.577413 7.750079 -1.549050
v -1.577413 8.948652 -1.549050
v -1.597916 7.750079 -1.499553
v -1.597916 8.948652 -1.499553
v -1.577413 7.750079 -1.450055
v -1.577413 8.948652 -1.450055
v -2.527916 7.750079 -1.429553
v -2.527916 8.948652 -1.429553
v -2.478418 7.750079 -1.450055
v -2.478418 8.948652 -1.450055
v -2.457915 7.750079 -1.499553
v -2.457915 8.948652 -1.499553
v -2.478418 7.750079 -1.549050
v -2.478418 8.948652 -1.549050
v -2.527916 7.750079 -1.569553
v -2.527916 8.948652 -1.569553
v -2.577413 7.750079 -1.549050
v -2.577413 8.948652 -1.549050
v -2.597916 7.750079 -1.499553
v -2.597916 8.948652 -1.499553
v -2.577413 7.750079 -1.450055
v -2.577413 8.948652 -1.450055
v -3.527916 7.750079 -1.429553
v -3.527916 8.948652 -1.429553
v -3.478418 7.750079 -1.450055
v -3.478418 8.948652 -1.450055
v -3.457915 7.750079 -1.499553
v -3.457915 8.948652 -1.499553
v -3.478418 7.750079 -1.549050
v -3.478418 8.948652 -1.549050
v -3.527916 7.750079 -1.569553
v -3.527916 8.948652 -1.569553
v -3.577413 7.750079 -1.549050
v -3.577413 8.948652 -1.549050
v -3.597916 7.750079 -1.499553
v -3.597916 8.948652 -1.499553
v -3.577413 7.750079 -1.450055
v -3.577413 8.948652 -1.450055
v -4.527916 7.750079 -1.429553
v -4.527916 8.948652 -1.429553
v -4.478418 7.750079 -1.450055
v -4.478418 8.948652 -1.450055
v -4.457915 7.750079 -1.499553
v -4.457915 8.948652 -1.499553
v -4.478418 7.750079 -1.549050
v -4.478418 8.948652 -1.549050
v -4.527916 7.750079 -1.569553
v -4.527916 8.948652 -1.569553
v -4.577414 7.750079 -1.549050
v -4.577414 8.948652 -1.549050
v -4.597916 7.750079 -1.499553
v -4.597916 8.948652 -1.499553
v -4.577414 7.750079 -1.450055
v -4.577414 8.948652 -1.450055
v -5.527916 7.750079 -1.429553
v -5.527916 8.948652 -1.429553
v -5.478418 7.750079 -1.450055
v -5.478418 8.948652 -1.450055
v -5.457915 7.750079 -1.499553
v -5.457915 8.948652 -1.499553
v -5.478418 7.750079 -1.549050
v -5.478418 8.948652 -1.549050
v -5.527916 7.750079 -1.569553
v -5.527916 8.948652 -1.569553
v -5.577414 7.750079 -1.549050
v -5.577414 8.948652 -1.549050
v -5.597916 7.750079 -1.499553
v -5.597916 8.948652 -1.499553
v -5.577414 7.750079 -1.450055
v -5.577414 8.948652 -1.450055
v -6.527916 7.750079 -1.429553
v -6.527916 8.948652 -1.429553
v -6.478418 7.750079 -1.450055
v -6.478418 8.948652 -1.450055
v -6.457915 7.750079 -1.499553
v -6.457915 8.948652 -1.499553
v -6.478418 7.750079 -1.549050
v -6.478418 8.948652 -1.549050
v -6.527916 7.750079 -1.569553
v -6.527916 8.948652 -1.569553
v -6.577414 7.750079 -1.549050
v -6.577414 8.948652 -1.549050
v -6.597916 7.750079 -1.499553
v -6.597916 8.948652 -1.499553
v -6.577414 7.750079 -1.450055
v -6.577414 8.948652 -1.450055
v -6.999820 8.901239 -1.332844
v -7.002820 8.931240 -1.702761
v -7.002820 8.968760 -1.702761
v -6.999820 8.968760 -1.302844
v 0.000000 8.968760 -1.699960
v 0.000000 8.931240 -1.300044
v 0.000000 8.998760 -1.330044
v 0.000000 8.998760 -1.669960
v 0.000000 8.931240 -1.699960
v 0.000000 8.968760 -1.300044
v 0.000000 8.901239 -1.330044
v 0.000000 8.901239 -1.669960
v -6.999820 8.901239 -1.672761
v -15.337286 -0.000000 -5.500000
v -11.662711 -0.000000 -5.500000
v -15.337286 4.000000 -1.750000
v -11.662711 4.000000 -1.816818
v -11.662711 3.725000 -1.816818
v -7.911502 3.749866 -1.816818
v -10.599281 4.005177 -1.816818
v -6.990369 7.800000 -1.816819
v -4.933199 7.224999 -1.816819
v -11.662711 0.025000 -2.625000
v -6.911502 0.049866 -2.625000
v -6.995628 5.648434 -1.816818
v 0.000000 7.801680 -1.481682
v 0.000000 7.205969 -1.816819
v 0.000000 7.800138 -1.816819
v 15.204241 4.931240 -1.696719
v 15.204241 4.968760 -1.696719
v 14.804323 4.968760 -1.699719
v 14.804323 4.931240 -1.699719
v 15.174240 4.901240 -1.696719
v 15.174240 4.998760 -1.696719
v 14.834324 4.901240 -1.696719
v 14.834324 4.998760 -1.696719
v 14.997726 4.000651 -1.029552
v 14.997726 4.948652 -1.029552
v 14.948229 4.000651 -1.050054
v 14.948229 4.948652 -1.050054
v 14.927726 4.000651 -1.099552
v 14.927726 4.948652 -1.099552
v 14.948229 4.000651 -1.149049
v 14.948229 4.948652 -1.149049
v 14.997726 4.000651 -1.169552
v 14.997726 4.948652 -1.169552
v 15.047224 4.000651 -1.149049
v 15.047224 4.948652 -1.149049
v 15.067726 4.000651 -1.099552
v 15.067726 4.948652 -1.099552
v 15.047224 4.000651 -1.050054
v 15.047224 4.948652 -1.050054
v 14.997726 4.000651 -0.329552
v 14.997726 4.948652 -0.329552
v 14.948229 4.000651 -0.350054
v 14.948229 4.948652 -0.350054
v 14.927726 4.000651 -0.399552
v 14.927726 4.948652 -0.399552
v 14.948229 4.000651 -0.449049
v 14.948229 4.948652 -0.449049
v 14.997726 4.000651 -0.469552
v 14.997726 4.948652 -0.469552
v 15.047224 4.000651 -0.449049
v 15.047224 4.948652 -0.449049
v 15.067726 4.000651 -0.399552
v 15.067726 4.948652 -0.399552
v 15.047224 4.000651 -0.350054
v 15.047224 4.948652 -0.350054
v 6.980000 8.931240 -1.300044
v 7.000000 8.998760 -1.330044
v 7.000000 8.998760 -1.669960
v 0.527916 7.750079 -1.429553
v 0.527916 8.948652 -1.429553
v 0.478418 7.750079 -1.450055
v 0.478418 8.948652 -1.450055
v 0.457915 7.750079 -1.499553
v 0.457915 8.948652 -1.499553
v 0.478418 7.750079 -1.549050
v 0.478418 8.948652 -1.549050
v 0.527916 7.750079 -1.569553
v 0.527916 8.948652 -1.569553
v 0.577413 7.750079 -1.549050
v 0.577413 8.948652 -1.549050
v 0.597916 7.750079 -1.499553
v 0.597916 8.948652 -1.499553
v 0.577413 7.750079 -1.450055
v 0.577413 8.948652 -1.450055
v 1.527916 7.750079 -1.429553
v 1.527916 8.948652 -1.429553
v 1.478418 7.750079 -1.450055
v 1.478418 8.948652 -1.450055
v 1.457915 7.750079 -1.499553
v 1.457915 8.948652 -1.499553
v 1.478418 7.750079 -1.549050
v 1.478418 8.948652 -1.549050
v 1.527916 7.750079 -1.569553
v 1.527916 8.948652 -1.569553
v 1.577413 7.750079 -1.549050
v 1.577413 8.948652 -1.549050
v 1.597916 7.750079 -1.499553
v 1.597916 8.948652 -1.499553
v 1.577413 7.750079 -1.450055
v 1.577413 8.948652 -1.450055
v 2.527916 7.750079 -1.429553
v 2.527916 8.948652 -1.429553
v 2.478418 7.750079 -1.450055
v 2.478418 8.948652 -1.450055
v 2.457915 7.750079 -1.499553
v 2.457915 8.948652 -1.499553
v 2.478418 7.750079 -1.549050
v 2.478418 8.948652 -1.549050
v 2.527916 7.750079 -1.569553
v 2.527916 8.948652 -1.569553
v 2.577413 7.750079 -1.549050
v 2.577413 8.948652 -1.549050
v 2.597916 7.750079 -1.499553
v 2.597916 8.948652 -1.499553
v 2.577413 7.750079 -1.450055
v 2.577413 8.948652 -1.450055
v 3.527916 7.750079 -1.429553
v 3.527916 8.948652 -1.429553
v 3.478418 7.750079 -1.450055
v 3.478418 8.948652 -1.450055
v 3.457915 7.750079 -1.499553
v 3.457915 8.948652 -1.499553
v 3.478418 7.750079 -1.549050
v 3.478418 8.948652 -1.549050
v 3.527916 7.750079 -1.569553
v 3.527916 8.948652 -1.569553
v 3.577413 7.750079 -1.549050
v 3.577413 8.948652 -1.549050
v 3.597916 7.750079 -1.499553
v 3.597916 8.948652 -1.499553
v 3.577413 7.750079 -1.450055
v 3.577413 8.948652 -1.450055
v 4.527916 7.750079 -1.429553
v 4.527916 8.948652 -1.429553
v 4.478418 7.750079 -1.450055
v 4.478418 8.948652 -1.450055
v 4.457915 7.750079 -1.499553
v 4.457915 8.948652 -1.499553
v 4.478418 7.750079 -1.549050
v 4.478418 8.948652 -1.549050
v 4.527916 7.750079 -1.569553
v 4.527916 8.948652 -1.569553
v 4.577414 7.750079 -1.549050
v 4.577414 8.948652 -1.549050
v 4.597916 7.750079 -1.499553
v 4.597916 8.948652 -1.499553
v 4.577414 7.750079 -1.450055
v 4.577414 8.948652 -1.450055
v 5.527916 7.750079 -1.429553
v 5.527916 8.948652 -1.429553
v 5.478418 7.750079 -1.450055
v 5.478418 8.948652 -1.450055
v 5.457915 7.750079 -1.499553
v 5.457915 8.948652 -1.499553
v 5.478418 7.750079 -1.549050
v 5.478418 8.948652 -1.549050
v 5.527916 7.750079 -1.569553
v 5.527916 8.948652 -1.569553
v 5.577414 7.750079 -1.549050
v 5.577414 8.948652 -1.549050
v 5.597916 7.750079 -1.499553
v 5.597916 8.948652 -1.499553
v 5.577414 7.750079 -1.450055
v 5.577414 8.948652 -1.450055
v 6.527916 7.750079 -1.429553
v 6.527916 8.948652 -1.429553
v 6.478418 7.750079 -1.450055
v 6.478418 8.948652 -1.450055
v 6.457915 7.750079 -1.499553
v 6.457915 8.948652 -1.499553
v 6.478418 7.750079 -1.549050
v 6.478418 8.948652 -1.549050
v 6.527916 7.750079 -1.569553
v 6.527916 8.948652 -1.569553
v 6.577414 7.750079 -1.549050
v 6.577414 8.948652 -1.549050
v 6.597916 7.750079 -1.499553
v 6.597916 8.948652 -1.499553
v 6.577414 7.750079 -1.450055
v 6.577414 8.948652 -1.450055
v 6.999820 8.901239 -1.332844
v 7.002820 8.931240 -1.702761
v 7.002820 8.968760 -1.702761
v 6.999820 8.968760 -1.302844
v 6.999820 8.901239 -1.672761
v 15.337286 -0.000000 -5.500000
v 11.662711 -0.000000 -5.500000
v 15.337286 4.000000 -1.750000
v 11.662711 4.000000 -1.816818
v 11.662711 3.725000 -1.816818
v 7.911502 3.749866 -1.816818
v 10.599281 4.005177 -1.816818
v 6.990369 7.800000 -1.816819
v 4.933199 7.224999 -1.816819
v 11.662711 0.025000 -2.625000
v 6.911502 0.049866 -2.625000
v 6.995628 5.648434 -1.816818
vn 0.5508 0.0139 0.8345
vn 0.5508 -0.0139 0.8345
vn 1.0000 -0.0000 -0.0000
vn 0.3827 -0.0000 -0.9239
vn 0.9239 -0.0000 -0.3827
vn 0.9239 -0.0000 0.3827
vn 0.3827 -0.0000 0.9239
vn -0.3827 -0.0000 0.9239
vn -0.9239 -0.0000 0.3827
vn -0.9239 -0.0000 -0.3827
vn -0.3827 -0.0000 -0.9239
vn -0.5584 -0.0138 0.8294
vn -0.5584 0.0138 0.8294
vn -1.0000 -0.0000 -0.0000
vn -0.7071 -0.7071 -0.0000
vn -0.0000 -1.0000 -0.0000
vn -0.7071 0.7071 -0.0000
vn -0.0000 1.0000 -0.0000
vn 0.7071 -0.7071 -0.0000
vn 0.7071 0.7071 -0.0000
vn -0.0000 -0.7071 0.7071
vn 0.0003 -0.7071 0.7071
vn -0.0000 0.7071 -0.7071
vn -0.0003 0.7071 -0.7071
vn -0.0000 -0.0000 -1.0000
vn -0.7068 -0.0632 -0.7046
vn -0.8846 -0.1074 -0.4539
vn -0.0000 -0.7071 -0.7071
vn -0.0000 0.7071 0.7071
vn -0.8328 -0.0692 0.5492
vn -0.0000 -0.0000 1.0000
vn -0.8237 -0.1139 0.5555
vn -0.9653 0.2612 -0.0062
vn -0.9628 0.2685 -0.0296
vn -0.9988 0.0416 -0.0267
vn -0.9990 0.0435 -0.0041
vn -0.0040 -0.0499 0.9987
vn -0.0040 0.0499 0.9987
vn -0.0024 1.0000 -0.0000
vn -0.4894 0.4893 -0.7219
vn -0.9900 -0.1409 -0.0000
vn 0.7142 -0.3240 0.6204
vn 0.7036 -0.3970 0.5893
vn -0.0049 -0.0010 1.0000
vn -0.0000 -0.0010 1.0000
vn 0.1622 -0.0000 0.9868
vn -0.0049 1.0000 -0.0000
vn 0.6073 -0.7945 -0.0000
vn -0.0012 0.2132 0.9770
vn 0.9654 0.2609 -0.0000
vn 0.9007 -0.4345 -0.0000
vn -0.3665 -0.4355 0.8222
vn -0.6526 -0.3330 0.6806
vn -0.0039 -1.0000 -0.0000
vn -0.9906 0.1367 -0.0000
vn -1.0000 0.0031 -0.0000
vn -0.5508 0.0139 0.8345
vn -0.5508 -0.0139 0.8345
vn 0.5584 -0.0138 0.8294
vn 0.5584 0.0138 0.8294
vn -0.0003 -0.7071 0.7071
vn 0.0003 0.7071 -0.7071
vn 0.8846 -0.1074 -0.4539
vn 0.7068 -0.0632 -0.7046
vn 0.8328 -0.0692 0.5492
vn 0.8237 -0.1139 0.5555
vn 0.9653 0.2612 -0.0062
vn 0.9628 0.2685 -0.0296
vn 0.9990 0.0436 -0.0041
vn 0.9988 0.0416 -0.0267
vn 0.0040 -0.0499 0.9987
vn 0.0040 0.0499 0.9987
vn 0.0024 1.0000 -0.0000
vn 0.9900 -0.1410 -0.0001
vn 0.9998 -0.0212 -0.0002
vn -0.7142 -0.3240 0.6204
vn 0.0049 -0.0010 1.0000
vn -0.7036 -0.3970 0.5894
vn -0.1622 -0.0000 0.9868
vn 0.0049 1.0000 -0.0000
vn -0.6073 -0.7945 -0.0000
vn 0.0012 0.2132 0.9770
vn -0.9654 0.2609 -0.0000
vn -0.9007 -0.4345 -0.0000
vn 0.3665 -0.4356 0.8222
vn 0.6526 -0.3331 0.6806
vn 0.0039 -1.0000 -0.0000
vn 0.9906 0.1366 -0.0000
vn 1.0000 0.0031 -0.0000
vn 0.5508 0.0139 -0.8345
vn 0.5508 -0.0139 -0.8345
vn -0.5584 -0.0138 -0.8294
vn -0.5584 0.0138 -0.8294
vn 0.0003 -0.7071 -0.7071
vn -0.0003 0.7071 0.7071
vn -0.8846 -0.1074 0.4539
vn -0.7068 -0.0632 0.7046
vn -0.8328 -0.0692 -0.5492
vn -0.8237 -0.1139 -0.5555
vn -0.9653 0.2612 0.0062
vn -0.9628 0.2685 0.0296
vn -0.9990 0.0436 0.0041
vn -0.9988 0.0416 0.0267
vn -0.0040 -0.0499 -0.9987
vn -0.0040 0.0499 -0.9987
vn -0.9900 -0.1410 0.0001
vn 0.7142 -0.3240 -0.6204
vn -0.0000 -0.0010 -1.0000
vn -0.0049 -0.0010 -1.0000
vn 0.7036 -0.3970 -0.5894
vn 0.1622 -0.0000 -0.9868
vn -0.0012 0.2132 -0.9770
vn -0.3665 -0.4356 -0.8222
vn -0.6526 -0.3331 -0.6806
vn -0.5508 0.0139 -0.8345
vn -0.5508 -0.0139 -0.8345
vn 0.5584 -0.0138 -0.8294
vn 0.5584 0.0138 -0.8294
vn -0.0003 -0.7071 -0.7071
vn 0.0003 0.7071 0.7071
vn 0.7068 -0.0632 0.7046
vn 0.8846 -0.1074 0.4539
vn 0.8328 -0.0692 -0.5492
vn 0.8237 -0.1139 -0.5555
vn 0.9653 0.2612 0.0062
vn 0.9628 0.2685 0.0296
vn 0.9988 0.0416 0.0267
vn 0.9990 0.0435 0.0041
vn 0.0040 -0.0499 -0.9987
vn 0.0040 0.0499 -0.9987
vn 0.9900 -0.1411 -0.0000
vn -0.7142 -0.3240 -0.6205
vn -0.7036 -0.3970 -0.5894
vn 0.0049 -0.0011 -1.0000
vn -0.0000 -0.0011 -1.0000
vn -0.1621 -0.0000 -0.9868
vn 0.0012 0.2132 -0.9770
vn 0.3665 -0.4356 -0.8221
vn 0.6526 -0.3331 -0.6806
vt 0.920582 0.890172
vt 0.916791 0.897942
vt 0.975019 0.709573
vt 0.975019 0.776760
vt 0.965455 0.776760
vt 0.965455 0.709573
vt 0.955890 0.776760
vt 0.955890 0.709573
vt 0.946325 0.776760
vt 0.946325 0.709573
vt 0.936760 0.776760
vt 0.936760 0.709573
vt 0.927195 0.776760
vt 0.927195 0.709573
vt 0.917630 0.776760
vt 0.917630 0.709573
vt 0.908066 0.776760
vt 0.908066 0.709573
vt 0.898501 0.776760
vt 0.898501 0.709573
vt 0.922610 0.807928
vt 0.919501 0.814301
vt 0.967183 0.811588
vt 0.969710 0.805851
vt 0.967184 0.876791
vt 0.915513 0.807472
vt 0.917498 0.813172
vt 0.917499 0.877547
vt 0.969194 0.882564
vt 0.915003 0.883211
vt 0.947818 0.859434
vt 0.906148 0.859434
vt 0.906148 0.855946
vt 0.947818 0.855946
vt 0.939645 0.815278
vt 0.980911 0.815278
vt 0.981017 0.819125
vt 0.939645 0.819125
vt 0.941062 0.813436
vt 0.895076 0.813436
vt 0.895076 0.810661
vt 0.941062 0.810661
vt 0.939645 0.862715
vt 0.981017 0.862715
vt 0.906148 0.816423
vt 0.947818 0.816424
vt 0.941062 0.816487
vt 0.894958 0.816487
vt 0.982666 0.881827
vt 0.942107 0.881827
vt 0.942107 0.872638
vt 0.982666 0.872638
vt 0.982666 0.890187
vt 0.942107 0.890187
vt 0.978312 0.969520
vt 0.898374 0.969520
vt 0.898374 0.914368
vt 0.978312 0.914368
vt 0.977852 0.943910
vt 0.978312 0.903353
vt 0.898374 0.903353
vt 0.897914 0.943910
vt 0.971986 0.903791
vt 0.896618 0.903791
vt 0.904056 0.908502
vt 0.971986 0.979159
vt 0.970995 0.972094
vt 0.896424 0.909945
vt 0.886181 0.904143
vt 0.969491 0.903854
vt 0.985522 0.991156
vt 0.887508 0.944674
vt 0.998331 0.944674
vt 0.998331 0.945448
vt 0.887508 0.945448
vt 0.971986 0.972094
vt 0.976443 0.957711
vt 0.898083 0.956441
vt 0.898842 0.903299
vt 0.996897 0.904770
vt 0.956982 0.987851
vt 0.930389 0.987851
vt 0.917092 0.903310
vt 0.956982 0.903310
vt 0.909961 0.941964
vt 0.886909 0.941971
vt 0.886909 0.942362
vt 0.957950 0.942327
vt 0.974303 0.939629
vt 0.938588 0.939681
vt 0.990466 0.936962
vt 0.967213 0.937420
vt 0.978502 0.949766
vt 0.967426 0.946670
vt 0.940865 0.949767
vt 0.917118 0.941376
vt 0.908561 0.954217
vt 0.908561 0.950691
vt 0.974642 0.950691
vt 0.974642 0.954217
vt 0.887509 0.908300
vt 0.998331 0.908300
vt 0.998331 0.969342
vt 0.887508 0.969342
vt 0.940865 0.946568
vt 0.998331 0.925197
vt 0.942919 0.945448
vt 0.998331 0.945623
s 1
f 3/1/1 4/2/2 10/2/3 9/1/3
f 11/3/4 12/4/4 14/5/4 13/6/4
f 13/6/5 14/5/5 16/7/5 15/8/5
f 15/8/6 16/7/6 18/9/6 17/10/6
f 17/10/7 18/9/7 20/11/7 19/12/7
f 19/12/8 20/11/8 22/13/8 21/14/8
f 21/14/9 22/13/9 24/15/9 23/16/9
f 23/16/10 24/15/10 26/17/10 25/18/10
f 25/18/11 26/17/11 12/19/11 11/20/11
f 27/3/4 28/4/4 30/5/4 29/6/4
f 29/6/5 30/5/5 32/7/5 31/8/5
f 31/8/6 32/7/6 34/9/6 33/10/6
f 33/10/7 34/9/7 36/11/7 35/12/7
f 35/12/8 36/11/8 38/13/8 37/14/8
f 37/14/9 38/13/9 40/15/9 39/16/9
f 39/16/10 40/15/10 42/17/10 41/18/10
f 41/18/11 42/17/11 28/19/11 27/20/11
f 1/21/12 2/22/13 48/22/14 46/21/14
f 5/23/15 1/24/15 46/24/15 45/23/15
f 7/25/16 5/23/16 45/23/16 47/25/16
f 2/26/17 6/27/17 44/27/17 48/26/17
f 6/27/18 8/28/18 43/28/18 44/27/18
f 4/29/19 7/25/19 47/25/19 10/29/19
f 8/28/20 3/30/20 9/30/20 43/28/20
f 172/31/21 165/32/22 176/33/22 175/34/21
f 173/35/23 167/36/24 50/37/23 170/38/23
f 169/39/25 49/40/26 167/41/27 173/42/25
f 171/43/18 170/38/18 50/37/18 51/44/18
f 52/3/4 53/4/4 55/5/4 54/6/4
f 54/6/5 55/5/5 57/7/5 56/8/5
f 56/8/6 57/7/6 59/9/6 58/10/6
f 58/10/7 59/9/7 61/11/7 60/12/7
f 60/12/8 61/11/8 63/13/8 62/14/8
f 62/14/9 63/13/9 65/15/9 64/16/9
f 64/16/10 65/15/10 67/17/10 66/18/10
f 66/18/11 67/17/11 53/19/11 52/20/11
f 68/3/4 69/4/4 71/5/4 70/6/4
f 70/6/5 71/5/5 73/7/5 72/8/5
f 72/8/6 73/7/6 75/9/6 74/10/6
f 74/10/7 75/9/7 77/11/7 76/12/7
f 76/12/8 77/11/8 79/13/8 78/14/8
f 78/14/9 79/13/9 81/15/9 80/16/9
f 80/16/10 81/15/10 83/17/10 82/18/10
f 82/18/11 83/17/11 69/19/11 68/20/11
f 84/3/4 85/4/4 87/5/4 86/6/4
f 86/6/5 87/5/5 89/7/5 88/8/5
f 88/8/6 89/7/6 91/9/6 90/10/6
f 90/10/7 91/9/7 93/11/7 92/12/7
f 92/12/8 93/11/8 95/13/8 94/14/8
f 94/14/9 95/13/9 97/15/9 96/16/9
f 96/16/10 97/15/10 99/17/10 98/18/10
f 98/18/11 99/17/11 85/19/11 84/20/11
f 100/3/4 101/4/4 103/5/4 102/6/4
f 102/6/5 103/5/5 105/7/5 104/8/5
f 104/8/6 105/7/6 107/9/6 106/10/6
f 106/10/7 107/9/7 109/11/7 108/12/7
f 108/12/8 109/11/8 111/13/8 110/14/8
f 110/14/9 111/13/9 113/15/9 112/16/9
f 112/16/10 113/15/10 115/17/10 114/18/10
f 114/18/11 115/17/11 101/19/11 100/20/11
f 116/3/4 117/4/4 119/5/4 118/6/4
f 118/6/5 119/5/5 121/7/5 120/8/5
f 120/8/6 121/7/6 123/9/6 122/10/6
f 122/10/7 123/9/7 125/11/7 124/12/7
f 124/12/8 125/11/8 127/13/8 126/14/8
f 126/14/9 127/13/9 129/15/9 128/16/9
f 128/16/10 129/15/10 131/17/10 130/18/10
f 130/18/11 131/17/11 117/19/11 116/20/11
f 132/3/4 133/4/4 135/5/4 134/6/4
f 134/6/5 135/5/5 137/7/5 136/8/5
f 136/8/6 137/7/6 139/9/6 138/10/6
f 138/10/7 139/9/7 141/11/7 140/12/7
f 140/12/8 141/11/8 143/13/8 142/14/8
f 142/14/9 143/13/9 145/15/9 144/16/9
f 144/16/10 145/15/10 147/17/10 146/18/10
f 146/18/11 147/17/11 133/19/11 132/20/11
f 148/3/4 149/4/4 151/5/4 150/6/4
f 150/6/5 151/5/5 153/7/5 152/8/5
f 152/8/6 153/7/6 155/9/6 154/10/6
f 154/10/7 155/9/7 157/11/7 156/12/7
f 156/12/8 157/11/8 159/13/8 158/14/8
f 158/14/9 159/13/9 161/15/9 160/16/9
f 160/16/10 161/15/10 163/17/10 162/18/10
f 162/18/11 163/17/11 149/19/11 148/20/11
f 164/45/16 174/46/16 175/34/16 176/33/16
f 49/40/28 169/39/28 174/47/28 164/48/28
f 166/49/29 168/50/29 171/51/29 51/52/29
f 165/53/30 172/54/31 168/50/31 166/49/32
f 164/48/33 176/33/34 165/53/30 49/40/26
f 166/49/32 167/36/27 49/40/26 165/53/30
f 167/36/27 166/49/32 51/52/35 50/37/36
f 7/25/37 4/29/2 1/21/12 5/23/37
f 1/21/12 4/2/2 3/1/1 2/26/13
f 8/28/38 6/27/38 2/26/13 3/30/1
f 179/55/39 178/56/40 190/57/41 191/58/39
f 189/59/42 191/60/43 190/61/44 188/62/45
f 177/63/14 188/64/14 190/65/41
f 178/66/40 177/63/14 190/67/41
f 191/68/43 189/69/42 197/70/3 192/71/46
f 179/72/39 191/73/39 194/74/47 181/75/47
f 199/67/48 184/76/48 182/76/48 196/67/48
f 193/77/49 192/78/49 197/79/49 198/80/49
f 180/81/50 193/82/50 198/83/50 183/84/50
f 193/67/51 180/76/51 184/76/51 199/67/51
f 194/85/52 191/86/43 192/87/46
f 193/88/31 199/89/31 195/90/53
f 199/89/31 196/91/31 195/92/53
f 195/93/53 196/94/31 202/95/31
f 194/85/52 192/87/46 193/88/31
f 195/96/53 194/85/52 193/88/31
f 196/97/54 182/98/54 187/99/16 201/100/16
f 185/101/18 195/102/18 202/103/18 186/104/18
f 202/95/31 196/94/31 201/105/31
f 185/106/55 181/107/56 194/74/52 195/108/53
f 205/1/57 211/1/14 212/2/14 206/2/58
f 213/3/11 215/6/11 216/5/11 214/4/11
f 215/6/10 217/8/10 218/7/10 216/5/10
f 217/8/9 219/10/9 220/9/9 218/7/9
f 219/10/8 221/12/8 222/11/8 220/9/8
f 221/12/7 223/14/7 224/13/7 222/11/7
f 223/14/6 225/16/6 226/15/6 224/13/6
f 225/16/5 227/18/5 228/17/5 226/15/5
f 227/18/4 213/20/4 214/19/4 228/17/4
f 229/3/11 231/6/11 232/5/11 230/4/11
f 231/6/10 233/8/10 234/7/10 232/5/10
f 233/8/9 235/10/9 236/9/9 234/7/9
f 235/10/8 237/12/8 238/11/8 236/9/8
f 237/12/7 239/14/7 240/13/7 238/11/7
f 239/14/6 241/16/6 242/15/6 240/13/6
f 241/16/5 243/18/5 244/17/5 242/15/5
f 243/18/4 229/20/4 230/19/4 244/17/4
f 203/21/59 248/21/3 250/22/3 204/22/60
f 207/23/19 247/23/19 248/24/19 203/24/19
f 209/25/16 249/25/16 247/23/16 207/23/16
f 204/26/20 250/26/20 246/27/20 208/27/20
f 208/27/18 246/27/18 245/28/18 210/28/18
f 206/29/15 212/29/15 249/25/15 209/25/15
f 210/28/17 245/28/17 211/30/17 205/30/17
f 172/31/21 175/34/21 370/33/61 367/32/61
f 173/35/23 170/38/23 252/37/23 369/36/62
f 169/39/25 173/42/25 369/41/63 251/40/64
f 171/43/18 253/44/18 252/37/18 170/38/18
f 254/3/11 256/6/11 257/5/11 255/4/11
f 256/6/10 258/8/10 259/7/10 257/5/10
f 258/8/9 260/10/9 261/9/9 259/7/9
f 260/10/8 262/12/8 263/11/8 261/9/8
f 262/12/7 264/14/7 265/13/7 263/11/7
f 264/14/6 266/16/6 267/15/6 265/13/6
f 266/16/5 268/18/5 269/17/5 267/15/5
f 268/18/4 254/20/4 255/19/4 269/17/4
f 270/3/11 272/6/11 273/5/11 271/4/11
f 272/6/10 274/8/10 275/7/10 273/5/10
f 274/8/9 276/10/9 277/9/9 275/7/9
f 276/10/8 278/12/8 279/11/8 277/9/8
f 278/12/7 280/14/7 281/13/7 279/11/7
f 280/14/6 282/16/6 283/15/6 281/13/6
f 282/16/5 284/18/5 285/17/5 283/15/5
f 284/18/4 270/20/4 271/19/4 285/17/4
f 286/3/11 288/6/11 289/5/11 287/4/11
f 288/6/10 290/8/10 291/7/10 289/5/10
f 290/8/9 292/10/9 293/9/9 291/7/9
f 292/10/8 294/12/8 295/11/8 293/9/8
f 294/12/7 296/14/7 297/13/7 295/11/7
f 296/14/6 298/16/6 299/15/6 297/13/6
f 298/16/5 300/18/5 301/17/5 299/15/5
f 300/18/4 286/20/4 287/19/4 301/17/4
f 302/3/11 304/6/11 305/5/11 303/4/11
f 304/6/10 306/8/10 307/7/10 305/5/10
f 306/8/9 308/10/9 309/9/9 307/7/9
f 308/10/8 310/12/8 311/11/8 309/9/8
f 310/12/7 312/14/7 313/13/7 311/11/7
f 312/14/6 314/16/6 315/15/6 313/13/6
f 314/16/5 316/18/5 317/17/5 315/15/5
f 316/18/4 302/20/4 303/19/4 317/17/4
f 318/3/11 320/6/11 321/5/11 319/4/11
f 320/6/10 322/8/10 323/7/10 321/5/10
f 322/8/9 324/10/9 325/9/9 323/7/9
f 324/10/8 326/12/8 327/11/8 325/9/8
f 326/12/7 328/14/7 329/13/7 327/11/7
f 328/14/6 330/16/6 331/15/6 329/13/6
f 330/16/5 332/18/5 333/17/5 331/15/5
f 332/18/4 318/20/4 319/19/4 333/17/4
f 334/3/11 336/6/11 337/5/11 335/4/11
f 336/6/10 338/8/10 339/7/10 337/5/10
f 338/8/9 340/10/9 341/9/9 339/7/9
f 340/10/8 342/12/8 343/11/8 341/9/8
f 342/12/7 344/14/7 345/13/7 343/11/7
f 344/14/6 346/16/6 347/15/6 345/13/6
f 346/16/5 348/18/5 349/17/5 347/15/5
f 348/18/4 334/20/4 335/19/4 349/17/4
f 350/3/11 352/6/11 353/5/11 351/4/11
f 352/6/10 354/8/10 355/7/10 353/5/10
f 354/8/9 356/10/9 357/9/9 355/7/9
f 356/10/8 358/12/8 359/11/8 357/9/8
f 358/12/7 360/14/7 361/13/7 359/11/7
f 360/14/6 362/16/6 363/15/6 361/13/6
f 362/16/5 364/18/5 365/17/5 363/15/5
f 364/18/4 350/20/4 351/19/4 365/17/4
f 366/45/16 370/33/16 175/34/16 174/46/16
f 251/40/28 366/48/28 174/47/28 169/39/28
f 368/49/29 253/52/29 171/51/29 168/50/29
f 367/53/65 368/49/66 168/50/31 172/54/31
f 366/48/67 251/40/64 367/53/65 370/33/68
f 368/49/66 367/53/65 251/40/64 369/36/63
f 369/36/63 252/37/69 253/52/70 368/49/66
f 209/25/71 207/23/71 203/21/59 206/29/58
f 203/21/59 204/26/60 205/1/57 206/2/58
f 210/28/72 205/30/57 204/26/60 208/27/72
f 373/55/73 383/58/73 382/57/74 372/56/75
f 381/59/76 380/62/45 382/61/77 383/60/78
f 371/63/3 382/65/74 380/64/3
f 372/66/75 382/67/74 371/63/3
f 383/68/78 384/71/79 389/70/14 381/69/76
f 373/72/73 375/75/80 386/74/80 383/73/73
f 391/67/81 388/67/81 376/76/81 378/76/81
f 385/77/82 390/80/82 389/79/82 384/78/82
f 374/81/83 377/84/83 390/83/83 385/82/83
f 385/67/84 391/67/84 378/76/84 374/76/84
f 386/85/85 384/87/79 383/86/78
f 385/88/31 387/90/86 391/89/31
f 391/89/31 387/92/86 388/91/31
f 387/93/86 202/95/31 388/94/31
f 386/85/85 385/88/31 384/87/79
f 387/96/86 385/88/31 386/85/85
f 388/97/87 201/100/16 187/99/16 376/98/87
f 379/101/18 186/104/18 202/103/18 387/102/18
f 202/95/31 201/105/31 388/94/31
f 379/106/88 387/108/86 386/74/85 375/107/89
f 394/1/90 9/1/3 10/2/3 395/2/91
f 400/3/7 402/6/7 403/5/7 401/4/7
f 402/6/6 404/8/6 405/7/6 403/5/6
f 404/8/5 406/10/5 407/9/5 405/7/5
f 406/10/4 408/12/4 409/11/4 407/9/4
f 408/12/11 410/14/11 411/13/11 409/11/11
f 410/14/10 412/16/10 413/15/10 411/13/10
f 412/16/9 414/18/9 415/17/9 413/15/9
f 414/18/8 400/20/8 401/19/8 415/17/8
f 416/3/7 418/6/7 419/5/7 417/4/7
f 418/6/6 420/8/6 421/7/6 419/5/6
f 420/8/5 422/10/5 423/9/5 421/7/5
f 422/10/4 424/12/4 425/11/4 423/9/4
f 424/12/11 426/14/11 427/13/11 425/11/11
f 426/14/10 428/16/10 429/15/10 427/13/10
f 428/16/9 430/18/9 431/17/9 429/15/9
f 430/18/8 416/20/8 417/19/8 431/17/8
f 392/21/92 46/21/14 48/22/14 393/22/93
f 396/23/15 45/23/15 46/24/15 392/24/15
f 398/25/16 47/25/16 45/23/16 396/23/16
f 393/26/17 48/26/17 44/27/17 397/27/17
f 397/27/18 44/27/18 43/28/18 399/28/18
f 395/29/19 10/29/19 47/25/19 398/25/19
f 399/28/20 43/28/20 9/30/20 394/30/20
f 555/31/28 558/34/28 559/33/94 548/32/94
f 556/35/29 553/38/29 433/37/29 550/36/95
f 552/39/31 556/42/31 550/41/96 432/40/97
f 554/43/18 434/44/18 433/37/18 553/38/18
f 435/3/7 437/6/7 438/5/7 436/4/7
f 437/6/6 439/8/6 440/7/6 438/5/6
f 439/8/5 441/10/5 442/9/5 440/7/5
f 441/10/4 443/12/4 444/11/4 442/9/4
f 443/12/11 445/14/11 446/13/11 444/11/11
f 445/14/10 447/16/10 448/15/10 446/13/10
f 447/16/9 449/18/9 450/17/9 448/15/9
f 449/18/8 435/20/8 436/19/8 450/17/8
f 451/3/7 453/6/7 454/5/7 452/4/7
f 453/6/6 455/8/6 456/7/6 454/5/6
f 455/8/5 457/10/5 458/9/5 456/7/5
f 457/10/4 459/12/4 460/11/4 458/9/4
f 459/12/11 461/14/11 462/13/11 460/11/11
f 461/14/10 463/16/10 464/15/10 462/13/10
f 463/16/9 465/18/9 466/17/9 464/15/9
f 465/18/8 451/20/8 452/19/8 466/17/8
f 467/3/7 469/6/7 470/5/7 468/4/7
f 469/6/6 471/8/6 472/7/6 470/5/6
f 471/8/5 473/10/5 474/9/5 472/7/5
f 473/10/4 475/12/4 476/11/4 474/9/4
f 475/12/11 477/14/11 478/13/11 476/11/11
f 477/14/10 479/16/10 480/15/10 478/13/10
f 479/16/9 481/18/9 482/17/9 480/15/9
f 481/18/8 467/20/8 468/19/8 482/17/8
f 483/3/7 485/6/7 486/5/7 484/4/7
f 485/6/6 487/8/6 488/7/6 486/5/6
f 487/8/5 489/10/5 490/9/5 488/7/5
f 489/10/4 491/12/4 492/11/4 490/9/4
f 491/12/11 493/14/11 494/13/11 492/11/11
f 493/14/10 495/16/10 496/15/10 494/13/10
f 495/16/9 497/18/9 498/17/9 496/15/9
f 497/18/8 483/20/8 484/19/8 498/17/8
f 499/3/7 501/6/7 502/5/7 500/4/7
f 501/6/6 503/8/6 504/7/6 502/5/6
f 503/8/5 505/10/5 506/9/5 504/7/5
f 505/10/4 507/12/4 508/11/4 506/9/4
f 507/12/11 509/14/11 510/13/11 508/11/11
f 509/14/10 511/16/10 512/15/10 510/13/10
f 511/16/9 513/18/9 514/17/9 512/15/9
f 513/18/8 499/20/8 500/19/8 514/17/8
f 515/3/7 517/6/7 518/5/7 516/4/7
f 517/6/6 519/8/6 520/7/6 518/5/6
f 519/8/5 521/10/5 522/9/5 520/7/5
f 521/10/4 523/12/4 524/11/4 522/9/4
f 523/12/11 525/14/11 526/13/11 524/11/11
f 525/14/10 527/16/10 528/15/10 526/13/10
f 527/16/9 529/18/9 530/17/9 528/15/9
f 529/18/8 515/20/8 516/19/8 530/17/8
f 531/3/7 533/6/7 534/5/7 532/4/7
f 533/6/6 535/8/6 536/7/6 534/5/6
f 535/8/5 537/10/5 538/9/5 536/7/5
f 537/10/4 539/12/4 540/11/4 538/9/4
f 539/12/11 541/14/11 542/13/11 540/11/11
f 541/14/10 543/16/10 544/15/10 542/13/10
f 543/16/9 545/18/9 546/17/9 544/15/9
f 545/18/8 531/20/8 532/19/8 546/17/8
f 547/45/16 559/33/16 558/34/16 557/46/16
f 432/40/21 547/48/21 557/47/21 552/39/21
f 549/49/23 434/52/23 554/51/23 551/50/23
f 548/53/98 549/49/99 551/50/25 555/54/25
f 547/48/100 432/40/97 548/53/98 559/33/101
f 549/49/99 548/53/98 432/40/97 550/36/96
f 550/36/96 433/37/102 434/52/103 549/49/99
f 398/25/104 396/23/104 392/21/92 395/29/91
f 392/21/92 393/26/93 394/1/90 395/2/91
f 399/28/105 394/30/90 393/26/93 397/27/105
f 179/55/39 563/58/39 562/57/106 178/56/40
f 561/59/107 560/62/108 562/61/109 563/60/110
f 177/63/14 562/65/106 560/64/14
f 178/66/40 562/67/106 177/63/14
f 563/68/110 564/71/111 569/70/3 561/69/107
f 179/72/39 181/75/47 566/74/47 563/73/39
f 571/67/48 568/67/48 182/76/48 184/76/48
f 565/77/112 570/80/112 569/79/112 564/78/112
f 180/81/50 183/84/50 570/83/50 565/82/50
f 565/67/51 571/67/51 184/76/51 180/76/51
f 566/85/113 564/87/111 563/86/110
f 565/88/25 567/90/114 571/89/25
f 571/89/25 567/92/114 568/91/25
f 567/93/114 574/95/25 568/94/25
f 566/85/113 565/88/25 564/87/111
f 567/96/114 565/88/25 566/85/113
f 568/97/54 573/100/16 187/99/16 182/98/54
f 185/101/18 186/104/18 574/103/18 567/102/18
f 574/95/25 573/105/25 568/94/25
f 185/106/55 567/108/114 566/74/113 181/107/56
f 577/1/115 578/2/116 212/2/14 211/1/14
f 583/3/8 584/4/8 586/5/8 585/6/8
f 585/6/9 586/5/9 588/7/9 587/8/9
f 587/8/10 588/7/10 590/9/10 589/10/10
f 589/10/11 590/9/11 592/11/11 591/12/11
f 591/12/4 592/11/4 594/13/4 593/14/4
f 593/14/5 594/13/5 596/15/5 595/16/5
f 595/16/6 596/15/6 598/17/6 597/18/6
f 597/18/7 598/17/7 584/19/7 583/20/7
f 599/3/8 600/4/8 602/5/8 601/6/8
f 601/6/9 602/5/9 604/7/9 603/8/9
f 603/8/10 604/7/10 606/9/10 605/10/10
f 605/10/11 606/9/11 608/11/11 607/12/11
f 607/12/4 608/11/4 610/13/4 609/14/4
f 609/14/5 610/13/5 612/15/5 611/16/5
f 611/16/6 612/15/6 614/17/6 613/18/6
f 613/18/7 614/17/7 600/19/7 599/20/7
f 575/21/117 576/22/118 250/22/3 248/21/3
f 579/23/19 575/24/19 248/24/19 247/23/19
f 581/25/16 579/23/16 247/23/16 249/25/16
f 576/26/20 580/27/20 246/27/20 250/26/20
f 580/27/18 582/28/18 245/28/18 246/27/18
f 578/29/15 581/25/15 249/25/15 212/29/15
f 582/28/17 577/30/17 211/30/17 245/28/17
f 555/31/28 731/32/119 734/33/119 558/34/28
f 556/35/29 733/36/120 616/37/29 553/38/29
f 552/39/31 615/40/121 733/41/122 556/42/31
f 554/43/18 553/38/18 616/37/18 617/44/18
f 618/3/8 619/4/8 621/5/8 620/6/8
f 620/6/9 621/5/9 623/7/9 622/8/9
f 622/8/10 623/7/10 625/9/10 624/10/10
f 624/10/11 625/9/11 627/11/11 626/12/11
f 626/12/4 627/11/4 629/13/4 628/14/4
f 628/14/5 629/13/5 631/15/5 630/16/5
f 630/16/6 631/15/6 633/17/6 632/18/6
f 632/18/7 633/17/7 619/19/7 618/20/7
f 634/3/8 635/4/8 637/5/8 636/6/8
f 636/6/9 637/5/9 639/7/9 638/8/9
f 638/8/10 639/7/10 641/9/10 640/10/10
f 640/10/11 641/9/11 643/11/11 642/12/11
f 642/12/4 643/11/4 645/13/4 644/14/4
f 644/14/5 645/13/5 647/15/5 646/16/5
f 646/16/6 647/15/6 649/17/6 648/18/6
f 648/18/7 649/17/7 635/19/7 634/20/7
f 650/3/8 651/4/8 653/5/8 652/6/8
f 652/6/9 653/5/9 655/7/9 654/8/9
f 654/8/10 655/7/10 657/9/10 656/10/10
f 656/10/11 657/9/11 659/11/11 658/12/11
f 658/12/4 659/11/4 661/13/4 660/14/4
f 660/14/5 661/13/5 663/15/5 662/16/5
f 662/16/6 663/15/6 665/17/6 664/18/6
f 664/18/7 665/17/7 651/19/7 650/20/7
f 666/3/8 667/4/8 669/5/8 668/6/8
f 668/6/9 669/5/9 671/7/9 670/8/9
f 670/8/10 671/7/10 673/9/10 672/10/10
f 672/10/11 673/9/11 675/11/11 674/12/11
f 674/12/4 675/11/4 677/13/4 676/14/4
f 676/14/5 677/13/5 679/15/5 678/16/5
f 678/16/6 679/15/6 681/17/6 680/18/6
f 680/18/7 681/17/7 667/19/7 666/20/7
f 682/3/8 683/4/8 685/5/8 684/6/8
f 684/6/9 685/5/9 687/7/9 686/8/9
f 686/8/10 687/7/10 689/9/10 688/10/10
f 688/10/11 689/9/11 691/11/11 690/12/11
f 690/12/4 691/11/4 693/13/4 692/14/4
f 692/14/5 693/13/5 695/15/5 694/16/5
f 694/16/6 695/15/6 697/17/6 696/18/6
f 696/18/7 697/17/7 683/19/7 682/20/7
f 698/3/8 699/4/8 701/5/8 700/6/8
f 700/6/9 701/5/9 703/7/9 702/8/9
f 702/8/10 703/7/10 705/9/10 704/10/10
f 704/10/11 705/9/11 707/11/11 706/12/11
f 706/12/4 707/11/4 709/13/4 708/14/4
f 708/14/5 709/13/5 711/15/5 710/16/5
f 710/16/6 711/15/6 713/17/6 712/18/6
f 712/18/7 713/17/7 699/19/7 698/20/7
f 714/3/8 715/4/8 717/5/8 716/6/8
f 716/6/9 717/5/9 719/7/9 718/8/9
f 718/8/10 719/7/10 721/9/10 720/10/10
f 720/10/11 721/9/11 723/11/11 722/12/11
f 722/12/4 723/11/4 725/13/4 724/14/4
f 724/14/5 725/13/5 727/15/5 726/16/5
f 726/16/6 727/15/6 729/17/6 728/18/6
f 728/18/7 729/17/7 715/19/7 714/20/7
f 730/45/16 557/46/16 558/34/16 734/33/16
f 615/40/21 552/39/21 557/47/21 730/48/21
f 732/49/23 551/50/23 554/51/23 617/52/23
f 731/53/123 555/54/25 551/50/25 732/49/124
f 730/48/125 734/33/126 731/53/123 615/40/121
f 732/49/124 733/36/122 615/40/121 731/53/123
f 733/36/122 732/49/124 617/52/127 616/37/128
f 581/25/129 578/29/116 575/21/117 579/23/129
f 575/21/117 578/2/116 577/1/115 576/26/118
f 582/28/130 580/27/130 576/26/118 577/30/115
f 373/55/73 372/56/75 737/57/131 738/58/73
f 736/59/132 738/60/133 737/61/134 735/62/135
f 371/63/3 735/64/3 737/65/131
f 372/66/75 371/63/3 737/67/131
f 738/68/133 736/69/132 744/70/14 739/71/136
f 373/72/73 738/73/73 741/74/80 375/75/80
f 746/67/81 378/76/81 376/76/81 743/67/81
f 740/77/137 739/78/137 744/79/137 745/80/137
f 374/81/83 740/82/83 745/83/83 377/84/83
f 740/67/84 374/76/84 378/76/84 746/67/84
f 741/85/138 738/86/133 739/87/136
f 740/88/25 746/89/25 742/90/139
f 746/89/25 743/91/25 742/92/139
f 742/93/139 743/94/25 574/95/25
f 741/85/138 739/87/136 740/88/25
f 742/96/139 741/85/138 740/88/25
f 743/97/87 376/98/87 187/99/16 573/100/16
f 379/101/18 742/102/18 574/103/18 186/104/18
f 574/95/25 743/94/25 573/105/25
f 379/106/88 375/107/89 741/74/138 742/108/139
