# Blender 4.4.3
# www.blender.org
o SM_Collider-3D-Normal_PedestrainBridge_V1.0
v -7.750000 4.931240 1.300043
v -7.750000 4.968760 1.300043
v -7.770000 4.931240 1.699959
v -7.770000 4.968760 1.699959
v -7.770000 4.901240 1.330043
v -7.770000 4.998760 1.330043
v -7.770000 4.901240 1.669959
v -7.770000 4.998760 1.669959
v -0.497726 4.000651 1.429552
v -0.497726 4.948652 1.429552
v -0.448229 4.000651 1.450054
v -0.448229 4.948652 1.450054
v -0.427726 4.000651 1.499552
v -0.427726 4.948652 1.499552
v -0.448229 4.000651 1.549049
v -0.448229 4.948652 1.549049
v -0.497726 4.000651 1.569552
v -0.497726 4.948652 1.569552
v -0.547224 4.000651 1.549049
v -0.547224 4.948652 1.549049
v -0.567726 4.000651 1.499552
v -0.567726 4.948652 1.499552
v -0.547224 4.000651 1.450054
v -0.547224 4.948652 1.450054
v -1.497726 4.000651 1.429552
v -1.497726 4.948652 1.429552
v -1.448229 4.000651 1.450054
v -1.448229 4.948652 1.450054
v -1.427726 4.000651 1.499552
v -1.427726 4.948652 1.499552
v -1.448229 4.000651 1.549049
v -1.448229 4.948652 1.549049
v -1.497726 4.000651 1.569552
v -1.497726 4.948652 1.569552
v -1.547224 4.000651 1.549049
v -1.547224 4.948652 1.549049
v -1.567726 4.000651 1.499552
v -1.567726 4.948652 1.499552
v -1.547224 4.000651 1.450054
v -1.547224 4.948652 1.450054
v -2.497726 4.000651 1.429552
v -2.497726 4.948652 1.429552
v -2.448229 4.000651 1.450054
v -2.448229 4.948652 1.450054
v -2.427726 4.000651 1.499552
v -2.427726 4.948652 1.499552
v -2.448229 4.000651 1.549049
v -2.448229 4.948652 1.549049
v -2.497726 4.000651 1.569552
v -2.497726 4.948652 1.569552
v -2.547224 4.000651 1.549049
v -2.547224 4.948652 1.549049
v -2.567726 4.000651 1.499552
v -2.567726 4.948652 1.499552
v -2.547224 4.000651 1.450054
v -2.547224 4.948652 1.450054
v -3.497726 4.000651 1.429552
v -3.497726 4.948652 1.429552
v -3.448229 4.000651 1.450054
v -3.448229 4.948652 1.450054
v -3.427726 4.000651 1.499552
v -3.427726 4.948652 1.499552
v -3.448229 4.000651 1.549049
v -3.448229 4.948652 1.549049
v -3.497726 4.000651 1.569552
v -3.497726 4.948652 1.569552
v -3.547224 4.000651 1.549049
v -3.547224 4.948652 1.549049
v -3.567726 4.000651 1.499552
v -3.567726 4.948652 1.499552
v -3.547224 4.000651 1.450054
v -3.547224 4.948652 1.450054
v -4.497726 4.000651 1.429552
v -4.497726 4.948652 1.429552
v -4.448229 4.000651 1.450054
v -4.448229 4.948652 1.450054
v -4.427726 4.000651 1.499552
v -4.427726 4.948652 1.499552
v -4.448229 4.000651 1.549049
v -4.448229 4.948652 1.549049
v -4.497726 4.000651 1.569552
v -4.497726 4.948652 1.569552
v -4.547224 4.000651 1.549049
v -4.547224 4.948652 1.549049
v -4.567726 4.000651 1.499552
v -4.567726 4.948652 1.499552
v -4.547224 4.000651 1.450054
v -4.547224 4.948652 1.450054
v -5.497726 4.000651 1.429552
v -5.497726 4.948652 1.429552
v -5.448229 4.000651 1.450054
v -5.448229 4.948652 1.450054
v -5.427726 4.000651 1.499552
v -5.427726 4.948652 1.499552
v -5.448229 4.000651 1.549049
v -5.448229 4.948652 1.549049
v -5.497726 4.000651 1.569552
v -5.497726 4.948652 1.569552
v -5.547224 4.000651 1.549049
v -5.547224 4.948652 1.549049
v -5.567726 4.000651 1.499552
v -5.567726 4.948652 1.499552
v -5.547224 4.000651 1.450054
v -5.547224 4.948652 1.450054
v -6.497726 4.000651 1.429552
v -6.497726 4.948652 1.429552
v -6.448229 4.000651 1.450054
v -6.448229 4.948652 1.450054
v -6.427726 4.000651 1.499552
v -6.427726 4.948652 1.499552
v -6.448229 4.000651 1.549049
v -6.448229 4.948652 1.549049
v -6.497726 4.000651 1.569552
v -6.497726 4.948652 1.569552
v -6.547224 4.000651 1.549049
v -6.547224 4.948652 1.549049
v -6.567726 4.000651 1.499552
v -6.567726 4.948652 1.499552
v -6.547224 4.000651 1.450054
v -6.547224 4.948652 1.450054
v -7.497726 4.000651 1.429552
v -7.497726 4.948652 1.429552
v -7.448229 4.000651 1.450054
v -7.448229 4.948652 1.450054
v -7.427726 4.000651 1.499552
v -7.427726 4.948652 1.499552
v -7.448229 4.000651 1.549049
v -7.448229 4.948652 1.549049
v -7.497726 4.000651 1.569552
v -7.497726 4.948652 1.569552
v -7.547224 4.000651 1.549049
v -7.547224 4.948652 1.549049
v -7.567726 4.000651 1.499552
v -7.567726 4.948652 1.499552
v -7.547224 4.000651 1.450054
v -7.547224 4.948652 1.450054
v -8.204240 4.931240 1.696719
v -8.204240 4.968760 1.696719
v -7.804323 4.968760 1.699719
v -7.804323 4.931240 1.699719
v -8.174240 4.901240 1.696719
v -8.174240 4.998760 1.696719
v -7.834323 4.901240 1.696719
v -7.834323 4.998760 1.696719
v -7.801943 4.901240 1.673558
v -7.801943 4.998760 1.673558
v -8.201917 4.968760 1.299472
v -8.201917 4.931240 1.299472
v -8.161990 4.901240 1.335153
v -8.161990 4.998760 1.335153
v -7.997726 4.000651 1.429552
v -7.997726 4.948652 1.429552
v -7.948229 4.000651 1.450054
v -7.948229 4.948652 1.450054
v -7.927726 4.000651 1.499552
v -7.927726 4.948652 1.499552
v -7.948229 4.000651 1.549049
v -7.948229 4.948652 1.549049
v -7.997726 4.000651 1.569552
v -7.997726 4.948652 1.569552
v -8.047224 4.000651 1.549049
v -8.047224 4.948652 1.549049
v -8.067726 4.000651 1.499552
v -8.067726 4.948652 1.499552
v -8.047224 4.000651 1.450054
v -8.047224 4.948652 1.450054
v 0.000000 4.968760 1.699959
v 0.000000 4.931240 1.300043
v 0.000000 4.998760 1.330043
v 0.000000 4.998760 1.669959
v 0.000000 4.931240 1.699959
v 0.000000 4.968760 1.300043
v 0.000000 4.901240 1.330043
v 0.000000 4.901240 1.669959
v -11.204241 4.931240 1.696719
v -11.204241 4.968760 1.696719
v -10.804323 4.968760 1.699719
v -10.804323 4.931240 1.699719
v -11.174240 4.901240 1.696719
v -11.174240 4.998760 1.696719
v -10.834324 4.901240 1.696719
v -10.834324 4.998760 1.696719
v -10.804323 4.968760 -0.000000
v -10.804323 4.931240 -0.000000
v -10.997726 4.000651 1.029552
v -10.997726 4.948652 1.029552
v -10.948229 4.000651 1.050054
v -10.948229 4.948652 1.050054
v -10.927726 4.000651 1.099552
v -10.927726 4.948652 1.099552
v -10.948229 4.000651 1.149049
v -10.948229 4.948652 1.149049
v -10.997726 4.000651 1.169552
v -10.997726 4.948652 1.169552
v -11.047224 4.000651 1.149049
v -11.047224 4.948652 1.149049
v -11.067726 4.000651 1.099552
v -11.067726 4.948652 1.099552
v -11.047224 4.000651 1.050054
v -11.047224 4.948652 1.050054
v -10.997726 4.000651 0.329552
v -10.997726 4.948652 0.329552
v -10.948229 4.000651 0.350054
v -10.948229 4.948652 0.350054
v -10.927726 4.000651 0.399552
v -10.927726 4.948652 0.399552
v -10.948229 4.000651 0.449049
v -10.948229 4.948652 0.449049
v -10.997726 4.000651 0.469552
v -10.997726 4.948652 0.469552
v -11.047224 4.000651 0.449049
v -11.047224 4.948652 0.449049
v -11.067726 4.000651 0.399552
v -11.067726 4.948652 0.399552
v -11.047224 4.000651 0.350054
v -11.047224 4.948652 0.350054
v -10.834324 4.998760 -0.000000
v -11.174240 4.998760 -0.000000
v -11.174240 4.901240 -0.000000
v -11.204241 4.931240 -0.000000
v -10.834324 4.901240 -0.000000
v -11.204241 4.968760 -0.000000
v -11.109630 0.000000 5.500000
v -11.109630 0.000000 0.000000
v -11.109630 4.000000 -0.000000
v -7.890369 0.000000 5.500000
v -7.890369 0.000000 0.000000
v -7.890369 4.000000 -0.000000
v -11.109630 4.000000 1.750000
v -7.890369 4.000000 1.750000
v -7.890369 3.725000 1.750000
v -7.890369 3.725000 -0.000000
v 0.000000 3.725000 1.750000
v 0.000000 4.000000 1.750000
v 0.000000 4.000000 -0.000000
v 0.000000 3.725000 -0.000000
v 7.750000 4.931240 1.300043
v 7.750000 4.968760 1.300043
v 7.770000 4.931240 1.699959
v 7.770000 4.968760 1.699959
v 7.770000 4.901240 1.330043
v 7.770000 4.998760 1.330043
v 7.770000 4.901240 1.669959
v 7.770000 4.998760 1.669959
v 0.497726 4.000651 1.429552
v 0.497726 4.948652 1.429552
v 0.448229 4.000651 1.450054
v 0.448229 4.948652 1.450054
v 0.427726 4.000651 1.499552
v 0.427726 4.948652 1.499552
v 0.448229 4.000651 1.549049
v 0.448229 4.948652 1.549049
v 0.497726 4.000651 1.569552
v 0.497726 4.948652 1.569552
v 0.547224 4.000651 1.549049
v 0.547224 4.948652 1.549049
v 0.567726 4.000651 1.499552
v 0.567726 4.948652 1.499552
v 0.547224 4.000651 1.450054
v 0.547224 4.948652 1.450054
v 1.497726 4.000651 1.429552
v 1.497726 4.948652 1.429552
v 1.448229 4.000651 1.450054
v 1.448229 4.948652 1.450054
v 1.427726 4.000651 1.499552
v 1.427726 4.948652 1.499552
v 1.448229 4.000651 1.549049
v 1.448229 4.948652 1.549049
v 1.497726 4.000651 1.569552
v 1.497726 4.948652 1.569552
v 1.547224 4.000651 1.549049
v 1.547224 4.948652 1.549049
v 1.567726 4.000651 1.499552
v 1.567726 4.948652 1.499552
v 1.547224 4.000651 1.450054
v 1.547224 4.948652 1.450054
v 2.497726 4.000651 1.429552
v 2.497726 4.948652 1.429552
v 2.448229 4.000651 1.450054
v 2.448229 4.948652 1.450054
v 2.427726 4.000651 1.499552
v 2.427726 4.948652 1.499552
v 2.448229 4.000651 1.549049
v 2.448229 4.948652 1.549049
v 2.497726 4.000651 1.569552
v 2.497726 4.948652 1.569552
v 2.547224 4.000651 1.549049
v 2.547224 4.948652 1.549049
v 2.567726 4.000651 1.499552
v 2.567726 4.948652 1.499552
v 2.547224 4.000651 1.450054
v 2.547224 4.948652 1.450054
v 3.497726 4.000651 1.429552
v 3.497726 4.948652 1.429552
v 3.448229 4.000651 1.450054
v 3.448229 4.948652 1.450054
v 3.427726 4.000651 1.499552
v 3.427726 4.948652 1.499552
v 3.448229 4.000651 1.549049
v 3.448229 4.948652 1.549049
v 3.497726 4.000651 1.569552
v 3.497726 4.948652 1.569552
v 3.547224 4.000651 1.549049
v 3.547224 4.948652 1.549049
v 3.567726 4.000651 1.499552
v 3.567726 4.948652 1.499552
v 3.547224 4.000651 1.450054
v 3.547224 4.948652 1.450054
v 4.497726 4.000651 1.429552
v 4.497726 4.948652 1.429552
v 4.448229 4.000651 1.450054
v 4.448229 4.948652 1.450054
v 4.427726 4.000651 1.499552
v 4.427726 4.948652 1.499552
v 4.448229 4.000651 1.549049
v 4.448229 4.948652 1.549049
v 4.497726 4.000651 1.569552
v 4.497726 4.948652 1.569552
v 4.547224 4.000651 1.549049
v 4.547224 4.948652 1.549049
v 4.567726 4.000651 1.499552
v 4.567726 4.948652 1.499552
v 4.547224 4.000651 1.450054
v 4.547224 4.948652 1.450054
v 5.497726 4.000651 1.429552
v 5.497726 4.948652 1.429552
v 5.448229 4.000651 1.450054
v 5.448229 4.948652 1.450054
v 5.427726 4.000651 1.499552
v 5.427726 4.948652 1.499552
v 5.448229 4.000651 1.549049
v 5.448229 4.948652 1.549049
v 5.497726 4.000651 1.569552
v 5.497726 4.948652 1.569552
v 5.547224 4.000651 1.549049
v 5.547224 4.948652 1.549049
v 5.567726 4.000651 1.499552
v 5.567726 4.948652 1.499552
v 5.547224 4.000651 1.450054
v 5.547224 4.948652 1.450054
v 6.497726 4.000651 1.429552
v 6.497726 4.948652 1.429552
v 6.448229 4.000651 1.450054
v 6.448229 4.948652 1.450054
v 6.427726 4.000651 1.499552
v 6.427726 4.948652 1.499552
v 6.448229 4.000651 1.549049
v 6.448229 4.948652 1.549049
v 6.497726 4.000651 1.569552
v 6.497726 4.948652 1.569552
v 6.547224 4.000651 1.549049
v 6.547224 4.948652 1.549049
v 6.567726 4.000651 1.499552
v 6.567726 4.948652 1.499552
v 6.547224 4.000651 1.450054
v 6.547224 4.948652 1.450054
v 7.497726 4.000651 1.429552
v 7.497726 4.948652 1.429552
v 7.448229 4.000651 1.450054
v 7.448229 4.948652 1.450054
v 7.427726 4.000651 1.499552
v 7.427726 4.948652 1.499552
v 7.448229 4.000651 1.549049
v 7.448229 4.948652 1.549049
v 7.497726 4.000651 1.569552
v 7.497726 4.948652 1.569552
v 7.547224 4.000651 1.549049
v 7.547224 4.948652 1.549049
v 7.567726 4.000651 1.499552
v 7.567726 4.948652 1.499552
v 7.547224 4.000651 1.450054
v 7.547224 4.948652 1.450054
v 8.204240 4.931240 1.696719
v 8.204240 4.968760 1.696719
v 7.804323 4.968760 1.699719
v 7.804323 4.931240 1.699719
v 8.174240 4.901240 1.696719
v 8.174240 4.998760 1.696719
v 7.834323 4.901240 1.696719
v 7.834323 4.998760 1.696719
v 7.801943 4.901240 1.673558
v 7.801943 4.998760 1.673558
v 8.201917 4.968760 1.299472
v 8.201917 4.931240 1.299472
v 8.161990 4.901240 1.335153
v 8.161990 4.998760 1.335153
v 7.997726 4.000651 1.429552
v 7.997726 4.948652 1.429552
v 7.948229 4.000651 1.450054
v 7.948229 4.948652 1.450054
v 7.927726 4.000651 1.499552
v 7.927726 4.948652 1.499552
v 7.948229 4.000651 1.549049
v 7.948229 4.948652 1.549049
v 7.997726 4.000651 1.569552
v 7.997726 4.948652 1.569552
v 8.047224 4.000651 1.549049
v 8.047224 4.948652 1.549049
v 8.067726 4.000651 1.499552
v 8.067726 4.948652 1.499552
v 8.047224 4.000651 1.450054
v 8.047224 4.948652 1.450054
v 11.204241 4.931240 1.696719
v 11.204241 4.968760 1.696719
v 10.804323 4.968760 1.699719
v 10.804323 4.931240 1.699719
v 11.174240 4.901240 1.696719
v 11.174240 4.998760 1.696719
v 10.834324 4.901240 1.696719
v 10.834324 4.998760 1.696719
v 10.804323 4.968760 -0.000000
v 10.804323 4.931240 -0.000000
v 10.997726 4.000651 1.029552
v 10.997726 4.948652 1.029552
v 10.948229 4.000651 1.050054
v 10.948229 4.948652 1.050054
v 10.927726 4.000651 1.099552
v 10.927726 4.948652 1.099552
v 10.948229 4.000651 1.149049
v 10.948229 4.948652 1.149049
v 10.997726 4.000651 1.169552
v 10.997726 4.948652 1.169552
v 11.047224 4.000651 1.149049
v 11.047224 4.948652 1.149049
v 11.067726 4.000651 1.099552
v 11.067726 4.948652 1.099552
v 11.047224 4.000651 1.050054
v 11.047224 4.948652 1.050054
v 10.997726 4.000651 0.329552
v 10.997726 4.948652 0.329552
v 10.948229 4.000651 0.350054
v 10.948229 4.948652 0.350054
v 10.927726 4.000651 0.399552
v 10.927726 4.948652 0.399552
v 10.948229 4.000651 0.449049
v 10.948229 4.948652 0.449049
v 10.997726 4.000651 0.469552
v 10.997726 4.948652 0.469552
v 11.047224 4.000651 0.449049
v 11.047224 4.948652 0.449049
v 11.067726 4.000651 0.399552
v 11.067726 4.948652 0.399552
v 11.047224 4.000651 0.350054
v 11.047224 4.948652 0.350054
v 10.834324 4.998760 -0.000000
v 11.174240 4.998760 -0.000000
v 11.174240 4.901240 -0.000000
v 11.204241 4.931240 -0.000000
v 10.834324 4.901240 -0.000000
v 11.204241 4.968760 -0.000000
v 11.109630 0.000000 5.500000
v 11.109630 0.000000 0.000000
v 11.109630 4.000000 -0.000000
v 7.890369 0.000000 5.500000
v 7.890369 0.000000 0.000000
v 7.890369 4.000000 -0.000000
v 11.109630 4.000000 1.750000
v 7.890369 4.000000 1.750000
v 7.890369 3.725000 1.750000
v 7.890369 3.725000 -0.000000
v -7.750000 4.931240 -1.300043
v -7.750000 4.968760 -1.300043
v -7.770000 4.931240 -1.699959
v -7.770000 4.968760 -1.699959
v -7.770000 4.901240 -1.330043
v -7.770000 4.998760 -1.330043
v -7.770000 4.901240 -1.669959
v -7.770000 4.998760 -1.669959
v -0.497726 4.000651 -1.429552
v -0.497726 4.948652 -1.429552
v -0.448229 4.000651 -1.450054
v -0.448229 4.948652 -1.450054
v -0.427726 4.000651 -1.499552
v -0.427726 4.948652 -1.499552
v -0.448229 4.000651 -1.549049
v -0.448229 4.948652 -1.549049
v -0.497726 4.000651 -1.569552
v -0.497726 4.948652 -1.569552
v -0.547224 4.000651 -1.549049
v -0.547224 4.948652 -1.549049
v -0.567726 4.000651 -1.499552
v -0.567726 4.948652 -1.499552
v -0.547224 4.000651 -1.450054
v -0.547224 4.948652 -1.450054
v -1.497726 4.000651 -1.429552
v -1.497726 4.948652 -1.429552
v -1.448229 4.000651 -1.450054
v -1.448229 4.948652 -1.450054
v -1.427726 4.000651 -1.499552
v -1.427726 4.948652 -1.499552
v -1.448229 4.000651 -1.549049
v -1.448229 4.948652 -1.549049
v -1.497726 4.000651 -1.569552
v -1.497726 4.948652 -1.569552
v -1.547224 4.000651 -1.549049
v -1.547224 4.948652 -1.549049
v -1.567726 4.000651 -1.499552
v -1.567726 4.948652 -1.499552
v -1.547224 4.000651 -1.450054
v -1.547224 4.948652 -1.450054
v -2.497726 4.000651 -1.429552
v -2.497726 4.948652 -1.429552
v -2.448229 4.000651 -1.450054
v -2.448229 4.948652 -1.450054
v -2.427726 4.000651 -1.499552
v -2.427726 4.948652 -1.499552
v -2.448229 4.000651 -1.549049
v -2.448229 4.948652 -1.549049
v -2.497726 4.000651 -1.569552
v -2.497726 4.948652 -1.569552
v -2.547224 4.000651 -1.549049
v -2.547224 4.948652 -1.549049
v -2.567726 4.000651 -1.499552
v -2.567726 4.948652 -1.499552
v -2.547224 4.000651 -1.450054
v -2.547224 4.948652 -1.450054
v -3.497726 4.000651 -1.429552
v -3.497726 4.948652 -1.429552
v -3.448229 4.000651 -1.450054
v -3.448229 4.948652 -1.450054
v -3.427726 4.000651 -1.499552
v -3.427726 4.948652 -1.499552
v -3.448229 4.000651 -1.549049
v -3.448229 4.948652 -1.549049
v -3.497726 4.000651 -1.569552
v -3.497726 4.948652 -1.569552
v -3.547224 4.000651 -1.549049
v -3.547224 4.948652 -1.549049
v -3.567726 4.000651 -1.499552
v -3.567726 4.948652 -1.499552
v -3.547224 4.000651 -1.450054
v -3.547224 4.948652 -1.450054
v -4.497726 4.000651 -1.429552
v -4.497726 4.948652 -1.429552
v -4.448229 4.000651 -1.450054
v -4.448229 4.948652 -1.450054
v -4.427726 4.000651 -1.499552
v -4.427726 4.948652 -1.499552
v -4.448229 4.000651 -1.549049
v -4.448229 4.948652 -1.549049
v -4.497726 4.000651 -1.569552
v -4.497726 4.948652 -1.569552
v -4.547224 4.000651 -1.549049
v -4.547224 4.948652 -1.549049
v -4.567726 4.000651 -1.499552
v -4.567726 4.948652 -1.499552
v -4.547224 4.000651 -1.450054
v -4.547224 4.948652 -1.450054
v -5.497726 4.000651 -1.429552
v -5.497726 4.948652 -1.429552
v -5.448229 4.000651 -1.450054
v -5.448229 4.948652 -1.450054
v -5.427726 4.000651 -1.499552
v -5.427726 4.948652 -1.499552
v -5.448229 4.000651 -1.549049
v -5.448229 4.948652 -1.549049
v -5.497726 4.000651 -1.569552
v -5.497726 4.948652 -1.569552
v -5.547224 4.000651 -1.549049
v -5.547224 4.948652 -1.549049
v -5.567726 4.000651 -1.499552
v -5.567726 4.948652 -1.499552
v -5.547224 4.000651 -1.450054
v -5.547224 4.948652 -1.450054
v -6.497726 4.000651 -1.429552
v -6.497726 4.948652 -1.429552
v -6.448229 4.000651 -1.450054
v -6.448229 4.948652 -1.450054
v -6.427726 4.000651 -1.499552
v -6.427726 4.948652 -1.499552
v -6.448229 4.000651 -1.549049
v -6.448229 4.948652 -1.549049
v -6.497726 4.000651 -1.569552
v -6.497726 4.948652 -1.569552
v -6.547224 4.000651 -1.549049
v -6.547224 4.948652 -1.549049
v -6.567726 4.000651 -1.499552
v -6.567726 4.948652 -1.499552
v -6.547224 4.000651 -1.450054
v -6.547224 4.948652 -1.450054
v -7.497726 4.000651 -1.429552
v -7.497726 4.948652 -1.429552
v -7.448229 4.000651 -1.450054
v -7.448229 4.948652 -1.450054
v -7.427726 4.000651 -1.499552
v -7.427726 4.948652 -1.499552
v -7.448229 4.000651 -1.549049
v -7.448229 4.948652 -1.549049
v -7.497726 4.000651 -1.569552
v -7.497726 4.948652 -1.569552
v -7.547224 4.000651 -1.549049
v -7.547224 4.948652 -1.549049
v -7.567726 4.000651 -1.499552
v -7.567726 4.948652 -1.499552
v -7.547224 4.000651 -1.450054
v -7.547224 4.948652 -1.450054
v -8.204240 4.931240 -1.696719
v -8.204240 4.968760 -1.696719
v -7.804323 4.968760 -1.699719
v -7.804323 4.931240 -1.699719
v -8.174240 4.901240 -1.696719
v -8.174240 4.998760 -1.696719
v -7.834323 4.901240 -1.696719
v -7.834323 4.998760 -1.696719
v -7.801943 4.901240 -1.673558
v -7.801943 4.998760 -1.673558
v -8.201917 4.968760 -1.299473
v -8.201917 4.931240 -1.299473
v -8.161990 4.901240 -1.335153
v -8.161990 4.998760 -1.335153
v -7.997726 4.000651 -1.429552
v -7.997726 4.948652 -1.429552
v -7.948229 4.000651 -1.450054
v -7.948229 4.948652 -1.450054
v -7.927726 4.000651 -1.499552
v -7.927726 4.948652 -1.499552
v -7.948229 4.000651 -1.549049
v -7.948229 4.948652 -1.549049
v -7.997726 4.000651 -1.569552
v -7.997726 4.948652 -1.569552
v -8.047224 4.000651 -1.549049
v -8.047224 4.948652 -1.549049
v -8.067726 4.000651 -1.499552
v -8.067726 4.948652 -1.499552
v -8.047224 4.000651 -1.450054
v -8.047224 4.948652 -1.450054
v 0.000000 4.968760 -1.699959
v 0.000000 4.931240 -1.300043
v 0.000000 4.998760 -1.330043
v 0.000000 4.998760 -1.669959
v 0.000000 4.931240 -1.699959
v 0.000000 4.968760 -1.300043
v 0.000000 4.901240 -1.330043
v 0.000000 4.901240 -1.669959
v -11.204241 4.931240 -1.696719
v -11.204241 4.968760 -1.696719
v -10.804323 4.968760 -1.699719
v -10.804323 4.931240 -1.699719
v -11.174240 4.901240 -1.696719
v -11.174240 4.998760 -1.696719
v -10.834324 4.901240 -1.696719
v -10.834324 4.998760 -1.696719
v -10.997726 4.000651 -1.029552
v -10.997726 4.948652 -1.029552
v -10.948229 4.000651 -1.050054
v -10.948229 4.948652 -1.050054
v -10.927726 4.000651 -1.099552
v -10.927726 4.948652 -1.099552
v -10.948229 4.000651 -1.149049
v -10.948229 4.948652 -1.149049
v -10.997726 4.000651 -1.169552
v -10.997726 4.948652 -1.169552
v -11.047224 4.000651 -1.149049
v -11.047224 4.948652 -1.149049
v -11.067726 4.000651 -1.099552
v -11.067726 4.948652 -1.099552
v -11.047224 4.000651 -1.050054
v -11.047224 4.948652 -1.050054
v -10.997726 4.000651 -0.329552
v -10.997726 4.948652 -0.329552
v -10.948229 4.000651 -0.350054
v -10.948229 4.948652 -0.350054
v -10.927726 4.000651 -0.399552
v -10.927726 4.948652 -0.399552
v -10.948229 4.000651 -0.449049
v -10.948229 4.948652 -0.449049
v -10.997726 4.000651 -0.469552
v -10.997726 4.948652 -0.469552
v -11.047224 4.000651 -0.449049
v -11.047224 4.948652 -0.449049
v -11.067726 4.000651 -0.399552
v -11.067726 4.948652 -0.399552
v -11.047224 4.000651 -0.350054
v -11.047224 4.948652 -0.350054
v -11.109630 -0.000000 -5.500000
v -7.890369 -0.000000 -5.500000
v -11.109630 4.000000 -1.750000
v -7.890369 4.000000 -1.750000
v -7.890369 3.725000 -1.750000
v 0.000000 3.725000 -1.750000
v 0.000000 4.000000 -1.750000
v 7.750000 4.931240 -1.300043
v 7.750000 4.968760 -1.300043
v 7.770000 4.931240 -1.699959
v 7.770000 4.968760 -1.699959
v 7.770000 4.901240 -1.330043
v 7.770000 4.998760 -1.330043
v 7.770000 4.901240 -1.669959
v 7.770000 4.998760 -1.669959
v 0.497726 4.000651 -1.429552
v 0.497726 4.948652 -1.429552
v 0.448229 4.000651 -1.450054
v 0.448229 4.948652 -1.450054
v 0.427726 4.000651 -1.499552
v 0.427726 4.948652 -1.499552
v 0.448229 4.000651 -1.549049
v 0.448229 4.948652 -1.549049
v 0.497726 4.000651 -1.569552
v 0.497726 4.948652 -1.569552
v 0.547224 4.000651 -1.549049
v 0.547224 4.948652 -1.549049
v 0.567726 4.000651 -1.499552
v 0.567726 4.948652 -1.499552
v 0.547224 4.000651 -1.450054
v 0.547224 4.948652 -1.450054
v 1.497726 4.000651 -1.429552
v 1.497726 4.948652 -1.429552
v 1.448229 4.000651 -1.450054
v 1.448229 4.948652 -1.450054
v 1.427726 4.000651 -1.499552
v 1.427726 4.948652 -1.499552
v 1.448229 4.000651 -1.549049
v 1.448229 4.948652 -1.549049
v 1.497726 4.000651 -1.569552
v 1.497726 4.948652 -1.569552
v 1.547224 4.000651 -1.549049
v 1.547224 4.948652 -1.549049
v 1.567726 4.000651 -1.499552
v 1.567726 4.948652 -1.499552
v 1.547224 4.000651 -1.450054
v 1.547224 4.948652 -1.450054
v 2.497726 4.000651 -1.429552
v 2.497726 4.948652 -1.429552
v 2.448229 4.000651 -1.450054
v 2.448229 4.948652 -1.450054
v 2.427726 4.000651 -1.499552
v 2.427726 4.948652 -1.499552
v 2.448229 4.000651 -1.549049
v 2.448229 4.948652 -1.549049
v 2.497726 4.000651 -1.569552
v 2.497726 4.948652 -1.569552
v 2.547224 4.000651 -1.549049
v 2.547224 4.948652 -1.549049
v 2.567726 4.000651 -1.499552
v 2.567726 4.948652 -1.499552
v 2.547224 4.000651 -1.450054
v 2.547224 4.948652 -1.450054
v 3.497726 4.000651 -1.429552
v 3.497726 4.948652 -1.429552
v 3.448229 4.000651 -1.450054
v 3.448229 4.948652 -1.450054
v 3.427726 4.000651 -1.499552
v 3.427726 4.948652 -1.499552
v 3.448229 4.000651 -1.549049
v 3.448229 4.948652 -1.549049
v 3.497726 4.000651 -1.569552
v 3.497726 4.948652 -1.569552
v 3.547224 4.000651 -1.549049
v 3.547224 4.948652 -1.549049
v 3.567726 4.000651 -1.499552
v 3.567726 4.948652 -1.499552
v 3.547224 4.000651 -1.450054
v 3.547224 4.948652 -1.450054
v 4.497726 4.000651 -1.429552
v 4.497726 4.948652 -1.429552
v 4.448229 4.000651 -1.450054
v 4.448229 4.948652 -1.450054
v 4.427726 4.000651 -1.499552
v 4.427726 4.948652 -1.499552
v 4.448229 4.000651 -1.549049
v 4.448229 4.948652 -1.549049
v 4.497726 4.000651 -1.569552
v 4.497726 4.948652 -1.569552
v 4.547224 4.000651 -1.549049
v 4.547224 4.948652 -1.549049
v 4.567726 4.000651 -1.499552
v 4.567726 4.948652 -1.499552
v 4.547224 4.000651 -1.450054
v 4.547224 4.948652 -1.450054
v 5.497726 4.000651 -1.429552
v 5.497726 4.948652 -1.429552
v 5.448229 4.000651 -1.450054
v 5.448229 4.948652 -1.450054
v 5.427726 4.000651 -1.499552
v 5.427726 4.948652 -1.499552
v 5.448229 4.000651 -1.549049
v 5.448229 4.948652 -1.549049
v 5.497726 4.000651 -1.569552
v 5.497726 4.948652 -1.569552
v 5.547224 4.000651 -1.549049
v 5.547224 4.948652 -1.549049
v 5.567726 4.000651 -1.499552
v 5.567726 4.948652 -1.499552
v 5.547224 4.000651 -1.450054
v 5.547224 4.948652 -1.450054
v 6.497726 4.000651 -1.429552
v 6.497726 4.948652 -1.429552
v 6.448229 4.000651 -1.450054
v 6.448229 4.948652 -1.450054
v 6.427726 4.000651 -1.499552
v 6.427726 4.948652 -1.499552
v 6.448229 4.000651 -1.549049
v 6.448229 4.948652 -1.549049
v 6.497726 4.000651 -1.569552
v 6.497726 4.948652 -1.569552
v 6.547224 4.000651 -1.549049
v 6.547224 4.948652 -1.549049
v 6.567726 4.000651 -1.499552
v 6.567726 4.948652 -1.499552
v 6.547224 4.000651 -1.450054
v 6.547224 4.948652 -1.450054
v 7.497726 4.000651 -1.429552
v 7.497726 4.948652 -1.429552
v 7.448229 4.000651 -1.450054
v 7.448229 4.948652 -1.450054
v 7.427726 4.000651 -1.499552
v 7.427726 4.948652 -1.499552
v 7.448229 4.000651 -1.549049
v 7.448229 4.948652 -1.549049
v 7.497726 4.000651 -1.569552
v 7.497726 4.948652 -1.569552
v 7.547224 4.000651 -1.549049
v 7.547224 4.948652 -1.549049
v 7.567726 4.000651 -1.499552
v 7.567726 4.948652 -1.499552
v 7.547224 4.000651 -1.450054
v 7.547224 4.948652 -1.450054
v 8.204240 4.931240 -1.696719
v 8.204240 4.968760 -1.696719
v 7.804323 4.968760 -1.699719
v 7.804323 4.931240 -1.699719
v 8.174240 4.901240 -1.696719
v 8.174240 4.998760 -1.696719
v 7.834323 4.901240 -1.696719
v 7.834323 4.998760 -1.696719
v 7.801943 4.901240 -1.673558
v 7.801943 4.998760 -1.673558
v 8.201917 4.968760 -1.299473
v 8.201917 4.931240 -1.299473
v 8.161990 4.901240 -1.335153
v 8.161990 4.998760 -1.335153
v 7.997726 4.000651 -1.429552
v 7.997726 4.948652 -1.429552
v 7.948229 4.000651 -1.450054
v 7.948229 4.948652 -1.450054
v 7.927726 4.000651 -1.499552
v 7.927726 4.948652 -1.499552
v 7.948229 4.000651 -1.549049
v 7.948229 4.948652 -1.549049
v 7.997726 4.000651 -1.569552
v 7.997726 4.948652 -1.569552
v 8.047224 4.000651 -1.549049
v 8.047224 4.948652 -1.549049
v 8.067726 4.000651 -1.499552
v 8.067726 4.948652 -1.499552
v 8.047224 4.000651 -1.450054
v 8.047224 4.948652 -1.450054
v 11.204241 4.931240 -1.696719
v 11.204241 4.968760 -1.696719
v 10.804323 4.968760 -1.699719
v 10.804323 4.931240 -1.699719
v 11.174240 4.901240 -1.696719
v 11.174240 4.998760 -1.696719
v 10.834324 4.901240 -1.696719
v 10.834324 4.998760 -1.696719
v 10.997726 4.000651 -1.029552
v 10.997726 4.948652 -1.029552
v 10.948229 4.000651 -1.050054
v 10.948229 4.948652 -1.050054
v 10.927726 4.000651 -1.099552
v 10.927726 4.948652 -1.099552
v 10.948229 4.000651 -1.149049
v 10.948229 4.948652 -1.149049
v 10.997726 4.000651 -1.169552
v 10.997726 4.948652 -1.169552
v 11.047224 4.000651 -1.149049
v 11.047224 4.948652 -1.149049
v 11.067726 4.000651 -1.099552
v 11.067726 4.948652 -1.099552
v 11.047224 4.000651 -1.050054
v 11.047224 4.948652 -1.050054
v 10.997726 4.000651 -0.329552
v 10.997726 4.948652 -0.329552
v 10.948229 4.000651 -0.350054
v 10.948229 4.948652 -0.350054
v 10.927726 4.000651 -0.399552
v 10.927726 4.948652 -0.399552
v 10.948229 4.000651 -0.449049
v 10.948229 4.948652 -0.449049
v 10.997726 4.000651 -0.469552
v 10.997726 4.948652 -0.469552
v 11.047224 4.000651 -0.449049
v 11.047224 4.948652 -0.449049
v 11.067726 4.000651 -0.399552
v 11.067726 4.948652 -0.399552
v 11.047224 4.000651 -0.350054
v 11.047224 4.948652 -0.350054
v 11.109630 -0.000000 -5.500000
v 7.890369 -0.000000 -5.500000
v 11.109630 4.000000 -1.750000
v 7.890369 4.000000 -1.750000
v 7.890369 3.725000 -1.750000
vn -0.0000 -0.7071 0.7071
vn -0.0000 0.7071 -0.7071
vn 0.0549 0.7021 -0.7099
vn 0.1139 0.7808 -0.6144
vn -0.9674 -0.0000 0.2534
vn -0.9673 -0.0000 0.2535
vn -0.5405 -0.3512 0.7646
vn -0.6250 0.3152 0.7142
vn 0.4849 -0.5526 0.6779
vn 0.0550 -0.7021 -0.7100
vn 0.3789 -0.8597 -0.3427
vn 0.0029 -0.9929 0.1186
vn 0.1676 -0.6940 -0.7003
vn -0.0000 1.0000 -0.0000
vn -0.4420 0.7964 -0.4129
vn 0.4849 0.5526 0.6779
vn -0.0000 -0.0000 -1.0000
vn 0.1090 -0.0000 -0.9940
vn 0.3827 -0.0000 -0.9239
vn 0.9239 -0.0000 -0.3827
vn 0.9239 -0.0000 0.3827
vn 0.3827 -0.0000 0.9239
vn -0.3827 -0.0000 0.9239
vn -0.9239 -0.0000 0.3827
vn -0.9239 -0.0000 -0.3827
vn -0.3827 -0.0000 -0.9239
vn 0.0370 0.6821 0.7303
vn -0.7137 -0.6765 0.1819
vn -0.3626 -0.8484 0.3856
vn -0.7281 -0.6613 0.1804
vn -0.5721 0.8023 0.1705
vn -0.7136 0.6765 0.1819
vn -0.7281 0.6614 0.1803
vn 0.0370 -0.6821 0.7303
vn 0.2267 -0.0000 -0.9740
vn -0.0035 -0.0000 1.0000
vn -0.0070 -0.0000 1.0000
vn -0.0040 0.0499 0.9987
vn 0.1906 0.2339 0.9534
vn -0.0064 0.0167 0.9998
vn 0.1675 0.6940 -0.7002
vn -0.0000 -1.0000 -0.0000
vn -0.0000 -0.7071 -0.7071
vn -0.0000 0.7071 0.7071
vn -0.0000 -0.0000 1.0000
vn 0.5508 0.0139 0.8345
vn 0.5508 -0.0139 0.8345
vn 1.0000 -0.0000 -0.0000
vn -0.5584 -0.0138 0.8294
vn -0.5584 0.0138 0.8294
vn -1.0000 -0.0000 -0.0000
vn -0.7071 -0.7071 -0.0000
vn -0.7071 0.7071 -0.0000
vn 0.7071 -0.7071 -0.0000
vn 0.7071 0.7071 -0.0000
vn -0.4897 0.4894 -0.7216
vn -0.9894 -0.1450 -0.0004
vn 0.4820 -0.7951 0.3681
vn 0.6751 -0.7218 0.1527
vn -0.0000 -0.0006 1.0000
vn -0.0000 -0.0005 1.0000
vn 0.9436 -0.0000 -0.3312
vn -0.0064 -0.0167 0.9998
vn -0.0925 -0.3785 0.9210
vn -0.0040 -0.0499 0.9987
vn -0.1139 0.7808 -0.6143
vn -0.0549 0.7021 -0.7099
vn 0.9674 -0.0000 0.2534
vn 0.6250 0.3152 0.7142
vn 0.5405 -0.3511 0.7646
vn -0.4849 -0.5526 0.6779
vn -0.0550 -0.7021 -0.7100
vn -0.1675 -0.6940 -0.7002
vn -0.0029 -0.9929 0.1186
vn -0.3788 -0.8597 -0.3427
vn 0.4419 0.7964 -0.4128
vn -0.4849 0.5526 0.6779
vn -0.1090 -0.0000 -0.9940
vn -0.1089 -0.0000 -0.9941
vn -0.0370 0.6821 0.7303
vn 0.7136 -0.6765 0.1819
vn 0.7281 -0.6613 0.1804
vn 0.3626 -0.8484 0.3855
vn 0.5721 0.8023 0.1704
vn 0.7281 0.6614 0.1803
vn 0.7136 0.6765 0.1819
vn -0.0370 -0.6821 0.7303
vn -0.2266 -0.0000 -0.9740
vn 0.0035 -0.0000 1.0000
vn 0.0070 -0.0000 1.0000
vn 0.0040 0.0499 0.9987
vn 0.0064 0.0167 0.9998
vn -0.1906 0.2339 0.9534
vn -0.1675 0.6940 -0.7002
vn -0.5508 0.0139 0.8345
vn -0.5508 -0.0139 0.8345
vn 0.5584 -0.0138 0.8294
vn 0.5584 0.0138 0.8294
vn 0.9894 -0.1451 -0.0005
vn 0.9998 -0.0207 -0.0002
vn -0.4820 -0.7951 0.3681
vn -0.6751 -0.7218 0.1526
vn -0.9435 -0.0000 -0.3313
vn 0.0064 -0.0167 0.9998
vn 0.0925 -0.3784 0.9210
vn 0.0040 -0.0499 0.9987
vn 0.1139 0.7808 0.6143
vn 0.0549 0.7021 0.7099
vn -0.9674 -0.0000 -0.2534
vn -0.6250 0.3152 -0.7142
vn -0.5405 -0.3511 -0.7646
vn 0.4849 -0.5526 -0.6779
vn 0.0550 -0.7021 0.7100
vn 0.1675 -0.6940 0.7002
vn 0.0029 -0.9929 -0.1186
vn 0.3788 -0.8597 0.3427
vn -0.4419 0.7964 0.4128
vn 0.4849 0.5526 -0.6779
vn 0.1090 -0.0000 0.9940
vn 0.1089 -0.0000 0.9941
vn 0.0370 0.6821 -0.7303
vn -0.7136 -0.6765 -0.1819
vn -0.7281 -0.6613 -0.1804
vn -0.3626 -0.8484 -0.3855
vn -0.5721 0.8023 -0.1704
vn -0.7281 0.6614 -0.1803
vn -0.7136 0.6765 -0.1819
vn 0.0370 -0.6821 -0.7303
vn 0.2266 -0.0000 0.9740
vn -0.0035 -0.0000 -1.0000
vn -0.0070 -0.0000 -1.0000
vn -0.0040 0.0499 -0.9987
vn -0.0064 0.0167 -0.9998
vn 0.1906 0.2339 -0.9534
vn 0.1675 0.6940 0.7002
vn 0.5508 0.0139 -0.8345
vn 0.5508 -0.0139 -0.8345
vn -0.5584 -0.0138 -0.8294
vn -0.5584 0.0138 -0.8294
vn -0.9894 -0.1451 0.0005
vn 0.4820 -0.7951 -0.3681
vn -0.0000 -0.0006 -1.0000
vn 0.6751 -0.7218 -0.1526
vn 0.9435 -0.0000 0.3313
vn -0.0064 -0.0167 -0.9998
vn -0.0925 -0.3784 -0.9210
vn -0.0040 -0.0499 -0.9987
vn -0.0549 0.7021 0.7099
vn -0.1139 0.7808 0.6143
vn 0.9674 -0.0000 -0.2533
vn 0.9674 -0.0000 -0.2534
vn 0.5405 -0.3511 -0.7646
vn 0.6250 0.3151 -0.7142
vn -0.4849 -0.5526 -0.6779
vn -0.0550 -0.7021 0.7100
vn -0.3788 -0.8597 0.3427
vn -0.0029 -0.9929 -0.1186
vn -0.1675 -0.6940 0.7002
vn 0.4419 0.7964 0.4128
vn -0.4849 0.5526 -0.6779
vn -0.1089 -0.0000 0.9941
vn -0.0370 0.6821 -0.7303
vn 0.7136 -0.6765 -0.1819
vn 0.3626 -0.8485 -0.3855
vn 0.7281 -0.6614 -0.1803
vn 0.5721 0.8023 -0.1704
vn 0.7136 0.6765 -0.1818
vn 0.7281 0.6614 -0.1803
vn -0.0370 -0.6821 -0.7303
vn -0.2266 -0.0000 0.9740
vn 0.0035 -0.0000 -1.0000
vn 0.0070 -0.0000 -1.0000
vn 0.0040 0.0499 -0.9987
vn -0.1905 0.2338 -0.9534
vn 0.0064 0.0167 -0.9998
vn -0.1675 0.6940 0.7002
vn -0.5508 0.0139 -0.8345
vn -0.5508 -0.0139 -0.8345
vn 0.5584 -0.0138 -0.8294
vn 0.5584 0.0138 -0.8294
vn 0.9894 -0.1451 0.0004
vn -0.4820 -0.7951 -0.3681
vn -0.6751 -0.7218 -0.1526
vn -0.0000 -0.0007 -1.0000
vn -0.9435 -0.0000 0.3313
vn 0.0064 -0.0167 -0.9998
vn 0.0925 -0.3784 -0.9210
vn 0.0040 -0.0499 -0.9987
vt 0.947818 0.859434
vt 0.906148 0.859434
vt 0.906148 0.855946
vt 0.947818 0.855946
vt 0.939645 0.815278
vt 0.980911 0.815278
vt 0.981017 0.819125
vt 0.939645 0.819125
vt 0.966144 0.807016
vt 0.966138 0.806335
vt 0.996538 0.805985
vt 0.996604 0.806726
vt 0.924356 0.887455
vt 0.912798 0.887073
vt 0.924356 0.883374
vt 0.982045 0.809160
vt 0.980813 0.814635
vt 0.954186 0.815540
vt 0.954091 0.808483
vt 0.935995 0.878441
vt 0.888556 0.815783
vt 0.941818 0.821614
vt 0.940146 0.874290
vt 0.898343 0.887073
vt 0.886785 0.887455
vt 0.886785 0.883374
vt 0.941062 0.813436
vt 0.895076 0.813436
vt 0.895076 0.810661
vt 0.941062 0.810661
vt 0.939645 0.862715
vt 0.981017 0.862715
vt 0.975019 0.709573
vt 0.975019 0.776760
vt 0.965455 0.776760
vt 0.965455 0.709573
vt 0.955890 0.776760
vt 0.955890 0.709573
vt 0.946325 0.776760
vt 0.946325 0.709573
vt 0.936760 0.776760
vt 0.936760 0.709573
vt 0.927195 0.776760
vt 0.927195 0.709573
vt 0.917630 0.776760
vt 0.917630 0.709573
vt 0.908066 0.776760
vt 0.908066 0.709573
vt 0.898501 0.776760
vt 0.898501 0.709573
vt 0.898343 0.891314
vt 0.886785 0.891415
vt 0.917438 0.808165
vt 0.917382 0.815159
vt 0.893278 0.812295
vt 0.894491 0.807559
vt 0.996725 0.814681
vt 0.947853 0.873492
vt 0.966224 0.815549
vt 0.924356 0.891415
vt 0.912798 0.891314
vt 0.884493 0.809801
vt 0.884486 0.809120
vt 0.921180 0.806903
vt 0.921186 0.807584
vt 0.921064 0.816199
vt 0.937204 0.819967
vt 0.942216 0.859524
vt 0.938366 0.856497
vt 0.932367 0.855534
vt 0.906148 0.816423
vt 0.947818 0.816424
vt 0.941062 0.816487
vt 0.894958 0.816487
vt 0.982666 0.881827
vt 0.942107 0.881827
vt 0.942107 0.872638
vt 0.982666 0.872638
vt 0.982666 0.890187
vt 0.942107 0.890187
vt 0.920582 0.890172
vt 0.916791 0.897942
vt 0.922610 0.807928
vt 0.919501 0.814301
vt 0.967183 0.811588
vt 0.969710 0.805851
vt 0.967184 0.876791
vt 0.915513 0.807472
vt 0.917498 0.813172
vt 0.917499 0.877547
vt 0.969194 0.882564
vt 0.915003 0.883211
vt 0.978312 0.969520
vt 0.898374 0.969520
vt 0.898374 0.914368
vt 0.978312 0.914368
vt 0.977852 0.943910
vt 0.978312 0.903353
vt 0.898374 0.903353
vt 0.897914 0.943910
vt 0.971986 0.903791
vt 0.896618 0.903791
vt 0.904056 0.908502
vt 0.971986 0.979159
vt 0.970995 0.972094
vt 0.908561 0.950691
vt 0.908561 0.954217
vt 0.908561 0.954973
vt 0.975798 0.954217
vt 0.975798 0.954973
vt 0.908561 0.958500
vt 0.975798 0.958500
vt 0.975798 0.950691
s 1
f 171/1/1 3/2/1 7/3/1 174/4/1
f 172/5/2 2/6/3 6/7/4 169/8/2
f 147/9/5 148/10/6 137/11/7 138/12/8
f 145/13/9 140/14/9 143/15/9
f 1/16/10 5/17/11 149/18/12 148/19/13
f 8/20/14 6/21/4 150/22/15 146/23/14
f 139/24/16 146/25/16 144/26/16
f 168/27/17 1/28/18 2/29/18 172/30/17
f 170/31/14 169/8/14 6/7/4 8/32/14
f 9/33/19 10/34/19 12/35/19 11/36/19
f 11/36/20 12/35/20 14/37/20 13/38/20
f 13/38/21 14/37/21 16/39/21 15/40/21
f 15/40/22 16/39/22 18/41/22 17/42/22
f 17/42/23 18/41/23 20/43/23 19/44/23
f 19/44/24 20/43/24 22/45/24 21/46/24
f 21/46/25 22/45/25 24/47/25 23/48/25
f 23/48/26 24/47/26 10/49/26 9/50/26
f 25/33/19 26/34/19 28/35/19 27/36/19
f 27/36/20 28/35/20 30/37/20 29/38/20
f 29/38/21 30/37/21 32/39/21 31/40/21
f 31/40/22 32/39/22 34/41/22 33/42/22
f 33/42/23 34/41/23 36/43/23 35/44/23
f 35/44/24 36/43/24 38/45/24 37/46/24
f 37/46/25 38/45/25 40/47/25 39/48/25
f 39/48/26 40/47/26 26/49/26 25/50/26
f 41/33/19 42/34/19 44/35/19 43/36/19
f 43/36/20 44/35/20 46/37/20 45/38/20
f 45/38/21 46/37/21 48/39/21 47/40/21
f 47/40/22 48/39/22 50/41/22 49/42/22
f 49/42/23 50/41/23 52/43/23 51/44/23
f 51/44/24 52/43/24 54/45/24 53/46/24
f 53/46/25 54/45/25 56/47/25 55/48/25
f 55/48/26 56/47/26 42/49/26 41/50/26
f 57/33/19 58/34/19 60/35/19 59/36/19
f 59/36/20 60/35/20 62/37/20 61/38/20
f 61/38/21 62/37/21 64/39/21 63/40/21
f 63/40/22 64/39/22 66/41/22 65/42/22
f 65/42/23 66/41/23 68/43/23 67/44/23
f 67/44/24 68/43/24 70/45/24 69/46/24
f 69/46/25 70/45/25 72/47/25 71/48/25
f 71/48/26 72/47/26 58/49/26 57/50/26
f 73/33/19 74/34/19 76/35/19 75/36/19
f 75/36/20 76/35/20 78/37/20 77/38/20
f 77/38/21 78/37/21 80/39/21 79/40/21
f 79/40/22 80/39/22 82/41/22 81/42/22
f 81/42/23 82/41/23 84/43/23 83/44/23
f 83/44/24 84/43/24 86/45/24 85/46/24
f 85/46/25 86/45/25 88/47/25 87/48/25
f 87/48/26 88/47/26 74/49/26 73/50/26
f 89/33/19 90/34/19 92/35/19 91/36/19
f 91/36/20 92/35/20 94/37/20 93/38/20
f 93/38/21 94/37/21 96/39/21 95/40/21
f 95/40/22 96/39/22 98/41/22 97/42/22
f 97/42/23 98/41/23 100/43/23 99/44/23
f 99/44/24 100/43/24 102/45/24 101/46/24
f 101/46/25 102/45/25 104/47/25 103/48/25
f 103/48/26 104/47/26 90/49/26 89/50/26
f 105/33/19 106/34/19 108/35/19 107/36/19
f 107/36/20 108/35/20 110/37/20 109/38/20
f 109/38/21 110/37/21 112/39/21 111/40/21
f 111/40/22 112/39/22 114/41/22 113/42/22
f 113/42/23 114/41/23 116/43/23 115/44/23
f 115/44/24 116/43/24 118/45/24 117/46/24
f 117/46/25 118/45/25 120/47/25 119/48/25
f 119/48/26 120/47/26 106/49/26 105/50/26
f 121/33/19 122/34/19 124/35/19 123/36/19
f 123/36/20 124/35/20 126/37/20 125/38/20
f 125/38/21 126/37/21 128/39/21 127/40/21
f 127/40/22 128/39/22 130/41/22 129/42/22
f 129/42/23 130/41/23 132/43/23 131/44/23
f 131/44/24 132/43/24 134/45/24 133/46/24
f 133/46/25 134/45/25 136/47/25 135/48/25
f 135/48/26 136/47/26 122/49/26 121/50/26
f 4/51/27 8/52/27 146/25/27 139/24/27
f 148/53/28 149/54/12 141/55/29 137/56/30
f 146/23/14 150/22/15 142/57/31 144/58/14
f 150/59/15 147/9/32 138/12/33 142/57/31
f 7/60/34 3/61/34 140/14/34 145/13/34
f 2/62/18 1/63/18 148/64/35 147/65/35
f 3/61/36 4/51/36 139/24/37 140/14/37
f 144/26/38 142/57/39 138/12/8 139/24/40
f 6/21/4 2/62/3 147/65/41 150/66/15
f 149/67/12 5/17/11 7/68/42 145/69/42
f 141/55/29 149/67/12 145/69/42 143/70/42
f 151/33/19 152/34/19 154/35/19 153/36/19
f 153/36/20 154/35/20 156/37/20 155/38/20
f 155/38/21 156/37/21 158/39/21 157/40/21
f 157/40/22 158/39/22 160/41/22 159/42/22
f 159/42/23 160/41/23 162/43/23 161/44/23
f 161/44/24 162/43/24 164/45/24 163/46/24
f 163/46/25 164/45/25 166/47/25 165/48/25
f 165/48/26 166/47/26 152/49/26 151/50/26
f 5/71/11 173/72/42 174/4/42 7/3/42
f 1/28/10 168/27/43 173/73/43 5/74/11
f 4/75/44 167/76/44 170/77/44 8/78/44
f 3/79/36 171/80/45 167/76/45 4/75/36
f 177/81/46 178/82/47 184/82/48 183/81/48
f 185/33/19 186/34/19 188/35/19 187/36/19
f 187/36/20 188/35/20 190/37/20 189/38/20
f 189/38/21 190/37/21 192/39/21 191/40/21
f 191/40/22 192/39/22 194/41/22 193/42/22
f 193/42/23 194/41/23 196/43/23 195/44/23
f 195/44/24 196/43/24 198/45/24 197/46/24
f 197/46/25 198/45/25 200/47/25 199/48/25
f 199/48/26 200/47/26 186/49/26 185/50/26
f 201/33/19 202/34/19 204/35/19 203/36/19
f 203/36/20 204/35/20 206/37/20 205/38/20
f 205/38/21 206/37/21 208/39/21 207/40/21
f 207/40/22 208/39/22 210/41/22 209/42/22
f 209/42/23 210/41/23 212/43/23 211/44/23
f 211/44/24 212/43/24 214/45/24 213/46/24
f 213/46/25 214/45/25 216/47/25 215/48/25
f 215/48/26 216/47/26 202/49/26 201/50/26
f 175/83/49 176/84/50 222/84/51 220/83/51
f 179/85/52 175/86/52 220/86/52 219/85/52
f 181/87/42 179/85/42 219/85/42 221/87/42
f 176/88/53 180/89/53 218/89/53 222/88/53
f 180/89/14 182/90/14 217/90/14 218/89/14
f 178/91/54 181/87/54 221/87/54 184/91/54
f 182/90/55 177/92/55 183/92/55 217/90/55
f 228/93/14 225/94/56 229/95/57 230/96/14
f 226/97/58 230/98/59 229/99/60 223/100/61
f 224/101/51 223/102/51 229/103/57
f 225/104/56 224/101/51 229/105/57
f 232/106/48 231/107/62 227/101/48
f 230/108/59 231/107/62 233/109/45 234/110/45
f 228/111/14 230/108/14 234/110/14 235/112/14
f 231/107/42 232/106/42 236/113/42 233/109/42
f 230/98/59 226/97/58 231/97/62
f 231/97/62 226/97/58 227/101/48
f 137/11/7 140/14/63 139/24/40 138/12/8
f 141/55/64 143/70/65 140/14/63 137/11/7
f 182/90/38 180/89/38 176/88/50 177/92/46
f 175/83/49 178/82/47 177/81/46 176/88/50
f 181/87/65 178/91/47 175/83/49 179/85/65
f 171/1/1 174/4/1 243/3/1 239/2/1
f 172/5/2 169/8/2 242/7/66 238/6/67
f 383/9/68 374/12/69 373/11/70 384/10/68
f 381/13/71 379/15/71 376/14/71
f 237/16/72 384/19/73 385/18/74 241/17/75
f 244/20/14 382/23/14 386/22/76 242/21/66
f 375/24/77 380/26/77 382/25/77
f 168/27/17 172/30/17 238/29/78 237/28/79
f 170/31/14 244/32/14 242/7/66 169/8/14
f 245/33/26 247/36/26 248/35/26 246/34/26
f 247/36/25 249/38/25 250/37/25 248/35/25
f 249/38/24 251/40/24 252/39/24 250/37/24
f 251/40/23 253/42/23 254/41/23 252/39/23
f 253/42/22 255/44/22 256/43/22 254/41/22
f 255/44/21 257/46/21 258/45/21 256/43/21
f 257/46/20 259/48/20 260/47/20 258/45/20
f 259/48/19 245/50/19 246/49/19 260/47/19
f 261/33/26 263/36/26 264/35/26 262/34/26
f 263/36/25 265/38/25 266/37/25 264/35/25
f 265/38/24 267/40/24 268/39/24 266/37/24
f 267/40/23 269/42/23 270/41/23 268/39/23
f 269/42/22 271/44/22 272/43/22 270/41/22
f 271/44/21 273/46/21 274/45/21 272/43/21
f 273/46/20 275/48/20 276/47/20 274/45/20
f 275/48/19 261/50/19 262/49/19 276/47/19
f 277/33/26 279/36/26 280/35/26 278/34/26
f 279/36/25 281/38/25 282/37/25 280/35/25
f 281/38/24 283/40/24 284/39/24 282/37/24
f 283/40/23 285/42/23 286/41/23 284/39/23
f 285/42/22 287/44/22 288/43/22 286/41/22
f 287/44/21 289/46/21 290/45/21 288/43/21
f 289/46/20 291/48/20 292/47/20 290/45/20
f 291/48/19 277/50/19 278/49/19 292/47/19
f 293/33/26 295/36/26 296/35/26 294/34/26
f 295/36/25 297/38/25 298/37/25 296/35/25
f 297/38/24 299/40/24 300/39/24 298/37/24
f 299/40/23 301/42/23 302/41/23 300/39/23
f 301/42/22 303/44/22 304/43/22 302/41/22
f 303/44/21 305/46/21 306/45/21 304/43/21
f 305/46/20 307/48/20 308/47/20 306/45/20
f 307/48/19 293/50/19 294/49/19 308/47/19
f 309/33/26 311/36/26 312/35/26 310/34/26
f 311/36/25 313/38/25 314/37/25 312/35/25
f 313/38/24 315/40/24 316/39/24 314/37/24
f 315/40/23 317/42/23 318/41/23 316/39/23
f 317/42/22 319/44/22 320/43/22 318/41/22
f 319/44/21 321/46/21 322/45/21 320/43/21
f 321/46/20 323/48/20 324/47/20 322/45/20
f 323/48/19 309/50/19 310/49/19 324/47/19
f 325/33/26 327/36/26 328/35/26 326/34/26
f 327/36/25 329/38/25 330/37/25 328/35/25
f 329/38/24 331/40/24 332/39/24 330/37/24
f 331/40/23 333/42/23 334/41/23 332/39/23
f 333/42/22 335/44/22 336/43/22 334/41/22
f 335/44/21 337/46/21 338/45/21 336/43/21
f 337/46/20 339/48/20 340/47/20 338/45/20
f 339/48/19 325/50/19 326/49/19 340/47/19
f 341/33/26 343/36/26 344/35/26 342/34/26
f 343/36/25 345/38/25 346/37/25 344/35/25
f 345/38/24 347/40/24 348/39/24 346/37/24
f 347/40/23 349/42/23 350/41/23 348/39/23
f 349/42/22 351/44/22 352/43/22 350/41/22
f 351/44/21 353/46/21 354/45/21 352/43/21
f 353/46/20 355/48/20 356/47/20 354/45/20
f 355/48/19 341/50/19 342/49/19 356/47/19
f 357/33/26 359/36/26 360/35/26 358/34/26
f 359/36/25 361/38/25 362/37/25 360/35/25
f 361/38/24 363/40/24 364/39/24 362/37/24
f 363/40/23 365/42/23 366/41/23 364/39/23
f 365/42/22 367/44/22 368/43/22 366/41/22
f 367/44/21 369/46/21 370/45/21 368/43/21
f 369/46/20 371/48/20 372/47/20 370/45/20
f 371/48/19 357/50/19 358/49/19 372/47/19
f 240/51/80 375/24/80 382/25/80 244/52/80
f 384/53/81 373/56/82 377/55/83 385/54/74
f 382/23/14 380/58/14 378/57/84 386/22/76
f 386/59/76 378/57/84 374/12/85 383/9/86
f 243/60/87 381/13/87 376/14/87 239/61/87
f 238/62/78 383/65/88 384/64/88 237/63/79
f 239/61/89 376/14/90 375/24/90 240/51/89
f 380/26/91 375/24/92 374/12/69 378/57/93
f 242/21/66 386/66/76 383/65/94 238/62/67
f 385/67/74 381/69/42 243/68/42 241/17/75
f 377/55/83 379/70/42 381/69/42 385/67/74
f 387/33/26 389/36/26 390/35/26 388/34/26
f 389/36/25 391/38/25 392/37/25 390/35/25
f 391/38/24 393/40/24 394/39/24 392/37/24
f 393/40/23 395/42/23 396/41/23 394/39/23
f 395/42/22 397/44/22 398/43/22 396/41/22
f 397/44/21 399/46/21 400/45/21 398/43/21
f 399/46/20 401/48/20 402/47/20 400/45/20
f 401/48/19 387/50/19 388/49/19 402/47/19
f 241/71/75 243/3/42 174/4/42 173/72/42
f 237/28/72 241/74/75 173/73/43 168/27/43
f 240/75/44 244/78/44 170/77/44 167/76/44
f 239/79/89 240/75/89 167/76/45 171/80/45
f 405/81/95 411/81/51 412/82/51 406/82/96
f 413/33/26 415/36/26 416/35/26 414/34/26
f 415/36/25 417/38/25 418/37/25 416/35/25
f 417/38/24 419/40/24 420/39/24 418/37/24
f 419/40/23 421/42/23 422/41/23 420/39/23
f 421/42/22 423/44/22 424/43/22 422/41/22
f 423/44/21 425/46/21 426/45/21 424/43/21
f 425/46/20 427/48/20 428/47/20 426/45/20
f 427/48/19 413/50/19 414/49/19 428/47/19
f 429/33/26 431/36/26 432/35/26 430/34/26
f 431/36/25 433/38/25 434/37/25 432/35/25
f 433/38/24 435/40/24 436/39/24 434/37/24
f 435/40/23 437/42/23 438/41/23 436/39/23
f 437/42/22 439/44/22 440/43/22 438/41/22
f 439/44/21 441/46/21 442/45/21 440/43/21
f 441/46/20 443/48/20 444/47/20 442/45/20
f 443/48/19 429/50/19 430/49/19 444/47/19
f 403/83/97 448/83/48 450/84/48 404/84/98
f 407/85/54 447/85/54 448/86/54 403/86/54
f 409/87/42 449/87/42 447/85/42 407/85/42
f 404/88/55 450/88/55 446/89/55 408/89/55
f 408/89/14 446/89/14 445/90/14 410/90/14
f 406/91/52 412/91/52 449/87/52 409/87/52
f 410/90/53 445/90/53 411/92/53 405/92/53
f 456/93/14 458/96/14 457/95/99 453/94/100
f 454/97/101 451/100/60 457/99/60 458/98/102
f 452/101/48 457/103/99 451/102/48
f 453/104/100 457/105/99 452/101/48
f 460/106/51 455/101/51 459/107/103
f 458/108/102 234/110/45 233/109/45 459/107/103
f 456/111/14 235/112/14 234/110/14 458/108/14
f 459/107/42 233/109/42 236/113/42 460/106/42
f 458/98/102 459/97/103 454/97/101
f 459/97/103 455/101/51 454/97/101
f 373/11/70 374/12/69 375/24/92 376/14/104
f 377/55/105 373/11/70 376/14/104 379/70/106
f 410/90/91 405/92/95 404/88/98 408/89/91
f 403/83/97 404/88/98 405/81/95 406/82/96
f 409/87/106 407/85/106 403/83/97 406/91/96
f 631/1/43 634/4/43 467/3/43 463/2/43
f 632/5/44 629/8/44 466/7/107 462/6/108
f 607/9/109 598/12/110 597/11/111 608/10/109
f 605/13/112 603/15/112 600/14/112
f 461/16/113 608/19/114 609/18/115 465/17/116
f 468/20/14 606/23/14 610/22/117 466/21/107
f 599/24/118 604/26/118 606/25/118
f 628/27/45 632/30/45 462/29/119 461/28/120
f 630/31/14 468/32/14 466/7/107 629/8/14
f 469/33/22 471/36/22 472/35/22 470/34/22
f 471/36/21 473/38/21 474/37/21 472/35/21
f 473/38/20 475/40/20 476/39/20 474/37/20
f 475/40/19 477/42/19 478/41/19 476/39/19
f 477/42/26 479/44/26 480/43/26 478/41/26
f 479/44/25 481/46/25 482/45/25 480/43/25
f 481/46/24 483/48/24 484/47/24 482/45/24
f 483/48/23 469/50/23 470/49/23 484/47/23
f 485/33/22 487/36/22 488/35/22 486/34/22
f 487/36/21 489/38/21 490/37/21 488/35/21
f 489/38/20 491/40/20 492/39/20 490/37/20
f 491/40/19 493/42/19 494/41/19 492/39/19
f 493/42/26 495/44/26 496/43/26 494/41/26
f 495/44/25 497/46/25 498/45/25 496/43/25
f 497/46/24 499/48/24 500/47/24 498/45/24
f 499/48/23 485/50/23 486/49/23 500/47/23
f 501/33/22 503/36/22 504/35/22 502/34/22
f 503/36/21 505/38/21 506/37/21 504/35/21
f 505/38/20 507/40/20 508/39/20 506/37/20
f 507/40/19 509/42/19 510/41/19 508/39/19
f 509/42/26 511/44/26 512/43/26 510/41/26
f 511/44/25 513/46/25 514/45/25 512/43/25
f 513/46/24 515/48/24 516/47/24 514/45/24
f 515/48/23 501/50/23 502/49/23 516/47/23
f 517/33/22 519/36/22 520/35/22 518/34/22
f 519/36/21 521/38/21 522/37/21 520/35/21
f 521/38/20 523/40/20 524/39/20 522/37/20
f 523/40/19 525/42/19 526/41/19 524/39/19
f 525/42/26 527/44/26 528/43/26 526/41/26
f 527/44/25 529/46/25 530/45/25 528/43/25
f 529/46/24 531/48/24 532/47/24 530/45/24
f 531/48/23 517/50/23 518/49/23 532/47/23
f 533/33/22 535/36/22 536/35/22 534/34/22
f 535/36/21 537/38/21 538/37/21 536/35/21
f 537/38/20 539/40/20 540/39/20 538/37/20
f 539/40/19 541/42/19 542/41/19 540/39/19
f 541/42/26 543/44/26 544/43/26 542/41/26
f 543/44/25 545/46/25 546/45/25 544/43/25
f 545/46/24 547/48/24 548/47/24 546/45/24
f 547/48/23 533/50/23 534/49/23 548/47/23
f 549/33/22 551/36/22 552/35/22 550/34/22
f 551/36/21 553/38/21 554/37/21 552/35/21
f 553/38/20 555/40/20 556/39/20 554/37/20
f 555/40/19 557/42/19 558/41/19 556/39/19
f 557/42/26 559/44/26 560/43/26 558/41/26
f 559/44/25 561/46/25 562/45/25 560/43/25
f 561/46/24 563/48/24 564/47/24 562/45/24
f 563/48/23 549/50/23 550/49/23 564/47/23
f 565/33/22 567/36/22 568/35/22 566/34/22
f 567/36/21 569/38/21 570/37/21 568/35/21
f 569/38/20 571/40/20 572/39/20 570/37/20
f 571/40/19 573/42/19 574/41/19 572/39/19
f 573/42/26 575/44/26 576/43/26 574/41/26
f 575/44/25 577/46/25 578/45/25 576/43/25
f 577/46/24 579/48/24 580/47/24 578/45/24
f 579/48/23 565/50/23 566/49/23 580/47/23
f 581/33/22 583/36/22 584/35/22 582/34/22
f 583/36/21 585/38/21 586/37/21 584/35/21
f 585/38/20 587/40/20 588/39/20 586/37/20
f 587/40/19 589/42/19 590/41/19 588/39/19
f 589/42/26 591/44/26 592/43/26 590/41/26
f 591/44/25 593/46/25 594/45/25 592/43/25
f 593/46/24 595/48/24 596/47/24 594/45/24
f 595/48/23 581/50/23 582/49/23 596/47/23
f 464/51/121 599/24/121 606/25/121 468/52/121
f 608/53/122 597/56/123 601/55/124 609/54/115
f 606/23/14 604/58/14 602/57/125 610/22/117
f 610/59/117 602/57/125 598/12/126 607/9/127
f 467/60/128 605/13/128 600/14/128 463/61/128
f 462/62/119 607/65/129 608/64/129 461/63/120
f 463/61/130 600/14/131 599/24/131 464/51/130
f 604/26/132 599/24/133 598/12/110 602/57/134
f 466/21/107 610/66/117 607/65/135 462/62/108
f 609/67/115 605/69/42 467/68/42 465/17/116
f 601/55/124 603/70/42 605/69/42 609/67/115
f 611/33/22 613/36/22 614/35/22 612/34/22
f 613/36/21 615/38/21 616/37/21 614/35/21
f 615/38/20 617/40/20 618/39/20 616/37/20
f 617/40/19 619/42/19 620/41/19 618/39/19
f 619/42/26 621/44/26 622/43/26 620/41/26
f 621/44/25 623/46/25 624/45/25 622/43/25
f 623/46/24 625/48/24 626/47/24 624/45/24
f 625/48/23 611/50/23 612/49/23 626/47/23
f 465/71/116 467/3/42 634/4/42 633/72/42
f 461/28/113 465/74/116 633/73/1 628/27/1
f 464/75/2 468/78/2 630/77/2 627/76/2
f 463/79/130 464/75/130 627/76/17 631/80/17
f 637/81/136 183/81/48 184/82/48 638/82/137
f 643/33/22 645/36/22 646/35/22 644/34/22
f 645/36/21 647/38/21 648/37/21 646/35/21
f 647/38/20 649/40/20 650/39/20 648/37/20
f 649/40/19 651/42/19 652/41/19 650/39/19
f 651/42/26 653/44/26 654/43/26 652/41/26
f 653/44/25 655/46/25 656/45/25 654/43/25
f 655/46/24 657/48/24 658/47/24 656/45/24
f 657/48/23 643/50/23 644/49/23 658/47/23
f 659/33/22 661/36/22 662/35/22 660/34/22
f 661/36/21 663/38/21 664/37/21 662/35/21
f 663/38/20 665/40/20 666/39/20 664/37/20
f 665/40/19 667/42/19 668/41/19 666/39/19
f 667/42/26 669/44/26 670/43/26 668/41/26
f 669/44/25 671/46/25 672/45/25 670/43/25
f 671/46/24 673/48/24 674/47/24 672/45/24
f 673/48/23 659/50/23 660/49/23 674/47/23
f 635/83/138 220/83/51 222/84/51 636/84/139
f 639/85/52 219/85/52 220/86/52 635/86/52
f 641/87/42 221/87/42 219/85/42 639/85/42
f 636/88/53 222/88/53 218/89/53 640/89/53
f 640/89/14 218/89/14 217/90/14 642/90/14
f 638/91/54 184/91/54 221/87/54 641/87/54
f 642/90/55 217/90/55 183/92/55 637/92/55
f 228/93/14 678/96/14 677/95/140 225/94/56
f 676/97/141 675/100/142 677/99/142 678/98/143
f 224/101/51 677/103/140 675/102/51
f 225/104/56 677/105/140 224/101/51
f 232/106/48 227/101/48 679/107/144
f 678/108/143 681/110/17 680/109/17 679/107/144
f 228/111/14 235/112/14 681/110/14 678/108/14
f 679/107/42 680/109/42 236/113/42 232/106/42
f 678/98/143 679/97/144 676/97/141
f 679/97/144 227/101/48 676/97/141
f 597/11/111 598/12/110 599/24/133 600/14/145
f 601/55/146 597/11/111 600/14/145 603/70/147
f 642/90/132 637/92/136 636/88/139 640/89/132
f 635/83/138 636/88/139 637/81/136 638/82/137
f 641/87/147 639/85/147 635/83/138 638/91/137
f 631/1/43 684/2/43 688/3/43 634/4/43
f 632/5/44 683/6/148 687/7/149 629/8/44
f 828/9/150 829/10/151 818/11/152 819/12/153
f 826/13/154 821/14/154 824/15/154
f 682/16/155 686/17/156 830/18/157 829/19/158
f 689/20/14 687/21/149 831/22/159 827/23/14
f 820/24/160 827/25/160 825/26/160
f 628/27/45 682/28/161 683/29/161 632/30/45
f 630/31/14 629/8/14 687/7/149 689/32/14
f 690/33/23 691/34/23 693/35/23 692/36/23
f 692/36/24 693/35/24 695/37/24 694/38/24
f 694/38/25 695/37/25 697/39/25 696/40/25
f 696/40/26 697/39/26 699/41/26 698/42/26
f 698/42/19 699/41/19 701/43/19 700/44/19
f 700/44/20 701/43/20 703/45/20 702/46/20
f 702/46/21 703/45/21 705/47/21 704/48/21
f 704/48/22 705/47/22 691/49/22 690/50/22
f 706/33/23 707/34/23 709/35/23 708/36/23
f 708/36/24 709/35/24 711/37/24 710/38/24
f 710/38/25 711/37/25 713/39/25 712/40/25
f 712/40/26 713/39/26 715/41/26 714/42/26
f 714/42/19 715/41/19 717/43/19 716/44/19
f 716/44/20 717/43/20 719/45/20 718/46/20
f 718/46/21 719/45/21 721/47/21 720/48/21
f 720/48/22 721/47/22 707/49/22 706/50/22
f 722/33/23 723/34/23 725/35/23 724/36/23
f 724/36/24 725/35/24 727/37/24 726/38/24
f 726/38/25 727/37/25 729/39/25 728/40/25
f 728/40/26 729/39/26 731/41/26 730/42/26
f 730/42/19 731/41/19 733/43/19 732/44/19
f 732/44/20 733/43/20 735/45/20 734/46/20
f 734/46/21 735/45/21 737/47/21 736/48/21
f 736/48/22 737/47/22 723/49/22 722/50/22
f 738/33/23 739/34/23 741/35/23 740/36/23
f 740/36/24 741/35/24 743/37/24 742/38/24
f 742/38/25 743/37/25 745/39/25 744/40/25
f 744/40/26 745/39/26 747/41/26 746/42/26
f 746/42/19 747/41/19 749/43/19 748/44/19
f 748/44/20 749/43/20 751/45/20 750/46/20
f 750/46/21 751/45/21 753/47/21 752/48/21
f 752/48/22 753/47/22 739/49/22 738/50/22
f 754/33/23 755/34/23 757/35/23 756/36/23
f 756/36/24 757/35/24 759/37/24 758/38/24
f 758/38/25 759/37/25 761/39/25 760/40/25
f 760/40/26 761/39/26 763/41/26 762/42/26
f 762/42/19 763/41/19 765/43/19 764/44/19
f 764/44/20 765/43/20 767/45/20 766/46/20
f 766/46/21 767/45/21 769/47/21 768/48/21
f 768/48/22 769/47/22 755/49/22 754/50/22
f 770/33/23 771/34/23 773/35/23 772/36/23
f 772/36/24 773/35/24 775/37/24 774/38/24
f 774/38/25 775/37/25 777/39/25 776/40/25
f 776/40/26 777/39/26 779/41/26 778/42/26
f 778/42/19 779/41/19 781/43/19 780/44/19
f 780/44/20 781/43/20 783/45/20 782/46/20
f 782/46/21 783/45/21 785/47/21 784/48/21
f 784/48/22 785/47/22 771/49/22 770/50/22
f 786/33/23 787/34/23 789/35/23 788/36/23
f 788/36/24 789/35/24 791/37/24 790/38/24
f 790/38/25 791/37/25 793/39/25 792/40/25
f 792/40/26 793/39/26 795/41/26 794/42/26
f 794/42/19 795/41/19 797/43/19 796/44/19
f 796/44/20 797/43/20 799/45/20 798/46/20
f 798/46/21 799/45/21 801/47/21 800/48/21
f 800/48/22 801/47/22 787/49/22 786/50/22
f 802/33/23 803/34/23 805/35/23 804/36/23
f 804/36/24 805/35/24 807/37/24 806/38/24
f 806/38/25 807/37/25 809/39/25 808/40/25
f 808/40/26 809/39/26 811/41/26 810/42/26
f 810/42/19 811/41/19 813/43/19 812/44/19
f 812/44/20 813/43/20 815/45/20 814/46/20
f 814/46/21 815/45/21 817/47/21 816/48/21
f 816/48/22 817/47/22 803/49/22 802/50/22
f 685/51/162 689/52/162 827/25/162 820/24/162
f 829/53/163 830/54/157 822/55/164 818/56/165
f 827/23/14 831/22/159 823/57/166 825/58/14
f 831/59/159 828/9/167 819/12/168 823/57/166
f 688/60/169 684/61/169 821/14/169 826/13/169
f 683/62/161 682/63/161 829/64/170 828/65/170
f 684/61/171 685/51/171 820/24/172 821/14/172
f 825/26/173 823/57/174 819/12/153 820/24/175
f 687/21/149 683/62/148 828/65/176 831/66/159
f 830/67/157 686/17/156 688/68/42 826/69/42
f 822/55/164 830/67/157 826/69/42 824/70/42
f 832/33/23 833/34/23 835/35/23 834/36/23
f 834/36/24 835/35/24 837/37/24 836/38/24
f 836/38/25 837/37/25 839/39/25 838/40/25
f 838/40/26 839/39/26 841/41/26 840/42/26
f 840/42/19 841/41/19 843/43/19 842/44/19
f 842/44/20 843/43/20 845/45/20 844/46/20
f 844/46/21 845/45/21 847/47/21 846/48/21
f 846/48/22 847/47/22 833/49/22 832/50/22
f 686/71/156 633/72/42 634/4/42 688/3/42
f 682/28/155 628/27/1 633/73/1 686/74/156
f 685/75/2 627/76/2 630/77/2 689/78/2
f 684/79/171 631/80/17 627/76/17 685/75/171
f 850/81/177 851/82/178 412/82/51 411/81/51
f 856/33/23 857/34/23 859/35/23 858/36/23
f 858/36/24 859/35/24 861/37/24 860/38/24
f 860/38/25 861/37/25 863/39/25 862/40/25
f 862/40/26 863/39/26 865/41/26 864/42/26
f 864/42/19 865/41/19 867/43/19 866/44/19
f 866/44/20 867/43/20 869/45/20 868/46/20
f 868/46/21 869/45/21 871/47/21 870/48/21
f 870/48/22 871/47/22 857/49/22 856/50/22
f 872/33/23 873/34/23 875/35/23 874/36/23
f 874/36/24 875/35/24 877/37/24 876/38/24
f 876/38/25 877/37/25 879/39/25 878/40/25
f 878/40/26 879/39/26 881/41/26 880/42/26
f 880/42/19 881/41/19 883/43/19 882/44/19
f 882/44/20 883/43/20 885/45/20 884/46/20
f 884/46/21 885/45/21 887/47/21 886/48/21
f 886/48/22 887/47/22 873/49/22 872/50/22
f 848/83/179 849/84/180 450/84/48 448/83/48
f 852/85/54 848/86/54 448/86/54 447/85/54
f 854/87/42 852/85/42 447/85/42 449/87/42
f 849/88/55 853/89/55 446/89/55 450/88/55
f 853/89/14 855/90/14 445/90/14 446/89/14
f 851/91/52 854/87/52 449/87/52 412/91/52
f 855/90/53 850/92/53 411/92/53 445/90/53
f 456/93/14 453/94/100 890/95/181 891/96/14
f 889/97/182 891/98/183 890/99/184 888/100/142
f 452/101/48 888/102/48 890/103/181
f 453/104/100 452/101/48 890/105/181
f 460/106/51 892/107/185 455/101/51
f 891/108/183 892/107/185 680/109/17 681/110/17
f 456/111/14 891/108/14 681/110/14 235/112/14
f 892/107/42 460/106/42 236/113/42 680/109/42
f 891/98/183 889/97/182 892/97/185
f 892/97/185 889/97/182 455/101/51
f 818/11/152 821/14/186 820/24/175 819/12/153
f 822/55/187 824/70/188 821/14/186 818/11/152
f 855/90/173 853/89/173 849/88/180 850/92/177
f 848/83/179 851/82/178 850/81/177 849/88/180
f 854/87/188 851/91/178 848/83/179 852/85/188
