# Blender 4.4.3
# www.blender.org
o SM_Intersection_Road_V1.1
v -6.000000 0.000000 -6.000000
v -6.000000 0.100000 -6.000000
v -6.000000 -0.000000 6.000000
v -6.000000 0.100000 6.000000
v 6.000000 0.000000 -6.000000
v 6.000000 0.100000 -6.000000
v 6.000000 -0.000000 6.000000
v 6.000000 0.100000 6.000000
v -6.000000 0.000000 -20.000000
v -6.000000 0.100000 -20.000000
v 6.000000 0.100000 -20.000000
v 6.000000 0.000000 -20.000000
v -6.000000 0.100000 20.000000
v -6.000000 -0.000000 20.000000
v 6.000000 -0.000000 20.000000
v 6.000000 0.100000 20.000000
v -20.000000 -0.000000 6.000000
v -20.000000 0.000000 -6.000000
v -20.000000 0.100000 -6.000000
v -20.000000 0.100000 6.000000
v 20.000000 0.100000 6.000000
v 20.000000 -0.000000 6.000000
v 20.000000 0.000000 -6.000000
v 20.000000 0.100000 -6.000000
vn -0.0000 -0.0000 -1.0000
vn 1.0000 -0.0000 -0.0000
vn -0.0000 1.0000 -0.0000
vn -1.0000 -0.0000 -0.0000
vn -0.0000 -0.0000 1.0000
vt 0.584445 0.509645
vt 0.585564 0.509645
vt 0.585564 0.627497
vt 0.584445 0.627497
vt 0.449013 0.509645
vt 0.450132 0.509645
vt 0.450132 0.627497
vt 0.449013 0.627497
vt 0.584790 0.704494
vt 0.450477 0.704494
vt 0.450477 0.536060
vt 0.584790 0.536060
vt 0.585909 0.628254
vt 0.584790 0.628254
vt 0.584790 0.510402
vt 0.585909 0.510402
vt 0.387769 0.525469
vt 0.488911 0.525469
vt 0.488911 0.626611
vt 0.387769 0.626611
vt 0.450477 0.509560
vt 0.584790 0.509560
vt 0.450477 0.510402
vt 0.450477 0.704494
vt 0.450477 0.536060
vt 0.584790 0.536060
vt 0.450477 0.628254
vt 0.449358 0.628254
vt 0.449358 0.510402
vt 0.584445 0.628339
vt 0.450132 0.628339
vt 0.584445 0.703738
vt 0.450132 0.703738
vt 0.450132 0.535303
vt 0.584445 0.535303
vt 0.450477 0.509560
vt 0.584790 0.510402
vt 0.450477 0.510402
vt 0.450477 0.628254
vt 0.449358 0.510402
vt 0.585909 0.510402
s 0
f 2/1/1 1/2/1 18/3/1 19/4/1
f 7/5/2 8/6/2 16/7/2 15/8/2
f 6/9/3 8/10/3 21/11/3 24/12/3
f 1/13/4 2/14/4 10/15/4 9/16/4
f 8/17/3 6/18/3 2/19/3 4/20/3
f 12/21/1 9/22/1 10/15/1 11/23/1
f 2/9/3 6/24/3 11/25/3 10/26/3
f 6/27/2 5/28/2 12/29/2 11/23/2
f 14/30/5 15/31/5 16/7/5 13/4/5
f 8/32/3 4/33/3 13/34/3 16/35/3
f 4/1/4 3/2/4 14/3/4 13/4/4
f 18/30/4 17/31/4 20/7/4 19/4/4
f 4/32/3 2/33/3 19/34/3 20/35/3
f 3/5/5 4/6/5 20/7/5 17/8/5
f 22/36/2 23/22/2 24/37/2 21/38/2
f 8/39/5 7/28/5 22/40/5 21/38/5
f 5/13/1 6/14/1 24/37/1 23/41/1
