# Blender 4.4.3
# www.blender.org
o SM_StraightLarge_Road_V1.1
v -6.000000 0.000000 20.000000
v -6.000000 0.100000 20.000000
v -6.000000 -0.000000 40.000000
v -6.000000 0.100000 40.000000
v 6.000000 0.100000 20.000000
v 6.000000 -0.000000 40.000000
v 6.000000 0.100000 40.000000
v 6.000000 0.000000 0.000000
v 6.000000 -0.000000 20.000000
v -6.000000 0.000000 -20.000000
v -6.000000 0.100000 -20.000000
v -6.000000 -0.000000 0.000000
v -6.000000 0.100000 0.000000
v 6.000000 0.100000 -20.000000
v 6.000000 0.100000 0.000000
v -6.000000 0.000000 -40.000000
v -6.000000 0.100000 -40.000000
v 6.000000 0.000000 -40.000000
v 6.000000 0.100000 -40.000000
v 6.000000 -0.000000 -20.000000
vn -1.0000 -0.0000 -0.0000
vn -0.0000 -0.0000 1.0000
vn 1.0000 -0.0000 -0.0000
vn -0.0000 1.0000 -0.0000
vn -0.0000 -0.0000 -1.0000
vt 0.585305 0.441384
vt 0.585305 0.654734
vt 0.584196 0.654734
vt 0.584196 0.441384
vt 0.584196 0.655770
vt 0.451154 0.655770
vt 0.451154 0.654734
vt 0.450046 0.654734
vt 0.450046 0.441384
vt 0.451154 0.441384
vt 0.451154 0.440348
vt 0.584196 0.440348
s 0
f 1/1/1 3/2/1 4/3/1 2/4/1
f 3/5/2 6/6/2 7/7/2 4/3/2
f 6/8/3 9/9/3 5/10/3 7/7/3
f 7/7/4 5/10/4 2/4/4 4/3/4
f 12/1/1 1/2/1 2/3/1 13/4/1
f 9/8/3 8/9/3 15/10/3 5/7/3
f 5/7/4 15/10/4 13/4/4 2/3/4
f 10/1/1 12/2/1 13/3/1 11/4/1
f 8/8/3 20/9/3 14/10/3 15/7/3
f 15/7/4 14/10/4 11/4/4 13/3/4
f 16/1/1 10/2/1 11/3/1 17/4/1
f 20/8/3 18/9/3 19/10/3 14/7/3
f 18/11/5 16/12/5 17/4/5 19/10/5
f 14/7/4 19/10/4 17/4/4 11/3/4
