# Blender 4.4.3
# www.blender.org
o SM_StraightMedium_Road_V1.1
v -6.000000 0.000000 0.000000
v -6.000000 0.100000 0.000000
v -6.000000 -0.000000 20.000000
v -6.000000 0.100000 20.000000
v 6.000000 0.100000 0.000000
v 6.000000 -0.000000 20.000000
v 6.000000 0.100000 20.000000
v -6.000000 0.000000 -20.000000
v -6.000000 0.100000 -20.000000
v 6.000000 0.000000 -20.000000
v 6.000000 0.100000 -20.000000
v 6.000000 -0.000000 0.000000
vn -1.0000 -0.0000 -0.0000
vn -0.0000 -0.0000 1.0000
vn 1.0000 -0.0000 -0.0000
vn -0.0000 1.0000 -0.0000
vn -0.0000 -0.0000 -1.0000
vt 0.584956 0.437938
vt 0.584956 0.650960
vt 0.583852 0.650960
vt 0.583852 0.437938
vt 0.583852 0.651991
vt 0.451379 0.651991
vt 0.451379 0.650960
vt 0.450275 0.650960
vt 0.450275 0.437938
vt 0.451379 0.437938
vt 0.451379 0.436906
vt 0.583852 0.436906
s 0
f 1/1/1 3/2/1 4/3/1 2/4/1
f 3/5/2 6/6/2 7/7/2 4/3/2
f 6/8/3 12/9/3 5/10/3 7/7/3
f 7/7/4 5/10/4 2/4/4 4/3/4
f 8/1/1 1/2/1 2/3/1 9/4/1
f 12/8/3 10/9/3 11/10/3 5/7/3
f 10/11/5 8/12/5 9/4/5 11/10/5
f 5/7/4 11/10/4 9/4/4 2/3/4
