# Blender 4.4.3
# www.blender.org
o SM_Corner_Handrail_V1.0
v -0.019364 -0.020251 2.757000
v -0.009682 0.781502 2.773770
v 0.019365 -0.020251 2.757000
v 0.009682 0.781502 2.773770
v 0.038729 -0.020251 2.790540
v 0.019365 0.781502 2.790540
v 0.019365 -0.020251 2.824080
v 0.009682 0.781502 2.807310
v -0.019364 -0.020251 2.824080
v -0.009682 0.781502 2.807310
v -0.038729 -0.020251 2.790540
v -0.019364 0.781502 2.790540
v -0.019364 0.750690 2.895021
v -0.019364 0.750690 1.987983
v 0.019365 0.750690 2.895021
v 0.019365 0.750690 1.987983
v 0.038729 0.784230 2.895021
v 0.038729 0.784230 1.987983
v 0.019365 0.817770 2.895021
v 0.019365 0.817770 1.987983
v -0.019364 0.817770 2.895021
v -0.019364 0.817770 1.987983
v -0.038729 0.784230 2.895021
v -0.038729 0.784230 1.987983
v -0.019364 0.564230 3.071481
v 0.019365 0.564230 3.071481
v 0.038729 0.564230 3.105021
v -0.019364 0.564230 3.138561
v -0.038729 0.564230 3.105021
v 0.023359 0.657411 3.041382
v 0.021713 0.722491 2.979151
v 0.038729 0.747563 2.991687
v 0.038729 0.670897 3.068354
v -0.023358 0.684383 3.095326
v -0.021712 0.772635 3.004223
v -0.038729 0.747563 2.991687
v -0.038729 0.670897 3.068354
v -0.023358 0.657411 3.041382
v -0.021712 0.722491 2.979151
v 0.021713 0.772635 3.004223
v 0.023359 0.684383 3.095326
v 0.019365 0.564414 3.138561
v -0.019364 0.397954 2.885021
v 0.019365 0.397954 2.885021
v 0.038729 0.364414 2.885021
v 0.019365 0.330874 2.885021
v -0.019364 0.330874 2.885021
v -0.038729 0.364414 2.885021
v 0.023359 0.418053 2.978202
v 0.021713 0.480284 3.043283
v 0.038729 0.467748 3.068355
v 0.038729 0.391081 2.991688
v -0.023358 0.364108 3.005174
v -0.021712 0.455211 3.093426
v -0.038729 0.467748 3.068355
v -0.038729 0.391081 2.991688
v -0.023358 0.418053 2.978202
v -0.021712 0.480284 3.043283
v 0.021713 0.455211 3.093426
v 0.023359 0.364108 3.005174
v -0.019364 0.397954 1.986945
v 0.019365 0.397954 1.986945
v 0.038729 0.364414 1.986945
v 0.019365 0.330874 1.986945
v -0.019364 0.330874 1.986945
v -0.038729 0.364414 1.986945
v -0.019364 -0.009303 1.957000
v -0.009682 0.781502 1.973770
v 0.019365 -0.009303 1.957000
v 0.009682 0.781502 1.973770
v 0.038729 -0.009303 1.990540
v 0.019365 0.781502 1.990540
v 0.019365 -0.009303 2.024080
v 0.009682 0.781502 2.007310
v -0.019364 -0.009303 2.024080
v -0.009682 0.781502 2.007310
v -0.038729 -0.009303 1.990540
v -0.019364 0.781502 1.990540
v 0.023181 -0.001974 1.137360
v 0.032863 0.781502 1.154130
v 0.061910 -0.001974 1.137360
v 0.052227 0.781502 1.154130
v 0.081274 -0.001974 1.170900
v 0.061910 0.781502 1.170900
v 0.061910 -0.001974 1.204440
v 0.052227 0.781502 1.187670
v 0.023181 -0.001974 1.204440
v 0.032863 0.781502 1.187670
v 0.003816 -0.001974 1.170900
v 0.023181 0.781502 1.170900
v 0.098264 -0.007564 0.480769
v 0.107946 0.781502 0.497539
v 0.136993 -0.007564 0.480769
v 0.127311 0.781502 0.497539
v 0.156358 -0.007564 0.514309
v 0.136993 0.781502 0.514309
v 0.136993 -0.007564 0.547850
v 0.127311 0.781502 0.531079
v 0.098264 -0.007564 0.547850
v 0.107946 0.781502 0.531079
v 0.078900 -0.007564 0.514309
v 0.098264 0.781502 0.514309
v 0.186308 0.753514 0.186307
v 0.227386 0.367237 0.227385
v 0.213693 0.753514 0.213693
v 0.213693 0.400777 0.213693
v 0.172615 0.367237 0.172615
v 0.172615 0.785742 0.172615
v 0.213693 0.332386 0.213693
v 0.186308 0.819282 0.186307
v 0.213693 0.819282 0.213693
v 0.186308 0.332386 0.186307
v 0.227386 0.785742 0.227385
v 0.186308 0.399466 0.186307
v 2.580636 -0.020251 0.033596
v 2.590318 0.781502 0.016826
v 2.619365 -0.020251 0.033596
v 2.609683 0.781502 0.016826
v 2.638729 -0.020251 0.000056
v 2.619365 0.781502 0.000056
v 2.619365 -0.020251 -0.033484
v 2.609683 0.781502 -0.016714
v 2.580636 -0.020251 -0.033484
v 2.590318 0.781502 -0.016714
v 2.561272 -0.020251 0.000056
v 2.580636 0.781502 0.000056
v 2.719457 0.750690 -0.019293
v 1.812419 0.750690 -0.019293
v 2.719457 0.750690 0.019436
v 1.812419 0.750690 0.019436
v 2.719457 0.784230 0.038800
v 1.812419 0.784230 0.038800
v 2.719457 0.817770 0.019436
v 1.812419 0.817770 0.019436
v 2.719457 0.817770 -0.019293
v 1.812419 0.817770 -0.019293
v 2.719457 0.784230 -0.038657
v 1.812419 0.784230 -0.038657
v 2.895917 0.564230 -0.019293
v 2.895917 0.564230 0.019436
v 2.929457 0.564230 0.038800
v 2.962997 0.564230 -0.019293
v 2.929457 0.564230 -0.038657
v 2.865818 0.657411 0.023430
v 2.803588 0.722491 0.021784
v 2.816124 0.747563 0.038800
v 2.892791 0.670897 0.038800
v 2.919763 0.684383 -0.023287
v 2.828660 0.772635 -0.021641
v 2.816124 0.747563 -0.038657
v 2.892791 0.670897 -0.038657
v 2.865818 0.657411 -0.023287
v 2.803588 0.722491 -0.021641
v 2.828660 0.772635 0.021784
v 2.919763 0.684383 0.023430
v 2.962998 0.564414 0.019436
v 2.709458 0.397954 -0.019293
v 2.709458 0.397954 0.019436
v 2.709458 0.364414 0.038800
v 2.709458 0.330874 0.019436
v 2.709458 0.330874 -0.019293
v 2.709458 0.364414 -0.038657
v 2.802638 0.418053 0.023430
v 2.867719 0.480284 0.021784
v 2.892791 0.467748 0.038800
v 2.816124 0.391081 0.038800
v 2.829611 0.364108 -0.023287
v 2.917863 0.455211 -0.021641
v 2.892791 0.467748 -0.038657
v 2.816124 0.391081 -0.038657
v 2.802638 0.418053 -0.023287
v 2.867719 0.480284 -0.021641
v 2.917863 0.455211 0.021784
v 2.829611 0.364108 0.023430
v 1.811381 0.397954 -0.019293
v 1.811381 0.397954 0.019436
v 1.811381 0.364414 0.038800
v 1.811381 0.330874 0.019436
v 1.811381 0.330874 -0.019293
v 1.811381 0.364414 -0.038657
v 1.880636 -0.009303 0.034024
v 1.890318 0.781502 0.017254
v 1.919365 -0.009303 0.034024
v 1.909682 0.781502 0.017254
v 1.938729 -0.009303 0.000484
v 1.919365 0.781502 0.000484
v 1.919365 -0.009303 -0.033056
v 1.909682 0.781502 -0.016286
v 1.880636 -0.009303 -0.033056
v 1.890318 0.781502 -0.016286
v 1.861271 -0.009303 0.000484
v 1.880636 0.781502 0.000484
v 1.080636 -0.001974 0.076193
v 1.090318 0.781502 0.059423
v 1.119365 -0.001974 0.076193
v 1.109682 0.781502 0.059423
v 1.138729 -0.001974 0.042653
v 1.119365 0.781502 0.042653
v 1.119365 -0.001974 0.009112
v 1.109682 0.781502 0.025883
v 1.080636 -0.001974 0.009112
v 1.090318 0.781502 0.025883
v 1.061271 -0.001974 0.042653
v 1.080636 0.781502 0.042653
v 0.480636 -0.007564 0.153040
v 0.490318 0.781502 0.136270
v 0.519365 -0.007564 0.153040
v 0.509682 0.781502 0.136270
v 0.538729 -0.007564 0.119500
v 0.519365 0.781502 0.119500
v 0.519365 -0.007564 0.085960
v 0.509682 0.781502 0.102730
v 0.480636 -0.007564 0.085960
v 0.490318 0.781502 0.102730
v 0.461271 -0.007564 0.119500
v 0.480636 0.781502 0.119500
v 0.060599 0.753161 0.511517
v 0.089402 0.753161 0.535479
v 0.046197 0.785553 0.499536
v 0.060599 0.819093 0.511517
v 0.089402 0.819093 0.535479
v 0.103804 0.785553 0.547460
v 0.489571 0.753161 0.063653
v 0.513534 0.753161 0.092456
v 0.477590 0.785553 0.049251
v 0.489571 0.819093 0.063653
v 0.513534 0.819093 0.092456
v 0.525515 0.785553 0.106858
v 0.103804 0.366884 0.547330
v 0.060599 0.399277 0.511387
v 0.089402 0.400424 0.535349
v 0.046197 0.366884 0.499406
v 0.089402 0.332197 0.535349
v 0.060599 0.332197 0.511387
v 0.525385 0.366884 0.106858
v 0.489442 0.399277 0.063653
v 0.513404 0.400424 0.092456
v 0.477461 0.366884 0.049251
v 0.513404 0.332197 0.092456
v 0.489442 0.332197 0.063653
vn -0.0000 0.0209 -0.9998
vn 0.8658 0.0209 -0.4999
vn 0.8658 0.0209 0.4999
vn -0.0000 0.0209 0.9998
vn -0.8658 0.0209 0.4999
vn -0.8658 0.0209 -0.4999
vn -0.0000 -1.0000 -0.0000
vn 0.8660 -0.5000 -0.0000
vn 0.8660 0.5000 -0.0000
vn -0.0000 1.0000 -0.0000
vn -0.8660 0.5000 -0.0000
vn -0.8660 -0.5000 -0.0000
vn 0.8704 -0.1715 -0.4614
vn -0.8716 0.1492 0.4670
vn -0.0000 -0.3074 -0.9516
vn 0.8717 0.1492 0.4667
vn -0.8704 -0.1715 -0.4614
vn -0.0007 0.3388 0.9409
vn -0.0000 0.9242 0.3820
vn -0.0000 0.7183 0.6958
vn -0.8521 -0.4890 -0.1865
vn -0.8625 -0.3490 -0.3664
vn 0.8522 0.4895 0.1848
vn 0.8624 0.3652 0.3505
vn -0.0000 -0.9482 -0.3178
vn -0.0000 -0.6911 -0.7228
vn -0.8522 0.4895 0.1848
vn -0.8624 0.3652 0.3505
vn 0.8521 -0.4890 -0.1865
vn 0.8625 -0.3490 -0.3664
vn 0.8722 0.4721 -0.1279
vn -0.8724 -0.4762 0.1104
vn -0.0000 0.9775 -0.2108
vn 0.8724 -0.4762 0.1104
vn -0.8722 0.4721 -0.1279
vn -0.0000 -0.9638 0.2666
vn 0.0009 -0.3822 0.9241
vn -0.0000 -0.6958 0.7183
vn -0.8521 0.1869 -0.4889
vn -0.8625 0.3664 -0.3490
vn 0.8520 -0.1851 0.4898
vn 0.8624 -0.3505 0.3652
vn -0.0000 0.3184 -0.9480
vn -0.0000 0.7228 -0.6911
vn -0.8522 -0.1851 0.4894
vn -0.8624 -0.3505 0.3652
vn 0.8521 0.1869 -0.4889
vn 0.8625 0.3664 -0.3490
vn -0.0000 0.0212 -0.9998
vn 0.8658 0.0212 -0.4999
vn 0.8658 0.0212 0.4999
vn -0.0000 0.0212 0.9998
vn -0.8658 0.0212 0.4999
vn -0.8658 0.0212 -0.4999
vn -0.0000 0.0214 -0.9998
vn 0.8658 0.0214 -0.4999
vn 0.8658 0.0214 0.4999
vn -0.0000 0.0214 0.9998
vn -0.8658 0.0214 0.4999
vn -0.8658 0.0214 -0.4999
vn 0.8246 0.4674 0.3187
vn -0.0004 1.0000 0.0004
vn 0.0004 -1.0000 -0.0004
vn -0.8247 0.4673 -0.3186
vn -0.8307 -0.4544 -0.3217
vn -0.8178 0.4810 -0.3159
vn -0.0329 0.9994 -0.0119
vn 0.8180 -0.4810 0.3155
vn 0.8312 -0.4542 0.3207
vn 0.8245 0.4674 0.3190
vn -0.8175 -0.4812 -0.3165
vn 0.0007 -1.0000 -0.0008
vn -0.0000 -0.5000 0.8660
vn -0.0000 0.5000 0.8660
vn -0.0000 0.5000 -0.8660
vn -0.0000 -0.5000 -0.8660
vn -0.4614 -0.1715 0.8704
vn 0.4670 0.1492 -0.8716
vn -0.9516 -0.3074 -0.0000
vn 0.4667 0.1492 0.8718
vn -0.4614 -0.1715 -0.8704
vn 0.9409 0.3388 -0.0007
vn 0.3820 0.9242 -0.0000
vn 0.6958 0.7183 -0.0000
vn -0.1865 -0.4890 -0.8521
vn -0.3664 -0.3490 -0.8625
vn 0.1848 0.4895 0.8522
vn 0.3505 0.3652 0.8624
vn -0.3178 -0.9482 -0.0000
vn -0.7228 -0.6911 -0.0000
vn 0.1848 0.4895 -0.8522
vn 0.3505 0.3652 -0.8624
vn -0.1865 -0.4890 0.8521
vn -0.3664 -0.3490 0.8625
vn -0.1279 0.4721 0.8722
vn 0.1104 -0.4762 -0.8724
vn -0.2108 0.9775 -0.0000
vn 0.1104 -0.4762 0.8724
vn -0.1279 0.4721 -0.8722
vn 0.2666 -0.9638 -0.0000
vn 0.9241 -0.3822 0.0009
vn 0.7183 -0.6958 -0.0000
vn -0.4889 0.1869 -0.8521
vn -0.3490 0.3664 -0.8625
vn 0.4898 -0.1851 0.8520
vn 0.3652 -0.3505 0.8624
vn -0.9480 0.3184 -0.0000
vn -0.6911 0.7228 -0.0000
vn 0.4894 -0.1851 -0.8522
vn 0.3652 -0.3505 -0.8624
vn -0.4889 0.1869 0.8521
vn -0.3490 0.3664 0.8625
vn 0.3312 0.4695 0.8184
vn 0.0005 1.0000 -0.0004
vn -0.0005 -1.0000 0.0004
vn -0.3308 0.4695 -0.8186
vn -0.3341 -0.4565 -0.8246
vn -0.3280 0.4832 -0.8117
vn -0.0123 0.9994 -0.0325
vn 0.3278 -0.4832 0.8118
vn 0.3333 -0.4564 0.8250
vn 0.3315 0.4696 0.8183
vn -0.3286 -0.4833 -0.8114
vn -0.0009 -1.0000 0.0008
vn 0.0006 -1.0000 -0.0017
vn -0.8853 -0.4624 -0.0498
vn 0.8863 -0.4613 0.0408
vn -0.8886 0.4561 -0.0490
vn -0.0003 1.0000 0.0009
vn 0.8894 0.4552 0.0420
vn -0.0018 -1.0000 0.0007
vn -0.0575 -0.4633 -0.8843
vn 0.0476 -0.4622 0.8855
vn -0.0566 0.4569 -0.8877
vn 0.0010 1.0000 -0.0004
vn 0.0489 0.4560 0.8886
vn 0.8894 0.4552 0.0423
vn 0.8926 -0.4490 0.0411
vn -0.0171 0.9999 0.0004
vn -0.8854 0.4623 -0.0487
vn -0.8916 -0.4501 -0.0502
vn 0.0003 -1.0000 -0.0009
vn 0.0494 0.4561 0.8886
vn 0.0480 -0.4498 0.8918
vn 0.0004 0.9999 -0.0171
vn -0.0562 0.4632 -0.8845
vn -0.0579 -0.4510 -0.8907
vn -0.0010 -1.0000 0.0004
vt 0.977440 0.611782
vt 0.977440 0.684827
vt 0.965238 0.684827
vt 0.965238 0.611782
vt 0.953036 0.684827
vt 0.953036 0.611782
vt 0.940834 0.684827
vt 0.940834 0.611782
vt 0.928632 0.684827
vt 0.928632 0.611782
vt 0.916430 0.684827
vt 0.916430 0.611782
vt 0.904228 0.684827
vt 0.904228 0.611782
vt 0.908723 0.665069
vt 0.981220 0.665069
vt 0.981220 0.669373
vt 0.908723 0.669373
vt 0.981220 0.673677
vt 0.908723 0.673677
vt 0.897025 0.653100
vt 0.894869 0.654830
vt 0.891938 0.641143
vt 0.894619 0.641143
vt 0.892713 0.656561
vt 0.889258 0.641143
vt 0.889258 0.641167
vt 0.899995 0.667885
vt 0.901999 0.661451
vt 0.900997 0.664668
vt 0.902075 0.622386
vt 0.900997 0.618925
vt 0.909522 0.615503
vt 0.909522 0.619807
vt 0.899919 0.615464
vt 0.909522 0.611199
vt 0.892865 0.627154
vt 0.896873 0.630371
vt 0.894869 0.628763
vt 0.981303 0.611199
vt 0.981303 0.615503
vt 0.981303 0.619807
vt 0.937433 0.672630
vt 0.937070 0.668502
vt 0.943726 0.668483
vt 0.944089 0.672611
vt 0.932166 0.612695
vt 0.932166 0.612695
vt 0.938820 0.612692
vt 0.937070 0.668502
vt 0.932542 0.616969
vt 0.939197 0.616986
vt 0.932892 0.620950
vt 0.939546 0.620947
vt 0.932905 0.621097
vt 0.939560 0.621114
vt 0.936730 0.664634
vt 0.943389 0.664651
vt 0.932542 0.616969
vt 0.936730 0.664634
vt 0.937070 0.668502
vt 0.932166 0.612695
vt 0.932905 0.621097
vt 0.932542 0.616969
vt 0.936730 0.664634
vt 0.890116 0.664510
vt 0.890478 0.668638
vt 0.890842 0.672765
vt 0.886315 0.620973
vt 0.885952 0.616845
vt 0.885589 0.612717
s 0
f 1/1/1 2/2/1 4/3/1 3/4/1
f 3/4/2 4/3/2 6/5/2 5/6/2
f 5/6/3 6/5/3 8/7/3 7/8/3
f 7/8/4 8/7/4 10/9/4 9/10/4
f 9/10/5 10/9/5 12/11/5 11/12/5
f 11/12/6 12/11/6 2/13/6 1/14/6
f 13/15/7 14/16/7 16/16/7 15/15/7
f 15/15/8 16/16/8 18/17/8 17/18/8
f 17/18/9 18/17/9 20/19/9 19/20/9
f 19/20/10 20/19/10 22/19/10 21/20/10
f 21/20/11 22/19/11 24/17/11 23/18/11
f 23/18/12 24/17/12 14/16/12 13/15/12
f 30/21/13 33/22/13 27/23/13 26/24/13
f 34/25/14 37/22/14 29/23/14 28/26/14
f 38/21/15 30/21/15 26/24/15 25/24/15
f 33/22/16 41/25/16 42/27/16 27/23/16
f 37/22/17 38/21/17 25/24/17 29/23/17
f 41/25/18 34/25/18 28/26/18 42/27/18
f 19/20/19 21/20/19 35/28/19 40/28/19
f 40/28/20 35/28/20 34/25/20 41/25/20
f 23/18/21 13/15/21 39/29/21 36/30/21
f 36/30/22 39/29/22 38/21/22 37/22/22
f 17/18/23 19/20/23 40/28/23 32/30/23
f 32/30/24 40/28/24 41/25/24 33/22/24
f 13/15/25 15/15/25 31/29/25 39/29/25
f 39/29/26 31/29/26 30/21/26 38/21/26
f 21/20/27 23/18/27 36/30/27 35/28/27
f 35/28/28 36/30/28 37/22/28 34/25/28
f 15/15/29 17/18/29 32/30/29 31/29/29
f 31/29/30 32/30/30 33/22/30 30/21/30
f 49/31/31 52/32/31 45/33/31 44/34/31
f 53/35/32 56/32/32 48/33/32 47/36/32
f 57/31/33 49/31/33 44/34/33 43/34/33
f 52/32/34 60/35/34 46/36/34 45/33/34
f 56/32/35 57/31/35 43/34/35 48/33/35
f 60/35/36 53/35/36 47/36/36 46/36/36
f 42/27/37 28/26/37 54/37/37 59/37/37
f 59/37/38 54/37/38 53/35/38 60/35/38
f 29/23/39 25/24/39 58/38/39 55/39/39
f 55/39/40 58/38/40 57/31/40 56/32/40
f 27/23/41 42/27/41 59/37/41 51/39/41
f 51/39/42 59/37/42 60/35/42 52/32/42
f 25/24/43 26/24/43 50/38/43 58/38/43
f 58/38/44 50/38/44 49/31/44 57/31/44
f 28/26/45 29/23/45 55/39/45 54/37/45
f 54/37/46 55/39/46 56/32/46 53/35/46
f 26/24/47 27/23/47 51/39/47 50/38/47
f 50/38/48 51/39/48 52/32/48 49/31/48
f 45/33/8 46/36/8 64/40/8 63/41/8
f 43/34/10 44/34/10 62/42/10 61/42/10
f 48/33/11 43/34/11 61/42/11 66/41/11
f 46/36/7 47/36/7 65/40/7 64/40/7
f 44/34/9 45/33/9 63/41/9 62/42/9
f 47/36/12 48/33/12 66/41/12 65/40/12
f 67/1/49 68/2/49 70/3/49 69/4/49
f 69/4/50 70/3/50 72/5/50 71/6/50
f 71/6/51 72/5/51 74/7/51 73/8/51
f 73/8/52 74/7/52 76/9/52 75/10/52
f 75/10/53 76/9/53 78/11/53 77/12/53
f 77/12/54 78/11/54 68/13/54 67/14/54
f 79/1/55 80/2/55 82/3/55 81/4/55
f 81/4/56 82/3/56 84/5/56 83/6/56
f 83/6/57 84/5/57 86/7/57 85/8/57
f 85/8/58 86/7/58 88/9/58 87/10/58
f 87/10/59 88/9/59 90/11/59 89/12/59
f 89/12/60 90/11/60 80/13/60 79/14/60
f 91/1/49 92/2/49 94/3/49 93/4/49
f 93/4/50 94/3/50 96/5/50 95/6/50
f 95/6/51 96/5/51 98/7/51 97/8/51
f 97/8/52 98/7/52 100/9/52 99/10/52
f 99/10/53 100/9/53 102/11/53 101/12/53
f 101/12/54 102/11/54 92/13/54 91/14/54
f 221/43/61 222/44/61 113/45/61 111/46/61
f 220/43/62 221/43/62 111/46/62 110/46/62
f 233/47/63 234/48/63 112/49/63 109/49/63
f 219/50/64 220/43/64 110/46/64 108/45/64
f 234/48/65 232/51/65 107/52/65 112/49/65
f 232/51/66 230/53/66 114/54/66 107/52/66
f 230/53/67 231/55/67 106/56/67 114/54/67
f 222/44/68 218/57/68 105/58/68 113/45/68
f 229/59/69 233/47/69 109/49/69 104/52/69
f 231/55/70 229/59/70 104/52/70 106/56/70
f 217/60/71 219/50/71 108/45/71 103/58/71
f 218/57/72 217/60/72 103/58/72 105/58/72
f 115/1/4 117/4/4 118/3/4 116/2/4
f 117/4/3 119/6/3 120/5/3 118/3/3
f 119/6/2 121/8/2 122/7/2 120/5/2
f 121/8/1 123/10/1 124/9/1 122/7/1
f 123/10/6 125/12/6 126/11/6 124/9/6
f 125/12/5 115/14/5 116/13/5 126/11/5
f 127/15/7 129/15/7 130/16/7 128/16/7
f 129/15/73 131/18/73 132/17/73 130/16/73
f 131/18/74 133/20/74 134/19/74 132/17/74
f 133/20/10 135/20/10 136/19/10 134/19/10
f 135/20/75 137/18/75 138/17/75 136/19/75
f 137/18/76 127/15/76 128/16/76 138/17/76
f 144/21/77 140/24/77 141/23/77 147/22/77
f 148/25/78 142/26/78 143/23/78 151/22/78
f 152/21/79 139/24/79 140/24/79 144/21/79
f 147/22/80 141/23/80 156/27/80 155/25/80
f 151/22/81 143/23/81 139/24/81 152/21/81
f 155/25/82 156/27/82 142/26/82 148/25/82
f 133/20/83 154/28/83 149/28/83 135/20/83
f 154/28/84 155/25/84 148/25/84 149/28/84
f 137/18/85 150/30/85 153/29/85 127/15/85
f 150/30/86 151/22/86 152/21/86 153/29/86
f 131/18/87 146/30/87 154/28/87 133/20/87
f 146/30/88 147/22/88 155/25/88 154/28/88
f 127/15/89 153/29/89 145/29/89 129/15/89
f 153/29/90 152/21/90 144/21/90 145/29/90
f 135/20/91 149/28/91 150/30/91 137/18/91
f 149/28/92 148/25/92 151/22/92 150/30/92
f 129/15/93 145/29/93 146/30/93 131/18/93
f 145/29/94 144/21/94 147/22/94 146/30/94
f 163/31/95 158/34/95 159/33/95 166/32/95
f 167/35/96 161/36/96 162/33/96 170/32/96
f 171/31/97 157/34/97 158/34/97 163/31/97
f 166/32/98 159/33/98 160/36/98 174/35/98
f 170/32/99 162/33/99 157/34/99 171/31/99
f 174/35/100 160/36/100 161/36/100 167/35/100
f 156/27/101 173/37/101 168/37/101 142/26/101
f 173/37/102 174/35/102 167/35/102 168/37/102
f 143/23/103 169/39/103 172/38/103 139/24/103
f 169/39/104 170/32/104 171/31/104 172/38/104
f 141/23/105 165/39/105 173/37/105 156/27/105
f 165/39/106 166/32/106 174/35/106 173/37/106
f 139/24/107 172/38/107 164/38/107 140/24/107
f 172/38/108 171/31/108 163/31/108 164/38/108
f 142/26/109 168/37/109 169/39/109 143/23/109
f 168/37/110 167/35/110 170/32/110 169/39/110
f 140/24/111 164/38/111 165/39/111 141/23/111
f 164/38/112 163/31/112 166/32/112 165/39/112
f 159/33/73 177/41/73 178/40/73 160/36/73
f 157/34/10 175/42/10 176/42/10 158/34/10
f 162/33/75 180/41/75 175/42/75 157/34/75
f 160/36/7 178/40/7 179/40/7 161/36/7
f 158/34/74 176/42/74 177/41/74 159/33/74
f 161/36/76 179/40/76 180/41/76 162/33/76
f 181/1/52 183/4/52 184/3/52 182/2/52
f 183/4/51 185/6/51 186/5/51 184/3/51
f 185/6/50 187/8/50 188/7/50 186/5/50
f 187/8/49 189/10/49 190/9/49 188/7/49
f 189/10/54 191/12/54 192/11/54 190/9/54
f 191/12/53 181/14/53 182/13/53 192/11/53
f 193/1/58 195/4/58 196/3/58 194/2/58
f 195/4/57 197/6/57 198/5/57 196/3/57
f 197/6/56 199/8/56 200/7/56 198/5/56
f 199/8/55 201/10/55 202/9/55 200/7/55
f 201/10/60 203/12/60 204/11/60 202/9/60
f 203/12/59 193/14/59 194/13/59 204/11/59
f 205/1/52 207/4/52 208/3/52 206/2/52
f 207/4/51 209/6/51 210/5/51 208/3/51
f 209/6/50 211/8/50 212/7/50 210/5/50
f 211/8/49 213/10/49 214/9/49 212/7/49
f 213/10/54 215/12/54 216/11/54 214/9/54
f 215/12/53 205/14/53 206/13/53 216/11/53
f 227/43/113 111/46/113 113/45/113 228/61/113
f 226/43/114 110/46/114 111/46/114 227/43/114
f 239/62/115 109/49/115 112/49/115 240/48/115
f 225/44/116 108/45/116 110/46/116 226/43/116
f 240/48/117 112/49/117 107/52/117 238/51/117
f 238/51/118 107/52/118 114/54/118 236/53/118
f 236/53/119 114/54/119 106/56/119 237/63/119
f 228/61/120 113/45/120 105/58/120 224/60/120
f 235/64/121 104/52/121 109/49/121 239/62/121
f 237/63/122 106/56/122 104/52/122 235/64/122
f 223/65/123 103/58/123 108/45/123 225/44/123
f 224/60/124 105/58/124 103/58/124 223/65/124
f 16/66/125 14/66/125 217/60/125 218/57/125
f 14/66/126 24/67/126 219/50/126 217/60/126
f 18/67/127 16/66/127 218/57/127 222/44/127
f 24/67/128 22/68/128 220/43/128 219/50/128
f 22/68/129 20/68/129 221/43/129 220/43/129
f 20/68/130 18/67/130 222/44/130 221/43/130
f 130/66/131 224/60/131 223/65/131 128/66/131
f 128/66/132 223/65/132 225/44/132 138/67/132
f 132/67/133 228/61/133 224/60/133 130/66/133
f 138/67/134 225/44/134 226/43/134 136/68/134
f 136/68/135 226/43/135 227/43/135 134/68/135
f 134/68/136 227/43/136 228/61/136 132/67/136
f 62/69/137 63/70/137 229/59/137 231/55/137
f 63/70/138 64/71/138 233/47/138 229/59/138
f 61/69/139 62/69/139 231/55/139 230/53/139
f 66/70/140 61/69/140 230/53/140 232/51/140
f 65/71/141 66/70/141 232/51/141 234/48/141
f 64/71/142 65/71/142 234/48/142 233/47/142
f 176/69/143 237/63/143 235/64/143 177/70/143
f 177/70/144 235/64/144 239/62/144 178/71/144
f 175/69/145 236/53/145 237/63/145 176/69/145
f 180/70/146 238/51/146 236/53/146 175/69/146
f 179/71/147 240/48/147 238/51/147 180/70/147
f 178/71/148 239/62/148 240/48/148 179/71/148
