# Blender 4.4.3
# www.blender.org
o SM_CornerFiller_Handrail_V1.0
v -0.019364 -0.020251 2.757000
v -0.009682 0.781502 2.773770
v 0.019365 -0.020251 2.757000
v 0.009682 0.781502 2.773770
v 0.038729 -0.020251 2.790540
v 0.019365 0.781502 2.790540
v 0.019365 -0.020251 2.824080
v 0.009682 0.781502 2.807310
v -0.019364 -0.020251 2.824080
v -0.009682 0.781502 2.807310
v -0.038729 -0.020251 2.790540
v -0.019364 0.781502 2.790540
v -0.019364 0.750690 3.006978
v -0.019364 0.750690 1.987983
v 0.019365 0.750690 3.006978
v 0.019365 0.750690 1.987983
v 0.038729 0.784230 3.006978
v 0.038729 0.784230 1.987983
v 0.019365 0.817770 3.006978
v 0.019365 0.817770 1.987983
v -0.019364 0.817770 3.006978
v -0.019364 0.817770 1.987983
v -0.038729 0.784230 3.006978
v -0.038729 0.784230 1.987983
v -0.019364 0.397954 2.996979
v 0.019365 0.397954 2.996979
v 0.038729 0.364414 2.996979
v 0.019365 0.330874 2.996979
v -0.019364 0.330874 2.996979
v -0.038729 0.364414 2.996979
v -0.019364 0.397954 1.986945
v 0.019365 0.397954 1.986945
v 0.038729 0.364414 1.986945
v 0.019365 0.330874 1.986945
v -0.019364 0.330874 1.986945
v -0.038729 0.364414 1.986945
v -0.019364 -0.009303 1.957000
v -0.009682 0.781502 1.973770
v 0.019365 -0.009303 1.957000
v 0.009682 0.781502 1.973770
v 0.038729 -0.009303 1.990540
v 0.019365 0.781502 1.990540
v 0.019365 -0.009303 2.024080
v 0.009682 0.781502 2.007310
v -0.019364 -0.009303 2.024080
v -0.009682 0.781502 2.007310
v -0.038729 -0.009303 1.990540
v -0.019364 0.781502 1.990540
v 0.023181 -0.001974 1.137360
v 0.032863 0.781502 1.154130
v 0.061910 -0.001974 1.137360
v 0.052227 0.781502 1.154130
v 0.081274 -0.001974 1.170900
v 0.061910 0.781502 1.170900
v 0.061910 -0.001974 1.204440
v 0.052227 0.781502 1.187670
v 0.023181 -0.001974 1.204440
v 0.032863 0.781502 1.187670
v 0.003816 -0.001974 1.170900
v 0.023181 0.781502 1.170900
v 0.098264 -0.007564 0.480769
v 0.107946 0.781502 0.497539
v 0.136993 -0.007564 0.480769
v 0.127311 0.781502 0.497539
v 0.156358 -0.007564 0.514309
v 0.136993 0.781502 0.514309
v 0.136993 -0.007564 0.547850
v 0.127311 0.781502 0.531079
v 0.098264 -0.007564 0.547850
v 0.107946 0.781502 0.531079
v 0.078900 -0.007564 0.514309
v 0.098264 0.781502 0.514309
v 0.186308 0.753514 0.186307
v 0.227386 0.367237 0.227385
v 0.213693 0.753514 0.213693
v 0.213693 0.400777 0.213693
v 0.172615 0.367237 0.172615
v 0.172615 0.785742 0.172615
v 0.213693 0.332386 0.213693
v 0.186308 0.819282 0.186307
v 0.213693 0.819282 0.213693
v 0.186308 0.332386 0.186307
v 0.227386 0.785742 0.227385
v 0.186308 0.399466 0.186307
v 2.580636 -0.020251 0.033596
v 2.590318 0.781502 0.016826
v 2.619365 -0.020251 0.033596
v 2.609683 0.781502 0.016826
v 2.638729 -0.020251 0.000056
v 2.619365 0.781502 0.000056
v 2.619365 -0.020251 -0.033484
v 2.609683 0.781502 -0.016714
v 2.580636 -0.020251 -0.033484
v 2.590318 0.781502 -0.016714
v 2.561272 -0.020251 0.000056
v 2.580636 0.781502 0.000056
v 2.996058 0.750690 -0.019293
v 1.812419 0.750690 -0.019293
v 2.996058 0.750690 0.019436
v 1.812419 0.750690 0.019436
v 2.996058 0.784230 0.038800
v 1.812419 0.784230 0.038800
v 2.996058 0.817770 0.019436
v 1.812419 0.817770 0.019436
v 2.996058 0.817770 -0.019293
v 1.812419 0.817770 -0.019293
v 2.996058 0.784230 -0.038657
v 1.812419 0.784230 -0.038657
v 2.986059 0.397954 -0.019293
v 2.986059 0.397954 0.019436
v 2.986059 0.364414 0.038800
v 2.986059 0.330874 0.019436
v 2.986059 0.330874 -0.019293
v 2.986059 0.364414 -0.038657
v 1.811381 0.397954 -0.019293
v 1.811381 0.397954 0.019436
v 1.811381 0.364414 0.038800
v 1.811381 0.330874 0.019436
v 1.811381 0.330874 -0.019293
v 1.811381 0.364414 -0.038657
v 1.880636 -0.009303 0.034024
v 1.890318 0.781502 0.017254
v 1.919365 -0.009303 0.034024
v 1.909682 0.781502 0.017254
v 1.938729 -0.009303 0.000484
v 1.919365 0.781502 0.000484
v 1.919365 -0.009303 -0.033056
v 1.909682 0.781502 -0.016286
v 1.880636 -0.009303 -0.033056
v 1.890318 0.781502 -0.016286
v 1.861271 -0.009303 0.000484
v 1.880636 0.781502 0.000484
v 1.080636 -0.001974 0.076193
v 1.090318 0.781502 0.059423
v 1.119365 -0.001974 0.076193
v 1.109682 0.781502 0.059423
v 1.138729 -0.001974 0.042653
v 1.119365 0.781502 0.042653
v 1.119365 -0.001974 0.009112
v 1.109682 0.781502 0.025883
v 1.080636 -0.001974 0.009112
v 1.090318 0.781502 0.025883
v 1.061271 -0.001974 0.042653
v 1.080636 0.781502 0.042653
v 0.480636 -0.007564 0.153040
v 0.490318 0.781502 0.136270
v 0.519365 -0.007564 0.153040
v 0.509682 0.781502 0.136270
v 0.538729 -0.007564 0.119500
v 0.519365 0.781502 0.119500
v 0.519365 -0.007564 0.085960
v 0.509682 0.781502 0.102730
v 0.480636 -0.007564 0.085960
v 0.490318 0.781502 0.102730
v 0.461271 -0.007564 0.119500
v 0.480636 0.781502 0.119500
v 0.060599 0.753161 0.511517
v 0.089402 0.753161 0.535479
v 0.046197 0.785553 0.499536
v 0.060599 0.819093 0.511517
v 0.089402 0.819093 0.535479
v 0.103804 0.785553 0.547460
v 0.489571 0.753161 0.063653
v 0.513534 0.753161 0.092456
v 0.477590 0.785553 0.049251
v 0.489571 0.819093 0.063653
v 0.513534 0.819093 0.092456
v 0.525515 0.785553 0.106858
v 0.103804 0.366884 0.547330
v 0.060599 0.399277 0.511387
v 0.089402 0.400424 0.535349
v 0.046197 0.366884 0.499406
v 0.089402 0.332197 0.535349
v 0.060599 0.332197 0.511387
v 0.525385 0.366884 0.106858
v 0.489442 0.399277 0.063653
v 0.513404 0.400424 0.092456
v 0.477461 0.366884 0.049251
v 0.513404 0.332197 0.092456
v 0.489442 0.332197 0.063653
vn -0.0000 0.0209 -0.9998
vn 0.8658 0.0209 -0.4999
vn 0.8658 0.0209 0.4999
vn -0.0000 0.0209 0.9998
vn -0.8658 0.0209 0.4999
vn -0.8658 0.0209 -0.4999
vn -0.0000 -1.0000 -0.0000
vn 0.8660 -0.5000 -0.0000
vn 0.8660 0.5000 -0.0000
vn -0.0000 1.0000 -0.0000
vn -0.8660 0.5000 -0.0000
vn -0.8660 -0.5000 -0.0000
vn -0.0000 0.0212 -0.9998
vn 0.8658 0.0212 -0.4999
vn 0.8658 0.0212 0.4999
vn -0.0000 0.0212 0.9998
vn -0.8658 0.0212 0.4999
vn -0.8658 0.0212 -0.4999
vn -0.0000 0.0214 -0.9998
vn 0.8658 0.0214 -0.4999
vn 0.8658 0.0214 0.4999
vn -0.0000 0.0214 0.9998
vn -0.8658 0.0214 0.4999
vn -0.8658 0.0214 -0.4999
vn 0.8246 0.4674 0.3187
vn -0.0004 1.0000 0.0004
vn 0.0004 -1.0000 -0.0004
vn -0.8247 0.4673 -0.3186
vn -0.8307 -0.4544 -0.3217
vn -0.8178 0.4810 -0.3159
vn -0.0329 0.9994 -0.0119
vn 0.8180 -0.4810 0.3155
vn 0.8312 -0.4542 0.3207
vn 0.8245 0.4674 0.3190
vn -0.8175 -0.4812 -0.3165
vn 0.0007 -1.0000 -0.0008
vn -0.0000 -0.5000 0.8660
vn -0.0000 0.5000 0.8660
vn -0.0000 0.5000 -0.8660
vn -0.0000 -0.5000 -0.8660
vn 0.3312 0.4695 0.8184
vn 0.0005 1.0000 -0.0004
vn -0.0005 -1.0000 0.0004
vn -0.3308 0.4695 -0.8186
vn -0.3341 -0.4565 -0.8246
vn -0.3280 0.4832 -0.8117
vn -0.0123 0.9994 -0.0325
vn 0.3278 -0.4832 0.8118
vn 0.3333 -0.4564 0.8250
vn 0.3315 0.4696 0.8183
vn -0.3286 -0.4833 -0.8114
vn -0.0009 -1.0000 0.0008
vn 0.0006 -1.0000 -0.0017
vn -0.8853 -0.4624 -0.0498
vn 0.8863 -0.4613 0.0408
vn -0.8886 0.4561 -0.0490
vn -0.0003 1.0000 0.0009
vn 0.8894 0.4552 0.0420
vn -0.0018 -1.0000 0.0007
vn -0.0575 -0.4633 -0.8843
vn 0.0476 -0.4622 0.8855
vn -0.0566 0.4569 -0.8877
vn 0.0010 1.0000 -0.0004
vn 0.0489 0.4560 0.8886
vn 0.8894 0.4552 0.0423
vn 0.8926 -0.4490 0.0411
vn -0.0171 0.9999 0.0004
vn -0.8854 0.4623 -0.0487
vn -0.8916 -0.4501 -0.0502
vn 0.0003 -1.0000 -0.0009
vn 0.0494 0.4561 0.8886
vn 0.0480 -0.4498 0.8918
vn 0.0004 0.9999 -0.0171
vn -0.0562 0.4632 -0.8845
vn -0.0579 -0.4510 -0.8907
vn -0.0010 -1.0000 0.0004
vt 0.977440 0.611782
vt 0.977440 0.684827
vt 0.965238 0.684827
vt 0.965238 0.611782
vt 0.953036 0.684827
vt 0.953036 0.611782
vt 0.940834 0.684827
vt 0.940834 0.611782
vt 0.928632 0.684827
vt 0.928632 0.611782
vt 0.916430 0.684827
vt 0.916430 0.611782
vt 0.904228 0.684827
vt 0.904228 0.611782
vt 0.908723 0.665069
vt 0.981220 0.665069
vt 0.981220 0.669373
vt 0.908723 0.669373
vt 0.981220 0.673677
vt 0.908723 0.673677
vt 0.909522 0.615503
vt 0.909522 0.611199
vt 0.981303 0.611199
vt 0.981303 0.615503
vt 0.909522 0.619807
vt 0.981303 0.619807
vt 0.937433 0.672630
vt 0.937070 0.668502
vt 0.943726 0.668483
vt 0.944089 0.672611
vt 0.932166 0.612695
vt 0.932166 0.612695
vt 0.938820 0.612692
vt 0.937070 0.668502
vt 0.932542 0.616969
vt 0.939197 0.616986
vt 0.932892 0.620950
vt 0.939546 0.620947
vt 0.932905 0.621097
vt 0.939560 0.621114
vt 0.936730 0.664634
vt 0.943389 0.664651
vt 0.932542 0.616969
vt 0.936730 0.664634
vt 0.937070 0.668502
vt 0.932166 0.612695
vt 0.932905 0.621097
vt 0.932542 0.616969
vt 0.936730 0.664634
vt 0.890116 0.664510
vt 0.890478 0.668638
vt 0.890842 0.672765
vt 0.886315 0.620973
vt 0.885952 0.616845
vt 0.885589 0.612717
s 0
f 1/1/1 2/2/1 4/3/1 3/4/1
f 3/4/2 4/3/2 6/5/2 5/6/2
f 5/6/3 6/5/3 8/7/3 7/8/3
f 7/8/4 8/7/4 10/9/4 9/10/4
f 9/10/5 10/9/5 12/11/5 11/12/5
f 11/12/6 12/11/6 2/13/6 1/14/6
f 13/15/7 14/16/7 16/16/7 15/15/7
f 15/15/8 16/16/8 18/17/8 17/18/8
f 17/18/9 18/17/9 20/19/9 19/20/9
f 19/20/10 20/19/10 22/19/10 21/20/10
f 21/20/11 22/19/11 24/17/11 23/18/11
f 23/18/12 24/17/12 14/16/12 13/15/12
f 27/21/8 28/22/8 34/23/8 33/24/8
f 25/25/10 26/25/10 32/26/10 31/26/10
f 30/21/11 25/25/11 31/26/11 36/24/11
f 28/22/7 29/22/7 35/23/7 34/23/7
f 26/25/9 27/21/9 33/24/9 32/26/9
f 29/22/12 30/21/12 36/24/12 35/23/12
f 37/1/13 38/2/13 40/3/13 39/4/13
f 39/4/14 40/3/14 42/5/14 41/6/14
f 41/6/15 42/5/15 44/7/15 43/8/15
f 43/8/16 44/7/16 46/9/16 45/10/16
f 45/10/17 46/9/17 48/11/17 47/12/17
f 47/12/18 48/11/18 38/13/18 37/14/18
f 49/1/19 50/2/19 52/3/19 51/4/19
f 51/4/20 52/3/20 54/5/20 53/6/20
f 53/6/21 54/5/21 56/7/21 55/8/21
f 55/8/22 56/7/22 58/9/22 57/10/22
f 57/10/23 58/9/23 60/11/23 59/12/23
f 59/12/24 60/11/24 50/13/24 49/14/24
f 61/1/13 62/2/13 64/3/13 63/4/13
f 63/4/14 64/3/14 66/5/14 65/6/14
f 65/6/15 66/5/15 68/7/15 67/8/15
f 67/8/16 68/7/16 70/9/16 69/10/16
f 69/10/17 70/9/17 72/11/17 71/12/17
f 71/12/18 72/11/18 62/13/18 61/14/18
f 161/27/25 162/28/25 83/29/25 81/30/25
f 160/27/26 161/27/26 81/30/26 80/30/26
f 173/31/27 174/32/27 82/33/27 79/33/27
f 159/34/28 160/27/28 80/30/28 78/29/28
f 174/32/29 172/35/29 77/36/29 82/33/29
f 172/35/30 170/37/30 84/38/30 77/36/30
f 170/37/31 171/39/31 76/40/31 84/38/31
f 162/28/32 158/41/32 75/42/32 83/29/32
f 169/43/33 173/31/33 79/33/33 74/36/33
f 171/39/34 169/43/34 74/36/34 76/40/34
f 157/44/35 159/34/35 78/29/35 73/42/35
f 158/41/36 157/44/36 73/42/36 75/42/36
f 85/1/4 87/4/4 88/3/4 86/2/4
f 87/4/3 89/6/3 90/5/3 88/3/3
f 89/6/2 91/8/2 92/7/2 90/5/2
f 91/8/1 93/10/1 94/9/1 92/7/1
f 93/10/6 95/12/6 96/11/6 94/9/6
f 95/12/5 85/14/5 86/13/5 96/11/5
f 97/15/7 99/15/7 100/16/7 98/16/7
f 99/15/37 101/18/37 102/17/37 100/16/37
f 101/18/38 103/20/38 104/19/38 102/17/38
f 103/20/10 105/20/10 106/19/10 104/19/10
f 105/20/39 107/18/39 108/17/39 106/19/39
f 107/18/40 97/15/40 98/16/40 108/17/40
f 111/21/37 117/24/37 118/23/37 112/22/37
f 109/25/10 115/26/10 116/26/10 110/25/10
f 114/21/39 120/24/39 115/26/39 109/25/39
f 112/22/7 118/23/7 119/23/7 113/22/7
f 110/25/38 116/26/38 117/24/38 111/21/38
f 113/22/40 119/23/40 120/24/40 114/21/40
f 121/1/16 123/4/16 124/3/16 122/2/16
f 123/4/15 125/6/15 126/5/15 124/3/15
f 125/6/14 127/8/14 128/7/14 126/5/14
f 127/8/13 129/10/13 130/9/13 128/7/13
f 129/10/18 131/12/18 132/11/18 130/9/18
f 131/12/17 121/14/17 122/13/17 132/11/17
f 133/1/22 135/4/22 136/3/22 134/2/22
f 135/4/21 137/6/21 138/5/21 136/3/21
f 137/6/20 139/8/20 140/7/20 138/5/20
f 139/8/19 141/10/19 142/9/19 140/7/19
f 141/10/24 143/12/24 144/11/24 142/9/24
f 143/12/23 133/14/23 134/13/23 144/11/23
f 145/1/16 147/4/16 148/3/16 146/2/16
f 147/4/15 149/6/15 150/5/15 148/3/15
f 149/6/14 151/8/14 152/7/14 150/5/14
f 151/8/13 153/10/13 154/9/13 152/7/13
f 153/10/18 155/12/18 156/11/18 154/9/18
f 155/12/17 145/14/17 146/13/17 156/11/17
f 167/27/41 81/30/41 83/29/41 168/45/41
f 166/27/42 80/30/42 81/30/42 167/27/42
f 179/46/43 79/33/43 82/33/43 180/32/43
f 165/28/44 78/29/44 80/30/44 166/27/44
f 180/32/45 82/33/45 77/36/45 178/35/45
f 178/35/46 77/36/46 84/38/46 176/37/46
f 176/37/47 84/38/47 76/40/47 177/47/47
f 168/45/48 83/29/48 75/42/48 164/44/48
f 175/48/49 74/36/49 79/33/49 179/46/49
f 177/47/50 76/40/50 74/36/50 175/48/50
f 163/49/51 73/42/51 78/29/51 165/28/51
f 164/44/52 75/42/52 73/42/52 163/49/52
f 16/50/53 14/50/53 157/44/53 158/41/53
f 14/50/54 24/51/54 159/34/54 157/44/54
f 18/51/55 16/50/55 158/41/55 162/28/55
f 24/51/56 22/52/56 160/27/56 159/34/56
f 22/52/57 20/52/57 161/27/57 160/27/57
f 20/52/58 18/51/58 162/28/58 161/27/58
f 100/50/59 164/44/59 163/49/59 98/50/59
f 98/50/60 163/49/60 165/28/60 108/51/60
f 102/51/61 168/45/61 164/44/61 100/50/61
f 108/51/62 165/28/62 166/27/62 106/52/62
f 106/52/63 166/27/63 167/27/63 104/52/63
f 104/52/64 167/27/64 168/45/64 102/51/64
f 32/53/65 33/54/65 169/43/65 171/39/65
f 33/54/66 34/55/66 173/31/66 169/43/66
f 31/53/67 32/53/67 171/39/67 170/37/67
f 36/54/68 31/53/68 170/37/68 172/35/68
f 35/55/69 36/54/69 172/35/69 174/32/69
f 34/55/70 35/55/70 174/32/70 173/31/70
f 116/53/71 177/47/71 175/48/71 117/54/71
f 117/54/72 175/48/72 179/46/72 118/55/72
f 115/53/73 176/37/73 177/47/73 116/53/73
f 120/54/74 178/35/74 176/37/74 115/53/74
f 119/55/75 180/32/75 178/35/75 120/54/75
f 118/55/76 179/46/76 180/32/76 119/55/76
