# Blender 4.4.3
# www.blender.org
o SM_Drop_Handrail_V1.1
v -0.019364 0.179749 2.857000
v -0.009682 0.988711 2.873770
v 0.019365 0.179749 2.857000
v 0.009682 0.988711 2.873770
v 0.038729 0.179749 2.890540
v 0.019365 0.988711 2.890540
v 0.019365 0.179749 2.924080
v 0.009682 0.988711 2.907310
v -0.019364 0.179749 2.924080
v -0.009682 0.988711 2.907310
v -0.038729 0.179749 2.890540
v -0.019364 0.988711 2.890540
v -0.019364 0.950690 2.895021
v -0.019364 0.950690 1.987983
v 0.019365 0.950690 2.895021
v 0.019365 0.950690 1.987983
v 0.038729 0.984230 2.895021
v 0.038729 0.984230 1.987983
v 0.019365 1.017770 2.895021
v 0.019365 1.017770 1.987983
v -0.019364 1.017770 2.895021
v -0.019364 1.017770 1.987983
v -0.038729 0.984230 2.895021
v -0.038729 0.984230 1.987983
v -0.019364 0.764230 3.071481
v 0.019365 0.764230 3.071481
v 0.038729 0.764230 3.105021
v -0.019364 0.764230 3.138561
v -0.038729 0.764230 3.105021
v 0.023359 0.857411 3.041382
v 0.021713 0.922491 2.979151
v 0.038729 0.947563 2.991687
v 0.038729 0.870897 3.068354
v -0.023358 0.884383 3.095326
v -0.021712 0.972635 3.004223
v -0.038729 0.947563 2.991687
v -0.038729 0.870897 3.068354
v -0.023358 0.857411 3.041382
v -0.021712 0.922491 2.979151
v 0.021713 0.972635 3.004223
v 0.023359 0.884383 3.095326
v 0.019365 0.764414 3.138561
v -0.019364 0.597954 2.885021
v 0.019365 0.597954 2.885021
v 0.038729 0.564414 2.885021
v 0.019365 0.530874 2.885021
v -0.019364 0.530874 2.885021
v -0.038729 0.564414 2.885021
v 0.023359 0.618053 2.978202
v 0.021713 0.680284 3.043283
v 0.038729 0.667747 3.068355
v 0.038729 0.591081 2.991688
v -0.023358 0.564108 3.005174
v -0.021712 0.655211 3.093426
v -0.038729 0.667747 3.068355
v -0.038729 0.591081 2.991688
v -0.023358 0.618053 2.978202
v -0.021712 0.680284 3.043283
v 0.021713 0.655211 3.093426
v 0.023359 0.564108 3.005174
v -0.019364 0.597954 1.986945
v 0.019365 0.597954 1.986945
v 0.038729 0.564414 1.986945
v 0.019365 0.530874 1.986945
v -0.019364 0.530874 1.986945
v -0.038729 0.564414 1.986945
v -0.019364 0.242993 1.957000
v -0.009682 0.988711 1.973770
v 0.019365 0.242993 1.957000
v 0.009682 0.988711 1.973770
v 0.038729 0.242993 1.990540
v 0.019365 0.988711 1.990540
v 0.019365 0.242993 2.024080
v 0.009682 0.988711 2.007310
v -0.019364 0.242993 2.024080
v -0.009682 0.988711 2.007310
v -0.038729 0.242993 1.990540
v -0.019364 0.988711 1.990540
v -0.019364 0.991177 1.137360
v -0.009682 1.783598 1.154130
v 0.019365 0.991177 1.137360
v 0.009682 1.783598 1.154130
v 0.038729 0.991177 1.170900
v 0.019365 1.783598 1.170900
v 0.019365 0.991177 1.204440
v 0.009682 1.783598 1.187670
v -0.019364 0.991177 1.204440
v -0.009682 1.783598 1.187670
v -0.038729 0.991177 1.170900
v -0.019364 1.783598 1.170900
v -0.019364 1.735157 0.380769
v -0.009682 2.518822 0.397539
v 0.019365 1.735157 0.380769
v 0.009682 2.518822 0.397539
v 0.038729 1.735157 0.414309
v 0.019365 2.518822 0.414309
v 0.019365 1.735157 0.447850
v 0.009682 2.518822 0.431079
v -0.019364 1.735157 0.447850
v -0.009682 2.518822 0.431079
v -0.038729 1.735157 0.414309
v -0.019364 2.518822 0.414309
v -0.019364 2.495951 -0.363212
v -0.009682 3.253345 -0.346442
v 0.019365 2.495951 -0.363212
v 0.009682 3.253345 -0.346442
v 0.038729 2.495951 -0.329671
v 0.019365 3.253345 -0.329671
v 0.019365 2.495951 -0.296131
v 0.009682 3.253345 -0.312901
v -0.019364 2.495951 -0.296131
v -0.009682 3.253345 -0.312901
v -0.038729 2.495951 -0.329671
v -0.019364 3.253345 -0.329671
v -0.019364 3.244135 -1.119802
v -0.009682 3.995691 -1.103032
v 0.019365 3.244135 -1.119802
v 0.009682 3.995691 -1.103032
v 0.038729 3.244135 -1.086262
v 0.019365 3.995691 -1.086262
v 0.019365 3.244135 -1.052722
v 0.009682 3.995691 -1.069492
v -0.019364 3.244135 -1.052722
v -0.009682 3.995691 -1.069492
v -0.038729 3.244135 -1.086262
v -0.019364 3.995691 -1.086262
v -0.019364 3.988116 -1.889003
v -0.009682 4.733834 -1.872233
v 0.019365 3.988116 -1.889003
v 0.009682 4.733834 -1.872233
v 0.038729 3.988116 -1.855463
v 0.019365 4.733834 -1.855463
v 0.019365 3.988116 -1.821922
v 0.009682 4.733834 -1.838692
v -0.019364 3.988116 -1.821922
v -0.009682 4.733834 -1.838692
v -0.038729 3.988116 -1.855463
v -0.019364 4.733834 -1.855463
v -0.019364 4.719175 -1.853231
v 0.019365 4.719175 -1.853231
v -0.019364 4.733834 -2.552737
v -0.038729 3.988116 -2.552737
v -0.009682 4.733834 -2.535967
v -0.019364 3.988116 -2.519197
v 0.009683 4.733834 -2.535967
v 0.019365 4.366440 -1.854268
v 0.038729 4.332900 -1.854268
v 0.019365 3.988116 -2.519197
v 0.019365 4.733834 -2.552737
v -0.038729 4.332900 -1.854268
v -0.019364 4.716641 -2.762433
v 0.038729 3.988116 -2.552737
v 0.019365 4.716641 -2.762433
v 0.009683 4.733834 -2.569507
v 0.038729 4.750181 -2.762433
v 0.038729 4.750181 -1.855394
v 0.019365 4.783721 -2.762433
v 0.019365 4.783721 -1.855394
v -0.019364 4.783721 -2.762433
v -0.019364 4.783721 -1.855394
v -0.038729 4.750181 -2.762433
v -0.038729 4.750181 -1.855394
v -0.019364 4.530181 -2.938892
v 0.019365 4.530181 -2.938892
v 0.038729 4.530181 -2.972433
v -0.019364 4.530181 -3.005973
v -0.038729 4.530181 -2.972433
v 0.023359 4.623362 -2.908793
v 0.021713 4.688443 -2.846563
v 0.038729 4.713514 -2.859099
v 0.038729 4.636848 -2.935766
v -0.023358 4.650334 -2.962738
v -0.021712 4.738586 -2.871635
v -0.038729 4.713514 -2.859099
v -0.038729 4.636848 -2.935766
v -0.023358 4.623362 -2.908793
v -0.021712 4.688443 -2.846563
v 0.021713 4.738586 -2.871635
v 0.023359 4.650334 -2.962738
v 0.019365 4.530365 -3.005973
v -0.019364 4.363905 -2.752433
v 0.019365 4.363905 -2.752433
v 0.038729 4.330365 -2.752433
v 0.019365 4.296825 -2.752433
v -0.019364 4.296825 -2.752433
v -0.038729 4.330365 -2.752433
v 0.023359 4.384004 -2.845614
v 0.021713 4.446235 -2.910695
v 0.038729 4.433699 -2.935766
v 0.038729 4.357032 -2.859100
v -0.023358 4.330060 -2.872586
v -0.021712 4.421163 -2.960838
v -0.038729 4.433699 -2.935766
v -0.038729 4.357032 -2.859100
v -0.023358 4.384004 -2.845614
v -0.021712 4.446235 -2.910695
v 0.021713 4.421163 -2.960838
v 0.023359 4.330060 -2.872586
v -0.019364 4.363905 -1.854357
v 0.019365 3.988116 -2.586277
v -0.009682 4.733834 -2.569507
v 0.019365 4.296825 -1.854357
v -0.019364 4.296825 -1.854357
v -0.019364 3.988116 -2.586277
vn -0.0000 0.0207 -0.9998
vn 0.8658 0.0207 -0.4999
vn 0.8658 0.0207 0.4999
vn -0.0000 0.0207 0.9998
vn -0.8658 0.0207 0.4999
vn -0.8658 0.0207 -0.4999
vn -0.0000 -1.0000 -0.0000
vn 0.8660 -0.5000 -0.0000
vn 0.8660 0.5000 -0.0000
vn -0.0000 1.0000 -0.0000
vn -0.8660 0.5000 -0.0000
vn -0.8660 -0.5000 -0.0000
vn 0.8704 -0.1715 -0.4614
vn -0.8716 0.1492 0.4670
vn -0.0000 -0.3074 -0.9516
vn 0.8717 0.1492 0.4667
vn -0.8704 -0.1715 -0.4614
vn -0.0007 0.3388 0.9409
vn -0.0000 0.9242 0.3820
vn -0.0000 0.7183 0.6958
vn -0.8521 -0.4890 -0.1865
vn -0.8625 -0.3490 -0.3664
vn 0.8522 0.4895 0.1848
vn 0.8624 0.3652 0.3505
vn -0.0000 -0.9482 -0.3178
vn -0.0000 -0.6911 -0.7228
vn -0.8522 0.4895 0.1848
vn -0.8624 0.3652 0.3505
vn 0.8521 -0.4890 -0.1865
vn 0.8625 -0.3490 -0.3664
vn 0.8722 0.4721 -0.1279
vn -0.8724 -0.4762 0.1104
vn -0.0000 0.9775 -0.2108
vn 0.8724 -0.4762 0.1104
vn -0.8722 0.4721 -0.1279
vn -0.0000 -0.9638 0.2666
vn 0.0009 -0.3822 0.9241
vn -0.0000 -0.6958 0.7183
vn -0.8521 0.1869 -0.4889
vn -0.8625 0.3664 -0.3490
vn 0.8520 -0.1851 0.4898
vn 0.8624 -0.3505 0.3652
vn -0.0000 0.3184 -0.9480
vn -0.0000 0.7228 -0.6911
vn -0.8522 -0.1851 0.4894
vn -0.8624 -0.3505 0.3652
vn 0.8521 0.1869 -0.4889
vn 0.8625 0.3664 -0.3490
vn -0.0000 0.0225 -0.9997
vn 0.8658 0.0225 -0.4999
vn 0.8658 0.0225 0.4999
vn -0.0000 0.0225 0.9997
vn -0.8658 0.0225 0.4999
vn -0.8658 0.0225 -0.4999
vn -0.0000 0.0212 -0.9998
vn 0.8658 0.0212 -0.4999
vn 0.8658 0.0212 0.4999
vn -0.0000 0.0212 0.9998
vn -0.8658 0.0212 0.4999
vn -0.8658 0.0212 -0.4999
vn -0.0000 0.0214 -0.9998
vn 0.8658 0.0214 -0.4999
vn 0.8658 0.0214 0.4999
vn -0.0000 0.0214 0.9998
vn -0.8658 0.0214 0.4999
vn -0.8658 0.0214 -0.4999
vn -0.0000 0.0221 -0.9998
vn 0.8658 0.0221 -0.4999
vn 0.8658 0.0221 0.4999
vn -0.0000 0.0221 0.9998
vn -0.8658 0.0221 0.4999
vn -0.8658 0.0221 -0.4999
vn -0.0000 0.0223 -0.9998
vn 0.8658 0.0223 -0.4999
vn 0.8658 0.0223 0.4999
vn -0.0000 0.0223 0.9998
vn -0.8658 0.0223 0.4999
vn -0.8658 0.0223 -0.4999
vn -0.7549 -0.4683 -0.4592
vn 0.7892 -0.4385 -0.4300
vn -0.7777 0.4490 0.4400
vn -0.0000 0.7143 0.6999
vn -0.0000 -0.7138 -0.7003
vn -0.0000 -0.7141 -0.7001
vn 0.7777 0.4490 0.4400
vn 0.7549 -0.4683 -0.4592
vn -0.0242 0.7137 0.7000
vn -0.7892 -0.4385 -0.4300
vn 0.7775 0.4489 0.4404
vn -0.7651 0.4597 0.4508
vn 0.8704 -0.1715 0.4614
vn -0.8716 0.1492 -0.4670
vn -0.0000 -0.3074 0.9516
vn 0.8717 0.1492 -0.4667
vn -0.8704 -0.1715 0.4614
vn -0.0007 0.3388 -0.9409
vn -0.0000 0.9242 -0.3820
vn -0.0000 0.7183 -0.6958
vn -0.8521 -0.4890 0.1865
vn -0.8625 -0.3490 0.3664
vn 0.8522 0.4895 -0.1848
vn 0.8624 0.3652 -0.3505
vn -0.0000 -0.9482 0.3178
vn -0.0000 -0.6911 0.7228
vn -0.8522 0.4895 -0.1848
vn -0.8624 0.3652 -0.3505
vn 0.8521 -0.4890 0.1865
vn 0.8625 -0.3490 0.3664
vn 0.8722 0.4721 0.1279
vn -0.8724 -0.4762 -0.1104
vn -0.0000 0.9775 0.2108
vn 0.8724 -0.4762 -0.1104
vn -0.8722 0.4721 0.1279
vn -0.0000 -0.9638 -0.2666
vn 0.0009 -0.3822 -0.9241
vn -0.0000 -0.6958 -0.7183
vn -0.8521 0.1869 0.4889
vn -0.8625 0.3664 0.3490
vn 0.8520 -0.1851 -0.4898
vn 0.8624 -0.3505 -0.3652
vn -0.0000 0.3184 0.9480
vn -0.0000 0.7228 0.6911
vn -0.8522 -0.1851 -0.4894
vn -0.8624 -0.3505 -0.3652
vn 0.8521 0.1869 0.4889
vn 0.8625 0.3664 0.3490
vn 0.8739 -0.4862 0.0007
vn -0.0327 0.9995 -0.0014
vn -0.8575 0.5145 -0.0007
vn 0.8660 0.5000 -0.0014
vn -0.8739 -0.4862 0.0007
vn -0.8575 -0.5145 0.0007
vn -0.0000 -1.0000 0.0028
vn 0.8575 -0.5145 0.0007
vt 0.977440 0.611782
vt 0.977440 0.684827
vt 0.965238 0.684827
vt 0.965238 0.611782
vt 0.953036 0.684827
vt 0.953036 0.611782
vt 0.940834 0.684827
vt 0.940834 0.611782
vt 0.928632 0.684827
vt 0.928632 0.611782
vt 0.916430 0.684827
vt 0.916430 0.611782
vt 0.904228 0.684827
vt 0.904228 0.611782
vt 0.908723 0.665069
vt 0.981220 0.665069
vt 0.981220 0.669373
vt 0.908723 0.669373
vt 0.981220 0.673677
vt 0.908723 0.673677
vt 0.897025 0.653100
vt 0.894869 0.654830
vt 0.891938 0.641143
vt 0.894619 0.641143
vt 0.892713 0.656561
vt 0.889258 0.641143
vt 0.889258 0.641167
vt 0.899995 0.667885
vt 0.901999 0.661451
vt 0.900997 0.664668
vt 0.902075 0.622386
vt 0.900997 0.618925
vt 0.909522 0.615503
vt 0.909522 0.619807
vt 0.899919 0.615464
vt 0.909522 0.611199
vt 0.892865 0.627154
vt 0.896873 0.630371
vt 0.894869 0.628763
vt 0.981303 0.611199
vt 0.981303 0.615503
vt 0.981303 0.619807
vt 0.890116 0.664510
vt 0.890478 0.668638
vt 0.993422 0.668338
vt 0.993052 0.664783
vt 0.885952 0.616845
vt 0.885589 0.612717
vt 0.988499 0.612668
vt 0.988888 0.617119
vt 0.890842 0.672765
vt 0.993785 0.672466
vt 0.886315 0.620973
vt 0.989251 0.621246
vt 0.989225 0.620924
s 0
f 1/1/1 2/2/1 4/3/1 3/4/1
f 3/4/2 4/3/2 6/5/2 5/6/2
f 5/6/3 6/5/3 8/7/3 7/8/3
f 7/8/4 8/7/4 10/9/4 9/10/4
f 9/10/5 10/9/5 12/11/5 11/12/5
f 11/12/6 12/11/6 2/13/6 1/14/6
f 13/15/7 14/16/7 16/16/7 15/15/7
f 15/15/8 16/16/8 18/17/8 17/18/8
f 17/18/9 18/17/9 20/19/9 19/20/9
f 19/20/10 20/19/10 22/19/10 21/20/10
f 21/20/11 22/19/11 24/17/11 23/18/11
f 23/18/12 24/17/12 14/16/12 13/15/12
f 30/21/13 33/22/13 27/23/13 26/24/13
f 34/25/14 37/22/14 29/23/14 28/26/14
f 38/21/15 30/21/15 26/24/15 25/24/15
f 33/22/16 41/25/16 42/27/16 27/23/16
f 37/22/17 38/21/17 25/24/17 29/23/17
f 41/25/18 34/25/18 28/26/18 42/27/18
f 19/20/19 21/20/19 35/28/19 40/28/19
f 40/28/20 35/28/20 34/25/20 41/25/20
f 23/18/21 13/15/21 39/29/21 36/30/21
f 36/30/22 39/29/22 38/21/22 37/22/22
f 17/18/23 19/20/23 40/28/23 32/30/23
f 32/30/24 40/28/24 41/25/24 33/22/24
f 13/15/25 15/15/25 31/29/25 39/29/25
f 39/29/26 31/29/26 30/21/26 38/21/26
f 21/20/27 23/18/27 36/30/27 35/28/27
f 35/28/28 36/30/28 37/22/28 34/25/28
f 15/15/29 17/18/29 32/30/29 31/29/29
f 31/29/30 32/30/30 33/22/30 30/21/30
f 49/31/31 52/32/31 45/33/31 44/34/31
f 53/35/32 56/32/32 48/33/32 47/36/32
f 57/31/33 49/31/33 44/34/33 43/34/33
f 52/32/34 60/35/34 46/36/34 45/33/34
f 56/32/35 57/31/35 43/34/35 48/33/35
f 60/35/36 53/35/36 47/36/36 46/36/36
f 42/27/37 28/26/37 54/37/37 59/37/37
f 59/37/38 54/37/38 53/35/38 60/35/38
f 29/23/39 25/24/39 58/38/39 55/39/39
f 55/39/40 58/38/40 57/31/40 56/32/40
f 27/23/41 42/27/41 59/37/41 51/39/41
f 51/39/42 59/37/42 60/35/42 52/32/42
f 25/24/43 26/24/43 50/38/43 58/38/43
f 58/38/44 50/38/44 49/31/44 57/31/44
f 28/26/45 29/23/45 55/39/45 54/37/45
f 54/37/46 55/39/46 56/32/46 53/35/46
f 26/24/47 27/23/47 51/39/47 50/38/47
f 50/38/48 51/39/48 52/32/48 49/31/48
f 45/33/8 46/36/8 64/40/8 63/41/8
f 43/34/10 44/34/10 62/42/10 61/42/10
f 48/33/11 43/34/11 61/42/11 66/41/11
f 46/36/7 47/36/7 65/40/7 64/40/7
f 44/34/9 45/33/9 63/41/9 62/42/9
f 47/36/12 48/33/12 66/41/12 65/40/12
f 67/1/49 68/2/49 70/3/49 69/4/49
f 69/4/50 70/3/50 72/5/50 71/6/50
f 71/6/51 72/5/51 74/7/51 73/8/51
f 73/8/52 74/7/52 76/9/52 75/10/52
f 75/10/53 76/9/53 78/11/53 77/12/53
f 77/12/54 78/11/54 68/13/54 67/14/54
f 79/1/55 80/2/55 82/3/55 81/4/55
f 81/4/56 82/3/56 84/5/56 83/6/56
f 83/6/57 84/5/57 86/7/57 85/8/57
f 85/8/58 86/7/58 88/9/58 87/10/58
f 87/10/59 88/9/59 90/11/59 89/12/59
f 89/12/60 90/11/60 80/13/60 79/14/60
f 91/1/61 92/2/61 94/3/61 93/4/61
f 93/4/62 94/3/62 96/5/62 95/6/62
f 95/6/63 96/5/63 98/7/63 97/8/63
f 97/8/64 98/7/64 100/9/64 99/10/64
f 99/10/65 100/9/65 102/11/65 101/12/65
f 101/12/66 102/11/66 92/13/66 91/14/66
f 103/1/67 104/2/67 106/3/67 105/4/67
f 105/4/68 106/3/68 108/5/68 107/6/68
f 107/6/69 108/5/69 110/7/69 109/8/69
f 109/8/70 110/7/70 112/9/70 111/10/70
f 111/10/71 112/9/71 114/11/71 113/12/71
f 113/12/72 114/11/72 104/13/72 103/14/72
f 115/1/73 116/2/73 118/3/73 117/4/73
f 117/4/74 118/3/74 120/5/74 119/6/74
f 119/6/75 120/5/75 122/7/75 121/8/75
f 121/8/76 122/7/76 124/9/76 123/10/76
f 123/10/77 124/9/77 126/11/77 125/12/77
f 125/12/78 126/11/78 116/13/78 115/14/78
f 127/1/49 128/2/49 130/3/49 129/4/49
f 129/4/50 130/3/50 132/5/50 131/6/50
f 131/6/51 132/5/51 134/7/51 133/8/51
f 133/8/52 134/7/52 136/9/52 135/10/52
f 135/10/53 136/9/53 138/11/53 137/12/53
f 137/12/54 138/11/54 128/13/54 127/14/54
f 14/43/79 24/44/79 162/45/79 139/46/79
f 63/47/80 64/48/80 202/49/80 147/50/80
f 24/44/81 22/51/81 160/52/81 162/45/81
f 22/51/82 20/51/82 158/52/82 160/52/82
f 16/43/83 14/43/83 139/46/83 140/46/83
f 64/48/84 65/48/84 203/49/84 202/49/84
f 20/51/85 18/44/85 156/45/85 158/52/85
f 18/44/86 16/43/86 140/46/86 156/45/86
f 61/53/87 62/53/87 146/54/87 199/55/87
f 65/48/88 66/47/88 150/50/88 203/49/88
f 62/53/89 63/47/89 147/50/89 146/54/89
f 66/47/90 61/53/90 199/55/90 150/50/90
f 168/21/91 164/24/91 165/23/91 171/22/91
f 172/25/92 166/26/92 167/23/92 175/22/92
f 176/21/93 163/24/93 164/24/93 168/21/93
f 171/22/94 165/23/94 180/27/94 179/25/94
f 175/22/95 167/23/95 163/24/95 176/21/95
f 179/25/96 180/27/96 166/26/96 172/25/96
f 157/20/97 178/28/97 173/28/97 159/20/97
f 178/28/98 179/25/98 172/25/98 173/28/98
f 161/18/99 174/30/99 177/29/99 151/15/99
f 174/30/100 175/22/100 176/21/100 177/29/100
f 155/18/101 170/30/101 178/28/101 157/20/101
f 170/30/102 171/22/102 179/25/102 178/28/102
f 151/15/103 177/29/103 169/29/103 153/15/103
f 177/29/104 176/21/104 168/21/104 169/29/104
f 159/20/105 173/28/105 174/30/105 161/18/105
f 173/28/106 172/25/106 175/22/106 174/30/106
f 153/15/107 169/29/107 170/30/107 155/18/107
f 169/29/108 168/21/108 171/22/108 170/30/108
f 187/31/109 182/34/109 183/33/109 190/32/109
f 191/35/110 185/36/110 186/33/110 194/32/110
f 195/31/111 181/34/111 182/34/111 187/31/111
f 190/32/112 183/33/112 184/36/112 198/35/112
f 194/32/113 186/33/113 181/34/113 195/31/113
f 198/35/114 184/36/114 185/36/114 191/35/114
f 180/27/115 197/37/115 192/37/115 166/26/115
f 197/37/116 198/35/116 191/35/116 192/37/116
f 167/23/117 193/39/117 196/38/117 163/24/117
f 193/39/118 194/32/118 195/31/118 196/38/118
f 165/23/119 189/39/119 197/37/119 180/27/119
f 189/39/120 190/32/120 198/35/120 197/37/120
f 163/24/121 196/38/121 188/38/121 164/24/121
f 196/38/122 195/31/122 187/31/122 188/38/122
f 166/26/123 192/37/123 193/39/123 167/23/123
f 192/37/124 191/35/124 194/32/124 193/39/124
f 164/24/125 188/38/125 189/39/125 165/23/125
f 188/38/126 187/31/126 190/32/126 189/39/126
f 183/33/127 147/41/127 202/40/127 184/36/127
f 181/34/128 199/42/128 146/42/128 182/34/128
f 186/33/129 150/41/129 199/42/129 181/34/129
f 184/36/7 202/40/7 203/40/7 185/36/7
f 182/34/130 146/42/130 147/41/130 183/33/130
f 185/36/131 203/40/131 150/41/131 186/33/131
f 204/1/49 201/2/49 154/3/49 200/4/49
f 200/4/50 154/3/50 149/5/50 152/6/50
f 152/6/51 149/5/51 145/7/51 148/8/51
f 148/8/52 145/7/52 143/9/52 144/10/52
f 144/10/53 143/9/53 141/11/53 142/12/53
f 142/12/54 141/11/54 201/13/54 204/14/54
f 159/20/11 161/18/11 162/17/11 160/19/11
f 161/18/132 151/15/132 139/16/132 162/17/132
f 140/16/133 139/16/133 151/15/133 153/15/133
f 153/15/134 155/18/134 156/17/134 140/16/134
f 155/18/9 157/20/9 158/19/9 156/17/9
f 157/20/10 159/20/10 160/19/10 158/19/10
