# Blender 4.4.3
# www.blender.org
o SM_NormalFiller_Handrail_V1.0
v -0.019364 -0.020251 2.657000
v -0.009682 0.781502 2.673770
v 0.019365 -0.020251 2.657000
v 0.009682 0.781502 2.673770
v 0.038729 -0.020251 2.690540
v 0.019365 0.781502 2.690540
v 0.019365 -0.020251 2.724080
v 0.009682 0.781502 2.707310
v -0.019364 -0.020251 2.724080
v -0.009682 0.781502 2.707310
v -0.038729 -0.020251 2.690540
v -0.019364 0.781502 2.690540
v -0.019364 0.750690 2.990812
v -0.019364 0.750690 1.885139
v 0.019365 0.750690 2.990812
v 0.019365 0.750690 1.885139
v 0.038729 0.784230 2.990812
v 0.038729 0.784230 1.885139
v 0.019365 0.817770 2.990812
v 0.019365 0.817770 1.885139
v -0.019364 0.817770 2.990812
v -0.019364 0.817770 1.885139
v -0.038729 0.784230 2.990812
v -0.038729 0.784230 1.885139
v -0.019364 0.397954 2.980482
v 0.019365 0.397954 2.980482
v 0.038729 0.364414 2.980482
v 0.019365 0.330874 2.980482
v -0.019364 0.330874 2.980482
v -0.038729 0.364414 2.980482
v -0.019364 0.397954 1.884156
v 0.019365 0.397954 1.884156
v 0.038729 0.364414 1.884156
v 0.019365 0.330874 1.884156
v -0.019364 0.330874 1.884156
v -0.038729 0.364414 1.884156
v -0.019364 -0.009303 1.957000
v -0.009682 0.781502 1.973770
v 0.019365 -0.009303 1.957000
v 0.009682 0.781502 1.973770
v 0.038729 -0.009303 1.990540
v 0.019365 0.781502 1.990540
v 0.019365 -0.009303 2.024080
v 0.009682 0.781502 2.007310
v -0.019364 -0.009303 2.024080
v -0.009682 0.781502 2.007310
v -0.038729 -0.009303 1.990540
v -0.019364 0.781502 1.990540
v -0.019364 -0.001974 1.137360
v -0.009682 0.781502 1.154130
v 0.019365 -0.001974 1.137360
v 0.009682 0.781502 1.154130
v 0.038729 -0.001974 1.170900
v 0.019365 0.781502 1.170900
v 0.019365 -0.001974 1.204440
v 0.009682 0.781502 1.187670
v -0.019364 -0.001974 1.204440
v -0.009682 0.781502 1.187670
v -0.038729 -0.001974 1.170900
v -0.019364 0.781502 1.170900
v -0.019364 -0.007564 0.380769
v -0.009682 0.781502 0.397539
v 0.019365 -0.007564 0.380769
v 0.009682 0.781502 0.397539
v 0.038729 -0.007564 0.414309
v 0.019365 0.781502 0.414309
v 0.019365 -0.007564 0.447850
v 0.009682 0.781502 0.431079
v -0.019364 -0.007564 0.447850
v -0.009682 0.781502 0.431079
v -0.038729 -0.007564 0.414309
v -0.019364 0.781502 0.414309
v -0.019364 0.753514 0.000000
v 0.038729 0.367237 0.000000
v 0.019365 0.753514 0.000000
v 0.019365 0.400777 0.000000
v -0.038729 0.367237 0.000000
v -0.038729 0.785742 0.000000
v 0.019365 0.332386 0.000000
v -0.019364 0.819282 0.000000
v 0.019365 0.819282 0.000000
v -0.019364 0.332386 0.000000
v 0.038729 0.785742 0.000000
v -0.019364 0.399466 0.000000
v -0.019364 -0.020251 -2.657000
v -0.009682 0.781502 -2.673770
v 0.019365 -0.020251 -2.657000
v 0.009682 0.781502 -2.673770
v 0.038729 -0.020251 -2.690540
v 0.019365 0.781502 -2.690540
v 0.019365 -0.020251 -2.724080
v 0.009682 0.781502 -2.707310
v -0.019364 -0.020251 -2.724080
v -0.009682 0.781502 -2.707310
v -0.038729 -0.020251 -2.690540
v -0.019364 0.781502 -2.690540
v -0.019364 0.750690 -2.990812
v -0.019364 0.750690 -1.885139
v 0.019365 0.750690 -2.990812
v 0.019365 0.750690 -1.885139
v 0.038729 0.784230 -2.990812
v 0.038729 0.784230 -1.885139
v 0.019365 0.817770 -2.990812
v 0.019365 0.817770 -1.885139
v -0.019364 0.817770 -2.990812
v -0.019364 0.817770 -1.885139
v -0.038729 0.784230 -2.990812
v -0.038729 0.784230 -1.885139
v -0.019364 0.397954 -2.980482
v 0.019365 0.397954 -2.980482
v 0.038729 0.364414 -2.980482
v 0.019365 0.330874 -2.980482
v -0.019364 0.330874 -2.980482
v -0.038729 0.364414 -2.980482
v -0.019364 0.397954 -1.884155
v 0.019365 0.397954 -1.884155
v 0.038729 0.364414 -1.884155
v 0.019365 0.330874 -1.884155
v -0.019364 0.330874 -1.884155
v -0.038729 0.364414 -1.884155
v -0.019364 -0.009303 -1.957000
v -0.009682 0.781502 -1.973770
v 0.019365 -0.009303 -1.957000
v 0.009682 0.781502 -1.973770
v 0.038729 -0.009303 -1.990540
v 0.019365 0.781502 -1.990540
v 0.019365 -0.009303 -2.024080
v 0.009682 0.781502 -2.007310
v -0.019364 -0.009303 -2.024080
v -0.009682 0.781502 -2.007310
v -0.038729 -0.009303 -1.990540
v -0.019364 0.781502 -1.990540
v -0.019364 -0.001974 -1.137360
v -0.009682 0.781502 -1.154130
v 0.019365 -0.001974 -1.137360
v 0.009682 0.781502 -1.154130
v 0.038729 -0.001974 -1.170900
v 0.019365 0.781502 -1.170900
v 0.019365 -0.001974 -1.204440
v 0.009682 0.781502 -1.187670
v -0.019364 -0.001974 -1.204440
v -0.009682 0.781502 -1.187670
v -0.038729 -0.001974 -1.170900
v -0.019364 0.781502 -1.170900
v -0.019364 -0.007564 -0.380769
v -0.009682 0.781502 -0.397539
v 0.019365 -0.007564 -0.380769
v 0.009682 0.781502 -0.397539
v 0.038729 -0.007564 -0.414309
v 0.019365 0.781502 -0.414309
v 0.019365 -0.007564 -0.447850
v 0.009682 0.781502 -0.431079
v -0.019364 -0.007564 -0.447850
v -0.009682 0.781502 -0.431079
v -0.038729 -0.007564 -0.414309
v -0.019364 0.781502 -0.414309
vn -0.0000 0.0209 -0.9998
vn 0.8658 0.0209 -0.4999
vn 0.8658 0.0209 0.4999
vn -0.0000 0.0209 0.9998
vn -0.8658 0.0209 0.4999
vn -0.8658 0.0209 -0.4999
vn -0.0000 -1.0000 -0.0000
vn 0.8660 -0.5000 -0.0000
vn 0.8660 0.5000 -0.0000
vn -0.0000 1.0000 -0.0000
vn -0.8660 0.5000 -0.0000
vn -0.8660 -0.5000 -0.0000
vn -0.0000 0.0212 -0.9998
vn 0.8658 0.0212 -0.4999
vn 0.8658 0.0212 0.4999
vn -0.0000 0.0212 0.9998
vn -0.8658 0.0212 0.4999
vn -0.8658 0.0212 -0.4999
vn -0.0000 0.0214 -0.9998
vn 0.8658 0.0214 -0.4999
vn 0.8658 0.0214 0.4999
vn -0.0000 0.0214 0.9998
vn -0.8658 0.0214 0.4999
vn -0.8658 0.0214 -0.4999
vn 0.8660 0.5000 0.0004
vn -0.0000 1.0000 0.0008
vn -0.0000 -1.0000 -0.0008
vn -0.8660 0.5000 0.0004
vn -0.8702 -0.4928 -0.0006
vn -0.8617 0.5074 0.0006
vn -0.0169 0.9999 0.0012
vn 0.8617 -0.5074 -0.0006
vn 0.8702 -0.4928 -0.0006
vn 0.8660 0.5000 0.0007
vn -0.8617 -0.5074 -0.0006
vn -0.0000 -1.0000 -0.0015
vn 0.8660 0.5000 -0.0004
vn -0.0000 1.0000 -0.0008
vn -0.0000 -1.0000 0.0008
vn -0.8660 0.5000 -0.0004
vn -0.8702 -0.4928 0.0006
vn -0.8617 0.5074 -0.0006
vn -0.0169 0.9999 -0.0012
vn 0.8617 -0.5074 0.0006
vn 0.8702 -0.4928 0.0006
vn 0.8660 0.5000 -0.0007
vn -0.8617 -0.5074 0.0006
vn -0.0000 -1.0000 0.0015
vt 0.977440 0.611782
vt 0.977440 0.684827
vt 0.965238 0.684827
vt 0.965238 0.611782
vt 0.953036 0.684827
vt 0.953036 0.611782
vt 0.940834 0.684827
vt 0.940834 0.611782
vt 0.928632 0.684827
vt 0.928632 0.611782
vt 0.916430 0.684827
vt 0.916430 0.611782
vt 0.904228 0.684827
vt 0.904228 0.611782
vt 0.908723 0.665069
vt 0.981220 0.665069
vt 0.981220 0.669373
vt 0.908723 0.669373
vt 0.981220 0.673677
vt 0.908723 0.673677
vt 0.909522 0.615503
vt 0.909522 0.611199
vt 0.981303 0.611199
vt 0.981303 0.615503
vt 0.909522 0.619807
vt 0.981303 0.619807
vt 0.890842 0.672765
vt 0.890478 0.668638
vt 0.943726 0.668483
vt 0.944089 0.672611
vt 0.885589 0.612717
vt 0.938820 0.612692
vt 0.885952 0.616845
vt 0.939197 0.616986
vt 0.886315 0.620973
vt 0.939546 0.620947
vt 0.939560 0.621114
vt 0.890116 0.664510
vt 0.943389 0.664651
s 0
f 1/1/1 2/2/1 4/3/1 3/4/1
f 3/4/2 4/3/2 6/5/2 5/6/2
f 5/6/3 6/5/3 8/7/3 7/8/3
f 7/8/4 8/7/4 10/9/4 9/10/4
f 9/10/5 10/9/5 12/11/5 11/12/5
f 11/12/6 12/11/6 2/13/6 1/14/6
f 13/15/7 14/16/7 16/16/7 15/15/7
f 15/15/8 16/16/8 18/17/8 17/18/8
f 17/18/9 18/17/9 20/19/9 19/20/9
f 19/20/10 20/19/10 22/19/10 21/20/10
f 21/20/11 22/19/11 24/17/11 23/18/11
f 23/18/12 24/17/12 14/16/12 13/15/12
f 27/21/8 28/22/8 34/23/8 33/24/8
f 25/25/10 26/25/10 32/26/10 31/26/10
f 30/21/11 25/25/11 31/26/11 36/24/11
f 28/22/7 29/22/7 35/23/7 34/23/7
f 26/25/9 27/21/9 33/24/9 32/26/9
f 29/22/12 30/21/12 36/24/12 35/23/12
f 37/1/13 38/2/13 40/3/13 39/4/13
f 39/4/14 40/3/14 42/5/14 41/6/14
f 41/6/15 42/5/15 44/7/15 43/8/15
f 43/8/16 44/7/16 46/9/16 45/10/16
f 45/10/17 46/9/17 48/11/17 47/12/17
f 47/12/18 48/11/18 38/13/18 37/14/18
f 49/1/19 50/2/19 52/3/19 51/4/19
f 51/4/20 52/3/20 54/5/20 53/6/20
f 53/6/21 54/5/21 56/7/21 55/8/21
f 55/8/22 56/7/22 58/9/22 57/10/22
f 57/10/23 58/9/23 60/11/23 59/12/23
f 59/12/24 60/11/24 50/13/24 49/14/24
f 61/1/13 62/2/13 64/3/13 63/4/13
f 63/4/14 64/3/14 66/5/14 65/6/14
f 65/6/15 66/5/15 68/7/15 67/8/15
f 67/8/16 68/7/16 70/9/16 69/10/16
f 69/10/17 70/9/17 72/11/17 71/12/17
f 71/12/18 72/11/18 62/13/18 61/14/18
f 20/27/25 18/28/25 83/29/25 81/30/25
f 22/27/26 20/27/26 81/30/26 80/30/26
f 34/31/27 35/31/27 82/32/27 79/32/27
f 24/28/28 22/27/28 80/30/28 78/29/28
f 35/31/29 36/33/29 77/34/29 82/32/29
f 36/33/30 31/35/30 84/36/30 77/34/30
f 31/35/31 32/35/31 76/37/31 84/36/31
f 18/28/32 16/38/32 75/39/32 83/29/32
f 33/33/33 34/31/33 79/32/33 74/34/33
f 32/35/34 33/33/34 74/34/34 76/37/34
f 14/38/35 24/28/35 78/29/35 73/39/35
f 16/38/36 14/38/36 73/39/36 75/39/36
f 85/1/4 87/4/4 88/3/4 86/2/4
f 87/4/3 89/6/3 90/5/3 88/3/3
f 89/6/2 91/8/2 92/7/2 90/5/2
f 91/8/1 93/10/1 94/9/1 92/7/1
f 93/10/6 95/12/6 96/11/6 94/9/6
f 95/12/5 85/14/5 86/13/5 96/11/5
f 97/15/7 99/15/7 100/16/7 98/16/7
f 99/15/8 101/18/8 102/17/8 100/16/8
f 101/18/9 103/20/9 104/19/9 102/17/9
f 103/20/10 105/20/10 106/19/10 104/19/10
f 105/20/11 107/18/11 108/17/11 106/19/11
f 107/18/12 97/15/12 98/16/12 108/17/12
f 111/21/8 117/24/8 118/23/8 112/22/8
f 109/25/10 115/26/10 116/26/10 110/25/10
f 114/21/11 120/24/11 115/26/11 109/25/11
f 112/22/7 118/23/7 119/23/7 113/22/7
f 110/25/9 116/26/9 117/24/9 111/21/9
f 113/22/12 119/23/12 120/24/12 114/21/12
f 121/1/16 123/4/16 124/3/16 122/2/16
f 123/4/15 125/6/15 126/5/15 124/3/15
f 125/6/14 127/8/14 128/7/14 126/5/14
f 127/8/13 129/10/13 130/9/13 128/7/13
f 129/10/18 131/12/18 132/11/18 130/9/18
f 131/12/17 121/14/17 122/13/17 132/11/17
f 133/1/22 135/4/22 136/3/22 134/2/22
f 135/4/21 137/6/21 138/5/21 136/3/21
f 137/6/20 139/8/20 140/7/20 138/5/20
f 139/8/19 141/10/19 142/9/19 140/7/19
f 141/10/24 143/12/24 144/11/24 142/9/24
f 143/12/23 133/14/23 134/13/23 144/11/23
f 145/1/16 147/4/16 148/3/16 146/2/16
f 147/4/15 149/6/15 150/5/15 148/3/15
f 149/6/14 151/8/14 152/7/14 150/5/14
f 151/8/13 153/10/13 154/9/13 152/7/13
f 153/10/18 155/12/18 156/11/18 154/9/18
f 155/12/17 145/14/17 146/13/17 156/11/17
f 104/27/37 81/30/37 83/29/37 102/28/37
f 106/27/38 80/30/38 81/30/38 104/27/38
f 118/31/39 79/32/39 82/32/39 119/31/39
f 108/28/40 78/29/40 80/30/40 106/27/40
f 119/31/41 82/32/41 77/34/41 120/33/41
f 120/33/42 77/34/42 84/36/42 115/35/42
f 115/35/43 84/36/43 76/37/43 116/35/43
f 102/28/44 83/29/44 75/39/44 100/38/44
f 117/33/45 74/34/45 79/32/45 118/31/45
f 116/35/46 76/37/46 74/34/46 117/33/46
f 98/38/47 73/39/47 78/29/47 108/28/47
f 100/38/48 75/39/48 73/39/48 98/38/48
