# Blender 4.4.3
# www.blender.org
o SM_3D_Bench_V1.1
v -1.400000 1.018032 -0.492143
v -1.193591 0.814759 -0.456300
v -1.339544 0.874296 -0.466798
v -1.193591 1.602605 -0.595219
v -1.400000 1.399332 -0.559376
v -1.339544 1.543068 -0.584721
v -1.193591 0.797395 -0.554781
v -1.400000 1.000668 -0.590624
v -1.339544 0.856932 -0.565279
v -1.400000 1.381968 -0.657857
v -1.193591 1.585241 -0.693700
v -1.339544 1.525704 -0.683202
v 1.193591 0.814759 -0.456300
v 1.400000 1.018032 -0.492143
v 1.339544 0.874296 -0.466798
v 1.400000 1.399332 -0.559376
v 1.193591 1.602605 -0.595219
v 1.339544 1.543068 -0.584721
v 1.400000 1.000668 -0.590624
v 1.193591 0.797395 -0.554781
v 1.339544 0.856932 -0.565279
v 1.193591 1.585241 -0.693700
v 1.400000 1.381968 -0.657857
v 1.339544 1.525704 -0.683202
v -1.400000 0.730944 0.193064
v -1.193591 0.730944 0.399473
v -1.339544 0.730944 0.339017
v -1.193591 0.730944 -0.400527
v -1.400000 0.730944 -0.194118
v -1.339544 0.730944 -0.340071
v -1.193591 0.630944 0.399473
v -1.400000 0.630944 0.193064
v -1.339544 0.630944 0.339017
v -1.400000 0.630944 -0.194118
v -1.193591 0.630944 -0.400527
v -1.339544 0.630944 -0.340072
v 1.193591 0.730944 0.399473
v 1.400000 0.730944 0.193064
v 1.339544 0.730944 0.339017
v 1.400000 0.730944 -0.194118
v 1.193591 0.730944 -0.400527
v 1.339544 0.730944 -0.340071
v 1.400000 0.630944 0.193064
v 1.193591 0.630944 0.399473
v 1.339544 0.630944 0.339017
v 1.193591 0.630944 -0.400527
v 1.400000 0.630944 -0.194118
v 1.339544 0.630944 -0.340072
v -1.312853 0.630944 0.160722
v -1.312853 0.630944 -0.161776
v 1.312853 0.630944 0.160722
v 1.312853 0.630944 -0.161776
v 1.400000 0.007904 -0.331573
v 1.312853 0.007904 -0.276267
v -1.400000 0.007904 -0.331573
v -1.400000 0.007904 0.330518
v 1.400000 0.007904 0.330518
v -1.312853 0.007904 0.275212
v -1.312853 0.007904 -0.276267
v 1.312853 0.007904 0.275212
vn -0.0000 0.1736 0.9848
vn 1.0000 -0.0000 -0.0000
vn -0.0000 0.9848 -0.1736
vn -1.0000 -0.0000 -0.0000
vn -0.0000 -0.1736 -0.9848
vn -0.3827 -0.9098 0.1604
vn -0.9239 -0.3769 0.0665
vn -0.3827 0.9098 -0.1604
vn -0.9239 0.3769 -0.0665
vn 0.3827 -0.9098 0.1604
vn 0.9239 -0.3769 0.0665
vn 0.3827 0.9098 -0.1604
vn 0.9239 0.3769 -0.0665
vn -0.0000 -0.9848 0.1736
vn -0.0000 -0.0000 -1.0000
vn -0.3827 -0.0000 0.9239
vn -0.9239 -0.0000 0.3827
vn -0.3827 -0.0000 -0.9239
vn -0.9239 -0.0000 -0.3827
vn 0.3827 -0.0000 0.9239
vn 0.9239 -0.0000 0.3827
vn 0.3827 -0.0000 -0.9239
vn 0.9239 -0.0000 -0.3827
vn -0.0000 -0.0000 1.0000
vn -0.0000 1.0000 -0.0000
vn -0.2527 0.6060 0.7543
vn 0.2560 -0.6720 -0.6949
vn -0.2560 -0.6720 -0.6949
vn 0.2527 0.6060 0.7543
vn -0.4421 0.1778 0.8792
vn 0.4421 0.1778 0.8792
vn 0.4421 0.1778 -0.8792
vn -0.4421 0.1778 -0.8792
vt 0.903139 0.491570
vt 0.897560 0.471844
vt 0.903139 0.415118
vt 0.973240 0.433159
vt 0.973240 0.470159
vt 0.973240 0.471844
vt 0.973240 0.434844
vt 0.956361 0.483910
vt 0.912610 0.479926
vt 0.913175 0.473146
vt 0.955864 0.477363
vt 0.909158 0.436789
vt 0.909447 0.461015
vt 0.907503 0.463720
vt 0.907155 0.435244
vt 0.903214 0.415742
vt 0.899361 0.421427
vt 0.897765 0.435152
vt 0.911893 0.417323
vt 0.912573 0.424499
vt 0.910166 0.428180
vt 0.908638 0.423550
vt 0.909456 0.474377
vt 0.910700 0.468901
vt 0.955555 0.424757
vt 0.956347 0.417323
vt 0.959551 0.424566
vt 0.957906 0.429382
vt 0.961278 0.436713
vt 0.959172 0.438659
vt 0.958195 0.473512
vt 0.959509 0.478741
vt 0.959142 0.464784
vt 0.961257 0.466998
vt 0.903214 0.490972
vt 0.966244 0.490972
vt 0.966244 0.415742
vt 0.971693 0.471562
vt 0.899194 0.485792
vt 0.971606 0.485792
vt 0.967661 0.491570
vt 0.970097 0.485287
vt 0.967661 0.415118
vt 0.971606 0.420896
vt 0.897560 0.434844
vt 0.899194 0.420896
vt 0.897765 0.471562
vt 0.899361 0.485287
vt 0.066819 0.958264
vt 0.045936 0.958264
vt 0.045936 0.905350
vt 0.066819 0.905350
vt 0.913175 0.479123
vt 0.910700 0.473736
vt 0.909447 0.463728
vt 0.955864 0.484474
vt 0.955555 0.417715
vt 0.910166 0.422059
vt 0.912573 0.417387
vt 0.909158 0.432984
vt 0.959172 0.435357
vt 0.041214 0.958264
vt 0.020332 0.958264
vt 0.020332 0.905350
vt 0.041214 0.905350
vt 0.046782 0.904080
vt 0.046782 0.986425
vt 0.025733 0.986425
vt 0.025733 0.904080
vt 0.012409 0.986425
vt 0.012409 0.904080
vt 0.060106 0.904080
vt 0.060106 0.986426
vt 0.081155 0.904080
vt 0.081155 0.986426
vt 0.957906 0.423584
vt 0.959142 0.468511
vt 0.958195 0.479588
vt 0.970097 0.421427
vt 0.971693 0.435152
vt 0.071541 0.958264
vt 0.071541 0.905350
s 0
f 4/1/1 5/2/1 2/3/1
f 19/4/2 23/5/2 16/6/2 14/7/2
f 22/8/3 11/9/3 4/10/3 17/11/3
f 1/12/4 5/13/4 10/14/4 8/15/4
f 7/16/5 9/17/5 8/18/5
f 7/19/6 2/20/6 3/21/6 9/22/6
f 9/22/7 3/21/7 1/12/7 8/15/7
f 4/10/8 11/9/8 12/23/8 6/24/8
f 6/24/9 12/23/9 10/14/9 5/13/9
f 13/25/10 20/26/10 21/27/10 15/28/10
f 15/28/11 21/27/11 19/29/11 14/30/11
f 22/8/12 17/11/12 18/31/12 24/32/12
f 24/32/13 18/31/13 16/33/13 23/34/13
f 7/19/14 20/26/14 13/25/14 2/20/14
f 11/35/5 22/36/5 7/16/5
f 20/37/5 22/36/5 23/38/5
f 4/1/1 6/39/1 5/2/1
f 16/6/1 18/40/1 17/41/1
f 22/36/5 24/42/5 23/38/5
f 13/43/1 15/44/1 14/7/1
f 17/41/1 4/1/1 13/43/1
f 1/45/1 3/46/1 2/3/1
f 20/37/5 7/16/5 22/36/5
f 10/47/5 12/48/5 11/35/5
f 8/18/5 10/47/5 11/35/5
f 14/7/1 17/41/1 13/43/1
f 43/29/2 47/34/2 40/33/2 38/30/2
f 46/8/15 35/9/15 28/10/15 41/11/15
f 25/12/4 29/13/4 34/14/4 32/15/4
f 31/19/16 26/20/16 27/21/16 33/22/16
f 33/22/17 27/21/17 25/12/17 32/15/17
f 28/10/18 35/9/18 36/23/18 30/24/18
f 30/24/19 36/23/19 34/14/19 29/13/19
f 37/25/20 44/26/20 45/27/20 39/28/20
f 39/28/21 45/27/21 43/29/21 38/30/21
f 46/8/22 41/11/22 42/31/22 48/32/22
f 48/32/23 42/31/23 40/33/23 47/34/23
f 31/19/24 44/26/24 37/25/24 26/20/24
f 47/49/2 43/50/2 57/51/2 53/52/2
f 28/53/25 30/54/25 29/55/25
f 41/56/25 28/53/25 37/57/25
f 27/58/25 26/59/25 25/60/25
f 38/61/25 41/56/25 37/57/25
f 50/62/2 49/63/2 58/64/2 59/65/2
f 42/66/26 15/67/26 13/68/26 41/69/26
f 41/69/4 13/68/4 20/70/4 46/71/4
f 48/72/2 21/73/2 15/67/2 42/66/2
f 21/73/27 48/72/27 46/74/27 20/75/27
f 9/73/4 36/72/4 30/66/4 3/67/4
f 7/70/2 2/68/2 28/69/2 35/71/2
f 36/72/28 9/73/28 7/75/28 35/74/28
f 3/67/29 30/66/29 28/69/29 2/68/29
f 29/55/25 25/60/25 26/59/25
f 37/57/25 39/76/25 38/61/25
f 38/61/25 40/77/25 41/56/25
f 40/77/25 42/78/25 41/56/25
f 26/59/25 37/57/25 28/53/25
f 8/18/5 11/35/5 7/16/5
f 21/79/5 20/37/5 19/80/5
f 23/38/5 19/80/5 20/37/5
f 5/2/1 1/45/1 2/3/1
f 14/7/1 16/6/1 17/41/1
f 2/3/1 13/43/1 4/1/1
f 32/49/4 34/50/4 55/51/4 56/52/4
f 43/50/30 51/62/30 60/65/30 57/51/30
f 49/81/31 32/49/31 56/52/31 58/82/31
f 51/62/4 52/63/4 54/64/4 60/65/4
f 34/50/32 50/62/32 59/65/32 55/51/32
f 52/81/33 47/49/33 53/52/33 54/82/33
f 26/59/25 28/53/25 29/55/25
