# Blender 4.4.3
# www.blender.org
o SM_2D_Bench_V1.1
v -1.400000 1.018032 -0.492143
v -1.193591 0.814759 -0.456300
v -1.339544 0.874296 -0.466798
v -1.193591 1.602605 -0.595219
v -1.400000 1.399332 -0.559376
v -1.339544 1.543068 -0.584721
v -1.193591 0.797395 -0.554781
v -1.400000 1.000668 -0.590624
v -1.339544 0.856932 -0.565279
v -1.400000 1.381968 -0.657857
v -1.193591 1.585241 -0.693700
v -1.339544 1.525704 -0.683202
v 1.193591 0.814759 -0.456300
v 1.400000 1.018032 -0.492143
v 1.339544 0.874296 -0.466798
v 1.400000 1.399332 -0.559376
v 1.193591 1.602605 -0.595219
v 1.339544 1.543068 -0.584721
v 1.400000 1.000668 -0.590624
v 1.193591 0.797395 -0.554781
v 1.339544 0.856932 -0.565279
v 1.193591 1.585241 -0.693700
v 1.400000 1.381968 -0.657857
v 1.339544 1.525704 -0.683202
v -1.400000 0.730944 0.193064
v -1.193591 0.730944 0.399473
v -1.339544 0.730944 0.339017
v -1.193591 0.730944 -0.400527
v -1.400000 0.730944 -0.194118
v -1.339544 0.730944 -0.340071
v -1.193591 0.630944 0.399473
v -1.400000 0.630944 0.193064
v -1.339544 0.630944 0.339017
v -1.400000 0.630944 -0.194118
v -1.193591 0.630944 -0.400527
v -1.339544 0.630944 -0.340072
v 1.193591 0.730944 0.399473
v 1.400000 0.730944 0.193064
v 1.339544 0.730944 0.339017
v 1.400000 0.730944 -0.194118
v 1.193591 0.730944 -0.400527
v 1.339544 0.730944 -0.340071
v 1.400000 0.630944 0.193064
v 1.193591 0.630944 0.399473
v 1.339544 0.630944 0.339017
v 1.193591 0.630944 -0.400527
v 1.400000 0.630944 -0.194118
v 1.339544 0.630944 -0.340072
v -1.312853 0.630944 0.160722
v -1.119293 0.730944 -0.333701
v -1.312853 0.730944 0.160722
v -1.312853 0.730944 -0.161776
v -1.119293 0.730944 0.332647
v 1.119293 0.730944 -0.333701
v 1.312853 0.730944 -0.161776
v 1.119293 0.730944 0.332647
v 1.312853 0.730944 0.160722
v -1.256160 0.730944 0.282292
v -1.256160 0.730944 -0.283346
v -1.312853 0.630944 -0.161776
v 1.256160 0.730944 0.282292
v 1.312853 0.630944 0.160722
v 1.256160 0.730944 -0.283346
v 1.312853 0.630944 -0.161776
v -1.328838 1.030267 -0.588304
v -1.132921 0.857178 -0.557783
v -1.132921 1.528036 -0.676074
v -1.132921 1.542822 -0.592217
v -1.328838 1.045053 -0.504447
v -1.328838 1.369733 -0.561696
v -1.132921 0.871965 -0.473926
v 1.132921 1.542822 -0.592217
v 1.328838 1.369733 -0.561696
v 1.132921 0.871965 -0.473926
v 1.328838 1.045053 -0.504447
v 1.132921 0.857178 -0.557783
v -1.271456 0.907875 -0.566723
v -1.271456 0.922661 -0.482865
v -1.271456 1.492125 -0.583277
v -1.271456 1.477339 -0.667135
v -1.328838 1.354947 -0.645554
v 1.271456 0.922661 -0.482865
v 1.271456 0.907875 -0.566723
v 1.328838 1.030267 -0.588304
v 1.271456 1.477339 -0.667135
v 1.132921 1.528036 -0.676074
v 1.271456 1.492125 -0.583277
v 1.328838 1.354947 -0.645554
v 1.400000 0.007904 -0.331573
v 1.312853 0.007904 -0.276267
v -1.400000 0.007904 -0.331573
v -1.400000 0.007904 0.330518
v 1.400000 0.007904 0.330518
v -1.312853 0.007904 0.275212
v -1.312853 0.007904 -0.276267
v 1.312853 0.007904 0.275212
vn -0.1038 0.1727 0.9795
vn 1.0000 -0.0000 -0.0000
vn 0.0362 0.2635 0.9640
vn -0.0000 0.9848 -0.1736
vn -1.0000 -0.0000 -0.0000
vn 0.0362 -0.2635 -0.9640
vn -0.3827 -0.9098 0.1604
vn -0.9239 -0.3769 0.0665
vn -0.3827 0.9098 -0.1604
vn -0.9239 0.3769 -0.0665
vn 0.3827 -0.9098 0.1604
vn 0.9239 -0.3769 0.0665
vn 0.3827 0.9098 -0.1604
vn 0.9239 0.3769 -0.0665
vn -0.0000 -0.9848 0.1736
vn 0.1038 -0.1727 -0.9795
vn -0.0362 -0.0821 -0.9960
vn -0.0362 0.0821 0.9960
vn 0.1038 0.1727 0.9795
vn 0.0362 -0.0821 -0.9960
vn 0.0362 0.0821 0.9960
vn -0.0000 0.2945 0.9557
vn -0.0362 0.2635 0.9640
vn -0.0362 -0.2635 -0.9640
vn -0.0000 -0.0502 -0.9987
vn -0.1038 -0.1727 -0.9795
vn 0.0851 0.2094 0.9741
vn 0.0851 -0.2094 -0.9741
vn -0.0000 -0.2945 -0.9557
vn -0.0851 -0.1364 -0.9870
vn 0.0851 -0.1364 -0.9870
vn -0.0851 0.1364 0.9870
vn -0.0000 1.0000 -0.0000
vn -0.0000 -0.0000 -1.0000
vn -0.3827 -0.0000 0.9239
vn -0.9239 -0.0000 0.3827
vn -0.3827 -0.0000 -0.9239
vn -0.9239 -0.0000 -0.3827
vn 0.3827 -0.0000 0.9239
vn 0.9239 -0.0000 0.3827
vn 0.3827 -0.0000 -0.9239
vn 0.9239 -0.0000 -0.3827
vn -0.0000 -0.0000 1.0000
vn -0.2527 0.6060 0.7543
vn 0.2560 -0.6720 -0.6949
vn -0.2560 -0.6720 -0.6949
vn 0.2527 0.6060 0.7543
vn -0.0000 0.1736 0.9848
vn -0.0000 -0.1736 -0.9848
vn -0.0851 -0.2094 -0.9741
vn -0.0851 0.2094 0.9741
vn -0.0000 0.0502 0.9987
vn 0.0851 0.1364 0.9870
vn -0.4421 0.1778 0.8792
vn 0.4421 0.1778 0.8792
vn 0.4421 0.1778 -0.8792
vn -0.4421 0.1778 -0.8792
vt 0.959172 0.438659
vt 0.959142 0.464784
vt 0.961278 0.436713
vt 0.961257 0.466998
vt 0.910166 0.428180
vt 0.912573 0.424499
vt 0.956361 0.483910
vt 0.912610 0.479926
vt 0.913175 0.473146
vt 0.955864 0.477363
vt 0.909158 0.436789
vt 0.909447 0.461015
vt 0.907503 0.463720
vt 0.907155 0.435244
vt 0.909456 0.474377
vt 0.911893 0.417323
vt 0.908638 0.423550
vt 0.910700 0.468901
vt 0.955555 0.424757
vt 0.956347 0.417323
vt 0.959551 0.424566
vt 0.957906 0.429382
vt 0.958195 0.473512
vt 0.959509 0.478741
vt 0.066819 0.958264
vt 0.045936 0.958264
vt 0.045936 0.905350
vt 0.066819 0.905350
vt 0.041214 0.958264
vt 0.020332 0.958264
vt 0.020332 0.905350
vt 0.041214 0.905350
vt 0.046782 0.904080
vt 0.046782 0.986425
vt 0.025733 0.986425
vt 0.025733 0.904080
vt 0.012409 0.986425
vt 0.012409 0.904080
vt 0.060106 0.904080
vt 0.060106 0.986426
vt 0.081155 0.904080
vt 0.081155 0.986426
vt 0.928505 0.606641
vt 0.897804 0.585910
vt 0.893847 0.571983
vt 0.986162 0.548984
vt 0.922361 0.607547
vt 0.914578 0.602684
vt 0.892941 0.578127
vt 0.951504 0.514326
vt 0.957648 0.513420
vt 0.965431 0.518283
vt 0.982205 0.535057
vt 0.987068 0.542840
vt 0.071541 0.958264
vt 0.071541 0.905350
s 0
f 14/1/1 16/2/1 73/2/1 75/1/1
f 19/3/2 23/4/2 16/2/2 14/1/2
f 3/5/3 2/6/3 71/6/3 78/5/3
f 22/7/4 11/8/4 4/9/4 17/10/4
f 1/11/5 5/12/5 10/13/5 8/14/5
f 12/15/6 11/8/6 67/8/6 80/15/6
f 7/16/7 2/6/7 3/5/7 9/17/7
f 9/17/8 3/5/8 1/11/8 8/14/8
f 4/9/9 11/8/9 12/15/9 6/18/9
f 6/18/10 12/15/10 10/13/10 5/12/10
f 13/19/11 20/20/11 21/21/11 15/22/11
f 15/22/12 21/21/12 19/3/12 14/1/12
f 22/7/13 17/10/13 18/23/13 24/24/13
f 24/24/14 18/23/14 16/2/14 23/4/14
f 7/16/15 20/20/15 13/19/15 2/6/15
f 8/14/16 10/13/16 81/13/16 65/14/16
f 21/21/17 20/20/17 76/20/17 83/21/17
f 18/23/18 17/10/18 72/10/18 87/23/18
f 5/12/19 1/11/19 69/11/19 70/12/19
f 7/16/20 9/17/20 77/17/20 66/16/20
f 4/9/21 6/18/21 79/18/21 68/9/21
f 2/6/22 13/19/22 74/19/22 71/6/22
f 13/19/23 15/22/23 82/22/23 74/19/23
f 22/7/24 24/24/24 85/24/24 86/7/24
f 20/20/25 7/16/25 66/16/25 76/20/25
f 23/4/26 19/3/26 84/3/26 88/4/26
f 1/11/27 3/5/27 78/5/27 69/11/27
f 10/13/28 12/15/28 80/15/28 81/13/28
f 11/8/29 22/7/29 86/7/29 67/8/29
f 19/3/30 21/21/30 83/21/30 84/3/30
f 9/17/31 8/14/31 65/14/31 77/17/31
f 16/2/32 18/23/32 87/23/32 73/2/32
f 26/6/33 37/19/33 56/19/33 53/6/33
f 43/3/2 47/4/2 40/2/2 38/1/2
f 37/19/33 39/22/33 61/22/33 56/19/33
f 46/7/34 35/8/34 28/9/34 41/10/34
f 25/11/5 29/12/5 34/13/5 32/14/5
f 31/16/35 26/6/35 27/5/35 33/17/35
f 33/17/36 27/5/36 25/11/36 32/14/36
f 28/9/37 35/8/37 36/15/37 30/18/37
f 30/18/38 36/15/38 34/13/38 29/12/38
f 37/19/39 44/20/39 45/21/39 39/22/39
f 39/22/40 45/21/40 43/3/40 38/1/40
f 46/7/41 41/10/41 42/23/41 48/24/41
f 48/24/42 42/23/42 40/2/42 47/4/42
f 31/16/43 44/20/43 37/19/43 26/6/43
f 47/25/2 43/26/2 93/27/2 89/28/2
f 25/11/33 27/5/33 58/5/33 51/11/33
f 40/2/33 42/23/33 63/23/33 55/2/33
f 30/18/33 29/12/33 52/12/33 59/18/33
f 41/10/33 28/9/33 50/9/33 54/10/33
f 39/22/33 38/1/33 57/1/33 61/22/33
f 38/1/33 40/2/33 55/2/33 57/1/33
f 27/5/33 26/6/33 53/6/33 58/5/33
f 60/29/2 49/30/2 94/31/2 95/32/2
f 42/33/44 15/34/44 13/35/44 41/36/44
f 41/36/5 13/35/5 20/37/5 46/38/5
f 48/39/2 21/40/2 15/34/2 42/33/2
f 21/40/45 48/39/45 46/41/45 20/42/45
f 9/40/5 36/39/5 30/33/5 3/34/5
f 7/37/2 2/35/2 28/36/2 35/38/2
f 36/39/46 9/40/46 7/42/46 35/41/46
f 3/34/47 30/33/47 28/36/47 2/35/47
f 56/43/33 55/44/33 54/45/33
f 53/46/33 56/43/33 54/45/33
f 56/43/33 61/47/33 57/48/33
f 55/44/33 56/43/33 57/48/33
f 55/44/33 63/49/33 54/45/33
f 54/45/33 50/50/33 53/46/33
f 50/50/33 59/51/33 52/52/33
f 53/46/33 50/50/33 51/53/33
f 52/52/33 51/53/33 50/50/33
f 51/53/33 58/54/33 53/46/33
f 28/9/33 30/18/33 59/18/33 50/9/33
f 29/12/33 25/11/33 51/11/33 52/12/33
f 42/23/33 41/10/33 54/10/33 63/23/33
f 74/43/48 73/44/48 72/45/48
f 71/46/48 74/43/48 72/45/48
f 66/43/49 81/44/49 67/45/49
f 74/43/48 82/47/48 75/48/48
f 73/44/48 74/43/48 75/48/48
f 73/44/48 87/49/48 72/45/48
f 72/45/48 68/50/48 71/46/48
f 68/50/48 79/51/48 70/52/48
f 71/46/48 68/50/48 69/53/48
f 70/52/48 69/53/48 68/50/48
f 69/53/48 78/54/48 71/46/48
f 76/46/49 66/43/49 67/45/49
f 66/43/49 77/47/49 65/48/49
f 81/44/49 66/43/49 65/48/49
f 81/44/49 80/49/49 67/45/49
f 67/45/49 86/50/49 76/46/49
f 86/50/49 85/51/49 88/52/49
f 76/46/49 86/50/49 84/53/49
f 88/52/49 84/53/49 86/50/49
f 84/53/49 83/54/49 76/46/49
f 24/24/50 23/4/50 88/4/50 85/24/50
f 15/22/51 14/1/51 75/1/51 82/22/51
f 17/10/52 4/9/52 68/9/52 72/10/52
f 6/18/53 5/12/53 70/12/53 79/18/53
f 32/25/5 34/26/5 91/27/5 92/28/5
f 43/26/54 62/29/54 96/32/54 93/27/54
f 49/55/55 32/25/55 92/28/55 94/56/55
f 62/29/5 64/30/5 90/31/5 96/32/5
f 34/26/56 60/29/56 95/32/56 91/27/56
f 64/55/57 47/25/57 89/28/57 90/56/57
