# Blender 4.4.3
# www.blender.org
o SM_Type1_StreetLamp_V1.0
v -0.000000 0.000883 -0.402984
v -0.000000 10.085396 -0.878555
v 0.284953 0.000883 -0.284952
v 0.100019 10.076334 -0.838129
v 0.402984 0.000883 0.000000
v 0.141448 10.054459 -0.740532
v 0.284953 0.000883 0.284952
v 0.100019 10.032583 -0.642935
v -0.000000 0.000883 0.402984
v -0.000000 10.023521 -0.602508
v -0.284953 0.000883 0.284952
v -0.100019 10.032583 -0.642935
v -0.402984 0.000883 0.000000
v -0.141448 10.054459 -0.740532
v -0.284953 0.000883 -0.284952
v -0.100019 10.076334 -0.838129
v -0.000000 11.062815 0.256784
v 0.100019 11.031078 0.283415
v 0.141448 10.954459 0.347706
v 0.100019 10.877841 0.411997
v -0.000000 10.846104 0.438627
v -0.100019 10.877841 0.411997
v -0.141448 10.954459 0.347706
v -0.100019 11.031078 0.283415
v -0.000000 11.395906 1.799999
v 0.100019 11.354478 1.799999
v 0.141448 11.254458 1.799999
v 0.100019 11.154440 1.799999
v -0.000000 11.113010 1.799999
v -0.100019 11.154440 1.799999
v -0.141448 11.254458 1.799999
v -0.100019 11.354478 1.799999
v -0.000000 11.395906 1.899999
v 0.195850 11.354478 1.899999
v 0.276973 11.254458 1.899999
v 0.195850 11.154440 1.899999
v -0.000000 11.113010 1.899999
v -0.195850 11.154440 1.899999
v -0.276973 11.254458 1.899999
v -0.195850 11.354478 1.899999
v -0.000000 11.395906 2.999999
v 0.195850 11.354478 2.999999
v 0.276973 11.254458 2.999999
v 0.195850 11.154440 2.999999
v -0.000000 11.113010 2.999999
v -0.195850 11.154440 2.999999
v -0.276973 11.254458 2.999999
v -0.195850 11.354478 2.999999
v -0.000000 11.353472 3.099998
v 0.137095 11.324472 3.099999
v 0.193881 11.254458 3.099999
v 0.137095 11.184445 3.099999
v -0.000000 11.155445 3.099998
v -0.137095 11.184445 3.099999
v -0.193881 11.254458 3.099999
v -0.137095 11.324472 3.099999
v -0.000000 11.254458 3.154248
v -0.000000 10.980579 1.950760
v 0.127545 11.018186 1.950760
v -0.127545 11.018186 1.950760
v -0.000000 10.980579 2.949238
v 0.127545 11.018186 2.949238
v -0.127545 11.018186 2.949238
vn 0.3794 -0.0437 -0.9242
vn 0.9229 -0.0043 -0.3850
vn 0.9207 0.0526 0.3868
vn 0.3771 0.0923 0.9215
vn -0.3771 0.0923 0.9215
vn -0.9207 0.0526 0.3868
vn -0.9229 -0.0043 -0.3850
vn -0.3794 -0.0437 -0.9242
vn 0.9071 -0.3263 0.2657
vn -0.9071 -0.3263 0.2657
vn 0.3456 -0.7343 0.5843
vn -0.9080 0.3210 -0.2694
vn 0.9080 0.3210 -0.2694
vn -0.3456 -0.7343 0.5843
vn -0.3494 0.7118 -0.6093
vn 0.3494 0.7118 -0.6093
vn -0.9135 0.3981 -0.0836
vn -0.3590 -0.9156 0.1810
vn 0.9134 -0.3990 0.0810
vn 0.3597 0.9123 -0.1957
vn -0.3597 0.9123 -0.1957
vn -0.9134 -0.3990 0.0810
vn 0.3590 -0.9156 0.1810
vn 0.9135 0.3981 -0.0836
vn 0.2675 -0.9550 -0.1282
vn 0.6071 0.3719 -0.7022
vn -0.6071 0.3719 -0.7022
vn -0.2675 -0.9550 -0.1282
vn 0.6071 -0.3719 -0.7022
vn 0.2674 0.9550 -0.1281
vn -0.2674 0.9550 -0.1281
vn -0.6071 -0.3719 -0.7022
vn -0.2070 0.9784 -0.0000
vn -0.7767 -0.6299 -0.0000
vn -0.0909 -0.3721 0.9237
vn 0.7767 0.6299 -0.0000
vn -0.7767 0.6299 -0.0000
vn -0.0910 -0.3721 -0.9237
vn 0.7767 -0.6299 -0.0000
vn 0.2070 0.9784 -0.0000
vn -0.1911 -0.9036 0.3834
vn 0.6526 -0.5293 0.5422
vn 0.1911 0.9036 0.3834
vn -0.1911 0.9036 0.3834
vn -0.6526 -0.5293 0.5422
vn 0.1911 -0.9036 0.3834
vn 0.6526 0.5293 0.5422
vn -0.6526 0.5293 0.5422
vn -0.1011 0.4780 0.8725
vn -0.2632 -0.2135 0.9408
vn 0.1011 -0.4780 0.8725
vn 0.2632 0.2135 0.9408
vn -0.2632 0.2135 0.9408
vn -0.1011 -0.4780 0.8725
vn 0.2632 -0.2135 0.9408
vn 0.1011 0.4780 0.8725
vn 0.2828 -0.9592 -0.0000
vn -0.2828 -0.9592 -0.0000
vn 0.8940 -0.4481 -0.0000
vn -0.8940 -0.4481 -0.0000
vn 0.0910 -0.3721 -0.9237
vn 0.0909 -0.3721 0.9237
vt 0.644700 0.320651
vt 0.648058 0.391858
vt 0.647773 0.391794
vt 0.643867 0.320651
vt 0.647084 0.391640
vt 0.641855 0.320651
vt 0.646394 0.391485
vt 0.639843 0.320651
vt 0.646109 0.391421
vt 0.639009 0.320651
vt 0.640106 0.398701
vt 0.639652 0.398160
vt 0.639464 0.397936
vt 0.640560 0.399242
vt 0.640748 0.399466
vt 0.629145 0.400113
vt 0.629145 0.400819
vt 0.629145 0.399114
vt 0.629145 0.399407
vt 0.629145 0.401112
vt 0.628439 0.399407
vt 0.628439 0.399114
vt 0.628439 0.400819
vt 0.628439 0.400113
vt 0.628439 0.401112
vt 0.620672 0.400819
vt 0.620672 0.401112
vt 0.620672 0.399407
vt 0.620672 0.400113
vt 0.689923 0.388000
vt 0.693124 0.319763
vt 0.700679 0.357067
vt 0.701428 0.388762
vt 0.769647 0.319763
vt 0.772933 0.393501
vt 0.760777 0.392695
vt 0.761644 0.360637
vt 0.620672 0.399114
vt 0.619966 0.399414
vt 0.619966 0.399619
vt 0.619966 0.400113
vt 0.619966 0.400812
vt 0.619966 0.400607
vt 0.619583 0.400113
vt 0.760818 0.361213
vt 0.699855 0.357209
vt 0.768842 0.320396
vt 0.692319 0.319851
s 0
f 1/1/1 2/2/1 4/3/1 3/4/1
f 3/4/2 4/3/2 6/5/2 5/6/2
f 5/6/3 6/5/3 8/7/3 7/8/3
f 7/8/4 8/7/4 10/9/4 9/10/4
f 9/10/5 10/9/5 12/7/5 11/8/5
f 11/8/6 12/7/6 14/5/6 13/6/6
f 13/6/7 14/5/7 16/3/7 15/4/7
f 15/4/8 16/3/8 2/2/8 1/1/8
f 8/7/9 6/5/9 19/11/9 20/12/9
f 14/5/10 12/7/10 22/12/10 23/11/10
f 10/9/11 8/7/11 20/12/11 21/13/11
f 16/3/12 14/5/12 23/11/12 24/14/12
f 6/5/13 4/3/13 18/14/13 19/11/13
f 12/7/14 10/9/14 21/13/14 22/12/14
f 2/2/15 16/3/15 24/14/15 17/15/15
f 4/3/16 2/2/16 17/15/16 18/14/16
f 24/14/17 23/11/17 31/16/17 32/17/17
f 22/12/18 21/13/18 29/18/18 30/19/18
f 20/12/19 19/11/19 27/16/19 28/19/19
f 18/14/20 17/15/20 25/20/20 26/17/20
f 17/15/21 24/14/21 32/17/21 25/20/21
f 23/11/22 22/12/22 30/19/22 31/16/22
f 21/13/23 20/12/23 28/19/23 29/18/23
f 19/11/24 18/14/24 26/17/24 27/16/24
f 29/18/25 28/19/25 36/21/25 37/22/25
f 27/16/26 26/17/26 34/23/26 35/24/26
f 32/17/27 31/16/27 39/24/27 40/23/27
f 30/19/28 29/18/28 37/22/28 38/21/28
f 28/19/29 27/16/29 35/24/29 36/21/29
f 26/17/30 25/20/30 33/25/30 34/23/30
f 25/20/31 32/17/31 40/23/31 33/25/31
f 31/16/32 30/19/32 38/21/32 39/24/32
f 33/25/33 40/23/33 48/26/33 41/27/33
f 39/24/34 38/21/34 46/28/34 47/29/34
f 45/30/35 46/31/35 63/32/35 61/33/35
f 35/24/36 34/23/36 42/26/36 43/29/36
f 40/23/37 39/24/37 47/29/37 48/26/37
f 38/34/38 37/35/38 58/36/38 60/37/38
f 36/21/39 35/24/39 43/29/39 44/28/39
f 34/23/40 33/25/40 41/27/40 42/26/40
f 46/28/41 45/38/41 53/39/41 54/40/41
f 44/28/42 43/29/42 51/41/42 52/40/42
f 42/26/43 41/27/43 49/42/43 50/43/43
f 41/27/44 48/26/44 56/43/44 49/42/44
f 47/29/45 46/28/45 54/40/45 55/41/45
f 45/38/46 44/28/46 52/40/46 53/39/46
f 43/29/47 42/26/47 50/43/47 51/41/47
f 48/26/48 47/29/48 55/41/48 56/43/48
f 49/42/49 56/43/49 57/44/49
f 55/41/50 54/40/50 57/44/50
f 53/39/51 52/40/51 57/44/51
f 51/41/52 50/43/52 57/44/52
f 56/43/53 55/41/53 57/44/53
f 54/40/54 53/39/54 57/44/54
f 52/40/55 51/41/55 57/44/55
f 50/43/56 49/42/56 57/44/56
f 58/36/57 59/45/57 62/46/57 61/33/57
f 60/37/58 58/36/58 61/33/58 63/32/58
f 36/47/59 44/48/59 62/46/59 59/45/59
f 46/31/60 38/34/60 60/37/60 63/32/60
f 37/35/61 36/47/61 59/45/61 58/36/61
f 44/48/62 45/30/62 61/33/62 62/46/62
