# Blender 4.4.3
# www.blender.org
o SM_Green_VendingMachine_V1.0
v -0.500000 0.000000 0.350000
v -0.535380 1.500000 0.350000
v -0.500000 0.000000 -0.350000
v -0.535380 1.500000 -0.350000
v 0.500000 0.000000 0.350000
v 0.534324 1.500000 0.350000
v 0.500000 0.000000 -0.350000
v 0.534324 1.500000 -0.350000
v -0.503084 0.272727 0.350000
v -0.503084 0.272727 -0.350000
v 0.502991 0.272727 -0.350000
v 0.502991 0.272727 0.350000
v 0.233766 0.000000 -0.350000
v 0.249533 1.500000 -0.350000
v 0.233766 0.000000 0.350000
v 0.249533 1.500000 0.350000
v 0.235140 0.272727 0.350000
v 0.235140 0.272727 -0.350000
v -0.522462 0.886364 0.350000
v -0.142924 1.500000 0.350000
v -0.133972 0.272727 0.350000
v 0.243776 0.886364 0.350000
v -0.531545 1.193182 0.350000
v -0.339152 1.500000 0.350000
v -0.318528 0.272727 0.350000
v 0.239008 0.579545 0.350000
v -0.511763 0.579545 0.350000
v 0.053304 1.500000 0.350000
v 0.050584 0.272727 0.350000
v 0.247824 1.193182 0.350000
v -0.489098 1.176439 0.350000
v -0.492936 1.466515 0.350000
v -0.317945 1.466515 0.350000
v -0.299061 0.306212 0.350000
v -0.463937 0.306212 0.350000
v 0.198716 0.596288 0.350000
v 0.195593 0.306212 0.350000
v -0.471767 0.596288 0.350000
v -0.481098 0.886364 0.350000
v 0.032136 1.466515 0.350000
v -0.142909 1.466515 0.350000
v 0.030711 0.306212 0.350000
v -0.134176 0.306212 0.350000
v 0.205626 1.176439 0.350000
v 0.202436 0.886364 0.350000
v -0.310234 0.886364 0.350000
v 0.031554 0.886364 0.350000
v -0.139343 0.886364 0.350000
v -0.136534 0.596288 0.350000
v -0.141752 1.176439 0.350000
v 0.207156 1.466515 0.350000
v 0.031947 1.176439 0.350000
v 0.031096 0.596288 0.350000
v -0.304160 0.596288 0.350000
v -0.315443 1.176439 0.350000
vn -0.9995 -0.0296 -0.0075
vn -0.0000 -0.0000 -1.0000
vn 0.9997 -0.0255 -0.0000
vn -0.0000 -0.0000 1.0000
vn -0.0000 1.0000 -0.0000
vn 0.9999 -0.0110 -0.0000
vn -0.9999 -0.0113 -0.0000
vn -0.9996 -0.0283 -0.0000
vn -0.9994 -0.0348 0.0029
vn -0.9999 -0.0125 -0.0000
vn -0.9996 -0.0263 -0.0046
vt 0.865592 0.854503
vt 0.845820 0.866854
vt 0.865592 0.842153
vt 0.831312 0.817452
vt 0.831312 0.866854
vt 0.826048 0.866854
vt 0.826048 0.817452
vt 0.806277 0.866854
vt 0.806277 0.817452
vt 0.852653 0.806808
vt 0.863314 0.806808
vt 0.861014 0.808754
vt 0.851503 0.808754
vt 0.826048 0.869424
vt 0.806277 0.868952
vt 0.806277 0.868481
vt 0.750466 0.805760
vt 0.750466 0.872463
vt 0.736728 0.872463
vt 0.722990 0.872463
vt 0.709252 0.872463
vt 0.695515 0.872463
vt 0.695515 0.805760
vt 0.770404 0.805760
vt 0.770404 0.872463
vt 0.826048 0.867538
vt 0.806277 0.867538
vt 0.086796 0.907153
vt 0.086796 0.956555
vt 0.081532 0.956555
vt 0.081532 0.944205
vt 0.081532 0.931854
vt 0.081532 0.919504
vt 0.081532 0.907153
vt 0.845820 0.817452
vt 0.863314 0.878132
vt 0.852653 0.878132
vt 0.851503 0.876186
vt 0.861014 0.876186
vt 0.863314 0.824639
vt 0.861014 0.825612
vt 0.820670 0.824639
vt 0.820670 0.806808
vt 0.822970 0.808754
vt 0.822970 0.825612
vt 0.863314 0.842470
vt 0.861014 0.842470
vt 0.863314 0.860301
vt 0.861014 0.859328
vt 0.831331 0.806808
vt 0.841992 0.806808
vt 0.841992 0.808754
vt 0.832481 0.808754
vt 0.831331 0.878132
vt 0.820670 0.878132
vt 0.822970 0.876186
vt 0.832481 0.876186
vt 0.841992 0.878132
vt 0.841992 0.876186
vt 0.820670 0.860301
vt 0.820670 0.842470
vt 0.822970 0.842470
vt 0.822970 0.859328
vt 0.865592 0.817451
vt 0.865592 0.829802
vt 0.865592 0.866854
vt 0.806277 0.868010
vt 0.806277 0.869424
vt 0.826725 0.689095
vt 0.826725 0.701446
vt 0.823098 0.701446
vt 0.823098 0.689095
vt 0.831522 0.590737
vt 0.831522 0.603088
vt 0.827895 0.603088
vt 0.827895 0.590737
vt 0.702671 0.491236
vt 0.702671 0.503587
vt 0.699044 0.503587
vt 0.699044 0.491236
vt 0.805158 0.493176
vt 0.805158 0.505527
vt 0.801531 0.505527
vt 0.801531 0.493176
vt 0.633236 0.492441
vt 0.633236 0.504792
vt 0.629609 0.504792
vt 0.629609 0.492441
s 0
f 23/1/1 4/2/1 19/3/1
f 18/4/2 14/5/2 8/6/2 11/7/2
f 11/7/3 8/6/3 6/8/3 12/9/3
f 29/10/4 17/11/4 37/12/4 42/13/4
f 4/14/5 24/15/5 20/16/5
f 15/17/4 17/18/4 29/19/4 21/20/4 25/21/4 9/22/4 1/23/4
f 7/24/6 11/25/6 12/25/6 5/24/6
f 13/17/2 18/18/2 11/25/2 7/24/2
f 1/23/7 9/22/7 10/22/7 3/23/7
f 3/23/2 10/22/2 18/18/2 13/17/2
f 5/24/4 12/25/4 17/18/4 15/17/4
f 8/6/5 14/26/5 16/27/5 6/8/5
f 12/28/4 6/29/4 16/30/4 30/31/4 22/32/4 26/33/4 17/34/4
f 10/35/2 4/2/2 14/5/2 18/4/2
f 16/36/4 28/37/4 40/38/4 51/39/4
f 17/11/4 26/40/4 36/41/4 37/12/4
f 27/42/4 9/43/4 35/44/4 38/45/4
f 26/40/4 22/46/4 45/47/4 36/41/4
f 22/46/4 30/48/4 44/49/4 45/47/4
f 25/50/4 21/51/4 43/52/4 34/53/4
f 24/54/4 2/55/4 32/56/4 33/57/4
f 21/51/4 29/10/4 42/13/4 43/52/4
f 20/58/4 24/54/4 33/57/4 41/59/4
f 28/37/4 20/58/4 41/59/4 40/38/4
f 23/60/4 19/61/4 39/62/4 31/63/4
f 30/48/4 16/36/4 51/39/4 44/49/4
f 19/61/4 27/42/4 38/45/4 39/62/4
f 9/43/4 25/50/4 34/53/4 35/44/4
f 2/55/4 23/60/4 31/63/4 32/56/4
f 10/35/8 9/64/8 27/65/8
f 10/35/9 27/65/9 19/3/9
f 2/66/10 4/2/10 23/1/10
f 4/2/11 10/35/11 19/3/11
f 16/27/5 14/26/5 28/67/5
f 14/26/5 4/14/5 20/16/5
f 28/67/5 14/26/5 20/16/5
f 4/14/5 2/68/5 24/15/5
f 55/69/4 33/70/4 32/71/4 31/72/4
f 54/73/4 46/74/4 39/75/4 38/76/4
f 53/77/4 47/78/4 48/79/4 49/80/4
f 52/81/4 40/82/4 41/83/4 50/84/4
f 47/73/4 52/74/4 50/75/4 48/76/4
f 45/69/4 44/70/4 52/71/4 47/72/4
f 44/85/4 51/86/4 40/87/4 52/88/4
f 42/69/4 53/70/4 49/71/4 43/72/4
f 37/73/4 36/74/4 53/75/4 42/76/4
f 36/85/4 45/86/4 47/87/4 53/88/4
f 34/81/4 54/82/4 38/83/4 35/84/4
f 43/85/4 49/86/4 54/87/4 34/88/4
f 49/81/4 48/82/4 46/83/4 54/84/4
f 46/77/4 55/78/4 31/79/4 39/80/4
f 48/85/4 50/86/4 55/87/4 46/88/4
f 50/73/4 41/74/4 33/75/4 55/76/4
