# Blender 4.4.3
# www.blender.org
o SM_Purple_VendingMachine_V1.0
v -0.500000 0.000000 0.350000
v -0.533326 1.500000 0.350000
v -0.500000 0.000000 -0.350000
v -0.533326 1.500000 -0.350000
v 0.500000 0.000000 0.350000
v 0.532331 1.500000 0.350000
v 0.500000 0.000000 -0.350000
v 0.532331 1.500000 -0.350000
v -0.502904 0.272727 0.350000
v -0.502904 0.272727 -0.350000
v 0.502818 0.272727 -0.350000
v 0.502818 0.272727 0.350000
v 0.233766 0.000000 -0.350000
v 0.248617 1.500000 -0.350000
v 0.233766 0.000000 0.350000
v 0.248617 1.500000 0.350000
v 0.235061 0.272727 0.350000
v 0.235061 0.272727 -0.350000
v -0.521157 0.886364 0.350000
v -0.142354 1.500000 0.350000
v -0.133922 0.272727 0.350000
v 0.243195 0.886364 0.350000
v -0.529713 1.193182 0.350000
v -0.337840 1.500000 0.350000
v -0.318413 0.272727 0.350000
v 0.238704 0.579545 0.350000
v -0.511080 0.579545 0.350000
v 0.053131 1.500000 0.350000
v 0.050569 0.272727 0.350000
v 0.247007 1.193182 0.350000
v -0.487433 1.176439 0.350000
v -0.491048 1.466515 0.350000
v -0.316715 1.466515 0.350000
v -0.298928 0.306212 0.350000
v -0.463733 0.306212 0.350000
v 0.198453 0.596288 0.350000
v 0.195512 0.306212 0.350000
v -0.471109 0.596288 0.350000
v -0.479898 0.886364 0.350000
v 0.032043 1.466515 0.350000
v -0.142341 1.466515 0.350000
v 0.030701 0.306212 0.350000
v -0.134115 0.306212 0.350000
v 0.204962 1.176439 0.350000
v 0.201957 0.886364 0.350000
v -0.309452 0.886364 0.350000
v 0.031495 0.886364 0.350000
v -0.138981 0.886364 0.350000
v -0.136336 0.596288 0.350000
v -0.141250 1.176439 0.350000
v 0.206404 1.466515 0.350000
v 0.031865 1.176439 0.350000
v 0.031063 0.596288 0.350000
v -0.303731 0.596288 0.350000
v -0.314358 1.176439 0.350000
vn -0.9996 -0.0279 -0.0071
vn -0.0000 -0.0000 -1.0000
vn 0.9997 -0.0240 -0.0000
vn -0.0000 -0.0000 1.0000
vn -0.0000 1.0000 -0.0000
vn 0.9999 -0.0103 -0.0000
vn -0.9999 -0.0106 -0.0000
vn -0.9996 -0.0266 -0.0000
vn -0.9995 -0.0328 0.0027
vn -0.9999 -0.0118 -0.0000
vn -0.9997 -0.0248 -0.0043
vt 0.475034 0.775387
vt 0.455263 0.787738
vt 0.475034 0.763037
vt 0.440755 0.738335
vt 0.440755 0.787738
vt 0.435491 0.787738
vt 0.435491 0.738335
vt 0.415720 0.787738
vt 0.415720 0.738335
vt 0.462096 0.727692
vt 0.472757 0.727692
vt 0.470457 0.729638
vt 0.460946 0.729638
vt 0.435491 0.790308
vt 0.415720 0.789836
vt 0.415720 0.789365
vt 0.359909 0.726644
vt 0.359909 0.793347
vt 0.346171 0.793347
vt 0.332433 0.793347
vt 0.318695 0.793347
vt 0.304957 0.793347
vt 0.304957 0.726644
vt 0.379847 0.726644
vt 0.379847 0.793347
vt 0.435491 0.788422
vt 0.415720 0.788422
vt 0.086796 0.907153
vt 0.086796 0.956555
vt 0.081532 0.956555
vt 0.081532 0.944205
vt 0.081532 0.931854
vt 0.081532 0.919504
vt 0.081532 0.907153
vt 0.455263 0.738335
vt 0.472757 0.799016
vt 0.462096 0.799016
vt 0.460946 0.797070
vt 0.470457 0.797070
vt 0.472757 0.745523
vt 0.470457 0.746496
vt 0.430113 0.745523
vt 0.430113 0.727692
vt 0.432413 0.729638
vt 0.432413 0.746496
vt 0.472757 0.763354
vt 0.470457 0.763354
vt 0.472757 0.781185
vt 0.470457 0.780212
vt 0.440774 0.727692
vt 0.451435 0.727692
vt 0.451435 0.729638
vt 0.441924 0.729638
vt 0.440774 0.799016
vt 0.430113 0.799016
vt 0.432413 0.797070
vt 0.441924 0.797070
vt 0.451435 0.799016
vt 0.451435 0.797070
vt 0.430113 0.781185
vt 0.430113 0.763354
vt 0.432413 0.763354
vt 0.432413 0.780212
vt 0.475034 0.738335
vt 0.475034 0.750686
vt 0.475034 0.787738
vt 0.415720 0.788894
vt 0.415720 0.790308
vt 0.826725 0.591142
vt 0.826725 0.603492
vt 0.823098 0.603492
vt 0.823098 0.591142
vt 0.831522 0.492784
vt 0.831522 0.505134
vt 0.827895 0.505134
vt 0.827895 0.492784
vt 0.637997 0.491236
vt 0.637997 0.503587
vt 0.634370 0.503587
vt 0.634370 0.491236
vt 0.731693 0.493176
vt 0.731693 0.505527
vt 0.728066 0.505527
vt 0.728066 0.493176
vt 0.828641 0.682452
vt 0.828641 0.694803
vt 0.825014 0.694803
vt 0.825014 0.682452
s 0
f 23/1/1 4/2/1 19/3/1
f 18/4/2 14/5/2 8/6/2 11/7/2
f 11/7/3 8/6/3 6/8/3 12/9/3
f 29/10/4 17/11/4 37/12/4 42/13/4
f 4/14/5 24/15/5 20/16/5
f 15/17/4 17/18/4 29/19/4 21/20/4 25/21/4 9/22/4 1/23/4
f 7/24/6 11/25/6 12/25/6 5/24/6
f 13/17/2 18/18/2 11/25/2 7/24/2
f 1/23/7 9/22/7 10/22/7 3/23/7
f 3/23/2 10/22/2 18/18/2 13/17/2
f 5/24/4 12/25/4 17/18/4 15/17/4
f 8/6/5 14/26/5 16/27/5 6/8/5
f 12/28/4 6/29/4 16/30/4 30/31/4 22/32/4 26/33/4 17/34/4
f 10/35/2 4/2/2 14/5/2 18/4/2
f 16/36/4 28/37/4 40/38/4 51/39/4
f 17/11/4 26/40/4 36/41/4 37/12/4
f 27/42/4 9/43/4 35/44/4 38/45/4
f 26/40/4 22/46/4 45/47/4 36/41/4
f 22/46/4 30/48/4 44/49/4 45/47/4
f 25/50/4 21/51/4 43/52/4 34/53/4
f 24/54/4 2/55/4 32/56/4 33/57/4
f 21/51/4 29/10/4 42/13/4 43/52/4
f 20/58/4 24/54/4 33/57/4 41/59/4
f 28/37/4 20/58/4 41/59/4 40/38/4
f 23/60/4 19/61/4 39/62/4 31/63/4
f 30/48/4 16/36/4 51/39/4 44/49/4
f 19/61/4 27/42/4 38/45/4 39/62/4
f 9/43/4 25/50/4 34/53/4 35/44/4
f 2/55/4 23/60/4 31/63/4 32/56/4
f 10/35/8 9/64/8 27/65/8
f 10/35/9 27/65/9 19/3/9
f 2/66/10 4/2/10 23/1/10
f 4/2/11 10/35/11 19/3/11
f 16/27/5 14/26/5 28/67/5
f 14/26/5 4/14/5 20/16/5
f 28/67/5 14/26/5 20/16/5
f 4/14/5 2/68/5 24/15/5
f 55/69/4 33/70/4 32/71/4 31/72/4
f 54/73/4 46/74/4 39/75/4 38/76/4
f 53/77/4 47/78/4 48/79/4 49/80/4
f 52/81/4 40/82/4 41/83/4 50/84/4
f 47/73/4 52/74/4 50/75/4 48/76/4
f 45/69/4 44/70/4 52/71/4 47/72/4
f 44/85/4 51/86/4 40/87/4 52/88/4
f 42/69/4 53/70/4 49/71/4 43/72/4
f 37/73/4 36/74/4 53/75/4 42/76/4
f 36/85/4 45/86/4 47/87/4 53/88/4
f 34/81/4 54/82/4 38/83/4 35/84/4
f 43/85/4 49/86/4 54/87/4 34/88/4
f 49/81/4 48/82/4 46/83/4 54/84/4
f 46/77/4 55/78/4 31/79/4 39/80/4
f 48/85/4 50/86/4 55/87/4 46/88/4
f 50/73/4 41/74/4 33/75/4 55/76/4
