# Blender 4.4.3
# www.blender.org
o SM_RoofTop-1_Billboard_V1.0
v -2.968211 0.943732 0.103559
v -2.968211 3.943732 0.103559
v -2.968211 0.943732 -0.096441
v -2.968211 3.943732 -0.096441
v -1.982711 0.943732 -0.096441
v -1.982711 0.943732 0.103559
v -1.253711 0.943732 -0.096441
v -1.253711 0.943732 0.103559
v -1.902521 0.743732 -0.212441
v -1.902521 0.743732 0.219559
v -1.333901 0.743732 -0.212441
v -1.333901 0.743732 0.219559
v -1.855136 -0.056268 -0.176441
v -1.855136 -0.056268 0.183559
v -1.381286 -0.056268 -0.176441
v -1.381286 -0.056268 0.183559
v 3.031789 0.943732 0.103559
v 3.031789 3.943732 0.103559
v 3.031789 0.943732 -0.096441
v 3.031789 3.943732 -0.096441
v 2.046289 0.943732 -0.096441
v 1.966099 0.743732 -0.176441
v 1.966099 0.743732 0.183559
v 1.397479 0.743732 -0.176441
v 1.397479 0.743732 0.183559
v 1.918714 -0.056268 -0.176441
v 1.918714 -0.056268 0.183559
v 1.444864 -0.056268 -0.176441
v 1.444864 -0.056268 0.183559
v 1.312920 0.943732 -0.096441
v -1.977530 3.943732 0.103559
v -1.249341 3.943732 0.103559
v 1.312920 3.943732 0.103559
v 2.041109 3.943732 0.103559
v 2.041108 3.943732 -0.096441
v 1.312919 3.943732 -0.096441
v -1.249341 3.943732 -0.096441
v -1.977530 3.943732 -0.096441
v 2.041108 0.943732 0.103559
v 1.312919 0.943732 0.103559
v -2.803299 1.095494 0.103559
v -2.803299 3.791970 0.103559
v -1.971987 1.095494 0.103559
v -1.283071 1.095494 0.103559
v 2.866790 1.095494 0.103559
v 2.866790 3.791970 0.103559
v 2.030582 3.791970 0.103559
v -1.967091 3.791970 0.103559
v -1.278942 3.791970 0.103559
v 1.342433 3.791970 0.103559
v 2.030582 1.095494 0.103559
v 1.342432 1.095494 0.103559
vn -1.0000 -0.0000 -0.0000
vn -0.0000 1.0000 -0.0000
vn -0.0000 -0.0000 -1.0000
vn -0.0000 0.5017 -0.8650
vn -0.0000 -1.0000 -0.0000
vn -0.0000 -0.0450 0.9990
vn 0.9282 -0.3722 -0.0000
vn -0.0000 0.5017 0.8650
vn -0.9282 -0.3722 -0.0000
vn -0.9983 -0.0591 -0.0000
vn -0.0000 -0.0450 -0.9990
vn 0.9983 -0.0591 -0.0000
vn -0.0000 -0.0000 1.0000
vn 1.0000 -0.0000 -0.0000
vn -0.0000 0.3714 -0.9285
vn -0.9211 -0.3894 -0.0000
vn -0.0000 0.3714 0.9285
vn 0.9323 -0.3617 0.0086
vt 0.576039 0.884585
vt 0.557018 0.884585
vt 0.557018 0.871905
vt 0.576039 0.871904
vt 0.525256 0.884585
vt 0.518974 0.884585
vt 0.518974 0.871904
vt 0.525256 0.871904
vt 0.667057 0.806548
vt 0.681079 0.806548
vt 0.681079 0.875578
vt 0.666983 0.875578
vt 0.003812 0.907321
vt 0.089546 0.907321
vt 0.080558 0.915249
vt 0.015175 0.915019
vt 0.582288 0.871904
vt 0.582288 0.884585
vt 0.582288 0.897265
vt 0.566014 0.897265
vt 0.566014 0.884585
vt 0.079096 0.971722
vt 0.013713 0.971492
vt 0.035190 0.945845
vt 0.052689 0.951896
vt 0.090459 0.979420
vt 0.004724 0.979420
vt 0.041582 0.934844
vt 0.059081 0.940896
vt 0.651788 0.808256
vt 0.661372 0.808256
vt 0.659918 0.810689
vt 0.650861 0.810689
vt 0.499952 0.884585
vt 0.499952 0.871904
vt 0.493671 0.884585
vt 0.493704 0.871904
vt 0.595441 0.808256
vt 0.608480 0.808256
vt 0.609935 0.810689
vt 0.597613 0.810689
vt 0.661440 0.856361
vt 0.651845 0.856361
vt 0.650916 0.853927
vt 0.659983 0.853927
vt 0.674411 0.856361
vt 0.672240 0.853927
vt 0.674411 0.808256
vt 0.672240 0.810689
vt 0.595710 0.806548
vt 0.609732 0.806548
vt 0.609806 0.875578
vt 0.595710 0.875578
vt 0.620167 0.806548
vt 0.620167 0.875578
vt 0.656685 0.806548
vt 0.656623 0.875578
vt 0.550736 0.884585
vt 0.550736 0.871905
vt 0.546119 0.884585
vt 0.546119 0.871904
vt 0.529873 0.884585
vt 0.529873 0.871904
vt 0.661468 0.415018
vt 0.674556 0.415018
vt 0.674556 0.488798
vt 0.661468 0.488798
vt 0.595291 0.415018
vt 0.608311 0.415018
vt 0.608379 0.488798
vt 0.595291 0.488798
vt 0.617941 0.415018
vt 0.617999 0.488798
vt 0.651848 0.415018
vt 0.651848 0.488798
vt 0.608480 0.856361
vt 0.595441 0.856361
vt 0.597613 0.853927
vt 0.609935 0.853927
vt 0.618064 0.856361
vt 0.618992 0.853927
vt 0.618064 0.808256
vt 0.618992 0.810689
s 0
f 1/1/1 2/2/1 4/3/1 3/4/1
f 34/5/2 18/6/2 20/7/2 35/8/2
f 5/9/3 3/10/3 4/11/3 38/12/3
f 5/13/4 7/14/4 11/15/4 9/16/4
f 1/1/5 3/4/5 5/17/5 6/18/5
f 30/18/5 40/19/5 8/20/5 7/21/5
f 12/22/6 10/23/6 14/24/6 16/25/6
f 7/14/7 8/26/7 12/22/7 11/15/7
f 8/26/8 6/27/8 10/23/8 12/22/8
f 6/27/9 5/13/9 9/16/9 10/23/9
f 10/23/10 9/16/10 13/28/10 14/24/10
f 9/16/11 11/15/11 15/29/11 13/28/11
f 11/15/12 12/22/12 16/25/12 15/29/12
f 32/30/13 31/31/13 48/32/13 49/33/13
f 17/34/14 19/35/14 20/7/14 18/6/14
f 21/13/15 22/16/15 24/15/15 30/14/15
f 17/34/5 39/36/5 21/37/5 19/35/5
f 25/22/13 29/25/13 27/24/13 23/23/13
f 30/14/16 24/15/16 25/22/16 40/26/16
f 40/26/17 25/22/17 23/23/17 39/27/17
f 39/27/18 23/23/18 22/16/18 21/13/18
f 23/23/12 27/24/12 26/28/12 22/16/12
f 22/16/3 26/28/3 28/29/3 24/15/3
f 24/15/10 28/29/10 29/25/10 25/22/10
f 18/38/13 34/39/13 47/40/13 46/41/13
f 6/42/13 8/43/13 44/44/13 43/45/13
f 1/46/13 6/42/13 43/45/13 41/47/13
f 31/31/13 2/48/13 42/49/13 48/32/13
f 19/50/3 21/51/3 35/52/3 20/53/3
f 21/51/3 30/54/3 36/55/3 35/52/3
f 30/54/3 7/56/3 37/57/3 36/55/3
f 7/56/3 5/9/3 38/12/3 37/57/3
f 2/2/2 31/58/2 38/59/2 4/3/2
f 31/58/2 32/60/2 37/61/2 38/59/2
f 32/60/2 33/62/2 36/63/2 37/61/2
f 33/62/2 34/5/2 35/8/2 36/63/2
f 51/64/13 45/65/13 46/66/13 47/67/13
f 41/68/13 43/69/13 48/70/13 42/71/13
f 43/69/13 44/72/13 49/73/13 48/70/13
f 44/72/13 52/74/13 50/75/13 49/73/13
f 52/74/13 51/64/13 47/67/13 50/75/13
f 39/76/13 17/77/13 45/78/13 51/79/13
f 17/77/13 18/38/13 46/41/13 45/78/13
f 8/43/13 40/80/13 52/81/13 44/44/13
f 33/82/13 32/30/13 49/33/13 50/83/13
f 40/80/13 39/76/13 51/79/13 52/81/13
f 2/48/13 1/46/13 41/47/13 42/49/13
f 34/39/13 33/82/13 50/83/13 47/40/13
