# Blender 4.4.3
# www.blender.org
o SM_RoofTop-2_Billboard_V1.0
v -2.988863 0.934880 0.104051
v -2.988863 3.955534 0.104051
v -2.988863 0.934880 -0.097326
v -2.988863 3.955534 -0.097326
v 3.052444 0.934880 0.104051
v 3.052444 3.955534 0.104051
v 3.052444 0.934880 -0.097326
v 3.052444 3.955534 -0.097326
v -2.822816 1.087688 0.104051
v -2.822816 3.802727 0.104051
v 2.886308 1.087688 0.104051
v 2.886308 3.802727 0.104051
v -2.988863 -0.005225 -0.097326
v -2.988863 -0.005225 0.104051
v 3.052444 -0.005225 -0.097326
v 3.052444 -0.005225 0.104051
vn -1.0000 -0.0000 -0.0000
vn -0.0000 -0.0000 -1.0000
vn 1.0000 -0.0000 -0.0000
vn -0.0000 1.0000 -0.0000
vn -0.0000 -0.0000 1.0000
vn -0.0000 -1.0000 -0.0000
vt 0.576039 0.982710
vt 0.557018 0.982710
vt 0.557018 0.970030
vt 0.576039 0.970029
vt 0.595710 0.904673
vt 0.681079 0.904673
vt 0.681079 0.973703
vt 0.595710 0.973703
vt 0.499952 0.982710
vt 0.499952 0.970029
vt 0.518974 0.970029
vt 0.518974 0.982710
vt 0.595441 0.906381
vt 0.674411 0.906381
vt 0.672240 0.908814
vt 0.597613 0.908814
vt 0.693417 0.488798
vt 0.693417 0.415018
vt 0.772681 0.415018
vt 0.772681 0.488798
vt 0.595441 0.954486
vt 0.597613 0.952052
vt 0.674411 0.954486
vt 0.672240 0.952052
vt 0.017679 0.993335
vt 0.017679 0.909214
vt 0.087364 0.993335
vt 0.087364 0.909214
s 0
f 1/1/1 2/2/1 4/3/1 3/4/1
f 7/5/2 3/6/2 4/7/2 8/8/2
f 5/9/3 7/10/3 8/11/3 6/12/3
f 2/2/4 6/12/4 8/11/4 4/3/4
f 6/13/5 2/14/5 10/15/5 12/16/5
f 10/17/5 9/18/5 11/19/5 12/20/5
f 5/21/5 6/13/5 12/16/5 11/22/5
f 2/14/5 1/23/5 9/24/5 10/15/5
f 5/21/5 11/22/5 9/24/5 1/23/5
f 1/25/1 3/25/1 13/26/1 14/26/1
f 14/1/6 13/4/6 15/10/6 16/9/6
f 5/27/5 1/25/5 14/26/5 16/28/5
f 3/25/2 7/27/2 15/28/2 13/26/2
f 7/27/3 5/27/3 16/28/3 15/28/3
