# Blender 4.4.3
# www.blender.org
o SM_Side-1_Billboard_V1.0
v 0.100000 2.500000 1.000000
v 0.100000 -2.500000 1.000000
v 0.100000 2.500000 3.000000
v 0.100000 -2.500000 3.000000
v -0.100000 2.500000 1.000000
v -0.100000 -2.500000 1.000000
v -0.100000 2.500000 3.000000
v -0.100000 -2.500000 3.000000
v 0.100000 1.994615 3.000000
v 0.100000 1.288285 3.000000
v 0.100000 -1.288285 3.000000
v 0.100000 -1.994615 3.000000
v 0.100000 1.994615 1.000000
v 0.100000 1.288285 1.000000
v 0.100000 -1.288285 1.000000
v 0.100000 -1.994615 1.000000
v -0.100000 1.994615 1.000000
v -0.100000 1.288285 1.000000
v -0.100000 -1.288285 1.000000
v -0.100000 -1.994615 1.000000
v -0.100000 -1.994615 3.000000
v -0.100000 -1.288285 3.000000
v -0.100000 1.288285 3.000000
v -0.100000 1.994615 3.000000
v 0.150000 2.065248 0.800000
v 0.150000 1.217652 0.800000
v 0.150000 -1.217651 0.800000
v 0.150000 -2.065248 0.800000
v -0.150000 2.065248 0.800000
v -0.150000 1.217652 0.800000
v -0.150000 -1.217651 0.800000
v -0.150000 -2.065248 0.800000
v 0.150000 2.065248 -0.000000
v 0.150000 1.217652 -0.000000
v 0.150000 -1.217651 -0.000000
v 0.150000 -2.065248 -0.000000
v -0.150000 2.065248 -0.000000
v -0.150000 1.217652 -0.000000
v -0.150000 -1.217651 -0.000000
v -0.150000 -2.065248 -0.000000
v 0.100000 -1.888636 2.900000
v 0.100000 -2.367168 2.900000
v 0.100000 2.367168 1.100000
v 0.100000 2.367168 2.900000
v 0.100000 -2.367168 1.100000
v 0.100000 -1.888636 1.100000
v 0.100000 1.888636 2.900000
v 0.100000 1.219835 2.900000
v 0.100000 -1.219835 2.900000
v 0.100000 1.888636 1.100000
v 0.100000 1.219835 1.100000
v 0.100000 -1.219835 1.100000
v -0.100000 -1.879203 1.135171
v -0.100000 -2.355345 1.135171
v -0.100000 2.355345 2.864829
v -0.100000 2.355345 1.135171
v -0.100000 1.879203 2.864829
v -0.100000 -2.355345 2.864829
v -0.100000 1.879203 1.135171
v -0.100000 1.213742 1.135171
v -0.100000 -1.213742 1.135171
v -0.100000 -1.879203 2.864829
v -0.100000 -1.213742 2.864829
v -0.100000 1.213742 2.864829
vn -0.0000 1.0000 -0.0000
vn -0.0000 -1.0000 -0.0000
vn -0.0000 -0.0000 1.0000
vn 1.0000 -0.0000 -0.0000
vn -0.0000 -0.0000 -1.0000
vn -1.0000 -0.0000 -0.0000
vn -0.9701 -0.0000 0.2425
vn -0.0000 -0.9429 0.3330
vn 0.9701 -0.0000 0.2425
vn -0.0000 0.9429 0.3330
vt 0.235645 0.796490
vt 0.234584 0.793882
vt 0.256331 0.781904
vt 0.258413 0.783396
vt 0.241602 0.713151
vt 0.241599 0.709750
vt 0.262702 0.722135
vt 0.260560 0.723448
vt 0.259477 0.777498
vt 0.257205 0.777228
vt 0.421092 0.791538
vt 0.421092 0.778728
vt 0.422906 0.777487
vt 0.422906 0.789616
vt 0.229096 0.795976
vt 0.227891 0.799124
vt 0.421092 0.719192
vt 0.421092 0.710027
vt 0.422906 0.712436
vt 0.422906 0.721114
vt 0.421092 0.800703
vt 0.422906 0.798294
vt 0.457362 0.778728
vt 0.457362 0.791538
vt 0.455549 0.789616
vt 0.455549 0.777487
vt 0.421092 0.732002
vt 0.422906 0.733243
vt 0.235222 0.717544
vt 0.234367 0.713393
vt 0.044074 0.931673
vt 0.039696 0.958199
vt 0.028926 0.972417
vt 0.033484 0.917711
vt 0.229889 0.729672
vt 0.230941 0.777615
vt 0.227597 0.774625
vt 0.227232 0.731781
vt 0.457362 0.800703
vt 0.455549 0.798294
vt 0.457362 0.719192
vt 0.457362 0.732002
vt 0.455549 0.733243
vt 0.455549 0.721114
vt 0.263422 0.729160
vt 0.260394 0.729035
vt 0.261466 0.739360
vt 0.258879 0.739068
vt 0.259858 0.769397
vt 0.257554 0.769281
vt 0.059133 0.974167
vt 0.063692 0.919460
vt 0.068524 0.904990
vt 0.068524 0.981666
vt 0.024094 0.910211
vt 0.052921 0.933678
vt 0.048543 0.960204
vt 0.024094 0.986887
vt 0.846512 0.589196
vt 0.846512 0.597375
vt 0.815745 0.597375
vt 0.815745 0.589196
vt 0.846512 0.516452
vt 0.846512 0.524632
vt 0.815745 0.524632
vt 0.815745 0.516452
vt 0.846512 0.536063
vt 0.815745 0.536063
vt 0.846512 0.577764
vt 0.815745 0.577764
vt 0.457362 0.710027
vt 0.455549 0.712436
s 0
f 1/1/1 5/2/1 7/3/1 3/4/1
f 6/5/2 2/6/2 4/7/2 8/8/2
f 9/9/3 3/4/3 7/3/3 24/10/3
f 9/11/4 10/12/4 48/13/4 47/14/4
f 17/15/5 5/2/5 1/1/5 13/16/5
f 5/11/6 17/12/6 59/13/6 56/14/6
f 19/17/6 20/18/6 53/19/6 61/20/6
f 7/21/6 5/11/6 56/14/6 55/22/6
f 22/23/6 23/24/6 64/25/6 63/26/6
f 18/27/6 19/17/6 61/20/6 60/28/6
f 6/5/5 20/29/5 16/30/5 2/6/5
f 20/31/7 19/32/7 31/33/7 32/34/7
f 19/35/5 18/36/5 14/37/5 15/38/5
f 14/31/8 18/32/8 30/33/8 26/34/8
f 13/24/4 1/39/4 43/40/4 50/25/4
f 12/17/4 4/18/4 42/19/4 41/20/4
f 16/41/4 15/42/4 52/43/4 46/44/4
f 3/21/4 9/11/4 47/14/4 44/22/4
f 4/7/3 12/45/3 21/46/3 8/8/3
f 12/45/3 11/47/3 22/48/3 21/46/3
f 11/47/3 10/49/3 23/50/3 22/48/3
f 10/49/3 9/9/3 24/10/3 23/50/3
f 29/51/1 25/52/1 33/53/1 37/54/1
f 25/52/4 26/34/4 34/55/4 33/53/4
f 16/56/8 20/31/8 32/34/8 28/52/8
f 18/32/7 17/57/7 29/51/7 30/33/7
f 15/57/9 16/56/9 28/52/9 27/51/9
f 13/56/9 14/31/9 26/34/9 25/52/9
f 17/57/10 13/56/10 25/52/10 29/51/10
f 19/32/10 15/57/10 27/51/10 31/33/10
f 31/33/1 27/51/1 35/54/1 39/58/1
f 32/34/6 31/33/6 39/58/6 40/55/6
f 27/51/4 28/52/4 36/53/4 35/54/4
f 26/34/2 30/33/2 38/58/2 34/55/2
f 28/52/2 32/34/2 40/55/2 36/53/2
f 30/33/6 29/51/6 37/54/6 38/58/6
f 50/59/4 43/60/4 44/61/4 47/62/4
f 45/63/4 46/64/4 41/65/4 42/66/4
f 46/64/4 52/67/4 49/68/4 41/65/4
f 52/67/4 51/69/4 48/70/4 49/68/4
f 51/69/4 50/59/4 47/62/4 48/70/4
f 1/39/4 3/21/4 44/22/4 43/40/4
f 14/23/4 13/24/4 50/25/4 51/26/4
f 10/12/4 11/27/4 49/28/4 48/13/4
f 4/18/4 2/71/4 45/72/4 42/19/4
f 15/42/4 14/23/4 51/26/4 52/43/4
f 11/27/4 12/17/4 41/20/4 49/28/4
f 2/71/4 16/41/4 46/44/4 45/72/4
f 57/59/6 55/60/6 56/61/6 59/62/6
f 58/63/6 62/64/6 53/65/6 54/66/6
f 62/64/6 63/67/6 61/68/6 53/65/6
f 63/67/6 64/69/6 60/70/6 61/68/6
f 64/69/6 57/59/6 59/62/6 60/70/6
f 23/24/6 24/39/6 57/40/6 64/25/6
f 24/39/6 7/21/6 55/22/6 57/40/6
f 8/41/6 21/42/6 62/43/6 58/44/6
f 17/12/6 18/27/6 60/28/6 59/13/6
f 6/71/6 8/41/6 58/44/6 54/72/6
f 21/42/6 22/23/6 63/26/6 62/43/6
f 20/18/6 6/71/6 54/72/6 53/19/6
