# Blender 4.4.3
# www.blender.org
o SM_Tall_Billboard_V1.0
v 2.000000 2.100000 -0.100000
v 2.000000 0.100000 -0.100000
v 2.000000 2.100000 0.100000
v 2.000000 0.100000 0.100000
v -2.000000 2.100000 -0.100000
v -2.000000 0.100000 -0.100000
v -2.000000 2.100000 0.100000
v -2.000000 0.100000 0.100000
v 1.800000 1.922058 0.090000
v -1.800000 1.922058 0.090000
v -1.800000 0.277942 0.090000
v 1.800000 0.277942 0.090000
v -2.000000 0.000000 0.100000
v 2.000000 0.000000 0.100000
v 2.000000 0.000000 -0.100000
v -2.000000 0.000000 -0.100000
v -2.000000 0.100000 0.490000
v 2.000000 0.100000 0.490000
v 2.000000 0.100000 -0.490000
v -2.000000 0.100000 -0.490000
v -2.000000 0.000000 0.490000
v 2.000000 0.000000 0.490000
v 2.000000 0.000000 -0.490000
v -2.000000 0.000000 -0.490000
v -0.000000 -9.949999 -0.300000
v -0.000000 0.050000 -0.300000
v 0.259808 -9.949999 -0.150000
v 0.259808 0.050000 -0.150000
v 0.259808 -9.949999 0.150000
v 0.259808 0.050000 0.150000
v -0.000000 -9.949999 0.300000
v -0.000000 0.050000 0.300000
v -0.259808 -9.949999 0.150000
v -0.259808 0.050000 0.150000
v -0.259808 -9.949999 -0.150000
v -0.259808 0.050000 -0.150000
vn -0.0000 1.0000 -0.0000
vn -0.0000 -0.0561 0.9984
vn 1.0000 -0.0000 -0.0000
vn -0.0499 -0.0000 0.9988
vn -1.0000 -0.0000 -0.0000
vn -0.0000 -0.0000 1.0000
vn -0.0000 -0.0000 -1.0000
vn -0.0000 0.0561 0.9984
vn 0.0499 -0.0000 0.9988
vn -0.0000 -1.0000 -0.0000
vn 0.5000 -0.0000 -0.8660
vn 0.5000 -0.0000 0.8660
vn -0.5000 -0.0000 0.8660
vn -0.5000 -0.0000 -0.8660
vt 0.267979 0.913960
vt 0.266507 0.989184
vt 0.262078 0.984943
vt 0.263445 0.918691
vt 0.175601 0.721285
vt 0.175601 0.789405
vt 0.140373 0.767395
vt 0.148043 0.744416
vt 0.259110 0.981511
vt 0.259945 0.922052
vt 0.228282 0.913778
vt 0.232969 0.918326
vt 0.236719 0.922229
vt 0.234457 0.984467
vt 0.230148 0.988822
vt 0.865027 0.414326
vt 0.865027 0.492649
vt 0.794217 0.492649
vt 0.794217 0.414326
vt 0.278541 0.912499
vt 0.278541 0.990822
vt 0.207731 0.990822
vt 0.207731 0.912499
vt 0.237134 0.981597
vt 0.134613 0.767344
vt 0.142283 0.744365
vt 0.107055 0.790475
vt 0.107055 0.722355
vt 0.480521 0.709637
vt 0.480521 0.796401
vt 0.466382 0.796401
vt 0.466382 0.709637
vt 0.452244 0.796401
vt 0.452244 0.709637
vt 0.438106 0.796401
vt 0.438106 0.709637
vt 0.423967 0.796401
vt 0.423967 0.709637
vt 0.409829 0.796401
vt 0.409829 0.709637
vt 0.395691 0.796401
vt 0.395691 0.709637
s 0
f 1/1/1 5/2/1 7/3/1 3/4/1
f 4/5/1 8/6/1 17/7/1 18/8/1
f 3/4/2 7/3/2 10/9/2 9/10/2
f 2/11/3 1/1/3 3/4/3 4/12/3
f 4/12/4 3/4/4 9/10/4 12/13/4
f 8/14/5 7/3/5 5/2/5 6/15/5
f 12/16/6 9/17/6 10/18/6 11/19/6
f 6/20/7 5/21/7 1/22/7 2/23/7
f 8/14/8 4/12/8 12/13/8 11/24/8
f 7/3/9 8/14/9 11/24/9 10/9/9
f 16/15/10 15/11/10 14/12/10 13/14/10
f 2/11/3 4/12/3 14/12/3 15/11/3
f 8/14/5 6/15/5 16/15/5 13/14/5
f 2/5/3 15/6/3 23/7/3 19/8/3
f 18/8/6 17/7/6 21/25/6 22/26/6
f 20/26/7 19/8/7 23/7/7 24/25/7
f 8/6/5 13/27/5 21/25/5 17/7/5
f 15/6/10 16/27/10 24/25/10 23/7/10
f 13/27/10 14/28/10 22/26/10 21/25/10
f 16/27/5 6/28/5 20/26/5 24/25/5
f 14/28/3 4/5/3 18/8/3 22/26/3
f 6/28/1 2/5/1 19/8/1 20/26/1
f 25/29/11 26/30/11 28/31/11 27/32/11
f 27/32/3 28/31/3 30/33/3 29/34/3
f 29/34/12 30/33/12 32/35/12 31/36/12
f 31/36/13 32/35/13 34/37/13 33/38/13
f 33/38/5 34/37/5 36/39/5 35/40/5
f 35/40/14 36/39/14 26/41/14 25/42/14
