# Blender 4.4.3
# www.blender.org
o SM_3D-Rails_Stairs_V1.0
v 1.609631 0.000000 3.100000
v 1.609631 -0.000000 -3.400000
v 1.609631 4.000000 -3.400000
v 1.609631 4.000000 -1.650000
v 1.609631 0.250000 3.100000
v 1.609631 3.625000 -1.650000
v 1.609631 3.625000 -1.275000
v 1.609631 3.250000 -1.275000
v 1.609631 3.250000 -0.900000
v 1.609631 2.875000 -0.900000
v 1.609631 2.875000 -0.525000
v 1.609631 2.500000 -0.525000
v 1.609631 2.500000 -0.150000
v 1.609631 2.125000 -0.150000
v 1.609631 2.125000 0.225000
v 1.609631 1.750000 0.225000
v 1.609631 1.750000 0.600000
v 1.609631 1.375000 0.600000
v 1.609631 1.375000 0.975000
v 1.609631 1.000000 0.975000
v 1.609631 1.000000 1.350000
v 1.609631 0.625000 1.350000
v 1.609631 0.625000 1.725000
v 1.609631 0.250000 1.725000
v 1.195759 4.931240 -1.703281
v 1.195759 4.968760 -1.703281
v 1.595677 4.968760 -1.700281
v 1.595677 4.931240 -1.700281
v 1.195759 0.940847 3.051718
v 1.225760 4.901240 -1.703281
v 1.195759 0.978367 3.051718
v 1.225760 1.010847 1.901719
v 1.595677 0.978367 3.051719
v 1.225760 4.998760 -1.703281
v 1.595677 1.040846 1.901720
v 1.595677 1.078367 1.901720
v 1.565676 4.901240 -1.703281
v 1.195759 1.078367 1.901719
v 1.565676 4.998760 -1.703281
v 1.195759 1.040846 1.901719
v 1.195759 4.831240 -1.498281
v 1.195759 4.868760 -1.498281
v 1.595677 4.868760 -1.498281
v 1.595677 4.831240 -1.498281
v 1.225760 4.801240 -1.498281
v 1.225760 4.898760 -1.498281
v 1.565676 4.801240 -1.498281
v 1.565676 4.898760 -1.498281
v 1.595677 0.940847 3.051719
v 1.225760 1.108367 1.901719
v 1.206524 0.924572 3.078844
v 1.225760 0.910847 3.071719
v 1.565676 1.010847 1.901720
v 1.225760 0.940847 3.101718
v 1.565676 1.108367 1.901720
v 1.206524 0.994642 3.078844
v 1.225760 0.910847 2.101719
v 1.595677 0.940847 2.101719
v 1.595677 0.978367 2.101719
v 1.195759 0.978367 2.101719
v 1.195759 0.940847 2.101719
v 1.225760 1.008367 2.101719
v 1.565676 0.910847 2.101719
v 1.565676 1.008367 2.101719
v 1.225760 0.978367 3.101718
v 1.225760 1.008367 3.071719
v 1.584912 0.924572 3.078844
v 1.565676 0.940847 3.101718
v 1.565676 0.910847 3.071719
v 1.584912 0.994642 3.078844
v 1.565676 1.008367 3.071719
v 1.565676 0.978367 3.101718
v 1.402274 3.616158 -1.526136
v 1.402274 4.831310 -1.526136
v 1.451771 3.616158 -1.505633
v 1.451771 4.816310 -1.505633
v 1.472273 3.616158 -1.456136
v 1.472273 4.781310 -1.456136
v 1.451771 3.616158 -1.406638
v 1.451771 4.746310 -1.406638
v 1.402274 3.616158 -1.386136
v 1.402274 4.731310 -1.386136
v 1.352776 3.616158 -1.406638
v 1.352776 4.746310 -1.406638
v 1.332274 3.616158 -1.456136
v 1.332274 4.781310 -1.456136
v 1.352776 3.616158 -1.505633
v 1.352776 4.816310 -1.505633
v 1.352776 3.991594 -0.740700
v 1.352776 2.856098 -0.740700
v 1.332274 3.956594 -0.691203
v 1.332274 2.856098 -0.691203
v 1.352776 3.921594 -0.641705
v 1.352776 2.856098 -0.641705
v 1.402274 3.906594 -0.621203
v 1.402274 2.856098 -0.621203
v 1.451771 3.921594 -0.641705
v 1.451771 2.856098 -0.641705
v 1.472273 3.956594 -0.691203
v 1.472273 2.856098 -0.691203
v 1.451771 3.991594 -0.740700
v 1.451771 2.856098 -0.740700
v 1.402274 4.006594 -0.761203
v 1.402274 2.856098 -0.761203
v 1.352776 3.150814 -0.001988
v 1.352776 2.109102 -0.001988
v 1.332274 3.115814 0.047509
v 1.332274 2.109102 0.047509
v 1.352776 3.080814 0.097007
v 1.352776 2.109102 0.097007
v 1.402274 3.065814 0.117509
v 1.402274 2.109102 0.117509
v 1.451771 3.080814 0.097007
v 1.451771 2.109102 0.097007
v 1.472273 3.115814 0.047509
v 1.472273 2.109102 0.047509
v 1.451771 3.150814 -0.001988
v 1.451771 2.109102 -0.001988
v 1.402274 3.165814 -0.022491
v 1.402274 2.109102 -0.022491
v 1.352776 2.329161 0.749936
v 1.352776 1.324193 0.749936
v 1.332274 2.294161 0.799434
v 1.332274 1.324193 0.799434
v 1.352776 2.259161 0.848931
v 1.352776 1.324193 0.848931
v 1.402274 2.244161 0.869433
v 1.402274 1.324193 0.869433
v 1.451771 2.259161 0.848931
v 1.451771 1.324193 0.848931
v 1.472273 2.294161 0.799434
v 1.472273 1.324193 0.799434
v 1.451771 2.329161 0.749936
v 1.451771 1.324193 0.749936
v 1.402274 2.344162 0.729434
v 1.402274 1.324193 0.729434
v 1.352776 1.526688 1.469548
v 1.352776 0.471482 1.469548
v 1.332274 1.491688 1.519045
v 1.332274 0.471482 1.519045
v 1.352776 1.456688 1.568543
v 1.352776 0.471482 1.568543
v 1.402274 1.441688 1.589045
v 1.402274 0.471482 1.589045
v 1.451771 1.456688 1.568543
v 1.451771 0.471482 1.568543
v 1.472273 1.491688 1.519045
v 1.472273 0.471482 1.519045
v 1.451771 1.526688 1.469548
v 1.451771 0.471482 1.469548
v 1.402274 1.541688 1.449045
v 1.402274 0.471482 1.449045
v 1.402274 0.010258 2.121623
v 1.402274 0.958259 2.121623
v 1.451771 0.010258 2.142126
v 1.451771 0.958259 2.142126
v 1.472273 0.010258 2.191623
v 1.472273 0.958259 2.191623
v 1.451771 0.010258 2.241121
v 1.451771 0.958259 2.241121
v 1.402274 0.010258 2.261623
v 1.402274 0.958259 2.261623
v 1.352776 0.010258 2.241121
v 1.352776 0.958259 2.241121
v 1.332274 0.010258 2.191623
v 1.332274 0.958259 2.191623
v 1.352776 0.010258 2.142126
v 1.352776 0.958259 2.142126
v 1.402274 0.010258 2.821623
v 1.402274 0.958259 2.821623
v 1.451771 0.010258 2.842126
v 1.451771 0.958259 2.842126
v 1.472273 0.010258 2.891623
v 1.472273 0.958259 2.891623
v 1.451771 0.010258 2.941121
v 1.451771 0.958259 2.941121
v 1.402274 0.010258 2.961623
v 1.402274 0.958259 2.961623
v 1.352776 0.010258 2.941121
v 1.352776 0.958259 2.941121
v 1.332274 0.010258 2.891623
v 1.332274 0.958259 2.891623
v 1.352776 0.010258 2.842126
v 1.352776 0.958259 2.842126
v 1.402274 4.000651 -2.370448
v 1.402274 4.948652 -2.370449
v 1.451771 4.000651 -2.349946
v 1.451771 4.948652 -2.349946
v 1.472274 4.000651 -2.300448
v 1.472274 4.948652 -2.300448
v 1.451771 4.000651 -2.250951
v 1.451771 4.948652 -2.250952
v 1.402274 4.000651 -2.230448
v 1.402274 4.948652 -2.230448
v 1.352776 4.000651 -2.250951
v 1.352776 4.948652 -2.250952
v 1.332274 4.000651 -2.300448
v 1.332274 4.948652 -2.300448
v 1.352776 4.000651 -2.349946
v 1.352776 4.948652 -2.349946
v 1.402274 4.000651 -3.070448
v 1.402274 4.948652 -3.070448
v 1.451771 4.000651 -3.049946
v 1.451771 4.948652 -3.049947
v 1.472274 4.000651 -3.000448
v 1.472274 4.948652 -3.000448
v 1.451771 4.000651 -2.950951
v 1.451771 4.948652 -2.950952
v 1.402274 4.000651 -2.930449
v 1.402274 4.948652 -2.930449
v 1.352776 4.000651 -2.950951
v 1.352776 4.948652 -2.950952
v 1.332274 4.000651 -3.000448
v 1.332274 4.948652 -3.000448
v 1.352776 4.000651 -3.049946
v 1.352776 4.948652 -3.049947
v 1.565676 4.998366 -3.419719
v 1.225760 4.998366 -3.419719
v 1.225760 4.900846 -3.419719
v 1.565676 4.900846 -3.419719
v 1.195759 4.968368 -3.399719
v 1.195759 4.930847 -3.399719
v 1.595677 4.930847 -3.399719
v 1.595677 4.968368 -3.399719
v 1.206524 4.984642 -3.426844
v 1.225760 4.968368 -3.449718
v 1.206524 4.914571 -3.426844
v 1.225760 4.930847 -3.449718
v 1.584912 4.984642 -3.426844
v 1.565676 4.968368 -3.449718
v 1.584912 4.914571 -3.426844
v 1.565676 4.930847 -3.449718
v 0.000000 4.000000 -3.400000
v 0.000000 0.000000 3.100000
v 0.000000 4.000000 -1.650000
v 0.000000 3.625000 -1.650000
v 0.000000 3.625000 -1.275000
v 0.000000 3.250000 -1.275000
v 0.000000 3.250000 -0.900000
v 0.000000 2.875000 -0.900000
v 0.000000 2.875000 -0.525000
v 0.000000 2.500000 -0.525000
v 0.000000 2.500000 -0.150000
v 0.000000 2.125000 -0.150000
v 0.000000 2.125000 0.225000
v 0.000000 1.750000 0.225000
v 0.000000 1.750000 0.600000
v 0.000000 1.375000 0.600000
v 0.000000 1.375000 0.975000
v 0.000000 1.000000 0.975000
v 0.000000 1.000000 1.350000
v 0.000000 0.625000 1.350000
v 0.000000 0.625000 1.725000
v 0.000000 0.250000 1.725000
v 0.000000 0.250000 3.100000
v -1.609631 0.000000 3.100000
v -1.609631 -0.000000 -3.400000
v -1.609631 4.000000 -3.400000
v -1.609631 4.000000 -1.650000
v -1.609631 0.250000 3.100000
v -1.609631 3.625000 -1.650000
v -1.609631 3.625000 -1.275000
v -1.609631 3.250000 -1.275000
v -1.609631 3.250000 -0.900000
v -1.609631 2.875000 -0.900000
v -1.609631 2.875000 -0.525000
v -1.609631 2.500000 -0.525000
v -1.609631 2.500000 -0.150000
v -1.609631 2.125000 -0.150000
v -1.609631 2.125000 0.225000
v -1.609631 1.750000 0.225000
v -1.609631 1.750000 0.600000
v -1.609631 1.375000 0.600000
v -1.609631 1.375000 0.975000
v -1.609631 1.000000 0.975000
v -1.609631 1.000000 1.350000
v -1.609631 0.625000 1.350000
v -1.609631 0.625000 1.725000
v -1.609631 0.250000 1.725000
v -1.195759 4.931240 -1.703281
v -1.195759 4.968760 -1.703281
v -1.595677 4.968760 -1.700281
v -1.595677 4.931240 -1.700281
v -1.195759 0.940847 3.051718
v -1.225760 4.901240 -1.703281
v -1.195759 0.978367 3.051718
v -1.225760 1.010847 1.901719
v -1.595677 0.978367 3.051719
v -1.225760 4.998760 -1.703281
v -1.595677 1.040846 1.901720
v -1.595677 1.078367 1.901720
v -1.565676 4.901240 -1.703281
v -1.195759 1.078367 1.901719
v -1.565676 4.998760 -1.703281
v -1.195759 1.040846 1.901719
v -1.195759 4.831240 -1.498281
v -1.195759 4.868760 -1.498281
v -1.595677 4.868760 -1.498281
v -1.595677 4.831240 -1.498281
v -1.225760 4.801240 -1.498281
v -1.225760 4.898760 -1.498281
v -1.565676 4.801240 -1.498281
v -1.565676 4.898760 -1.498281
v -1.595677 0.940847 3.051719
v -1.225760 1.108367 1.901719
v -1.206524 0.924572 3.078844
v -1.225760 0.910847 3.071719
v -1.565676 1.010847 1.901720
v -1.225760 0.940847 3.101718
v -1.565676 1.108367 1.901720
v -1.206524 0.994642 3.078844
v -1.225760 0.910847 2.101719
v -1.595677 0.940847 2.101719
v -1.595677 0.978367 2.101719
v -1.195759 0.978367 2.101719
v -1.195759 0.940847 2.101719
v -1.225760 1.008367 2.101719
v -1.565676 0.910847 2.101719
v -1.565676 1.008367 2.101719
v -1.225760 0.978367 3.101718
v -1.225760 1.008367 3.071719
v -1.584912 0.924572 3.078844
v -1.565676 0.940847 3.101718
v -1.565676 0.910847 3.071719
v -1.584912 0.994642 3.078844
v -1.565676 1.008367 3.071719
v -1.565676 0.978367 3.101718
v -1.402274 3.616158 -1.526136
v -1.402274 4.831310 -1.526136
v -1.451771 3.616158 -1.505633
v -1.451771 4.816310 -1.505633
v -1.472273 3.616158 -1.456136
v -1.472273 4.781310 -1.456136
v -1.451771 3.616158 -1.406638
v -1.451771 4.746310 -1.406638
v -1.402274 3.616158 -1.386136
v -1.402274 4.731310 -1.386136
v -1.352776 3.616158 -1.406638
v -1.352776 4.746310 -1.406638
v -1.332274 3.616158 -1.456136
v -1.332274 4.781310 -1.456136
v -1.352776 3.616158 -1.505633
v -1.352776 4.816310 -1.505633
v -1.352776 3.991594 -0.740700
v -1.352776 2.856098 -0.740700
v -1.332274 3.956594 -0.691203
v -1.332274 2.856098 -0.691203
v -1.352776 3.921594 -0.641705
v -1.352776 2.856098 -0.641705
v -1.402274 3.906594 -0.621203
v -1.402274 2.856098 -0.621203
v -1.451771 3.921594 -0.641705
v -1.451771 2.856098 -0.641705
v -1.472273 3.956594 -0.691203
v -1.472273 2.856098 -0.691203
v -1.451771 3.991594 -0.740700
v -1.451771 2.856098 -0.740700
v -1.402274 4.006594 -0.761203
v -1.402274 2.856098 -0.761203
v -1.352776 3.150814 -0.001988
v -1.352776 2.109102 -0.001988
v -1.332274 3.115814 0.047509
v -1.332274 2.109102 0.047509
v -1.352776 3.080814 0.097007
v -1.352776 2.109102 0.097007
v -1.402274 3.065814 0.117509
v -1.402274 2.109102 0.117509
v -1.451771 3.080814 0.097007
v -1.451771 2.109102 0.097007
v -1.472273 3.115814 0.047509
v -1.472273 2.109102 0.047509
v -1.451771 3.150814 -0.001988
v -1.451771 2.109102 -0.001988
v -1.402274 3.165814 -0.022491
v -1.402274 2.109102 -0.022491
v -1.352776 2.329161 0.749936
v -1.352776 1.324193 0.749936
v -1.332274 2.294161 0.799434
v -1.332274 1.324193 0.799434
v -1.352776 2.259161 0.848931
v -1.352776 1.324193 0.848931
v -1.402274 2.244161 0.869433
v -1.402274 1.324193 0.869433
v -1.451771 2.259161 0.848931
v -1.451771 1.324193 0.848931
v -1.472273 2.294161 0.799434
v -1.472273 1.324193 0.799434
v -1.451771 2.329161 0.749936
v -1.451771 1.324193 0.749936
v -1.402274 2.344162 0.729434
v -1.402274 1.324193 0.729434
v -1.352776 1.526688 1.469548
v -1.352776 0.471482 1.469548
v -1.332274 1.491688 1.519045
v -1.332274 0.471482 1.519045
v -1.352776 1.456688 1.568543
v -1.352776 0.471482 1.568543
v -1.402274 1.441688 1.589045
v -1.402274 0.471482 1.589045
v -1.451771 1.456688 1.568543
v -1.451771 0.471482 1.568543
v -1.472273 1.491688 1.519045
v -1.472273 0.471482 1.519045
v -1.451771 1.526688 1.469548
v -1.451771 0.471482 1.469548
v -1.402274 1.541688 1.449045
v -1.402274 0.471482 1.449045
v -1.402274 0.010258 2.121623
v -1.402274 0.958259 2.121623
v -1.451771 0.010258 2.142126
v -1.451771 0.958259 2.142126
v -1.472273 0.010258 2.191623
v -1.472273 0.958259 2.191623
v -1.451771 0.010258 2.241121
v -1.451771 0.958259 2.241121
v -1.402274 0.010258 2.261623
v -1.402274 0.958259 2.261623
v -1.352776 0.010258 2.241121
v -1.352776 0.958259 2.241121
v -1.332274 0.010258 2.191623
v -1.332274 0.958259 2.191623
v -1.352776 0.010258 2.142126
v -1.352776 0.958259 2.142126
v -1.402274 0.010258 2.821623
v -1.402274 0.958259 2.821623
v -1.451771 0.010258 2.842126
v -1.451771 0.958259 2.842126
v -1.472273 0.010258 2.891623
v -1.472273 0.958259 2.891623
v -1.451771 0.010258 2.941121
v -1.451771 0.958259 2.941121
v -1.402274 0.010258 2.961623
v -1.402274 0.958259 2.961623
v -1.352776 0.010258 2.941121
v -1.352776 0.958259 2.941121
v -1.332274 0.010258 2.891623
v -1.332274 0.958259 2.891623
v -1.352776 0.010258 2.842126
v -1.352776 0.958259 2.842126
v -1.402274 4.000651 -2.370448
v -1.402274 4.948652 -2.370449
v -1.451771 4.000651 -2.349946
v -1.451771 4.948652 -2.349946
v -1.472274 4.000651 -2.300448
v -1.472274 4.948652 -2.300448
v -1.451771 4.000651 -2.250951
v -1.451771 4.948652 -2.250952
v -1.402274 4.000651 -2.230448
v -1.402274 4.948652 -2.230448
v -1.352776 4.000651 -2.250951
v -1.352776 4.948652 -2.250952
v -1.332274 4.000651 -2.300448
v -1.332274 4.948652 -2.300448
v -1.352776 4.000651 -2.349946
v -1.352776 4.948652 -2.349946
v -1.402274 4.000651 -3.070448
v -1.402274 4.948652 -3.070448
v -1.451771 4.000651 -3.049946
v -1.451771 4.948652 -3.049947
v -1.472274 4.000651 -3.000448
v -1.472274 4.948652 -3.000448
v -1.451771 4.000651 -2.950951
v -1.451771 4.948652 -2.950952
v -1.402274 4.000651 -2.930449
v -1.402274 4.948652 -2.930449
v -1.352776 4.000651 -2.950951
v -1.352776 4.948652 -2.950952
v -1.332274 4.000651 -3.000448
v -1.332274 4.948652 -3.000448
v -1.352776 4.000651 -3.049946
v -1.352776 4.948652 -3.049947
v -1.565676 4.998366 -3.419719
v -1.225760 4.998366 -3.419719
v -1.225760 4.900846 -3.419719
v -1.565676 4.900846 -3.419719
v -1.195759 4.968368 -3.399719
v -1.195759 4.930847 -3.399719
v -1.595677 4.930847 -3.399719
v -1.595677 4.968368 -3.399719
v -1.206524 4.984642 -3.426844
v -1.225760 4.968368 -3.449718
v -1.206524 4.914571 -3.426844
v -1.225760 4.930847 -3.449718
v -1.584912 4.984642 -3.426844
v -1.565676 4.968368 -3.449718
v -1.584912 4.914571 -3.426844
v -1.565676 4.930847 -3.449718
v 0.000000 4.000000 -4.500000
v 1.609631 4.000000 -4.500000
v 1.609631 -0.000000 -4.500000
v -1.609631 4.000000 -4.500000
v -1.609631 -0.000000 -4.500000
vn 1.0000 -0.0000 -0.0000
vn -0.9295 -0.0000 0.3689
vn -0.6181 0.7577 -0.2093
vn 0.9295 -0.0000 0.3689
vn -0.0000 -0.0000 1.0000
vn 0.6181 -0.7577 -0.2093
vn -0.2358 -0.6872 0.6872
vn -0.2358 0.6872 0.6872
vn 0.6769 -0.6607 -0.3246
vn -1.0000 -0.0000 -0.0000
vn -0.0000 -0.8988 -0.4384
vn -0.6685 -0.6685 -0.3261
vn -0.0000 0.8988 0.4384
vn 0.6587 0.6753 0.3318
vn -0.6684 0.6685 0.3261
vn -0.5553 0.5553 0.6191
vn 0.5553 -0.5553 -0.6191
vn -0.0000 -0.6677 -0.7444
vn -0.5553 -0.5553 -0.6191
vn -0.0000 0.6677 0.7444
vn 0.5553 0.5553 0.6191
vn -0.0000 -0.8944 -0.4472
vn -0.6666 -0.6667 -0.3333
vn -0.0000 0.8944 0.4472
vn 0.6667 0.6667 0.3333
vn -0.6667 0.6667 0.3333
vn 0.6666 -0.6667 -0.3333
vn -0.7071 0.7071 -0.0000
vn 0.7071 -0.7071 -0.0000
vn -0.0000 -1.0000 -0.0000
vn -0.7071 -0.7071 -0.0000
vn -0.0000 1.0000 -0.0000
vn 0.7071 0.7071 -0.0000
vn 0.2358 -0.6872 0.6872
vn 0.2358 0.6872 0.6872
vn -0.0000 -0.7071 0.7071
vn -0.0000 0.7071 0.7071
vn -0.7653 -0.0000 0.6436
vn 0.7653 -0.0000 0.6436
vn -0.6181 -0.7577 -0.2093
vn 0.6181 0.7577 -0.2093
vn 0.3827 -0.0000 -0.9239
vn 0.9239 -0.0000 -0.3827
vn 0.9239 -0.0000 0.3827
vn 0.3827 -0.0000 0.9239
vn -0.3827 -0.0000 0.9239
vn -0.9239 -0.0000 0.3827
vn -0.9239 -0.0000 -0.3827
vn -0.3827 -0.0000 -0.9239
vn -0.7071 -0.7071 0.0002
vn -0.0000 -1.0000 0.0002
vn -0.7071 0.7071 -0.0002
vn -0.0000 1.0000 -0.0002
vn 0.7071 -0.7071 0.0002
vn 0.7071 0.7071 -0.0002
vn -0.9295 -0.0000 -0.3689
vn -0.6182 -0.7577 0.2093
vn 0.9295 -0.0000 -0.3689
vn -0.0000 -0.0000 -1.0000
vn 0.6181 0.7577 0.2093
vn -0.2358 0.6872 -0.6872
vn -0.2358 -0.6872 -0.6872
vn 0.2358 0.6872 -0.6872
vn 0.2358 -0.6872 -0.6872
vn -0.0000 0.7071 -0.7071
vn -0.0000 -0.7071 -0.7071
vn -0.7653 -0.0000 -0.6436
vn 0.7653 -0.0000 -0.6436
vn -0.6181 0.7577 0.2093
vn 0.6182 -0.7577 0.2093
vn -0.6769 -0.6607 -0.3246
vn 0.6685 -0.6685 -0.3261
vn -0.6587 0.6753 0.3318
vn 0.6684 0.6685 0.3261
vt 0.971986 0.903791
vt 0.948682 0.950897
vt 0.941244 0.943831
vt 0.970995 0.972094
vt 0.963557 0.972094
vt 0.963557 0.965028
vt 0.896618 0.908502
vt 0.896618 0.903791
vt 0.904056 0.908502
vt 0.911494 0.915568
vt 0.904056 0.915568
vt 0.956119 0.965028
vt 0.956119 0.957962
vt 0.948682 0.957962
vt 0.941244 0.950897
vt 0.933807 0.943831
vt 0.933807 0.936765
vt 0.926369 0.936765
vt 0.926369 0.929699
vt 0.918931 0.929699
vt 0.918931 0.922633
vt 0.911494 0.922633
vt 0.971986 0.972094
vt 0.978312 0.969520
vt 0.978312 0.914368
vt 0.945003 0.816035
vt 0.933040 0.816087
vt 0.934652 0.809069
vt 0.943305 0.809824
vt 0.927721 0.817630
vt 0.933144 0.884246
vt 0.945107 0.884195
vt 0.943495 0.891212
vt 0.934842 0.890457
vt 0.935530 0.821339
vt 0.942218 0.821311
vt 0.942617 0.878942
vt 0.935929 0.878970
vt 0.950425 0.882651
vt 0.950425 0.817600
vt 0.967184 0.876791
vt 0.969194 0.882564
vt 0.925959 0.882564
vt 0.923432 0.876791
vt 0.919501 0.814301
vt 0.922610 0.807928
vt 0.965715 0.807928
vt 0.962606 0.814301
vt 0.967183 0.811588
vt 0.923431 0.811589
vt 0.969710 0.805851
vt 0.925958 0.805852
vt 0.917499 0.877547
vt 0.917498 0.813172
vt 0.960695 0.813171
vt 0.960696 0.877546
vt 0.915003 0.883211
vt 0.958200 0.883210
vt 0.916791 0.897942
vt 0.920582 0.890172
vt 0.973136 0.890172
vt 0.969346 0.897942
vt 0.915513 0.807472
vt 0.958199 0.807472
vt 0.911191 0.811298
vt 0.911573 0.807323
vt 0.977596 0.807323
vt 0.977214 0.811298
vt 0.971808 0.856920
vt 0.972139 0.860916
vt 0.915011 0.860916
vt 0.914680 0.856920
vt 0.902311 0.816583
vt 0.902770 0.810717
vt 0.986652 0.810717
vt 0.986194 0.816583
vt 0.971808 0.811637
vt 0.914680 0.811637
vt 0.972139 0.807641
vt 0.915011 0.807641
vt 0.911191 0.856331
vt 0.977214 0.856331
vt 0.911573 0.860305
vt 0.977597 0.860305
vt 0.891310 0.897085
vt 0.890794 0.893554
vt 0.985092 0.893554
vt 0.985608 0.897085
vt 0.958867 0.807193
vt 0.955723 0.813637
vt 0.912140 0.813637
vt 0.915283 0.807193
vt 0.956406 0.812999
vt 0.956406 0.877950
vt 0.912823 0.877951
vt 0.912822 0.812999
vt 0.958923 0.807284
vt 0.915339 0.807284
vt 0.915339 0.877986
vt 0.915339 0.813034
vt 0.958922 0.813034
vt 0.958923 0.877985
vt 0.912822 0.883701
vt 0.956406 0.883700
vt 0.913336 0.807284
vt 0.956404 0.807284
vt 0.958409 0.883701
vt 0.915341 0.883701
vt 0.958396 0.874541
vt 0.955252 0.880985
vt 0.911669 0.880985
vt 0.914812 0.874541
vt 0.995728 0.888191
vt 0.995787 0.891788
vt 0.904710 0.893276
vt 0.904651 0.889679
vt 0.990441 0.819926
vt 0.990441 0.825806
vt 0.894358 0.825806
vt 0.892335 0.819926
vt 0.892335 0.878705
vt 0.892335 0.884902
vt 0.988418 0.884902
vt 0.990441 0.878705
vt 0.990441 0.833161
vt 0.894358 0.833161
vt 0.892335 0.807959
vt 0.990441 0.807959
vt 0.892335 0.813840
vt 0.988418 0.813840
vt 0.892335 0.880468
vt 0.990441 0.813840
vt 0.990441 0.880468
vt 0.892335 0.886349
vt 0.988418 0.886349
vt 0.927721 0.882681
vt 0.975019 0.709573
vt 0.975019 0.776760
vt 0.965455 0.776760
vt 0.965455 0.709573
vt 0.955890 0.776760
vt 0.955890 0.709573
vt 0.946325 0.776760
vt 0.946325 0.709573
vt 0.936760 0.776760
vt 0.936760 0.709573
vt 0.927195 0.776760
vt 0.927195 0.709573
vt 0.917630 0.776760
vt 0.917630 0.709573
vt 0.908066 0.776760
vt 0.908066 0.709573
vt 0.898501 0.776760
vt 0.898501 0.709573
vt 0.977852 0.943910
vt 0.937883 0.943910
vt 0.938343 0.903353
vt 0.978312 0.903353
vt 0.938343 0.914368
vt 0.938343 0.969520
s 1
f 2/1/1 12/2/1 14/3/1
f 6/4/1 7/5/1 8/6/1
f 5/7/1 1/8/1 24/9/1
f 1/8/1 2/1/1 24/9/1
f 22/10/1 23/11/1 24/9/1
f 2/1/1 6/4/1 8/6/1
f 8/6/1 9/12/1 10/13/1
f 10/13/1 11/14/1 12/2/1
f 12/2/1 13/15/1 14/3/1
f 14/3/1 15/16/1 16/17/1
f 16/17/1 17/18/1 18/19/1
f 18/19/1 19/20/1 20/21/1
f 20/21/1 21/22/1 22/10/1
f 22/10/1 24/9/1 2/1/1
f 2/1/1 8/6/1 10/13/1
f 2/1/1 10/13/1 12/2/1
f 20/21/1 22/10/1 2/1/1
f 14/3/1 16/17/1 2/1/1
f 16/17/1 18/19/1 2/1/1
f 18/19/1 20/21/1 2/1/1
f 3/23/1 6/4/1 2/1/1
f 6/4/1 3/24/1 4/25/1
f 51/26/2 56/27/2 31/28/2 29/29/2
f 56/27/3 66/30/3 31/28/3
f 70/31/4 67/32/4 49/33/4 33/34/4
f 65/35/5 54/36/5 68/37/5 72/38/5
f 67/32/6 69/39/6 49/33/6
f 52/40/7 54/36/7 51/26/7
f 65/35/8 66/30/8 56/27/8
f 37/41/9 28/42/9 44/43/9 47/44/9
f 26/45/10 25/46/10 41/47/10 42/48/10
f 30/49/11 37/41/11 47/44/11 45/50/11
f 25/51/12 30/49/12 45/50/12 41/52/12
f 39/53/13 34/54/13 46/55/13 48/56/13
f 27/57/14 39/53/14 48/56/14 43/58/14
f 28/59/1 27/60/1 43/61/1 44/62/1
f 34/54/15 26/63/15 42/64/15 46/55/15
f 46/65/16 42/66/16 38/67/16 50/68/16
f 47/69/17 44/70/17 35/71/17 53/72/17
f 42/73/10 41/74/10 40/75/10 38/76/10
f 45/77/18 47/69/18 53/72/18 32/78/18
f 41/79/19 45/77/19 32/78/19 40/80/19
f 48/81/20 46/65/20 50/68/20 55/82/20
f 43/83/21 48/81/21 55/82/21 36/84/21
f 44/85/1 43/86/1 36/87/1 35/88/1
f 38/89/10 40/90/10 61/91/10 60/92/10
f 32/93/22 53/94/22 63/95/22 57/96/22
f 40/97/23 32/93/23 57/96/23 61/98/23
f 55/99/24 50/100/24 62/101/24 64/102/24
f 36/103/25 55/99/25 64/102/25 59/104/25
f 50/100/26 38/105/26 60/106/26 62/101/26
f 53/94/27 35/107/27 58/108/27 63/95/27
f 35/109/1 36/110/1 59/111/1 58/112/1
f 58/113/1 59/114/1 33/115/1 49/116/1
f 62/117/28 60/118/28 31/119/28 66/120/28
f 63/121/29 58/122/29 49/123/29 69/124/29
f 60/118/10 61/125/10 29/126/10 31/119/10
f 57/127/30 63/121/30 69/124/30 52/128/30
f 61/129/31 57/127/31 52/128/31 29/130/31
f 64/131/32 62/129/32 66/132/32 71/133/32
f 59/134/33 64/131/33 71/133/33 33/135/33
f 68/37/34 69/39/34 67/32/34
f 71/136/35 72/38/35 70/31/35
f 68/37/36 54/36/36 52/40/36 69/39/36
f 65/35/37 72/38/37 71/136/37 66/30/37
f 56/27/38 51/26/38 54/36/38 65/35/38
f 67/32/39 70/31/39 72/38/39 68/37/39
f 29/29/40 52/40/40 51/26/40
f 33/34/41 71/136/41 70/31/41
f 73/137/42 74/138/42 76/139/42 75/140/42
f 75/140/43 76/139/43 78/141/43 77/142/43
f 77/142/44 78/141/44 80/143/44 79/144/44
f 79/144/45 80/143/45 82/145/45 81/146/45
f 81/146/46 82/145/46 84/147/46 83/148/46
f 83/148/47 84/147/47 86/149/47 85/150/47
f 85/150/48 86/149/48 88/151/48 87/152/48
f 87/152/49 88/151/49 74/153/49 73/154/49
f 90/152/49 89/151/49 103/153/49 104/154/49
f 92/150/48 91/149/48 89/151/48 90/152/48
f 94/148/47 93/147/47 91/149/47 92/150/47
f 96/146/46 95/145/46 93/147/46 94/148/46
f 98/144/45 97/143/45 95/145/45 96/146/45
f 100/142/44 99/141/44 97/143/44 98/144/44
f 102/140/43 101/139/43 99/141/43 100/142/43
f 104/137/42 103/138/42 101/139/42 102/140/42
f 106/152/49 105/151/49 119/153/49 120/154/49
f 108/150/48 107/149/48 105/151/48 106/152/48
f 110/148/47 109/147/47 107/149/47 108/150/47
f 112/146/46 111/145/46 109/147/46 110/148/46
f 114/144/45 113/143/45 111/145/45 112/146/45
f 116/142/44 115/141/44 113/143/44 114/144/44
f 118/140/43 117/139/43 115/141/43 116/142/43
f 120/137/42 119/138/42 117/139/42 118/140/42
f 122/152/49 121/151/49 135/153/49 136/154/49
f 124/150/48 123/149/48 121/151/48 122/152/48
f 126/148/47 125/147/47 123/149/47 124/150/47
f 128/146/46 127/145/46 125/147/46 126/148/46
f 130/144/45 129/143/45 127/145/45 128/146/45
f 132/142/44 131/141/44 129/143/44 130/144/44
f 134/140/43 133/139/43 131/141/43 132/142/43
f 136/137/42 135/138/42 133/139/42 134/140/42
f 138/152/49 137/151/49 151/153/49 152/154/49
f 140/150/48 139/149/48 137/151/48 138/152/48
f 142/148/47 141/147/47 139/149/47 140/150/47
f 144/146/46 143/145/46 141/147/46 142/148/46
f 146/144/45 145/143/45 143/145/45 144/146/45
f 148/142/44 147/141/44 145/143/44 146/144/44
f 150/140/43 149/139/43 147/141/43 148/142/43
f 152/137/42 151/138/42 149/139/42 150/140/42
f 153/137/42 154/138/42 156/139/42 155/140/42
f 155/140/43 156/139/43 158/141/43 157/142/43
f 157/142/44 158/141/44 160/143/44 159/144/44
f 159/144/45 160/143/45 162/145/45 161/146/45
f 161/146/46 162/145/46 164/147/46 163/148/46
f 163/148/47 164/147/47 166/149/47 165/150/47
f 165/150/48 166/149/48 168/151/48 167/152/48
f 167/152/49 168/151/49 154/153/49 153/154/49
f 169/137/42 170/138/42 172/139/42 171/140/42
f 171/140/43 172/139/43 174/141/43 173/142/43
f 173/142/44 174/141/44 176/143/44 175/144/44
f 175/144/45 176/143/45 178/145/45 177/146/45
f 177/146/46 178/145/46 180/147/46 179/148/46
f 179/148/47 180/147/47 182/149/47 181/150/47
f 181/150/48 182/149/48 184/151/48 183/152/48
f 183/152/49 184/151/49 170/153/49 169/154/49
f 27/60/1 28/59/1 223/59/1 224/60/1
f 185/137/42 186/138/42 188/139/42 187/140/42
f 187/140/43 188/139/43 190/141/43 189/142/43
f 189/142/44 190/141/44 192/143/44 191/144/44
f 191/144/45 192/143/45 194/145/45 193/146/45
f 193/146/46 194/145/46 196/147/46 195/148/46
f 195/148/47 196/147/47 198/149/47 197/150/47
f 197/150/48 198/149/48 200/151/48 199/152/48
f 199/152/49 200/151/49 186/153/49 185/154/49
f 201/137/42 202/138/42 204/139/42 203/140/42
f 203/140/43 204/139/43 206/141/43 205/142/43
f 205/142/44 206/141/44 208/143/44 207/144/44
f 207/144/45 208/143/45 210/145/45 209/146/45
f 209/146/46 210/145/46 212/147/46 211/148/46
f 211/148/47 212/147/47 214/149/47 213/150/47
f 213/150/48 214/149/48 216/151/48 215/152/48
f 215/152/49 216/151/49 202/153/49 201/154/49
f 25/46/10 26/45/10 221/45/10 222/46/10
f 30/49/50 25/51/50 222/51/50 219/49/50
f 37/41/51 30/49/51 219/49/51 220/41/51
f 26/63/52 34/54/52 218/54/52 221/63/52
f 34/54/53 39/53/53 217/53/53 218/54/53
f 28/42/54 37/41/54 220/41/54 223/42/54
f 39/53/55 27/57/55 224/57/55 217/53/55
f 225/26/56 227/27/56 222/28/56 221/29/56
f 227/27/57 219/30/57 222/28/57
f 231/31/58 229/32/58 224/33/58 223/34/58
f 228/35/59 226/36/59 230/37/59 232/38/59
f 229/32/60 217/39/60 224/33/60
f 218/40/61 226/36/61 225/26/61
f 228/35/62 219/30/62 227/27/62
f 230/37/63 217/39/63 229/32/63
f 220/136/64 232/38/64 231/31/64
f 230/37/65 226/36/65 218/40/65 217/39/65
f 228/35/66 232/38/66 220/136/66 219/30/66
f 227/27/67 225/26/67 226/36/67 228/35/67
f 229/32/68 231/31/68 232/38/68 230/37/68
f 221/29/69 218/40/69 225/26/69
f 223/34/70 220/136/70 231/31/70
f 24/155/32 254/156/32 255/157/32 5/158/32
f 23/158/5 253/157/5 254/156/5 24/155/5
f 22/155/32 252/156/32 253/157/32 23/158/32
f 21/158/5 251/157/5 252/156/5 22/155/5
f 20/155/32 250/156/32 251/157/32 21/158/32
f 19/158/5 249/157/5 250/156/5 20/155/5
f 18/155/32 248/156/32 249/157/32 19/158/32
f 17/158/5 247/157/5 248/156/5 18/155/5
f 16/155/32 246/156/32 247/157/32 17/158/32
f 15/158/5 245/157/5 246/156/5 16/155/5
f 14/155/32 244/156/32 245/157/32 15/158/32
f 13/158/5 243/157/5 244/156/5 14/155/5
f 12/155/32 242/156/32 243/157/32 13/158/32
f 11/158/5 241/157/5 242/156/5 12/155/5
f 10/155/32 240/156/32 241/157/32 11/158/32
f 9/158/5 239/157/5 240/156/5 10/155/5
f 8/155/32 238/156/32 239/157/32 9/158/32
f 7/158/5 237/157/5 238/156/5 8/155/5
f 6/155/32 236/156/32 237/157/32 7/158/32
f 4/25/5 235/159/5 236/156/5 6/155/5
f 1/155/5 5/158/5 255/157/5 234/156/5
f 3/24/32 233/160/32 235/159/32 4/25/32
f 257/1/10 269/3/10 267/2/10
f 261/4/10 263/6/10 262/5/10
f 260/7/10 279/9/10 256/8/10
f 256/8/10 279/9/10 257/1/10
f 277/10/10 279/9/10 278/11/10
f 257/1/10 263/6/10 261/4/10
f 263/6/10 265/13/10 264/12/10
f 265/13/10 267/2/10 266/14/10
f 267/2/10 269/3/10 268/15/10
f 269/3/10 271/17/10 270/16/10
f 271/17/10 273/19/10 272/18/10
f 273/19/10 275/21/10 274/20/10
f 275/21/10 277/10/10 276/22/10
f 277/10/10 257/1/10 279/9/10
f 257/1/10 265/13/10 263/6/10
f 257/1/10 267/2/10 265/13/10
f 275/21/10 257/1/10 277/10/10
f 269/3/10 257/1/10 271/17/10
f 271/17/10 257/1/10 273/19/10
f 273/19/10 257/1/10 275/21/10
f 258/23/10 257/1/10 261/4/10
f 261/4/10 259/25/10 258/24/10
f 306/26/4 284/29/4 286/28/4 311/27/4
f 311/27/41 286/28/41 321/30/41
f 325/31/2 288/34/2 304/33/2 322/32/2
f 320/35/5 327/38/5 323/37/5 309/36/5
f 322/32/40 304/33/40 324/39/40
f 307/40/34 306/26/34 309/36/34
f 320/35/35 311/27/35 321/30/35
f 292/41/71 302/44/71 299/43/71 283/42/71
f 281/45/1 297/48/1 296/47/1 280/46/1
f 285/49/11 300/50/11 302/44/11 292/41/11
f 280/51/72 296/52/72 300/50/72 285/49/72
f 294/53/13 303/56/13 301/55/13 289/54/13
f 282/57/73 298/58/73 303/56/73 294/53/73
f 283/59/10 299/62/10 298/61/10 282/60/10
f 289/54/74 301/55/74 297/64/74 281/63/74
f 301/65/21 305/68/21 293/67/21 297/66/21
f 302/69/19 308/72/19 290/71/19 299/70/19
f 297/73/1 293/76/1 295/75/1 296/74/1
f 300/77/18 287/78/18 308/72/18 302/69/18
f 296/79/17 295/80/17 287/78/17 300/77/17
f 303/81/20 310/82/20 305/68/20 301/65/20
f 298/83/16 291/84/16 310/82/16 303/81/16
f 299/85/10 290/88/10 291/87/10 298/86/10
f 293/89/1 315/92/1 316/91/1 295/90/1
f 287/93/22 312/96/22 318/95/22 308/94/22
f 295/97/27 316/98/27 312/96/27 287/93/27
f 310/99/24 319/102/24 317/101/24 305/100/24
f 291/103/26 314/104/26 319/102/26 310/99/26
f 305/100/25 317/101/25 315/106/25 293/105/25
f 308/94/23 318/95/23 313/108/23 290/107/23
f 290/109/10 313/112/10 314/111/10 291/110/10
f 313/113/10 304/116/10 288/115/10 314/114/10
f 317/117/33 321/120/33 286/119/33 315/118/33
f 318/121/31 324/124/31 304/123/31 313/122/31
f 315/118/1 286/119/1 284/126/1 316/125/1
f 312/127/30 307/128/30 324/124/30 318/121/30
f 316/129/29 284/130/29 307/128/29 312/127/29
f 319/131/32 326/133/32 321/132/32 317/129/32
f 314/134/28 288/135/28 326/133/28 319/131/28
f 323/37/7 322/32/7 324/39/7
f 326/136/8 325/31/8 327/38/8
f 323/37/36 324/39/36 307/40/36 309/36/36
f 320/35/37 321/30/37 326/136/37 327/38/37
f 311/27/39 320/35/39 309/36/39 306/26/39
f 322/32/38 323/37/38 327/38/38 325/31/38
f 284/29/6 306/26/6 307/40/6
f 288/34/3 325/31/3 326/136/3
f 328/137/49 330/140/49 331/139/49 329/138/49
f 330/140/48 332/142/48 333/141/48 331/139/48
f 332/142/47 334/144/47 335/143/47 333/141/47
f 334/144/46 336/146/46 337/145/46 335/143/46
f 336/146/45 338/148/45 339/147/45 337/145/45
f 338/148/44 340/150/44 341/149/44 339/147/44
f 340/150/43 342/152/43 343/151/43 341/149/43
f 342/152/42 328/154/42 329/153/42 343/151/42
f 345/152/42 359/154/42 358/153/42 344/151/42
f 347/150/43 345/152/43 344/151/43 346/149/43
f 349/148/44 347/150/44 346/149/44 348/147/44
f 351/146/45 349/148/45 348/147/45 350/145/45
f 353/144/46 351/146/46 350/145/46 352/143/46
f 355/142/47 353/144/47 352/143/47 354/141/47
f 357/140/48 355/142/48 354/141/48 356/139/48
f 359/137/49 357/140/49 356/139/49 358/138/49
f 361/152/42 375/154/42 374/153/42 360/151/42
f 363/150/43 361/152/43 360/151/43 362/149/43
f 365/148/44 363/150/44 362/149/44 364/147/44
f 367/146/45 365/148/45 364/147/45 366/145/45
f 369/144/46 367/146/46 366/145/46 368/143/46
f 371/142/47 369/144/47 368/143/47 370/141/47
f 373/140/48 371/142/48 370/141/48 372/139/48
f 375/137/49 373/140/49 372/139/49 374/138/49
f 377/152/42 391/154/42 390/153/42 376/151/42
f 379/150/43 377/152/43 376/151/43 378/149/43
f 381/148/44 379/150/44 378/149/44 380/147/44
f 383/146/45 381/148/45 380/147/45 382/145/45
f 385/144/46 383/146/46 382/145/46 384/143/46
f 387/142/47 385/144/47 384/143/47 386/141/47
f 389/140/48 387/142/48 386/141/48 388/139/48
f 391/137/49 389/140/49 388/139/49 390/138/49
f 393/152/42 407/154/42 406/153/42 392/151/42
f 395/150/43 393/152/43 392/151/43 394/149/43
f 397/148/44 395/150/44 394/149/44 396/147/44
f 399/146/45 397/148/45 396/147/45 398/145/45
f 401/144/46 399/146/46 398/145/46 400/143/46
f 403/142/47 401/144/47 400/143/47 402/141/47
f 405/140/48 403/142/48 402/141/48 404/139/48
f 407/137/49 405/140/49 404/139/49 406/138/49
f 408/137/49 410/140/49 411/139/49 409/138/49
f 410/140/48 412/142/48 413/141/48 411/139/48
f 412/142/47 414/144/47 415/143/47 413/141/47
f 414/144/46 416/146/46 417/145/46 415/143/46
f 416/146/45 418/148/45 419/147/45 417/145/45
f 418/148/44 420/150/44 421/149/44 419/147/44
f 420/150/43 422/152/43 423/151/43 421/149/43
f 422/152/42 408/154/42 409/153/42 423/151/42
f 424/137/49 426/140/49 427/139/49 425/138/49
f 426/140/48 428/142/48 429/141/48 427/139/48
f 428/142/47 430/144/47 431/143/47 429/141/47
f 430/144/46 432/146/46 433/145/46 431/143/46
f 432/146/45 434/148/45 435/147/45 433/145/45
f 434/148/44 436/150/44 437/149/44 435/147/44
f 436/150/43 438/152/43 439/151/43 437/149/43
f 438/152/42 424/154/42 425/153/42 439/151/42
f 282/60/10 479/60/10 478/59/10 283/59/10
f 440/137/49 442/140/49 443/139/49 441/138/49
f 442/140/48 444/142/48 445/141/48 443/139/48
f 444/142/47 446/144/47 447/143/47 445/141/47
f 446/144/46 448/146/46 449/145/46 447/143/46
f 448/146/45 450/148/45 451/147/45 449/145/45
f 450/148/44 452/150/44 453/149/44 451/147/44
f 452/150/43 454/152/43 455/151/43 453/149/43
f 454/152/42 440/154/42 441/153/42 455/151/42
f 456/137/49 458/140/49 459/139/49 457/138/49
f 458/140/48 460/142/48 461/141/48 459/139/48
f 460/142/47 462/144/47 463/143/47 461/141/47
f 462/144/46 464/146/46 465/145/46 463/143/46
f 464/146/45 466/148/45 467/147/45 465/145/45
f 466/148/44 468/150/44 469/149/44 467/147/44
f 468/150/43 470/152/43 471/151/43 469/149/43
f 470/152/42 456/154/42 457/153/42 471/151/42
f 280/46/1 477/46/1 476/45/1 281/45/1
f 285/49/54 474/49/54 477/51/54 280/51/54
f 292/41/51 475/41/51 474/49/51 285/49/51
f 281/63/55 476/63/55 473/54/55 289/54/55
f 289/54/53 473/54/53 472/53/53 294/53/53
f 283/42/50 478/42/50 475/41/50 292/41/50
f 294/53/52 472/53/52 479/57/52 282/57/52
f 480/26/58 476/29/58 477/28/58 482/27/58
f 482/27/70 477/28/70 474/30/70
f 486/31/56 478/34/56 479/33/56 484/32/56
f 483/35/59 487/38/59 485/37/59 481/36/59
f 484/32/69 479/33/69 472/39/69
f 473/40/63 480/26/63 481/36/63
f 483/35/64 482/27/64 474/30/64
f 485/37/61 484/32/61 472/39/61
f 475/136/62 486/31/62 487/38/62
f 485/37/65 472/39/65 473/40/65 481/36/65
f 483/35/66 474/30/66 475/136/66 487/38/66
f 482/27/68 483/35/68 481/36/68 480/26/68
f 484/32/67 485/37/67 487/38/67 486/31/67
f 476/29/60 480/26/60 473/40/60
f 478/34/57 486/31/57 475/136/57
f 279/155/32 260/158/32 255/157/32 254/156/32
f 278/158/5 279/155/5 254/156/5 253/157/5
f 277/155/32 278/158/32 253/157/32 252/156/32
f 276/158/5 277/155/5 252/156/5 251/157/5
f 275/155/32 276/158/32 251/157/32 250/156/32
f 274/158/5 275/155/5 250/156/5 249/157/5
f 273/155/32 274/158/32 249/157/32 248/156/32
f 272/158/5 273/155/5 248/156/5 247/157/5
f 271/155/32 272/158/32 247/157/32 246/156/32
f 270/158/5 271/155/5 246/156/5 245/157/5
f 269/155/32 270/158/32 245/157/32 244/156/32
f 268/158/5 269/155/5 244/156/5 243/157/5
f 267/155/32 268/158/32 243/157/32 242/156/32
f 266/158/5 267/155/5 242/156/5 241/157/5
f 265/155/32 266/158/32 241/157/32 240/156/32
f 264/158/5 265/155/5 240/156/5 239/157/5
f 263/155/32 264/158/32 239/157/32 238/156/32
f 262/158/5 263/155/5 238/156/5 237/157/5
f 261/155/32 262/158/32 237/157/32 236/156/32
f 259/25/5 261/155/5 236/156/5 235/159/5
f 256/155/5 234/156/5 255/157/5 260/158/5
f 258/24/32 259/25/32 235/159/32 233/160/32
f 3/23/1 2/1/1 490/1/1 489/23/1
f 488/160/59 489/23/59 490/1/59 492/1/59 491/24/59
f 233/160/32 3/24/32 489/24/32 488/160/32
f 257/1/10 258/23/10 491/23/10 492/1/10
f 258/24/32 233/160/32 488/160/32 491/24/32
