# Blender 4.4.3
# www.blender.org
o SM_3D-RailsSmooth_Stairs_V1.0
v 1.609631 0.012294 1.989585
v 1.609631 0.012294 -1.997165
v 1.609631 0.404005 1.992961
v 1.609631 3.883255 -1.991925
v 1.609631 3.883255 -1.549160
v 1.609631 3.494005 -1.549160
v 1.609631 3.494005 -1.106395
v 1.609631 3.107755 -1.106395
v 1.609631 3.107755 -0.663630
v 1.609631 2.721505 -0.663630
v 1.609631 2.721505 -0.220865
v 1.609631 2.335255 -0.220865
v 1.609631 2.335255 0.221900
v 1.609631 1.949005 0.221900
v 1.609631 1.949005 0.664666
v 1.609631 1.562755 0.664666
v 1.609631 1.562755 1.107431
v 1.609631 1.176505 1.107431
v 1.609631 1.176505 1.550196
v 1.609631 0.790255 1.550196
v 1.609631 0.790255 1.992961
v 1.609631 -3.987706 1.989585
v 1.609631 -3.987706 -1.997165
v 1.225760 1.571117 2.000845
v 1.595677 1.601003 2.000845
v 1.595677 1.638381 2.000845
v 1.195759 1.638381 2.000845
v 1.195759 1.601003 2.000845
v 1.195759 5.101454 -1.997897
v 1.195759 5.138832 -1.997897
v 1.595677 5.138832 -1.997897
v 1.595677 5.101454 -1.997897
v 1.225760 5.071568 -1.997897
v 1.225760 5.168718 -1.997897
v 1.565676 5.071568 -1.997897
v 1.565676 5.168718 -1.997897
v 1.225760 1.668267 2.000845
v 1.565676 1.571117 2.000845
v 1.565676 1.668267 2.000845
v 1.402274 3.849060 -1.853993
v 1.402274 4.986972 -1.853993
v 1.451771 3.849060 -1.833491
v 1.451771 4.971972 -1.833491
v 1.472273 3.849060 -1.783993
v 1.472273 4.936973 -1.783993
v 1.451771 3.849060 -1.734496
v 1.451771 4.901972 -1.734496
v 1.402274 3.849060 -1.713993
v 1.402274 4.886972 -1.713993
v 1.352776 3.849060 -1.734496
v 1.352776 4.901972 -1.734496
v 1.332274 3.849060 -1.783993
v 1.332274 4.936973 -1.783993
v 1.352776 3.849060 -1.833491
v 1.352776 4.971972 -1.833491
v 1.352776 4.184525 -0.942459
v 1.352776 3.078033 -0.942459
v 1.332274 4.149526 -0.892961
v 1.332274 3.078033 -0.892961
v 1.352776 4.114525 -0.843464
v 1.352776 3.078033 -0.843464
v 1.402274 4.099525 -0.822961
v 1.402274 3.078033 -0.822961
v 1.451771 4.114525 -0.843464
v 1.451771 3.078033 -0.843464
v 1.472273 4.149526 -0.892961
v 1.472273 3.078033 -0.892961
v 1.451771 4.184525 -0.942459
v 1.451771 3.078033 -0.942459
v 1.402274 4.199525 -0.962961
v 1.402274 3.078033 -0.962961
v 1.352776 3.395306 -0.042340
v 1.352776 2.320948 -0.042340
v 1.332274 3.360306 0.007157
v 1.332274 2.320948 0.007157
v 1.352776 3.325306 0.056655
v 1.352776 2.320948 0.056655
v 1.402274 3.310306 0.077157
v 1.402274 2.320948 0.077157
v 1.451771 3.325306 0.056655
v 1.451771 2.320948 0.056655
v 1.472273 3.360306 0.007157
v 1.472273 2.320948 0.007157
v 1.451771 3.395306 -0.042340
v 1.451771 2.320948 -0.042340
v 1.402274 3.410306 -0.062843
v 1.402274 2.320948 -0.062843
v 1.352776 2.629558 0.830640
v 1.352776 1.536039 0.830640
v 1.332274 2.594558 0.880137
v 1.332274 1.536039 0.880137
v 1.352776 2.559558 0.929635
v 1.352776 1.536039 0.929635
v 1.402274 2.544558 0.950137
v 1.402274 1.536039 0.950137
v 1.451771 2.559558 0.929635
v 1.451771 1.536039 0.929635
v 1.472273 2.594558 0.880137
v 1.472273 1.536039 0.880137
v 1.451771 2.629558 0.830640
v 1.451771 1.536039 0.830640
v 1.402274 2.644558 0.810137
v 1.402274 1.536039 0.810137
v 1.352776 1.829606 1.721746
v 1.352776 0.774120 1.721746
v 1.332274 1.794606 1.771244
v 1.332274 0.774120 1.771244
v 1.352776 1.759606 1.820741
v 1.352776 0.774120 1.820741
v 1.402274 1.744606 1.841243
v 1.402274 0.774120 1.841243
v 1.451771 1.759606 1.820741
v 1.451771 0.774120 1.820741
v 1.472273 1.794606 1.771244
v 1.472273 0.774120 1.771244
v 1.451771 1.829606 1.721746
v 1.451771 0.774120 1.721746
v 1.402274 1.844606 1.701244
v 1.402274 0.774120 1.701244
v -1.609631 0.012294 1.989585
v -1.609631 0.012294 -1.997165
v -1.609631 0.404005 1.992961
v -1.609631 3.883255 -1.991925
v -1.609631 3.883255 -1.549160
v -1.609631 3.494005 -1.549160
v -1.609631 3.494005 -1.106395
v -1.609631 3.107755 -1.106395
v -1.609631 3.107755 -0.663630
v -1.609631 2.721505 -0.663630
v -1.609631 2.721505 -0.220865
v -1.609631 2.335255 -0.220865
v -1.609631 2.335255 0.221900
v -1.609631 1.949005 0.221900
v -1.609631 1.949005 0.664666
v -1.609631 1.562755 0.664666
v -1.609631 1.562755 1.107431
v -1.609631 1.176505 1.107431
v -1.609631 1.176505 1.550196
v -1.609631 0.790255 1.550196
v -1.609631 0.790255 1.992961
v -1.609631 -3.987706 1.989585
v -1.609631 -3.987706 -1.997165
v -1.225760 1.571117 2.000845
v -1.595677 1.601003 2.000845
v -1.595677 1.638381 2.000845
v -1.195759 1.638381 2.000845
v -1.195759 1.601003 2.000845
v -1.195759 5.101454 -1.997897
v -1.195759 5.138832 -1.997897
v -1.595677 5.138832 -1.997897
v -1.595677 5.101454 -1.997897
v -1.225760 5.071568 -1.997897
v -1.225760 5.168718 -1.997897
v -1.565676 5.071568 -1.997897
v -1.565676 5.168718 -1.997897
v -1.225760 1.668267 2.000845
v -1.565676 1.571117 2.000845
v -1.565676 1.668267 2.000845
v -1.402274 3.849060 -1.853993
v -1.402274 4.986972 -1.853993
v -1.451771 3.849060 -1.833491
v -1.451771 4.971972 -1.833491
v -1.472273 3.849060 -1.783993
v -1.472273 4.936973 -1.783993
v -1.451771 3.849060 -1.734496
v -1.451771 4.901972 -1.734496
v -1.402274 3.849060 -1.713993
v -1.402274 4.886972 -1.713993
v -1.352776 3.849060 -1.734496
v -1.352776 4.901972 -1.734496
v -1.332274 3.849060 -1.783993
v -1.332274 4.936973 -1.783993
v -1.352776 3.849060 -1.833491
v -1.352776 4.971972 -1.833491
v -1.352776 4.184525 -0.942459
v -1.352776 3.078033 -0.942459
v -1.332274 4.149526 -0.892961
v -1.332274 3.078033 -0.892961
v -1.352776 4.114525 -0.843464
v -1.352776 3.078033 -0.843464
v -1.402274 4.099525 -0.822961
v -1.402274 3.078033 -0.822961
v -1.451771 4.114525 -0.843464
v -1.451771 3.078033 -0.843464
v -1.472273 4.149526 -0.892961
v -1.472273 3.078033 -0.892961
v -1.451771 4.184525 -0.942459
v -1.451771 3.078033 -0.942459
v -1.402274 4.199525 -0.962961
v -1.402274 3.078033 -0.962961
v -1.352776 3.395306 -0.042340
v -1.352776 2.320948 -0.042340
v -1.332274 3.360306 0.007157
v -1.332274 2.320948 0.007157
v -1.352776 3.325306 0.056655
v -1.352776 2.320948 0.056655
v -1.402274 3.310306 0.077157
v -1.402274 2.320948 0.077157
v -1.451771 3.325306 0.056655
v -1.451771 2.320948 0.056655
v -1.472273 3.360306 0.007157
v -1.472273 2.320948 0.007157
v -1.451771 3.395306 -0.042340
v -1.451771 2.320948 -0.042340
v -1.402274 3.410306 -0.062843
v -1.402274 2.320948 -0.062843
v -1.352776 2.629558 0.830640
v -1.352776 1.536039 0.830640
v -1.332274 2.594558 0.880137
v -1.332274 1.536039 0.880137
v -1.352776 2.559558 0.929635
v -1.352776 1.536039 0.929635
v -1.402274 2.544558 0.950137
v -1.402274 1.536039 0.950137
v -1.451771 2.559558 0.929635
v -1.451771 1.536039 0.929635
v -1.472273 2.594558 0.880137
v -1.472273 1.536039 0.880137
v -1.451771 2.629558 0.830640
v -1.451771 1.536039 0.830640
v -1.402274 2.644558 0.810137
v -1.402274 1.536039 0.810137
v -1.352776 1.829606 1.721746
v -1.352776 0.774120 1.721746
v -1.332274 1.794606 1.771244
v -1.332274 0.774120 1.771244
v -1.352776 1.759606 1.820741
v -1.352776 0.774120 1.820741
v -1.402274 1.744606 1.841243
v -1.402274 0.774120 1.841243
v -1.451771 1.759606 1.820741
v -1.451771 0.774120 1.820741
v -1.472273 1.794606 1.771244
v -1.472273 0.774120 1.771244
v -1.451771 1.829606 1.721746
v -1.451771 0.774120 1.721746
v -1.402274 1.844606 1.701244
v -1.402274 0.774120 1.701244
vn 1.0000 -0.0000 -0.0000
vn -0.0000 -0.0000 1.0000
vn -0.0000 -0.0086 1.0000
vn -0.5998 0.6021 0.5270
vn 0.5998 -0.6021 -0.5271
vn -1.0000 -0.0000 -0.0000
vn -0.0000 -0.7524 -0.6587
vn -0.5998 -0.6021 -0.5270
vn -0.0000 0.7524 0.6587
vn 0.5998 0.6021 0.5270
vn 0.3827 -0.0000 -0.9239
vn 0.9239 -0.0000 -0.3827
vn 0.9239 -0.0000 0.3827
vn 0.3827 -0.0000 0.9239
vn -0.3827 -0.0000 0.9239
vn -0.9239 -0.0000 0.3827
vn -0.9239 -0.0000 -0.3827
vn -0.3827 -0.0000 -0.9239
vn -0.0000 1.0000 -0.0000
vn -0.0000 0.0014 -1.0000
vn -0.0000 -0.0000 -1.0000
vn -0.5998 -0.6021 -0.5271
vn 0.5998 -0.6021 -0.5270
vn -0.0000 -1.0000 -0.0000
vt 0.958930 0.939985
vt 0.946495 0.965247
vt 0.942367 0.961645
vt 0.983467 0.951176
vt 0.978207 0.956436
vt 0.973211 0.951439
vt 0.921756 0.939985
vt 0.921724 0.943638
vt 0.901423 0.953280
vt 0.896164 0.958539
vt 0.891168 0.953543
vt 0.958881 0.977012
vt 0.954752 0.972450
vt 0.967952 0.956698
vt 0.962956 0.951702
vt 0.957696 0.956961
vt 0.952700 0.951965
vt 0.947441 0.957224
vt 0.942445 0.952228
vt 0.937186 0.957487
vt 0.932189 0.952491
vt 0.926930 0.957750
vt 0.921934 0.952754
vt 0.916675 0.958013
vt 0.911678 0.953017
vt 0.906419 0.958276
vt 0.925853 0.947239
vt 0.950624 0.968848
vt 0.929981 0.950841
vt 0.938238 0.958044
vt 0.934110 0.954442
vt 0.952102 0.903638
vt 0.952102 0.944369
vt 0.952102 0.940697
vt 0.921756 0.902688
vt 0.958930 0.902688
vt 0.911191 0.811298
vt 0.911573 0.807323
vt 0.977596 0.807323
vt 0.977214 0.811298
vt 0.971808 0.856920
vt 0.972139 0.860916
vt 0.915011 0.860916
vt 0.914680 0.856920
vt 0.902311 0.816583
vt 0.902770 0.810717
vt 0.986652 0.810717
vt 0.986194 0.816583
vt 0.971808 0.811637
vt 0.914680 0.811637
vt 0.972139 0.807641
vt 0.915011 0.807641
vt 0.911191 0.856331
vt 0.977214 0.856331
vt 0.911573 0.860305
vt 0.977597 0.860305
vt 0.891310 0.897085
vt 0.890794 0.893554
vt 0.985092 0.893554
vt 0.985608 0.897085
vt 0.975019 0.709573
vt 0.975019 0.776760
vt 0.965455 0.776760
vt 0.965455 0.709573
vt 0.955890 0.776760
vt 0.955890 0.709573
vt 0.946325 0.776760
vt 0.946325 0.709573
vt 0.936760 0.776760
vt 0.936760 0.709573
vt 0.927195 0.776760
vt 0.927195 0.709573
vt 0.917630 0.776760
vt 0.917630 0.709573
vt 0.908066 0.776760
vt 0.908066 0.709573
vt 0.898501 0.776760
vt 0.898501 0.709573
vt 0.977852 0.943910
vt 0.978312 0.903353
vt 0.977852 0.943910
vt 0.978312 0.903353
vt 0.922095 0.933121
vt 0.922095 0.961756
vt 0.922095 0.904277
vt 0.952102 0.903200
vt 0.971986 0.903791
s 0
f 2/1/1 10/2/1 12/3/1
f 4/4/1 5/5/1 6/6/1
f 1/7/1 2/1/1 3/8/1
f 20/9/1 21/10/1 3/11/1
f 2/1/1 4/12/1 6/13/1
f 6/6/1 7/14/1 8/15/1
f 8/15/1 9/16/1 10/17/1
f 10/17/1 11/18/1 12/19/1
f 12/19/1 13/20/1 14/21/1
f 14/21/1 15/22/1 16/23/1
f 16/23/1 17/24/1 18/25/1
f 18/25/1 19/26/1 20/9/1
f 20/27/1 3/8/1 2/1/1
f 2/1/1 6/13/1 8/28/1
f 2/1/1 8/28/1 10/2/1
f 18/29/1 20/27/1 2/1/1
f 12/3/1 14/30/1 2/1/1
f 14/30/1 16/31/1 2/1/1
f 16/31/1 18/29/1 2/1/1
f 140/32/2 122/33/2 3/33/2 21/32/2
f 120/34/3 1/34/3 3/33/3 122/33/3
f 2/1/1 1/7/1 22/35/1 23/36/1
f 34/37/4 30/38/4 27/39/4 37/40/4
f 35/41/5 32/42/5 25/43/5 38/44/5
f 30/45/6 29/46/6 28/47/6 27/48/6
f 33/49/7 35/41/7 38/44/7 24/50/7
f 29/51/8 33/49/8 24/50/8 28/52/8
f 36/53/9 34/37/9 37/40/9 39/54/9
f 31/55/10 36/53/10 39/54/10 26/56/10
f 32/57/1 31/58/1 26/59/1 25/60/1
f 40/61/11 41/62/11 43/63/11 42/64/11
f 42/64/12 43/63/12 45/65/12 44/66/12
f 44/66/13 45/65/13 47/67/13 46/68/13
f 46/68/14 47/67/14 49/69/14 48/70/14
f 48/70/15 49/69/15 51/71/15 50/72/15
f 50/72/16 51/71/16 53/73/16 52/74/16
f 52/74/17 53/73/17 55/75/17 54/76/17
f 54/76/18 55/75/18 41/77/18 40/78/18
f 57/76/18 56/75/18 70/77/18 71/78/18
f 59/74/17 58/73/17 56/75/17 57/76/17
f 61/72/16 60/71/16 58/73/16 59/74/16
f 63/70/15 62/69/15 60/71/15 61/72/15
f 65/68/14 64/67/14 62/69/14 63/70/14
f 67/66/13 66/65/13 64/67/13 65/68/13
f 69/64/12 68/63/12 66/65/12 67/66/12
f 71/61/11 70/62/11 68/63/11 69/64/11
f 73/76/18 72/75/18 86/77/18 87/78/18
f 75/74/17 74/73/17 72/75/17 73/76/17
f 77/72/16 76/71/16 74/73/16 75/74/16
f 79/70/15 78/69/15 76/71/15 77/72/15
f 81/68/14 80/67/14 78/69/14 79/70/14
f 83/66/13 82/65/13 80/67/13 81/68/13
f 85/64/12 84/63/12 82/65/12 83/66/12
f 87/61/11 86/62/11 84/63/11 85/64/11
f 89/76/18 88/75/18 102/77/18 103/78/18
f 91/74/17 90/73/17 88/75/17 89/76/17
f 93/72/16 92/71/16 90/73/16 91/74/16
f 95/70/15 94/69/15 92/71/15 93/72/15
f 97/68/14 96/67/14 94/69/14 95/70/14
f 99/66/13 98/65/13 96/67/13 97/68/13
f 101/64/12 100/63/12 98/65/12 99/66/12
f 103/61/11 102/62/11 100/63/11 101/64/11
f 105/76/18 104/75/18 118/77/18 119/78/18
f 107/74/17 106/73/17 104/75/17 105/76/17
f 109/72/16 108/71/16 106/73/16 107/74/16
f 111/70/15 110/69/15 108/71/15 109/72/15
f 113/68/14 112/67/14 110/69/14 111/70/14
f 115/66/13 114/65/13 112/67/13 113/68/13
f 117/64/12 116/63/12 114/65/12 115/66/12
f 119/61/11 118/62/11 116/63/11 117/64/11
f 139/79/19 140/80/19 21/80/19 20/79/19
f 138/80/2 139/79/2 20/79/2 19/80/2
f 137/81/19 138/80/19 19/80/19 18/81/19
f 136/82/2 137/81/2 18/81/2 17/82/2
f 135/81/19 136/82/19 17/82/19 16/81/19
f 134/80/2 135/81/2 16/81/2 15/80/2
f 133/79/19 134/80/19 15/80/19 14/79/19
f 132/82/2 133/79/2 14/79/2 13/82/2
f 131/79/19 132/82/19 13/82/19 12/79/19
f 130/82/2 131/79/2 12/79/2 11/82/2
f 129/79/19 130/82/19 11/82/19 10/79/19
f 128/82/2 129/79/2 10/79/2 9/82/2
f 127/79/19 128/82/19 9/82/19 8/79/19
f 126/82/2 127/79/2 8/79/2 7/82/2
f 125/79/19 126/82/19 7/82/19 6/79/19
f 124/82/2 125/79/2 6/79/2 5/82/2
f 123/79/19 124/82/19 5/82/19 4/79/19
f 121/83/20 123/84/20 4/84/20 2/83/20
f 23/85/21 142/85/21 121/83/21 2/83/21
f 120/34/2 141/86/2 22/86/2 1/34/2
f 121/1/6 131/3/6 129/2/6
f 123/4/6 125/6/6 124/5/6
f 120/7/6 122/8/6 121/1/6
f 139/9/6 122/11/6 140/10/6
f 121/1/6 125/13/6 123/12/6
f 125/6/6 127/15/6 126/14/6
f 127/15/6 129/17/6 128/16/6
f 129/17/6 131/19/6 130/18/6
f 131/19/6 133/21/6 132/20/6
f 133/21/6 135/23/6 134/22/6
f 135/23/6 137/25/6 136/24/6
f 137/25/6 139/9/6 138/26/6
f 139/27/6 121/1/6 122/8/6
f 121/1/6 127/28/6 125/13/6
f 121/1/6 129/2/6 127/28/6
f 137/29/6 121/1/6 139/27/6
f 131/3/6 121/1/6 133/30/6
f 133/30/6 121/1/6 135/31/6
f 135/31/6 121/1/6 137/29/6
f 121/1/6 142/36/6 141/35/6 120/7/6
f 153/37/10 156/40/10 146/39/10 149/38/10
f 154/41/22 157/44/22 144/43/22 151/42/22
f 149/45/1 146/48/1 147/47/1 148/46/1
f 152/49/7 143/50/7 157/44/7 154/41/7
f 148/51/23 147/52/23 143/50/23 152/49/23
f 155/53/9 158/54/9 156/40/9 153/37/9
f 150/55/4 145/56/4 158/54/4 155/53/4
f 151/57/6 144/60/6 145/59/6 150/58/6
f 159/61/18 161/64/18 162/63/18 160/62/18
f 161/64/17 163/66/17 164/65/17 162/63/17
f 163/66/16 165/68/16 166/67/16 164/65/16
f 165/68/15 167/70/15 168/69/15 166/67/15
f 167/70/14 169/72/14 170/71/14 168/69/14
f 169/72/13 171/74/13 172/73/13 170/71/13
f 171/74/12 173/76/12 174/75/12 172/73/12
f 173/76/11 159/78/11 160/77/11 174/75/11
f 176/76/11 190/78/11 189/77/11 175/75/11
f 178/74/12 176/76/12 175/75/12 177/73/12
f 180/72/13 178/74/13 177/73/13 179/71/13
f 182/70/14 180/72/14 179/71/14 181/69/14
f 184/68/15 182/70/15 181/69/15 183/67/15
f 186/66/16 184/68/16 183/67/16 185/65/16
f 188/64/17 186/66/17 185/65/17 187/63/17
f 190/61/18 188/64/18 187/63/18 189/62/18
f 192/76/11 206/78/11 205/77/11 191/75/11
f 194/74/12 192/76/12 191/75/12 193/73/12
f 196/72/13 194/74/13 193/73/13 195/71/13
f 198/70/14 196/72/14 195/71/14 197/69/14
f 200/68/15 198/70/15 197/69/15 199/67/15
f 202/66/16 200/68/16 199/67/16 201/65/16
f 204/64/17 202/66/17 201/65/17 203/63/17
f 206/61/18 204/64/18 203/63/18 205/62/18
f 208/76/11 222/78/11 221/77/11 207/75/11
f 210/74/12 208/76/12 207/75/12 209/73/12
f 212/72/13 210/74/13 209/73/13 211/71/13
f 214/70/14 212/72/14 211/71/14 213/69/14
f 216/68/15 214/70/15 213/69/15 215/67/15
f 218/66/16 216/68/16 215/67/16 217/65/16
f 220/64/17 218/66/17 217/65/17 219/63/17
f 222/61/18 220/64/18 219/63/18 221/62/18
f 224/76/11 238/78/11 237/77/11 223/75/11
f 226/74/12 224/76/12 223/75/12 225/73/12
f 228/72/13 226/74/13 225/73/13 227/71/13
f 230/70/14 228/72/14 227/71/14 229/69/14
f 232/68/15 230/70/15 229/69/15 231/67/15
f 234/66/16 232/68/16 231/67/16 233/65/16
f 236/64/17 234/66/17 233/65/17 235/63/17
f 238/61/18 236/64/18 235/63/18 237/62/18
f 22/81/24 141/81/24 142/87/24 23/87/24
