# Blender 4.4.3
# www.blender.org
o SM_NormalCorner_Stairs_V1.0
v -3.337286 0.000000 -1.825707
v -3.337286 4.000000 0.000000
v 0.337289 4.000000 0.000000
v 1.400719 4.005177 0.000000
v 4.988498 0.049866 0.000000
v 1.402269 4.420289 0.000000
v 1.801595 4.418707 0.000000
v 1.803087 4.818033 0.000000
v 2.202412 4.816453 0.000000
v 2.203905 5.215777 0.000000
v 2.603229 5.214198 0.000000
v 2.604723 5.613522 0.000000
v 3.004045 5.611944 0.000000
v 3.005541 6.011267 0.000000
v 3.404862 6.009690 0.000000
v 3.406359 6.409011 0.000000
v 3.805679 6.407435 0.000000
v 3.807177 6.806756 0.000000
v 4.206496 6.805182 0.000000
v 4.207994 7.204500 0.000000
v 4.607313 7.202927 0.000000
v 4.608812 7.602245 0.000000
v 5.008130 7.600673 0.000000
v -3.337286 0.000000 5.500000
v 0.337289 0.000000 5.500000
v -3.337286 0.250000 5.500000
v -3.337286 4.000000 1.750000
v -3.337286 0.250000 5.125000
v -3.337286 0.625000 5.125000
v -3.337286 0.625000 4.750000
v -3.337286 1.000000 4.750000
v -3.337286 1.000000 4.375000
v -3.337286 1.375000 4.375000
v -3.337286 1.375000 4.000000
v -3.337286 1.750000 4.000000
v -3.337286 1.750000 3.625000
v -3.337286 2.125000 3.625000
v -3.337286 2.125000 3.250000
v -3.337286 2.500000 3.250000
v -3.337286 2.500000 2.875000
v -3.337286 2.875000 2.875000
v -3.337286 2.875000 2.500000
v -3.337286 3.250000 2.500000
v -3.337286 3.250000 2.125000
v -3.337286 3.625000 2.125000
v -3.337286 3.625000 1.750000
v 0.337289 4.000000 1.816818
v 0.337289 0.250000 5.500000
v 0.337289 3.725000 1.816818
v 0.337289 3.625000 2.125000
v 0.337289 3.250000 2.125000
v 0.337289 3.250000 2.500000
v 0.337289 2.875000 2.500000
v 0.337289 2.875000 2.875000
v 0.337289 2.500000 2.875000
v 0.337289 2.500000 3.250000
v 0.337289 2.125000 3.250000
v 0.337289 2.125000 3.625000
v 0.337289 1.750000 3.625000
v 0.337289 1.750000 4.000000
v 0.337289 1.375000 4.000000
v 0.337289 1.375000 4.375000
v 0.337289 1.000000 4.375000
v 0.337289 1.000000 4.750000
v 0.337289 0.625000 4.750000
v 0.337289 0.625000 5.125000
v 0.337289 0.250000 5.125000
v 4.988498 3.749866 1.816818
v 1.400719 4.005177 1.816818
v 4.988498 3.749866 -0.006201
v 5.008130 7.600673 1.816818
v 0.337289 0.025000 1.825000
v 4.988498 0.049866 1.825000
v 5.004372 5.648434 1.816818
v 1.402269 4.420288 1.816818
v 4.608812 7.602245 1.816818
v 4.607313 7.202928 1.816818
v 4.207994 7.204501 1.816818
v 4.206496 6.805182 1.816818
v 3.807177 6.806756 1.816818
v 3.805679 6.407436 1.816818
v 3.406359 6.409011 1.816818
v 3.404862 6.009690 1.816818
v 3.005540 6.011267 1.816818
v 3.004045 5.611944 1.816818
v 2.604723 5.613522 1.816818
v 2.603229 5.214199 1.816818
v 2.203904 5.215777 1.816818
v 2.202412 4.816453 1.816818
v 1.803086 4.818033 1.816818
v 1.801595 4.418707 1.816818
v -3.337286 4.000000 -1.750000
v -3.337286 3.725000 -1.815999
v 0.337289 4.000000 -1.816818
v 0.337289 3.725000 -1.816818
v 4.988498 3.749866 -1.816818
v 1.400719 4.005177 -1.816818
v 5.004372 5.648434 0.000000
v 5.008130 7.600673 -1.816818
v 0.337289 0.002372 -1.825000
v 4.988498 0.027238 -1.825000
v 5.004372 5.648434 -1.816818
v 1.402269 4.420288 -1.816818
v 4.608812 7.602245 -1.816818
v 4.607313 7.202928 -1.816818
v 4.207994 7.204501 -1.816818
v 4.206496 6.805182 -1.816818
v 3.807177 6.806756 -1.816818
v 3.805679 6.407436 -1.816818
v 3.406359 6.409011 -1.816818
v 3.404862 6.009690 -1.816818
v 3.005540 6.011267 -1.816818
v 3.004045 5.611944 -1.816818
v 2.604723 5.613522 -1.816818
v 2.603229 5.214199 -1.816818
v 2.203904 5.215777 -1.816818
v 2.202412 4.816453 -1.816818
v 1.803086 4.818033 -1.816818
v 1.801595 4.418707 -1.816818
vn -0.0000 1.0000 -0.0000
vn -1.0000 -0.0000 -0.0000
vn -0.0182 -0.0000 0.9998
vn -0.0148 0.9893 0.1448
vn -0.0000 -0.0000 1.0000
vn -0.0049 1.0000 -0.0000
vn 1.0000 -0.0000 -0.0000
vn -1.0000 0.0037 -0.0000
vn -0.0000 0.0022 1.0000
vn 0.0039 1.0000 -0.0000
vn -1.0000 0.0038 -0.0000
vn 0.0040 1.0000 -0.0000
vn -0.0091 0.1191 -0.9928
vn 1.0000 -0.0019 -0.0000
vn -0.0000 0.0022 -1.0000
vn -0.0000 -0.0000 -1.0000
vn -0.0000 0.0024 -1.0000
vn 1.0000 -0.0084 -0.0000
vt 0.978312 0.949228
vt 0.898374 0.949228
vt 0.898374 0.914368
vt 0.978312 0.914368
vt 0.933807 0.936765
vt 0.941244 0.943831
vt 0.971986 0.903791
vt 0.897914 0.943910
vt 0.977852 0.943910
vt 0.898374 0.903353
vt 0.978312 0.903353
vt 0.897914 0.943910
vt 0.898374 0.903353
vt 0.978312 0.903353
vt 0.977852 0.943910
vt 0.896618 0.903791
vt 0.904056 0.908502
vt 0.896618 0.908502
vt 0.904056 0.915568
vt 0.911494 0.915568
vt 0.970995 0.979159
vt 0.971986 0.979159
vt 0.970995 0.972094
vt 0.963557 0.965028
vt 0.963557 0.972094
vt 0.911494 0.922633
vt 0.918931 0.922633
vt 0.918931 0.929699
vt 0.926369 0.929699
vt 0.926369 0.936765
vt 0.933807 0.943831
vt 0.941244 0.950897
vt 0.948682 0.950897
vt 0.948682 0.957962
vt 0.956119 0.957962
vt 0.956119 0.965028
vt 0.887508 0.944674
vt 0.998331 0.944674
vt 0.998331 0.945448
vt 0.887508 0.945448
vt 0.962191 0.958131
vt 0.957660 0.956661
vt 0.957660 0.951147
vt 0.908038 0.907039
vt 0.908038 0.903363
vt 0.913552 0.907039
vt 0.919065 0.912553
vt 0.913552 0.912553
vt 0.952146 0.951147
vt 0.952146 0.945634
vt 0.946633 0.945634
vt 0.946633 0.940120
vt 0.941119 0.940120
vt 0.941119 0.934607
vt 0.935606 0.934607
vt 0.935606 0.929093
vt 0.930092 0.929093
vt 0.930092 0.923580
vt 0.924579 0.923580
vt 0.924579 0.918066
vt 0.919065 0.918066
vt 0.998331 0.904771
vt 0.887509 0.904771
vt 0.922535 0.950803
vt 0.900828 0.950503
vt 0.900805 0.904995
vt 0.922512 0.905295
vt 0.950308 0.903731
vt 0.998331 0.949975
vt 0.887509 0.949975
vt 0.887509 0.907202
vt 0.998331 0.907202
vt 0.887509 0.946336
vt 0.998331 0.946336
vt 0.887509 0.909084
vt 0.998331 0.909084
vt 0.887509 0.946378
vt 0.998331 0.946378
vt 0.887509 0.907285
vt 0.998331 0.907285
vt 0.887509 0.942738
vt 0.998331 0.942738
vt 0.887509 0.905486
vt 0.998331 0.905486
vt 0.887509 0.944620
vt 0.998331 0.944620
vt 0.887509 0.905527
vt 0.998331 0.905527
vt 0.887509 0.944661
vt 0.998331 0.944661
vt 0.887509 0.905568
vt 0.998331 0.905568
vt 0.887509 0.945623
vt 0.998331 0.945623
vt 0.887509 0.905610
vt 0.998331 0.905609
vt 0.887509 0.945664
vt 0.998331 0.945664
vt 0.887509 0.905650
vt 0.998331 0.905650
vt 0.887509 0.943864
vt 0.998331 0.943864
vt 0.974370 0.936855
vt 0.967240 0.936853
vt 0.967213 0.937420
vt 0.960084 0.937418
vt 0.960057 0.937985
vt 0.952927 0.937983
vt 0.952900 0.938550
vt 0.945771 0.938548
vt 0.945744 0.939115
vt 0.938614 0.939113
vt 0.938588 0.939681
vt 0.931458 0.939678
vt 0.931431 0.940246
vt 0.924301 0.940244
vt 0.924275 0.940811
vt 0.917145 0.940809
vt 0.917118 0.941376
vt 0.909988 0.941374
vt 0.909961 0.941964
vt 0.886909 0.941971
vt 0.886909 0.942362
vt 0.957950 0.942327
vt 0.974303 0.939629
vt 0.990466 0.936962
vt 0.978312 0.947705
vt 0.898374 0.947705
vt 0.978312 0.948308
vt 0.977852 0.948281
vt 0.897914 0.948281
vt 0.898374 0.948308
vt 0.921953 0.945477
vt 0.935976 0.945492
vt 0.935960 0.960561
vt 0.921937 0.960546
vt 0.943562 0.950863
vt 0.943634 0.905030
vt 0.965341 0.904853
vt 0.965269 0.950686
vt 0.909961 0.946335
vt 0.886909 0.946733
vt 0.886909 0.946343
vt 0.957950 0.946698
vt 0.986604 0.904996
vt 0.986532 0.950863
vt 0.949999 0.945508
vt 0.949983 0.960576
vt 0.936023 0.902280
vt 0.936040 0.930838
vt 0.921969 0.930823
vt 0.921937 0.902265
vt 0.950015 0.930853
vt 0.950110 0.902121
s 0
f 3/1/1 2/2/1 27/3/1 47/4/1
f 36/5/2 38/6/2 1/7/2
f 47/4/3 27/3/3 46/8/3 49/9/3
f 49/9/4 46/8/4 45/10/4 50/11/4
f 50/11/5 45/10/5 44/8/5 51/9/5
f 51/9/1 44/8/1 43/10/1 52/11/1
f 52/11/5 43/10/5 42/8/5 53/9/5
f 53/9/1 42/8/1 41/10/1 54/11/1
f 54/11/5 41/10/5 40/12/5 55/9/5
f 55/9/1 40/12/1 39/13/1 56/11/1
f 56/11/5 39/13/5 38/12/5 57/9/5
f 57/9/1 38/12/1 37/10/1 58/11/1
f 58/11/5 37/10/5 36/8/5 59/9/5
f 59/9/1 36/8/1 35/13/1 60/14/1
f 60/14/5 35/13/5 34/12/5 61/15/5
f 61/15/1 34/12/1 33/10/1 62/11/1
f 62/11/5 33/10/5 32/8/5 63/15/5
f 63/15/1 32/8/1 31/10/1 64/14/1
f 64/14/5 31/10/5 30/8/5 65/9/5
f 65/9/1 30/8/1 29/10/1 66/14/1
f 66/14/5 29/10/5 28/8/5 67/15/5
f 67/15/1 28/8/1 26/10/1 48/11/1
f 25/15/5 48/11/5 26/10/5 24/12/5
f 1/7/2 24/16/2 28/17/2
f 24/16/2 26/18/2 28/17/2
f 28/17/2 29/19/2 30/20/2
f 27/21/2 2/22/2 46/23/2
f 2/22/2 1/7/2 46/23/2
f 44/24/2 45/25/2 46/23/2
f 1/7/2 28/17/2 30/20/2
f 30/20/2 31/26/2 32/27/2
f 32/27/2 33/28/2 34/29/2
f 34/29/2 35/30/2 36/5/2
f 36/5/2 37/31/2 38/6/2
f 38/6/2 39/32/2 40/33/2
f 40/33/2 41/34/2 42/35/2
f 42/35/2 43/36/2 44/24/2
f 44/24/2 46/23/2 1/7/2
f 1/7/2 30/20/2 32/27/2
f 1/7/2 32/27/2 34/29/2
f 42/35/2 44/24/2 1/7/2
f 40/33/2 42/35/2 1/7/2
f 1/7/2 34/29/2 36/5/2
f 38/6/2 40/33/2 1/7/2
f 3/37/6 47/38/6 69/39/6 4/40/6
f 49/41/7 50/42/7 51/43/7
f 48/44/7 25/45/7 67/46/7
f 65/47/7 66/48/7 67/46/7
f 51/43/7 52/49/7 53/50/7
f 53/50/7 54/51/7 55/52/7
f 55/52/7 56/53/7 57/54/7
f 57/54/7 58/55/7 59/56/7
f 59/56/7 60/57/7 61/58/7
f 61/58/7 62/59/7 63/60/7
f 63/60/7 64/61/7 65/47/7
f 4/40/8 69/39/8 75/62/8 6/63/8
f 68/64/9 49/65/9 72/66/9 73/67/9
f 61/58/7 63/60/7 72/68/7
f 71/69/10 23/70/10 22/71/10 76/72/10
f 76/72/11 22/71/11 21/73/11 77/74/11
f 77/74/10 21/73/10 20/75/10 78/76/10
f 78/76/11 20/75/11 19/77/11 79/78/11
f 79/78/10 19/77/10 18/79/10 80/80/10
f 80/80/8 18/79/8 17/81/8 81/82/8
f 81/82/10 17/81/10 16/83/10 82/84/10
f 82/84/8 16/83/8 15/85/8 83/86/8
f 83/86/10 15/85/10 14/87/10 84/88/10
f 84/88/8 14/87/8 13/89/8 85/90/8
f 85/90/12 13/89/12 12/91/12 86/92/12
f 86/92/8 12/91/8 11/93/8 87/94/8
f 87/94/12 11/93/12 10/95/12 88/96/12
f 88/96/8 10/95/8 9/97/8 89/98/8
f 89/98/12 9/97/12 8/99/12 90/100/12
f 90/100/8 8/99/8 7/101/8 91/102/8
f 91/102/12 7/101/12 6/63/12 75/62/12
f 71/103/5 76/104/5 77/105/5
f 77/105/5 78/106/5 79/107/5
f 79/107/5 80/108/5 81/109/5
f 81/109/5 82/110/5 83/111/5
f 83/111/5 84/112/5 85/113/5
f 85/113/5 86/114/5 87/115/5
f 87/115/5 88/116/5 89/117/5
f 89/117/5 90/118/5 91/119/5
f 91/119/5 75/120/5 69/121/5
f 69/121/5 47/122/5 49/123/5
f 68/124/5 74/125/5 85/113/5
f 74/125/5 71/126/5 77/105/5
f 69/121/5 49/123/5 68/124/5
f 89/117/5 91/119/5 68/124/5
f 91/119/5 69/121/5 68/124/5
f 85/113/5 87/115/5 68/124/5
f 87/115/5 89/117/5 68/124/5
f 83/111/5 85/113/5 74/125/5
f 77/105/5 79/107/5 74/125/5
f 79/107/5 81/109/5 74/125/5
f 81/109/5 83/111/5 74/125/5
f 57/54/7 59/56/7 72/68/7
f 59/56/7 61/58/7 72/68/7
f 55/52/7 57/54/7 72/68/7
f 53/50/7 55/52/7 72/68/7
f 72/68/7 49/41/7 51/43/7
f 67/46/7 25/45/7 72/68/7
f 65/47/7 67/46/7 72/68/7
f 72/68/7 51/43/7 53/50/7
f 63/60/7 65/47/7 72/68/7
f 3/1/1 94/127/1 92/128/1 2/2/1
f 94/129/13 95/130/13 93/131/13 92/132/13
f 92/21/2 93/23/2 2/22/2
f 2/22/2 93/23/2 1/7/2
f 3/37/6 4/40/6 97/39/6 94/38/6
f 74/133/14 98/134/14 23/135/14 71/136/14
f 4/40/8 6/63/8 103/62/8 97/39/8
f 96/137/15 101/138/15 100/139/15 95/140/15
f 99/69/10 104/72/10 22/71/10 23/70/10
f 104/72/11 105/74/11 21/73/11 22/71/11
f 105/74/10 106/76/10 20/75/10 21/73/10
f 106/76/11 107/78/11 19/77/11 20/75/11
f 107/78/10 108/80/10 18/79/10 19/77/10
f 108/80/8 109/82/8 17/81/8 18/79/8
f 109/82/10 110/84/10 16/83/10 17/81/10
f 110/84/8 111/86/8 15/85/8 16/83/8
f 111/86/10 112/88/10 14/87/10 15/85/10
f 112/88/8 113/90/8 13/89/8 14/87/8
f 113/90/12 114/92/12 12/91/12 13/89/12
f 114/92/8 115/94/8 11/93/8 12/91/8
f 115/94/12 116/96/12 10/95/12 11/93/12
f 116/96/8 117/98/8 9/97/8 10/95/8
f 117/98/12 118/100/12 8/99/12 9/97/12
f 118/100/8 119/102/8 7/101/8 8/99/8
f 119/102/12 103/62/12 6/63/12 7/101/12
f 99/103/16 105/105/16 104/104/16
f 105/105/16 107/107/16 106/106/16
f 107/107/16 109/109/16 108/108/16
f 109/109/16 111/111/16 110/110/16
f 111/111/16 113/113/16 112/112/16
f 113/113/16 115/115/16 114/114/16
f 115/115/16 117/117/16 116/116/16
f 117/117/16 119/119/16 118/118/16
f 119/119/16 97/121/16 103/120/16
f 97/141/16 95/142/16 94/143/16
f 96/124/16 113/113/16 102/125/16
f 102/125/16 105/105/16 99/126/16
f 97/141/16 96/144/16 95/142/16
f 117/117/16 96/124/16 119/119/16
f 119/119/16 96/124/16 97/121/16
f 113/113/16 96/124/16 115/115/16
f 115/115/16 96/124/16 117/117/16
f 111/111/16 102/125/16 113/113/16
f 105/105/16 102/125/16 107/107/16
f 107/107/16 102/125/16 109/109/16
f 109/109/16 102/125/16 111/111/16
f 1/145/17 93/146/17 95/140/17 100/139/17
f 23/135/14 98/134/14 102/147/14 99/148/14
f 5/149/7 70/150/7 68/151/7 73/152/7
f 68/151/18 70/150/18 98/134/18 74/133/18
f 96/153/7 70/150/7 5/149/7 101/154/7
f 98/134/18 70/150/18 96/153/18 102/147/18
