# Blender 4.4.3
# www.blender.org
o SM_NormalSmooth_Stairs_V1.0
v 1.609631 0.012294 1.989585
v 1.609631 0.012294 -1.997165
v 1.609631 0.404005 1.992961
v 1.609631 3.883255 -1.991925
v 1.609631 3.883255 -1.549160
v 1.609631 3.494005 -1.549160
v 1.609631 3.494005 -1.106395
v 1.609631 3.107755 -1.106395
v 1.609631 3.107755 -0.663630
v 1.609631 2.721505 -0.663630
v 1.609631 2.721505 -0.220865
v 1.609631 2.335255 -0.220865
v 1.609631 2.335255 0.221900
v 1.609631 1.949005 0.221900
v 1.609631 1.949005 0.664666
v 1.609631 1.562755 0.664666
v 1.609631 1.562755 1.107431
v 1.609631 1.176505 1.107431
v 1.609631 1.176505 1.550196
v 1.609631 0.790255 1.550196
v 1.609631 0.790255 1.992961
v 1.609631 -3.987706 1.989585
v 1.609631 -3.987706 -1.997165
v -1.609631 0.012294 1.989585
v -1.609631 0.012294 -1.997165
v -1.609631 0.404005 1.992961
v -1.609631 3.883255 -1.991925
v -1.609631 3.883255 -1.549160
v -1.609631 3.494005 -1.549160
v -1.609631 3.494005 -1.106395
v -1.609631 3.107755 -1.106395
v -1.609631 3.107755 -0.663630
v -1.609631 2.721505 -0.663630
v -1.609631 2.721505 -0.220865
v -1.609631 2.335255 -0.220865
v -1.609631 2.335255 0.221900
v -1.609631 1.949005 0.221900
v -1.609631 1.949005 0.664666
v -1.609631 1.562755 0.664666
v -1.609631 1.562755 1.107431
v -1.609631 1.176505 1.107431
v -1.609631 1.176505 1.550196
v -1.609631 0.790255 1.550196
v -1.609631 0.790255 1.992961
v -1.609631 -3.987706 1.989585
v -1.609631 -3.987706 -1.997165
vn 1.0000 -0.0000 -0.0000
vn -0.0000 -0.0000 1.0000
vn -0.0000 -0.0086 1.0000
vn -0.0000 1.0000 -0.0000
vn -0.0000 0.0014 -1.0000
vn -0.0000 -0.0000 -1.0000
vn -1.0000 -0.0000 -0.0000
vn -0.0000 -1.0000 -0.0000
vt 0.958930 0.939985
vt 0.946495 0.965247
vt 0.942367 0.961645
vt 0.983467 0.951176
vt 0.978207 0.956436
vt 0.973211 0.951439
vt 0.921756 0.939985
vt 0.921724 0.943638
vt 0.901423 0.953280
vt 0.896164 0.958539
vt 0.891168 0.953543
vt 0.958881 0.977012
vt 0.954752 0.972450
vt 0.967952 0.956698
vt 0.962956 0.951702
vt 0.957696 0.956961
vt 0.952700 0.951965
vt 0.947441 0.957224
vt 0.942445 0.952228
vt 0.937186 0.957487
vt 0.932189 0.952491
vt 0.926930 0.957750
vt 0.921934 0.952754
vt 0.916675 0.958013
vt 0.911678 0.953017
vt 0.906419 0.958276
vt 0.925853 0.947239
vt 0.950624 0.968848
vt 0.929981 0.950841
vt 0.938238 0.958044
vt 0.934110 0.954442
vt 0.952102 0.903638
vt 0.952102 0.944369
vt 0.952102 0.940697
vt 0.921756 0.902688
vt 0.958930 0.902688
vt 0.977852 0.943910
vt 0.978312 0.903353
vt 0.977852 0.943910
vt 0.978312 0.903353
vt 0.922095 0.933121
vt 0.922095 0.961756
vt 0.922095 0.904277
vt 0.952102 0.903200
vt 0.971986 0.903791
s 0
f 2/1/1 10/2/1 12/3/1
f 4/4/1 5/5/1 6/6/1
f 1/7/1 2/1/1 3/8/1
f 20/9/1 21/10/1 3/11/1
f 2/1/1 4/12/1 6/13/1
f 6/6/1 7/14/1 8/15/1
f 8/15/1 9/16/1 10/17/1
f 10/17/1 11/18/1 12/19/1
f 12/19/1 13/20/1 14/21/1
f 14/21/1 15/22/1 16/23/1
f 16/23/1 17/24/1 18/25/1
f 18/25/1 19/26/1 20/9/1
f 20/27/1 3/8/1 2/1/1
f 2/1/1 6/13/1 8/28/1
f 2/1/1 8/28/1 10/2/1
f 18/29/1 20/27/1 2/1/1
f 12/3/1 14/30/1 2/1/1
f 14/30/1 16/31/1 2/1/1
f 16/31/1 18/29/1 2/1/1
f 44/32/2 26/33/2 3/33/2 21/32/2
f 24/34/3 1/34/3 3/33/3 26/33/3
f 2/1/1 1/7/1 22/35/1 23/36/1
f 43/37/4 44/38/4 21/38/4 20/37/4
f 42/38/2 43/37/2 20/37/2 19/38/2
f 41/39/4 42/38/4 19/38/4 18/39/4
f 40/40/2 41/39/2 18/39/2 17/40/2
f 39/39/4 40/40/4 17/40/4 16/39/4
f 38/38/2 39/39/2 16/39/2 15/38/2
f 37/37/4 38/38/4 15/38/4 14/37/4
f 36/40/2 37/37/2 14/37/2 13/40/2
f 35/37/4 36/40/4 13/40/4 12/37/4
f 34/40/2 35/37/2 12/37/2 11/40/2
f 33/37/4 34/40/4 11/40/4 10/37/4
f 32/40/2 33/37/2 10/37/2 9/40/2
f 31/37/4 32/40/4 9/40/4 8/37/4
f 30/40/2 31/37/2 8/37/2 7/40/2
f 29/37/4 30/40/4 7/40/4 6/37/4
f 28/40/2 29/37/2 6/37/2 5/40/2
f 27/37/4 28/40/4 5/40/4 4/37/4
f 25/41/5 27/42/5 4/42/5 2/41/5
f 23/43/6 46/43/6 25/41/6 2/41/6
f 24/34/2 45/44/2 22/44/2 1/34/2
f 25/1/7 35/3/7 33/2/7
f 27/4/7 29/6/7 28/5/7
f 24/7/7 26/8/7 25/1/7
f 43/9/7 26/11/7 44/10/7
f 25/1/7 29/13/7 27/12/7
f 29/6/7 31/15/7 30/14/7
f 31/15/7 33/17/7 32/16/7
f 33/17/7 35/19/7 34/18/7
f 35/19/7 37/21/7 36/20/7
f 37/21/7 39/23/7 38/22/7
f 39/23/7 41/25/7 40/24/7
f 41/25/7 43/9/7 42/26/7
f 43/27/7 25/1/7 26/8/7
f 25/1/7 31/28/7 29/13/7
f 25/1/7 33/2/7 31/28/7
f 41/29/7 25/1/7 43/27/7
f 35/3/7 25/1/7 37/30/7
f 37/30/7 25/1/7 39/31/7
f 39/31/7 25/1/7 41/29/7
f 25/1/7 46/36/7 45/35/7 24/7/7
f 22/39/8 45/39/8 46/45/8 23/45/8
