# Blender 4.4.3
# www.blender.org
o SM_Side-2_Billboard_V1.0
v 0.100000 2.500000 1.000000
v 0.100000 -2.500000 1.000000
v 0.100000 2.500000 3.000000
v 0.100000 -2.500000 3.000000
v -0.100000 2.500000 1.000000
v -0.100000 -2.500000 1.000000
v -0.100000 2.500000 3.000000
v -0.100000 -2.500000 3.000000
v 0.100000 2.500000 -0.000000
v -0.100000 2.500000 -0.000000
v 0.100000 -2.367168 2.900000
v 0.100000 2.367168 1.100000
v 0.100000 2.367168 2.900000
v 0.100000 -2.367168 1.100000
v -0.100000 -2.355345 1.135171
v -0.100000 2.355345 2.864829
v -0.100000 2.355345 1.135171
v -0.100000 -2.355345 2.864829
v -0.100000 -2.500000 -0.000000
v 0.100000 -2.500000 -0.000000
vn -0.0000 1.0000 -0.0000
vn -0.0000 -1.0000 -0.0000
vn 1.0000 -0.0000 -0.0000
vn -1.0000 -0.0000 -0.0000
vn -0.0000 -0.0000 1.0000
vt 0.141477 0.989224
vt 0.140513 0.986854
vt 0.160275 0.975971
vt 0.162166 0.977326
vt 0.146890 0.913495
vt 0.146888 0.910405
vt 0.166064 0.921659
vt 0.164118 0.922852
vt 0.846512 0.612307
vt 0.846512 0.693230
vt 0.815745 0.693230
vt 0.815745 0.612307
vt 0.309991 0.993053
vt 0.309991 0.910656
vt 0.311639 0.912845
vt 0.311639 0.990864
vt 0.309991 0.984724
vt 0.311639 0.982978
vt 0.046255 0.934747
vt 0.047118 0.935852
vt 0.067429 0.903644
vt 0.068247 0.964900
vt 0.342949 0.918985
vt 0.341302 0.920731
vt 0.046660 0.934202
vt 0.026060 0.966867
vt 0.342949 0.993053
vt 0.341302 0.990864
vt 0.342949 0.910656
vt 0.341302 0.912845
vt 0.047646 0.935309
vt 0.026060 0.905882
s 0
f 1/1/1 5/2/1 7/3/1 3/4/1
f 6/5/2 2/6/2 4/7/2 8/8/2
f 14/9/3 12/10/3 13/11/3 11/12/3
f 3/13/3 4/14/3 11/15/3 13/16/3
f 7/13/4 5/17/4 17/18/4 16/16/4
f 1/19/3 2/20/3 20/21/3 9/22/3
f 8/23/4 7/13/4 16/16/4 18/24/4
f 4/7/5 3/4/5 7/3/5 8/8/5
f 18/9/4 16/10/4 17/11/4 15/12/4
f 5/25/1 1/19/1 9/22/1 10/26/1
f 1/27/3 3/13/3 13/16/3 12/28/3
f 4/14/3 2/29/3 14/30/3 11/15/3
f 2/20/2 6/31/2 19/32/2 20/21/2
f 6/31/4 5/25/4 10/26/4 19/32/4
f 6/29/4 15/30/4 17/18/4 5/17/4
f 6/29/4 8/23/4 18/24/4 15/30/4
f 2/29/3 1/27/3 12/28/3 14/30/3
