# Blender 4.4.3
# www.blender.org
o SM_StraightSmall_Sidewalk_V1.1
v -8.000000 -0.000000 10.000000
v -6.000000 -0.000000 10.000000
v -6.000000 -0.000000 6.000000
v -8.000000 -0.000000 -10.000000
v -6.000000 -0.000000 -10.000000
v -6.000000 -0.000000 -6.000000
v -8.000000 -0.000000 -6.000000
v -6.000000 -0.000000 -2.000000
v -8.000000 -0.000000 -2.000000
v -8.000000 -0.000000 2.000000
v -6.000000 -0.000000 2.000000
v -8.000000 -0.000000 6.000000
v -7.949966 0.300000 9.949966
v -8.000000 0.249966 10.000000
v -6.050034 0.300000 9.949966
v -6.000000 0.249966 10.000000
v -7.949966 0.300000 6.050034
v -7.949966 0.300000 -6.050034
v -8.000000 0.249966 -6.000000
v -6.050034 0.300000 -6.050034
v -6.000000 0.249966 -6.000000
v -6.050034 0.300000 6.050034
v -7.949966 0.300000 -9.949966
v -8.000000 0.249966 -10.000000
v -6.000000 0.249966 -10.000000
v -6.050034 0.300000 -9.949966
v -6.050034 0.300000 -5.949966
v -7.949966 0.300000 -5.949966
v -6.050034 0.300000 -2.050034
v -6.000000 0.249966 -2.000000
v -8.000000 0.249966 -2.000000
v -7.949966 0.300000 -2.050034
v -7.949966 0.300000 1.949966
v -8.000000 0.249966 2.000000
v -6.050034 0.300000 1.949966
v -7.949966 0.300000 -1.949966
v -6.050034 0.300000 -1.949966
v -6.050034 0.300000 2.050034
v -6.000000 0.249966 2.000000
v -7.949966 0.300000 2.050034
v -6.050034 0.300000 5.949966
v -6.000000 0.249966 6.000000
v -8.000000 0.249966 6.000000
v -7.949966 0.300000 5.949966
v 6.000000 -0.000000 10.000000
v 8.000000 -0.000000 10.000000
v 6.000000 -0.000000 6.000000
v 8.000000 -0.000000 -6.000000
v 6.000000 -0.000000 -10.000000
v 8.000000 -0.000000 -10.000000
v 6.000000 -0.000000 -6.000000
v 6.000000 -0.000000 -2.000000
v 8.000000 -0.000000 2.000000
v 8.000000 -0.000000 -2.000000
v 6.000000 -0.000000 2.000000
v 8.000000 -0.000000 6.000000
v 6.050034 0.300000 9.949966
v 6.000000 0.249966 10.000000
v 7.949966 0.300000 9.949966
v 8.000000 0.249966 10.000000
v 6.050034 0.300000 6.050034
v 6.050034 0.300000 -6.050034
v 7.949966 0.300000 -6.050034
v 8.000000 0.249966 -6.000000
v 7.949966 0.300000 6.050034
v 6.050034 0.300000 -9.949966
v 6.000000 0.249966 -10.000000
v 8.000000 0.249966 -10.000000
v 7.949966 0.300000 -9.949966
v 7.949966 0.300000 -5.949966
v 6.050034 0.300000 -5.949966
v 6.000000 0.249966 -6.000000
v 7.949966 0.300000 -2.050034
v 6.000000 0.249966 -2.000000
v 6.050034 0.300000 -2.050034
v 6.050034 0.300000 1.949966
v 6.000000 0.249966 2.000000
v 7.949966 0.300000 1.949966
v 8.000000 0.249966 2.000000
v 6.050034 0.300000 -1.949966
v 8.000000 0.249966 -2.000000
v 7.949966 0.300000 -1.949966
v 7.949966 0.300000 2.050034
v 6.050034 0.300000 2.050034
v 7.949966 0.300000 5.949966
v 8.000000 0.249966 6.000000
v 6.000000 0.249966 6.000000
v 6.050034 0.300000 5.949966
vn -0.0000 1.0000 -0.0000
vn 1.0000 -0.0000 -0.0000
vn -1.0000 -0.0000 -0.0000
vn -0.0000 -0.0000 1.0000
vn 0.7071 0.7071 -0.0000
vn -0.0000 0.7071 0.7071
vn -0.7071 0.7071 -0.0000
vn -0.0000 0.7071 -0.7071
vn -0.0000 -0.0000 -1.0000
vt 0.959250 0.991587
vt 0.918715 0.991587
vt 0.918715 0.911150
vt 0.959250 0.911150
vt 0.966188 0.991587
vt 0.961036 0.991587
vt 0.961036 0.911150
vt 0.966188 0.911150
vt 0.911777 0.911150
vt 0.916929 0.911150
vt 0.916929 0.991587
vt 0.911777 0.991587
vt 0.959250 0.904324
vt 0.959250 0.909393
vt 0.918715 0.909393
vt 0.918715 0.904324
vt 0.898764 0.905287
vt 0.979201 0.905287
vt 0.979201 0.997450
vt 0.898764 0.997450
vt 0.918715 0.998413
vt 0.918715 0.993344
vt 0.959250 0.993344
vt 0.959250 0.998413
s 0
f 27/1/1 28/2/1 32/3/1 29/4/1
f 22/1/1 17/2/1 13/3/1 15/4/1
f 3/5/2 42/6/2 16/7/2 2/8/2
f 9/9/3 31/10/3 19/11/3 7/12/3
f 10/13/3 34/14/3 31/15/3 9/16/3
f 37/17/1 36/18/1 33/19/1 35/20/1
f 8/21/2 30/22/2 39/23/2 11/24/2
f 11/13/2 39/14/2 42/15/2 3/16/2
f 26/4/1 23/3/1 18/2/1 20/1/1
f 5/8/2 25/7/2 21/6/2 6/5/2
f 2/13/4 16/14/4 14/15/4 1/16/4
f 38/19/1 40/20/1 44/17/1 41/18/1
f 12/21/3 43/22/3 34/23/3 10/24/3
f 6/5/2 21/6/2 30/7/2 8/8/2
f 7/12/3 19/11/3 24/10/3 4/9/3
f 22/1/5 15/4/5 16/7/5 42/6/5
f 15/4/6 13/3/6 14/15/6 16/14/6
f 13/3/7 17/2/7 43/11/7 14/10/7
f 26/4/5 20/1/5 21/6/5 25/7/5
f 20/1/6 18/2/6 19/22/6 21/23/6
f 18/2/7 23/3/7 24/10/7 19/11/7
f 23/3/8 26/4/8 25/14/8 24/15/8
f 17/2/8 22/1/8 42/23/8 43/22/8
f 28/2/8 27/1/8 21/23/8 19/22/8
f 32/3/7 28/2/7 19/11/7 31/10/7
f 29/4/6 32/3/6 31/15/6 30/14/6
f 27/1/5 29/4/5 30/7/5 21/6/5
f 37/2/5 35/1/5 39/23/5 30/22/5
f 35/1/6 33/4/6 34/7/6 39/6/6
f 33/4/7 36/3/7 31/15/7 34/14/7
f 36/3/8 37/2/8 30/11/8 31/10/8
f 25/7/9 5/8/9 4/9/9 24/10/9
f 40/1/8 38/4/8 39/7/8 34/6/8
f 44/2/7 40/1/7 34/23/7 43/22/7
f 41/3/6 44/2/6 43/11/6 42/10/6
f 38/4/5 41/3/5 42/15/5 39/14/5
f 1/9/3 14/10/3 43/11/3 12/12/3
f 70/1/1 71/2/1 75/3/1 73/4/1
f 65/1/1 61/2/1 57/3/1 59/4/1
f 56/5/2 86/6/2 60/7/2 46/8/2
f 52/9/3 74/10/3 72/11/3 51/12/3
f 55/13/3 77/14/3 74/15/3 52/16/3
f 82/17/1 80/18/1 76/19/1 78/20/1
f 54/21/2 81/22/2 79/23/2 53/24/2
f 53/13/2 79/14/2 86/15/2 56/16/2
f 69/4/1 66/3/1 62/2/1 63/1/1
f 50/8/2 68/7/2 64/6/2 48/5/2
f 46/13/4 60/14/4 58/15/4 45/16/4
f 83/19/1 84/20/1 88/17/1 85/18/1
f 47/21/3 87/22/3 77/23/3 55/24/3
f 48/5/2 64/6/2 81/7/2 54/8/2
f 51/12/3 72/11/3 67/10/3 49/9/3
f 65/1/5 59/4/5 60/7/5 86/6/5
f 59/4/6 57/3/6 58/15/6 60/14/6
f 57/3/7 61/2/7 87/11/7 58/10/7
f 69/4/5 63/1/5 64/6/5 68/7/5
f 63/1/6 62/2/6 72/22/6 64/23/6
f 62/2/7 66/3/7 67/10/7 72/11/7
f 66/3/8 69/4/8 68/14/8 67/15/8
f 61/2/8 65/1/8 86/23/8 87/22/8
f 71/2/8 70/1/8 64/23/8 72/22/8
f 75/3/7 71/2/7 72/11/7 74/10/7
f 73/4/6 75/3/6 74/15/6 81/14/6
f 70/1/5 73/4/5 81/7/5 64/6/5
f 82/2/5 78/1/5 79/23/5 81/22/5
f 78/1/6 76/4/6 77/7/6 79/6/6
f 76/4/7 80/3/7 74/15/7 77/14/7
f 80/3/8 82/2/8 81/11/8 74/10/8
f 68/7/9 50/8/9 49/9/9 67/10/9
f 84/1/8 83/4/8 79/7/8 77/6/8
f 88/2/7 84/1/7 77/23/7 87/22/7
f 85/3/6 88/2/6 87/11/6 86/10/6
f 83/4/5 85/3/5 86/15/5 79/14/5
f 45/9/3 58/10/3 87/11/3 47/12/3
