# Blender 4.4.3
# www.blender.org
o SM_Chainlink_Fence_V1.0
v 1.818000 -0.016838 -0.100320
v 1.818000 3.016839 -0.100320
v 1.909191 -0.016838 0.000000
v 1.909191 3.016839 0.000000
v 1.818000 -0.016838 0.100320
v 1.818000 3.016839 0.100320
v 1.726809 -0.016838 0.000000
v 1.726809 3.016839 0.000000
v 1.818000 2.802509 -0.100320
v 1.726809 2.904077 0.000000
v 1.818000 2.805674 0.100320
v 1.726809 2.695244 0.000000
v -1.818000 -0.016838 -0.100320
v -1.818000 3.016839 -0.100320
v -1.909191 -0.016838 0.000000
v -1.909191 3.016839 0.000000
v -1.818000 -0.016838 0.100320
v -1.818000 3.016839 0.100320
v -1.726809 -0.016838 0.000000
v -1.726809 3.016839 0.000000
v -1.818000 2.802509 -0.100320
v -1.726809 2.904077 0.000000
v -1.818000 2.805674 0.100320
v -1.726809 2.695244 0.000000
v -1.999800 0.000000 0.100000
v 1.999800 0.000000 0.100000
v -1.999800 3.000000 0.100000
v 1.999800 3.000000 0.100000
v -1.999800 0.000000 0.100000
v 1.999800 0.000000 0.100000
v -1.999800 3.000000 0.100000
v 1.999800 3.000000 0.100000
vn 0.7400 -0.0000 -0.6726
vn 0.7400 -0.0000 0.6726
vn -0.7400 -0.0000 0.6726
vn -0.7400 -0.0000 -0.6726
vn -0.0000 0.7139 0.7003
vn -0.0000 0.7027 -0.7115
vn -0.0000 -0.6831 -0.7304
vn -0.0000 -0.6724 0.7402
vn -0.0000 -0.0000 1.0000
vn -0.0000 -0.0000 -1.0000
vt 0.634937 0.320840
vt 0.634937 0.405003
vt 0.634937 0.411401
vt 0.621124 0.411401
vt 0.621124 0.320840
vt 0.634937 0.405098
vt 0.648750 0.401801
vt 0.648750 0.320840
vt 0.648750 0.408035
vt 0.648750 0.411401
vt 0.658616 0.412274
vt 0.660188 0.400983
vt 0.597495 0.400983
vt 0.599068 0.412274
vt 0.660188 0.400620
vt 0.597495 0.400620
vt 0.658616 0.388313
vt 0.599068 0.388313
vt 0.587110 0.626456
vt 0.691168 0.522398
vt 0.762118 0.593347
vt 0.658059 0.697405
s 0
f 1/1/1 9/2/1 2/3/1 4/4/1 3/5/1
f 3/5/2 4/4/2 6/3/2 11/6/2 5/1/2
f 5/1/3 11/6/3 12/7/3 7/8/3
f 7/8/4 12/7/4 9/2/4 1/1/4
f 10/9/3 11/6/3 6/3/3 8/10/3
f 9/2/4 10/9/4 8/10/4 2/3/4
f 22/11/5 23/12/5 11/13/5 10/14/5
f 21/15/6 22/11/6 10/14/6 9/16/6
f 24/17/7 21/15/7 9/16/7 12/18/7
f 13/1/4 15/5/4 16/4/4 14/3/4 21/2/4
f 15/5/3 17/1/3 23/6/3 18/3/3 16/4/3
f 17/1/2 19/8/2 24/7/2 23/6/2
f 19/8/1 13/1/1 21/2/1 24/7/1
f 22/9/2 20/10/2 18/3/2 23/6/2
f 21/2/1 14/3/1 20/10/1 22/9/1
f 23/12/8 24/17/8 12/18/8 11/13/8
f 25/19/9 26/20/9 28/21/9 27/22/9
f 29/19/10 31/22/10 32/21/10 30/20/10
