# Blender 4.4.3
# www.blender.org
o SM_ConcreteWall_Fence_V1.0
v 1.995093 0.000000 0.100000
v 1.995093 3.000000 0.100000
v 1.995093 0.000000 -0.100000
v 1.995093 3.000000 -0.100000
v -1.454400 0.000000 0.100000
v -1.454400 3.000000 0.100000
v -1.454400 0.000000 -0.100000
v -1.454400 3.000000 -0.100000
v -1.454400 0.000000 0.300000
v -1.454400 3.000000 0.300000
v -1.454400 0.000000 -0.300000
v -1.454400 3.000000 -0.300000
v -1.999800 0.000000 0.300000
v -1.999800 3.000000 0.300000
v -1.999800 0.000000 -0.300000
v -1.999800 3.000000 -0.300000
v -1.290780 3.200000 0.480000
v -1.290780 3.200000 -0.480000
v -2.163420 3.200000 -0.480000
v -2.163420 3.200000 0.480000
vn -0.0000 1.0000 -0.0000
vn -0.0000 -0.0000 -1.0000
vn 1.0000 -0.0000 -0.0000
vn -1.0000 -0.0000 -0.0000
vn -0.0000 -0.0000 1.0000
vn -0.0000 -0.6690 -0.7433
vn -0.7740 -0.6332 -0.0000
vn 0.7740 -0.6332 -0.0000
vn -0.0000 -0.6690 0.7433
vt 0.970300 0.972695
vt 0.970300 0.903640
vt 0.984111 0.903640
vt 0.984111 0.972695
vt 0.988254 0.977298
vt 0.966156 0.977298
s 0
f 8/1/1 6/1/1 2/1/1 4/1/1
f 3/2/2 7/2/2 8/1/2 4/1/2
f 9/2/3 11/2/3 12/1/3 10/1/3
f 11/2/2 15/3/2 16/4/2 12/1/2
f 15/3/4 13/3/4 14/4/4 16/4/4
f 13/3/5 9/2/5 10/1/5 14/4/5
f 16/4/6 19/5/6 18/6/6 12/1/6
f 19/5/1 20/5/1 17/6/1 18/6/1
f 14/4/7 20/5/7 19/5/7 16/4/7
f 12/1/8 18/6/8 17/6/8 10/1/8
f 10/1/9 17/6/9 20/5/9 14/4/9
f 5/2/5 1/2/5 2/1/5 6/1/5
