# Blender 4.4.3
# www.blender.org
o SM_SteelPost_Fence_V1.0
v 0.087500 0.000000 0.100000
v 0.087500 3.000000 0.100000
v 0.087500 0.000000 -0.100000
v 0.087500 3.000000 -0.100000
v 0.262500 0.000000 0.100000
v 0.262500 3.000000 0.100000
v 0.262500 0.000000 -0.100000
v 0.262500 3.000000 -0.100000
v 0.437500 0.000000 0.100000
v 0.437500 3.000000 0.100000
v 0.437500 0.000000 -0.100000
v 0.437500 3.000000 -0.100000
v 0.612500 0.000000 0.100000
v 0.612500 3.000000 0.100000
v 0.612500 0.000000 -0.100000
v 0.612500 3.000000 -0.100000
v 0.787500 0.000000 0.100000
v 0.787500 3.000000 0.100000
v 0.787500 0.000000 -0.100000
v 0.787500 3.000000 -0.100000
v 0.962500 0.000000 0.100000
v 0.962500 3.000000 0.100000
v 0.962500 0.000000 -0.100000
v 0.962500 3.000000 -0.100000
v 1.137500 0.000000 0.100000
v 1.137500 3.000000 0.100000
v 1.137500 0.000000 -0.100000
v 1.137500 3.000000 -0.100000
v 1.312500 0.000000 0.100000
v 1.312500 3.000000 0.100000
v 1.312500 0.000000 -0.100000
v 1.312500 3.000000 -0.100000
v 1.487500 0.000000 0.100000
v 1.487500 3.000000 0.100000
v 1.487500 0.000000 -0.100000
v 1.487500 3.000000 -0.100000
v 1.662500 0.000000 0.100000
v 1.662500 3.000000 0.100000
v 1.662500 0.000000 -0.100000
v 1.662500 3.000000 -0.100000
v 1.837500 0.000000 0.100000
v 1.837500 3.000000 0.100000
v 1.837500 0.000000 -0.100000
v 1.837500 3.000000 -0.100000
v 2.012500 0.000000 0.100000
v 2.012500 3.000000 0.100000
v 2.012500 0.000000 -0.100000
v 2.012500 3.000000 -0.100000
v -0.087500 0.000000 0.100000
v -0.087500 3.000000 0.100000
v -0.087500 0.000000 -0.100000
v -0.087500 3.000000 -0.100000
v -0.262500 0.000000 0.100000
v -0.262500 3.000000 0.100000
v -0.262500 0.000000 -0.100000
v -0.262500 3.000000 -0.100000
v -0.437500 0.000000 0.100000
v -0.437500 3.000000 0.100000
v -0.437500 0.000000 -0.100000
v -0.437500 3.000000 -0.100000
v -0.612500 0.000000 0.100000
v -0.612500 3.000000 0.100000
v -0.612500 0.000000 -0.100000
v -0.612500 3.000000 -0.100000
v -0.787500 0.000000 0.100000
v -0.787500 3.000000 0.100000
v -0.787500 0.000000 -0.100000
v -0.787500 3.000000 -0.100000
v -0.962500 0.000000 0.100000
v -0.962500 3.000000 0.100000
v -0.962500 0.000000 -0.100000
v -0.962500 3.000000 -0.100000
v -1.137500 0.000000 0.100000
v -1.137500 3.000000 0.100000
v -1.137500 0.000000 -0.100000
v -1.137500 3.000000 -0.100000
v -1.312500 0.000000 0.100000
v -1.312500 3.000000 0.100000
v -1.312500 0.000000 -0.100000
v -1.312500 3.000000 -0.100000
v -1.487500 0.000000 0.100000
v -1.487500 3.000000 0.100000
v -1.487500 0.000000 -0.100000
v -1.487500 3.000000 -0.100000
v -1.662500 0.000000 0.100000
v -1.662500 3.000000 0.100000
v -1.662500 0.000000 -0.100000
v -1.662500 3.000000 -0.100000
v -1.837500 0.000000 0.100000
v -1.837500 3.000000 0.100000
v -1.837500 0.000000 -0.100000
v -1.837500 3.000000 -0.100000
v -2.012500 0.000000 0.100000
v -2.012500 3.000000 0.100000
v -2.012500 0.000000 -0.100000
v -2.012500 3.000000 -0.100000
v -2.007455 0.412500 0.161144
v 2.057455 0.412500 0.161144
v -2.007455 0.412500 0.101144
v 2.057455 0.412500 0.101144
v -2.007455 0.587500 0.161144
v 2.057455 0.587500 0.161144
v -2.007455 0.587500 0.101144
v 2.057455 0.587500 0.101144
v -2.007455 2.412500 0.161144
v 2.057455 2.412500 0.161144
v -2.007455 2.412500 0.101144
v 2.057455 2.412500 0.101144
v -2.007455 2.587500 0.161144
v 2.057455 2.587500 0.161144
v -2.007455 2.587500 0.101144
v 2.057455 2.587500 0.101144
vn -1.0000 -0.0000 -0.0000
vn -0.0000 -0.0000 -1.0000
vn 1.0000 -0.0000 -0.0000
vn -0.0000 -0.0000 1.0000
vn -0.0000 1.0000 -0.0000
vn -0.0000 -1.0000 -0.0000
vt 0.342080 0.077623
vt 0.342080 0.166854
vt 0.345995 0.166854
vt 0.345995 0.077623
vt 0.349910 0.077623
vt 0.349910 0.166854
vt 0.353824 0.166854
vt 0.353824 0.077623
vt 0.357739 0.077623
vt 0.357739 0.166854
vt 0.361654 0.166854
vt 0.361654 0.077623
vt 0.365568 0.077623
vt 0.365568 0.166854
vt 0.369483 0.166854
vt 0.369483 0.077623
vt 0.373397 0.077623
vt 0.373397 0.166854
vt 0.377312 0.166854
vt 0.377312 0.077623
vt 0.381227 0.077623
vt 0.381227 0.166854
vt 0.385141 0.166854
vt 0.385141 0.077623
vt 0.338166 0.077623
vt 0.338166 0.166854
vt 0.334251 0.077623
vt 0.334251 0.166854
vt 0.330337 0.077623
vt 0.330337 0.166854
vt 0.326422 0.077623
vt 0.326422 0.166854
vt 0.322507 0.077623
vt 0.322507 0.166854
vt 0.318593 0.077623
vt 0.318593 0.166854
vt 0.314678 0.077623
vt 0.314678 0.166854
vt 0.310764 0.077623
vt 0.310764 0.166854
vt 0.306849 0.077623
vt 0.306849 0.166854
vt 0.302934 0.077623
vt 0.302934 0.166854
vt 0.299020 0.077623
vt 0.299020 0.166854
vt 0.295105 0.077623
vt 0.295105 0.166854
vt 0.295218 0.089892
vt 0.386147 0.089892
vt 0.295218 0.095097
vt 0.386147 0.095097
vt 0.295218 0.149379
vt 0.386147 0.149379
vt 0.295218 0.154584
vt 0.386147 0.154584
s 0
f 1/1/1 2/2/1 4/2/1 3/1/1
f 3/1/2 4/2/2 8/3/2 7/4/2
f 7/4/3 8/3/3 6/3/3 5/4/3
f 5/4/4 6/3/4 2/2/4 1/1/4
f 8/3/5 4/2/5 2/2/5 6/3/5
f 9/5/1 10/6/1 12/6/1 11/5/1
f 11/5/2 12/6/2 16/7/2 15/8/2
f 15/8/3 16/7/3 14/7/3 13/8/3
f 13/8/4 14/7/4 10/6/4 9/5/4
f 16/7/5 12/6/5 10/6/5 14/7/5
f 17/9/1 18/10/1 20/10/1 19/9/1
f 19/9/2 20/10/2 24/11/2 23/12/2
f 23/12/3 24/11/3 22/11/3 21/12/3
f 21/12/4 22/11/4 18/10/4 17/9/4
f 24/11/5 20/10/5 18/10/5 22/11/5
f 25/13/1 26/14/1 28/14/1 27/13/1
f 27/13/2 28/14/2 32/15/2 31/16/2
f 31/16/3 32/15/3 30/15/3 29/16/3
f 29/16/4 30/15/4 26/14/4 25/13/4
f 32/15/5 28/14/5 26/14/5 30/15/5
f 33/17/1 34/18/1 36/18/1 35/17/1
f 35/17/2 36/18/2 40/19/2 39/20/2
f 39/20/3 40/19/3 38/19/3 37/20/3
f 37/20/4 38/19/4 34/18/4 33/17/4
f 40/19/5 36/18/5 34/18/5 38/19/5
f 41/21/1 42/22/1 44/22/1 43/21/1
f 43/21/2 44/22/2 48/23/2 47/24/2
f 47/24/3 48/23/3 46/23/3 45/24/3
f 45/24/4 46/23/4 42/22/4 41/21/4
f 48/23/5 44/22/5 42/22/5 46/23/5
f 49/25/3 51/25/3 52/26/3 50/26/3
f 51/25/2 55/27/2 56/28/2 52/26/2
f 55/27/1 53/27/1 54/28/1 56/28/1
f 53/27/4 49/25/4 50/26/4 54/28/4
f 56/28/5 54/28/5 50/26/5 52/26/5
f 57/29/3 59/29/3 60/30/3 58/30/3
f 59/29/2 63/31/2 64/32/2 60/30/2
f 63/31/1 61/31/1 62/32/1 64/32/1
f 61/31/4 57/29/4 58/30/4 62/32/4
f 64/32/5 62/32/5 58/30/5 60/30/5
f 65/33/3 67/33/3 68/34/3 66/34/3
f 67/33/2 71/35/2 72/36/2 68/34/2
f 71/35/1 69/35/1 70/36/1 72/36/1
f 69/35/4 65/33/4 66/34/4 70/36/4
f 72/36/5 70/36/5 66/34/5 68/34/5
f 73/37/3 75/37/3 76/38/3 74/38/3
f 75/37/2 79/39/2 80/40/2 76/38/2
f 79/39/1 77/39/1 78/40/1 80/40/1
f 77/39/4 73/37/4 74/38/4 78/40/4
f 80/40/5 78/40/5 74/38/5 76/38/5
f 81/41/3 83/41/3 84/42/3 82/42/3
f 83/41/2 87/43/2 88/44/2 84/42/2
f 87/43/1 85/43/1 86/44/1 88/44/1
f 85/43/4 81/41/4 82/42/4 86/44/4
f 88/44/5 86/44/5 82/42/5 84/42/5
f 89/45/3 91/45/3 92/46/3 90/46/3
f 91/45/2 95/47/2 96/48/2 92/46/2
f 95/47/1 93/47/1 94/48/1 96/48/1
f 93/47/4 89/45/4 90/46/4 94/48/4
f 96/48/5 94/48/5 90/46/5 92/46/5
f 97/49/6 99/49/6 100/50/6 98/50/6
f 99/49/2 103/51/2 104/52/2 100/50/2
f 103/51/5 101/51/5 102/52/5 104/52/5
f 101/51/4 97/49/4 98/50/4 102/52/4
f 104/52/3 102/52/3 98/50/3 100/50/3
f 99/49/1 97/49/1 101/51/1 103/51/1
f 105/53/6 107/53/6 108/54/6 106/54/6
f 107/53/2 111/55/2 112/56/2 108/54/2
f 111/55/5 109/55/5 110/56/5 112/56/5
f 109/55/4 105/53/4 106/54/4 110/56/4
f 112/56/3 110/56/3 106/54/3 108/54/3
f 107/53/1 105/53/1 109/55/1 111/55/1
