# Blender 4.4.3
# www.blender.org
o SM_Purple_Mailbox_V1.0
v -0.099071 -0.000000 0.000000
v -0.099071 1.167563 0.000000
v 0.000000 -0.000000 -0.099071
v 0.000000 1.167563 -0.099071
v 0.000000 -0.000000 0.099071
v 0.000000 1.167563 0.099071
v 0.099071 -0.000000 -0.000000
v 0.099071 1.167563 -0.000000
v -0.218571 1.151348 0.506675
v -0.218571 1.151348 -0.506675
v 0.218571 1.151348 0.506675
v 0.218571 1.151348 -0.506675
v -0.084884 1.658023 0.506675
v -0.218571 1.503071 0.506675
v -0.218571 1.503071 -0.506675
v -0.084884 1.658023 -0.506675
v 0.218571 1.503071 0.506675
v 0.084884 1.658023 0.506675
v 0.084884 1.658023 -0.506675
v 0.218571 1.503071 -0.506675
v 0.225254 1.360079 0.387779
v 0.225254 1.739850 0.413415
v 0.225254 1.360079 0.314366
v 0.225254 1.739850 0.288729
v 0.241771 1.360079 0.387779
v 0.241771 1.739850 0.413415
v 0.241771 1.360079 0.314366
v 0.241771 1.739850 0.288729
vn -0.7071 -0.0000 -0.7071
vn 0.7071 -0.0000 -0.7071
vn 0.7071 -0.0000 0.7071
vn -0.7071 -0.0000 0.7071
vn -0.0000 1.0000 -0.0000
vn 1.0000 -0.0000 -0.0000
vn -1.0000 -0.0000 -0.0000
vn -0.0000 -1.0000 -0.0000
vn -0.0000 -0.0000 -1.0000
vn -0.7571 0.6532 -0.0000
vn 0.7571 0.6532 -0.0000
vn -0.0000 -0.0000 1.0000
vn -0.0000 -0.0674 -0.9977
vn -0.0000 -0.0674 0.9977
vt 0.017372 0.808109
vt 0.017372 0.899925
vt 0.045038 0.899925
vt 0.045038 0.808109
vt 0.072704 0.899925
vt 0.072704 0.808109
vt 0.200142 0.986582
vt 0.287680 0.986582
vt 0.200142 0.904044
vt 0.200142 0.961340
vt 0.287680 0.961340
vt 0.287680 0.904044
vt 0.331613 0.905798
vt 0.324100 0.991068
vt 0.360640 0.991068
vt 0.353127 0.905798
s 0
f 1/1/1 2/2/1 4/3/1 3/4/1
f 3/4/2 4/3/2 8/5/2 7/6/2
f 7/6/3 8/5/3 6/3/3 5/4/3
f 5/4/4 6/3/4 2/2/4 1/1/4
f 19/7/5 16/7/5 13/8/5 18/8/5
f 12/9/6 20/10/6 17/11/6 11/12/6
f 9/12/7 14/11/7 15/10/7 10/9/7
f 10/9/8 12/9/8 11/12/8 9/12/8
f 10/9/9 15/10/9 16/7/9
f 13/8/10 16/7/10 15/10/10 14/11/10
f 19/7/11 18/8/11 17/11/11 20/10/11
f 11/12/12 17/11/12 18/8/12
f 18/8/12 13/8/12 9/12/12 11/12/12
f 9/12/12 13/8/12 14/11/12
f 16/7/9 19/7/9 12/9/9 10/9/9
f 12/9/9 19/7/9 20/10/9
f 21/13/7 22/14/7 24/15/7 23/16/7
f 23/16/13 24/15/13 28/15/13 27/16/13
f 27/16/6 28/15/6 26/14/6 25/13/6
f 25/13/14 26/14/14 22/14/14 21/13/14
f 23/16/8 27/16/8 25/13/8 21/13/8
f 28/15/5 24/15/5 22/14/5 26/14/5
