# Blender 4.4.3
# www.blender.org
o SM_Curve_HalfWall_V1.0
v -0.200000 0.000000 5.000000
v -0.100000 2.000000 5.000000
v 5.000000 0.000000 -0.200000
v 5.000000 2.000000 -0.100000
v 0.200000 0.000000 5.000000
v 0.100000 2.000000 5.000000
v 5.000000 0.000000 0.200000
v 5.000000 2.000000 0.100000
v 2.700000 0.000000 0.135000
v 1.000000 0.000000 1.000000
v 0.100000 0.000000 2.665000
v 0.175000 2.000000 2.690000
v 1.050000 2.000000 1.050000
v 2.725000 2.000000 0.210000
v 0.400000 0.000000 2.765000
v 1.200000 0.000000 1.200000
v 2.800000 0.000000 0.435000
v 2.775000 2.000000 0.360000
v 1.150000 2.000000 1.150000
v 0.325000 2.000000 2.740000
vn -0.1395 0.0442 -0.9892
vn 1.0000 -0.0000 -0.0000
vn 0.9946 0.0441 0.0940
vn -0.0000 -0.0000 1.0000
vn -0.0000 1.0000 -0.0000
vn 0.1111 0.0441 0.9928
vn 0.4340 0.0363 0.9002
vn 0.8884 0.0363 0.4576
vn -0.9915 0.0441 -0.1227
vn -0.8804 0.0364 -0.4728
vn -0.4506 0.0363 -0.8920
vt 0.975512 0.708199
vt 0.974746 0.742297
vt 0.977911 0.742297
vt 0.978931 0.708199
vt 0.955782 0.742297
vt 0.954761 0.708199
vt 0.913788 0.708199
vt 0.914043 0.742297
vt 0.890975 0.742297
vt 0.890975 0.708199
vt 0.914553 0.742297
vt 0.953128 0.742297
vt 0.931293 0.742297
vt 0.930272 0.742297
vt 0.952362 0.708199
vt 0.929762 0.708199
vt 0.914809 0.708199
vt 0.931803 0.708199
s 0
f 9/1/1 14/2/1 4/3/1 3/4/1
f 3/4/2 4/3/2 8/5/2 7/6/2
f 15/7/3 20/8/3 6/9/3 5/10/3
f 5/10/4 6/9/4 2/9/4 1/10/4
f 20/8/5 12/11/5 2/9/5 6/9/5
f 8/5/5 4/3/5 14/2/5 18/12/5
f 18/12/5 14/2/5 13/13/5 19/14/5
f 19/14/5 13/13/5 12/11/5 20/8/5
f 7/6/6 8/5/6 18/12/6 17/15/6
f 17/15/7 18/12/7 19/14/7 16/16/7
f 16/16/8 19/14/8 20/8/8 15/7/8
f 1/10/9 2/9/9 12/11/9 11/17/9
f 11/17/10 12/11/10 13/13/10 10/18/10
f 10/18/11 13/13/11 14/2/11 9/1/11
