# Blender 4.4.3
# www.blender.org
o SM_Drop_HalfWall_V1.0
v -0.200000 0.000000 5.000000
v -0.100000 2.000000 5.000000
v -0.200000 0.000000 -5.000000
v -0.100000 4.000000 -5.000000
v 0.200000 0.000000 5.000000
v 0.100000 2.000000 5.000000
v 0.200000 0.000000 -5.000000
v 0.100000 4.000000 -5.000000
v -0.200000 0.000000 -1.643333
v -0.200000 0.000000 1.643333
v -0.100000 2.000000 1.643333
v -0.100000 4.000000 -1.643333
v 0.200000 0.000000 1.643333
v 0.200000 0.000000 -1.643333
v 0.100000 4.000000 -1.643333
v 0.100000 2.000000 1.643333
vn -0.9997 0.0250 -0.0000
vn -0.0000 -0.0000 -1.0000
vn 0.9988 0.0499 -0.0000
vn -0.0000 -0.0000 1.0000
vn -0.0000 1.0000 -0.0000
vn -0.0000 0.8543 0.5198
vn 0.9997 0.0250 -0.0000
vn 0.9994 0.0333 0.0101
vn -0.9988 0.0499 -0.0000
vn -0.9994 0.0333 0.0101
vt 0.958784 0.708199
vt 0.958784 0.776395
vt 0.993046 0.776395
vt 0.993046 0.708199
vt 0.925237 0.708199
vt 0.925237 0.742297
vt 0.890975 0.742297
vt 0.890975 0.708199
s 0
f 9/1/1 12/2/1 4/3/1 3/4/1
f 3/4/2 4/3/2 8/3/2 7/4/2
f 13/5/3 16/6/3 6/7/3 5/8/3
f 5/8/4 6/7/4 2/7/4 1/8/4
f 16/6/5 11/6/5 2/7/5 6/7/5
f 8/3/5 4/3/5 12/2/5 15/2/5
f 15/2/6 12/2/6 11/6/6 16/6/6
f 7/4/7 8/3/7 15/2/7 14/1/7
f 14/1/8 15/2/8 16/6/8 13/5/8
f 1/8/9 2/7/9 11/6/9 10/5/9
f 10/5/10 11/6/10 12/2/10 9/1/10
