# Blender 4.4.3
# www.blender.org
o SM_Normal_HalfWall_V1.0
v -0.200000 0.000000 5.000000
v -0.100000 2.000000 5.000000
v -0.200000 0.000000 -5.000000
v -0.100000 2.000000 -5.000000
v 0.200000 0.000000 5.000000
v 0.100000 2.000000 5.000000
v 0.200000 0.000000 -5.000000
v 0.100000 2.000000 -5.000000
vn -0.9988 0.0499 -0.0000
vn -0.0000 -0.0000 -1.0000
vn 0.9988 0.0499 -0.0000
vn -0.0000 -0.0000 1.0000
vn -0.0000 1.0000 -0.0000
vt 0.890975 0.708199
vt 0.890975 0.742297
vt 0.993046 0.742297
vt 0.993046 0.708199
s 0
f 1/1/1 2/2/1 4/3/1 3/4/1
f 3/4/2 4/3/2 8/3/2 7/4/2
f 7/4/3 8/3/3 6/2/3 5/1/3
f 5/1/4 6/2/4 2/2/4 1/1/4
f 8/3/5 4/3/5 2/2/5 6/2/5
