# Blender 4.4.3
# www.blender.org
o SM_ReverseBump_HalfWall_V1.0
v -0.200000 0.000000 5.000000
v -0.100000 2.000000 5.000000
v -0.200000 0.000000 -5.000000
v -0.100000 2.000000 -5.000000
v 0.200000 0.000000 5.000000
v 0.100000 2.000000 5.000000
v 0.200000 0.000000 -5.000000
v 0.100000 2.000000 -5.000000
v -0.200000 0.000000 -2.958000
v -0.200000 0.000000 -1.656480
v -0.200000 0.000000 1.656480
v -0.200000 0.000000 2.958000
v -0.100000 2.000000 2.958000
v -0.100000 1.000000 1.656480
v -0.100000 1.000000 -1.656480
v -0.100000 2.000000 -2.958000
v 0.200000 0.000000 2.958000
v 0.200000 0.000000 1.656480
v 0.200000 0.000000 -1.656480
v 0.200000 0.000000 -2.958000
v 0.100000 2.000000 -2.958000
v 0.100000 1.000000 -1.656480
v 0.100000 1.000000 1.656480
v 0.100000 2.000000 2.958000
vn -0.9988 0.0499 -0.0000
vn -0.0000 -0.0000 -1.0000
vn 0.9988 0.0499 -0.0000
vn -0.0000 -0.0000 1.0000
vn -0.0000 1.0000 -0.0000
vn -0.0000 0.7930 0.6093
vn -0.0000 0.7930 -0.6093
vn 0.9975 0.0665 0.0255
vn 0.9950 0.0995 -0.0000
vn 0.9975 0.0665 -0.0255
vn -0.9975 0.0665 -0.0255
vn -0.9950 0.0995 -0.0000
vn -0.9975 0.0665 0.0255
vt 0.972203 0.708199
vt 0.972203 0.742297
vt 0.993046 0.742297
vt 0.993046 0.708199
vt 0.911818 0.708199
vt 0.911818 0.742297
vt 0.890975 0.742297
vt 0.890975 0.708199
vt 0.958918 0.725248
vt 0.925103 0.725248
vt 0.958918 0.708199
vt 0.925103 0.708199
s 0
f 9/1/1 16/2/1 4/3/1 3/4/1
f 3/4/2 4/3/2 8/3/2 7/4/2
f 17/5/3 24/6/3 6/7/3 5/8/3
f 5/8/4 6/7/4 2/7/4 1/8/4
f 24/6/5 13/6/5 2/7/5 6/7/5
f 8/3/5 4/3/5 16/2/5 21/2/5
f 21/2/6 16/2/6 15/9/6 22/9/6
f 22/9/5 15/9/5 14/10/5 23/10/5
f 23/10/7 14/10/7 13/6/7 24/6/7
f 7/4/3 8/3/3 21/2/3 20/1/3
f 20/1/8 21/2/8 22/9/8 19/11/8
f 19/11/9 22/9/9 23/10/9 18/12/9
f 18/12/10 23/10/10 24/6/10 17/5/10
f 1/8/1 2/7/1 13/6/1 12/5/1
f 12/5/11 13/6/11 14/10/11 11/12/11
f 11/12/12 14/10/12 15/9/12 10/11/12
f 10/11/13 15/9/13 16/2/13 9/1/13
