# Blender 4.4.3
# www.blender.org
o SM_Tall_HalfWall_V1.0
v -0.200000 0.000000 5.000000
v -0.100000 4.000000 5.000000
v -0.200000 0.000000 -5.000000
v -0.100000 4.000000 -5.000000
v 0.200000 0.000000 5.000000
v 0.100000 4.000000 5.000000
v 0.200000 0.000000 -5.000000
v 0.100000 4.000000 -5.000000
v -0.200000 0.000000 -1.643333
v -0.200000 0.000000 1.643333
v -0.100000 4.000000 1.643333
v -0.100000 4.000000 -1.643333
v 0.200000 0.000000 1.643333
v 0.200000 0.000000 -1.643333
v 0.100000 4.000000 -1.643333
v 0.100000 4.000000 1.643333
vn -0.9997 0.0250 -0.0000
vn -0.0000 -0.0000 -1.0000
vn 0.9997 0.0250 -0.0000
vn -0.0000 -0.0000 1.0000
vn -0.0000 1.0000 -0.0000
vt 0.958784 0.708199
vt 0.958784 0.776395
vt 0.993046 0.776395
vt 0.993046 0.708199
vt 0.925237 0.708199
vt 0.925237 0.776395
vt 0.890975 0.776395
vt 0.890975 0.708199
s 0
f 9/1/1 12/2/1 4/3/1 3/4/1
f 3/4/2 4/3/2 8/3/2 7/4/2
f 13/5/3 16/6/3 6/7/3 5/8/3
f 5/8/4 6/7/4 2/7/4 1/8/4
f 16/6/5 11/6/5 2/7/5 6/7/5
f 8/3/5 4/3/5 12/2/5 15/2/5
f 15/2/5 12/2/5 11/6/5 16/6/5
f 7/4/3 8/3/3 15/2/3 14/1/3
f 14/1/3 15/2/3 16/6/3 13/5/3
f 1/8/1 2/7/1 11/6/1 10/5/1
f 10/5/1 11/6/1 12/2/1 9/1/1
