# Blender 4.4.3
# www.blender.org
o SM_CrazyMismatch_Buildings_V1.0
v -0.968716 3.000000 0.798125
v -0.968716 4.000000 0.798125
v -0.628424 3.000000 -1.172713
v -0.628424 4.000000 -1.172713
v 1.002122 3.000000 1.138416
v 1.002122 4.000000 1.138416
v 1.342414 3.000000 -0.832422
v 1.342414 4.000000 -0.832422
v 1.305882 3.000000 0.847585
v 1.305882 2.000000 0.847585
v -0.677885 3.000000 1.101885
v -0.677885 2.000000 1.101885
v 1.051582 3.000000 -1.136182
v 1.051582 2.000000 -1.136182
v -0.932185 3.000000 -0.881882
v -0.932185 2.000000 -0.881882
v -0.458214 1.000000 -1.275677
v -0.458214 2.000000 -1.275677
v 1.445377 1.000000 -0.662212
v 1.445377 2.000000 -0.662212
v -1.071679 1.000000 0.627915
v -1.071679 2.000000 0.627915
v 0.831912 1.000000 1.241380
v 0.831912 2.000000 1.241380
v 1.186849 1.000000 0.982852
v 1.186849 0.000000 0.982852
v -0.813151 1.000000 0.982852
v -0.813151 0.000000 0.982852
v 1.186849 1.000000 -1.017149
v 1.186849 0.000000 -1.017149
v -0.813151 1.000000 -1.017148
v -0.813151 0.000000 -1.017148
v -0.540426 0.886948 0.903281
v -0.540426 2.135085 0.903281
v -0.556086 0.886948 0.941087
v -0.556086 2.135085 0.941087
v -0.593891 0.886948 0.956747
v -0.593891 2.135085 0.956747
v -0.631697 0.886948 0.941087
v -0.631697 2.135085 0.941087
v -0.647357 0.886948 0.903281
v -0.647357 2.135085 0.903281
v -0.631697 0.886948 0.865475
v -0.631697 2.135085 0.865475
v -0.593891 0.886948 0.849815
v -0.593891 2.135085 0.849815
v -0.556085 0.886948 0.865475
v -0.556085 2.135085 0.865475
v 0.847723 1.979660 0.979420
v 0.847723 3.227797 0.979420
v 0.832063 1.979660 1.017226
v 0.832063 3.227797 1.017226
v 0.794257 1.979660 1.032885
v 0.794257 3.227797 1.032885
v 0.756451 1.979660 1.017225
v 0.756451 3.227797 1.017225
v 0.740792 1.979660 0.979420
v 0.740792 3.227797 0.979420
v 0.756451 1.979660 0.941614
v 0.756451 3.227797 0.941614
v 0.794257 1.979660 0.925954
v 0.794257 3.227797 0.925954
v 0.832063 1.979660 0.941614
v 0.832063 3.227797 0.941614
v -0.673651 0.886948 -0.769099
v -0.673651 2.135085 -0.769099
v -0.689311 0.886948 -0.731293
v -0.689311 2.135085 -0.731293
v -0.727117 0.886948 -0.715633
v -0.727117 2.135085 -0.715633
v -0.764923 0.886948 -0.731293
v -0.764923 2.135085 -0.731293
v -0.780582 0.886948 -0.769099
v -0.780582 2.135085 -0.769099
v -0.764923 0.886948 -0.806905
v -0.764923 2.135085 -0.806905
v -0.727117 0.886948 -0.822565
v -0.727117 2.135085 -0.822565
v -0.689311 0.886948 -0.806905
v -0.689311 2.135085 -0.806905
v -0.348977 1.882256 -1.055666
v -0.348977 3.130392 -1.055666
v -0.364637 1.882256 -1.017861
v -0.364637 3.130392 -1.017861
v -0.402443 1.882256 -1.002201
v -0.402443 3.130392 -1.002201
v -0.440249 1.882256 -1.017860
v -0.440249 3.130392 -1.017860
v -0.455909 1.882256 -1.055666
v -0.455909 3.130392 -1.055666
v -0.440249 1.882256 -1.093472
v -0.440249 3.130392 -1.093472
v -0.402443 1.882256 -1.109132
v -0.402443 3.130392 -1.109132
v -0.364637 1.882256 -1.093472
v -0.364637 3.130392 -1.093472
v -0.782080 1.882256 0.568115
v -0.782080 3.130392 0.568115
v -0.797739 1.882256 0.605920
v -0.797739 3.130392 0.605920
v -0.835545 1.882256 0.621580
v -0.835545 3.130392 0.621580
v -0.873351 1.882256 0.605920
v -0.873351 3.130392 0.605920
v -0.889011 1.882256 0.568115
v -0.889011 3.130392 0.568115
v -0.873351 1.882256 0.530308
v -0.873351 3.130392 0.530308
v -0.835545 1.882256 0.514649
v -0.835545 3.130392 0.514649
v -0.797739 1.882256 0.530308
v -0.797739 3.130392 0.530308
v 1.152167 0.886948 0.735061
v 1.152167 2.135085 0.735061
v 1.136507 0.886948 0.772867
v 1.136507 2.135085 0.772867
v 1.098701 0.886948 0.788527
v 1.098701 2.135085 0.788527
v 1.060896 0.886948 0.772867
v 1.060896 2.135085 0.772867
v 1.045236 0.886948 0.735061
v 1.045236 2.135085 0.735061
v 1.060896 0.886948 0.697255
v 1.060896 2.135085 0.697255
v 1.098701 0.886948 0.681595
v 1.098701 2.135085 0.681595
v 1.136507 0.886948 0.697255
v 1.136507 2.135085 0.697255
v 1.263793 1.979660 -0.592389
v 1.263793 3.227797 -0.592389
v 1.248134 1.979660 -0.554583
v 1.248134 3.227797 -0.554583
v 1.210328 1.979660 -0.538924
v 1.210328 3.227797 -0.538924
v 1.172522 1.979660 -0.554583
v 1.172522 3.227797 -0.554583
v 1.156862 1.979660 -0.592389
v 1.156862 3.227797 -0.592389
v 1.172522 1.979660 -0.630195
v 1.172522 3.227797 -0.630195
v 1.210328 1.979660 -0.645855
v 1.210328 3.227797 -0.645855
v 1.248134 1.979660 -0.630195
v 1.248134 3.227797 -0.630195
vn -0.9854 -0.0000 -0.1701
vn 0.1701 -0.0000 -0.9854
vn 0.9854 -0.0000 0.1701
vn -0.1701 -0.0000 0.9854
vn -0.0000 -1.0000 -0.0000
vn -0.0000 1.0000 -0.0000
vn -0.9919 -0.0000 0.1271
vn 0.1271 -0.0000 0.9919
vn 0.9919 -0.0000 -0.1271
vn -0.1272 -0.0000 -0.9919
vn 0.3067 -0.0000 -0.9518
vn 0.9518 -0.0000 0.3067
vn -0.3067 -0.0000 0.9518
vn -0.9518 -0.0000 -0.3067
vn -1.0000 -0.0000 -0.0000
vn -0.0000 -0.0000 1.0000
vn 1.0000 -0.0000 -0.0000
vn -0.0000 -0.0000 -1.0000
vn 0.9239 -0.0000 0.3827
vn 0.3827 -0.0000 0.9239
vn -0.3827 -0.0000 0.9239
vn -0.9239 -0.0000 0.3827
vn -0.9239 -0.0000 -0.3827
vn -0.3827 -0.0000 -0.9239
vn 0.3827 -0.0000 -0.9239
vn 0.9239 -0.0000 -0.3827
vt 0.508196 0.500000
vt 0.758196 0.500000
vt 0.758196 0.750000
vt 0.508196 0.750000
vt 0.008195 0.500000
vt 0.258195 0.500000
vt 0.258195 0.750000
vt 0.008195 0.750000
vt 0.508196 1.000000
vt 0.258195 1.000000
vt 0.258195 0.250000
vt 0.508196 0.250000
vt 0.258195 0.000000
vt 0.508196 0.000000
vt 0.601173 0.024717
vt 0.927320 0.024717
vt 0.927320 0.080617
vt 0.601173 0.080617
vt 0.927320 0.136516
vt 0.601173 0.136516
vt 0.927320 0.192416
vt 0.601173 0.192416
vt 0.927320 0.248315
vt 0.601173 0.248315
vt 0.927320 0.304214
vt 0.601173 0.304214
vt 0.927320 0.360114
vt 0.601173 0.360114
vt 0.927320 0.416013
vt 0.601173 0.416013
vt 0.927320 0.471913
vt 0.601172 0.471913
s 0
f 1/1/1 2/2/1 4/3/1 3/4/1
f 3/5/2 4/6/2 8/7/2 7/8/2
f 7/7/3 8/4/3 6/9/3 5/10/3
f 5/6/4 6/1/4 2/4/4 1/7/4
f 3/11/5 7/12/5 5/1/5 1/6/5
f 8/13/6 4/14/6 2/12/6 6/11/6
f 9/13/6 13/14/6 15/12/6 11/11/6
f 14/11/5 10/12/5 12/1/5 16/6/5
f 12/6/7 11/1/7 15/4/7 16/7/7
f 10/7/8 9/4/8 11/9/8 12/10/8
f 14/5/9 13/6/9 9/7/9 10/8/9
f 16/1/10 15/2/10 13/3/10 14/4/10
f 17/1/11 18/2/11 20/3/11 19/4/11
f 19/5/12 20/6/12 24/7/12 23/8/12
f 23/7/13 24/4/13 22/9/13 21/10/13
f 21/6/14 22/1/14 18/4/14 17/7/14
f 19/11/5 23/12/5 21/1/5 17/6/5
f 24/13/6 20/14/6 18/12/6 22/11/6
f 25/13/6 29/14/6 31/12/6 27/11/6
f 28/6/15 27/1/15 31/4/15 32/7/15
f 26/7/16 25/4/16 27/9/16 28/10/16
f 30/5/17 29/6/17 25/7/17 26/8/17
f 32/1/18 31/2/18 29/3/18 30/4/18
f 33/15/19 34/16/19 36/17/19 35/18/19
f 35/18/20 36/17/20 38/19/20 37/20/20
f 37/20/21 38/19/21 40/21/21 39/22/21
f 39/22/22 40/21/22 42/23/22 41/24/22
f 41/24/23 42/23/23 44/25/23 43/26/23
f 43/26/24 44/25/24 46/27/24 45/28/24
f 45/28/25 46/27/25 48/29/25 47/30/25
f 47/30/26 48/29/26 34/31/26 33/32/26
f 49/15/19 50/16/19 52/17/19 51/18/19
f 51/18/20 52/17/20 54/19/20 53/20/20
f 53/20/21 54/19/21 56/21/21 55/22/21
f 55/22/22 56/21/22 58/23/22 57/24/22
f 57/24/23 58/23/23 60/25/23 59/26/23
f 59/26/24 60/25/24 62/27/24 61/28/24
f 61/28/25 62/27/25 64/29/25 63/30/25
f 63/30/26 64/29/26 50/31/26 49/32/26
f 65/15/19 66/16/19 68/17/19 67/18/19
f 67/18/20 68/17/20 70/19/20 69/20/20
f 69/20/21 70/19/21 72/21/21 71/22/21
f 71/22/22 72/21/22 74/23/22 73/24/22
f 73/24/23 74/23/23 76/25/23 75/26/23
f 75/26/24 76/25/24 78/27/24 77/28/24
f 77/28/25 78/27/25 80/29/25 79/30/25
f 79/30/26 80/29/26 66/31/26 65/32/26
f 81/15/19 82/16/19 84/17/19 83/18/19
f 83/18/20 84/17/20 86/19/20 85/20/20
f 85/20/21 86/19/21 88/21/21 87/22/21
f 87/22/22 88/21/22 90/23/22 89/24/22
f 89/24/23 90/23/23 92/25/23 91/26/23
f 91/26/24 92/25/24 94/27/24 93/28/24
f 93/28/25 94/27/25 96/29/25 95/30/25
f 95/30/26 96/29/26 82/31/26 81/32/26
f 97/15/19 98/16/19 100/17/19 99/18/19
f 99/18/20 100/17/20 102/19/20 101/20/20
f 101/20/21 102/19/21 104/21/21 103/22/21
f 103/22/22 104/21/22 106/23/22 105/24/22
f 105/24/23 106/23/23 108/25/23 107/26/23
f 107/26/24 108/25/24 110/27/24 109/28/24
f 109/28/25 110/27/25 112/29/25 111/30/25
f 111/30/26 112/29/26 98/31/26 97/32/26
f 113/15/19 114/16/19 116/17/19 115/18/19
f 115/18/20 116/17/20 118/19/20 117/20/20
f 117/20/21 118/19/21 120/21/21 119/22/21
f 119/22/22 120/21/22 122/23/22 121/24/22
f 121/24/23 122/23/23 124/25/23 123/26/23
f 123/26/24 124/25/24 126/27/24 125/28/24
f 125/28/25 126/27/25 128/29/25 127/30/25
f 127/30/26 128/29/26 114/31/26 113/32/26
f 129/15/19 130/16/19 132/17/19 131/18/19
f 131/18/20 132/17/20 134/19/20 133/20/20
f 133/20/21 134/19/21 136/21/21 135/22/21
f 135/22/22 136/21/22 138/23/22 137/24/22
f 137/24/23 138/23/23 140/25/23 139/26/23
f 139/26/24 140/25/24 142/27/24 141/28/24
f 141/28/25 142/27/25 144/29/25 143/30/25
f 143/30/26 144/29/26 130/31/26 129/32/26
