# Blender 4.4.3
# www.blender.org
o SM_CornerStore_Buildings_V1.0
v -1.000000 2.000000 1.000000
v -1.000000 0.000000 -1.000000
v -1.000000 2.000000 -1.000000
v 1.000000 0.000000 1.000000
v 1.000000 2.000000 1.000000
v 1.000000 0.000000 -1.000000
v 1.000000 2.000000 -1.000000
v -0.900000 0.900000 0.900000
v -1.000000 1.100000 1.000000
v -1.000000 1.100000 -1.000000
v -1.000000 0.900000 -1.000000
v 1.000000 1.100000 1.000000
v -1.000000 0.000000 -0.800000
v 1.000000 0.900000 1.000000
v -1.000000 0.900000 -0.800000
v -1.000000 1.100000 -0.800000
v 0.800000 0.000000 1.000000
v 0.800000 0.900000 1.000000
v 0.800000 1.100000 1.000000
v 1.000000 0.900000 1.100000
v 1.000000 0.000000 1.100000
v 0.800000 0.000000 1.100000
v -1.000000 0.900000 1.100000
v -1.000000 1.100000 1.100000
v 1.000000 1.100000 1.100000
v 0.800000 0.900000 1.100000
v 0.800000 1.100000 1.100000
v -1.100000 0.900000 -1.000000
v -1.100000 0.000000 -1.000000
v -1.100000 0.900000 1.000000
v -1.100000 1.100000 1.000000
v -1.100000 1.100000 -1.000000
v -1.100000 0.000000 -0.800000
v -1.100000 1.100000 -0.800000
v -1.100000 0.900000 -0.800000
v -1.100000 0.900000 1.100000
v -1.100000 1.100000 1.100000
v -1.000000 0.900000 0.500000
v -1.000000 0.000000 0.500000
v -0.500000 0.900000 1.000000
v -0.500000 0.000000 1.000000
v -0.900000 0.450000 0.900000
v -0.500000 0.450000 1.000000
v -1.000000 0.450000 0.500000
v -0.164800 1.208000 1.000000
v -0.164800 1.838000 1.000000
v 0.395200 1.838000 1.000000
v 0.395200 1.208000 1.000000
v -0.164800 1.208000 0.900000
v -0.164800 1.838000 0.900000
v 0.395200 1.838000 0.900000
v 0.395200 1.208000 0.900000
v -1.000000 1.200800 0.174080
v -1.000000 1.848800 0.174080
v -1.000000 1.848800 -0.401920
v -1.000000 1.200800 -0.401920
v 0.399074 1.839038 1.000000
v -0.900000 1.200800 0.174080
v -0.900000 1.848800 0.174080
v -0.900000 1.848800 -0.401920
v -0.900000 1.200800 -0.401920
vn -0.0000 -0.0000 -1.0000
vn -0.0000 1.0000 -0.0000
vn -0.0000 -0.0000 1.0000
vn 1.0000 -0.0000 -0.0000
vn -0.0000 -1.0000 -0.0000
vn -1.0000 -0.0000 -0.0000
vn -0.7071 -0.0000 0.7071
vn -0.9701 -0.0000 0.2425
vn -0.2425 -0.0000 0.9701
vt 0.260561 0.842111
vt 0.225289 0.842111
vt 0.066561 0.489384
vt 0.419289 0.489384
vt 0.594110 0.586050
vt 0.894131 0.586050
vt 0.894131 0.886071
vt 0.594110 0.886071
vt 0.739948 0.014721
vt 0.885932 0.014906
vt 0.887083 0.219558
vt 0.814256 0.230662
vt 0.066561 0.489384
vt 0.225289 0.842111
vt 0.260561 0.842111
vt 0.325532 0.953704
vt 0.639574 0.953704
vt 0.953616 0.953704
vt 0.953616 0.988598
vt 0.325532 0.988597
vt 0.913078 0.241465
vt 0.913078 0.019062
vt 0.943609 0.019062
vt 0.943610 0.241465
vt 0.913078 0.943698
vt 0.913078 0.913166
vt 0.943610 0.913166
vt 0.943610 0.943698
vt 0.838388 0.287436
vt 0.813427 0.341336
vt 0.011491 0.953704
vt 0.011491 0.988597
vt 0.363505 0.913166
vt 0.363505 0.943698
vt 0.692247 0.149904
vt 0.702240 0.038850
vt 0.721875 0.012907
vt 0.720120 0.171445
vt 0.302441 0.913166
vt 0.302441 0.943698
vt 0.057794 0.855022
vt 0.015988 0.855022
vt 0.015988 0.478776
vt 0.057794 0.478776
vt 0.419289 0.842111
vt 0.066561 0.842111
vt 0.419289 0.842111
vt 0.066561 0.842111
vt 0.057794 0.896827
vt 0.015988 0.896827
vt 0.245916 0.896827
vt 0.245916 0.855022
vt 0.953616 0.639662
vt 0.953616 0.325620
vt 0.988510 0.325620
vt 0.988509 0.953704
vt 0.011491 0.913166
vt 0.241377 0.913166
vt 0.241377 0.943698
vt 0.011491 0.943698
vt 0.953616 0.019062
vt 0.988510 0.019062
vt 0.057794 0.060726
vt 0.015988 0.060726
vt 0.015988 0.018921
vt 0.057794 0.018920
vt 0.245916 0.060726
vt 0.245916 0.018920
vt 0.057794 0.436971
vt 0.015988 0.436971
vt 0.057794 0.457874
vt 0.015988 0.457874
vt 0.988509 0.988598
vt 0.913078 0.302529
vt 0.943610 0.302529
vt 0.913078 0.363593
vt 0.943610 0.363593
vt 0.419289 0.489384
vt 0.419289 0.806838
vt 0.438336 0.735446
vt 0.438336 0.636683
vt 0.419289 0.489384
vt 0.578016 0.489384
vt 0.551350 0.635046
vt 0.437066 0.635046
vt 0.742853 0.340456
vt 0.739948 0.562390
vt 0.704547 0.434797
vt 0.573301 0.434797
vt 0.573301 0.233141
vt 0.704547 0.233141
vt 0.890894 0.354527
vt 0.888014 0.563679
vt 0.742738 0.233101
vt 0.889120 0.282974
vt 0.428758 0.080394
vt 0.428758 0.474680
vt 0.078281 0.474680
vt 0.078281 0.080394
vt 0.578016 0.842111
vt 0.578016 0.489384
vt 0.549445 0.636683
vt 0.549445 0.735446
vt 0.549628 0.736130
vt 0.419289 0.842111
vt 0.591629 0.144695
vt 0.571994 0.170638
vt 0.601621 0.033641
vt 0.573748 0.012100
vt 0.551350 0.736632
vt 0.419289 0.842111
vt 0.419289 0.806839
vt 0.437066 0.736632
s 0
f 11/1/1 10/2/1 7/3/1 6/4/1
f 7/5/2 3/6/2 1/7/2 5/8/2
f 17/9/3 18/10/3 40/11/3 43/12/3
f 7/13/4 12/14/4 14/15/4 6/4/4
f 15/16/5 38/17/5 8/18/5 30/19/5 35/20/5
f 11/21/1 2/22/1 29/23/1 28/24/1
f 24/25/2 9/26/2 31/27/2 37/28/2
f 43/12/5 42/29/5 44/30/5
f 13/31/3 15/16/3 35/20/3 33/32/3
f 19/33/2 9/26/2 24/25/2 27/34/2
f 55/35/3 56/36/3 61/37/3 60/38/3
f 12/39/2 19/33/2 27/34/2 25/40/2
f 45/35/2 48/36/2 52/37/2 49/38/2
f 26/41/3 27/42/3 24/43/3 23/44/3
f 6/4/4 14/15/4 4/45/4
f 12/14/4 7/13/4 5/46/4
f 6/4/1 2/47/1 11/1/1
f 7/3/1 10/2/1 3/48/1
f 20/49/3 25/50/3 27/42/3 26/41/3
f 21/51/3 20/49/3 26/41/3 22/52/3
f 8/18/5 40/53/5 18/54/5 26/55/5 23/56/5
f 4/57/4 14/58/4 20/59/4 21/60/4
f 14/58/4 12/39/4 25/40/4 20/59/4
f 18/54/6 17/61/6 22/62/6 26/55/6
f 35/63/6 34/64/6 32/65/6 28/66/6
f 33/67/6 35/63/6 28/66/6 29/68/6
f 30/69/6 31/70/6 34/64/6 35/63/6
f 31/70/6 30/69/6 36/71/6 37/72/6
f 8/18/5 23/56/5 36/73/5 30/19/5
f 10/74/1 11/21/1 28/24/1 32/75/1
f 9/26/2 16/76/2 34/77/2 31/27/2
f 16/76/2 10/74/2 32/75/2 34/77/2
f 23/44/3 24/43/3 37/72/3 36/71/3
f 9/78/3 19/79/3 48/80/3 45/81/3
f 9/82/6 1/83/6 54/84/6 53/85/6
f 39/86/6 44/30/6 13/87/6
f 44/88/7 39/89/7 41/90/7 43/91/7
f 13/87/6 44/30/6 38/92/6 15/93/6
f 43/12/3 41/94/3 17/9/3
f 44/30/8 42/29/8 8/95/8 38/92/8
f 42/29/9 43/12/9 40/11/9 8/95/9
f 60/96/6 61/97/6 58/98/6 59/99/6
f 5/100/3 1/101/3 46/102/3 47/103/3 57/104/3
f 1/101/3 9/78/3 45/81/3 46/102/3
f 57/104/3 12/105/3 5/100/3
f 51/96/3 50/97/3 49/98/3 52/99/3
f 46/106/4 45/35/4 49/38/4 50/107/4
f 47/108/5 46/106/5 50/107/5 51/109/5
f 48/36/6 47/108/6 51/109/6 52/37/6
f 12/105/3 57/104/3 47/103/3 48/80/3 19/79/3
f 1/83/6 3/100/6 55/110/6 54/84/6
f 55/110/6 3/100/6 10/111/6
f 16/112/6 9/82/6 53/85/6 56/113/6
f 10/111/6 16/112/6 56/113/6 55/110/6
f 56/36/2 53/108/2 58/109/2 61/37/2
f 53/108/1 54/106/1 59/107/1 58/109/1
f 54/106/5 55/35/5 60/38/5 59/107/5
