# Blender 4.4.3
# www.blender.org
o SM_Sky-H_Buildings_V1.0
v -1.000000 0.000000 0.400000
v -1.000000 7.000000 0.400000
v -0.600000 0.000000 0.400000
v -0.600000 7.000000 0.400000
v -1.000000 7.000000 0.720000
v -1.000000 0.000000 0.720000
v -0.600000 0.000000 0.720000
v -0.600000 7.000000 0.720000
v -0.600000 0.476141 0.400000
v -0.600000 0.608805 0.400000
v -0.600000 0.476141 0.720000
v -0.600000 0.608805 0.720000
v 0.711949 7.372575 0.489559
v 0.888051 7.372575 0.489559
v 0.711949 7.372575 0.630441
v 0.888051 7.372575 0.630441
v 1.000000 0.000000 0.400000
v 1.000000 7.000000 0.400000
v 0.600000 0.000000 0.400000
v 0.600000 7.000000 0.400000
v 1.000000 7.000000 0.720000
v 1.000000 0.000000 0.720000
v 0.600000 0.000000 0.720000
v 0.600000 7.000000 0.720000
v 0.600000 0.476141 0.400000
v 0.600000 0.608805 0.400000
v 0.600000 0.476141 0.720000
v 0.600000 0.608805 0.720000
v 0.711949 7.000000 0.630441
v 0.888051 7.000000 0.630441
v 0.711949 7.000000 0.489559
v 0.888051 7.000000 0.489559
v -0.851726 7.865448 -0.518619
v -0.851726 7.865448 -0.601380
v -1.000000 0.000000 -0.400000
v -1.000000 7.000000 -0.400000
v -0.600000 0.000000 -0.400000
v -0.600000 7.000000 -0.400000
v -1.000000 7.000000 -0.720000
v -1.000000 0.000000 -0.720000
v -0.600000 0.000000 -0.720000
v -0.600000 7.000000 -0.720000
v -0.600000 0.476141 -0.400000
v -0.600000 0.608805 -0.400000
v -0.600000 0.476141 -0.720000
v -0.600000 0.608805 -0.720000
v -0.748274 7.865448 -0.518619
v -0.748274 7.865448 -0.601380
v -0.748274 7.000000 -0.601380
v -0.851726 7.000000 -0.601380
v -0.748274 7.000000 -0.518619
v -0.851726 7.000000 -0.518619
v 1.000000 0.000000 -0.400000
v 1.000000 7.000000 -0.400000
v 0.600000 0.000000 -0.400000
v 0.600000 7.000000 -0.400000
v 1.000000 7.000000 -0.720000
v 1.000000 0.000000 -0.720000
v 0.600000 0.000000 -0.720000
v 0.600000 7.000000 -0.720000
v 0.600000 0.476141 -0.400000
v 0.600000 0.608805 -0.400000
v 0.600000 0.476141 -0.720000
v 0.600000 0.608805 -0.720000
vn -0.0000 -0.0000 -1.0000
vn -1.0000 -0.0000 -0.0000
vn -0.0000 -0.0000 1.0000
vn -0.0000 1.0000 -0.0000
vn 1.0000 -0.0000 -0.0000
vn -0.0000 -1.0000 -0.0000
vt 0.009231 0.015370
vt 0.196989 0.015370
vt 0.196989 0.984630
vt 0.009231 0.984630
vt 0.329001 0.987460
vt 0.214715 0.987460
vt 0.214715 0.012540
vt 0.329001 0.012540
vt 0.392176 0.014980
vt 0.345972 0.014980
vt 0.345972 0.080963
vt 0.345972 0.099347
vt 0.345972 0.985020
vt 0.392176 0.985020
vt 0.620379 0.620125
vt 0.678437 0.620125
vt 0.678437 0.692698
vt 0.620379 0.692698
vt 0.346462 0.014980
vt 0.346462 0.985020
vt 0.620379 0.910419
vt 0.678437 0.910419
vt 0.662188 0.930730
vt 0.636628 0.930730
vt 0.391445 0.014980
vt 0.391445 0.983949
vt 0.345731 0.983949
vt 0.345731 0.014980
vt 0.971531 0.606500
vt 0.971531 0.979178
vt 0.721066 0.979178
vt 0.721066 0.606500
vt 0.527327 0.400963
vt 0.586816 0.400963
vt 0.586816 0.604898
vt 0.527327 0.604898
vt 0.620379 0.982992
vt 0.475232 0.982992
vt 0.475232 0.910419
vt 0.611478 0.400963
vt 0.611478 0.604898
vt 0.670967 0.400963
vt 0.670967 0.604898
vt 0.475543 0.162264
vt 0.518635 0.162264
vt 0.518635 0.237056
vt 0.475543 0.237056
vt 0.636628 0.962681
vt 0.580317 0.237056
vt 0.580317 0.294880
vt 0.518635 0.294880
vt 0.475543 0.294880
vt 0.413861 0.294880
vt 0.413861 0.237056
vt 0.518635 0.369671
vt 0.475543 0.369671
vt 0.415720 0.452272
vt 0.415720 0.401777
vt 0.483552 0.401777
vt 0.483552 0.452272
vt 0.415720 0.551096
vt 0.415720 0.500601
vt 0.483552 0.500601
vt 0.483552 0.551096
vt 0.475232 0.620125
vt 0.475232 0.692698
vt 0.453710 0.665797
vt 0.453710 0.647027
vt 0.415720 0.599424
vt 0.483552 0.599424
vt 0.678437 0.982992
vt 0.662188 0.962681
vt 0.417173 0.982992
vt 0.417173 0.910419
vt 0.417173 0.692698
vt 0.438695 0.665797
vt 0.502434 0.500601
vt 0.502434 0.551096
vt 0.417173 0.620125
vt 0.438695 0.647027
s 0
f 62/1/1 44/2/1 38/3/1 56/4/1
f 2/5/2 36/6/2 35/7/2 1/8/2
f 6/9/3 7/10/3 11/11/3 12/12/3 8/13/3 5/14/3
f 2/15/4 5/16/4 8/17/4 4/18/4
f 1/19/2 6/9/2 5/14/2 2/20/2
f 20/21/4 24/22/4 29/23/4 31/24/4
f 10/25/5 4/26/5 8/27/5 12/28/5
f 3/29/5 9/30/5 11/31/5 7/32/5
f 19/29/3 25/30/3 9/31/3 3/32/3
f 25/33/6 27/34/6 11/35/6 9/36/6
f 18/37/4 54/38/4 56/39/4 20/21/4
f 27/34/3 28/40/3 12/41/3 11/35/3
f 12/41/4 28/40/4 26/42/4 10/43/4
f 30/44/5 32/45/5 14/46/5 16/47/5
f 17/5/5 53/6/5 54/7/5 18/8/5
f 22/14/3 21/9/3 24/10/3 28/11/3 27/12/3 23/13/3
f 18/37/4 20/21/4 31/24/4 32/48/4
f 17/20/5 18/19/5 21/9/5 22/14/5
f 32/49/1 31/50/1 13/51/1 14/46/1
f 26/25/2 28/26/2 24/27/2 20/28/2
f 19/29/2 23/30/2 27/31/2 25/32/2
f 14/46/4 13/51/4 15/52/4 16/47/4
f 29/53/3 30/54/3 16/47/3 15/52/3
f 31/55/2 29/56/2 15/52/2 13/51/2
f 52/57/3 51/58/3 47/59/3 33/60/3
f 49/61/1 50/62/1 34/63/1 48/64/1
f 40/14/1 39/9/1 42/10/1 46/11/1 45/12/1 41/13/1
f 36/65/4 38/66/4 51/67/4 52/68/4
f 35/20/2 36/19/2 39/9/2 40/14/2
f 51/69/5 49/61/5 48/64/5 47/70/5
f 44/25/5 46/26/5 42/27/5 38/28/5
f 37/29/5 41/30/5 45/31/5 43/32/5
f 55/29/1 37/30/1 43/31/1 61/32/1
f 61/33/6 43/36/6 45/35/6 63/34/6
f 4/18/4 38/66/4 36/65/4 2/15/4
f 63/34/1 45/35/1 46/41/1 64/40/1
f 44/43/4 62/42/4 64/40/4 46/41/4
f 21/71/4 18/37/4 32/48/4 30/72/4
f 24/22/4 21/71/4 30/72/4 29/23/4
f 58/9/1 59/10/1 63/11/1 64/12/1 60/13/1 57/14/1
f 54/38/4 57/73/4 60/74/4 56/39/4
f 53/19/5 58/9/5 57/14/5 54/20/5
f 38/66/4 42/75/4 49/76/4 51/67/4
f 62/25/2 56/26/2 60/27/2 64/28/2
f 55/29/2 61/30/2 63/31/2 59/32/2
f 50/62/2 52/57/2 33/60/2 34/63/2
f 33/77/4 47/78/4 48/64/4 34/63/4
f 4/18/4 20/21/4 56/39/4 38/66/4
f 42/75/4 39/79/4 50/80/4 49/76/4
f 39/79/4 36/65/4 52/68/4 50/80/4
f 26/1/3 20/2/3 4/3/3 10/4/3
