# Blender 4.4.3
# www.blender.org
o SM_SkyRound_Buildings_V1.0
v -0.000000 0.401215 -1.056000
v -0.000000 6.761805 -1.056000
v 0.620701 0.401215 -0.854322
v 0.620701 6.761805 -0.854322
v 1.004316 0.401215 -0.326322
v 1.004316 6.761805 -0.326322
v 1.004316 0.401215 0.326322
v 1.004316 6.761805 0.326322
v 0.620701 0.401215 0.854322
v 0.620701 6.761805 0.854322
v -0.000000 0.401215 1.056000
v -0.000000 6.761805 1.056000
v -0.620701 0.401215 0.854322
v -0.620701 6.761805 0.854322
v -1.004316 0.401215 0.326322
v -1.004316 6.761805 0.326322
v -1.004316 0.401215 -0.326322
v -1.004316 6.761805 -0.326322
v -0.620701 0.401215 -0.854322
v -0.620701 6.761805 -0.854322
v 0.000000 3.381510 -0.781906
v 0.459593 3.381510 -0.632575
v 0.743637 3.381510 -0.241622
v 0.743637 3.381510 0.241622
v 0.459593 3.381510 0.632575
v 0.000000 3.381510 0.781906
v -0.459593 3.381510 0.632575
v -0.743637 3.381510 0.241622
v -0.743637 3.381510 -0.241622
v -0.459593 3.381510 -0.632575
v -0.000000 0.420066 -1.155529
v 0.679203 0.420066 -0.934843
v 1.098974 0.420066 -0.357078
v 1.098974 0.420066 0.357078
v 0.679203 0.420066 0.934843
v -0.000000 0.420066 1.155529
v -0.679203 0.420066 0.934843
v -1.098974 0.420066 0.357078
v -1.098974 0.420066 -0.357078
v -0.679203 0.420066 -0.934843
v -0.000000 -0.017635 -1.155529
v 0.679203 -0.017635 -0.934843
v 1.098974 -0.017635 -0.357078
v 1.098974 -0.017635 0.357078
v 0.679203 -0.017635 0.934843
v -0.000000 -0.017635 1.155529
v -0.679203 -0.017635 0.934843
v -1.098974 -0.017635 0.357078
v -1.098974 -0.017635 -0.357078
v -0.679203 -0.017635 -0.934843
v -0.000000 6.761805 -0.326322
v -0.620701 6.761805 -0.326321
v 0.620701 6.761805 -0.326322
v 0.620701 6.761805 0.326322
v -0.000000 6.761805 0.326322
v -0.620701 6.761805 0.326322
v 0.795495 6.761805 -0.470031
v 0.725112 6.761805 -0.566905
v 0.725112 6.761805 -0.470031
v 0.748573 7.747018 -0.502322
v -0.233593 6.761805 0.743445
v -0.387108 6.761805 0.693565
v -0.233593 6.761805 0.562977
v -0.387108 6.761805 0.562977
v -0.387108 7.429416 0.562977
v -0.233593 7.429416 0.562977
v -0.387108 7.429416 0.693565
v -0.233593 7.429416 0.743445
v 0.362817 6.761805 0.055167
v 0.362817 6.761805 -0.055167
v 0.257884 6.761805 -0.055167
v 0.257884 6.761805 0.055167
v 0.362817 7.135600 0.055167
v 0.362817 7.135600 -0.055167
v 0.257884 7.135600 -0.055167
v 0.257884 7.135600 0.055167
vn 0.3081 -0.0769 -0.9482
vn 0.8066 -0.0769 -0.5860
vn 0.9970 -0.0769 -0.0000
vn 0.8066 -0.0769 0.5860
vn 0.3081 -0.0769 0.9482
vn -0.0000 1.0000 -0.0000
vn -0.3081 -0.0769 0.9482
vn -0.8066 -0.0769 0.5860
vn -0.9970 -0.0769 -0.0000
vn -0.8066 -0.0769 -0.5860
vn -0.3081 -0.0769 -0.9482
vn -0.3078 0.0871 -0.9474
vn -0.8059 0.0871 -0.5855
vn -0.9962 0.0871 -0.0000
vn -0.8059 0.0871 0.5855
vn -0.3078 0.0871 0.9474
vn 0.3078 0.0871 0.9474
vn 0.8059 0.0871 0.5855
vn 0.9962 0.0871 -0.0000
vn 0.8059 0.0871 -0.5855
vn 0.3078 0.0871 -0.9474
vn 0.1580 0.9807 0.1148
vn 0.1580 0.9807 -0.1148
vn -0.1580 0.9807 0.1148
vn -0.1580 0.9807 -0.1148
vn -0.8090 -0.0000 0.5878
vn -0.3090 -0.0000 0.9511
vn -1.0000 -0.0000 -0.0000
vn 0.3090 -0.0000 0.9511
vn -0.8090 -0.0000 -0.5878
vn 0.8090 -0.0000 0.5878
vn 0.3090 -0.0000 -0.9511
vn 1.0000 -0.0000 -0.0000
vn -0.3090 -0.0000 -0.9511
vn 0.8090 -0.0000 -0.5878
vn -0.0604 0.9807 -0.1857
vn -0.1953 0.9807 -0.0000
vn -0.0604 0.9807 0.1857
vn 0.1953 0.9807 -0.0000
vn 0.0604 0.9807 -0.1857
vn 0.0604 0.9807 0.1857
vn -0.0000 0.0328 0.9995
vn -0.9997 0.0238 -0.0000
vn 0.8089 0.0193 -0.5877
vn -0.0000 -0.0000 -1.0000
vn -0.0000 -0.0000 1.0000
vt 0.973479 0.772353
vt 0.973479 0.988580
vt 0.878783 0.988580
vt 0.878783 0.772353
vt 0.784087 0.988580
vt 0.784087 0.772353
vt 0.689391 0.988580
vt 0.689391 0.772353
vt 0.594696 0.988580
vt 0.594696 0.772353
vt 0.500000 0.988580
vt 0.500000 0.772353
vt 0.872064 0.295317
vt 0.872064 0.232082
vt 0.918007 0.232082
vt 0.405304 0.988580
vt 0.405304 0.772353
vt 0.797726 0.319471
vt 0.825702 0.282038
vt 0.844088 0.276064
vt 0.310608 0.988580
vt 0.310608 0.772353
vt 0.723388 0.295317
vt 0.723388 0.232082
vt 0.797726 0.232082
vt 0.215913 0.988580
vt 0.215913 0.772353
vt 0.723388 0.153919
vt 0.677445 0.153919
vt 0.702454 0.136708
vt 0.710884 0.136708
vt 0.121217 0.988580
vt 0.121217 0.772353
vt 0.026521 0.988580
vt 0.026521 0.772353
vt 0.121217 0.556126
vt 0.026521 0.556126
vt 0.215913 0.556126
vt 0.310608 0.556126
vt 0.405304 0.556126
vt 0.500000 0.556126
vt 0.594696 0.556126
vt 0.689391 0.556126
vt 0.784087 0.556126
vt 0.878783 0.556126
vt 0.973479 0.556126
vt 0.952412 0.238797
vt 0.952397 0.140872
vt 0.966911 0.136161
vt 0.966911 0.243524
vt 0.801650 0.348197
vt 0.894818 0.317957
vt 0.903765 0.330284
vt 0.801660 0.363457
vt 0.801470 0.031395
vt 0.708301 0.061560
vt 0.699360 0.049232
vt 0.801463 0.016139
vt 0.650727 0.140713
vt 0.650757 0.238642
vt 0.636242 0.243352
vt 0.636229 0.135988
vt 0.304587 0.401012
vt 0.389453 0.401012
vt 0.389453 0.543433
vt 0.304587 0.543433
vt 0.219722 0.401012
vt 0.219722 0.543433
vt 0.510838 0.401012
vt 0.510838 0.543433
vt 0.134857 0.401012
vt 0.134857 0.543433
vt 0.595703 0.401012
vt 0.595703 0.543433
vt 0.049992 0.401012
vt 0.049992 0.543433
vt 0.680568 0.401012
vt 0.765433 0.401012
vt 0.765433 0.543433
vt 0.680568 0.543433
vt 0.850299 0.401012
vt 0.971684 0.401012
vt 0.971684 0.543433
vt 0.850299 0.543433
vt 0.708410 0.317910
vt 0.699429 0.330279
vt 0.894729 0.061639
vt 0.903703 0.049267
vt 0.012079 0.386991
vt 0.012058 0.287488
vt 0.039018 0.338638
vt 0.677445 0.232082
vt 0.797726 0.153919
vt 0.723388 0.090683
vt 0.797726 0.066530
vt 0.872064 0.153919
vt 0.872064 0.090683
vt 0.918007 0.153919
vt 0.766841 0.199607
vt 0.766841 0.186393
vt 0.710884 0.125106
vt 0.264220 0.196830
vt 0.264220 0.145786
vt 0.306953 0.145786
vt 0.306953 0.196830
vt 0.098511 0.337246
vt 0.844088 0.260425
vt 0.825702 0.260425
vt 0.340177 0.145786
vt 0.340177 0.196830
vt 0.306953 0.046716
vt 0.340177 0.046716
vt 0.340177 0.295901
vt 0.306953 0.295901
vt 0.382911 0.145786
vt 0.382911 0.196830
vt -0.001054 0.245305
vt -0.001054 0.223128
vt 0.130534 0.223128
vt 0.130534 0.245305
vt 0.754274 0.186393
vt 0.754274 0.199607
vt 0.151582 0.223128
vt 0.151582 0.245305
vt 0.130534 0.097023
vt 0.151582 0.097023
vt 0.151582 0.371410
vt 0.130534 0.371410
vt 0.283169 0.223128
vt 0.283169 0.245305
s 0
f 21/1/1 2/2/1 4/3/1 22/4/1
f 22/4/2 4/3/2 6/5/2 23/6/2
f 23/6/3 6/5/3 8/7/3 24/8/3
f 24/8/4 8/7/4 10/9/4 25/10/4
f 25/10/5 10/9/5 12/11/5 26/12/5
f 14/13/6 56/14/6 16/15/6
f 26/12/7 12/11/7 14/16/7 27/17/7
f 14/13/6 12/18/6 61/19/6 62/20/6
f 27/17/8 14/16/8 16/21/8 28/22/8
f 10/23/6 54/24/6 55/25/6 12/18/6
f 28/22/9 16/21/9 18/26/9 29/27/9
f 53/28/6 6/29/6 57/30/6 59/31/6
f 29/27/10 18/26/10 20/32/10 30/33/10
f 30/33/11 20/32/11 2/34/11 21/35/11
f 19/36/12 30/33/12 21/35/12 1/37/12
f 17/38/13 29/27/13 30/33/13 19/36/13
f 15/39/14 28/22/14 29/27/14 17/38/14
f 13/40/15 27/17/15 28/22/15 15/39/15
f 11/41/16 26/12/16 27/17/16 13/40/16
f 9/42/17 25/10/17 26/12/17 11/41/17
f 7/43/18 24/8/18 25/10/18 9/42/18
f 5/44/19 23/6/19 24/8/19 7/43/19
f 3/45/20 22/4/20 23/6/20 5/44/20
f 1/46/21 21/1/21 22/4/21 3/45/21
f 17/47/22 19/48/22 40/49/22 39/50/22
f 13/51/23 15/52/23 38/53/23 37/54/23
f 3/55/24 5/56/24 33/57/24 32/58/24
f 7/59/25 9/60/25 35/61/25 34/62/25
f 37/63/26 38/64/26 48/65/26 47/66/26
f 36/67/27 37/63/27 47/66/27 46/68/27
f 38/64/28 39/69/28 49/70/28 48/65/28
f 35/71/29 36/67/29 46/68/29 45/72/29
f 39/69/30 40/73/30 50/74/30 49/70/30
f 34/75/31 35/71/31 45/72/31 44/76/31
f 31/77/32 32/78/32 42/79/32 41/80/32
f 33/81/33 34/82/33 44/83/33 43/84/33
f 40/73/34 31/77/34 41/80/34 50/74/34
f 32/78/35 33/81/35 43/84/35 42/79/35
f 9/60/36 11/85/36 36/86/36 35/61/36
f 5/56/37 7/59/37 34/62/37 33/57/37
f 1/87/38 3/55/38 32/58/38 31/88/38
f 15/52/39 17/47/39 39/50/39 38/53/39
f 11/85/40 13/51/40 37/54/40 36/86/40
f 19/48/41 1/87/41 31/88/41 40/49/41
f 59/89/42 57/90/42 60/91/42
f 6/29/6 53/28/6 54/24/6 8/92/6
f 51/93/6 53/28/6 4/94/6 2/95/6
f 52/96/6 51/93/6 2/95/6 20/97/6
f 18/98/6 52/96/6 20/97/6
f 8/92/6 54/24/6 10/23/6
f 51/93/6 55/25/6 72/99/6 71/100/6
f 56/14/6 55/25/6 51/93/6 52/96/6
f 16/15/6 56/14/6 52/96/6 18/98/6
f 4/94/6 53/28/6 59/31/6 58/101/6
f 6/29/6 4/94/6 58/101/6 57/30/6
f 64/102/28 62/103/28 67/104/28 65/105/28
f 58/106/43 59/89/43 60/91/43
f 57/90/44 58/106/44 60/91/44
f 56/14/6 14/13/6 62/20/6 64/107/6
f 55/25/6 56/14/6 64/107/6 63/108/6
f 12/18/6 55/25/6 63/108/6 61/19/6
f 68/109/6 66/110/6 65/105/6 67/104/6
f 62/111/27 61/112/27 68/109/27 67/104/27
f 63/113/45 64/114/45 65/105/45 66/110/45
f 61/115/33 63/116/33 66/110/33 68/109/33
f 70/117/45 71/118/45 75/119/45 74/120/45
f 53/28/6 51/93/6 71/100/6 70/121/6
f 54/24/6 53/28/6 70/121/6 69/122/6
f 55/25/6 54/24/6 69/122/6 72/99/6
f 76/123/6 73/124/6 74/120/6 75/119/6
f 71/125/28 72/126/28 76/123/28 75/119/28
f 69/127/33 70/128/33 74/120/33 73/124/33
f 72/129/46 69/130/46 73/124/46 76/123/46
