# Blender 4.4.3
# www.blender.org
o SM_Sky-P_Buildings_V1.0
v 1.000000 9.000000 -1.000000
v 1.000000 0.000000 -1.000000
v 1.000000 9.000000 1.000000
v 1.000000 0.000000 1.000000
v -1.000000 9.000000 -1.000000
v -1.000000 0.000000 -1.000000
v -1.000000 9.000000 1.000000
v -1.000000 0.000000 1.007223
v 0.333333 9.000000 1.000000
v -0.333333 9.000000 1.000000
v -0.333333 9.000000 -1.000000
v 0.333333 9.000000 -1.000000
v 1.000000 9.000000 -0.333333
v 1.000000 9.000000 0.333333
v -1.000000 9.000000 0.333333
v -1.000000 9.000000 -0.333333
v 0.332500 8.988750 1.425000
v -0.332500 8.988750 1.425000
v -0.332500 0.011250 1.425000
v -0.332500 8.988750 -1.425000
v 0.332500 8.988750 -1.425000
v 0.332500 0.011250 -1.425000
v -0.332500 0.011250 -1.425000
v 1.425000 8.988750 -0.332500
v 1.425000 8.988750 0.332500
v 1.425000 0.011250 -0.332500
v -1.425000 8.988750 0.332500
v -1.425000 8.988750 -0.332500
v -0.333333 9.700000 1.000000
v -0.333333 9.000000 0.333334
v 0.333333 9.700000 -0.333334
v 0.333333 9.000000 0.333334
v 0.333333 9.700000 0.333334
v -0.333333 9.700000 -0.333334
v -1.000000 9.700000 -0.333333
v -1.000000 9.700000 0.333333
v 1.000000 9.700000 0.333333
v 1.000000 9.700000 -0.333333
v 0.333333 9.700000 -1.000000
v -0.333333 9.700000 -1.000000
v 0.333333 9.700000 1.000000
v 0.333333 9.000000 -0.333334
v -0.333333 9.000000 -0.333334
v -0.333333 9.700000 0.333334
v 1.000000 0.675000 -1.000000
v -1.000000 0.675000 -1.000000
v -0.333333 0.675000 -1.000000
v 0.333333 0.675000 -1.000000
v 0.333333 0.675000 1.000000
v -0.333333 0.675000 1.000000
v -1.000000 0.675000 0.333333
v -1.000000 0.675000 -0.333333
v 1.000000 0.675000 -0.333333
v 1.000000 0.675000 0.333333
v 0.332500 0.684562 -1.425000
v 0.332500 0.684562 1.425000
v -1.425000 0.684562 -0.332500
v 1.425000 0.684562 0.332500
v 0.332500 0.011250 1.425000
v 1.000000 0.675000 1.000000
v -1.425000 0.011250 0.332500
v -0.332500 0.684562 -1.425000
v -0.332500 0.684562 1.425000
v 1.425000 0.011250 0.332500
v -1.425000 0.011250 -0.332500
v -1.425000 0.684562 0.332500
v 1.425000 0.684562 -0.332500
v -1.000000 0.675000 1.000000
v 0.333333 9.000000 1.000000
v -0.333333 9.000000 1.000000
v -0.333333 9.000000 -1.000000
v 0.333333 9.000000 -1.000000
v 1.000000 9.000000 -0.333333
v 1.000000 9.000000 0.333333
v -1.000000 9.000000 0.333333
v -1.000000 9.000000 -0.333333
v -0.333333 9.700000 1.000000
v -0.333333 9.000000 0.333334
v 0.333333 9.700000 -0.333334
v 0.333333 9.000000 0.333334
v 0.333333 9.700000 0.333334
v -0.333333 9.700000 -0.333334
v -1.000000 9.700000 -0.333333
v -1.000000 9.700000 0.333333
v 1.000000 9.700000 0.333333
v 1.000000 9.700000 -0.333333
v 0.333333 9.700000 -1.000000
v -0.333333 9.700000 -1.000000
v 0.333333 9.700000 1.000000
v 0.333333 9.000000 -0.333334
v -0.333333 9.000000 -0.333334
v -0.333333 9.700000 0.333334
vn -0.0000 -0.0000 1.0000
vn 1.0000 -0.0000 -0.0000
vn -0.0000 -0.0000 -1.0000
vn -1.0000 -0.0000 -0.0000
vn -0.0000 0.9996 0.0265
vn -1.0000 -0.0000 -0.0020
vn 0.0265 0.9996 -0.0000
vn 1.0000 -0.0000 0.0020
vn -0.0020 -0.0000 1.0000
vn -0.0000 0.9997 -0.0225
vn 0.0020 -0.0000 -1.0000
vn -0.0000 0.9996 -0.0265
vn -0.0265 0.9996 -0.0000
vn -0.0000 1.0000 -0.0000
vn 0.0020 -0.0000 1.0000
vn 0.0225 0.9997 -0.0000
vn -0.0020 -0.0000 -1.0000
vn -1.0000 -0.0000 0.0020
vn -0.0225 0.9997 -0.0000
vn 1.0000 -0.0000 -0.0020
vn 0.8435 -0.0000 -0.5371
vn -0.8448 0.0029 0.5350
vn 0.5371 -0.0000 0.8435
vn -0.5371 -0.0000 -0.8435
vn -0.8435 -0.0000 -0.5371
vn 0.5371 -0.0000 -0.8435
vn 0.8435 -0.0000 0.5371
vn -0.5339 0.0045 0.8456
vn -0.0000 0.9997 0.0225
vt 0.027009 0.980969
vt 0.027009 0.034467
vt 0.295255 0.034467
vt 0.295255 0.980969
vt 0.027343 0.980969
vt 0.027343 0.034467
vt 0.295590 0.034467
vt 0.295590 0.980969
vt 0.027566 0.034467
vt 0.027566 0.980969
vt 0.843658 0.033616
vt 0.843658 0.366949
vt 0.601889 0.366949
vt 0.601889 0.033616
vt 0.597266 0.674631
vt 0.733930 0.889219
vt 0.597266 0.976633
vt 0.600170 0.363729
vt 0.600170 0.030396
vt 0.841941 0.030396
vt 0.841941 0.363729
vt 0.600170 0.031204
vt 0.841076 0.031204
vt 0.841076 0.363729
vt 0.851975 0.789992
vt 0.913957 0.789992
vt 0.913957 0.851975
vt 0.851975 0.851975
vt 0.913957 0.913957
vt 0.851975 0.913957
vt 0.913957 0.975939
vt 0.851975 0.975939
vt 0.789992 0.913957
vt 0.789992 0.851975
vt 0.975939 0.913957
vt 0.975939 0.851975
vt 0.448674 0.725549
vt 0.533638 0.725549
vt 0.533638 0.791478
vt 0.448674 0.791478
vt 0.448674 0.280243
vt 0.533638 0.280243
vt 0.533638 0.346173
vt 0.448674 0.346173
vt 0.448674 0.057479
vt 0.533638 0.057479
vt 0.533638 0.123409
vt 0.448674 0.123409
vt 0.448674 0.502896
vt 0.533638 0.502896
vt 0.533638 0.568826
vt 0.448674 0.568826
vt 0.448674 0.647187
vt 0.533638 0.647187
vt 0.448674 0.201579
vt 0.533638 0.201579
vt 0.448674 0.869840
vt 0.533638 0.869840
vt 0.533638 0.948201
vt 0.448674 0.948201
vt 0.448674 0.424534
vt 0.533638 0.424534
vt 0.410642 0.713073
vt 0.410642 0.788032
vt 0.330392 0.788032
vt 0.330392 0.713074
vt 0.410642 0.563157
vt 0.410642 0.638115
vt 0.330392 0.638115
vt 0.330392 0.563157
vt 0.410642 0.338283
vt 0.410642 0.413241
vt 0.330392 0.413241
vt 0.330392 0.338282
vt 0.410642 0.862990
vt 0.330392 0.862990
vt 0.410642 0.937948
vt 0.330392 0.937948
vt 0.410642 0.488199
vt 0.330392 0.488199
vt 0.410642 0.038450
vt 0.410642 0.113408
vt 0.330392 0.113408
vt 0.330392 0.038450
vt 0.410642 0.263324
vt 0.330392 0.263324
vt 0.410642 0.188366
vt 0.330392 0.188366
s 0
f 50/1/1 10/2/1 7/3/1 68/4/1
f 54/1/2 14/2/2 3/3/2 60/4/2
f 48/1/3 12/2/3 1/3/3 45/4/3
f 52/5/4 16/6/4 5/7/4 46/8/4
f 46/8/3 5/7/3 11/9/3 47/10/3
f 60/1/1 3/2/1 9/3/1 49/4/1
f 9/11/5 10/12/5 18/13/5 17/14/5
f 68/1/4 7/2/4 15/3/4 51/4/4
f 45/1/2 1/2/2 13/3/2 53/4/2
f 47/1/6 11/2/6 20/3/6 62/4/6
f 62/1/3 20/2/3 21/3/3 55/4/3
f 56/1/1 17/2/1 18/3/1 63/4/1
f 66/1/4 27/2/4 28/3/4 57/4/4
f 67/1/2 24/2/2 25/3/2 58/4/2
f 13/11/7 14/12/7 25/13/7 24/14/7
f 49/1/8 9/2/8 17/3/8 56/4/8
f 51/1/9 15/2/9 27/3/9 66/4/9
f 60/15/10 49/16/10 56/17/10
f 53/1/11 13/2/11 24/3/11 67/4/11
f 11/18/12 12/19/12 21/20/12 20/21/12
f 15/11/13 16/12/13 28/13/13 27/14/13
f 30/11/14 15/12/14 7/13/14 10/14/14
f 14/11/14 32/12/14 9/13/14 3/14/14
f 12/11/14 42/12/14 13/13/14 1/14/14
f 11/18/14 5/22/14 16/23/14 43/24/14
f 29/25/14 41/26/14 33/27/14 44/28/14
f 44/28/14 33/27/14 31/29/14 34/30/14
f 34/30/14 31/29/14 39/31/14 40/32/14
f 34/30/14 35/33/14 36/34/14 44/28/14
f 38/35/14 31/29/14 33/27/14 37/36/14
f 14/1/15 54/2/15 58/3/15 25/4/15
f 68/15/16 51/16/16 66/17/16
f 16/1/17 52/2/17 57/3/17 28/4/17
f 10/1/18 50/2/18 63/3/18 18/4/18
f 45/15/19 53/16/19 67/17/19
f 12/1/20 48/2/20 55/3/20 21/4/20
f 50/15/10 68/16/10 63/17/10
f 26/37/2 67/38/2 58/39/2 64/40/2
f 61/41/4 66/42/4 57/43/4 65/44/4
f 59/45/1 56/46/1 63/47/1 19/48/1
f 23/49/3 62/50/3 55/51/3 22/52/3
f 2/53/21 45/54/21 67/38/21 26/37/21
f 8/55/22 68/56/22 66/42/22 61/41/22
f 4/57/23 60/58/23 56/59/23 59/60/23
f 6/61/24 46/62/24 62/50/24 23/49/24
f 65/44/25 57/43/25 46/62/25 6/61/25
f 22/52/26 55/51/26 45/54/26 2/53/26
f 64/40/27 58/39/27 60/58/27 4/57/27
f 19/48/28 63/47/28 68/56/28 8/55/28
f 46/15/29 47/16/29 62/17/29
f 52/15/16 46/16/16 57/17/16
f 48/15/29 45/16/29 55/17/29
f 54/15/19 60/16/19 58/17/19
f 76/63/4 75/64/4 84/65/4 83/66/4
f 71/67/4 91/68/4 82/69/4 88/70/4
f 73/71/3 90/72/3 79/73/3 86/74/3
f 75/64/1 78/75/1 92/76/1 84/65/1
f 78/75/4 70/77/4 77/78/4 92/76/4
f 91/68/3 76/63/3 83/66/3 82/69/3
f 90/72/2 72/79/2 87/80/2 79/73/2
f 70/81/1 69/82/1 89/83/1 77/84/1
f 74/85/2 73/71/2 86/74/2 85/86/2
f 69/82/2 80/87/2 81/88/2 89/83/2
f 80/87/1 74/85/1 85/86/1 81/88/1
f 72/79/3 71/67/3 88/70/3 87/80/3
