# Blender 4.4.3
# www.blender.org
o SM_SkySquare_Buildings_V1.0
v 1.000000 6.000000 -0.750000
v 0.750000 6.000000 -1.000000
v 0.750000 0.000000 -1.000000
v 1.000000 0.000000 -0.750000
v 0.750000 6.000000 1.000000
v 1.000000 6.000000 0.750000
v 1.000000 0.000000 0.750000
v 0.750000 0.000000 1.000000
v -0.750000 6.000000 -1.000000
v -1.000000 6.000000 -0.750000
v -1.000000 0.000000 -0.750000
v -0.750000 0.000000 -1.000000
v -1.000000 6.000000 0.750000
v -0.750000 6.000000 1.000000
v -0.750000 0.000000 1.000000
v -1.000000 0.000000 0.750000
v 0.750000 4.800000 1.000000
v 0.750000 4.620000 1.000000
v 0.750000 3.000000 1.000000
v 0.750000 2.820000 1.000000
v 0.750000 1.200000 1.000000
v 0.750000 1.020000 1.000000
v 1.000000 1.020000 0.750000
v 1.000000 1.200000 0.750000
v 1.000000 2.820000 0.750000
v 1.000000 3.000000 0.750000
v 1.000000 4.620000 0.750000
v 1.000000 4.800000 0.750000
v 1.000000 4.800000 -0.750000
v 1.000000 4.620000 -0.750000
v 1.000000 3.000000 -0.750000
v 1.000000 2.820000 -0.750000
v 1.000000 1.200000 -0.750000
v 1.000000 1.020000 -0.750000
v 0.750000 1.020000 -1.000000
v 0.750000 1.200000 -1.000000
v 0.750000 2.820000 -1.000000
v 0.750000 3.000000 -1.000000
v 0.750000 4.620000 -1.000000
v 0.750000 4.800000 -1.000000
v -0.750000 4.800000 -1.000000
v -0.750000 4.620000 -1.000000
v -0.750000 3.000000 -1.000000
v -0.750000 2.820000 -1.000000
v -0.750000 1.200000 -1.000000
v -0.750000 1.020000 -1.000000
v -1.000000 1.020000 -0.750000
v -1.000000 1.200000 -0.750000
v -1.000000 2.820000 -0.750000
v -1.000000 3.000000 -0.750000
v -1.000000 4.620000 -0.750000
v -1.000000 4.800000 -0.750000
v -0.750000 1.020000 1.000000
v -0.750000 1.200000 1.000000
v -0.750000 2.820000 1.000000
v -0.750000 3.000000 1.000000
v -0.750000 4.620000 1.000000
v -0.750000 4.800000 1.000000
v -1.000000 4.800000 0.750000
v -1.000000 4.620000 0.750000
v -1.000000 3.000000 0.750000
v -1.000000 2.820000 0.750000
v -1.000000 1.200000 0.750000
v -1.000000 1.020000 0.750000
v 0.675000 4.791000 0.900000
v 0.675000 4.629000 0.900000
v 0.900000 4.629000 0.675000
v 0.900000 4.791000 0.675000
v 0.900000 4.791000 -0.675000
v 0.900000 4.629000 -0.675000
v 0.675000 4.629000 -0.900000
v 0.675000 4.791000 -0.900000
v -0.675000 4.791000 -0.900000
v -0.675000 4.629000 -0.900000
v -0.900000 4.629000 -0.675000
v -0.900000 4.791000 -0.675000
v -0.675000 4.629000 0.900000
v -0.675000 4.791000 0.900000
v -0.900000 4.791000 0.675000
v -0.900000 4.629000 0.675000
v 0.675000 2.991000 0.900000
v 0.675000 2.829000 0.900000
v 0.900000 2.829000 0.675000
v 0.900000 2.991000 0.675000
v 0.900000 2.991000 -0.675000
v 0.900000 2.829000 -0.675000
v 0.675000 2.829000 -0.900000
v 0.675000 2.991000 -0.900000
v -0.675000 2.991000 -0.900000
v -0.675000 2.829000 -0.900000
v -0.900000 2.829000 -0.675000
v -0.900000 2.991000 -0.675000
v -0.675000 2.829000 0.900000
v -0.675000 2.991000 0.900000
v -0.900000 2.991000 0.675000
v -0.900000 2.829000 0.675000
v 0.675000 1.191000 0.900000
v 0.675000 1.029000 0.900000
v 0.900000 1.029000 0.675000
v 0.900000 1.191000 0.675000
v 0.900000 1.191000 -0.675000
v 0.900000 1.029000 -0.675000
v 0.675000 1.029000 -0.900000
v 0.675000 1.191000 -0.900000
v -0.675000 1.191000 -0.900000
v -0.675000 1.029000 -0.900000
v -0.900000 1.029000 -0.675000
v -0.900000 1.191000 -0.675000
v -0.675000 1.029000 0.900000
v -0.675000 1.191000 0.900000
v -0.900000 1.191000 0.675000
v -0.900000 1.029000 0.675000
v 0.618722 6.000000 0.824962
v 0.618722 6.000000 -0.824962
v -0.618722 6.000000 -0.824962
v -0.618722 6.000000 0.824962
v 0.824962 6.000000 0.618722
v 0.824962 6.000000 -0.618722
v -0.824962 6.000000 -0.618722
v -0.824962 6.000000 0.618722
v 0.618722 6.197849 0.824962
v 0.618722 6.197849 -0.824962
v -0.618722 6.197849 -0.824962
v -0.618722 6.197849 0.824962
v 0.824962 6.101726 0.618722
v 0.824962 6.101726 -0.618722
v -0.824962 6.101726 -0.618722
v -0.824962 6.101726 0.618722
vn 1.0000 -0.0000 -0.0000
vn -0.0000 -0.0000 1.0000
vn -1.0000 -0.0000 -0.0000
vn -0.0000 1.0000 -0.0000
vn 0.7071 -0.0000 0.7071
vn 0.7071 -0.0000 -0.7071
vn -0.7071 -0.0000 -0.7071
vn -0.7071 -0.0000 0.7071
vn -0.0896 -0.9960 -0.0000
vn -0.0513 -0.9974 0.0513
vn 0.0513 -0.9974 -0.0513
vn -0.0896 0.9960 -0.0000
vn 0.0513 0.9974 0.0513
vn -0.0513 0.9974 0.0513
vn -0.0000 -0.9960 0.0896
vn -0.0000 -0.0000 -1.0000
vn -0.0513 0.9974 -0.0513
vn -0.0000 0.9960 0.0896
vn 0.0513 -0.9974 0.0513
vn -0.0513 -0.9974 -0.0513
vn 0.0513 0.9974 -0.0513
vn 0.0896 0.9960 -0.0000
vn -0.0000 0.9960 -0.0896
vn 0.0896 -0.9960 -0.0000
vn -0.0000 -0.9960 -0.0896
vn 0.4224 0.9064 -0.0000
vn -0.4224 0.9064 -0.0000
vt 0.499755 0.619436
vt 0.499755 0.977834
vt 0.310389 0.977834
vt 0.310389 0.619436
vt 0.266067 0.619436
vt 0.266067 0.977834
vt 0.078569 0.977834
vt 0.078569 0.619436
vt 0.089898 0.422873
vt 0.048251 0.381226
vt 0.077410 0.359356
vt 0.111768 0.393714
vt 0.965263 0.619436
vt 0.965263 0.977834
vt 0.775897 0.977834
vt 0.775897 0.619436
vt 0.034247 0.977834
vt 0.034247 0.619436
vt 0.089898 0.089693
vt 0.339784 0.089693
vt 0.317914 0.118852
vt 0.111768 0.118852
vt 0.381431 0.381226
vt 0.339784 0.422873
vt 0.317914 0.393714
vt 0.352272 0.359356
vt 0.544077 0.977834
vt 0.544077 0.619436
vt 0.731575 0.619436
vt 0.731575 0.977834
vt 0.048251 0.131340
vt 0.077410 0.153210
vt 0.381431 0.131340
vt 0.352272 0.153210
vt 0.686563 0.315625
vt 0.671546 0.306864
vt 0.671044 0.196965
vt 0.686563 0.190315
vt 0.534984 0.159099
vt 0.541096 0.174843
vt 0.522160 0.192580
vt 0.507356 0.183670
vt 0.544073 0.316305
vt 0.535814 0.330921
vt 0.509389 0.306475
vt 0.524243 0.299433
vt 0.659337 0.340901
vt 0.653403 0.325093
vt 0.652140 0.178086
vt 0.661118 0.163170
vt 0.327038 0.191473
vt 0.327038 0.326021
vt 0.307834 0.326021
vt 0.307834 0.191473
vt 0.327038 0.357826
vt 0.307834 0.357826
vt 0.105942 0.191473
vt 0.105942 0.159668
vt 0.125145 0.159668
vt 0.125145 0.191473
vt 0.125145 0.357826
vt 0.125145 0.326021
vt 0.307834 0.159668
vt 0.105942 0.326021
vt 0.327038 0.159668
vt 0.105942 0.357826
vt 0.125145 0.145384
vt 0.307834 0.145384
vt 0.307834 0.372110
vt 0.125145 0.372110
s 0
f 31/1/1 30/2/1 27/3/1 26/4/1
f 17/1/2 5/2/2 14/3/2 58/4/2
f 59/5/3 13/6/3 10/7/3 52/8/3
f 1/9/4 2/10/4 114/11/4 118/12/4
f 22/1/5 8/2/5 7/3/5 23/4/5
f 34/5/6 4/6/6 3/7/6 35/8/6
f 46/13/7 12/14/7 11/15/7 47/16/7
f 9/17/7 41/18/7 52/8/7 10/7/7
f 58/4/8 14/3/8 13/6/8 59/5/8
f 10/19/4 13/20/4 120/21/4 119/22/4
f 5/23/4 6/24/4 117/25/4 113/26/4
f 4/6/1 34/5/1 23/4/1 7/3/1
f 63/9/9 48/10/9 108/11/9 111/12/9
f 54/4/8 55/3/8 62/6/8 63/5/8
f 56/9/10 61/10/10 95/11/10 94/12/10
f 56/8/8 57/7/8 60/17/8 61/18/8
f 40/9/11 29/10/11 69/11/11 72/12/11
f 15/27/8 53/28/8 64/29/8 16/30/8
f 36/19/11 33/20/11 101/21/11 104/22/11
f 44/17/7 45/18/7 48/8/7 49/7/7
f 49/9/12 62/10/12 96/11/12 91/12/12
f 42/30/7 43/29/7 50/16/7 51/15/7
f 51/9/12 60/10/12 80/11/12 75/12/12
f 1/30/6 29/29/6 40/16/6 2/15/6
f 18/19/13 27/20/13 67/21/13 66/22/13
f 30/2/6 31/1/6 38/28/6 39/27/6
f 62/10/14 55/31/14 93/32/14 96/11/14
f 32/30/6 33/29/6 36/16/6 37/15/6
f 54/24/10 63/9/10 111/12/10 110/25/10
f 5/2/5 17/1/5 28/28/5 6/27/5
f 60/10/14 57/31/14 77/32/14 80/11/14
f 18/6/5 19/5/5 26/4/5 27/3/5
f 19/24/15 56/9/15 94/12/15 81/25/15
f 20/2/5 21/1/5 24/28/5 25/27/5
f 22/9/13 23/10/13 99/11/13 98/12/13
f 41/13/16 9/14/16 2/15/16 40/16/16
f 17/19/15 58/20/15 78/21/15 65/22/15
f 43/29/16 42/30/16 39/27/16 38/28/16
f 44/24/17 49/9/17 91/12/17 90/25/17
f 45/13/16 44/14/16 37/15/16 36/16/16
f 47/33/12 64/23/12 112/26/12 107/34/12
f 12/17/16 46/18/16 35/8/16 3/7/16
f 64/23/14 53/24/14 109/25/14 112/26/14
f 63/5/3 62/6/3 49/7/3 48/8/3
f 55/31/18 20/19/18 82/22/18 93/32/18
f 61/13/3 60/14/3 51/15/3 50/16/3
f 28/31/19 17/19/19 65/22/19 68/32/19
f 16/30/3 64/29/3 47/16/3 11/15/3
f 21/23/15 54/24/15 110/25/15 97/26/15
f 21/1/2 20/2/2 55/3/2 54/4/2
f 50/31/20 43/19/20 89/22/20 92/32/20
f 19/5/2 18/6/2 57/7/2 56/8/2
f 57/31/18 18/19/18 66/22/18 77/32/18
f 8/2/2 22/1/2 53/28/2 15/27/2
f 24/33/19 21/23/19 97/26/19 100/34/19
f 32/33/21 37/23/21 87/26/21 86/34/21
f 33/29/1 32/30/1 25/27/1 24/28/1
f 42/24/17 51/9/17 75/12/17 74/25/17
f 29/29/1 1/30/1 6/27/1 28/28/1
f 70/35/1 69/36/1 68/37/1 67/38/1
f 77/39/8 78/40/8 79/41/8 80/42/8
f 73/43/7 74/44/7 75/45/7 76/46/7
f 69/36/6 70/35/6 71/47/6 72/48/6
f 65/49/5 66/50/5 67/38/5 68/37/5
f 74/44/16 73/43/16 72/48/16 71/47/16
f 80/42/3 79/41/3 76/46/3 75/45/3
f 66/50/2 65/49/2 78/40/2 77/39/2
f 58/20/10 59/33/10 79/34/10 78/21/10
f 59/33/9 52/23/9 76/26/9 79/34/9
f 27/20/22 30/33/22 70/34/22 67/21/22
f 30/33/21 39/23/21 71/26/21 70/34/21
f 39/23/23 42/24/23 74/25/23 71/26/23
f 52/23/20 41/24/20 73/25/20 76/26/20
f 29/10/24 28/31/24 68/32/24 69/11/24
f 41/24/25 40/9/25 72/12/25 73/25/25
f 86/35/1 85/36/1 84/37/1 83/38/1
f 93/39/8 94/40/8 95/41/8 96/42/8
f 89/43/7 90/44/7 91/45/7 92/46/7
f 85/36/6 86/35/6 87/47/6 88/48/6
f 81/49/5 82/50/5 83/38/5 84/37/5
f 90/44/16 89/43/16 88/48/16 87/47/16
f 96/42/3 95/41/3 92/46/3 91/45/3
f 82/50/2 81/49/2 94/40/2 93/39/2
f 61/10/9 50/31/9 92/32/9 95/11/9
f 25/20/22 32/33/22 86/34/22 83/21/22
f 37/23/23 44/24/23 90/25/23 87/26/23
f 31/33/24 26/23/24 84/26/24 85/34/24
f 43/19/25 38/20/25 88/21/25 89/22/25
f 26/23/19 19/24/19 81/25/19 84/26/19
f 20/19/13 25/20/13 83/21/13 82/22/13
f 38/20/11 31/33/11 85/34/11 88/21/11
f 102/35/1 101/36/1 100/37/1 99/38/1
f 109/39/8 110/40/8 111/41/8 112/42/8
f 105/43/7 106/44/7 107/45/7 108/46/7
f 101/36/6 102/35/6 103/47/6 104/48/6
f 97/49/5 98/50/5 99/38/5 100/37/5
f 106/44/16 105/43/16 104/48/16 103/47/16
f 112/42/3 111/41/3 108/46/3 107/45/3
f 98/50/2 97/49/2 110/40/2 109/39/2
f 23/10/22 34/31/22 102/32/22 99/11/22
f 35/19/23 46/20/23 106/21/23 103/22/23
f 34/31/21 35/19/21 103/22/21 102/32/21
f 33/20/24 24/33/24 100/34/24 101/21/24
f 48/10/20 45/31/20 105/32/20 108/11/20
f 45/31/25 36/19/25 104/22/25 105/32/25
f 46/20/17 47/33/17 107/34/17 106/21/17
f 53/24/18 22/9/18 98/12/18 109/25/18
f 116/51/2 113/52/2 121/53/2 124/54/2
f 113/52/5 117/55/5 125/56/5 121/53/5
f 115/57/7 119/58/7 127/59/7 123/60/7
f 13/20/4 14/33/4 116/34/4 120/21/4
f 14/33/4 5/23/4 113/26/4 116/34/4
f 9/31/4 10/19/4 119/22/4 115/32/4
f 2/10/4 9/31/4 115/32/4 114/11/4
f 6/24/4 1/9/4 118/12/4 117/25/4
f 126/61/26 122/62/26 121/53/26 125/56/26
f 121/53/4 122/62/4 123/60/4 124/54/4
f 124/54/27 123/60/27 127/59/27 128/63/27
f 114/64/16 115/57/16 123/60/16 122/62/16
f 120/65/8 116/51/8 124/54/8 128/63/8
f 118/66/6 114/64/6 122/62/6 126/61/6
f 119/67/3 120/68/3 128/63/3 127/59/3
f 117/69/1 118/70/1 126/61/1 125/56/1
