# Blender 4.4.3
# www.blender.org
o SM_SmallStore_Buildings_V1.0
v 1.000000 3.000000 -1.000000
v 1.000000 0.000000 -1.000000
v 1.000000 3.000000 1.000000
v 1.000000 0.000000 1.000000
v -1.000000 3.000000 -1.000000
v -1.000000 0.000000 -1.000000
v -1.000000 3.000000 1.000000
v -1.000000 0.000000 1.000000
v 1.000000 1.012188 1.000000
v -1.000000 1.217483 1.000000
v -1.000000 1.012188 1.000000
v 1.000000 1.217483 1.000000
v 0.666667 1.217483 1.200000
v -0.666667 1.217483 1.200000
v 0.666667 1.012188 1.000000
v -0.666667 1.012188 1.000000
v 0.666667 1.012188 1.200000
v -0.666667 1.012188 1.200000
v 0.666667 1.217483 1.000000
v -0.666667 1.217483 1.000000
v -0.633333 0.000000 1.000000
v 0.633333 0.000000 1.000000
v 0.666667 1.012188 0.900000
v -0.666667 1.012188 0.900000
v -0.633333 0.000000 0.900000
v 0.633333 0.000000 0.900000
v 0.666667 3.000000 1.000000
v -0.666667 3.000000 1.000000
v 0.000000 1.217483 1.000000
v 0.000000 3.000000 1.000000
v -0.666667 2.108741 1.000000
v 0.666667 2.108741 1.000000
v 0.000000 2.108741 1.000000
v -0.066667 2.910874 1.000000
v -0.600000 2.910874 1.000000
v -0.600000 2.197867 1.000000
v -0.066667 2.197867 1.000000
v 0.600000 2.910874 1.000000
v 0.066667 2.910874 1.000000
v 0.600000 2.197867 1.000000
v 0.066667 2.197867 1.000000
v 0.600000 2.019615 1.000000
v 0.600000 1.306609 1.000000
v 0.066667 1.306609 1.000000
v 0.066667 2.019615 1.000000
v -0.066667 1.306609 1.000000
v -0.600000 1.306609 1.000000
v -0.600000 2.019615 1.000000
v -0.066667 2.019615 1.000000
v -0.093333 2.875224 1.030000
v -0.573333 2.875224 1.030000
v -0.573333 2.233517 1.030000
v -0.093333 2.233517 1.030000
v 0.573333 2.875224 1.030000
v 0.093333 2.875224 1.030000
v 0.573333 2.233517 1.030000
v 0.093333 2.233517 1.030000
v 0.568000 1.976835 1.030000
v 0.568000 1.349389 1.030000
v 0.098667 1.349389 1.030000
v 0.098667 1.976835 1.030000
v -0.093333 1.342259 1.030000
v -0.573333 1.342259 1.030000
v -0.573333 1.983965 1.030000
v -0.093333 1.983965 1.030000
vn -0.0000 -1.0000 -0.0000
vn -1.0000 -0.0000 -0.0000
vn -0.0000 1.0000 -0.0000
vn 1.0000 -0.0000 -0.0000
vn -0.5145 -0.0000 0.8575
vn 0.5145 -0.0000 0.8575
vn -0.0000 -0.0000 1.0000
vn -0.0000 -0.0000 -1.0000
vn -0.9995 0.0329 -0.0000
vn 0.9995 0.0329 -0.0000
vn 0.6839 -0.0000 0.7295
vn -0.7474 -0.0000 0.6644
vn -0.0000 0.6439 0.7651
vn 0.7474 -0.0000 0.6644
vn -0.0000 -0.6439 0.7651
vn -0.0000 -0.5742 0.8187
vn -0.0000 0.5742 0.8187
vn -0.6839 -0.0000 0.7295
vt 0.219444 0.367360
vt 0.219444 0.288881
vt 0.172528 0.367360
vt 0.118240 0.778192
vt 0.225853 0.778192
vt 0.247679 0.778192
vt 0.437191 0.778192
vt 0.437191 0.990827
vt 0.118240 0.990827
vt 0.219445 0.681274
vt 0.219445 0.759752
vt 0.172357 0.681274
vt 0.413183 0.684467
vt 0.538183 0.684467
vt 0.538183 0.754767
vt 0.413183 0.754767
vt 0.413183 0.543867
vt 0.538183 0.543867
vt 0.538183 0.614167
vt 0.413183 0.614167
vt 0.771357 0.949315
vt 0.771357 0.342486
vt 0.988590 0.342486
vt 0.988590 0.949315
vt 0.219444 0.288881
vt 0.219444 0.367360
vt 0.172357 0.367360
vt 0.219445 0.524317
vt 0.756142 0.778193
vt 0.756142 0.990827
vt 0.437191 0.990827
vt 0.437191 0.778192
vt 0.219444 0.759752
vt 0.219444 0.681274
vt 0.172528 0.681274
vt 0.331989 0.760352
vt 0.247121 0.760352
vt 0.247121 0.533436
vt 0.247121 0.306519
vt 0.331989 0.306519
vt 0.453437 0.013086
vt 0.731978 0.013086
vt 0.731978 0.291627
vt 0.639131 0.291627
vt 0.592708 0.291627
vt 0.546284 0.291627
vt 0.453437 0.291627
vt 0.998551 0.320424
vt 0.750677 0.320424
vt 0.750677 0.007155
vt 0.998551 0.007155
vt 0.099206 0.121517
vt 0.099206 0.382591
vt 0.073427 0.382591
vt 0.073427 0.121517
vt 0.099206 0.722936
vt 0.073427 0.722936
vt 0.099206 0.984010
vt 0.073427 0.984010
vt 0.354543 0.302426
vt 0.516864 0.302426
vt 0.500632 0.324127
vt 0.370775 0.324127
vt 0.354543 0.519432
vt 0.370775 0.497731
vt 0.435703 0.519432
vt 0.354543 0.085420
vt 0.435703 0.085420
vt 0.679186 0.302426
vt 0.662953 0.324127
vt 0.533096 0.324127
vt 0.516864 0.519432
vt 0.533096 0.497731
vt 0.737290 0.543382
vt 0.736455 0.751016
vt 0.724004 0.736103
vt 0.724126 0.559140
vt 0.500632 0.497731
vt 0.679186 0.519432
vt 0.662953 0.497731
vt 0.578209 0.543820
vt 0.591200 0.558889
vt 0.590793 0.735956
vt 0.578209 0.751559
s 0
f 15/1/1 9/2/1 17/3/1
f 8/4/2 11/5/2 10/6/2 7/7/2 5/8/2 6/9/2
f 20/10/3 10/11/3 14/12/3
f 2/4/4 1/5/4 3/6/4 12/7/4 9/8/4 4/9/4
f 18/13/5 14/14/5 10/15/5 11/16/5
f 9/17/6 12/18/6 13/19/6 17/20/6
f 17/20/7 13/19/7 14/14/7 18/13/7
f 15/21/7 22/22/7 4/23/7 9/24/7
f 12/25/3 19/26/3 13/27/3
f 19/26/3 29/28/3 20/10/3 14/12/3 13/27/3
f 5/29/8 1/30/8 2/31/8 6/32/8
f 11/33/1 16/34/1 18/35/1
f 16/34/1 15/1/1 17/3/1 18/35/1
f 3/36/7 27/37/7 32/38/7 19/39/7 12/40/7
f 1/41/3 5/42/3 7/43/3 28/44/3 30/45/3 27/46/3 3/47/3
f 26/48/7 23/49/7 24/50/7 25/51/7
f 21/21/7 16/22/7 11/23/7 8/24/7
f 22/52/9 15/53/9 23/54/9 26/55/9
f 15/53/1 16/56/1 24/57/1 23/54/1
f 16/56/10 21/58/10 25/59/10 24/57/10
f 20/60/7 29/61/7 46/62/7 47/63/7
f 28/60/7 31/64/7 36/65/7 35/63/7
f 20/66/7 31/64/7 28/60/7 7/67/7 10/68/7
f 29/61/7 19/69/7 43/70/7 44/71/7
f 30/61/7 33/72/7 41/73/7 39/71/7
f 43/74/11 42/75/11 58/76/11 59/77/11
f 33/72/7 30/61/7 34/62/7 37/78/7
f 30/61/7 28/60/7 35/63/7 34/62/7
f 31/64/7 33/72/7 37/78/7 36/65/7
f 35/74/12 36/75/12 52/76/12 51/77/12
f 33/72/7 32/79/7 40/80/7 41/73/7
f 32/79/7 27/69/7 38/70/7 40/80/7
f 27/69/7 30/61/7 39/71/7 38/70/7
f 38/74/13 39/75/13 55/76/13 54/77/13
f 32/79/7 33/72/7 45/73/7 42/80/7
f 19/69/7 32/79/7 42/80/7 43/70/7
f 33/72/7 29/61/7 44/71/7 45/73/7
f 34/81/13 35/74/13 51/77/13 50/82/13
f 31/64/7 20/60/7 47/63/7 48/65/7
f 29/61/7 33/72/7 49/78/7 46/62/7
f 33/72/7 31/64/7 48/65/7 49/78/7
f 53/83/7 50/82/7 51/77/7 52/76/7
f 56/82/7 54/77/7 55/76/7 57/83/7
f 59/77/7 58/76/7 61/83/7 60/82/7
f 62/74/7 65/75/7 64/76/7 63/77/7
f 40/81/14 38/74/14 54/77/14 56/82/14
f 47/82/15 46/81/15 62/74/15 63/77/15
f 36/75/15 37/84/15 53/83/15 52/76/15
f 44/81/16 43/74/16 59/77/16 60/82/16
f 41/84/15 40/81/15 56/82/15 57/83/15
f 48/83/12 47/82/12 63/77/12 64/76/12
f 37/84/14 34/81/14 50/82/14 53/83/14
f 42/75/17 45/84/17 61/83/17 58/76/17
f 39/75/12 41/84/12 57/83/12 55/76/12
f 49/84/13 48/83/13 64/76/13 65/75/13
f 45/84/18 44/81/18 60/82/18 61/83/18
f 46/81/14 49/84/14 65/75/14 62/74/14
