# Blender 4.4.3
# www.blender.org
o SM_Purple_Phonebooth_V1.0
v -0.500000 0.000000 0.500000
v -0.500000 1.000000 0.500000
v 0.500000 0.000000 0.500000
v 0.500000 1.000000 0.500000
v 0.420257 0.079743 0.502794
v 0.420257 0.920257 0.502794
v -0.420257 0.920257 0.502794
v -0.420257 0.079743 0.502794
v 0.419721 1.000000 0.400081
v 0.419988 1.000000 0.500000
v -0.420257 0.079743 0.402235
v 0.500000 1.000000 0.400000
v 0.500000 0.000000 0.400000
v 0.420257 0.079743 0.402235
v 0.420257 0.920257 0.402235
v -0.420257 0.920257 0.402235
v 0.420257 0.920257 0.452515
v 0.420257 0.079743 0.452515
v -0.420257 0.079743 0.452515
v -0.420257 0.920257 0.452515
v -0.599736 0.000000 0.401004
v -0.599736 1.000000 0.401004
v -0.602530 0.079743 0.321262
v -0.602530 0.920257 0.321262
v -0.499736 1.000000 0.401004
v -0.499736 0.000000 0.401004
v -0.501971 0.079743 0.321262
v -0.501971 0.920257 0.321262
v -0.552251 0.920257 0.321262
v -0.552251 0.079743 0.321262
v -0.599868 0.000000 0.500502
v -0.599868 1.000000 0.500502
v 0.500000 2.200000 0.500000
v 0.500000 2.200000 0.400000
v -0.599736 2.200000 0.401004
v -0.499736 2.200000 0.401004
v 0.419988 2.200000 0.500000
v 0.419721 2.200000 0.400081
v -0.599868 2.200000 0.500502
v -0.500000 2.200000 0.500000
v -0.499736 2.500000 0.401004
v -0.500000 2.500000 0.500000
v 0.500000 2.500000 0.400000
v 0.419721 2.500000 0.400081
v -0.599868 2.500000 0.500502
v -0.599736 2.500000 0.401004
v 0.419988 2.500000 0.500000
v 0.500000 2.500000 0.500000
v -0.500000 0.000000 -0.500000
v -0.500000 1.000000 -0.500000
v 0.500000 0.000000 -0.500000
v 0.500000 1.000000 -0.500000
v 0.420257 0.079743 -0.502794
v 0.420257 0.920257 -0.502794
v -0.420257 0.920257 -0.502794
v -0.420257 0.079743 -0.502794
v 0.419721 1.000000 -0.400081
v 0.419988 1.000000 -0.500000
v -0.420257 0.079743 -0.402235
v 0.500000 1.000000 -0.400000
v 0.500000 0.000000 -0.400000
v 0.420257 0.079743 -0.402235
v 0.420257 0.920257 -0.402235
v -0.420257 0.920257 -0.402235
v 0.420257 0.920257 -0.452515
v 0.420257 0.079743 -0.452515
v -0.420257 0.079743 -0.452515
v -0.420257 0.920257 -0.452515
v -0.599736 0.000000 -0.401004
v -0.599736 1.000000 -0.401004
v -0.602530 0.079743 -0.321262
v -0.602530 0.920257 -0.321262
v -0.499736 1.000000 -0.401004
v -0.499736 0.000000 -0.401004
v -0.501971 0.079743 -0.321262
v -0.501971 0.920257 -0.321262
v -0.552251 0.920257 -0.321262
v -0.552251 0.079743 -0.321262
v -0.599868 0.000000 -0.500502
v -0.599868 1.000000 -0.500502
v 0.500000 2.200000 -0.500000
v 0.500000 2.200000 -0.400000
v -0.599736 2.200000 -0.401004
v -0.499736 2.200000 -0.401004
v 0.419988 2.200000 -0.500000
v 0.419721 2.200000 -0.400081
v -0.599868 2.200000 -0.500502
v -0.500000 2.200000 -0.500000
v -0.499736 2.500000 -0.401004
v -0.500000 2.500000 -0.500000
v 0.500000 2.500000 -0.400000
v 0.419721 2.500000 -0.400081
v -0.599868 2.500000 -0.500502
v -0.599736 2.500000 -0.401004
v 0.419988 2.500000 -0.500000
v 0.500000 2.500000 -0.500000
v -0.525274 1.148678 -0.294683
v -0.525274 1.333361 -0.294683
v -0.562913 1.148678 -0.332322
v -0.562913 1.333361 -0.332322
v -0.394683 1.148678 -0.425274
v -0.394683 1.333361 -0.425274
v -0.432322 1.148678 -0.462913
v -0.432322 1.333361 -0.462913
v -0.517503 1.328455 -0.216202
v -0.517503 1.763138 -0.216202
v -0.598268 1.328455 -0.296967
v -0.598268 1.763138 -0.296967
v -0.316202 1.328455 -0.417503
v -0.316202 1.763138 -0.417503
v -0.396967 1.328455 -0.498268
v -0.396967 1.763138 -0.498268
v -0.400682 1.424494 -0.264648
v -0.400682 1.661924 -0.264648
v -0.364648 1.424494 -0.300682
v -0.364648 1.661924 -0.300682
v -0.446033 1.424494 -0.309999
v -0.446033 1.661924 -0.309999
v -0.409999 1.661924 -0.346033
v -0.409999 1.424494 -0.346033
v -0.385205 1.543209 -0.249171
v -0.349171 1.543209 -0.285205
v -0.446033 1.543209 -0.309999
v -0.409999 1.543209 -0.346033
v 0.420257 0.920257 0.452515
v 0.420257 0.079743 0.452515
v -0.420257 0.079743 0.452515
v -0.420257 0.920257 0.452515
v -0.552251 0.920257 0.321262
v -0.552251 0.079743 0.321262
v 0.420257 0.920257 -0.452515
v 0.420257 0.079743 -0.452515
v -0.420257 0.079743 -0.452515
v -0.420257 0.920257 -0.452515
v -0.552251 0.920257 -0.321262
v -0.552251 0.079743 -0.321262
vn 1.0000 -0.0000 -0.0000
vn -1.0000 -0.0000 -0.0000
vn -0.0000 1.0000 -0.0000
vn -0.0280 -0.0000 -0.9996
vn -0.0010 -0.0270 -0.9996
vn 0.0155 -0.0000 -0.9999
vn -0.0005 0.0217 -0.9998
vn -1.0000 -0.0000 -0.0027
vn -0.0000 -1.0000 -0.0000
vn 0.0050 -0.0000 1.0000
vn -0.0000 0.0350 0.9994
vn 0.0350 -0.0000 0.9994
vn -0.0000 -0.0350 0.9994
vn -0.0350 -0.0000 0.9994
vn -0.0000 -0.0000 1.0000
vn -0.0000 -0.0000 -1.0000
vn 0.9996 -0.0000 -0.0280
vn -0.9994 -0.0350 -0.0000
vn -0.9994 -0.0000 0.0350
vn -1.0000 -0.0000 -0.0013
vn -0.0010 -0.0000 -1.0000
vn -0.0005 -0.0215 -0.9998
vn 1.0000 -0.0000 0.0027
vn -1.0000 -0.0000 0.0027
vn 0.0010 -0.0000 1.0000
vn 0.9996 -0.0280 -0.0000
vn -0.9994 0.0350 -0.0000
vn 0.9996 0.0280 -0.0000
vn -0.0280 -0.0000 0.9996
vn -0.0010 -0.0270 0.9996
vn 0.0155 -0.0000 0.9999
vn -0.0005 0.0217 0.9998
vn 0.0050 -0.0000 -1.0000
vn -0.0000 0.0350 -0.9994
vn 0.0350 -0.0000 -0.9994
vn -0.0000 -0.0350 -0.9994
vn -0.0350 -0.0000 -0.9994
vn 0.9996 -0.0000 0.0280
vn -0.9994 -0.0000 -0.0350
vn -1.0000 -0.0000 0.0013
vn -0.0010 -0.0000 1.0000
vn -0.0005 -0.0215 0.9998
vn 1.0000 -0.0000 -0.0027
vn 0.0010 -0.0000 -1.0000
vn -0.7071 -0.0000 0.7071
vn -0.7071 -0.0000 -0.7071
vn 0.7071 -0.0000 -0.7071
vn 0.7071 -0.0000 0.7071
vn 0.6954 0.1813 0.6954
vn 0.6954 -0.1813 0.6954
vt 0.480773 0.904700
vt 0.473000 0.904700
vt 0.473000 0.939781
vt 0.480773 0.939781
vt 0.477082 0.936984
vt 0.473174 0.936984
vt 0.473174 0.907497
vt 0.477082 0.907497
vt 0.473007 0.939781
vt 0.473078 0.939781
vt 0.473078 0.904700
vt 0.480812 0.939781
vt 0.480773 0.981879
vt 0.480812 0.981879
vt 0.480990 0.936984
vt 0.480990 0.907497
vt 0.280073 0.974800
vt 0.211953 0.974800
vt 0.211953 0.906679
vt 0.280073 0.906679
vt 0.466880 0.936984
vt 0.466880 0.907497
vt 0.410740 0.904700
vt 0.416938 0.907497
vt 0.410740 0.939781
vt 0.480812 0.904700
vt 0.473007 0.981879
vt 0.473000 0.981879
vt 0.473078 0.981879
vt 0.480812 0.992404
vt 0.473078 0.992404
vt 0.480773 0.992404
vt 0.858096 0.416595
vt 0.858096 0.501736
vt 0.809894 0.501736
vt 0.809894 0.416595
vt 0.473000 0.992404
vt 0.473007 0.992404
vt 0.416938 0.936984
vt 0.403045 0.904700
vt 0.403045 0.939781
vt 0.410818 0.939781
vt 0.410818 0.904700
vt 0.406736 0.936984
vt 0.406736 0.907497
vt 0.410644 0.907497
vt 0.410644 0.936984
vt 0.410811 0.939781
vt 0.403006 0.939781
vt 0.403006 0.981879
vt 0.403045 0.981879
vt 0.402828 0.936984
vt 0.402828 0.907497
vt 0.403006 0.904700
vt 0.410818 0.981879
vt 0.410811 0.981879
vt 0.410740 0.981879
vt 0.410740 0.992404
vt 0.403006 0.992404
vt 0.403045 0.992404
vt 0.810244 0.416986
vt 0.857746 0.416986
vt 0.857746 0.501345
vt 0.810244 0.501345
vt 0.410811 0.992404
vt 0.410818 0.992404
vt 0.014555 0.906693
vt 0.014555 0.981489
vt 0.029798 0.981489
vt 0.029798 0.906693
vt 0.082687 0.981489
vt 0.082687 0.906693
vt 0.067443 0.981489
vt 0.067443 0.906693
vt 0.609780 0.320473
vt 0.609780 0.396561
vt 0.623917 0.396561
vt 0.623917 0.320473
vt 0.659153 0.396561
vt 0.659153 0.320473
vt 0.645016 0.396561
vt 0.645016 0.320473
vt 0.926915 0.657945
vt 0.936367 0.703757
vt 0.914360 0.703757
vt 0.904907 0.657945
vt 0.964065 0.657945
vt 0.942057 0.657945
vt 0.942057 0.703757
vt 0.964065 0.703757
vt 0.914360 0.612134
vt 0.942057 0.612134
vt 0.964065 0.612134
vt 0.936367 0.612134
s 0
f 3/1/1 13/2/1 12/3/1 4/4/1
f 17/5/2 15/6/2 14/7/2 18/8/2
f 18/8/3 14/7/3 11/7/3 19/8/3
f 13/2/4 14/7/4 15/6/4 12/3/4
f 12/3/5 15/6/5 9/9/5
f 25/10/6 16/6/6 11/7/6 26/11/6
f 26/11/7 11/7/7 14/7/7 13/2/7
f 2/4/8 25/10/8 26/11/8 1/1/8
f 1/1/9 26/11/9 13/2/9 3/1/9
f 32/12/10 2/4/10 40/13/10 39/14/10
f 19/8/1 11/7/1 16/6/1 20/5/1
f 20/5/9 16/6/9 15/6/9 17/5/9
f 2/4/11 7/15/11 6/15/11 10/4/11
f 4/4/12 6/15/12 5/16/12 3/1/12
f 3/1/13 5/16/13 8/16/13 1/1/13
f 8/16/14 7/15/14 2/4/14 1/1/14
f 7/15/9 20/5/9 17/5/9 6/15/9
f 8/16/1 19/8/1 20/5/1 7/15/1
f 5/16/3 18/8/3 19/8/3 8/16/3
f 6/15/2 17/5/2 18/8/2 5/16/2
f 17/17/15 20/18/15 19/19/15 18/20/15
f 21/11/16 22/10/16 25/10/16 26/11/16
f 29/21/16 28/21/16 27/22/16 30/22/16
f 26/11/17 27/22/17 28/21/17 25/10/17
f 21/11/9 69/23/9 74/23/9 26/11/9
f 69/23/18 21/11/18 23/22/18 71/24/18
f 22/10/19 24/21/19 23/22/19 21/11/19
f 70/25/3 22/10/3 25/10/3 73/25/3
f 24/21/16 29/21/16 30/22/16 23/22/16
f 1/1/9 31/26/9 21/11/9 26/11/9
f 31/26/20 32/12/20 22/10/20 21/11/20
f 1/1/10 2/4/10 32/12/10 31/26/10
f 12/3/21 9/9/21 38/27/21 34/28/21
f 35/29/20 39/14/20 45/30/20 46/31/20
f 10/4/11 6/15/11 4/4/11
f 10/4/3 9/9/3 25/10/3 2/4/3
f 9/9/22 15/6/22 16/6/22 25/10/22
f 37/13/15 33/13/15 48/32/15 47/32/15
f 2/4/23 25/10/23 36/29/23 40/13/23
f 25/10/16 22/10/16 35/29/16 36/29/16
f 22/10/20 32/12/20 39/14/20 35/29/20
f 9/9/24 10/4/24 37/13/24 38/27/24
f 10/4/15 4/4/15 33/13/15 37/13/15
f 4/4/1 12/3/1 34/28/1 33/13/1
f 37/33/15 47/34/15 42/35/15 40/36/15
f 48/32/3 43/37/3 44/38/3 47/32/3
f 42/32/3 41/31/3 46/31/3 45/30/3
f 44/38/3 41/31/3 42/32/3 47/32/3
f 33/13/1 34/28/1 43/37/1 48/32/1
f 34/28/25 43/37/25 44/38/25 38/27/25
f 39/14/10 40/13/10 42/32/10 45/30/10
f 36/29/16 35/29/16 46/31/16 41/31/16
f 36/29/21 41/31/21 44/38/21 38/27/21
f 73/25/26 25/10/26 28/21/26 76/39/26
f 71/24/3 23/22/3 30/22/3 78/24/3
f 24/21/9 72/39/9 77/39/9 29/21/9
f 22/10/27 70/25/27 72/39/27 24/21/27
f 26/11/28 74/23/28 75/24/28 27/22/28
f 51/40/1 52/41/1 60/42/1 61/43/1
f 65/44/2 66/45/2 62/46/2 63/47/2
f 66/45/3 67/45/3 59/46/3 62/46/3
f 61/43/29 60/42/29 63/47/29 62/46/29
f 60/42/30 57/48/30 63/47/30
f 73/25/31 74/23/31 59/46/31 64/47/31
f 74/23/32 61/43/32 62/46/32 59/46/32
f 50/41/24 49/40/24 74/23/24 73/25/24
f 49/40/9 51/40/9 61/43/9 74/23/9
f 80/49/33 87/50/33 88/51/33 50/41/33
f 67/45/1 68/44/1 64/47/1 59/46/1
f 68/44/9 65/44/9 63/47/9 64/47/9
f 50/41/34 58/41/34 54/52/34 55/52/34
f 52/41/35 51/40/35 53/53/35 54/52/35
f 51/40/36 49/40/36 56/53/36 53/53/36
f 56/53/37 49/40/37 50/41/37 55/52/37
f 55/52/9 54/52/9 65/44/9 68/44/9
f 56/53/1 55/52/1 68/44/1 67/45/1
f 53/53/3 56/53/3 67/45/3 66/45/3
f 54/52/2 53/53/2 66/45/2 65/44/2
f 65/18/16 66/19/16 67/20/16 68/17/16
f 69/23/15 74/23/15 73/25/15 70/25/15
f 77/39/15 78/24/15 75/24/15 76/39/15
f 74/23/38 73/25/38 76/39/38 75/24/38
f 70/25/39 69/23/39 71/24/39 72/39/39
f 72/39/15 71/24/15 78/24/15 77/39/15
f 49/40/9 74/23/9 69/23/9 79/54/9
f 79/54/40 69/23/40 70/25/40 80/49/40
f 49/40/33 79/54/33 80/49/33 50/41/33
f 60/42/41 82/55/41 86/56/41 57/48/41
f 83/57/40 94/58/40 93/59/40 87/50/40
f 58/41/34 52/41/34 54/52/34
f 58/41/3 50/41/3 73/25/3 57/48/3
f 57/48/42 73/25/42 64/47/42 63/47/42
f 85/51/16 95/60/16 96/60/16 81/51/16
f 50/41/43 88/51/43 84/57/43 73/25/43
f 73/25/15 84/57/15 83/57/15 70/25/15
f 70/25/40 83/57/40 87/50/40 80/49/40
f 57/48/8 86/56/8 85/51/8 58/41/8
f 58/41/16 85/51/16 81/51/16 52/41/16
f 52/41/1 81/51/1 82/55/1 60/42/1
f 85/61/16 88/62/16 90/63/16 95/64/16
f 96/60/3 95/60/3 92/65/3 91/66/3
f 90/60/3 93/59/3 94/58/3 89/58/3
f 92/65/3 95/60/3 90/60/3 89/58/3
f 81/51/1 96/60/1 91/66/1 82/55/1
f 82/55/44 86/56/44 92/65/44 91/66/44
f 87/50/33 93/59/33 90/60/33 88/51/33
f 84/57/15 89/58/15 94/58/15 83/57/15
f 84/57/41 86/56/41 92/65/41 89/58/41
f 83/57/9 84/57/9 36/29/9 35/29/9
f 94/35/2 83/36/2 35/33/2 46/34/2
f 46/31/3 41/31/3 89/58/3 94/58/3
f 41/31/1 36/29/1 84/57/1 89/58/1
f 44/38/2 92/65/2 86/56/2 38/27/2
f 91/66/3 92/65/3 44/38/3 43/37/3
f 34/61/1 82/62/1 91/63/1 43/64/1
f 86/56/9 82/55/9 34/28/9 38/27/9
f 36/29/9 38/27/9 37/13/9 40/13/9
f 84/57/9 88/51/9 85/51/9 86/56/9
f 41/31/3 44/38/3 92/65/3 89/58/3
f 77/18/2 78/19/2 30/20/2 29/17/2
f 97/67/45 98/68/45 100/69/45 99/70/45
f 99/70/46 100/69/46 104/71/46 103/72/46
f 103/72/47 104/71/47 102/73/47 101/74/47
f 101/74/48 102/73/48 98/68/48 97/67/48
f 99/70/9 103/72/9 101/74/9 97/67/9
f 104/71/3 100/69/3 98/68/3 102/73/3
f 105/75/45 106/76/45 108/77/45 107/78/45
f 107/78/46 108/77/46 112/79/46 111/80/46
f 111/80/47 112/79/47 110/81/47 109/82/47
f 109/82/48 110/81/48 106/76/48 105/75/48
f 107/78/9 111/80/9 109/82/9 105/75/9
f 112/79/3 108/77/3 106/76/3 110/81/3
f 122/83/49 116/84/49 114/85/49 121/86/49
f 124/87/46 123/88/46 118/89/46 119/90/46
f 116/84/3 119/90/3 118/89/3 114/85/3
f 122/83/47 124/87/47 119/90/47 116/84/47
f 113/91/9 117/92/9 120/93/9 115/94/9
f 121/86/45 123/88/45 117/92/45 113/91/45
f 114/85/45 118/89/45 123/88/45 121/86/45
f 115/94/47 120/93/47 124/87/47 122/83/47
f 120/93/46 117/92/46 123/88/46 124/87/46
f 115/94/50 122/83/50 121/86/50 113/91/50
f 78/24/3 30/22/3 27/22/3 75/24/3
f 29/21/9 77/39/9 76/39/9 28/21/9
f 125/17/16 126/20/16 127/19/16 128/18/16
f 131/18/15 134/17/15 133/20/15 132/19/15
f 135/18/1 129/17/1 130/20/1 136/19/1
