# Blender 4.4.3
# www.blender.org
o SM_CurvedRailHigh_GrindRail_V1.0
v -7.800219 0.931240 -4.950334
v -7.800219 0.968760 -4.950334
v -8.200135 0.931240 -4.950334
v -8.200135 0.968760 -4.950334
v -7.830219 0.901240 -4.970334
v -7.830219 0.931240 -5.000334
v -7.810983 0.914965 -4.977459
v -7.830219 0.968760 -5.000334
v -7.830219 0.998760 -4.970334
v -7.810983 0.985035 -4.977459
v -8.170135 0.931240 -5.000334
v -8.170135 0.901240 -4.970334
v -8.189370 0.914965 -4.977459
v -8.170135 0.998760 -4.970334
v -8.170135 0.968760 -5.000334
v -8.189370 0.985035 -4.977459
v 7.950000 0.931240 -0.199957
v 7.950000 0.968760 -0.199957
v 7.950000 0.931240 0.199959
v 7.950000 0.968760 0.199959
v 7.970000 0.901240 -0.169957
v 8.000000 0.931240 -0.169957
v 7.977125 0.914965 -0.189192
v 8.000000 0.968760 -0.169957
v 7.970000 0.998760 -0.169957
v 7.977125 0.985035 -0.189192
v 8.000000 0.931240 0.169959
v 7.970000 0.901240 0.169959
v 7.977125 0.914965 0.189195
v 7.970000 0.998760 0.169959
v 8.000000 0.968760 0.169959
v 7.977125 0.985035 0.189195
v 0.502274 0.000652 -0.070448
v 0.502274 0.948652 -0.070448
v 0.551771 0.000652 -0.049946
v 0.551771 0.948652 -0.049946
v 0.572274 0.000652 -0.000448
v 0.572274 0.948652 -0.000448
v 0.551771 0.000652 0.049049
v 0.551771 0.948652 0.049049
v 0.502274 0.000652 0.069552
v 0.502274 0.948652 0.069552
v 0.452776 0.000652 0.049049
v 0.452776 0.948652 0.049049
v 0.432274 0.000652 -0.000448
v 0.432274 0.948652 -0.000448
v 0.452776 0.000652 -0.049946
v 0.452776 0.948652 -0.049946
v 1.502274 0.000652 -0.070448
v 1.502274 0.948652 -0.070448
v 1.551771 0.000652 -0.049946
v 1.551771 0.948652 -0.049946
v 1.572274 0.000652 -0.000448
v 1.572274 0.948652 -0.000448
v 1.551771 0.000652 0.049049
v 1.551771 0.948652 0.049049
v 1.502274 0.000652 0.069552
v 1.502274 0.948652 0.069552
v 1.452776 0.000652 0.049049
v 1.452776 0.948652 0.049049
v 1.432274 0.000652 -0.000448
v 1.432274 0.948652 -0.000448
v 1.452776 0.000652 -0.049946
v 1.452776 0.948652 -0.049946
v 2.502274 0.000652 -0.070448
v 2.502274 0.948652 -0.070448
v 2.551771 0.000652 -0.049946
v 2.551771 0.948652 -0.049946
v 2.572274 0.000652 -0.000448
v 2.572274 0.948652 -0.000448
v 2.551771 0.000652 0.049049
v 2.551771 0.948652 0.049049
v 2.502274 0.000652 0.069552
v 2.502274 0.948652 0.069552
v 2.452776 0.000652 0.049049
v 2.452776 0.948652 0.049049
v 2.432274 0.000652 -0.000448
v 2.432274 0.948652 -0.000448
v 2.452776 0.000652 -0.049946
v 2.452776 0.948652 -0.049946
v 3.502274 0.000652 -0.070448
v 3.502274 0.948652 -0.070448
v 3.551771 0.000652 -0.049946
v 3.551771 0.948652 -0.049946
v 3.572274 0.000652 -0.000448
v 3.572274 0.948652 -0.000448
v 3.551771 0.000652 0.049049
v 3.551771 0.948652 0.049049
v 3.502274 0.000652 0.069552
v 3.502274 0.948652 0.069552
v 3.452776 0.000652 0.049049
v 3.452776 0.948652 0.049049
v 3.432274 0.000652 -0.000448
v 3.432274 0.948652 -0.000448
v 3.452776 0.000652 -0.049946
v 3.452776 0.948652 -0.049946
v 4.502274 0.000652 -0.070448
v 4.502274 0.948652 -0.070448
v 4.551771 0.000652 -0.049946
v 4.551771 0.948652 -0.049946
v 4.572274 0.000652 -0.000448
v 4.572274 0.948652 -0.000448
v 4.551771 0.000652 0.049049
v 4.551771 0.948652 0.049049
v 4.502274 0.000652 0.069552
v 4.502274 0.948652 0.069552
v 4.452776 0.000652 0.049049
v 4.452776 0.948652 0.049049
v 4.432274 0.000652 -0.000448
v 4.432274 0.948652 -0.000448
v 4.452776 0.000652 -0.049946
v 4.452776 0.948652 -0.049946
v 5.502274 0.000652 -0.070448
v 5.502274 0.948652 -0.070448
v 5.551771 0.000652 -0.049946
v 5.551771 0.948652 -0.049946
v 5.572274 0.000652 -0.000448
v 5.572274 0.948652 -0.000448
v 5.551771 0.000652 0.049049
v 5.551771 0.948652 0.049049
v 5.502274 0.000652 0.069552
v 5.502274 0.948652 0.069552
v 5.452776 0.000652 0.049049
v 5.452776 0.948652 0.049049
v 5.432274 0.000652 -0.000448
v 5.432274 0.948652 -0.000448
v 5.452776 0.000652 -0.049946
v 5.452776 0.948652 -0.049946
v 6.502274 0.000652 -0.070448
v 6.502274 0.948652 -0.070448
v 6.551771 0.000652 -0.049946
v 6.551771 0.948652 -0.049946
v 6.572274 0.000652 -0.000448
v 6.572274 0.948652 -0.000448
v 6.551771 0.000652 0.049049
v 6.551771 0.948652 0.049049
v 6.502274 0.000652 0.069552
v 6.502274 0.948652 0.069552
v 6.452776 0.000652 0.049049
v 6.452776 0.948652 0.049049
v 6.432274 0.000652 -0.000448
v 6.432274 0.948652 -0.000448
v 6.452776 0.000652 -0.049946
v 6.452776 0.948652 -0.049946
v 7.502274 0.000652 -0.070448
v 7.502274 0.948652 -0.070448
v 7.551771 0.000652 -0.049946
v 7.551771 0.948652 -0.049946
v 7.572274 0.000652 -0.000448
v 7.572274 0.948652 -0.000448
v 7.551771 0.000652 0.049049
v 7.551771 0.948652 0.049049
v 7.502274 0.000652 0.069552
v 7.502274 0.948652 0.069552
v 7.452776 0.000652 0.049049
v 7.452776 0.948652 0.049049
v 7.432274 0.000652 -0.000448
v 7.432274 0.948652 -0.000448
v 7.452776 0.000652 -0.049946
v 7.452776 0.948652 -0.049946
v -0.497726 0.000652 -0.070448
v -0.497726 0.948652 -0.070448
v -0.448229 0.000652 -0.049946
v -0.448229 0.948652 -0.049946
v -0.427726 0.000652 -0.000448
v -0.427726 0.948652 -0.000448
v -0.448229 0.000652 0.049049
v -0.448229 0.948652 0.049049
v -0.497726 0.000652 0.069552
v -0.497726 0.948652 0.069552
v -0.547224 0.000652 0.049049
v -0.547224 0.948652 0.049049
v -0.567726 0.000652 -0.000448
v -0.567726 0.948652 -0.000448
v -0.547224 0.000652 -0.049946
v -0.547224 0.948652 -0.049946
v -1.497726 0.000652 -0.070448
v -1.497726 0.948652 -0.070448
v -1.448229 0.000652 -0.049946
v -1.448229 0.948652 -0.049946
v -1.427726 0.000652 -0.000448
v -1.427726 0.948652 -0.000448
v -1.448229 0.000652 0.049049
v -1.448229 0.948652 0.049049
v -1.497726 0.000652 0.069552
v -1.497726 0.948652 0.069552
v -1.547224 0.000652 0.049049
v -1.547224 0.948652 0.049049
v -1.567726 0.000652 -0.000448
v -1.567726 0.948652 -0.000448
v -1.547224 0.000652 -0.049946
v -1.547224 0.948652 -0.049946
v -5.497726 0.000652 -0.320448
v -5.497726 0.948652 -0.320448
v -5.448229 0.000652 -0.299946
v -5.448229 0.948652 -0.299946
v -5.427726 0.000652 -0.250448
v -5.427726 0.948652 -0.250448
v -5.448229 0.000652 -0.200951
v -5.448229 0.948652 -0.200951
v -5.497726 0.000652 -0.180448
v -5.497726 0.948652 -0.180448
v -5.547224 0.000652 -0.200951
v -5.547224 0.948652 -0.200951
v -5.567726 0.000652 -0.250448
v -5.567726 0.948652 -0.250448
v -5.547224 0.000652 -0.299946
v -5.547224 0.948652 -0.299946
v -6.448229 0.000652 -0.799945
v -6.448229 0.948652 -0.799945
v -6.427726 0.000652 -0.750448
v -6.427726 0.948652 -0.750448
v -6.448229 0.000652 -0.700950
v -6.448229 0.948652 -0.700950
v -6.497726 0.000652 -0.680448
v -6.497726 0.948652 -0.680448
v -6.547224 0.000652 -0.700950
v -6.547224 0.948652 -0.700950
v -6.567726 0.000652 -0.750448
v -6.567726 0.948652 -0.750448
v -6.547224 0.000652 -0.799945
v -6.547224 0.948652 -0.799945
v -6.497726 0.000652 -0.820448
v -6.497726 0.948652 -0.820448
v -7.179727 0.000652 -1.498060
v -7.179727 0.948652 -1.498060
v -7.200230 0.000652 -1.448563
v -7.200230 0.948652 -1.448563
v -7.249727 0.000652 -1.428060
v -7.249727 0.948652 -1.428060
v -7.299225 0.000652 -1.448563
v -7.299225 0.948652 -1.448563
v -7.319728 0.000652 -1.498060
v -7.319728 0.948652 -1.498060
v -7.299225 0.000652 -1.547558
v -7.299225 0.948652 -1.547558
v -7.249727 0.000652 -1.568060
v -7.249727 0.948652 -1.568060
v -7.200230 0.000652 -1.547558
v -7.200230 0.948652 -1.547558
v -7.700230 0.948652 -2.547558
v -7.700230 0.000652 -2.547558
v -7.749727 0.948652 -2.568060
v -7.749727 0.000652 -2.568060
v -7.799225 0.948652 -2.547558
v -7.799225 0.000652 -2.547558
v -7.819728 0.948652 -2.498060
v -7.819728 0.000652 -2.498060
v -7.799225 0.948652 -2.448563
v -7.799225 0.000652 -2.448563
v -7.749727 0.948652 -2.428060
v -7.749727 0.000652 -2.428060
v -7.700230 0.948652 -2.448563
v -7.700230 0.000652 -2.448563
v -7.679727 0.948652 -2.498060
v -7.679727 0.000652 -2.498060
v -7.929727 0.000652 -3.498060
v -7.929727 0.948652 -3.498060
v -7.950230 0.000652 -3.448563
v -7.950230 0.948652 -3.448563
v -7.999727 0.000652 -3.428060
v -7.999727 0.948652 -3.428060
v -8.049225 0.000652 -3.448563
v -8.049225 0.948652 -3.448563
v -8.069728 0.000652 -3.498060
v -8.069728 0.948652 -3.498060
v -8.049225 0.000652 -3.547558
v -8.049225 0.948652 -3.547558
v -7.999727 0.000652 -3.568060
v -7.999727 0.948652 -3.568060
v -7.950230 0.000652 -3.547558
v -7.950230 0.948652 -3.547558
v -7.929727 0.000652 -4.498061
v -7.929727 0.948652 -4.498061
v -7.950230 0.000652 -4.448563
v -7.950230 0.948652 -4.448563
v -7.999728 0.000652 -4.428060
v -7.999728 0.948652 -4.428060
v -8.049225 0.000652 -4.448563
v -8.049225 0.948652 -4.448563
v -8.069728 0.000652 -4.498061
v -8.069728 0.948652 -4.498061
v -8.049225 0.000652 -4.547558
v -8.049225 0.948652 -4.547558
v -7.999728 0.000652 -4.568060
v -7.999728 0.948652 -4.568060
v -7.950230 0.000652 -4.547558
v -7.950230 0.948652 -4.547558
v 0.000000 0.931240 0.199959
v 0.000000 0.968760 -0.199957
v 0.000000 0.901240 -0.169957
v 0.000000 0.901240 0.169959
v 0.000000 0.968760 0.199959
v 0.000000 0.931240 -0.199957
v 0.000000 0.998760 -0.169957
v 0.000000 0.998760 0.169959
v -7.141391 0.968760 -0.858607
v -6.858608 0.931240 -1.141390
v -6.879821 0.998760 -1.120177
v -7.120178 0.998760 -0.879820
v -7.141391 0.931240 -0.858607
v -6.858608 0.968760 -1.141390
v -6.879821 0.901240 -1.120177
v -7.120178 0.901240 -0.879820
v -4.987500 0.931240 0.199959
v -4.987500 0.968760 -0.199957
v -4.992500 0.901240 -0.169957
v -4.992500 0.901240 0.169959
v -4.987500 0.968760 0.199959
v -4.987500 0.931240 -0.199957
v -4.992500 0.998760 -0.169957
v -4.992500 0.998760 0.169959
v -8.200135 0.968760 -2.970334
v -7.800218 0.931240 -2.970334
v -7.830219 0.998760 -2.970334
v -8.170135 0.998760 -2.970334
v -8.200135 0.931240 -2.970334
v -7.800218 0.968760 -2.970334
v -7.830219 0.901240 -2.970334
v -8.170135 0.901240 -2.970334
v -2.497726 0.000652 -0.070448
v -2.497726 0.948652 -0.070448
v -2.448229 0.000652 -0.049946
v -2.448229 0.948652 -0.049946
v -2.427726 0.000652 -0.000448
v -2.427726 0.948652 -0.000448
v -2.448229 0.000652 0.049049
v -2.448229 0.948652 0.049049
v -2.497726 0.000652 0.069552
v -2.497726 0.948652 0.069552
v -2.547224 0.000652 0.049049
v -2.547224 0.948652 0.049049
v -2.567726 0.000652 -0.000448
v -2.567726 0.948652 -0.000448
v -2.547224 0.000652 -0.049946
v -2.547224 0.948652 -0.049946
v -3.497726 0.000652 -0.070448
v -3.497726 0.948652 -0.070448
v -3.448229 0.000652 -0.049946
v -3.448229 0.948652 -0.049946
v -3.427726 0.000652 -0.000448
v -3.427726 0.948652 -0.000448
v -3.448229 0.000652 0.049049
v -3.448229 0.948652 0.049049
v -3.497726 0.000652 0.069552
v -3.497726 0.948652 0.069552
v -3.547224 0.000652 0.049049
v -3.547224 0.948652 0.049049
v -3.567726 0.000652 -0.000448
v -3.567726 0.948652 -0.000448
v -3.547224 0.000652 -0.049946
v -3.547224 0.948652 -0.049946
v -4.497726 0.000652 -0.070448
v -4.497726 0.948652 -0.070448
v -4.448229 0.000652 -0.049946
v -4.448229 0.948652 -0.049946
v -4.427726 0.000652 -0.000448
v -4.427726 0.948652 -0.000448
v -4.448229 0.000652 0.049049
v -4.448229 0.948652 0.049049
v -4.497726 0.000652 0.069552
v -4.497726 0.948652 0.069552
v -4.547224 0.000652 0.049049
v -4.547224 0.948652 0.049049
v -4.567726 0.000652 -0.000448
v -4.567726 0.948652 -0.000448
v -4.547224 0.000652 -0.049946
v -4.547224 0.948652 -0.049946
vn 0.9295 -0.0000 -0.3688
vn -0.7071 -0.7071 -0.0000
vn 0.6181 0.7577 0.2093
vn -0.9295 -0.0000 -0.3689
vn -0.0000 -0.0000 1.0000
vn -0.0000 -0.0000 -1.0000
vn -0.6182 -0.7577 0.2093
vn 0.7071 0.7071 -0.0000
vn 0.2358 -0.6872 -0.6872
vn 0.2358 0.6872 -0.6872
vn -0.2358 -0.6872 -0.6871
vn -0.2358 0.6872 -0.6871
vn -0.0000 -0.7071 -0.7071
vn -0.0000 0.7071 -0.7071
vn -0.0000 0.7071 0.7071
vn 0.7653 -0.0000 -0.6436
vn -0.7654 -0.0000 -0.6436
vn 0.6181 -0.7577 0.2093
vn -0.6182 0.7577 0.2093
vn -0.0000 -1.0000 -0.0000
vn 1.0000 -0.0000 -0.0000
vn 0.3689 -0.0000 -0.9295
vn -0.2093 0.7577 -0.6181
vn 0.3689 -0.0000 0.9295
vn -0.2093 -0.7577 0.6181
vn 0.6872 -0.6872 -0.2357
vn 0.6872 0.6872 -0.2357
vn 0.6872 -0.6872 0.2357
vn 0.6872 0.6872 0.2357
vn 0.7071 -0.7071 -0.0000
vn 0.6436 -0.0000 -0.7654
vn 0.6436 -0.0000 0.7654
vn -0.2093 -0.7577 -0.6181
vn -0.2093 0.7577 0.6181
vn -0.0000 1.0000 -0.0000
vn 0.3827 -0.0000 -0.9239
vn 0.9239 -0.0000 -0.3827
vn 0.9239 -0.0000 0.3827
vn 0.3827 -0.0000 0.9239
vn -0.3827 -0.0000 0.9239
vn -0.9239 -0.0000 0.3827
vn -0.9239 -0.0000 -0.3827
vn -0.3827 -0.0000 -0.9239
vn -0.0000 -0.7071 0.7071
vn -0.8939 -0.0000 0.4482
vn -0.6573 0.6776 0.3298
vn 0.6542 -0.6774 -0.3364
vn 0.4495 -0.0000 -0.8933
vn 0.3245 0.6921 -0.6447
vn -0.3308 -0.6628 0.6718
vn -0.4411 -0.0000 0.8975
vn -0.3308 0.6628 0.6718
vn 0.3245 -0.6921 -0.6447
vn -0.7071 0.7071 -0.0000
vn -1.0000 -0.0000 -0.0000
vn 0.8891 -0.0000 -0.4577
vn 0.6542 0.6774 -0.3364
vn -0.6573 -0.6776 0.3298
vt 0.952589 0.814795
vt 0.940124 0.814477
vt 0.942176 0.808197
vt 0.950522 0.808792
vt 0.908664 0.813556
vt 0.900712 0.813556
vt 0.900712 0.807458
vt 0.908664 0.807458
vt 0.935700 0.817104
vt 0.939956 0.886078
vt 0.952421 0.886396
vt 0.950369 0.892675
vt 0.942023 0.892081
vt 0.946403 0.813556
vt 0.978209 0.813556
vt 0.978209 0.819662
vt 0.946403 0.819662
vt 0.943178 0.818726
vt 0.949387 0.818745
vt 0.949367 0.882147
vt 0.943158 0.882128
vt 0.956845 0.883769
vt 0.908664 0.885235
vt 0.900712 0.885235
vt 0.900712 0.891333
vt 0.908664 0.891333
vt 0.956845 0.817302
vt 0.935700 0.883570
vt 0.978209 0.825760
vt 0.946403 0.825760
vt 0.946403 0.873031
vt 0.978209 0.873031
vt 0.978209 0.825888
vt 0.946403 0.825888
vt 0.908664 0.879129
vt 0.900712 0.879129
vt 0.946403 0.879129
vt 0.978209 0.879129
vt 0.908664 0.825760
vt 0.908664 0.872903
vt 0.900712 0.872903
vt 0.900712 0.825760
vt 0.976761 0.709286
vt 0.976761 0.775271
vt 0.967253 0.775271
vt 0.967253 0.709286
vt 0.957746 0.775271
vt 0.957746 0.709286
vt 0.948238 0.775271
vt 0.948238 0.709286
vt 0.938731 0.775271
vt 0.938731 0.709286
vt 0.929223 0.775271
vt 0.929223 0.709286
vt 0.919715 0.775271
vt 0.919715 0.709286
vt 0.910208 0.775271
vt 0.910208 0.709286
vt 0.900700 0.775271
vt 0.900700 0.709286
vt 0.978209 0.872903
vt 0.946403 0.872903
vt 0.926464 0.879129
vt 0.926464 0.873031
vt 0.946403 0.885235
vt 0.978209 0.885235
vt 0.926464 0.825888
vt 0.926464 0.819662
vt 0.926464 0.825760
vt 0.946403 0.891333
vt 0.978209 0.891333
vt 0.926464 0.813556
vt 0.946403 0.807458
vt 0.978209 0.807458
vt 0.917493 0.813556
vt 0.917493 0.819662
vt 0.908664 0.819662
vt 0.917493 0.825760
vt 0.908664 0.873031
vt 0.917493 0.873031
vt 0.917493 0.825888
vt 0.908664 0.825888
vt 0.917493 0.879129
vt 0.926464 0.872903
vt 0.917493 0.872903
vt 0.917493 0.885235
vt 0.926464 0.885235
vt 0.917493 0.891333
vt 0.926464 0.891333
vt 0.917493 0.807458
vt 0.926464 0.807458
vt 0.900712 0.873031
vt 0.900712 0.825888
vt 0.900712 0.819662
s 0
f 7/1/1 10/2/1 2/3/1 1/4/1
f 317/5/2 3/6/2 12/7/2 320/8/2
f 10/2/3 9/9/3 2/3/3
f 16/10/4 13/11/4 3/12/4 4/13/4
f 289/14/5 19/15/5 20/16/5 293/17/5
f 8/18/6 6/19/6 11/20/6 15/21/6
f 13/11/7 12/22/7 3/12/7
f 318/23/8 2/24/8 9/25/8 315/26/8
f 5/27/9 6/19/9 7/1/9
f 8/18/10 9/9/10 10/2/10
f 11/20/11 12/22/11 13/11/11
f 14/28/12 15/21/12 16/10/12
f 11/20/13 6/19/13 5/27/13 12/22/13
f 8/18/14 15/21/14 14/28/14 9/9/14
f 293/17/15 20/16/15 30/29/15 296/30/15
f 10/2/16 7/1/16 6/19/16 8/18/16
f 13/11/17 16/10/17 15/21/17 11/20/17
f 1/4/18 5/27/18 7/1/18
f 4/13/19 14/28/19 16/10/19
f 291/31/20 21/32/20 28/33/20 292/34/20
f 314/35/21 1/36/21 2/24/21 318/23/21
f 294/37/13 17/38/13 21/32/13 291/31/13
f 23/2/22 17/3/22 18/4/22 26/1/22
f 26/1/23 18/4/23 25/27/23
f 32/11/24 20/12/24 19/13/24 29/10/24
f 24/19/21 31/20/21 27/21/21 22/18/21
f 29/10/25 19/13/25 28/28/25
f 21/9/26 23/2/26 22/18/26
f 24/19/27 26/1/27 25/27/27
f 27/21/28 29/10/28 28/28/28
f 30/22/29 32/11/29 31/20/29
f 27/21/30 28/28/30 21/9/30 22/18/30
f 24/19/8 25/27/8 30/22/8 31/20/8
f 26/1/31 24/19/31 22/18/31 23/2/31
f 29/10/32 27/21/32 31/20/32 32/11/32
f 17/3/33 23/2/33 21/9/33
f 20/12/34 32/11/34 30/22/34
f 316/39/35 315/40/35 9/41/35 14/42/35
f 33/43/36 34/44/36 36/45/36 35/46/36
f 35/46/37 36/45/37 38/47/37 37/48/37
f 37/48/38 38/47/38 40/49/38 39/50/38
f 39/50/39 40/49/39 42/51/39 41/52/39
f 41/52/40 42/51/40 44/53/40 43/54/40
f 43/54/41 44/53/41 46/55/41 45/56/41
f 45/56/42 46/55/42 48/57/42 47/58/42
f 47/58/43 48/57/43 34/59/43 33/60/43
f 49/43/36 50/44/36 52/45/36 51/46/36
f 51/46/37 52/45/37 54/47/37 53/48/37
f 53/48/38 54/47/38 56/49/38 55/50/38
f 55/50/39 56/49/39 58/51/39 57/52/39
f 57/52/40 58/51/40 60/53/40 59/54/40
f 59/54/41 60/53/41 62/55/41 61/56/41
f 61/56/42 62/55/42 64/57/42 63/58/42
f 63/58/43 64/57/43 50/59/43 49/60/43
f 65/43/36 66/44/36 68/45/36 67/46/36
f 67/46/37 68/45/37 70/47/37 69/48/37
f 69/48/38 70/47/38 72/49/38 71/50/38
f 71/50/39 72/49/39 74/51/39 73/52/39
f 73/52/40 74/51/40 76/53/40 75/54/40
f 75/54/41 76/53/41 78/55/41 77/56/41
f 77/56/42 78/55/42 80/57/42 79/58/42
f 79/58/43 80/57/43 66/59/43 65/60/43
f 81/43/36 82/44/36 84/45/36 83/46/36
f 83/46/37 84/45/37 86/47/37 85/48/37
f 85/48/38 86/47/38 88/49/38 87/50/38
f 87/50/39 88/49/39 90/51/39 89/52/39
f 89/52/40 90/51/40 92/53/40 91/54/40
f 91/54/41 92/53/41 94/55/41 93/56/41
f 93/56/42 94/55/42 96/57/42 95/58/42
f 95/58/43 96/57/43 82/59/43 81/60/43
f 97/43/36 98/44/36 100/45/36 99/46/36
f 99/46/37 100/45/37 102/47/37 101/48/37
f 101/48/38 102/47/38 104/49/38 103/50/38
f 103/50/39 104/49/39 106/51/39 105/52/39
f 105/52/40 106/51/40 108/53/40 107/54/40
f 107/54/41 108/53/41 110/55/41 109/56/41
f 109/56/42 110/55/42 112/57/42 111/58/42
f 111/58/43 112/57/43 98/59/43 97/60/43
f 113/43/36 114/44/36 116/45/36 115/46/36
f 115/46/37 116/45/37 118/47/37 117/48/37
f 117/48/38 118/47/38 120/49/38 119/50/38
f 119/50/39 120/49/39 122/51/39 121/52/39
f 121/52/40 122/51/40 124/53/40 123/54/40
f 123/54/41 124/53/41 126/55/41 125/56/41
f 125/56/42 126/55/42 128/57/42 127/58/42
f 127/58/43 128/57/43 114/59/43 113/60/43
f 129/43/36 130/44/36 132/45/36 131/46/36
f 131/46/37 132/45/37 134/47/37 133/48/37
f 133/48/38 134/47/38 136/49/38 135/50/38
f 135/50/39 136/49/39 138/51/39 137/52/39
f 137/52/40 138/51/40 140/53/40 139/54/40
f 139/54/41 140/53/41 142/55/41 141/56/41
f 141/56/42 142/55/42 144/57/42 143/58/42
f 143/58/43 144/57/43 130/59/43 129/60/43
f 145/43/36 146/44/36 148/45/36 147/46/36
f 147/46/37 148/45/37 150/47/37 149/48/37
f 149/48/38 150/47/38 152/49/38 151/50/38
f 151/50/39 152/49/39 154/51/39 153/52/39
f 153/52/40 154/51/40 156/53/40 155/54/40
f 155/54/41 156/53/41 158/55/41 157/56/41
f 157/56/42 158/55/42 160/57/42 159/58/42
f 159/58/43 160/57/43 146/59/43 145/60/43
f 161/43/36 162/44/36 164/45/36 163/46/36
f 163/46/37 164/45/37 166/47/37 165/48/37
f 165/48/38 166/47/38 168/49/38 167/50/38
f 167/50/39 168/49/39 170/51/39 169/52/39
f 169/52/40 170/51/40 172/53/40 171/54/40
f 171/54/41 172/53/41 174/55/41 173/56/41
f 173/56/42 174/55/42 176/57/42 175/58/42
f 175/58/43 176/57/43 162/59/43 161/60/43
f 177/43/36 178/44/36 180/45/36 179/46/36
f 179/46/37 180/45/37 182/47/37 181/48/37
f 181/48/38 182/47/38 184/49/38 183/50/38
f 183/50/39 184/49/39 186/51/39 185/52/39
f 185/52/40 186/51/40 188/53/40 187/54/40
f 187/54/41 188/53/41 190/55/41 189/56/41
f 189/56/42 190/55/42 192/57/42 191/58/42
f 191/58/43 192/57/43 178/59/43 177/60/43
f 193/43/36 194/44/36 196/45/36 195/46/36
f 195/46/37 196/45/37 198/47/37 197/48/37
f 197/48/38 198/47/38 200/49/38 199/50/38
f 199/50/39 200/49/39 202/51/39 201/52/39
f 201/52/40 202/51/40 204/53/40 203/54/40
f 203/54/41 204/53/41 206/55/41 205/56/41
f 205/56/42 206/55/42 208/57/42 207/58/42
f 207/58/43 208/57/43 194/59/43 193/60/43
f 209/43/37 210/44/37 212/45/37 211/46/37
f 211/46/38 212/45/38 214/47/38 213/48/38
f 213/48/39 214/47/39 216/49/39 215/50/39
f 215/50/40 216/49/40 218/51/40 217/52/40
f 217/52/41 218/51/41 220/53/41 219/54/41
f 219/54/42 220/53/42 222/55/42 221/56/42
f 221/56/43 222/55/43 224/57/43 223/58/43
f 223/58/36 224/57/36 210/59/36 209/60/36
f 237/56/36 238/55/36 240/57/36 239/58/36
f 227/46/39 228/45/39 230/47/39 229/48/39
f 229/48/40 230/47/40 232/49/40 231/50/40
f 231/50/41 232/49/41 234/51/41 233/52/41
f 233/52/42 234/51/42 236/53/42 235/54/42
f 235/54/43 236/53/43 238/55/43 237/56/43
f 239/58/37 240/57/37 226/59/37 225/60/37
f 225/43/38 226/44/38 228/45/38 227/46/38
f 242/58/37 241/57/37 255/59/37 256/60/37
f 246/54/43 245/53/43 243/55/43 244/56/43
f 248/52/42 247/51/42 245/53/42 246/54/42
f 250/50/41 249/49/41 247/51/41 248/52/41
f 252/48/40 251/47/40 249/49/40 250/50/40
f 254/46/39 253/45/39 251/47/39 252/48/39
f 256/43/38 255/44/38 253/45/38 254/46/38
f 244/56/36 243/55/36 241/57/36 242/58/36
f 257/43/38 258/44/38 260/45/38 259/46/38
f 259/46/39 260/45/39 262/47/39 261/48/39
f 261/48/40 262/47/40 264/49/40 263/50/40
f 263/50/41 264/49/41 266/51/41 265/52/41
f 265/52/42 266/51/42 268/53/42 267/54/42
f 267/54/43 268/53/43 270/55/43 269/56/43
f 269/56/36 270/55/36 272/57/36 271/58/36
f 271/58/37 272/57/37 258/59/37 257/60/37
f 273/43/38 274/44/38 276/45/38 275/46/38
f 275/46/39 276/45/39 278/47/39 277/48/39
f 277/48/40 278/47/40 280/49/40 279/50/40
f 279/50/41 280/49/41 282/51/41 281/52/41
f 281/52/42 282/51/42 284/53/42 283/54/42
f 283/54/43 284/53/43 286/55/43 285/56/43
f 285/56/36 286/55/36 288/57/36 287/58/36
f 287/58/37 288/57/37 274/59/37 273/60/37
f 30/29/35 25/61/35 295/62/35 296/30/35
f 310/63/13 294/37/13 291/31/13 307/64/13
f 17/38/6 294/37/6 290/65/6 18/66/6
f 307/64/20 291/31/20 292/34/20 308/67/20
f 309/68/15 293/17/15 296/30/15 312/69/15
f 18/66/14 290/65/14 295/70/14 25/71/14
f 305/72/5 289/14/5 293/17/5 309/68/5
f 19/15/44 289/14/44 292/73/44 28/74/44
f 317/5/45 301/75/45 297/76/45 313/77/45
f 313/77/46 297/76/46 300/78/46 316/39/46
f 319/79/20 303/80/20 304/81/20 320/82/20
f 314/35/47 298/83/47 303/80/47 319/79/47
f 312/69/35 311/84/35 299/85/35 300/78/35
f 310/63/48 298/83/48 302/86/48 306/87/48
f 306/87/49 302/86/49 299/88/49 311/89/49
f 305/72/50 301/75/50 304/90/50 308/91/50
f 289/14/44 305/72/44 308/91/44 292/73/44
f 290/65/14 306/87/14 311/89/14 295/70/14
f 294/37/6 310/63/6 306/87/6 290/65/6
f 296/30/35 295/62/35 311/84/35 312/69/35
f 301/75/51 305/72/51 309/68/51 297/76/51
f 297/76/52 309/68/52 312/69/52 300/78/52
f 303/80/20 307/64/20 308/67/20 304/81/20
f 298/83/53 310/63/53 307/64/53 303/80/53
f 1/36/30 314/35/30 319/79/30 5/92/30
f 5/92/20 319/79/20 320/82/20 12/93/20
f 4/94/54 313/77/54 316/39/54 14/42/54
f 3/6/55 317/5/55 313/77/55 4/94/55
f 300/78/35 299/85/35 315/40/35 316/39/35
f 298/83/56 314/35/56 318/23/56 302/86/56
f 302/86/57 318/23/57 315/26/57 299/88/57
f 301/75/58 317/5/58 320/8/58 304/90/58
f 321/43/36 322/44/36 324/45/36 323/46/36
f 323/46/37 324/45/37 326/47/37 325/48/37
f 325/48/38 326/47/38 328/49/38 327/50/38
f 327/50/39 328/49/39 330/51/39 329/52/39
f 329/52/40 330/51/40 332/53/40 331/54/40
f 331/54/41 332/53/41 334/55/41 333/56/41
f 333/56/42 334/55/42 336/57/42 335/58/42
f 335/58/43 336/57/43 322/59/43 321/60/43
f 337/43/36 338/44/36 340/45/36 339/46/36
f 339/46/37 340/45/37 342/47/37 341/48/37
f 341/48/38 342/47/38 344/49/38 343/50/38
f 343/50/39 344/49/39 346/51/39 345/52/39
f 345/52/40 346/51/40 348/53/40 347/54/40
f 347/54/41 348/53/41 350/55/41 349/56/41
f 349/56/42 350/55/42 352/57/42 351/58/42
f 351/58/43 352/57/43 338/59/43 337/60/43
f 353/43/36 354/44/36 356/45/36 355/46/36
f 355/46/37 356/45/37 358/47/37 357/48/37
f 357/48/38 358/47/38 360/49/38 359/50/38
f 359/50/39 360/49/39 362/51/39 361/52/39
f 361/52/40 362/51/40 364/53/40 363/54/40
f 363/54/41 364/53/41 366/55/41 365/56/41
f 365/56/42 366/55/42 368/57/42 367/58/42
f 367/58/43 368/57/43 354/59/43 353/60/43
