# Blender 4.4.3
# www.blender.org
o SM_ElevatedRailLow_GrindRail_V1.1
v 4.500000 0.901240 0.199958
v 4.500000 0.998760 0.199958
v 4.500000 0.901240 -0.199958
v 4.500000 0.998760 -0.199958
v 8.000000 0.901240 0.199958
v 8.000000 0.998760 0.199958
v 8.000000 0.901240 -0.199958
v 8.000000 0.998760 -0.199958
v 0.500000 0.501240 0.000000
v 8.000000 0.901240 0.000000
v 3.500000 1.401240 0.199958
v 3.500000 1.498760 0.199958
v 3.500000 1.401240 -0.199958
v 3.500000 1.498760 -0.199958
v 0.500000 1.401240 0.000000
v 0.500000 1.401240 0.199958
v 0.500000 1.498760 0.199958
v 0.500000 1.401240 -0.199958
v 0.500000 1.498760 -0.199958
v 3.500000 0.501240 0.000000
v -0.500000 1.901240 0.199958
v -0.500000 1.998760 0.199958
v -0.500000 1.901240 -0.199958
v -0.500000 1.998760 -0.199958
v 3.500000 1.401240 0.000000
v -3.500000 1.901240 0.199958
v -3.500000 1.998760 0.199958
v -3.500000 1.901240 -0.199958
v -3.500000 1.998760 -0.199958
v 4.500000 0.001240 0.000000
v -4.500000 2.401240 0.199958
v -4.500000 2.498760 0.199958
v -4.500000 2.401240 -0.199958
v -4.500000 2.498760 -0.199958
v 8.000000 0.001240 0.000000
v -8.000000 2.401240 0.199958
v -8.000000 2.498760 0.199958
v -8.000000 2.401240 -0.199958
v -8.000000 2.498760 -0.199958
v 4.500000 0.901240 0.000000
v 4.500000 0.901240 0.000000
v 8.000000 0.901240 0.000000
v 8.000000 0.001240 0.000000
v 4.500000 0.001240 0.000000
v 3.500000 1.401240 0.000000
v 3.500000 0.501240 0.000000
v 0.500000 1.401240 0.000000
v 0.500000 0.501240 0.000000
v -0.500000 1.901240 0.000000
v -0.500000 1.001240 0.000000
v -3.500000 1.901240 0.000000
v -3.500000 1.001240 0.000000
v -4.500000 2.401240 0.000000
v -4.500000 1.501240 0.000000
v -8.000000 2.401240 0.000000
v -8.000000 1.501240 0.000000
v -0.500000 1.901240 0.000000
v -0.500000 1.001240 0.000000
v -3.500000 1.901240 0.000000
v -3.500000 1.001240 0.000000
v -4.500000 2.401240 0.000000
v -4.500000 1.501240 0.000000
v -8.000000 2.401240 0.000000
v -8.000000 1.501240 0.000000
vn -0.0000 -1.0000 -0.0000
vn -0.0000 -0.0000 -1.0000
vn -0.0000 1.0000 -0.0000
vn -0.0000 -0.0000 1.0000
vn 1.0000 -0.0000 -0.0000
vn -0.4472 -0.8944 -0.0000
vn 0.4472 0.8944 -0.0000
vn -1.0000 -0.0000 -0.0000
vt 0.906827 0.805360
vt 0.882754 0.805360
vt 0.882754 0.853961
vt 0.906827 0.853961
vt 0.967352 0.809730
vt 0.967352 0.809603
vt 0.988815 0.809603
vt 0.988815 0.809730
vt 0.882888 0.805360
vt 0.906962 0.805360
vt 0.906962 0.856790
vt 0.882888 0.856791
vt 0.998783 0.898000
vt 0.998805 0.898297
vt 0.973738 0.898641
vt 0.973715 0.898343
vt 0.914395 0.805360
vt 0.914395 0.853961
vt 0.935030 0.853961
vt 0.935030 0.805360
vt 0.961122 0.809258
vt 0.961122 0.809132
vt 0.882754 0.856791
vt 0.670550 0.642107
vt 0.656398 0.653778
vt 0.656398 0.632223
vt 0.670550 0.620552
vt 0.656398 0.654253
vt 0.656398 0.632698
vt 0.914530 0.856790
vt 0.914530 0.805360
vt 0.935164 0.805360
vt 0.935164 0.856790
vt 0.942598 0.853961
vt 0.942598 0.805360
vt 0.966438 0.896916
vt 0.966461 0.897214
vt 0.944974 0.897508
vt 0.944952 0.897211
vt 0.963232 0.805360
vt 0.963232 0.853961
vt 0.970801 0.853961
vt 0.970801 0.805360
vt 0.942726 0.809132
vt 0.942726 0.809258
vt 0.936495 0.808776
vt 0.936495 0.808650
vt 0.942733 0.856790
vt 0.942733 0.805360
vt 0.963367 0.805360
vt 0.963367 0.856790
vt 0.994874 0.853961
vt 0.994874 0.805360
vt 0.937675 0.895784
vt 0.937697 0.896081
vt 0.916211 0.896376
vt 0.916188 0.896078
vt 0.908934 0.894949
vt 0.908911 0.894651
vt 0.918099 0.808776
vt 0.918099 0.808650
vt 0.673483 0.642159
vt 0.723961 0.642159
vt 0.723961 0.620606
vt 0.673483 0.620606
vt 0.911869 0.808178
vt 0.911869 0.808305
vt 0.890406 0.808305
vt 0.890406 0.808178
vt 0.970935 0.856790
vt 0.970935 0.805360
vt 0.995009 0.805360
vt 0.995009 0.856790
vt 0.721029 0.620552
vt 0.721029 0.642107
vt 0.995009 0.853961
vt 0.656398 0.652351
vt 0.656398 0.630796
vt 0.883866 0.895292
vt 0.883844 0.894995
vt 0.720972 0.642159
vt 0.670494 0.642159
vt 0.670494 0.620606
vt 0.720972 0.620606
vt 0.656398 0.630351
vt 0.656398 0.608796
vt 0.723905 0.642107
vt 0.723905 0.620552
vt 0.673426 0.620552
vt 0.673426 0.642107
s 0
f 3/1/1 7/2/1 5/3/1 1/4/1
f 3/5/2 4/6/2 8/7/2 7/8/2
f 8/9/3 4/10/3 2/11/3 6/12/3
f 5/13/4 6/14/4 2/15/4 1/16/4
f 13/17/1 11/18/1 16/19/1 18/20/1
f 4/6/2 3/5/2 13/21/2 14/22/2
f 6/12/5 5/23/5 7/2/5 8/9/5
f 40/24/4 25/25/4 20/26/4 30/27/4
f 59/24/4 61/28/4 62/29/4 60/27/4
f 12/30/3 14/31/3 19/32/3 17/33/3
f 18/20/6 16/19/6 21/34/6 23/35/6
f 11/36/4 12/37/4 17/38/4 16/39/4
f 1/16/4 2/15/4 12/37/4 11/36/4
f 2/11/7 4/10/7 14/31/7 12/30/7
f 28/40/6 26/41/6 31/42/6 33/43/6
f 19/44/2 18/45/2 23/46/2 24/47/2
f 14/22/2 13/21/2 18/45/2 19/44/2
f 22/48/3 24/49/3 29/50/3 27/51/3
f 33/43/1 31/42/1 36/52/1 38/53/1
f 21/54/4 22/55/4 27/56/4 26/57/4
f 16/39/4 17/38/4 22/55/4 21/54/4
f 17/33/7 19/32/7 24/49/7 22/48/7
f 26/57/4 27/56/4 32/58/4 31/59/4
f 23/35/1 21/34/1 26/41/1 28/40/1
f 24/47/2 23/46/2 28/60/2 29/61/2
f 61/62/4 63/63/4 64/64/4 62/65/4
f 34/66/2 33/67/2 38/68/2 39/69/2
f 32/70/3 34/71/3 39/72/3 37/73/3
f 27/51/7 29/50/7 34/71/7 32/70/7
f 29/61/2 28/60/2 33/67/2 34/66/2
f 40/24/4 30/27/4 35/74/4 10/75/4
f 36/52/8 37/76/8 39/72/8 38/53/8
f 15/24/4 57/77/4 58/78/4 9/27/4
f 25/75/4 15/24/4 9/27/4 20/74/4
f 31/59/4 32/58/4 37/79/4 36/80/4
f 57/75/4 59/24/4 60/27/4 58/74/4
f 41/81/2 42/82/2 43/83/2 44/84/2
f 41/85/2 44/86/2 46/27/2 45/24/2
f 47/85/2 48/86/2 50/27/2 49/24/2
f 45/24/2 46/27/2 48/74/2 47/75/2
f 51/85/2 52/86/2 54/27/2 53/24/2
f 49/24/2 50/27/2 52/74/2 51/75/2
f 53/87/2 54/88/2 56/89/2 55/90/2
f 3/1/6 1/4/6 11/18/6 13/17/6
