# Blender 4.4.3
# www.blender.org
o SM_StraightRailHigh_GrindRail_V1.0
v -7.950000 0.931240 -0.199957
v -7.950000 0.968760 -0.199957
v -7.950000 0.931240 0.199959
v -7.950000 0.968760 0.199959
v -7.970000 0.901240 -0.169957
v -8.000000 0.931240 -0.169957
v -7.977125 0.914965 -0.189192
v -8.000000 0.968760 -0.169957
v -7.970000 0.998760 -0.169957
v -7.977125 0.985035 -0.189192
v -8.000000 0.931240 0.169959
v -7.970000 0.901240 0.169959
v -7.977125 0.914965 0.189195
v -7.970000 0.998760 0.169959
v -8.000000 0.968760 0.169959
v -7.977125 0.985035 0.189195
v 7.950000 0.931240 -0.199957
v 7.950000 0.968760 -0.199957
v 7.950000 0.931240 0.199959
v 7.950000 0.968760 0.199959
v 7.970000 0.901240 -0.169957
v 8.000000 0.931240 -0.169957
v 7.977125 0.914965 -0.189192
v 8.000000 0.968760 -0.169957
v 7.970000 0.998760 -0.169957
v 7.977125 0.985035 -0.189192
v 8.000000 0.931240 0.169959
v 7.970000 0.901240 0.169959
v 7.977125 0.914965 0.189195
v 7.970000 0.998760 0.169959
v 8.000000 0.968760 0.169959
v 7.977125 0.985035 0.189195
v 0.502274 0.000652 -0.070448
v 0.502274 0.948652 -0.070448
v 0.551771 0.000652 -0.049946
v 0.551771 0.948652 -0.049946
v 0.572274 0.000652 -0.000448
v 0.572274 0.948652 -0.000448
v 0.551771 0.000652 0.049049
v 0.551771 0.948652 0.049049
v 0.502274 0.000652 0.069552
v 0.502274 0.948652 0.069552
v 0.452776 0.000652 0.049049
v 0.452776 0.948652 0.049049
v 0.432274 0.000652 -0.000448
v 0.432274 0.948652 -0.000448
v 0.452776 0.000652 -0.049946
v 0.452776 0.948652 -0.049946
v 1.502274 0.000652 -0.070448
v 1.502274 0.948652 -0.070448
v 1.551771 0.000652 -0.049946
v 1.551771 0.948652 -0.049946
v 1.572274 0.000652 -0.000448
v 1.572274 0.948652 -0.000448
v 1.551771 0.000652 0.049049
v 1.551771 0.948652 0.049049
v 1.502274 0.000652 0.069552
v 1.502274 0.948652 0.069552
v 1.452776 0.000652 0.049049
v 1.452776 0.948652 0.049049
v 1.432274 0.000652 -0.000448
v 1.432274 0.948652 -0.000448
v 1.452776 0.000652 -0.049946
v 1.452776 0.948652 -0.049946
v 2.502274 0.000652 -0.070448
v 2.502274 0.948652 -0.070448
v 2.551771 0.000652 -0.049946
v 2.551771 0.948652 -0.049946
v 2.572274 0.000652 -0.000448
v 2.572274 0.948652 -0.000448
v 2.551771 0.000652 0.049049
v 2.551771 0.948652 0.049049
v 2.502274 0.000652 0.069552
v 2.502274 0.948652 0.069552
v 2.452776 0.000652 0.049049
v 2.452776 0.948652 0.049049
v 2.432274 0.000652 -0.000448
v 2.432274 0.948652 -0.000448
v 2.452776 0.000652 -0.049946
v 2.452776 0.948652 -0.049946
v 3.502274 0.000652 -0.070448
v 3.502274 0.948652 -0.070448
v 3.551771 0.000652 -0.049946
v 3.551771 0.948652 -0.049946
v 3.572274 0.000652 -0.000448
v 3.572274 0.948652 -0.000448
v 3.551771 0.000652 0.049049
v 3.551771 0.948652 0.049049
v 3.502274 0.000652 0.069552
v 3.502274 0.948652 0.069552
v 3.452776 0.000652 0.049049
v 3.452776 0.948652 0.049049
v 3.432274 0.000652 -0.000448
v 3.432274 0.948652 -0.000448
v 3.452776 0.000652 -0.049946
v 3.452776 0.948652 -0.049946
v 4.502274 0.000652 -0.070448
v 4.502274 0.948652 -0.070448
v 4.551771 0.000652 -0.049946
v 4.551771 0.948652 -0.049946
v 4.572274 0.000652 -0.000448
v 4.572274 0.948652 -0.000448
v 4.551771 0.000652 0.049049
v 4.551771 0.948652 0.049049
v 4.502274 0.000652 0.069552
v 4.502274 0.948652 0.069552
v 4.452776 0.000652 0.049049
v 4.452776 0.948652 0.049049
v 4.432274 0.000652 -0.000448
v 4.432274 0.948652 -0.000448
v 4.452776 0.000652 -0.049946
v 4.452776 0.948652 -0.049946
v 5.502274 0.000652 -0.070448
v 5.502274 0.948652 -0.070448
v 5.551771 0.000652 -0.049946
v 5.551771 0.948652 -0.049946
v 5.572274 0.000652 -0.000448
v 5.572274 0.948652 -0.000448
v 5.551771 0.000652 0.049049
v 5.551771 0.948652 0.049049
v 5.502274 0.000652 0.069552
v 5.502274 0.948652 0.069552
v 5.452776 0.000652 0.049049
v 5.452776 0.948652 0.049049
v 5.432274 0.000652 -0.000448
v 5.432274 0.948652 -0.000448
v 5.452776 0.000652 -0.049946
v 5.452776 0.948652 -0.049946
v 6.502274 0.000652 -0.070448
v 6.502274 0.948652 -0.070448
v 6.551771 0.000652 -0.049946
v 6.551771 0.948652 -0.049946
v 6.572274 0.000652 -0.000448
v 6.572274 0.948652 -0.000448
v 6.551771 0.000652 0.049049
v 6.551771 0.948652 0.049049
v 6.502274 0.000652 0.069552
v 6.502274 0.948652 0.069552
v 6.452776 0.000652 0.049049
v 6.452776 0.948652 0.049049
v 6.432274 0.000652 -0.000448
v 6.432274 0.948652 -0.000448
v 6.452776 0.000652 -0.049946
v 6.452776 0.948652 -0.049946
v 7.502274 0.000652 -0.070448
v 7.502274 0.948652 -0.070448
v 7.551771 0.000652 -0.049946
v 7.551771 0.948652 -0.049946
v 7.572274 0.000652 -0.000448
v 7.572274 0.948652 -0.000448
v 7.551771 0.000652 0.049049
v 7.551771 0.948652 0.049049
v 7.502274 0.000652 0.069552
v 7.502274 0.948652 0.069552
v 7.452776 0.000652 0.049049
v 7.452776 0.948652 0.049049
v 7.432274 0.000652 -0.000448
v 7.432274 0.948652 -0.000448
v 7.452776 0.000652 -0.049946
v 7.452776 0.948652 -0.049946
v -0.497726 0.000652 -0.070448
v -0.497726 0.948652 -0.070448
v -0.448229 0.000652 -0.049946
v -0.448229 0.948652 -0.049946
v -0.427726 0.000652 -0.000448
v -0.427726 0.948652 -0.000448
v -0.448229 0.000652 0.049049
v -0.448229 0.948652 0.049049
v -0.497726 0.000652 0.069552
v -0.497726 0.948652 0.069552
v -0.547224 0.000652 0.049049
v -0.547224 0.948652 0.049049
v -0.567726 0.000652 -0.000448
v -0.567726 0.948652 -0.000448
v -0.547224 0.000652 -0.049946
v -0.547224 0.948652 -0.049946
v -1.497726 0.000652 -0.070448
v -1.497726 0.948652 -0.070448
v -1.448229 0.000652 -0.049946
v -1.448229 0.948652 -0.049946
v -1.427726 0.000652 -0.000448
v -1.427726 0.948652 -0.000448
v -1.448229 0.000652 0.049049
v -1.448229 0.948652 0.049049
v -1.497726 0.000652 0.069552
v -1.497726 0.948652 0.069552
v -1.547224 0.000652 0.049049
v -1.547224 0.948652 0.049049
v -1.567726 0.000652 -0.000448
v -1.567726 0.948652 -0.000448
v -1.547224 0.000652 -0.049946
v -1.547224 0.948652 -0.049946
v -2.497726 0.000652 -0.070448
v -2.497726 0.948652 -0.070448
v -2.448229 0.000652 -0.049946
v -2.448229 0.948652 -0.049946
v -2.427726 0.000652 -0.000448
v -2.427726 0.948652 -0.000448
v -2.448229 0.000652 0.049049
v -2.448229 0.948652 0.049049
v -2.497726 0.000652 0.069552
v -2.497726 0.948652 0.069552
v -2.547224 0.000652 0.049049
v -2.547224 0.948652 0.049049
v -2.567726 0.000652 -0.000448
v -2.567726 0.948652 -0.000448
v -2.547224 0.000652 -0.049946
v -2.547224 0.948652 -0.049946
v -3.497726 0.000652 -0.070448
v -3.497726 0.948652 -0.070448
v -3.448229 0.000652 -0.049946
v -3.448229 0.948652 -0.049946
v -3.427726 0.000652 -0.000448
v -3.427726 0.948652 -0.000448
v -3.448229 0.000652 0.049049
v -3.448229 0.948652 0.049049
v -3.497726 0.000652 0.069552
v -3.497726 0.948652 0.069552
v -3.547224 0.000652 0.049049
v -3.547224 0.948652 0.049049
v -3.567726 0.000652 -0.000448
v -3.567726 0.948652 -0.000448
v -3.547224 0.000652 -0.049946
v -3.547224 0.948652 -0.049946
v -4.497726 0.000652 -0.070448
v -4.497726 0.948652 -0.070448
v -4.448229 0.000652 -0.049946
v -4.448229 0.948652 -0.049946
v -4.427726 0.000652 -0.000448
v -4.427726 0.948652 -0.000448
v -4.448229 0.000652 0.049049
v -4.448229 0.948652 0.049049
v -4.497726 0.000652 0.069552
v -4.497726 0.948652 0.069552
v -4.547224 0.000652 0.049049
v -4.547224 0.948652 0.049049
v -4.567726 0.000652 -0.000448
v -4.567726 0.948652 -0.000448
v -4.547224 0.000652 -0.049946
v -4.547224 0.948652 -0.049946
v -5.497726 0.000652 -0.070448
v -5.497726 0.948652 -0.070448
v -5.448229 0.000652 -0.049946
v -5.448229 0.948652 -0.049946
v -5.427726 0.000652 -0.000448
v -5.427726 0.948652 -0.000448
v -5.448229 0.000652 0.049049
v -5.448229 0.948652 0.049049
v -5.497726 0.000652 0.069552
v -5.497726 0.948652 0.069552
v -5.547224 0.000652 0.049049
v -5.547224 0.948652 0.049049
v -5.567726 0.000652 -0.000448
v -5.567726 0.948652 -0.000448
v -5.547224 0.000652 -0.049946
v -5.547224 0.948652 -0.049946
v -6.497726 0.000652 -0.070448
v -6.497726 0.948652 -0.070448
v -6.448229 0.000652 -0.049946
v -6.448229 0.948652 -0.049946
v -6.427726 0.000652 -0.000448
v -6.427726 0.948652 -0.000448
v -6.448229 0.000652 0.049049
v -6.448229 0.948652 0.049049
v -6.497726 0.000652 0.069552
v -6.497726 0.948652 0.069552
v -6.547224 0.000652 0.049049
v -6.547224 0.948652 0.049049
v -6.567726 0.000652 -0.000448
v -6.567726 0.948652 -0.000448
v -6.547224 0.000652 -0.049946
v -6.547224 0.948652 -0.049946
v -7.497726 0.000652 -0.070448
v -7.497726 0.948652 -0.070448
v -7.448229 0.000652 -0.049946
v -7.448229 0.948652 -0.049946
v -7.427726 0.000652 -0.000448
v -7.427726 0.948652 -0.000448
v -7.448229 0.000652 0.049049
v -7.448229 0.948652 0.049049
v -7.497726 0.000652 0.069552
v -7.497726 0.948652 0.069552
v -7.547224 0.000652 0.049049
v -7.547224 0.948652 0.049049
v -7.567726 0.000652 -0.000448
v -7.567726 0.948652 -0.000448
v -7.547224 0.000652 -0.049946
v -7.547224 0.948652 -0.049946
vn -0.3689 -0.0000 -0.9295
vn -0.0000 -0.7071 0.7071
vn 0.2093 0.7577 -0.6181
vn -0.3689 -0.0000 0.9295
vn -0.0000 -0.0000 1.0000
vn -1.0000 -0.0000 -0.0000
vn 0.2093 -0.7577 0.6181
vn -0.0000 0.7071 -0.7071
vn -0.6872 -0.6872 -0.2357
vn -0.6872 0.6872 -0.2357
vn -0.6872 -0.6872 0.2357
vn -0.6872 0.6872 0.2357
vn -0.7071 -0.7071 -0.0000
vn -0.7071 0.7071 -0.0000
vn -0.0000 0.7071 0.7071
vn -0.6436 -0.0000 -0.7654
vn -0.6436 -0.0000 0.7654
vn 0.2093 -0.7577 -0.6181
vn 0.2093 0.7577 0.6181
vn -0.0000 -1.0000 -0.0000
vn -0.0000 -0.0000 -1.0000
vn -0.0000 -0.7071 -0.7071
vn 0.3689 -0.0000 -0.9295
vn -0.2093 0.7577 -0.6181
vn 0.3689 -0.0000 0.9295
vn 1.0000 -0.0000 -0.0000
vn -0.2093 -0.7577 0.6181
vn 0.6872 -0.6872 -0.2357
vn 0.6872 0.6872 -0.2357
vn 0.6872 -0.6872 0.2357
vn 0.6872 0.6872 0.2357
vn 0.7071 -0.7071 -0.0000
vn 0.7071 0.7071 -0.0000
vn 0.6436 -0.0000 -0.7654
vn 0.6436 -0.0000 0.7654
vn -0.2093 -0.7577 -0.6181
vn -0.2093 0.7577 0.6181
vn -0.0000 1.0000 -0.0000
vn 0.3827 -0.0000 -0.9239
vn 0.9239 -0.0000 -0.3827
vn 0.9239 -0.0000 0.3827
vn 0.3827 -0.0000 0.9239
vn -0.3827 -0.0000 0.9239
vn -0.9239 -0.0000 0.3827
vn -0.9239 -0.0000 -0.3827
vn -0.3827 -0.0000 -0.9239
vt 0.961486 0.811898
vt 0.953206 0.811687
vt 0.954569 0.807516
vt 0.960113 0.807911
vt 0.883541 0.854644
vt 0.995373 0.854644
vt 0.995373 0.850479
vt 0.883541 0.850479
vt 0.950268 0.813432
vt 0.953095 0.859247
vt 0.961374 0.859458
vt 0.960012 0.863629
vt 0.954468 0.863234
vt 0.883541 0.858939
vt 0.995373 0.858939
vt 0.955235 0.814510
vt 0.959359 0.814523
vt 0.959346 0.856636
vt 0.955221 0.856623
vt 0.964313 0.857713
vt 0.883541 0.816043
vt 0.995373 0.816043
vt 0.995373 0.820208
vt 0.883541 0.820208
vt 0.964313 0.813564
vt 0.950268 0.857581
vt 0.883541 0.863104
vt 0.995373 0.863104
vt 0.995373 0.820297
vt 0.883541 0.820297
vt 0.883541 0.811748
vt 0.995373 0.811748
vt 0.883541 0.807583
vt 0.995373 0.807583
vt 0.883541 0.850390
vt 0.995373 0.850390
vt 0.991213 0.708877
vt 0.991213 0.782186
vt 0.978812 0.782186
vt 0.978812 0.708877
vt 0.966411 0.782186
vt 0.966411 0.708877
vt 0.954011 0.782186
vt 0.954011 0.708877
vt 0.941610 0.782186
vt 0.941610 0.708877
vt 0.929209 0.782186
vt 0.929209 0.708877
vt 0.916809 0.782186
vt 0.916809 0.708877
vt 0.904408 0.782186
vt 0.904408 0.708877
vt 0.892007 0.782186
vt 0.892007 0.708877
s 0
f 7/1/1 10/2/1 2/3/1 1/4/1
f 19/5/2 3/6/2 12/7/2 28/8/2
f 10/2/3 9/9/3 2/3/3
f 16/10/4 13/11/4 3/12/4 4/13/4
f 3/6/5 19/5/5 20/14/5 4/15/5
f 8/16/6 6/17/6 11/18/6 15/19/6
f 13/11/7 12/20/7 3/12/7
f 18/21/8 2/22/8 9/23/8 25/24/8
f 5/25/9 6/17/9 7/1/9
f 8/16/10 9/9/10 10/2/10
f 11/18/11 12/20/11 13/11/11
f 14/26/12 15/19/12 16/10/12
f 11/18/13 6/17/13 5/25/13 12/20/13
f 8/16/14 15/19/14 14/26/14 9/9/14
f 4/15/15 20/14/15 30/27/15 14/28/15
f 10/2/16 7/1/16 6/17/16 8/16/16
f 13/11/17 16/10/17 15/19/17 11/18/17
f 1/4/18 5/25/18 7/1/18
f 4/13/19 14/26/19 16/10/19
f 5/29/20 21/30/20 28/8/20 12/7/20
f 17/31/21 1/32/21 2/22/21 18/21/21
f 1/32/22 17/31/22 21/33/22 5/34/22
f 23/2/23 17/3/23 18/4/23 26/1/23
f 26/1/24 18/4/24 25/25/24
f 32/11/25 20/12/25 19/13/25 29/10/25
f 24/17/26 31/18/26 27/19/26 22/16/26
f 29/10/27 19/13/27 28/26/27
f 21/9/28 23/2/28 22/16/28
f 24/17/29 26/1/29 25/25/29
f 27/19/30 29/10/30 28/26/30
f 30/20/31 32/11/31 31/18/31
f 27/19/32 28/26/32 21/9/32 22/16/32
f 24/17/33 25/25/33 30/20/33 31/18/33
f 26/1/34 24/17/34 22/16/34 23/2/34
f 29/10/35 27/19/35 31/18/35 32/11/35
f 17/3/36 23/2/36 21/9/36
f 20/12/37 32/11/37 30/20/37
f 30/35/38 25/24/38 9/23/38 14/36/38
f 33/37/39 34/38/39 36/39/39 35/40/39
f 35/40/40 36/39/40 38/41/40 37/42/40
f 37/42/41 38/41/41 40/43/41 39/44/41
f 39/44/42 40/43/42 42/45/42 41/46/42
f 41/46/43 42/45/43 44/47/43 43/48/43
f 43/48/44 44/47/44 46/49/44 45/50/44
f 45/50/45 46/49/45 48/51/45 47/52/45
f 47/52/46 48/51/46 34/53/46 33/54/46
f 49/37/39 50/38/39 52/39/39 51/40/39
f 51/40/40 52/39/40 54/41/40 53/42/40
f 53/42/41 54/41/41 56/43/41 55/44/41
f 55/44/42 56/43/42 58/45/42 57/46/42
f 57/46/43 58/45/43 60/47/43 59/48/43
f 59/48/44 60/47/44 62/49/44 61/50/44
f 61/50/45 62/49/45 64/51/45 63/52/45
f 63/52/46 64/51/46 50/53/46 49/54/46
f 65/37/39 66/38/39 68/39/39 67/40/39
f 67/40/40 68/39/40 70/41/40 69/42/40
f 69/42/41 70/41/41 72/43/41 71/44/41
f 71/44/42 72/43/42 74/45/42 73/46/42
f 73/46/43 74/45/43 76/47/43 75/48/43
f 75/48/44 76/47/44 78/49/44 77/50/44
f 77/50/45 78/49/45 80/51/45 79/52/45
f 79/52/46 80/51/46 66/53/46 65/54/46
f 81/37/39 82/38/39 84/39/39 83/40/39
f 83/40/40 84/39/40 86/41/40 85/42/40
f 85/42/41 86/41/41 88/43/41 87/44/41
f 87/44/42 88/43/42 90/45/42 89/46/42
f 89/46/43 90/45/43 92/47/43 91/48/43
f 91/48/44 92/47/44 94/49/44 93/50/44
f 93/50/45 94/49/45 96/51/45 95/52/45
f 95/52/46 96/51/46 82/53/46 81/54/46
f 97/37/39 98/38/39 100/39/39 99/40/39
f 99/40/40 100/39/40 102/41/40 101/42/40
f 101/42/41 102/41/41 104/43/41 103/44/41
f 103/44/42 104/43/42 106/45/42 105/46/42
f 105/46/43 106/45/43 108/47/43 107/48/43
f 107/48/44 108/47/44 110/49/44 109/50/44
f 109/50/45 110/49/45 112/51/45 111/52/45
f 111/52/46 112/51/46 98/53/46 97/54/46
f 113/37/39 114/38/39 116/39/39 115/40/39
f 115/40/40 116/39/40 118/41/40 117/42/40
f 117/42/41 118/41/41 120/43/41 119/44/41
f 119/44/42 120/43/42 122/45/42 121/46/42
f 121/46/43 122/45/43 124/47/43 123/48/43
f 123/48/44 124/47/44 126/49/44 125/50/44
f 125/50/45 126/49/45 128/51/45 127/52/45
f 127/52/46 128/51/46 114/53/46 113/54/46
f 129/37/39 130/38/39 132/39/39 131/40/39
f 131/40/40 132/39/40 134/41/40 133/42/40
f 133/42/41 134/41/41 136/43/41 135/44/41
f 135/44/42 136/43/42 138/45/42 137/46/42
f 137/46/43 138/45/43 140/47/43 139/48/43
f 139/48/44 140/47/44 142/49/44 141/50/44
f 141/50/45 142/49/45 144/51/45 143/52/45
f 143/52/46 144/51/46 130/53/46 129/54/46
f 145/37/39 146/38/39 148/39/39 147/40/39
f 147/40/40 148/39/40 150/41/40 149/42/40
f 149/42/41 150/41/41 152/43/41 151/44/41
f 151/44/42 152/43/42 154/45/42 153/46/42
f 153/46/43 154/45/43 156/47/43 155/48/43
f 155/48/44 156/47/44 158/49/44 157/50/44
f 157/50/45 158/49/45 160/51/45 159/52/45
f 159/52/46 160/51/46 146/53/46 145/54/46
f 161/37/39 162/38/39 164/39/39 163/40/39
f 163/40/40 164/39/40 166/41/40 165/42/40
f 165/42/41 166/41/41 168/43/41 167/44/41
f 167/44/42 168/43/42 170/45/42 169/46/42
f 169/46/43 170/45/43 172/47/43 171/48/43
f 171/48/44 172/47/44 174/49/44 173/50/44
f 173/50/45 174/49/45 176/51/45 175/52/45
f 175/52/46 176/51/46 162/53/46 161/54/46
f 177/37/39 178/38/39 180/39/39 179/40/39
f 179/40/40 180/39/40 182/41/40 181/42/40
f 181/42/41 182/41/41 184/43/41 183/44/41
f 183/44/42 184/43/42 186/45/42 185/46/42
f 185/46/43 186/45/43 188/47/43 187/48/43
f 187/48/44 188/47/44 190/49/44 189/50/44
f 189/50/45 190/49/45 192/51/45 191/52/45
f 191/52/46 192/51/46 178/53/46 177/54/46
f 193/37/39 194/38/39 196/39/39 195/40/39
f 195/40/40 196/39/40 198/41/40 197/42/40
f 197/42/41 198/41/41 200/43/41 199/44/41
f 199/44/42 200/43/42 202/45/42 201/46/42
f 201/46/43 202/45/43 204/47/43 203/48/43
f 203/48/44 204/47/44 206/49/44 205/50/44
f 205/50/45 206/49/45 208/51/45 207/52/45
f 207/52/46 208/51/46 194/53/46 193/54/46
f 209/37/39 210/38/39 212/39/39 211/40/39
f 211/40/40 212/39/40 214/41/40 213/42/40
f 213/42/41 214/41/41 216/43/41 215/44/41
f 215/44/42 216/43/42 218/45/42 217/46/42
f 217/46/43 218/45/43 220/47/43 219/48/43
f 219/48/44 220/47/44 222/49/44 221/50/44
f 221/50/45 222/49/45 224/51/45 223/52/45
f 223/52/46 224/51/46 210/53/46 209/54/46
f 225/37/39 226/38/39 228/39/39 227/40/39
f 227/40/40 228/39/40 230/41/40 229/42/40
f 229/42/41 230/41/41 232/43/41 231/44/41
f 231/44/42 232/43/42 234/45/42 233/46/42
f 233/46/43 234/45/43 236/47/43 235/48/43
f 235/48/44 236/47/44 238/49/44 237/50/44
f 237/50/45 238/49/45 240/51/45 239/52/45
f 239/52/46 240/51/46 226/53/46 225/54/46
f 241/37/39 242/38/39 244/39/39 243/40/39
f 243/40/40 244/39/40 246/41/40 245/42/40
f 245/42/41 246/41/41 248/43/41 247/44/41
f 247/44/42 248/43/42 250/45/42 249/46/42
f 249/46/43 250/45/43 252/47/43 251/48/43
f 251/48/44 252/47/44 254/49/44 253/50/44
f 253/50/45 254/49/45 256/51/45 255/52/45
f 255/52/46 256/51/46 242/53/46 241/54/46
f 257/37/39 258/38/39 260/39/39 259/40/39
f 259/40/40 260/39/40 262/41/40 261/42/40
f 261/42/41 262/41/41 264/43/41 263/44/41
f 263/44/42 264/43/42 266/45/42 265/46/42
f 265/46/43 266/45/43 268/47/43 267/48/43
f 267/48/44 268/47/44 270/49/44 269/50/44
f 269/50/45 270/49/45 272/51/45 271/52/45
f 271/52/46 272/51/46 258/53/46 257/54/46
f 273/37/39 274/38/39 276/39/39 275/40/39
f 275/40/40 276/39/40 278/41/40 277/42/40
f 277/42/41 278/41/41 280/43/41 279/44/41
f 279/44/42 280/43/42 282/45/42 281/46/42
f 281/46/43 282/45/43 284/47/43 283/48/43
f 283/48/44 284/47/44 286/49/44 285/50/44
f 285/50/45 286/49/45 288/51/45 287/52/45
f 287/52/46 288/51/46 274/53/46 273/54/46
