# Blender 4.4.3
# www.blender.org
o SM_Intersection_Road_V1.0
v -6.000000 0.000000 -6.000000
v -6.000000 0.100000 -6.000000
v -6.000000 -0.000000 6.000000
v -6.000000 0.100000 6.000000
v 6.000000 0.000000 -6.000000
v 6.000000 0.100000 -6.000000
v 6.000000 -0.000000 6.000000
v 6.000000 0.100000 6.000000
v -6.000000 0.000000 -20.000000
v -6.000000 0.100000 -20.000000
v 6.000000 0.100000 -20.000000
v 6.000000 0.000000 -20.000000
v -6.000000 0.100000 20.000000
v -6.000000 -0.000000 20.000000
v 6.000000 -0.000000 20.000000
v 6.000000 0.100000 20.000000
v -20.000000 -0.000000 6.000000
v -20.000000 0.000000 -6.000000
v -20.000000 0.100000 -6.000000
v -20.000000 0.100000 6.000000
v 20.000000 0.100000 6.000000
v 20.000000 -0.000000 6.000000
v 20.000000 0.000000 -6.000000
v 20.000000 0.100000 -6.000000
vn -0.0000 -0.0000 -1.0000
vn 1.0000 -0.0000 -0.0000
vn -0.0000 1.0000 -0.0000
vn -1.0000 -0.0000 -0.0000
vn -0.0000 -0.0000 1.0000
vt 0.471422 0.988693
vt 0.471422 0.992987
vt 0.019256 0.992987
vt 0.019256 0.988693
vt 0.471422 0.469077
vt 0.471422 0.473372
vt 0.019256 0.473372
vt 0.019256 0.469077
vt 0.016354 0.990017
vt 0.016354 0.474695
vt 0.468519 0.474695
vt 0.468519 0.990017
vt 0.016354 0.994311
vt 0.016354 0.990017
vt 0.468519 0.990017
vt 0.468519 0.994311
vt 0.484045 0.489790
vt 0.990832 0.489790
vt 0.990832 0.996577
vt 0.484045 0.996577
vt 0.471749 0.474695
vt 0.471749 0.990017
vt 0.468519 0.474695
vt 0.016354 0.474695
vt 0.016354 0.470401
vt 0.468519 0.470401
vt 0.016026 0.988693
vt 0.016026 0.473372
vt 0.471749 0.474695
vt 0.016354 0.470401
vt 0.468519 0.470401
vt 0.016354 0.994311
vt 0.468519 0.994311
s 0
f 2/1/1 1/2/1 18/3/1 19/4/1
f 7/5/2 8/6/2 16/7/2 15/8/2
f 6/9/3 8/10/3 21/11/3 24/12/3
f 1/13/4 2/14/4 10/15/4 9/16/4
f 8/17/3 6/18/3 2/19/3 4/20/3
f 12/21/1 9/22/1 10/15/1 11/23/1
f 2/14/3 6/24/3 11/23/3 10/15/3
f 6/24/2 5/25/2 12/26/2 11/23/2
f 14/27/5 15/28/5 16/7/5 13/4/5
f 8/6/3 4/1/3 13/4/3 16/7/3
f 4/1/4 3/2/4 14/3/4 13/4/4
f 18/27/4 17/28/4 20/7/4 19/4/4
f 4/6/3 2/1/3 19/4/3 20/7/3
f 3/5/5 4/6/5 20/7/5 17/8/5
f 22/29/2 23/22/2 24/12/2 21/11/2
f 8/10/5 7/30/5 22/31/5 21/11/5
f 5/32/1 6/9/1 24/12/1 23/33/1
