# Blender 4.4.3
# www.blender.org
o SM_StraightSmall_Road_V1.0
v -6.000000 0.000000 -10.000000
v -6.000000 0.100000 -10.000000
v -6.000000 -0.000000 10.000000
v -6.000000 0.100000 10.000000
v 6.000000 0.000000 -10.000000
v 6.000000 0.100000 -10.000000
v 6.000000 -0.000000 10.000000
v 6.000000 0.100000 10.000000
vn -1.0000 -0.0000 -0.0000
vn -0.0000 -0.0000 1.0000
vn 1.0000 -0.0000 -0.0000
vn -0.0000 -0.0000 -1.0000
vn -0.0000 1.0000 -0.0000
vt 0.538171 0.005820
vt 0.538171 0.994180
vt 0.533762 0.994180
vt 0.533762 0.005820
vt 0.533762 0.998298
vt 0.004698 0.998298
vt 0.004698 0.994180
vt 0.000289 0.994180
vt 0.000289 0.005820
vt 0.004698 0.005820
vt 0.004698 0.001702
vt 0.533762 0.001702
s 0
f 1/1/1 3/2/1 4/3/1 2/4/1
f 3/5/2 7/6/2 8/7/2 4/3/2
f 7/8/3 5/9/3 6/10/3 8/7/3
f 5/11/4 1/12/4 2/4/4 6/10/4
f 8/7/5 6/10/5 2/4/5 4/3/5
