# Blender 4.4.3
# www.blender.org
o SM_Wavy_Road_V1.0
v 6.000000 -0.000000 35.000000
v 6.015564 0.100000 34.918411
v 4.000000 0.000000 -5.000000
v -8.000000 0.000000 -25.000000
v -8.000000 0.100000 -25.000000
v -8.000000 -0.000000 -5.000000
v -8.000000 0.100000 -5.000000
v 4.000000 0.100000 -25.000000
v 4.000000 0.100000 -5.000000
v -6.000000 0.000000 -45.000000
v -6.000000 0.100000 -45.000000
v 6.000000 0.000000 -45.000000
v 6.000000 0.100000 -45.000000
v 4.000000 -0.000000 -25.000000
v 8.000000 0.000000 5.000000
v -4.000000 0.000000 5.000000
v -4.000000 0.100000 5.000000
v 8.000000 0.100000 5.000000
v 6.000000 0.000000 -35.000000
v -6.000000 0.000000 -35.000000
v -6.000000 0.100000 -35.000000
v 6.000000 0.100000 -35.000000
v -4.000000 0.000000 25.000000
v -4.000000 0.100000 25.000000
v 8.000000 0.100000 25.000000
v 8.000000 -0.000000 25.000000
v -5.984436 0.100000 34.918411
v -5.984436 -0.000000 34.918411
v -5.969767 0.135908 44.913757
v -5.969767 0.035908 44.913757
v 6.014670 0.035908 44.995346
v 6.030234 0.135908 44.913757
vn -0.9806 -0.0000 -0.1962
vn -1.0000 -0.0000 -0.0000
vn 1.0000 -0.0000 -0.0000
vn -0.0000 1.0000 -0.0000
vn 0.9285 -0.0000 -0.3714
vn -0.9806 -0.0000 -0.1961
vn -0.0000 -0.0000 -1.0000
vn -0.9285 -0.0000 0.3714
vn 0.9806 -0.0000 0.1961
vn 0.9806 0.0037 0.1962
vn -0.0000 1.0000 -0.0036
vn -0.0031 0.3779 0.9258
vn -1.0000 -0.0000 0.0015
vn 0.9880 -0.1545 -0.0009
vt 0.990507 0.322036
vt 0.767176 0.322225
vt 0.766754 0.320017
vt 0.990084 0.319828
vt 0.766754 0.048411
vt 0.769010 0.050268
vt 0.992341 0.050079
vt 0.991918 0.047871
vt 0.750335 0.369153
vt 0.512881 0.367025
vt 0.514424 0.365448
vt 0.750888 0.367159
vt 0.510214 0.016171
vt 0.512909 0.017745
vt 0.750888 0.015931
vt 0.749607 0.012753
s 0
f 23/1/1 28/2/1 27/3/1 24/4/1
f 23/1/2 24/4/2 17/3/2 16/2/2
f 15/5/3 18/6/3 25/7/3 26/8/3
f 25/7/4 18/6/4 17/3/4 24/4/4
f 15/1/5 3/2/5 9/3/5 18/4/5
f 18/4/4 9/3/4 7/6/4 17/7/4
f 4/1/2 6/2/2 7/3/2 5/4/2
f 3/5/3 14/8/3 8/7/3 9/6/3
f 20/1/6 4/2/6 5/3/6 21/4/6
f 19/9/3 12/10/3 13/11/3 22/12/3
f 12/10/7 10/13/7 11/14/7 13/11/7
f 22/12/4 13/11/4 11/14/4 21/15/4
f 6/5/8 16/8/8 17/7/8 7/6/8
f 8/6/4 22/7/4 21/4/4 5/3/4
f 14/5/9 19/8/9 22/7/9 8/6/9
f 10/13/2 20/16/2 21/15/2 11/14/2
f 2/6/4 25/7/4 24/4/4 27/3/4
f 1/5/10 26/8/10 25/7/10 2/6/10
f 9/6/4 8/7/4 5/4/4 7/3/4
f 2/13/11 27/10/11 29/11/11 32/14/11
f 30/12/12 31/15/12 32/14/12 29/11/12
f 27/10/13 28/9/13 30/12/13 29/11/13
f 1/16/14 2/13/14 32/14/14 31/15/14
