# Blender 4.4.3
# www.blender.org
o SM_3DLrg_Tree_V1.0
v -0.003260 0.006802 -0.442219
v 0.360886 0.006802 -0.225711
v 0.196835 0.006802 0.043297
v 0.216888 0.006802 0.312739
v -0.000026 0.006802 0.187898
v -0.327924 0.006802 0.348610
v -0.187949 0.006802 -0.000026
v -0.279997 0.006802 -0.225190
v 0.075231 1.879746 -0.075248
v 0.106397 1.879746 -0.000009
v 0.075231 1.879746 0.075231
v -0.075248 1.879746 0.075231
v -0.000009 1.879746 -0.106414
v -0.000009 1.879746 0.106397
v -0.106414 1.879746 -0.000009
v -0.074756 1.879746 -0.074756
v 0.012980 0.736088 0.173571
v -0.160375 0.778392 -0.003513
v -0.128506 0.738957 -0.101349
v -0.142937 0.681713 0.126548
v 0.101345 0.769722 0.101345
v -0.029676 0.746653 -0.143386
v 0.101345 0.693255 -0.101396
v 0.151330 0.782586 -0.003348
v -0.050711 0.769722 0.192190
v -0.037628 1.879746 0.090814
v -0.126369 0.006802 0.275972
v 0.034261 0.700241 -0.122391
v 0.037611 1.879746 -0.090831
v 0.084137 0.006802 -0.250602
v -0.014140 1.575514 0.017029
v 0.853845 3.501985 0.561812
v -0.409876 3.645298 0.972478
v -1.013853 3.496710 0.003766
v -0.214187 3.649970 -1.103136
v 0.943617 3.559063 -0.736300
v 0.051283 5.693048 0.543422
v -0.512974 5.480332 0.400129
v -0.299409 5.580256 -0.599123
v 0.327670 5.597642 -0.564930
v 0.699846 5.608037 0.017420
v 0.031172 6.218700 -0.219256
v -0.355147 2.417360 1.149494
v 1.037033 2.423557 0.714480
v 0.365421 3.294022 1.008159
v 1.077974 3.076889 -0.181848
v 1.051453 2.425005 -0.703169
v -1.132285 2.409507 -0.060458
v -0.811044 3.297424 0.624549
v -0.281823 2.579871 -1.247031
v -0.847252 3.371251 -0.705640
v 0.444973 3.412948 -1.104200
v 1.029555 4.657033 0.244840
v 1.149666 4.296156 -0.310434
v -0.013830 4.388098 0.939892
v 0.801441 4.370858 0.857177
v -0.972435 4.399578 0.347028
v -0.616213 4.616645 0.684224
v -0.263283 4.388650 -0.754005
v -0.924614 4.543131 -0.558679
v 0.809082 4.398333 -0.823442
v 0.009820 4.358236 -0.890922
v 0.525091 5.604551 0.069684
v -0.125831 5.697794 0.534407
v -0.556839 5.744681 -0.014376
v -0.044338 5.548069 -0.426072
v 0.537463 5.658727 -0.353495
v -0.291313 2.157696 1.043307
v -0.845670 2.106957 -0.160634
v -0.074379 2.004136 -0.738178
v 0.739866 2.026116 0.518597
v 0.738775 1.912013 -0.303184
v 0.394886 2.458760 -1.093350
v -0.669090 2.521291 -0.518521
v -0.727669 2.307981 0.797319
v 0.820860 2.389906 -0.038871
v 0.453361 2.522744 0.803180
v 0.020445 0.359269 0.175036
v -0.165668 0.463818 0.044062
v -0.190673 0.388262 -0.163269
v -0.187503 0.372495 0.143443
v 0.131096 0.388262 0.228384
v 0.181333 0.388262 -0.129225
v 0.128576 0.388262 -0.004166
v -0.080349 0.388262 -0.238684
v -0.088540 0.388262 0.199156
v 0.067398 0.388262 -0.186497
vn -0.9648 0.0976 0.2441
vn -0.9653 0.0564 0.2551
vn 0.0347 0.3456 0.9377
vn 0.5272 0.0443 0.8486
vn 0.9102 0.0336 0.4129
vn 0.8983 0.0336 -0.4380
vn 0.3312 0.0262 -0.9432
vn -0.5794 0.2761 -0.7669
vn -0.3920 0.0401 -0.9191
vn 0.3950 0.2058 -0.8953
vn 0.9964 0.0824 -0.0206
vn 0.9896 0.0318 0.1405
vn 0.0403 0.1689 0.9848
vn -0.5645 0.0741 0.8221
vn -0.9951 0.0847 0.0504
vn -0.9336 0.0496 -0.3550
vn 0.4366 0.0749 0.8965
vn 0.0546 0.0745 0.9957
vn 0.3599 0.2069 -0.9098
vn 0.3480 0.0228 -0.9372
vn 0.1569 -0.8402 0.5190
vn 0.9648 0.1897 0.1823
vn -0.5586 -0.7771 0.2900
vn -0.4227 -0.8023 -0.4216
vn 0.1692 -0.8513 -0.4967
vn 0.9465 -0.0568 0.3177
vn -0.0210 0.0550 0.9983
vn -0.9546 -0.0666 0.2905
vn -0.5996 0.3091 -0.7382
vn 0.5916 0.0111 -0.8062
vn 0.9437 -0.0540 0.3263
vn -0.3142 0.2081 0.9263
vn -0.9972 0.0620 -0.0428
vn -0.3820 0.3740 -0.8451
vn 0.8377 0.0782 -0.5406
vn 0.5790 0.6784 0.4523
vn -0.5502 0.7361 0.3942
vn -0.6493 0.6080 -0.4568
vn -0.3685 0.3116 -0.8759
vn 0.6989 0.6829 -0.2126
vn 0.4812 0.5904 -0.6480
vn 0.5676 0.1836 -0.8025
vn -0.4194 0.7446 0.5193
vn -0.0068 0.8233 0.5676
vn 0.2275 0.5583 0.7978
vn 0.8658 0.3786 -0.3273
vn 0.8111 0.3496 -0.4689
vn 0.5947 0.3902 -0.7029
vn -0.3684 0.3237 -0.8715
vn -0.3963 0.3184 -0.8612
vn 0.5677 0.1230 -0.8140
vn -0.7671 0.4444 -0.4627
vn -0.9557 0.2943 -0.0038
vn -0.8773 0.3572 0.3206
vn -0.4681 0.3261 0.8213
vn -0.2920 0.2600 0.9204
vn -0.0408 0.2923 0.9554
vn 0.6556 0.5051 0.5613
vn 0.7263 0.4780 0.4940
vn 0.2667 0.3106 0.9124
vn 0.0699 0.2369 -0.9690
vn 0.0690 0.2497 -0.9659
vn 0.0916 0.2591 -0.9615
vn -0.2561 0.1170 -0.9596
vn -0.2595 0.1033 -0.9602
vn -0.9743 -0.0364 -0.2224
vn -0.7450 0.2871 0.6022
vn -0.7087 0.0729 0.7017
vn -0.6870 0.0687 0.7234
vn 0.1027 0.2845 0.9532
vn 0.1025 0.0973 0.9900
vn 0.7051 -0.1897 0.6832
vn 0.9453 0.3260 -0.0074
vn 0.9723 -0.0327 0.2316
vn 0.9479 -0.0880 -0.3062
vn 0.5873 0.0322 -0.8088
vn 0.3745 -0.0302 -0.9267
vn 0.0453 0.1303 -0.9904
vn -0.5711 0.1448 -0.8080
vn -0.7584 -0.2877 -0.5849
vn -0.9617 0.1193 -0.2469
vn -0.9392 0.0826 0.3333
vn -0.8412 0.0234 0.5402
vn -0.6889 0.0732 0.7211
vn 0.9830 0.0888 -0.1610
vn 0.9371 -0.3488 0.0092
vn 0.8300 -0.5145 -0.2152
vn 0.0195 0.1435 0.9895
vn 0.2922 -0.2144 0.9320
vn 0.6087 0.2116 0.7647
vn 0.9006 -0.3183 0.2958
vn 0.9830 -0.1821 0.0240
vn 0.4479 -0.8857 0.1224
vn 0.3389 -0.6982 -0.6306
vn 0.2486 -0.7425 -0.6220
vn 0.0558 -0.6498 -0.7580
vn -0.6800 -0.6077 -0.4103
vn -0.5879 -0.3706 -0.7191
vn -0.6152 -0.3486 -0.7071
vn -0.6671 -0.7083 0.2308
vn -0.4327 -0.8701 0.2359
vn -0.5512 -0.4283 0.7161
vn 0.4086 -0.2576 0.8756
vn 0.4106 -0.2634 0.8730
vn 0.0532 -0.4732 0.8794
vn 0.6831 0.3151 -0.6588
vn 0.2406 0.0012 0.9706
vn -0.9411 0.1245 -0.3145
vn -0.4815 0.0728 0.8734
vn 0.9807 0.1904 -0.0441
vn 0.8493 0.2458 0.4672
vn 0.1992 0.2507 -0.9473
vn -0.4798 0.2620 -0.8373
vn -0.5701 0.0962 0.8159
vn -0.9929 0.1020 -0.0608
vt 0.050661 0.810967
vt 0.039805 0.810967
vt 0.039805 0.808347
vt 0.050661 0.808347
vt 0.059536 0.813587
vt 0.059536 0.898583
vt 0.050661 0.898583
vt 0.050661 0.813587
vt 0.063974 0.810967
vt 0.059536 0.810967
vt 0.059536 0.808347
vt 0.063974 0.808347
vt 0.077286 0.813587
vt 0.077286 0.898583
vt 0.068411 0.898583
vt 0.068411 0.813587
vt 0.086161 0.813587
vt 0.086161 0.898583
vt 0.020075 0.813587
vt 0.020075 0.898583
vt 0.011200 0.898583
vt 0.011200 0.813587
vt 0.024512 0.813587
vt 0.024512 0.898583
vt 0.028950 0.810967
vt 0.028950 0.808347
vt 0.039805 0.898583
vt 0.028950 0.898583
vt 0.028950 0.813587
vt 0.039805 0.813587
vt 0.024512 0.810967
vt 0.020075 0.810967
vt 0.011200 0.810967
vt 0.086161 0.810967
vt 0.077286 0.810967
vt 0.068411 0.810967
vt 0.063974 0.898583
vt 0.063974 0.813587
vt 0.068411 0.808347
vt 0.133739 0.548430
vt 0.064031 0.489944
vt 0.175196 0.446453
vt 0.224584 0.607761
vt 0.273041 0.636685
vt 0.182373 0.661278
vt 0.221704 0.572179
vt 0.138711 0.625061
vt 0.061120 0.574160
vt 0.175069 0.590648
vt 0.210360 0.498998
vt 0.250070 0.552503
vt 0.195537 0.536942
vt 0.123498 0.472306
vt 0.180835 0.463055
vt 0.152563 0.505718
vt 0.073306 0.565519
vt 0.071122 0.505899
vt 0.109127 0.555767
vt 0.129231 0.640282
vt 0.082038 0.617762
vt 0.128614 0.602201
vt 0.200904 0.574317
vt 0.172446 0.518780
vt 0.117310 0.525170
vt 0.107896 0.570065
vt 0.154943 0.611524
vt 0.170921 0.514114
vt 0.204753 0.558948
vt 0.152850 0.568321
vt 0.120727 0.503177
vt 0.156822 0.510235
vt 0.109426 0.592514
vt 0.113313 0.540357
vt 0.164996 0.611993
vt 0.131563 0.605311
vt 0.209710 0.572276
vt 0.186564 0.597695
vt 0.281722 0.650586
vt 0.217210 0.694187
vt 0.109546 0.697113
vt 0.072017 0.673129
vt 0.016757 0.583148
vt 0.036758 0.468005
vt 0.107661 0.436550
vt 0.200244 0.420236
vt 0.282859 0.475367
vt 0.282859 0.564595
vt 0.122788 0.697113
vt 0.048567 0.650004
vt 0.016757 0.570109
vt 0.040997 0.472883
vt 0.102509 0.420236
vt 0.210188 0.420236
vt 0.258819 0.459776
vt 0.207426 0.692286
vt 0.026130 0.455954
vt 0.016757 0.544179
vt 0.289577 0.563753
vt 0.016757 0.625689
vt 0.085182 0.673145
vt 0.158505 0.697113
vt 0.220382 0.631329
vt 0.262560 0.566931
vt 0.221253 0.471844
vt 0.184744 0.420236
vt 0.087111 0.430757
vt 0.024512 0.808347
vt 0.077286 0.808347
vt 0.086161 0.808347
vt 0.020075 0.808347
vt 0.011200 0.808347
s 0
f 79/1/1 80/2/1 8/3/1 7/4/1
f 20/5/2 12/6/2 15/7/2 18/8/2
f 86/9/3 81/10/3 6/11/3 27/12/3
f 21/13/4 11/14/4 14/15/4 17/16/4
f 24/17/5 10/18/5 11/14/5 21/13/5
f 23/19/6 9/20/6 10/21/6 24/22/6
f 28/23/7 29/24/7 9/20/7 23/19/7
f 80/2/8 85/25/8 1/26/8 8/3/8
f 16/27/9 13/28/9 22/29/9 19/30/9
f 87/31/10 28/23/10 23/19/10 83/32/10
f 83/32/11 23/19/11 24/22/11 84/33/11
f 84/34/12 24/17/12 21/13/12 82/35/12
f 82/35/13 21/13/13 17/16/13 78/36/13
f 26/37/14 12/6/14 20/5/14 25/38/14
f 81/10/15 20/5/15 18/8/15 79/1/15
f 15/7/16 16/27/16 19/30/16 18/8/16
f 78/36/17 86/9/17 27/12/17 5/39/17
f 14/15/18 26/37/18 25/38/18 17/16/18
f 85/25/19 22/29/19 28/23/19 87/31/19
f 22/29/20 13/28/20 29/24/20 28/23/20
f 31/40/21 71/41/21 68/42/21
f 32/43/22 44/44/22 46/45/22
f 31/40/23 68/42/23 69/46/23
f 31/40/24 69/46/24 70/47/24
f 31/40/25 70/47/25 72/48/25
f 32/43/26 46/45/26 53/49/26
f 33/50/27 45/51/27 55/52/27
f 34/53/28 49/54/28 57/55/28
f 35/56/29 51/57/29 59/58/29
f 36/59/30 52/60/30 61/61/30
f 32/43/31 53/49/31 56/62/31
f 33/50/32 55/52/32 58/63/32
f 34/53/33 57/55/33 60/64/33
f 35/56/34 59/58/34 62/65/34
f 36/59/35 61/61/35 54/66/35
f 37/67/36 63/68/36 42/69/36
f 38/70/37 64/71/37 42/69/37
f 39/72/38 65/73/38 42/69/38
f 40/74/39 66/75/39 42/69/39
f 41/76/40 67/77/40 42/69/40
f 67/77/41 40/74/41 42/69/41
f 66/75/42 39/72/42 42/69/42
f 65/73/43 38/70/43 42/69/43
f 64/71/44 37/67/44 42/69/44
f 63/68/45 41/76/45 42/69/45
f 54/78/46 67/77/46 41/76/46
f 54/78/47 61/79/47 67/77/47
f 61/79/48 40/74/48 67/77/48
f 62/80/49 66/75/49 40/74/49
f 62/80/50 59/81/50 66/75/50
f 59/81/51 39/72/51 66/75/51
f 60/82/52 65/73/52 39/72/52
f 60/82/53 57/83/53 65/73/53
f 57/83/54 38/70/54 65/73/54
f 58/84/55 64/71/55 38/70/55
f 58/84/56 55/85/56 64/71/56
f 55/85/57 37/67/57 64/71/57
f 56/86/58 63/68/58 37/67/58
f 56/86/59 53/87/59 63/68/59
f 53/87/60 41/76/60 63/68/60
f 61/79/61 62/80/61 40/74/61
f 61/61/62 52/60/62 62/65/62
f 52/60/63 35/56/63 62/65/63
f 59/81/64 60/82/64 39/72/64
f 59/58/65 51/57/65 60/64/65
f 51/57/66 34/53/66 60/64/66
f 57/83/67 58/84/67 38/70/67
f 57/55/68 49/54/68 58/63/68
f 49/54/69 33/50/69 58/63/69
f 55/85/70 56/86/70 37/67/70
f 55/52/71 45/51/71 56/62/71
f 45/51/72 32/43/72 56/62/72
f 53/87/73 54/78/73 41/76/73
f 53/49/74 46/45/74 54/66/74
f 46/45/75 36/59/75 54/66/75
f 47/88/76 52/60/76 36/59/76
f 47/88/77 73/89/77 50/90/77 52/60/77
f 50/90/78 35/56/78 52/60/78
f 50/90/79 51/57/79 35/56/79
f 50/90/80 74/91/80 48/92/80 51/57/80
f 48/92/81 34/53/81 51/57/81
f 48/92/82 49/54/82 34/53/82
f 48/92/83 75/93/83 43/94/83 49/54/83
f 43/94/84 33/50/84 49/54/84
f 46/45/85 47/88/85 36/59/85
f 46/45/86 44/44/86 76/95/86 47/88/86
f 44/96/87 71/41/87 76/97/87
f 43/94/88 45/51/88 33/50/88
f 43/94/89 77/98/89 44/44/89 45/51/89
f 44/44/90 32/43/90 45/51/90
f 76/97/91 72/48/91 47/99/91
f 76/97/92 71/41/92 72/48/92
f 71/41/93 31/40/93 72/48/93
f 72/48/94 73/100/94 47/99/94
f 72/48/95 70/47/95 73/100/95
f 70/47/96 50/101/96 73/100/96
f 70/47/97 74/102/97 50/101/97
f 70/47/98 69/46/98 74/102/98
f 69/46/99 48/103/99 74/102/99
f 69/46/100 75/104/100 48/103/100
f 69/46/101 68/42/101 75/104/101
f 68/42/102 43/105/102 75/104/102
f 68/42/103 77/106/103 43/105/103
f 68/42/104 71/41/104 77/106/104
f 71/41/105 44/96/105 77/106/105
f 1/26/106 85/25/106 87/31/106 30/107/106
f 17/16/107 25/38/107 86/9/107 78/36/107
f 6/11/108 81/10/108 79/1/108 7/4/108
f 4/108/109 82/35/109 78/36/109 5/39/109
f 3/109/110 84/34/110 82/35/110 4/108/110
f 2/110/111 83/32/111 84/33/111 3/111/111
f 30/107/112 87/31/112 83/32/112 2/110/112
f 19/30/113 22/29/113 85/25/113 80/2/113
f 25/38/114 20/5/114 81/10/114 86/9/114
f 18/8/115 19/30/115 80/2/115 79/1/115
