# Blender 4.4.3
# www.blender.org
o SM_Box_Planter_V1.0
v -0.500000 0.050000 0.500000
v -0.500000 1.050000 0.500000
v -0.500000 0.050000 -0.500000
v -0.500000 1.050000 -0.500000
v 0.500000 0.050000 0.500000
v 0.500000 1.050000 0.500000
v 0.500000 0.050000 -0.500000
v 0.500000 1.050000 -0.500000
v -0.500000 0.050000 -0.250000
v -0.500000 0.050000 0.250000
v -0.396978 1.050000 -0.396978
v 0.396978 1.050000 -0.396978
v 0.500000 0.050000 0.250000
v 0.500000 0.050000 -0.250000
v -0.355983 0.987386 0.355983
v -0.355983 0.987386 -0.355983
v 0.300000 0.050000 -0.500000
v -0.300000 0.050000 -0.500000
v 0.396978 1.050000 0.396978
v 0.355983 0.987386 0.355983
v -0.300000 0.050000 0.500000
v 0.300000 0.050000 0.500000
v 0.355983 0.987386 -0.355983
v -0.396978 1.050000 0.396978
v 0.300000 0.050000 -0.250000
v -0.300000 0.050000 -0.250000
v 0.300000 0.050000 0.250000
v -0.300000 0.050000 0.250000
v -0.500000 0.000000 0.300000
v -0.500000 0.000000 0.500000
v -0.350000 0.000000 -0.500000
v -0.500000 0.000000 -0.500000
v 0.500000 0.000000 -0.300000
v 0.500000 0.000000 -0.500000
v 0.350000 0.000000 0.500000
v 0.500000 0.000000 0.500000
v -0.500000 0.000000 -0.300000
v 0.500000 0.000000 0.300000
v -0.350000 0.000000 -0.300000
v -0.350000 0.000000 0.300000
v 0.350000 0.000000 -0.500000
v -0.350000 0.000000 0.500000
v 0.350000 0.000000 -0.300000
v 0.350000 0.000000 0.300000
vn -1.0000 -0.0000 -0.0000
vn -0.0000 -0.0000 -1.0000
vn 1.0000 -0.0000 -0.0000
vn -0.0000 -0.0000 1.0000
vn 0.8366 0.5478 -0.0000
vn -0.0000 1.0000 -0.0000
vn -0.0000 -0.7071 -0.7071
vn -0.0000 -0.7071 0.7071
vn 0.7071 -0.7071 -0.0000
vn -0.7071 -0.7071 -0.0000
vn -0.0000 0.5478 0.8366
vn -0.8366 0.5478 -0.0000
vn -0.0000 0.5478 -0.8366
vt 0.298525 0.812203
vt 0.298525 0.900303
vt 0.369005 0.812203
vt 0.386625 0.900303
vt 0.386625 0.812203
vt 0.316145 0.812203
vt 0.393425 0.857768
vt 0.447229 0.857768
vt 0.447229 0.809450
vt 0.406876 0.809450
vt 0.013764 0.975128
vt 0.088753 0.975353
vt 0.082798 0.976092
vt 0.019673 0.975881
vt 0.377549 0.900303
vt 0.447229 0.809450
vt 0.406876 0.809450
vt 0.307601 0.900303
vt 0.088824 0.716116
vt 0.089625 0.797330
vt 0.008411 0.798132
vt 0.007610 0.716917
vt 0.012369 0.984582
vt 0.018324 0.983842
vt 0.087358 0.984807
vt 0.081449 0.984054
s 0
f 9/1/1 4/2/1 3/1/1
f 17/3/2 8/4/2 7/5/2
f 13/5/3 6/4/3 5/5/3
f 21/6/4 2/2/4 1/1/4
f 17/7/2 7/8/2 34/9/2 41/10/2
f 11/11/5 24/12/5 15/13/5 16/14/5
f 6/4/6 8/4/6 12/15/6 19/15/6
f 27/7/7 13/8/7 38/9/7 44/10/7
f 7/5/3 8/4/3 14/5/3
f 14/5/3 8/4/3 6/4/3 13/5/3
f 1/1/1 2/2/1 10/1/1
f 10/1/1 2/2/1 4/2/1 9/1/1
f 9/7/1 3/8/1 32/9/1 37/10/1
f 3/8/2 18/8/2 31/16/2 32/9/2
f 5/5/4 6/4/4 22/3/4
f 22/3/4 6/4/4 2/2/4 21/6/4
f 3/1/2 4/2/2 18/6/2
f 18/6/2 4/2/2 8/4/2 17/3/2
f 7/8/3 14/8/3 33/16/3 34/9/3
f 26/7/8 9/7/8 37/10/8 39/17/8
f 1/17/1 10/7/1 29/7/1 30/10/1
f 10/7/7 28/8/7 40/8/7 29/7/7
f 13/8/3 5/8/3 36/16/3 38/9/3
f 18/8/9 26/7/9 39/17/9 31/16/9
f 28/8/9 21/16/9 42/9/9 40/8/9
f 21/16/4 1/17/4 30/10/4 42/9/4
f 25/7/10 17/7/10 41/10/10 43/17/10
f 5/8/4 22/7/4 35/17/4 36/16/4
f 14/8/8 25/7/8 43/17/8 33/16/8
f 22/7/10 27/7/10 44/10/10 35/17/10
f 4/2/6 2/2/6 24/18/6 11/18/6
f 8/4/6 4/2/6 11/18/6 12/15/6
f 2/2/6 6/4/6 19/15/6 24/18/6
f 16/19/6 15/20/6 20/21/6 23/22/6
f 12/23/11 11/11/11 16/14/11 23/24/11
f 19/25/12 12/23/12 23/24/12 20/26/12
f 24/12/13 19/25/13 20/26/13 15/13/13
