# Blender 4.4.3
# www.blender.org
o SM_Bucket_Planter_V1.0
v -0.510558 0.864276 0.165890
v -0.315542 0.864276 0.434306
v -0.000000 0.864276 0.536832
v 0.315542 0.864276 0.434306
v 0.510558 0.864276 0.165890
v 0.510558 0.864276 -0.165890
v 0.315542 0.864276 -0.434306
v -0.000000 0.864276 -0.536832
v -0.510558 0.864276 -0.165890
v -0.315542 0.864276 -0.434306
v 0.195016 0.864276 0.063364
v -0.195016 0.864276 -0.063364
v -0.375235 1.000000 -0.516466
v -0.293893 0.000000 -0.404509
v -0.607142 1.000000 -0.197272
v -0.475528 0.000000 -0.154509
v -0.607142 1.000000 0.197272
v -0.475528 0.000000 0.154509
v -0.375235 1.000000 0.516466
v -0.293893 0.000000 0.404509
v -0.000000 1.000000 0.638387
v 0.000000 0.000000 0.500000
v 0.375235 1.000000 0.516466
v 0.293893 0.000000 0.404509
v 0.607142 1.000000 0.197272
v 0.475528 0.000000 0.154509
v 0.607142 1.000000 -0.197272
v 0.475528 0.000000 -0.154509
v 0.375235 1.000000 -0.516466
v 0.293893 0.000000 -0.404509
v -0.000000 1.000000 -0.638387
v 0.000000 0.000000 -0.500000
v -0.484075 0.064935 0.157285
v -0.299175 0.064935 0.411778
v -0.000000 0.064935 0.508986
v 0.299175 0.064935 0.411778
v 0.484075 0.064935 0.157285
v 0.484075 0.064935 -0.157285
v 0.299175 0.064935 -0.411778
v -0.000000 0.064935 -0.508986
v -0.484075 0.064935 -0.157285
v -0.299175 0.064935 -0.411778
v -0.239720 0.005985 -0.329946
v -0.387875 0.005985 -0.126028
v -0.387875 0.005985 0.126028
v -0.239720 0.005985 0.329946
v 0.239720 0.005985 0.329946
v 0.387875 0.005985 0.126028
v 0.387875 0.005985 -0.126028
v 0.239720 0.005985 -0.329946
v -0.394846 0.058950 0.128293
v -0.244028 0.058950 0.335876
v 0.244028 0.058950 0.335876
v 0.394846 0.058950 0.128293
v 0.394846 0.058950 -0.128293
v 0.244028 0.058950 -0.335876
v -0.394846 0.058950 -0.128293
v -0.244028 0.058950 -0.335876
v -0.510558 1.000000 0.165890
v -0.315542 1.000000 0.434306
v -0.000000 1.000000 0.536832
v 0.315542 1.000000 0.434306
v 0.510558 1.000000 0.165890
v 0.510558 1.000000 -0.165890
v 0.315542 1.000000 -0.434306
v -0.000000 1.000000 -0.536832
v -0.510558 1.000000 -0.165890
v -0.315542 1.000000 -0.434306
v -0.510558 0.864276 0.165890
v -0.315542 0.864276 0.434306
v -0.000000 0.864276 0.536832
v 0.315542 0.864276 0.434306
v 0.510558 0.864276 0.165890
v 0.510558 0.864276 -0.165890
v 0.315542 0.864276 -0.434306
v -0.000000 0.864276 -0.536832
v -0.510558 0.864276 -0.165890
v -0.315542 0.864276 -0.434306
vn -0.0000 1.0000 -0.0000
vn 0.3064 -0.1305 0.9429
vn 0.8021 -0.1305 0.5828
vn 0.9914 -0.1305 -0.0000
vn 0.8021 -0.1305 -0.5828
vn 0.3064 -0.1305 -0.9429
vn -0.3064 -0.1305 0.9429
vn -0.8021 -0.1305 0.5828
vn -0.9914 -0.1305 -0.0000
vn -0.8021 -0.1305 -0.5828
vn -0.3064 -0.1305 -0.9429
vn -0.3090 -0.0000 -0.9511
vn 0.8090 -0.0000 0.5878
vn -0.3090 -0.0000 0.9511
vn 0.8090 -0.0000 -0.5878
vn -0.8090 -0.0000 0.5878
vn 0.3090 -0.0000 -0.9511
vn -0.8090 -0.0000 -0.5878
vn 0.3090 -0.0000 0.9511
vn 1.0000 -0.0000 -0.0000
vn -1.0000 -0.0000 -0.0000
vt 0.022927 0.724530
vt 0.046814 0.716768
vt 0.046814 0.741885
vt 0.008164 0.744849
vt 0.070701 0.724530
vt 0.085464 0.744849
vt 0.046814 0.772930
vt 0.008164 0.769966
vt 0.085464 0.769966
vt 0.046814 0.798047
vt 0.022927 0.790285
vt 0.070701 0.790285
vt 0.421303 0.708231
vt 0.416229 0.770605
vt 0.441259 0.770605
vt 0.441259 0.708231
vt 0.408969 0.708231
vt 0.400759 0.770605
vt 0.416229 0.770605
vt 0.441259 0.770605
vt 0.466290 0.770605
vt 0.461216 0.708231
vt 0.481759 0.770605
vt 0.473550 0.708231
vt 0.466290 0.770605
vt 0.420211 0.770605
vt 0.407202 0.770605
vt 0.202566 0.709346
vt 0.201977 0.722665
vt 0.235335 0.722665
vt 0.235335 0.709346
vt 0.252276 0.722665
vt 0.252586 0.709346
vt 0.255761 0.710574
vt 0.255509 0.721438
vt 0.287351 0.722665
vt 0.287041 0.709346
vt 0.268693 0.722665
vt 0.268104 0.709346
vt 0.262544 0.721438
vt 0.262064 0.710574
vt 0.284118 0.721438
vt 0.283866 0.710574
vt 0.208606 0.710574
vt 0.208126 0.721438
vt 0.420211 0.761552
vt 0.407202 0.761552
vt 0.420211 0.770605
vt 0.462308 0.770605
vt 0.462308 0.770605
vt 0.475317 0.770605
vt 0.441259 0.761552
vt 0.462308 0.761552
vt 0.475317 0.761552
s 0
f 4/1/1 5/2/1 11/3/1 3/4/1
f 5/2/1 6/5/1 7/6/1 11/3/1
f 3/4/1 11/3/1 12/7/1 2/8/1
f 11/3/1 7/6/1 8/9/1 12/7/1
f 2/8/1 12/7/1 9/10/1 1/11/1
f 12/7/1 8/9/1 10/12/1 9/10/1
f 36/13/2 23/14/2 21/15/2 35/16/2
f 37/17/3 25/18/3 23/14/3 36/13/3
f 38/17/4 27/18/4 25/18/4 37/17/4
f 39/13/5 29/19/5 27/18/5 38/17/5
f 40/16/6 31/20/6 29/19/6 39/13/6
f 35/16/7 21/15/7 19/21/7 34/22/7
f 34/22/8 19/21/8 17/23/8 33/24/8
f 33/24/9 17/23/9 15/23/9 41/24/9
f 41/24/10 15/23/10 13/25/10 42/22/10
f 42/22/11 13/25/11 31/20/11 40/16/11
f 27/18/1 29/19/1 65/26/1 64/27/1
f 14/28/11 42/29/11 40/30/11 32/31/11
f 38/32/12 28/33/12 49/34/12 55/35/12
f 18/36/9 33/37/9 41/33/9 16/32/9
f 22/31/7 35/30/7 34/38/7 20/39/7
f 32/31/6 40/30/6 39/38/6 30/39/6
f 30/39/13 39/38/13 56/40/13 50/41/13
f 28/33/4 38/32/4 37/36/4 26/37/4
f 24/28/2 36/29/2 35/30/2 22/31/2
f 26/37/14 37/36/14 54/42/14 48/43/14
f 36/29/15 24/28/15 47/44/15 53/45/15
f 42/29/16 14/28/16 43/44/16 58/45/16
f 16/32/17 41/33/17 57/34/17 44/35/17
f 20/39/18 34/38/18 52/40/18 46/41/18
f 33/37/19 18/36/19 45/42/19 51/43/19
f 64/27/16 65/26/16 75/46/16 74/47/16
f 25/18/1 27/18/1 64/27/1 63/27/1
f 29/19/1 31/20/1 66/20/1 65/26/1
f 23/14/1 25/18/1 63/27/1 62/48/1
f 21/15/1 23/14/1 62/48/1 61/15/1
f 19/21/1 21/15/1 61/15/1 60/49/1
f 31/20/1 13/25/1 68/50/1 66/20/1
f 17/23/1 19/21/1 60/49/1 59/51/1
f 13/25/1 15/23/1 67/51/1 68/50/1
f 15/23/1 17/23/1 59/51/1 67/51/1
f 61/15/12 62/48/12 72/46/12 71/52/12
f 66/20/19 68/50/19 78/53/19 76/52/19
f 65/26/14 66/20/14 76/52/14 75/46/14
f 62/48/18 63/27/18 73/47/18 72/46/18
f 59/51/15 60/49/15 70/53/15 69/54/15
f 67/51/20 59/51/20 69/54/20 77/54/20
f 63/27/21 64/27/21 74/47/21 73/47/21
f 60/49/17 61/15/17 71/52/17 70/53/17
f 68/50/13 67/51/13 77/54/13 78/53/13
