# Blender 4.4.3
# www.blender.org
o SM_Blue_Kiosk_V1.0
v -0.836357 0.000000 1.500000
v -0.836357 2.000000 1.500000
v -0.836357 0.000000 -1.500000
v -0.836357 2.000000 -1.500000
v 0.963643 0.000000 1.500000
v 0.963643 2.000000 1.500000
v 0.963643 0.000000 -1.500000
v 0.963643 2.000000 -1.500000
v 0.963643 1.910249 -1.388690
v 0.963643 0.048735 -1.388690
v 0.963643 0.048735 1.388690
v 0.963643 1.910249 1.388690
v -0.746010 1.910249 -1.388690
v -0.746010 0.048735 -1.388690
v -0.746010 0.048735 1.388690
v -0.746010 1.910249 1.388690
v -0.836357 1.000000 1.500000
v -0.836357 1.000000 -1.500000
v -1.376357 1.000000 1.500000
v -1.376357 1.000000 -1.500000
v -1.376357 0.000000 1.500000
v -1.376357 0.000000 -1.500000
v 0.063643 2.465824 0.000000
v 0.592523 0.894751 1.388690
v 0.592523 0.894751 -1.388690
v 0.963643 0.894751 -1.388690
v 0.963643 0.894751 1.388690
v -0.982567 1.918449 1.632356
v -0.982567 1.918449 -1.632356
v 1.109854 1.910924 1.632356
v 1.109854 1.910924 -1.632356
v 0.963643 0.815207 1.388690
v 0.963643 0.815207 -1.388690
v 1.359671 0.894751 1.388690
v 1.359671 0.894751 -1.388690
v 1.359671 0.815207 1.388690
v 1.359671 0.815207 -1.388690
v 0.963643 1.607621 -1.388690
v 0.963643 1.607621 1.388690
v -0.281443 1.000000 1.500000
v -0.281443 1.703082 1.500000
v -0.281443 1.000000 -1.500000
v -0.281443 0.296918 -1.500000
v 0.554151 0.296918 -1.500000
v -0.281443 1.703082 -1.500000
v 0.554151 1.703082 -1.500000
v -0.281443 0.296918 1.500000
v 0.554151 0.296918 1.500000
v 0.554151 1.703082 1.500000
vn -1.0000 -0.0000 -0.0000
vn -0.0000 -0.0000 1.0000
vn 1.0000 -0.0000 -0.0000
vn -0.0000 -1.0000 -0.0000
vn -0.0000 1.0000 -0.0000
vn -0.0000 -0.0000 -1.0000
vn -0.0000 0.9550 -0.2966
vn -0.4597 0.8881 -0.0000
vn -0.0000 0.9550 0.2966
vn 0.4597 0.8881 -0.0000
vn 0.0016 0.8405 0.5418
vn 0.0016 0.8405 -0.5418
vn 0.5203 0.8540 -0.0000
vn -0.4871 0.8733 -0.0000
vt 0.409434 0.755895
vt 0.409434 0.799423
vt 0.473073 0.799423
vt 0.473073 0.755895
vt 0.366344 0.713350
vt 0.366344 0.771945
vt 0.320469 0.771945
vt 0.320469 0.713350
vt 0.409434 0.712367
vt 0.409434 0.725291
vt 0.411795 0.747851
vt 0.411795 0.751314
vt 0.073116 0.963728
vt 0.020064 0.963728
vt 0.473073 0.712367
vt 0.470712 0.714488
vt 0.411795 0.714488
vt 0.411795 0.795516
vt 0.470712 0.795516
vt 0.607601 0.457657
vt 0.607601 0.415273
vt 0.657943 0.415273
vt 0.657943 0.500040
vt 0.607601 0.500040
vt 0.470712 0.782344
vt 0.470712 0.751314
vt 0.073116 0.906048
vt 0.020064 0.906048
vt 0.073116 0.929797
vt 0.073116 0.932262
vt 0.073116 0.954351
vt 0.473073 0.725291
vt 0.657943 0.457657
vt 0.657943 0.500040
vt 0.607601 0.500040
vt 0.607601 0.415273
vt 0.657943 0.415273
vt 0.020064 0.954351
vt 0.020064 0.932262
vt 0.020064 0.929797
vt 0.211492 0.718705
vt 0.282561 0.718535
vt 0.247126 0.785658
vt 0.908194 0.761184
vt 0.969472 0.761184
vt 0.969472 0.797804
vt 0.908194 0.797804
vt 0.470712 0.747851
vt 0.205705 0.711652
vt 0.288321 0.711635
vt 0.908194 0.712937
vt 0.969472 0.712937
vt 0.969472 0.721096
vt 0.908194 0.721096
vt 0.969472 0.756454
vt 0.411795 0.782344
vt 0.908194 0.754619
vt 0.473073 0.786499
vt 0.409434 0.786499
s 0
f 17/1/1 2/2/1 4/3/1 18/4/1
f 21/5/1 19/6/1 20/7/1 22/8/1
f 1/9/2 5/9/2 48/10/2 47/10/2
f 5/9/3 32/11/3 27/12/3
f 9/13/4 12/14/4 16/14/4 13/13/4
f 5/9/3 7/15/3 10/16/3 11/17/3
f 8/3/3 6/2/3 12/18/3 9/19/3
f 40/20/2 47/21/2 48/22/2 49/23/2 41/24/2
f 8/3/3 38/25/3 26/26/3
f 14/27/3 13/13/3 16/14/3 15/28/3
f 10/27/2 33/29/2 26/30/2 38/31/2 9/13/2 13/13/2 14/27/2
f 1/5/2 17/6/2 19/6/2 21/5/2
f 17/6/5 18/7/5 20/7/5 19/6/5
f 7/15/6 3/15/6 43/32/6 44/32/6
f 42/33/6 45/34/6 46/35/6 44/36/6 43/37/6
f 18/7/6 3/8/6 22/8/6 20/7/6
f 12/14/6 39/38/6 27/39/6 32/40/6 11/28/6 15/28/6 16/14/6
f 8/41/7 4/42/7 23/43/7
f 4/41/8 2/42/8 23/43/8
f 2/41/9 6/42/9 23/43/9
f 6/41/10 8/42/10 23/43/10
f 11/28/5 10/27/5 14/27/5 15/28/5
f 27/44/5 26/45/5 25/46/5 24/47/5
f 11/17/3 10/16/3 33/48/3 32/11/3
f 6/42/11 2/41/11 28/49/11 30/50/11
f 4/42/12 8/41/12 31/49/12 29/50/12
f 8/42/13 6/41/13 30/49/13 31/50/13
f 2/42/14 4/41/14 29/49/14 28/50/14
f 36/51/3 37/52/3 35/53/3 34/54/3
f 33/55/6 26/45/6 35/53/6 37/52/6
f 9/19/3 12/18/3 39/56/3 38/25/3
f 27/44/2 32/57/2 36/51/2 34/54/2
f 26/45/5 27/44/5 34/54/5 35/53/5
f 12/18/3 6/2/3 39/56/3
f 6/2/3 5/9/3 27/12/3
f 39/56/3 6/2/3 27/12/3
f 5/9/3 11/17/3 32/11/3
f 10/16/3 7/15/3 33/48/3
f 7/15/3 8/3/3 26/26/3
f 33/48/3 7/15/3 26/26/3
f 8/3/3 9/19/3 38/25/3
f 18/4/6 4/3/6 45/58/6 42/4/6
f 6/2/2 2/2/2 41/59/2 49/59/2
f 8/3/6 7/15/6 44/32/6 46/58/6
f 2/2/2 17/1/2 40/1/2 41/59/2
f 4/3/6 8/3/6 46/58/6 45/58/6
f 5/9/2 6/2/2 49/59/2 48/10/2
f 17/1/2 1/9/2 47/10/2 40/1/2
f 3/15/6 18/4/6 42/4/6 43/32/6
