# Blender 4.4.3
# www.blender.org
o SM_Crumple_Paper_V1.0
v -0.100066 0.028243 0.112237
v -0.100188 0.034242 0.112237
v -0.070355 0.002433 -0.095944
v -0.070477 0.008431 -0.095944
v 0.070507 0.027491 0.104539
v 0.068824 0.032460 0.101628
v 0.097036 -0.001266 -0.059205
v 0.096915 0.004732 -0.059205
v -0.001843 0.123273 -0.091447
v -0.001964 0.129272 -0.091447
v 0.007761 0.135096 0.087534
v 0.007640 0.141095 0.087534
v -0.124669 0.089195 -0.021345
v -0.124790 0.095193 -0.021345
v 0.110865 0.106088 -0.013922
v 0.110744 0.112087 -0.013922
v 0.010844 0.036485 -0.021345
v 0.010965 0.030486 -0.021345
vn -0.8174 -0.0165 -0.5759
vn 0.3173 0.0064 -0.9483
vn 0.8401 0.2640 0.4739
vn 0.2191 0.0044 0.9757
vn -0.2031 -0.9765 0.0728
vn -0.2068 0.9659 -0.1557
vn 0.2090 0.9757 -0.0666
vn 0.2068 -0.9659 0.1557
vn 0.2730 0.2885 0.9177
vn 0.0633 0.0013 -0.9980
vn 0.2900 -0.9560 0.0434
vn 0.2691 0.9459 -0.1815
vn -0.2900 0.9560 -0.0434
vn -0.2691 -0.9459 0.1815
vn 0.9427 0.0190 -0.3331
vn -0.9848 -0.0199 0.1723
vt 0.440091 0.412094
vt 0.487753 0.412094
vt 0.487753 0.365840
vt 0.487753 0.319585
vt 0.440091 0.319585
vt 0.392428 0.319585
vt 0.392428 0.365840
vt 0.392428 0.412094
vt 0.440091 0.365840
s 0
f 13/1/1 14/1/1 4/2/1 3/2/1
f 9/3/2 10/3/2 8/4/2 7/4/2
f 15/5/3 16/5/3 6/6/3 5/6/3
f 11/7/4 12/7/4 2/8/4 1/8/4
f 18/9/5 15/5/5 5/6/5 11/7/5
f 17/9/6 14/1/6 2/8/6 12/7/6
f 16/5/7 17/9/7 12/7/7 6/6/7
f 13/1/8 18/9/8 11/7/8 1/8/8
f 5/6/9 6/6/9 12/7/9 11/7/9
f 3/2/10 4/2/10 10/3/10 9/3/10
f 3/2/11 9/3/11 18/9/11 13/1/11
f 8/4/12 10/3/12 17/9/12 16/5/12
f 10/3/13 4/2/13 14/1/13 17/9/13
f 9/3/14 7/4/14 15/5/14 18/9/14
f 7/4/15 8/4/15 16/5/15 15/5/15
f 1/8/16 2/8/16 14/1/16 13/1/16
