# Blender 4.4.3
# www.blender.org
o SM_Drawn_Paper_V1.0
v -0.300000 -0.003000 0.200000
v -0.300000 0.003000 0.200000
v -0.300000 -0.003000 -0.200000
v -0.300000 0.003000 -0.200000
v 0.300000 -0.003000 0.200000
v 0.300000 0.003000 0.200000
v 0.300000 -0.003000 -0.200000
v 0.300000 0.003000 -0.200000
vn -1.0000 -0.0000 -0.0000
vn -0.0000 -0.0000 -1.0000
vn 1.0000 -0.0000 -0.0000
vn -0.0000 -0.0000 1.0000
vn -0.0000 -1.0000 -0.0000
vn -0.0000 1.0000 -0.0000
vt 0.392428 0.412508
vt 0.487753 0.412508
vt 0.487753 0.319171
vt 0.392428 0.319171
s 0
f 1/1/1 2/1/1 4/2/1 3/2/1
f 3/2/2 4/2/2 8/3/2 7/3/2
f 7/3/3 8/3/3 6/4/3 5/4/3
f 5/4/4 6/4/4 2/1/4 1/1/4
f 3/2/5 7/3/5 5/4/5 1/1/5
f 8/3/6 4/2/6 2/1/6 6/4/6
