# Blender 4.4.3
# www.blender.org
o SM_Type2_StreetLamp_V1.0
v -0.000000 0.000883 -0.402984
v 0.284953 0.000883 -0.284952
v 0.402984 0.000883 0.000000
v 0.284953 0.000883 0.284952
v -0.000000 0.000883 0.402984
v -0.284953 0.000883 0.284952
v -0.402984 0.000883 0.000000
v -0.284953 0.000883 -0.284952
v -0.000000 11.660095 0.000000
v 0.000000 11.264315 -0.803039
v 0.567834 11.264315 -0.567834
v 0.803039 11.264315 0.000000
v 0.567834 11.264315 0.567834
v 0.000000 11.264315 0.803039
v -0.567834 11.264315 0.567834
v -0.803039 11.264315 0.000000
v -0.567834 11.264315 -0.567834
v -0.567834 11.165528 -0.567834
v -0.803039 11.165528 0.000000
v -0.567834 11.165528 0.567834
v 0.000000 11.165528 0.803039
v 0.567834 11.165528 0.567834
v 0.803039 11.165528 0.000000
v 0.567834 11.165528 -0.567834
v 0.000000 11.165528 -0.803039
v -0.000000 11.165528 -0.644774
v 0.455924 11.165528 -0.455924
v 0.644774 11.165528 0.000000
v 0.455924 11.165528 0.455924
v -0.000000 11.165528 0.644774
v -0.455924 11.165528 0.455924
v -0.644774 11.165528 0.000000
v -0.455924 11.165528 -0.455924
v -0.113981 11.000884 -0.113981
v -0.161194 11.000884 0.000000
v -0.113981 11.000884 0.113981
v -0.000000 11.000884 0.161193
v 0.113981 11.000884 0.113981
v 0.161193 11.000884 0.000000
v 0.113981 11.000884 -0.113981
v -0.000000 11.000884 -0.161193
v 0.310196 11.527722 -0.310196
v -0.000000 11.527721 -0.438684
v -0.310197 11.527721 0.310197
v -0.310196 11.527722 -0.310196
v 0.310196 11.527722 0.310196
v -0.438684 11.527721 -0.000000
v -0.000000 11.527721 0.438684
v 0.438684 11.527721 -0.000000
vn -0.2358 0.7875 0.5693
vn 0.5693 0.7875 -0.2358
vn -0.5693 0.7875 -0.2358
vn -0.2358 0.7875 -0.5693
vn 0.9239 -0.0000 -0.3827
vn 0.5693 0.7875 0.2358
vn 0.2358 0.7875 -0.5693
vn -0.5693 0.7875 0.2358
vn 0.2358 0.7875 0.5693
vn 0.3827 -0.0000 0.9239
vn -0.3827 -0.0000 0.9239
vn -0.0000 -1.0000 -0.0000
vn -0.1323 -0.9383 0.3195
vn -0.3827 -0.0000 -0.9239
vn -0.9239 -0.0000 -0.3827
vn 0.3827 -0.0000 -0.9239
vn 0.1323 -0.9383 -0.3195
vn -0.3195 -0.9383 -0.1323
vn -0.3195 -0.9383 0.1323
vn 0.3195 -0.9383 -0.1323
vn 0.3195 -0.9383 0.1323
vn 0.3826 0.0203 -0.9237
vn -0.9237 0.0203 0.3826
vn -0.9237 0.0203 -0.3826
vn -0.3826 0.0203 -0.9237
vn 0.9237 0.0203 0.3826
vn 0.3826 0.0203 0.9237
vn -0.1323 -0.9383 -0.3195
vn -0.3826 0.0203 0.9237
vn 0.9237 0.0203 -0.3826
vn -0.9239 -0.0000 0.3827
vn 0.9239 -0.0000 0.3827
vn 0.1323 -0.9383 0.3195
vn 0.2868 0.9506 -0.1188
vn 0.1188 0.9506 -0.2868
vn -0.2868 0.9506 -0.1188
vn -0.2868 0.9506 0.1188
vn -0.1188 0.9506 -0.2868
vn 0.1188 0.9506 0.2868
vn -0.1188 0.9506 0.2868
vn 0.2868 0.9506 0.1188
vt 0.590023 0.332067
vt 0.610748 0.367994
vt 0.618056 0.367994
vt 0.603402 0.332067
vt 0.668000 0.332067
vt 0.653345 0.367994
vt 0.635701 0.367994
vt 0.635701 0.332067
vt 0.660654 0.367994
vt 0.681379 0.332067
vt 0.668000 0.321047
vt 0.635701 0.321047
vt 0.618056 0.367994
vt 0.603402 0.321047
vt 0.590023 0.321047
vt 0.609767 0.321047
vt 0.744401 0.400899
vt 0.775892 0.319876
vt 0.691917 0.319876
vt 0.723408 0.400899
vt 0.681379 0.321047
vt 0.672376 0.321047
vt 0.661634 0.321047
vt 0.743948 0.400899
vt 0.775439 0.319876
vt 0.691464 0.319876
vt 0.722954 0.400899
vt 0.599025 0.321047
vt 0.744760 0.400899
vt 0.776251 0.319876
vt 0.692276 0.319876
vt 0.723767 0.400899
vt 0.659082 0.319860
vt 0.645214 0.408627
vt 0.642506 0.408627
vt 0.652313 0.319860
vt 0.619625 0.319860
vt 0.629432 0.408627
vt 0.635969 0.408627
vt 0.635969 0.319860
vt 0.626723 0.408627
vt 0.612856 0.319860
vt 0.635701 0.382762
s 0
f 14/1/1 48/2/1 44/3/1 15/4/1
f 11/5/2 42/6/2 49/7/2 12/8/2
f 16/8/3 47/7/3 45/6/3 17/5/3
f 17/5/4 45/6/4 43/9/4 10/10/4
f 24/11/5 11/5/5 12/8/5 23/12/5
f 12/8/6 49/7/6 46/13/6 13/4/6
f 10/10/7 43/9/7 42/6/7 11/5/7
f 15/4/8 44/3/8 47/7/8 16/8/8
f 13/4/9 46/13/9 48/2/9 14/1/9
f 22/14/10 13/4/10 14/1/10 21/15/10
f 21/15/11 14/1/11 15/4/11 20/14/11
f 31/16/12 20/14/12 19/12/12 32/12/12
f 37/17/13 30/18/13 31/19/13 36/20/13
f 18/11/14 17/5/14 10/10/14 25/21/14
f 26/22/12 25/21/12 24/11/12 27/23/12
f 27/23/12 24/11/12 23/12/12 28/12/12
f 19/12/15 16/8/15 17/5/15 18/11/15
f 25/21/16 10/10/16 11/5/16 24/11/16
f 41/24/17 26/25/17 27/26/17 40/27/17
f 32/12/12 19/12/12 18/11/12 33/23/12
f 28/12/12 23/12/12 22/14/12 29/16/12
f 30/28/12 21/15/12 20/14/12 31/16/12
f 35/17/18 32/18/18 33/19/18 34/20/18
f 36/17/19 31/18/19 32/19/19 35/20/19
f 33/23/12 18/11/12 25/21/12 26/22/12
f 40/29/20 27/30/20 28/31/20 39/32/20
f 39/17/21 28/18/21 29/19/21 38/20/21
f 1/33/22 41/34/22 40/35/22 2/36/22
f 6/37/23 36/38/23 35/39/23 7/40/23
f 7/40/24 35/39/24 34/35/24 8/36/24
f 8/36/25 34/35/25 41/34/25 1/33/25
f 3/40/26 39/39/26 38/38/26 4/37/26
f 4/37/27 38/38/27 37/41/27 5/42/27
f 34/17/28 33/18/28 26/19/28 41/20/28
f 5/42/29 37/41/29 36/38/29 6/37/29
f 2/36/30 40/35/30 39/39/30 3/40/30
f 20/14/31 15/4/31 16/8/31 19/12/31
f 29/16/12 22/14/12 21/15/12 30/28/12
f 23/12/32 12/8/32 13/4/32 22/14/32
f 38/17/33 29/18/33 30/19/33 37/20/33
f 42/6/34 9/43/34 49/7/34
f 43/9/35 9/43/35 42/6/35
f 47/7/36 9/43/36 45/6/36
f 44/3/37 9/43/37 47/7/37
f 45/6/38 9/43/38 43/9/38
f 46/13/39 9/43/39 48/2/39
f 48/2/40 9/43/40 44/3/40
f 49/7/41 9/43/41 46/13/41
