# Blender 4.4.3
# www.blender.org
o SM_Barrel_Campfire_V1.1
v -0.010087 -0.000071 -0.605043
v -0.010087 1.799929 -0.605043
v 0.414177 -0.000071 -0.429308
v 0.414177 1.799929 -0.429308
v 0.589913 -0.000071 -0.005043
v 0.589913 1.799929 -0.005043
v 0.414177 -0.000071 0.419221
v 0.414177 1.799929 0.419221
v -0.010087 -0.000071 0.594957
v -0.010087 1.799929 0.594957
v -0.434351 -0.000071 0.419221
v -0.434351 1.799929 0.419221
v -0.610087 -0.000071 -0.005043
v -0.434351 -0.000071 -0.429308
v -0.434351 1.799929 -0.429308
v -0.010087 1.799929 -0.557394
v 0.380484 1.799929 -0.395614
v 0.542264 1.799929 -0.005043
v 0.380484 1.799929 0.385527
v -0.010087 1.799929 0.547307
v -0.400658 1.799929 0.385527
v -0.400658 1.799929 -0.395614
v -0.000434 -0.000039 -0.552567
v 0.390137 -0.000039 -0.390788
v 0.551917 -0.000039 -0.000217
v 0.390137 -0.000039 0.390354
v -0.000434 -0.000039 0.552134
v -0.391005 -0.000039 0.390354
v -0.552784 -0.000039 -0.000217
v -0.391005 -0.000039 -0.390788
v -0.219358 1.213410 0.508661
v -0.328384 1.098431 0.463125
v -0.096517 1.085919 0.559150
v -0.200389 1.216671 0.468750
v -0.076110 1.083402 0.520289
v -0.313388 1.097663 0.421999
v 0.498742 0.140606 0.215064
v 0.444087 0.253039 0.347013
v 0.546990 0.429211 0.098582
v 0.467861 0.147530 0.197408
v 0.408274 0.262624 0.324694
v 0.516404 0.431212 0.082053
v 0.259086 1.684500 -0.493548
v 0.126562 1.733620 -0.548442
v 0.045812 1.671864 -0.581889
v 0.244889 1.686380 -0.451727
v 0.139380 1.731936 -0.495451
v 0.074461 1.674731 -0.522316
v -0.522219 1.799929 -0.217175
v -0.481548 1.799929 -0.200329
v -0.481548 1.799929 0.190242
v -0.522219 1.799929 0.207089
v -0.610087 1.698706 -0.005043
v -0.561671 1.696526 -0.004660
v -0.250859 1.341218 -0.505312
v -0.154107 1.035363 -0.545389
v -0.343151 1.143992 -0.467084
v -0.222893 1.342999 -0.467006
v -0.131671 1.052442 -0.503367
v -0.311130 1.152676 -0.429525
v -0.201956 0.822753 0.228343
v 0.143057 1.671075 0.271373
v -0.085380 0.775341 0.274934
v 0.209627 1.648128 0.306999
v -0.142526 0.798583 0.384635
v 0.208256 1.647642 0.387559
v -0.201956 0.822753 0.422525
v 0.151795 1.692561 0.453946
v -0.313575 0.868149 0.417162
v 0.067558 1.725068 0.399715
v -0.253703 0.843798 0.315341
v 0.066836 1.726533 0.294767
v 0.032876 0.822753 0.027907
v 0.378547 1.665498 0.061622
v 0.097004 0.793658 0.102393
v 0.423968 1.613204 0.143541
v 0.130063 0.775129 0.224074
v 0.464035 1.631317 0.251915
v 0.007054 0.822753 0.274375
v 0.357509 1.678313 0.312444
v -0.053195 0.851313 0.175498
v 0.291882 1.657683 0.206541
v -0.073457 0.864168 0.065551
v 0.289259 1.680849 0.122020
v 0.111782 0.858259 -0.062197
v -0.202473 1.764124 -0.197747
v -0.020568 0.822662 -0.028133
v -0.303789 1.764824 -0.112371
v -0.124679 0.786227 -0.067572
v -0.371735 1.694159 -0.198235
v -0.113186 0.774835 -0.184285
v -0.415886 1.699200 -0.313098
v -0.022761 0.799167 -0.207473
v -0.307123 1.727713 -0.393129
v 0.056806 0.825893 -0.186124
v -0.198749 1.756741 -0.318774
v 0.267451 0.782158 0.158551
v 0.080232 1.732185 -0.187806
v 0.267415 0.738971 0.040202
v 0.112984 1.680520 -0.295942
v 0.379703 0.761370 0.046296
v 0.212373 1.680273 -0.344108
v 0.434799 0.782158 0.076139
v 0.325286 1.738908 -0.311533
v 0.495850 0.831789 0.182100
v 0.304520 1.773829 -0.180619
v 0.365948 0.809037 0.183714
v 0.185780 1.779520 -0.119019
v 0.222497 0.822753 -0.310686
v 0.090829 1.676015 0.010808
v 0.144518 0.797214 -0.271750
v 0.035078 1.669996 0.125043
v 0.076359 0.799685 -0.302415
v -0.092075 1.668785 0.076236
v -0.016596 0.822753 -0.395636
v -0.129300 1.719530 -0.048623
v 0.104897 0.861030 -0.452349
v -0.006715 1.711297 -0.098903
v 0.209252 0.858299 -0.408144
v 0.076864 1.707798 -0.067377
v -0.019350 0.830956 0.295648
v -0.404603 1.608841 -0.026453
v 0.083828 0.889638 0.312601
v -0.342111 1.628571 0.035227
v 0.064869 0.933612 0.447855
v -0.355529 1.659268 0.114441
v -0.054142 0.881326 0.467220
v -0.430962 1.633562 0.151282
v -0.110490 0.830396 0.410247
v -0.483980 1.585279 0.106539
v -0.087921 0.810824 0.332060
v -0.462200 1.561870 0.033714
v -0.275869 0.822753 0.301672
v -0.260132 1.671075 -0.045658
v -0.238599 0.775341 0.181789
v -0.229856 1.648128 -0.114826
v -0.124741 0.798583 0.230123
v -0.149438 1.647642 -0.119801
v -0.082289 0.822753 0.286386
v -0.078813 1.692561 -0.068741
v -0.078849 0.868149 0.398081
v -0.126245 1.725068 0.019504
v -0.185067 0.843798 0.346409
v -0.230810 1.726533 0.028485
vn 0.3827 -0.0000 -0.9239
vn 0.9239 -0.0000 -0.3827
vn 0.9239 -0.0000 0.3827
vn 0.3827 -0.0000 0.9239
vn -0.3827 -0.0000 0.9239
vn -0.9239 -0.0000 0.3827
vn -0.0000 1.0000 -0.0000
vn -0.9239 -0.0000 -0.3827
vn -0.3827 -0.0000 -0.9239
vn -0.6717 0.7008 0.2401
vn 0.3827 0.0045 0.9239
vn -0.3827 -0.0045 -0.9239
vn -0.9239 -0.0039 0.3827
vn 0.9238 0.0083 0.3827
vn 0.3827 -0.0004 -0.9239
vn -0.9576 -0.0059 -0.2881
vn -0.3827 0.0004 0.9239
vn -0.3827 0.0006 0.9239
vn -0.3850 -0.0004 0.9229
vn -0.3804 -0.0003 0.9248
vn -0.3828 -0.0000 0.9238
vn 0.6509 -0.7165 0.2508
vn -0.6229 -0.7147 -0.3181
vn 0.0625 0.9980 -0.0133
vn 0.1584 -0.8388 -0.5208
vn -0.4000 0.4014 0.8239
vn -0.9238 -0.0138 -0.3826
vn 0.4634 0.7572 -0.4604
vn -0.9206 -0.0013 -0.3906
vn -0.9172 -0.0359 -0.3969
vn -0.9195 -0.0042 -0.3931
vn -0.9291 -0.0060 -0.3697
vn 0.3684 0.9297 0.0034
vn -0.4943 0.8028 -0.3335
vn 0.8708 0.4268 -0.2441
vn -0.0573 0.9013 -0.4294
vn -0.0606 0.9019 0.4276
vn 0.9239 0.0054 -0.3827
vn 0.9240 0.0059 0.3824
vn 0.9239 0.0039 -0.3825
vn 0.7322 -0.4423 -0.5180
vn 0.2832 0.8386 -0.4653
vn -0.7694 -0.3138 0.5564
vn 0.3755 -0.0994 -0.9215
vn 0.8870 -0.3391 0.3134
vn 0.5629 -0.2465 0.7889
vn -0.2531 0.0999 0.9623
vn 0.4653 0.8812 -0.0834
vn -0.8888 0.3521 -0.2932
vn -0.5562 0.2242 -0.8002
vn 0.4906 0.8680 -0.0766
vn 0.7207 -0.2627 -0.6415
vn 0.8955 -0.3415 -0.2853
vn 0.3659 -0.1815 0.9128
vn -0.8030 0.3150 0.5058
vn 0.5541 0.8263 -0.1005
vn -0.9055 0.3853 0.1779
vn -0.3873 0.2141 -0.8967
vn -0.0424 0.9987 0.0285
vn 0.4136 0.2382 0.8787
vn -0.5608 -0.0648 0.8254
vn -0.9535 -0.2660 0.1418
vn -0.3850 -0.2717 -0.8820
vn -0.3803 0.9206 -0.0886
vn 0.4582 -0.0191 -0.8887
vn 0.9370 0.2560 -0.2376
vn -0.2570 0.9655 -0.0423
vn -0.9785 -0.1978 -0.0585
vn -0.1417 -0.3813 -0.9135
vn 0.4493 -0.2849 -0.8467
vn 0.9778 0.0782 -0.1942
vn -0.2638 0.8264 -0.4975
vn 0.2071 0.3571 0.9108
vn -0.4691 0.2009 0.8600
vn -0.1634 0.9347 -0.3156
vn 0.7598 -0.1565 0.6311
vn -0.3431 -0.4271 0.8365
vn -0.8596 -0.3053 0.4098
vn -0.4139 0.2925 -0.8621
vn 0.0453 0.9712 0.2341
vn 0.3544 0.3967 -0.8468
vn 0.9796 0.1836 -0.0814
vn 0.0771 0.9671 0.2425
vn 0.4646 -0.0993 -0.8799
vn 0.8720 0.4880 -0.0382
vn 0.0830 0.4381 0.8951
vn -0.6678 -0.0266 0.7439
vn -0.2639 0.9336 -0.2422
vn -0.8695 -0.4793 -0.1189
vn -0.3464 -0.4954 -0.7967
vn -0.6505 0.7129 -0.2619
vn -0.9482 -0.0994 -0.3018
vn 0.2426 -0.3391 -0.9090
vn 0.7422 -0.2465 -0.6233
vn 0.9792 0.0999 0.1765
vn -0.1197 0.8812 -0.4573
vn -0.2224 0.3521 0.9092
vn -0.7539 0.2242 0.6175
vn -0.1150 0.8680 -0.4830
vt 0.863687 0.890450
vt 0.860119 0.896092
vt 0.860119 0.808104
vt 0.850358 0.896092
vt 0.850358 0.808104
vt 0.845295 0.814980
vt 0.840598 0.808104
vt 0.840598 0.896092
vt 0.830837 0.896092
vt 0.830837 0.808104
vt 0.828334 0.858610
vt 0.822959 0.863826
vt 0.821076 0.808104
vt 0.821076 0.896092
vt 0.811316 0.889209
vt 0.811316 0.808104
vt 0.821553 0.893831
vt 0.846980 0.893831
vt 0.845977 0.893681
vt 0.822562 0.893681
vt 0.801555 0.896092
vt 0.801555 0.808104
vt 0.799457 0.864028
vt 0.795107 0.858718
vt 0.791794 0.808104
vt 0.819423 0.889775
vt 0.811579 0.890393
vt 0.813530 0.890485
vt 0.820707 0.889914
vt 0.865000 0.892734
vt 0.865379 0.891173
vt 0.862929 0.891230
vt 0.862588 0.892671
vt 0.803477 0.892727
vt 0.805922 0.892664
vt 0.843888 0.889616
vt 0.842936 0.889766
vt 0.852183 0.890403
vt 0.853404 0.890225
vt 0.850250 0.889911
vt 0.849012 0.890134
vt 0.799774 0.864133
vt 0.801823 0.896196
vt 0.801823 0.808208
vt 0.839953 0.808208
vt 0.839953 0.896196
vt 0.830420 0.896196
vt 0.830420 0.808208
vt 0.859017 0.808208
vt 0.859017 0.896196
vt 0.849485 0.896196
vt 0.849485 0.808208
vt 0.801840 0.896221
vt 0.806594 0.896271
vt 0.811395 0.889300
vt 0.841575 0.820581
vt 0.868550 0.808208
vt 0.867294 0.889936
vt 0.862502 0.890554
vt 0.795527 0.858823
vt 0.797701 0.873774
vt 0.825951 0.867811
vt 0.792291 0.896196
vt 0.792291 0.808208
vt 0.039333 0.971652
vt 0.042777 0.978268
vt 0.041882 0.989080
vt 0.033157 0.967228
vt 0.047844 0.970366
vt 0.052887 0.967228
vt 0.052483 0.989767
vt 0.039490 0.977808
vt 0.043936 0.979578
vt 0.050595 0.985405
vt 0.842259 0.820476
vt 0.052483 0.973374
vt 0.050970 0.976101
vt 0.847974 0.829088
vt 0.844540 0.815085
vt 0.847157 0.829193
vt 0.856726 0.890732
vt 0.858492 0.890636
vt 0.869880 0.808104
vt 0.869880 0.896092
vt 0.868594 0.889832
vt 0.866736 0.892851
vt 0.868550 0.896197
vt 0.813488 0.890723
vt 0.822696 0.864038
vt 0.810977 0.847953
vt 0.805866 0.891940
vt 0.803405 0.891942
vt 0.805645 0.891132
vt 0.803068 0.891079
vt 0.816165 0.896190
vt 0.820882 0.896276
vt 0.806435 0.896092
vt 0.816196 0.896092
vt 0.811395 0.808380
vt 0.801980 0.808389
vt 0.821118 0.807920
vt 0.811390 0.808022
vt 0.791794 0.896092
vt 0.797333 0.873669
vt 0.048346 0.979039
vt 0.044773 0.977232
vt 0.042495 0.973080
vt 0.042583 0.970143
vt 0.039592 0.977460
vt 0.036121 0.978625
vt 0.036837 0.987477
vt 0.036837 0.980336
vt 0.041887 0.975287
vt 0.041887 0.992527
vt 0.049028 0.975287
vt 0.049028 0.992527
vt 0.054077 0.980336
vt 0.054077 0.987477
vt 0.068001 0.806327
vt 0.068001 0.897778
vt 0.059689 0.897778
vt 0.059689 0.806327
vt 0.051378 0.897778
vt 0.051378 0.806327
vt 0.043066 0.897778
vt 0.043066 0.806327
vt 0.034754 0.897778
vt 0.034754 0.806327
vt 0.026443 0.897778
vt 0.026443 0.806327
vt 0.018131 0.897778
vt 0.018131 0.806327
s 0
f 43/1/1 4/2/1 3/3/1
f 3/3/2 4/2/2 6/4/2 5/5/2
f 5/5/3 37/6/3 7/7/3
f 7/7/4 8/8/4 10/9/4 9/10/4
f 9/10/5 33/11/5 32/12/5 11/13/5
f 11/13/6 12/14/6 53/15/6 13/16/6
f 10/17/7 8/18/7 19/19/7 20/20/7
f 13/16/8 53/15/8 15/21/8 14/22/8
f 14/22/9 57/23/9 56/24/9 1/25/9
f 15/26/7 49/27/7 50/28/7 22/29/7
f 6/30/7 4/31/7 17/32/7 18/33/7
f 12/34/7 10/17/7 20/20/7 21/35/7
f 2/36/7 15/26/7 22/29/7 16/37/7
f 47/38/10 44/39/10 45/40/10 48/41/10
f 8/18/7 6/30/7 18/33/7 19/19/7
f 16/42/11 59/43/11 23/44/11
f 20/45/12 19/46/12 26/47/12 27/48/12
f 18/49/13 17/50/13 24/51/13 25/52/13
f 22/53/14 50/54/14 54/55/14
f 21/42/15 36/43/15 28/44/15
f 19/46/16 41/56/16 26/45/16
f 24/57/17 46/58/17 48/59/17
f 20/60/15 34/61/15 21/42/15
f 12/14/18 31/62/18 10/9/18
f 12/14/19 32/12/19 31/62/19
f 31/62/20 33/11/20 10/9/20
f 11/13/21 32/12/21 12/14/21
f 33/11/5 9/10/5 10/9/5
f 21/42/15 34/61/15 36/43/15
f 34/61/15 20/60/15 35/63/15
f 28/44/15 36/43/15 35/63/15 27/64/15
f 27/64/15 35/63/15 20/60/15
f 31/65/22 32/66/22 36/67/22 34/68/22
f 33/69/23 31/65/23 34/68/23 35/70/23
f 32/66/24 33/69/24 35/70/24 36/67/24
f 39/71/25 38/72/25 41/73/25 42/74/25
f 7/7/3 37/6/3 38/75/3
f 37/76/26 39/71/26 42/74/26 40/77/26
f 39/78/3 37/6/3 5/5/3
f 5/5/3 6/4/3 39/78/3
f 39/78/3 6/4/3 8/8/3 38/75/3
f 38/75/3 8/8/3 7/7/3
f 26/45/27 40/79/27 25/52/27
f 38/72/28 37/76/28 40/77/28 41/73/28
f 25/52/29 40/79/29 42/80/29
f 40/79/30 26/45/30 41/56/30
f 41/56/31 19/46/31 18/51/31 42/80/31
f 42/80/32 18/51/32 25/52/32
f 47/38/33 46/81/33 43/82/33 44/39/33
f 3/3/1 1/83/1 43/1/1
f 1/83/1 2/84/1 45/85/1
f 45/85/1 44/86/1 43/1/1
f 1/83/1 45/85/1 43/1/1
f 24/57/17 17/87/17 46/58/17
f 46/81/34 17/32/34 4/31/34 43/82/34
f 46/88/17 47/89/17 48/90/17
f 48/59/17 16/50/17 23/49/17
f 23/49/17 24/57/17 48/59/17
f 16/37/35 48/41/35 45/40/35 2/36/35
f 51/91/7 52/92/7 12/34/7 21/35/7
f 51/91/36 54/93/36 53/94/36 52/92/36
f 50/28/37 49/27/37 53/94/37 54/93/37
f 54/55/38 51/95/38 21/96/38
f 22/60/11 58/61/11 16/42/11
f 15/21/8 53/15/8 49/97/8
f 53/15/6 12/14/6 52/98/6
f 54/55/39 29/99/39 30/100/39 22/53/39
f 21/96/40 28/101/40 29/102/40 54/55/40
f 2/103/9 56/24/9 55/104/9
f 55/105/41 58/106/41 60/107/41 57/108/41
f 55/104/9 57/23/9 15/21/9
f 15/21/9 2/103/9 55/104/9
f 1/25/9 56/24/9 2/103/9
f 57/23/9 14/22/9 15/21/9
f 57/108/42 60/107/42 59/109/42 56/110/42
f 16/42/11 58/61/11 59/43/11
f 58/61/11 22/60/11 60/63/11
f 23/44/11 59/43/11 60/63/11 30/64/11
f 30/64/11 60/63/11 22/60/11
f 56/110/43 59/109/43 58/106/43 55/105/43
f 24/111/7 23/112/7 30/113/7 25/114/7
f 25/114/7 30/113/7 29/115/7 26/116/7
f 26/116/7 29/115/7 28/117/7 27/118/7
f 61/119/44 62/120/44 64/121/44 63/122/44
f 63/122/45 64/121/45 66/123/45 65/124/45
f 65/124/46 66/123/46 68/125/46 67/126/46
f 67/126/47 68/125/47 70/127/47 69/128/47
f 62/120/48 68/125/48 66/123/48 64/121/48
f 69/128/49 70/127/49 72/129/49 71/130/49
f 71/130/50 72/129/50 62/131/50 61/132/50
f 72/129/51 70/127/51 68/125/51 62/131/51
f 73/119/52 74/120/52 76/121/52 75/122/52
f 75/122/53 76/121/53 78/123/53 77/124/53
f 77/124/54 78/123/54 80/125/54 79/126/54
f 79/126/55 80/125/55 82/127/55 81/128/55
f 74/120/56 80/125/56 78/123/56 76/121/56
f 81/128/57 82/127/57 84/129/57 83/130/57
f 83/130/58 84/129/58 74/131/58 73/132/58
f 84/129/59 82/127/59 80/125/59 74/131/59
f 85/119/60 86/120/60 88/121/60 87/122/60
f 87/122/61 88/121/61 90/123/61 89/124/61
f 89/124/62 90/123/62 92/125/62 91/126/62
f 91/126/63 92/125/63 94/127/63 93/128/63
f 86/120/64 92/125/64 90/123/64 88/121/64
f 93/128/65 94/127/65 96/129/65 95/130/65
f 95/130/66 96/129/66 86/131/66 85/132/66
f 96/129/67 94/127/67 92/125/67 86/131/67
f 97/119/68 98/120/68 100/121/68 99/122/68
f 99/122/69 100/121/69 102/123/69 101/124/69
f 101/124/70 102/123/70 104/125/70 103/126/70
f 103/126/71 104/125/71 106/127/71 105/128/71
f 98/120/72 104/125/72 102/123/72 100/121/72
f 105/128/73 106/127/73 108/129/73 107/130/73
f 107/130/74 108/129/74 98/131/74 97/132/74
f 108/129/75 106/127/75 104/125/75 98/131/75
f 109/119/76 110/120/76 112/121/76 111/122/76
f 111/122/77 112/121/77 114/123/77 113/124/77
f 113/124/78 114/123/78 116/125/78 115/126/78
f 115/126/79 116/125/79 118/127/79 117/128/79
f 110/120/80 116/125/80 114/123/80 112/121/80
f 117/128/81 118/127/81 120/129/81 119/130/81
f 119/130/82 120/129/82 110/131/82 109/132/82
f 120/129/83 118/127/83 116/125/83 110/131/83
f 121/119/84 122/120/84 124/121/84 123/122/84
f 123/122/85 124/121/85 126/123/85 125/124/85
f 125/124/86 126/123/86 128/125/86 127/126/86
f 127/126/87 128/125/87 130/127/87 129/128/87
f 122/120/88 128/125/88 126/123/88 124/121/88
f 129/128/89 130/127/89 132/129/89 131/130/89
f 131/130/90 132/129/90 122/131/90 121/132/90
f 132/129/91 130/127/91 128/125/91 122/131/91
f 133/119/92 134/120/92 136/121/92 135/122/92
f 135/122/93 136/121/93 138/123/93 137/124/93
f 137/124/94 138/123/94 140/125/94 139/126/94
f 139/126/95 140/125/95 142/127/95 141/128/95
f 134/120/96 140/125/96 138/123/96 136/121/96
f 141/128/97 142/127/97 144/129/97 143/130/97
f 143/130/98 144/129/98 134/131/98 133/132/98
f 144/129/99 142/127/99 140/125/99 134/131/99
