# Blender 4.4.3
# www.blender.org
o SM_BarrelEmpty_Campfire_V1.0
v -0.010087 -0.000071 -0.605043
v -0.010087 1.799929 -0.605043
v 0.414177 -0.000071 -0.429308
v 0.414177 1.799929 -0.429308
v 0.589913 -0.000071 -0.005043
v 0.589913 1.799929 -0.005043
v 0.414177 -0.000071 0.419221
v 0.414177 1.799929 0.419221
v -0.010087 -0.000071 0.594957
v -0.010087 1.799929 0.594957
v -0.434351 -0.000071 0.419221
v -0.434351 1.799929 0.419221
v -0.610087 -0.000071 -0.005043
v -0.434351 -0.000071 -0.429308
v -0.434351 1.799929 -0.429308
v -0.010087 1.799929 -0.557394
v 0.380484 1.799929 -0.395614
v 0.542264 1.799929 -0.005043
v 0.380484 1.799929 0.385527
v -0.010087 1.799929 0.547307
v -0.400658 1.799929 0.385527
v -0.400658 1.799929 -0.395614
v -0.000434 -0.000039 -0.552567
v 0.390137 -0.000039 -0.390788
v 0.551917 -0.000039 -0.000217
v 0.390137 -0.000039 0.390354
v -0.000434 -0.000039 0.552134
v -0.391005 -0.000039 0.390354
v -0.552784 -0.000039 -0.000217
v -0.391005 -0.000039 -0.390788
v -0.219358 1.213410 0.508661
v -0.328384 1.098431 0.463125
v -0.096517 1.085919 0.559150
v -0.200389 1.216671 0.468750
v -0.076110 1.083402 0.520289
v -0.313388 1.097663 0.421999
v 0.498742 0.140606 0.215064
v 0.444087 0.253039 0.347013
v 0.546990 0.429211 0.098582
v 0.467861 0.147530 0.197408
v 0.408274 0.262624 0.324694
v 0.516404 0.431212 0.082053
v 0.259086 1.684500 -0.493548
v 0.126562 1.733620 -0.548442
v 0.045812 1.671864 -0.581889
v 0.244889 1.686380 -0.451727
v 0.139380 1.731936 -0.495451
v 0.074461 1.674731 -0.522316
v -0.522219 1.799929 -0.217175
v -0.481548 1.799929 -0.200329
v -0.481548 1.799929 0.190242
v -0.522219 1.799929 0.207089
v -0.610087 1.698706 -0.005043
v -0.561671 1.696526 -0.004660
v -0.250859 1.341218 -0.505312
v -0.154107 1.035363 -0.545389
v -0.343151 1.143992 -0.467084
v -0.222893 1.342999 -0.467006
v -0.131671 1.052442 -0.503367
v -0.311130 1.152676 -0.429525
vn 0.3827 -0.0000 -0.9239
vn 0.9239 -0.0000 -0.3827
vn 0.9239 -0.0000 0.3827
vn 0.3827 -0.0000 0.9239
vn -0.3827 -0.0000 0.9239
vn -0.9239 -0.0000 0.3827
vn -0.0000 1.0000 -0.0000
vn -0.9239 -0.0000 -0.3827
vn -0.3827 -0.0000 -0.9239
vn -0.6717 0.7008 0.2401
vn 0.3827 0.0045 0.9239
vn -0.3827 -0.0045 -0.9239
vn -0.9239 -0.0039 0.3827
vn 0.9238 0.0083 0.3827
vn 0.3827 -0.0004 -0.9239
vn -0.9576 -0.0059 -0.2881
vn -0.3827 0.0004 0.9239
vn -0.3827 0.0006 0.9239
vn -0.3850 -0.0004 0.9229
vn -0.3804 -0.0003 0.9248
vn -0.3828 -0.0000 0.9238
vn 0.6509 -0.7165 0.2508
vn -0.6229 -0.7147 -0.3181
vn 0.0625 0.9980 -0.0133
vn 0.1584 -0.8388 -0.5208
vn -0.4000 0.4014 0.8239
vn -0.9238 -0.0138 -0.3826
vn 0.4634 0.7572 -0.4604
vn -0.9206 -0.0013 -0.3906
vn -0.9172 -0.0359 -0.3969
vn -0.9195 -0.0042 -0.3931
vn -0.9291 -0.0060 -0.3697
vn 0.3684 0.9297 0.0034
vn -0.4943 0.8028 -0.3335
vn 0.8708 0.4268 -0.2441
vn -0.0573 0.9013 -0.4294
vn -0.0606 0.9019 0.4276
vn 0.9239 0.0054 -0.3827
vn 0.9240 0.0059 0.3824
vn 0.9239 0.0039 -0.3825
vn 0.7322 -0.4423 -0.5180
vn 0.2832 0.8386 -0.4653
vn -0.7694 -0.3138 0.5564
vt 0.863687 0.890450
vt 0.860119 0.896092
vt 0.860119 0.808104
vt 0.850358 0.896092
vt 0.850358 0.808104
vt 0.845295 0.814980
vt 0.840598 0.808104
vt 0.840598 0.896092
vt 0.830837 0.896092
vt 0.830837 0.808104
vt 0.828334 0.858610
vt 0.822959 0.863826
vt 0.821076 0.808104
vt 0.821076 0.896092
vt 0.811316 0.889209
vt 0.811316 0.808104
vt 0.821553 0.893831
vt 0.846980 0.893831
vt 0.845977 0.893681
vt 0.822562 0.893681
vt 0.801555 0.896092
vt 0.801555 0.808104
vt 0.799457 0.864028
vt 0.795107 0.858718
vt 0.791794 0.808104
vt 0.819423 0.889775
vt 0.811579 0.890393
vt 0.813530 0.890485
vt 0.820707 0.889914
vt 0.865000 0.892734
vt 0.865379 0.891173
vt 0.862929 0.891230
vt 0.862588 0.892671
vt 0.803477 0.892727
vt 0.805922 0.892664
vt 0.843888 0.889616
vt 0.842936 0.889766
vt 0.852183 0.890403
vt 0.853404 0.890225
vt 0.850250 0.889911
vt 0.849012 0.890134
vt 0.799774 0.864133
vt 0.801823 0.896196
vt 0.801823 0.808208
vt 0.839953 0.808208
vt 0.839953 0.896196
vt 0.830420 0.896196
vt 0.830420 0.808208
vt 0.859017 0.808208
vt 0.859017 0.896196
vt 0.849485 0.896196
vt 0.849485 0.808208
vt 0.801840 0.896221
vt 0.806594 0.896271
vt 0.811395 0.889300
vt 0.841575 0.820581
vt 0.868550 0.808208
vt 0.867294 0.889936
vt 0.862502 0.890554
vt 0.795527 0.858823
vt 0.797701 0.873774
vt 0.825951 0.867811
vt 0.792291 0.896196
vt 0.792291 0.808208
vt 0.039333 0.971652
vt 0.042777 0.978268
vt 0.041882 0.989080
vt 0.033157 0.967228
vt 0.047844 0.970366
vt 0.052887 0.967228
vt 0.052483 0.989767
vt 0.039490 0.977808
vt 0.043936 0.979578
vt 0.050595 0.985405
vt 0.842259 0.820476
vt 0.052483 0.973374
vt 0.050970 0.976101
vt 0.847974 0.829088
vt 0.844540 0.815085
vt 0.847157 0.829193
vt 0.856726 0.890732
vt 0.858492 0.890636
vt 0.869880 0.808104
vt 0.869880 0.896092
vt 0.868594 0.889832
vt 0.866736 0.892851
vt 0.868550 0.896197
vt 0.813488 0.890723
vt 0.822696 0.864038
vt 0.810977 0.847953
vt 0.805866 0.891940
vt 0.803405 0.891942
vt 0.805645 0.891132
vt 0.803068 0.891079
vt 0.816165 0.896190
vt 0.820882 0.896276
vt 0.806435 0.896092
vt 0.816196 0.896092
vt 0.811395 0.808380
vt 0.801980 0.808389
vt 0.821118 0.807920
vt 0.811390 0.808022
vt 0.791794 0.896092
vt 0.797333 0.873669
vt 0.048346 0.979039
vt 0.044773 0.977232
vt 0.042495 0.973080
vt 0.042583 0.970143
vt 0.039592 0.977460
vt 0.036121 0.978625
vt 0.036837 0.987477
vt 0.036837 0.980336
vt 0.041887 0.975287
vt 0.041887 0.992527
vt 0.049028 0.975287
vt 0.049028 0.992527
vt 0.054077 0.980336
vt 0.054077 0.987477
s 0
f 43/1/1 4/2/1 3/3/1
f 3/3/2 4/2/2 6/4/2 5/5/2
f 5/5/3 37/6/3 7/7/3
f 7/7/4 8/8/4 10/9/4 9/10/4
f 9/10/5 33/11/5 32/12/5 11/13/5
f 11/13/6 12/14/6 53/15/6 13/16/6
f 10/17/7 8/18/7 19/19/7 20/20/7
f 13/16/8 53/15/8 15/21/8 14/22/8
f 14/22/9 57/23/9 56/24/9 1/25/9
f 15/26/7 49/27/7 50/28/7 22/29/7
f 6/30/7 4/31/7 17/32/7 18/33/7
f 12/34/7 10/17/7 20/20/7 21/35/7
f 2/36/7 15/26/7 22/29/7 16/37/7
f 47/38/10 44/39/10 45/40/10 48/41/10
f 8/18/7 6/30/7 18/33/7 19/19/7
f 16/42/11 59/43/11 23/44/11
f 20/45/12 19/46/12 26/47/12 27/48/12
f 18/49/13 17/50/13 24/51/13 25/52/13
f 22/53/14 50/54/14 54/55/14
f 21/42/15 36/43/15 28/44/15
f 19/46/16 41/56/16 26/45/16
f 24/57/17 46/58/17 48/59/17
f 20/60/15 34/61/15 21/42/15
f 12/14/18 31/62/18 10/9/18
f 12/14/19 32/12/19 31/62/19
f 31/62/20 33/11/20 10/9/20
f 11/13/21 32/12/21 12/14/21
f 33/11/5 9/10/5 10/9/5
f 21/42/15 34/61/15 36/43/15
f 34/61/15 20/60/15 35/63/15
f 28/44/15 36/43/15 35/63/15 27/64/15
f 27/64/15 35/63/15 20/60/15
f 31/65/22 32/66/22 36/67/22 34/68/22
f 33/69/23 31/65/23 34/68/23 35/70/23
f 32/66/24 33/69/24 35/70/24 36/67/24
f 39/71/25 38/72/25 41/73/25 42/74/25
f 7/7/3 37/6/3 38/75/3
f 37/76/26 39/71/26 42/74/26 40/77/26
f 39/78/3 37/6/3 5/5/3
f 5/5/3 6/4/3 39/78/3
f 39/78/3 6/4/3 8/8/3 38/75/3
f 38/75/3 8/8/3 7/7/3
f 26/45/27 40/79/27 25/52/27
f 38/72/28 37/76/28 40/77/28 41/73/28
f 25/52/29 40/79/29 42/80/29
f 40/79/30 26/45/30 41/56/30
f 41/56/31 19/46/31 18/51/31 42/80/31
f 42/80/32 18/51/32 25/52/32
f 47/38/33 46/81/33 43/82/33 44/39/33
f 3/3/1 1/83/1 43/1/1
f 1/83/1 2/84/1 45/85/1
f 45/85/1 44/86/1 43/1/1
f 1/83/1 45/85/1 43/1/1
f 24/57/17 17/87/17 46/58/17
f 46/81/34 17/32/34 4/31/34 43/82/34
f 46/88/17 47/89/17 48/90/17
f 48/59/17 16/50/17 23/49/17
f 23/49/17 24/57/17 48/59/17
f 16/37/35 48/41/35 45/40/35 2/36/35
f 51/91/7 52/92/7 12/34/7 21/35/7
f 51/91/36 54/93/36 53/94/36 52/92/36
f 50/28/37 49/27/37 53/94/37 54/93/37
f 54/55/38 51/95/38 21/96/38
f 22/60/11 58/61/11 16/42/11
f 15/21/8 53/15/8 49/97/8
f 53/15/6 12/14/6 52/98/6
f 54/55/39 29/99/39 30/100/39 22/53/39
f 21/96/40 28/101/40 29/102/40 54/55/40
f 2/103/9 56/24/9 55/104/9
f 55/105/41 58/106/41 60/107/41 57/108/41
f 55/104/9 57/23/9 15/21/9
f 15/21/9 2/103/9 55/104/9
f 1/25/9 56/24/9 2/103/9
f 57/23/9 14/22/9 15/21/9
f 57/108/42 60/107/42 59/109/42 56/110/42
f 16/42/11 58/61/11 59/43/11
f 58/61/11 22/60/11 60/63/11
f 23/44/11 59/43/11 60/63/11 30/64/11
f 30/64/11 60/63/11 22/60/11
f 56/110/43 59/109/43 58/106/43 55/105/43
f 24/111/7 23/112/7 30/113/7 25/114/7
f 25/114/7 30/113/7 29/115/7 26/116/7
f 26/116/7 29/115/7 28/117/7 27/118/7
