# Blender 4.4.3
# www.blender.org
o SM_Original_Campfire_V1.0
v 0.058266 -0.099777 -0.982316
v 0.274014 0.053686 -0.903709
v 0.051205 0.011657 -0.732960
v -0.305447 0.025116 -1.035589
v 0.038240 0.226848 -0.627522
v -0.176763 0.344769 -0.719235
v 0.023304 0.341151 -0.909281
v -1.023715 -0.029940 -0.005118
v -1.274133 0.101279 0.032933
v -1.100759 0.022165 -0.291841
v -0.740311 0.016164 -0.020211
v -1.232986 0.255462 -0.159415
v -0.923083 0.267283 -0.270378
v -0.703655 0.270840 0.023497
v -1.033878 0.389536 -0.050328
v -0.490099 -0.036542 -0.832343
v -0.259816 -0.012280 -0.645197
v -0.532048 0.056742 -0.607135
v -0.857980 0.065487 -0.937966
v -0.654623 0.052834 -1.111273
v -0.220229 0.056745 -1.133273
v -0.513960 0.187374 -0.669967
v -0.747693 0.317232 -0.756290
v -0.696474 0.235987 -1.067422
v -0.306571 0.298068 -1.065883
v -0.219743 0.294486 -0.897291
v -0.496064 0.432834 -0.907699
v -0.889338 -0.010686 -0.460458
v -0.580582 0.107265 -0.326006
v -0.827520 0.058060 -0.197870
v -1.088081 0.074575 -0.500065
v -0.947134 0.060883 -0.704915
v -0.507704 -0.013018 -0.693603
v -0.627125 0.352136 -0.308228
v -1.042094 0.275938 -0.310521
v -1.014462 0.332511 -0.722702
v -0.700601 0.296358 -0.762393
v -0.591738 0.283478 -0.489570
v -0.806170 0.424210 -0.447089
v 0.175089 0.035833 -1.224711
v 0.259382 0.339020 -1.226974
v -0.000172 0.273532 -1.240422
v 1.044800 -0.045735 0.052649
v 1.285247 0.029984 -0.082541
v 1.181842 0.067941 -0.220212
v 0.813096 0.065877 -0.166101
v 1.149430 0.247328 -0.223795
v 0.847643 0.316979 -0.248410
v 0.707673 0.280791 -0.010531
v 1.097569 0.378613 -0.000098
v 0.549764 -0.049364 -0.822596
v 0.242421 0.156055 -0.768152
v 0.645143 -0.001577 -0.559163
v 0.878159 0.058037 -0.893940
v 0.586203 0.062555 -1.319387
v 0.252406 0.147917 -0.976053
v 0.409645 0.307776 -0.609898
v 0.653073 0.317693 -0.762912
v 0.722926 0.307017 -1.077156
v 0.380870 0.244806 -1.132164
v 0.202975 0.267326 -0.824758
v 0.588793 0.387713 -0.952900
v 0.869973 -0.107973 -0.494228
v 0.603506 -0.029249 -0.330497
v 0.981792 0.081766 -0.169139
v 1.005784 0.043245 -0.547493
v 0.881948 0.045687 -0.796169
v 0.602592 0.034965 -0.743531
v 0.720140 0.330557 -0.272764
v 1.091542 0.289047 -0.413577
v 1.081079 0.250138 -0.724497
v 0.698520 0.201633 -0.682113
v 0.550521 0.299235 -0.522039
v 0.799844 0.407089 -0.436124
v -0.046965 -0.042657 1.015877
v -0.006932 0.065790 0.617404
v -0.366718 0.066574 0.995010
v -0.046353 0.162545 1.216681
v -0.297872 0.320849 0.884418
v -0.217744 0.329906 1.105622
v 0.027761 0.413208 1.110238
v -1.091234 0.041415 0.284077
v -0.685097 0.062383 0.113816
v -1.227797 0.273558 0.167788
v -0.978965 0.230255 0.329801
v -0.634793 -0.019301 0.964347
v -0.263841 0.002752 0.678952
v -0.485800 0.064741 0.743633
v -0.772309 0.067102 0.934305
v -0.531698 0.061641 1.121496
v -0.287465 0.057930 1.079993
v -0.377345 0.271115 0.486109
v -0.729580 0.296363 0.700912
v -0.770485 0.267821 1.065209
v -0.408658 0.283445 1.128888
v -0.213028 0.299167 0.942883
v -0.494909 0.420383 1.007491
v -0.838433 -0.066267 0.542918
v -0.594700 0.150639 0.368065
v -0.874424 -0.027250 0.194101
v -1.126935 0.139494 0.573356
v -0.803485 0.146320 0.834162
v -0.593350 0.101908 0.683723
v -0.622712 0.309434 0.178607
v -1.071504 0.322410 0.321088
v -1.027357 0.303604 0.590791
v -0.740634 0.401758 0.826219
v -0.515164 0.335606 0.496971
v -0.808522 0.455517 0.493254
v 0.238418 0.018244 1.042731
v 0.327517 0.272643 0.855293
v 0.343510 0.333372 1.119167
v 1.066493 0.022458 0.263233
v 0.715098 -0.059555 0.217565
v 1.241118 0.273101 0.217840
v 0.925274 0.207884 0.364440
v 0.518314 -0.080384 0.888875
v 0.247948 0.057268 0.747322
v 0.501829 0.082446 0.663990
v 0.797742 0.060234 0.905359
v 0.580626 0.077174 1.150394
v 0.248447 0.048296 1.107009
v 0.413284 0.307392 0.626253
v 0.726888 0.315795 0.723615
v 0.803067 0.415981 1.066662
v 0.439409 0.353101 1.174254
v 0.230048 0.357679 0.895464
v 0.464670 0.490535 0.883311
v 0.888866 -0.072882 0.433687
v 0.555958 0.048353 0.354905
v 1.017644 0.064404 0.319890
v 1.025137 0.057659 0.460413
v 0.936119 -0.016770 0.714187
v 0.468778 0.016279 0.689980
v 0.703861 0.292383 0.223109
v 1.045777 0.301662 0.330755
v 1.053151 0.303677 0.638933
v 0.723941 0.268799 0.758003
v 0.501175 0.290299 0.499703
v 0.690782 0.441156 0.543348
v -0.431760 -0.003200 -0.123963
v -0.086747 0.845121 -0.080933
v -0.315183 -0.050612 -0.077372
v -0.020176 0.822174 -0.045307
v -0.372329 -0.027371 0.032328
v -0.021548 0.821689 0.035253
v -0.431760 -0.003200 0.070219
v -0.078008 0.866608 0.101639
v -0.543379 0.042195 0.064856
v -0.162246 0.899114 0.047409
v -0.483506 0.017845 -0.036965
v -0.162967 0.900579 -0.057539
v -0.224401 -0.003200 -0.436874
v 0.048882 0.839545 -0.222534
v -0.210400 -0.032296 -0.339588
v 0.043114 0.787251 -0.129043
v -0.247975 -0.050824 -0.219226
v 0.018604 0.805363 -0.016129
v -0.378732 -0.003200 -0.242979
v -0.103758 0.852359 -0.022395
v -0.376344 0.025360 -0.358741
v -0.102125 0.831730 -0.146973
v -0.334291 0.038215 -0.462330
v -0.058878 0.854895 -0.219639
v 0.374819 -0.003200 -0.381022
v 0.149235 0.892413 -0.089975
v 0.239376 -0.038279 -0.361813
v 0.047652 0.864098 -0.009765
v 0.132649 -0.043930 -0.409765
v -0.025892 0.845364 -0.115704
v 0.144095 -0.003200 -0.519737
v -0.068295 0.904875 -0.214843
v 0.236633 0.020738 -0.532779
v 0.043423 0.956185 -0.277563
v 0.318175 0.027970 -0.504504
v 0.153366 0.939328 -0.201770
v 0.365940 -0.003200 0.208058
v -0.007767 0.946826 0.084136
v 0.284806 -0.046388 0.121897
v -0.058025 0.895161 -0.017058
v 0.370754 -0.023988 0.049381
v -0.018656 0.894914 -0.120248
v 0.431330 -0.003200 0.033355
v 0.085896 0.953550 -0.173908
v 0.548407 0.046430 0.068679
v 0.160492 0.988470 -0.064341
v 0.454914 0.023678 0.158880
v 0.116238 0.994161 0.061894
v -0.035090 -0.003200 0.416001
v -0.074766 0.850062 0.070863
v 0.014450 -0.028740 0.344289
v -0.081009 0.844043 -0.056097
v 0.088947 -0.026269 0.338287
v 0.053919 0.842832 -0.074653
v 0.215333 -0.003200 0.375131
v 0.146737 0.893577 0.016781
v 0.136245 0.035076 0.483399
v 0.063591 0.885344 0.119940
v 0.023508 0.032345 0.494994
v -0.024831 0.881844 0.132624
v -0.409128 -0.003200 0.213108
v -0.153795 0.873067 -0.046925
v -0.310883 -0.048126 0.161087
v -0.054495 0.798888 0.015442
v -0.222855 -0.051695 0.274334
v -0.000136 0.801474 0.082042
v -0.306338 -0.003200 0.363504
v -0.035982 0.828727 0.157410
v -0.396573 0.025412 0.356158
v -0.117077 0.852547 0.157888
v -0.437868 0.022583 0.283410
v -0.159207 0.846225 0.090724
v -0.722897 0.120617 0.722897
v 0.722897 0.120617 0.722897
v -0.722897 0.120617 -0.722897
v 0.722897 0.120617 -0.722897
v -1.000000 0.120617 0.000000
v 0.000000 0.120617 1.000000
v 1.000000 0.120617 0.000000
v 0.000000 0.120617 -1.000000
v 0.000000 0.006701 0.000000
v -0.887687 0.120597 0.443844
v 0.443844 0.120597 0.887687
v 0.887687 0.120597 -0.443844
v -0.443844 0.120597 -0.887687
v -0.887687 0.120597 -0.443844
v -0.443844 0.120597 0.887687
v 0.887687 0.120597 0.443844
v 0.443844 0.120597 -0.887687
v 0.000000 0.063659 -0.500000
v 0.000000 0.063659 0.500000
v -0.500000 0.063659 0.000000
v 0.500000 0.063659 0.000000
v 0.504357 0.034808 0.504357
v -0.504783 0.028732 0.504783
v -0.503356 0.049107 -0.503356
v 0.502832 0.056589 -0.502832
vn 0.4420 -0.8142 0.3764
vn -0.3497 -0.8590 0.3740
vn 0.6138 -0.3172 0.7229
vn -0.5925 -0.4335 0.6790
vn -0.5357 -0.3973 0.7451
vn 0.3374 0.8784 0.3385
vn -0.7188 0.6134 -0.3274
vn 0.2896 -0.9569 -0.0209
vn -0.5438 0.8383 -0.0377
vn 0.1457 -0.9658 -0.2147
vn 0.1685 -0.9512 0.2586
vn -0.8755 -0.2680 -0.4021
vn 0.5620 -0.3414 -0.7534
vn -0.3304 0.3173 -0.8889
vn 0.8013 -0.0127 -0.5981
vn -0.2304 0.7967 -0.5587
vn 0.3809 0.8763 -0.2950
vn -0.1847 -0.9197 0.3465
vn 0.2009 -0.9721 -0.1212
vn -0.3351 -0.8909 0.3066
vn -0.2142 -0.9598 -0.1812
vn -0.0067 -0.9534 -0.3016
vn 0.9949 -0.0720 0.0705
vn 0.2250 0.3969 0.8899
vn -0.7021 -0.1880 0.6868
vn -0.6470 0.0345 -0.7617
vn -0.0512 0.2516 -0.9665
vn 0.3685 0.5610 0.7413
vn -0.0847 0.4414 0.8933
vn -0.7933 0.5444 -0.2727
vn -0.0321 0.2258 -0.9736
vn 0.8157 0.4067 -0.4114
vn 0.3003 0.6522 0.6960
vn 0.1164 0.6866 0.7177
vn -0.5397 0.7886 -0.2948
vn -0.1070 0.6899 -0.7160
vn 0.4440 0.8710 -0.2102
vn 0.2814 -0.9425 0.1805
vn 0.2024 -0.9182 0.3406
vn -0.4267 -0.8452 0.3217
vn -0.3563 -0.9161 -0.1839
vn -0.1547 -0.9574 -0.2437
vn 0.9738 0.1847 0.1326
vn 0.4570 0.0223 0.8892
vn -0.7071 -0.3923 0.5883
vn -0.8079 -0.2356 -0.5401
vn -0.0127 -0.2246 -0.9744
vn 0.9765 0.1766 0.1237
vn -0.0778 0.3963 0.9148
vn -0.9678 0.2498 -0.0306
vn -0.1360 -0.0983 -0.9858
vn 0.8358 0.4517 -0.3122
vn 0.5050 0.8352 -0.2177
vn -0.1478 0.7870 0.5990
vn -0.4942 0.8651 0.0856
vn 0.0622 0.9320 -0.3571
vn 0.5177 0.8391 -0.1669
vn 0.4360 0.8417 0.3184
vn 0.6079 -0.7809 -0.1439
vn -0.1982 -0.8116 -0.5496
vn 0.9268 -0.2597 -0.2712
vn -0.3421 -0.3108 -0.8868
vn 0.0576 -0.0235 -0.9981
vn -0.2320 0.9561 -0.1788
vn 0.7544 0.6273 -0.1932
vn -0.0547 -0.9117 -0.4073
vn -0.1300 -0.9321 -0.3379
vn 0.8098 0.1349 -0.5710
vn -0.1373 -0.2914 -0.9467
vn -0.9229 -0.2281 -0.3103
vn 0.0800 -0.0054 -0.9968
vn -0.8575 -0.0499 -0.5121
vn 0.2355 0.8610 -0.4507
vn -0.2435 0.9699 0.0043
vn -0.4856 -0.8122 0.3232
vn -0.5549 -0.8319 0.0059
vn 0.3212 -0.9454 0.0552
vn 0.2668 -0.9442 -0.1931
vn -0.4542 -0.8614 -0.2274
vn -0.9369 -0.3481 -0.0314
vn -0.5240 -0.2663 0.8090
vn 0.7387 0.3495 0.5764
vn 0.8210 0.0981 -0.5624
vn -0.7267 -0.1248 -0.6755
vn -0.7262 0.0893 0.6817
vn 0.4557 0.4708 0.7555
vn 0.7837 0.6018 0.1538
vn -0.0152 0.7081 -0.7060
vn -0.8194 0.2884 -0.4953
vn -0.2722 0.9588 0.0813
vn 0.1485 0.9431 0.2974
vn 0.5802 0.8081 0.1015
vn -0.0535 0.8101 -0.5838
vn -0.3692 0.8866 -0.2786
vn 0.0454 -0.8695 0.4919
vn -0.3600 -0.9220 -0.1425
vn 0.7587 -0.6415 0.1134
vn 0.6429 -0.6926 -0.3270
vn -0.0515 -0.8892 -0.4546
vn -0.9846 -0.1732 -0.0248
vn -0.3866 -0.0226 0.9220
vn 0.9222 -0.3744 0.0966
vn 0.7273 -0.5794 -0.3679
vn -0.1830 0.4310 -0.8836
vn -0.8236 0.1807 0.5377
vn 0.3340 0.6396 0.6923
vn 0.9424 -0.3343 0.0101
vn -0.1550 0.4579 -0.8754
vn -0.4427 0.5231 -0.7283
vn -0.4448 0.8746 0.1928
vn 0.2863 0.8064 0.5175
vn 0.3805 0.9160 -0.1274
vn -0.1656 0.7894 -0.5911
vn -0.1328 0.7869 -0.6026
vn 0.7942 0.4729 0.3815
vn 0.8845 0.4176 -0.2080
vn -0.9659 0.2590 0.0010
vn 0.9307 -0.0724 -0.3584
vn -0.0242 0.0160 0.9996
vn -0.2745 -0.6721 0.6877
vn -0.7202 -0.1034 -0.6860
vn -0.5630 -0.0284 0.8260
vn -0.4594 -0.8875 0.0373
vn -0.8784 0.3696 0.3030
vn -0.3217 0.9436 0.0779
vn -0.0237 0.5358 0.8440
vn 0.1630 -0.9484 0.2721
vn -0.8137 -0.2065 0.5434
vn 0.3692 -0.4202 0.8289
vn -0.5287 0.1106 0.8416
vn 0.6756 0.3429 0.6527
vn -0.0995 0.9125 0.3967
vn 0.2487 0.9056 0.3435
vn -0.3685 -0.7585 -0.5375
vn 0.1688 -0.9751 0.1441
vn -0.3625 -0.7630 -0.5352
vn -0.5061 -0.5853 0.6335
vn 0.0587 -0.9026 0.4264
vn 0.9650 -0.2462 0.0907
vn -0.3743 -0.6403 -0.6708
vn -0.4486 -0.5951 -0.6667
vn -0.5544 -0.4511 0.6994
vn 0.1644 -0.1238 0.9786
vn 0.9280 0.1462 -0.3428
vn -0.4490 -0.5954 -0.6662
vn -0.9914 0.0776 -0.1052
vn -0.1757 0.0647 0.9823
vn 0.6662 0.2024 0.7178
vn 0.3526 0.9177 -0.1832
vn -0.1131 0.9482 -0.2970
vn -0.4820 0.8761 0.0145
vn -0.1642 0.5944 0.7872
vn 0.4352 0.7350 0.5199
vn 0.5952 -0.7895 -0.1497
vn 0.6088 -0.7837 -0.1236
vn -0.5825 -0.8122 -0.0307
vn -0.4395 -0.6996 0.5634
vn 0.2290 -0.7991 0.5558
vn 0.9314 -0.3591 -0.0594
vn 0.6645 -0.5214 -0.5353
vn -0.8469 -0.3244 -0.4213
vn -0.6048 0.2881 0.7425
vn 0.5625 -0.1129 0.8190
vn 0.9343 -0.1928 -0.2998
vn -0.2932 0.1760 -0.9397
vn -0.8500 0.4973 0.1738
vn -0.6607 0.1852 0.7274
vn 0.8295 0.1520 0.5375
vn 0.3729 0.9060 -0.2004
vn -0.1267 0.8690 -0.4783
vn -0.5203 0.8418 0.1439
vn -0.4816 0.8444 0.2345
vn 0.3766 0.9236 0.0723
vn -0.0557 -0.9620 -0.2674
vn 0.0488 0.8978 -0.4376
vn 0.0818 -0.6972 0.7122
vn 0.6797 -0.5743 -0.4563
vn 0.3633 -0.3323 0.8704
vn 0.9473 -0.3199 0.0162
vn 0.2446 0.9416 -0.2315
vn 0.1824 -0.9408 0.2858
vn 0.7612 -0.4449 0.4719
vn -0.0019 -0.4802 0.8771
vn 0.4413 -0.1471 0.8852
vn -0.7864 0.3320 0.5209
vn 0.0126 0.9032 0.4290
vn -0.2388 0.9179 0.3170
vn -0.1094 -0.8089 -0.5777
vn -0.4446 -0.8955 -0.0217
vn 0.3994 -0.7284 -0.5567
vn 0.3920 -0.8263 0.4044
vn 0.0073 -0.8573 0.5148
vn -0.9982 -0.0594 -0.0001
vn -0.2771 -0.2640 -0.9239
vn 0.5721 -0.3640 -0.7349
vn 0.7029 -0.3024 0.6438
vn -0.1158 -0.1443 0.9827
vn -0.7818 0.2377 -0.5765
vn 0.2973 -0.0430 -0.9538
vn 0.9655 0.0954 -0.2423
vn 0.2741 0.0573 0.9600
vn -0.7482 0.3436 0.5675
vn -0.4568 0.7651 -0.4538
vn 0.1633 0.7878 -0.5939
vn 0.3724 0.8653 -0.3354
vn -0.0308 0.9048 0.4247
vn -0.4478 0.8228 0.3498
vn -0.0382 -0.6162 -0.7867
vn -0.3019 -0.9384 -0.1684
vn 0.6973 -0.7132 -0.0714
vn 0.6885 -0.7247 0.0290
vn -0.0797 -0.9748 0.2084
vn -0.9642 -0.0645 -0.2571
vn -0.0520 -0.4500 -0.8915
vn 0.9917 -0.1149 -0.0584
vn 0.9282 -0.2819 0.2429
vn -0.0647 -0.1981 0.9780
vn -0.7957 0.1680 -0.5818
vn 0.3001 0.0081 -0.9539
vn 0.9951 -0.0965 -0.0232
vn 0.3290 0.1004 0.9390
vn -0.6407 0.4876 0.5931
vn -0.5221 0.7652 -0.3768
vn 0.1063 0.9034 -0.4154
vn 0.3581 0.9336 -0.0147
vn 0.1367 0.7826 0.6073
vn -0.5914 0.5817 0.5584
vn 0.0253 0.7365 -0.6760
vn -0.1597 0.9694 -0.1866
vn 0.3755 -0.0994 -0.9215
vn 0.8870 -0.3391 0.3134
vn 0.5629 -0.2465 0.7889
vn -0.2531 0.0999 0.9623
vn 0.4653 0.8812 -0.0834
vn -0.8888 0.3521 -0.2932
vn -0.5562 0.2242 -0.8002
vn 0.4906 0.8680 -0.0766
vn 0.9526 -0.2627 -0.1532
vn 0.9084 -0.3415 0.2412
vn -0.1824 -0.1815 0.9663
vn -0.9491 0.3150 -0.0055
vn 0.5212 0.8263 0.2133
vn -0.8591 0.3853 -0.3370
vn 0.1558 0.2141 -0.9643
vn -0.0511 0.9987 0.0012
vn 0.4261 -0.2154 0.8786
vn -0.5720 -0.3749 0.7295
vn -0.9757 -0.2151 0.0413
vn -0.4008 0.1845 -0.8974
vn -0.2903 0.8938 0.3419
vn 0.4626 0.3374 -0.8199
vn 0.9593 0.2503 -0.1310
vn -0.1638 0.9022 0.3991
vn -0.7527 -0.1978 0.6280
vn -0.7292 -0.3813 -0.5682
vn -0.2531 -0.2849 -0.9245
vn 0.5790 0.0782 -0.8116
vn -0.5331 0.8264 -0.1815
vn 0.7750 0.3571 0.5214
vn 0.2478 0.2009 0.9477
vn -0.3353 0.9347 -0.1178
vn -0.9699 -0.1565 -0.1865
vn -0.1028 -0.4271 -0.8983
vn 0.5554 -0.3053 -0.7735
vn 0.7783 0.2925 0.5556
vn -0.1526 0.9712 -0.1832
vn 0.0979 0.3967 0.9127
vn -0.8190 0.1836 0.5437
vn -0.1845 0.9671 -0.1752
vn -0.0741 -0.2076 -0.9754
vn 0.7405 -0.3255 -0.5880
vn 0.7873 -0.0860 0.6106
vn 0.0305 0.2271 0.9734
vn 0.5679 0.7874 -0.2396
vn -0.8052 0.3801 0.4552
vn -0.9535 0.2582 -0.1553
vn 0.0964 0.9919 0.0821
vn -0.1425 0.9795 0.1425
vn 0.0013 0.9896 0.1438
vn 0.0218 0.9995 -0.0218
vn -0.1587 0.9873 0.0120
vn -0.0278 0.9992 -0.0278
vn 0.0120 0.9873 -0.1587
vn -0.1892 0.9636 -0.1892
vn 0.1650 0.9861 0.0176
vn 0.2019 0.9584 -0.2019
vn -0.0176 0.9861 -0.1650
vn 0.1587 0.9745 0.1587
vn 0.1438 0.9896 0.0013
vn 0.0420 0.9982 0.0420
vn -0.0083 0.9907 0.1360
vn -0.0495 0.9975 0.0495
vn -0.1360 0.9907 0.0083
vt 0.450798 0.810035
vt 0.480158 0.830918
vt 0.449837 0.825199
vt 0.401303 0.827030
vt 0.448073 0.854483
vt 0.418815 0.870529
vt 0.446041 0.870037
vt 0.442846 0.860835
vt 0.472338 0.821370
vt 0.446277 0.820474
vt 0.443693 0.812350
vt 0.460019 0.825892
vt 0.113889 0.850796
vt 0.138106 0.865280
vt 0.113241 0.848536
vt 0.139376 0.812894
vt 0.129754 0.819402
vt 0.174768 0.818652
vt 0.181663 0.824424
vt 0.108103 0.829281
vt 0.151943 0.850012
vt 0.179345 0.850457
vt 0.348220 0.810129
vt 0.377413 0.813205
vt 0.342902 0.821955
vt 0.382432 0.821955
vt 0.301584 0.823063
vt 0.327364 0.821459
vt 0.382493 0.852093
vt 0.345196 0.838515
vt 0.315565 0.854977
vt 0.322058 0.844678
vt 0.371486 0.852548
vt 0.347464 0.869632
vt 0.134302 0.810237
vt 0.180090 0.827729
vt 0.143469 0.820432
vt 0.190897 0.809891
vt 0.104829 0.822881
vt 0.125731 0.820851
vt 0.178435 0.853861
vt 0.173187 0.864043
vt 0.111648 0.852743
vt 0.115746 0.861133
vt 0.162291 0.855771
vt 0.146636 0.874731
vt 0.478167 0.869747
vt 0.466696 0.828489
vt 0.467081 0.850333
vt 0.456158 0.847263
vt 0.449980 0.862903
vt 0.416090 0.825646
vt 0.404415 0.810704
vt 0.420206 0.855560
vt 0.403531 0.851249
vt 0.342945 0.814078
vt 0.355103 0.820169
vt 0.303768 0.840263
vt 0.305041 0.839225
vt 0.384806 0.827768
vt 0.347590 0.828344
vt 0.298740 0.854446
vt 0.325084 0.859603
vt 0.356114 0.860867
vt 0.365018 0.859506
vt 0.321416 0.851576
vt 0.347920 0.869792
vt 0.144366 0.805716
vt 0.158644 0.829943
vt 0.110343 0.815768
vt 0.110226 0.823967
vt 0.161707 0.825024
vt 0.145895 0.825336
vt 0.103578 0.857709
vt 0.125235 0.861709
vt 0.172657 0.856409
vt 0.171321 0.851441
vt 0.122475 0.845248
vt 0.135412 0.871481
vt 0.416224 0.858586
vt 0.483760 0.859003
vt 0.445766 0.868610
vt 0.436774 0.813755
vt 0.436848 0.838447
vt 0.398298 0.826899
vt 0.406582 0.857496
vt 0.441591 0.826805
vt 0.130944 0.821805
vt 0.144964 0.845388
vt 0.225673 0.810141
vt 0.246104 0.821666
vt 0.276541 0.813165
vt 0.273302 0.820732
vt 0.206816 0.821990
vt 0.239810 0.821241
vt 0.283509 0.853812
vt 0.260977 0.849966
vt 0.212675 0.853428
vt 0.207066 0.849514
vt 0.256683 0.851656
vt 0.244855 0.870434
vt 0.244209 0.806283
vt 0.239817 0.811044
vt 0.273950 0.832751
vt 0.274115 0.826804
vt 0.209005 0.831391
vt 0.248473 0.832224
vt 0.283655 0.855321
vt 0.270532 0.852127
vt 0.215769 0.853711
vt 0.221156 0.851416
vt 0.256143 0.863393
vt 0.247859 0.869953
vt 0.471114 0.821084
vt 0.481836 0.851695
vt 0.429454 0.842564
vt 0.243633 0.810237
vt 0.212236 0.826222
vt 0.241719 0.829146
vt 0.212294 0.825180
vt 0.276083 0.826566
vt 0.250870 0.828534
vt 0.210157 0.861108
vt 0.231436 0.855268
vt 0.267855 0.856244
vt 0.276701 0.867879
vt 0.234470 0.860577
vt 0.237404 0.876537
vt 0.357865 0.806824
vt 0.316627 0.821842
vt 0.373816 0.823830
vt 0.305828 0.817869
vt 0.374745 0.822995
vt 0.363718 0.813775
vt 0.309841 0.851812
vt 0.334948 0.852070
vt 0.377301 0.853219
vt 0.378215 0.853469
vt 0.337435 0.849149
vt 0.333328 0.870499
vt 0.077933 0.805683
vt 0.077933 0.894892
vt 0.068164 0.894892
vt 0.068164 0.805682
vt 0.058394 0.894892
vt 0.058394 0.805682
vt 0.048625 0.894892
vt 0.048625 0.805682
vt 0.038855 0.894892
vt 0.038855 0.805682
vt 0.029086 0.894892
vt 0.029086 0.805682
vt 0.019316 0.894892
vt 0.019316 0.805682
vt 0.070235 0.972651
vt 0.086271 0.970193
vt 0.079404 0.981821
vt 0.067777 0.988687
vt 0.028310 0.972673
vt 0.049283 0.972533
vt 0.049283 0.993367
vt 0.030789 0.988687
vt 0.028250 0.930667
vt 0.049283 0.930866
vt 0.049283 0.951700
vt 0.028449 0.951700
vt 0.070298 0.930685
vt 0.086271 0.933206
vt 0.090950 0.951700
vt 0.070117 0.951700
vt 0.049283 0.910032
vt 0.067777 0.914712
vt 0.079404 0.921579
vt 0.012296 0.933206
vt 0.007616 0.951700
vt 0.019162 0.921579
vt 0.030789 0.914712
vt 0.012296 0.970193
vt 0.019162 0.981821
s 0
f 1/1/1 2/2/1 3/3/1
f 1/1/2 3/3/2 4/4/2
f 3/3/3 2/2/3 5/5/3
f 4/4/4 3/3/4 6/6/4
f 3/3/5 5/5/5 6/6/5
f 6/6/6 5/5/6 7/7/6
f 4/4/7 6/6/7 42/8/7
f 44/9/8 113/10/8 43/11/8 45/12/8
f 84/13/9 15/14/9 12/15/9
f 8/16/10 10/17/10 11/18/10
f 11/18/11 83/19/11 8/16/11
f 10/17/12 9/20/12 12/15/12
f 11/18/13 10/17/13 13/21/13
f 10/17/14 12/15/14 13/21/14
f 11/18/15 13/21/15 14/22/15
f 13/21/16 12/15/16 15/14/16
f 14/22/17 13/21/17 15/14/17
f 16/23/18 17/24/18 18/25/18
f 17/24/19 16/23/19 21/26/19
f 16/23/20 18/25/20 19/27/20
f 16/23/21 19/27/21 20/28/21
f 16/23/22 20/28/22 21/26/22
f 17/24/23 21/26/23 26/29/23
f 18/25/24 17/24/24 22/30/24
f 19/27/25 18/25/25 23/31/25
f 20/28/26 19/27/26 24/32/26
f 21/26/27 20/28/27 25/33/27
f 17/24/28 26/29/28 22/30/28
f 18/25/29 22/30/29 23/31/29
f 19/27/30 23/31/30 24/32/30
f 20/28/31 24/32/31 25/33/31
f 21/26/32 25/33/32 26/29/32
f 22/30/33 26/29/33 27/34/33
f 23/31/34 22/30/34 27/34/34
f 24/32/35 23/31/35 27/34/35
f 25/33/36 24/32/36 27/34/36
f 26/29/37 25/33/37 27/34/37
f 28/35/38 29/36/38 30/37/38
f 29/36/39 28/35/39 33/38/39
f 28/35/40 30/37/40 31/39/40
f 28/35/41 31/39/41 32/40/41
f 28/35/42 32/40/42 33/38/42
f 29/36/43 33/38/43 38/41/43
f 30/37/44 29/36/44 34/42/44
f 31/39/45 30/37/45 35/43/45
f 32/40/46 31/39/46 36/44/46
f 33/38/47 32/40/47 37/45/47
f 29/36/48 38/41/48 34/42/48
f 30/37/49 34/42/49 35/43/49
f 31/39/50 35/43/50 36/44/50
f 32/40/51 36/44/51 37/45/51
f 33/38/52 37/45/52 38/41/52
f 34/42/53 38/41/53 39/46/53
f 35/43/54 34/42/54 39/46/54
f 36/44/55 35/43/55 39/46/55
f 37/45/56 36/44/56 39/46/56
f 38/41/57 37/45/57 39/46/57
f 41/47/58 7/7/58 5/5/58
f 1/1/59 40/48/59 2/2/59
f 1/1/60 4/4/60 40/48/60
f 40/48/61 41/47/61 2/2/61
f 4/4/62 42/8/62 40/48/62
f 40/48/63 42/8/63 41/47/63
f 42/8/64 7/7/64 41/47/64
f 115/49/65 47/50/65 50/51/65
f 43/11/66 46/52/66 45/12/66
f 43/11/67 114/53/67 46/52/67
f 45/12/68 47/50/68 44/9/68
f 46/52/69 48/54/69 45/12/69
f 46/52/70 114/53/70 49/55/70
f 45/12/71 48/54/71 47/50/71
f 46/52/72 49/55/72 48/54/72
f 48/54/73 50/51/73 47/50/73
f 49/55/74 50/51/74 48/54/74
f 51/56/75 53/57/75 52/58/75
f 52/58/76 56/59/76 51/56/76
f 51/56/77 54/60/77 53/57/77
f 51/56/78 55/61/78 54/60/78
f 51/56/79 56/59/79 55/61/79
f 52/58/80 61/62/80 56/59/80
f 53/57/81 57/63/81 52/58/81
f 54/60/82 58/64/82 53/57/82
f 55/61/83 59/65/83 54/60/83
f 56/59/84 60/66/84 55/61/84
f 52/58/85 57/63/85 61/62/85
f 53/57/86 58/64/86 57/63/86
f 54/60/87 59/65/87 58/64/87
f 55/61/88 60/66/88 59/65/88
f 56/59/89 61/62/89 60/66/89
f 57/63/90 62/67/90 61/62/90
f 58/64/91 62/67/91 57/63/91
f 59/65/92 62/67/92 58/64/92
f 60/66/93 62/67/93 59/65/93
f 61/62/94 62/67/94 60/66/94
f 63/68/95 65/69/95 64/70/95
f 64/70/96 68/71/96 63/68/96
f 63/68/97 66/72/97 65/69/97
f 63/68/98 67/73/98 66/72/98
f 63/68/99 68/71/99 67/73/99
f 64/70/100 73/74/100 68/71/100
f 65/69/101 69/75/101 64/70/101
f 66/72/102 70/76/102 65/69/102
f 67/73/103 71/77/103 66/72/103
f 68/71/104 72/78/104 67/73/104
f 64/70/105 69/75/105 73/74/105
f 65/69/106 70/76/106 69/75/106
f 66/72/107 71/77/107 70/76/107
f 67/73/108 72/78/108 71/77/108
f 68/71/109 73/74/109 72/78/109
f 69/75/110 74/79/110 73/74/110
f 70/76/111 74/79/111 69/75/111
f 71/77/112 74/79/112 70/76/112
f 72/78/113 74/79/113 71/77/113
f 73/74/114 74/79/114 72/78/114
f 2/2/115 41/47/115 5/5/115
f 47/50/116 115/49/116 44/9/116
f 84/13/117 12/15/117 9/20/117
f 14/22/118 83/19/118 11/18/118
f 80/80/119 112/81/119 81/82/119
f 75/83/120 78/84/120 77/85/120
f 77/85/121 79/86/121 76/87/121
f 78/84/122 80/80/122 77/85/122
f 8/16/123 82/88/123 9/20/123 10/17/123
f 77/85/124 80/80/124 79/86/124
f 80/80/125 81/82/125 79/86/125
f 78/84/126 112/81/126 80/80/126
f 8/16/127 83/19/127 82/88/127
f 82/88/128 84/13/128 9/20/128
f 83/19/129 85/89/129 82/88/129
f 82/88/130 85/89/130 84/13/130
f 83/19/131 14/22/131 85/89/131
f 85/89/132 15/14/132 84/13/132
f 14/22/133 15/14/133 85/89/133
f 86/90/134 88/91/134 87/92/134
f 87/92/135 91/93/135 86/90/135
f 86/90/136 89/94/136 88/91/136
f 86/90/137 90/95/137 89/94/137
f 86/90/138 91/93/138 90/95/138
f 87/92/139 96/96/139 91/93/139
f 88/91/140 92/97/140 87/92/140
f 89/94/141 93/98/141 88/91/141
f 90/95/142 94/99/142 89/94/142
f 91/93/143 95/100/143 90/95/143
f 87/92/144 92/97/144 96/96/144
f 88/91/145 93/98/145 92/97/145
f 89/94/146 94/99/146 93/98/146
f 90/95/147 95/100/147 94/99/147
f 91/93/148 96/96/148 95/100/148
f 92/97/149 97/101/149 96/96/149
f 93/98/150 97/101/150 92/97/150
f 94/99/151 97/101/151 93/98/151
f 95/100/152 97/101/152 94/99/152
f 96/96/153 97/101/153 95/100/153
f 98/102/154 100/103/154 99/104/154
f 99/104/155 103/105/155 98/102/155
f 98/102/156 101/106/156 100/103/156
f 98/102/157 102/107/157 101/106/157
f 98/102/158 103/105/158 102/107/158
f 99/104/159 108/108/159 103/105/159
f 100/103/160 104/109/160 99/104/160
f 101/106/161 105/110/161 100/103/161
f 102/107/162 106/111/162 101/106/162
f 103/105/163 107/112/163 102/107/163
f 99/104/164 104/109/164 108/108/164
f 100/103/165 105/110/165 104/109/165
f 101/106/166 106/111/166 105/110/166
f 102/107/167 107/112/167 106/111/167
f 103/105/168 108/108/168 107/112/168
f 104/109/169 109/113/169 108/108/169
f 105/110/170 109/113/170 104/109/170
f 106/111/171 109/113/171 105/110/171
f 107/112/172 109/113/172 106/111/172
f 108/108/173 109/113/173 107/112/173
f 76/87/174 110/114/174 75/83/174 77/85/174
f 111/115/175 79/86/175 81/82/175
f 75/83/176 110/114/176 78/84/176
f 110/114/177 76/87/177 111/115/177
f 78/84/178 110/114/178 112/81/178
f 110/114/179 111/115/179 112/81/179
f 112/81/180 111/115/180 81/82/180
f 43/11/181 113/10/181 114/53/181
f 113/10/182 44/9/182 115/49/182
f 114/53/183 113/10/183 116/116/183
f 113/10/184 115/49/184 116/116/184
f 114/53/185 116/116/185 49/55/185
f 116/116/186 115/49/186 50/51/186
f 49/55/187 116/116/187 50/51/187
f 117/117/188 118/118/188 119/119/188
f 118/118/189 117/117/189 122/120/189
f 117/117/190 119/119/190 120/121/190
f 117/117/191 120/121/191 121/122/191
f 117/117/192 121/122/192 122/120/192
f 118/118/193 122/120/193 127/123/193
f 119/119/194 118/118/194 123/124/194
f 120/121/195 119/119/195 124/125/195
f 121/122/196 120/121/196 125/126/196
f 122/120/197 121/122/197 126/127/197
f 118/118/198 127/123/198 123/124/198
f 119/119/199 123/124/199 124/125/199
f 120/121/200 124/125/200 125/126/200
f 121/122/201 125/126/201 126/127/201
f 122/120/202 126/127/202 127/123/202
f 123/124/203 127/123/203 128/128/203
f 124/125/204 123/124/204 128/128/204
f 125/126/205 124/125/205 128/128/205
f 126/127/206 125/126/206 128/128/206
f 127/123/207 126/127/207 128/128/207
f 129/129/208 130/130/208 131/131/208
f 130/130/209 129/129/209 134/132/209
f 129/129/210 131/131/210 132/133/210
f 129/129/211 132/133/211 133/134/211
f 129/129/212 133/134/212 134/132/212
f 130/130/213 134/132/213 139/135/213
f 131/131/214 130/130/214 135/136/214
f 132/133/215 131/131/215 136/137/215
f 133/134/216 132/133/216 137/138/216
f 134/132/217 133/134/217 138/139/217
f 130/130/218 139/135/218 135/136/218
f 131/131/219 135/136/219 136/137/219
f 132/133/220 136/137/220 137/138/220
f 133/134/221 137/138/221 138/139/221
f 134/132/222 138/139/222 139/135/222
f 135/136/223 139/135/223 140/140/223
f 136/137/224 135/136/224 140/140/224
f 137/138/225 136/137/225 140/140/225
f 138/139/226 137/138/226 140/140/226
f 139/135/227 138/139/227 140/140/227
f 79/86/228 111/115/228 76/87/228
f 7/7/229 42/8/229 6/6/229
f 141/141/230 142/142/230 144/143/230 143/144/230
f 143/144/231 144/143/231 146/145/231 145/146/231
f 145/146/232 146/145/232 148/147/232 147/148/232
f 147/148/233 148/147/233 150/149/233 149/150/233
f 142/142/234 148/147/234 146/145/234 144/143/234
f 149/150/235 150/149/235 152/151/235 151/152/235
f 151/152/236 152/151/236 142/153/236 141/154/236
f 152/151/237 150/149/237 148/147/237 142/153/237
f 153/141/238 154/142/238 156/143/238 155/144/238
f 155/144/239 156/143/239 158/145/239 157/146/239
f 157/146/240 158/145/240 160/147/240 159/148/240
f 159/148/241 160/147/241 162/149/241 161/150/241
f 154/142/242 160/147/242 158/145/242 156/143/242
f 161/150/243 162/149/243 164/151/243 163/152/243
f 163/152/244 164/151/244 154/153/244 153/154/244
f 164/151/245 162/149/245 160/147/245 154/153/245
f 165/141/246 166/142/246 168/143/246 167/144/246
f 167/144/247 168/143/247 170/145/247 169/146/247
f 169/146/248 170/145/248 172/147/248 171/148/248
f 171/148/249 172/147/249 174/149/249 173/150/249
f 166/142/250 172/147/250 170/145/250 168/143/250
f 173/150/251 174/149/251 176/151/251 175/152/251
f 175/152/252 176/151/252 166/153/252 165/154/252
f 176/151/253 174/149/253 172/147/253 166/153/253
f 177/141/254 178/142/254 180/143/254 179/144/254
f 179/144/255 180/143/255 182/145/255 181/146/255
f 181/146/256 182/145/256 184/147/256 183/148/256
f 183/148/257 184/147/257 186/149/257 185/150/257
f 178/142/258 184/147/258 182/145/258 180/143/258
f 185/150/259 186/149/259 188/151/259 187/152/259
f 187/152/260 188/151/260 178/153/260 177/154/260
f 188/151/261 186/149/261 184/147/261 178/153/261
f 189/141/262 190/142/262 192/143/262 191/144/262
f 191/144/263 192/143/263 194/145/263 193/146/263
f 193/146/264 194/145/264 196/147/264 195/148/264
f 195/148/265 196/147/265 198/149/265 197/150/265
f 190/142/266 196/147/266 194/145/266 192/143/266
f 197/150/267 198/149/267 200/151/267 199/152/267
f 199/152/268 200/151/268 190/153/268 189/154/268
f 200/151/269 198/149/269 196/147/269 190/153/269
f 201/141/270 202/142/270 204/143/270 203/144/270
f 203/144/271 204/143/271 206/145/271 205/146/271
f 205/146/272 206/145/272 208/147/272 207/148/272
f 207/148/273 208/147/273 210/149/273 209/150/273
f 202/142/274 208/147/274 206/145/274 204/143/274
f 209/150/275 210/149/275 212/151/275 211/152/275
f 211/152/276 212/151/276 202/153/276 201/154/276
f 212/151/277 210/149/277 208/147/277 202/153/277
f 237/155/278 224/156/278 216/157/278 229/158/278
f 236/159/279 230/160/279 220/161/279 225/162/279
f 235/163/280 231/164/280 221/165/280 232/166/280
f 234/167/281 228/168/281 219/169/281 233/170/281
f 231/164/282 234/167/282 233/170/282 221/165/282
f 218/171/283 223/172/283 234/167/283 231/164/283
f 223/172/284 214/173/284 228/168/284 234/167/284
f 222/174/285 235/163/285 232/166/285 217/175/285
f 213/176/286 227/177/286 235/163/286 222/174/286
f 227/177/287 218/171/287 231/164/287 235/163/287
f 226/178/288 236/159/288 225/162/288 215/179/288
f 217/175/289 232/166/289 236/159/289 226/178/289
f 232/166/290 221/165/290 230/160/290 236/159/290
f 230/160/291 237/155/291 229/158/291 220/161/291
f 221/165/292 233/170/292 237/155/292 230/160/292
f 233/170/293 219/169/293 224/156/293 237/155/293
