# Blender 4.4.3
# www.blender.org
o SM_CurvedRailHigh_GrindRail_V1.0
v -7.800219 0.931240 -4.950334
v -7.800219 0.968760 -4.950334
v -8.200135 0.931240 -4.950334
v -8.200135 0.968760 -4.950334
v -7.830219 0.901240 -4.970334
v -7.830219 0.931240 -5.000334
v -7.810983 0.914965 -4.977459
v -7.830219 0.968760 -5.000334
v -7.830219 0.998760 -4.970334
v -7.810983 0.985035 -4.977459
v -8.170135 0.931240 -5.000334
v -8.170135 0.901240 -4.970334
v -8.189370 0.914965 -4.977459
v -8.170135 0.998760 -4.970334
v -8.170135 0.968760 -5.000334
v -8.189370 0.985035 -4.977459
v 7.950000 0.931240 -0.199957
v 7.950000 0.968760 -0.199957
v 7.950000 0.931240 0.199959
v 7.950000 0.968760 0.199959
v 7.970000 0.901240 -0.169957
v 8.000000 0.931240 -0.169957
v 7.977125 0.914965 -0.189192
v 8.000000 0.968760 -0.169957
v 7.970000 0.998760 -0.169957
v 7.977125 0.985035 -0.189192
v 8.000000 0.931240 0.169959
v 7.970000 0.901240 0.169959
v 7.977125 0.914965 0.189195
v 7.970000 0.998760 0.169959
v 8.000000 0.968760 0.169959
v 7.977125 0.985035 0.189195
v 0.502274 0.000652 -0.070448
v 0.502274 0.948652 -0.070448
v 0.551771 0.000652 -0.049946
v 0.551771 0.948652 -0.049946
v 0.572274 0.000652 -0.000448
v 0.572274 0.948652 -0.000448
v 0.551771 0.000652 0.049049
v 0.551771 0.948652 0.049049
v 0.502274 0.000652 0.069552
v 0.502274 0.948652 0.069552
v 0.452776 0.000652 0.049049
v 0.452776 0.948652 0.049049
v 0.432274 0.000652 -0.000448
v 0.432274 0.948652 -0.000448
v 0.452776 0.000652 -0.049946
v 0.452776 0.948652 -0.049946
v 1.502274 0.000652 -0.070448
v 1.502274 0.948652 -0.070448
v 1.551771 0.000652 -0.049946
v 1.551771 0.948652 -0.049946
v 1.572274 0.000652 -0.000448
v 1.572274 0.948652 -0.000448
v 1.551771 0.000652 0.049049
v 1.551771 0.948652 0.049049
v 1.502274 0.000652 0.069552
v 1.502274 0.948652 0.069552
v 1.452776 0.000652 0.049049
v 1.452776 0.948652 0.049049
v 1.432274 0.000652 -0.000448
v 1.432274 0.948652 -0.000448
v 1.452776 0.000652 -0.049946
v 1.452776 0.948652 -0.049946
v 2.502274 0.000652 -0.070448
v 2.502274 0.948652 -0.070448
v 2.551771 0.000652 -0.049946
v 2.551771 0.948652 -0.049946
v 2.572274 0.000652 -0.000448
v 2.572274 0.948652 -0.000448
v 2.551771 0.000652 0.049049
v 2.551771 0.948652 0.049049
v 2.502274 0.000652 0.069552
v 2.502274 0.948652 0.069552
v 2.452776 0.000652 0.049049
v 2.452776 0.948652 0.049049
v 2.432274 0.000652 -0.000448
v 2.432274 0.948652 -0.000448
v 2.452776 0.000652 -0.049946
v 2.452776 0.948652 -0.049946
v 3.502274 0.000652 -0.070448
v 3.502274 0.948652 -0.070448
v 3.551771 0.000652 -0.049946
v 3.551771 0.948652 -0.049946
v 3.572274 0.000652 -0.000448
v 3.572274 0.948652 -0.000448
v 3.551771 0.000652 0.049049
v 3.551771 0.948652 0.049049
v 3.502274 0.000652 0.069552
v 3.502274 0.948652 0.069552
v 3.452776 0.000652 0.049049
v 3.452776 0.948652 0.049049
v 3.432274 0.000652 -0.000448
v 3.432274 0.948652 -0.000448
v 3.452776 0.000652 -0.049946
v 3.452776 0.948652 -0.049946
v 4.502274 0.000652 -0.070448
v 4.502274 0.948652 -0.070448
v 4.551771 0.000652 -0.049946
v 4.551771 0.948652 -0.049946
v 4.572274 0.000652 -0.000448
v 4.572274 0.948652 -0.000448
v 4.551771 0.000652 0.049049
v 4.551771 0.948652 0.049049
v 4.502274 0.000652 0.069552
v 4.502274 0.948652 0.069552
v 4.452776 0.000652 0.049049
v 4.452776 0.948652 0.049049
v 4.432274 0.000652 -0.000448
v 4.432274 0.948652 -0.000448
v 4.452776 0.000652 -0.049946
v 4.452776 0.948652 -0.049946
v 5.502274 0.000652 -0.070448
v 5.502274 0.948652 -0.070448
v 5.551771 0.000652 -0.049946
v 5.551771 0.948652 -0.049946
v 5.572274 0.000652 -0.000448
v 5.572274 0.948652 -0.000448
v 5.551771 0.000652 0.049049
v 5.551771 0.948652 0.049049
v 5.502274 0.000652 0.069552
v 5.502274 0.948652 0.069552
v 5.452776 0.000652 0.049049
v 5.452776 0.948652 0.049049
v 5.432274 0.000652 -0.000448
v 5.432274 0.948652 -0.000448
v 5.452776 0.000652 -0.049946
v 5.452776 0.948652 -0.049946
v 6.502274 0.000652 -0.070448
v 6.502274 0.948652 -0.070448
v 6.551771 0.000652 -0.049946
v 6.551771 0.948652 -0.049946
v 6.572274 0.000652 -0.000448
v 6.572274 0.948652 -0.000448
v 6.551771 0.000652 0.049049
v 6.551771 0.948652 0.049049
v 6.502274 0.000652 0.069552
v 6.502274 0.948652 0.069552
v 6.452776 0.000652 0.049049
v 6.452776 0.948652 0.049049
v 6.432274 0.000652 -0.000448
v 6.432274 0.948652 -0.000448
v 6.452776 0.000652 -0.049946
v 6.452776 0.948652 -0.049946
v 7.502274 0.000652 -0.070448
v 7.502274 0.948652 -0.070448
v 7.551771 0.000652 -0.049946
v 7.551771 0.948652 -0.049946
v 7.572274 0.000652 -0.000448
v 7.572274 0.948652 -0.000448
v 7.551771 0.000652 0.049049
v 7.551771 0.948652 0.049049
v 7.502274 0.000652 0.069552
v 7.502274 0.948652 0.069552
v 7.452776 0.000652 0.049049
v 7.452776 0.948652 0.049049
v 7.432274 0.000652 -0.000448
v 7.432274 0.948652 -0.000448
v 7.452776 0.000652 -0.049946
v 7.452776 0.948652 -0.049946
v -0.497726 0.000652 -0.070448
v -0.497726 0.948652 -0.070448
v -0.448229 0.000652 -0.049946
v -0.448229 0.948652 -0.049946
v -0.427726 0.000652 -0.000448
v -0.427726 0.948652 -0.000448
v -0.448229 0.000652 0.049049
v -0.448229 0.948652 0.049049
v -0.497726 0.000652 0.069552
v -0.497726 0.948652 0.069552
v -0.547224 0.000652 0.049049
v -0.547224 0.948652 0.049049
v -0.567726 0.000652 -0.000448
v -0.567726 0.948652 -0.000448
v -0.547224 0.000652 -0.049946
v -0.547224 0.948652 -0.049946
v -1.497726 0.000652 -0.070448
v -1.497726 0.948652 -0.070448
v -1.448229 0.000652 -0.049946
v -1.448229 0.948652 -0.049946
v -1.427726 0.000652 -0.000448
v -1.427726 0.948652 -0.000448
v -1.448229 0.000652 0.049049
v -1.448229 0.948652 0.049049
v -1.497726 0.000652 0.069552
v -1.497726 0.948652 0.069552
v -1.547224 0.000652 0.049049
v -1.547224 0.948652 0.049049
v -1.567726 0.000652 -0.000448
v -1.567726 0.948652 -0.000448
v -1.547224 0.000652 -0.049946
v -1.547224 0.948652 -0.049946
v -5.497726 0.000652 -0.320448
v -5.497726 0.948652 -0.320448
v -5.448229 0.000652 -0.299946
v -5.448229 0.948652 -0.299946
v -5.427726 0.000652 -0.250448
v -5.427726 0.948652 -0.250448
v -5.448229 0.000652 -0.200951
v -5.448229 0.948652 -0.200951
v -5.497726 0.000652 -0.180448
v -5.497726 0.948652 -0.180448
v -5.547224 0.000652 -0.200951
v -5.547224 0.948652 -0.200951
v -5.567726 0.000652 -0.250448
v -5.567726 0.948652 -0.250448
v -5.547224 0.000652 -0.299946
v -5.547224 0.948652 -0.299946
v -6.448229 0.000652 -0.799945
v -6.448229 0.948652 -0.799945
v -6.427726 0.000652 -0.750448
v -6.427726 0.948652 -0.750448
v -6.448229 0.000652 -0.700950
v -6.448229 0.948652 -0.700950
v -6.497726 0.000652 -0.680448
v -6.497726 0.948652 -0.680448
v -6.547224 0.000652 -0.700950
v -6.547224 0.948652 -0.700950
v -6.567726 0.000652 -0.750448
v -6.567726 0.948652 -0.750448
v -6.547224 0.000652 -0.799945
v -6.547224 0.948652 -0.799945
v -6.497726 0.000652 -0.820448
v -6.497726 0.948652 -0.820448
v -7.179727 0.000652 -1.498060
v -7.179727 0.948652 -1.498060
v -7.200230 0.000652 -1.448563
v -7.200230 0.948652 -1.448563
v -7.249727 0.000652 -1.428060
v -7.249727 0.948652 -1.428060
v -7.299225 0.000652 -1.448563
v -7.299225 0.948652 -1.448563
v -7.319728 0.000652 -1.498060
v -7.319728 0.948652 -1.498060
v -7.299225 0.000652 -1.547558
v -7.299225 0.948652 -1.547558
v -7.249727 0.000652 -1.568060
v -7.249727 0.948652 -1.568060
v -7.200230 0.000652 -1.547558
v -7.200230 0.948652 -1.547558
v -7.700230 0.948652 -2.547558
v -7.700230 0.000652 -2.547558
v -7.749727 0.948652 -2.568060
v -7.749727 0.000652 -2.568060
v -7.799225 0.948652 -2.547558
v -7.799225 0.000652 -2.547558
v -7.819728 0.948652 -2.498060
v -7.819728 0.000652 -2.498060
v -7.799225 0.948652 -2.448563
v -7.799225 0.000652 -2.448563
v -7.749727 0.948652 -2.428060
v -7.749727 0.000652 -2.428060
v -7.700230 0.948652 -2.448563
v -7.700230 0.000652 -2.448563
v -7.679727 0.948652 -2.498060
v -7.679727 0.000652 -2.498060
v -7.929727 0.000652 -3.498060
v -7.929727 0.948652 -3.498060
v -7.950230 0.000652 -3.448563
v -7.950230 0.948652 -3.448563
v -7.999727 0.000652 -3.428060
v -7.999727 0.948652 -3.428060
v -8.049225 0.000652 -3.448563
v -8.049225 0.948652 -3.448563
v -8.069728 0.000652 -3.498060
v -8.069728 0.948652 -3.498060
v -8.049225 0.000652 -3.547558
v -8.049225 0.948652 -3.547558
v -7.999727 0.000652 -3.568060
v -7.999727 0.948652 -3.568060
v -7.950230 0.000652 -3.547558
v -7.950230 0.948652 -3.547558
v -7.929727 0.000652 -4.498061
v -7.929727 0.948652 -4.498061
v -7.950230 0.000652 -4.448563
v -7.950230 0.948652 -4.448563
v -7.999728 0.000652 -4.428060
v -7.999728 0.948652 -4.428060
v -8.049225 0.000652 -4.448563
v -8.049225 0.948652 -4.448563
v -8.069728 0.000652 -4.498061
v -8.069728 0.948652 -4.498061
v -8.049225 0.000652 -4.547558
v -8.049225 0.948652 -4.547558
v -7.999728 0.000652 -4.568060
v -7.999728 0.948652 -4.568060
v -7.950230 0.000652 -4.547558
v -7.950230 0.948652 -4.547558
v 0.000000 0.931240 0.199959
v 0.000000 0.968760 -0.199957
v 0.000000 0.901240 -0.169957
v 0.000000 0.901240 0.169959
v 0.000000 0.968760 0.199959
v 0.000000 0.931240 -0.199957
v 0.000000 0.998760 -0.169957
v 0.000000 0.998760 0.169959
v -7.141391 0.968760 -0.858607
v -6.858608 0.931240 -1.141390
v -6.879821 0.998760 -1.120177
v -7.120178 0.998760 -0.879820
v -7.141391 0.931240 -0.858607
v -6.858608 0.968760 -1.141390
v -6.879821 0.901240 -1.120177
v -7.120178 0.901240 -0.879820
v -4.987500 0.931240 0.199959
v -4.987500 0.968760 -0.199957
v -4.992500 0.901240 -0.169957
v -4.992500 0.901240 0.169959
v -4.987500 0.968760 0.199959
v -4.987500 0.931240 -0.199957
v -4.992500 0.998760 -0.169957
v -4.992500 0.998760 0.169959
v -8.200135 0.968760 -2.970334
v -7.800218 0.931240 -2.970334
v -7.830219 0.998760 -2.970334
v -8.170135 0.998760 -2.970334
v -8.200135 0.931240 -2.970334
v -7.800218 0.968760 -2.970334
v -7.830219 0.901240 -2.970334
v -8.170135 0.901240 -2.970334
v -2.497726 0.000652 -0.070448
v -2.497726 0.948652 -0.070448
v -2.448229 0.000652 -0.049946
v -2.448229 0.948652 -0.049946
v -2.427726 0.000652 -0.000448
v -2.427726 0.948652 -0.000448
v -2.448229 0.000652 0.049049
v -2.448229 0.948652 0.049049
v -2.497726 0.000652 0.069552
v -2.497726 0.948652 0.069552
v -2.547224 0.000652 0.049049
v -2.547224 0.948652 0.049049
v -2.567726 0.000652 -0.000448
v -2.567726 0.948652 -0.000448
v -2.547224 0.000652 -0.049946
v -2.547224 0.948652 -0.049946
v -3.497726 0.000652 -0.070448
v -3.497726 0.948652 -0.070448
v -3.448229 0.000652 -0.049946
v -3.448229 0.948652 -0.049946
v -3.427726 0.000652 -0.000448
v -3.427726 0.948652 -0.000448
v -3.448229 0.000652 0.049049
v -3.448229 0.948652 0.049049
v -3.497726 0.000652 0.069552
v -3.497726 0.948652 0.069552
v -3.547224 0.000652 0.049049
v -3.547224 0.948652 0.049049
v -3.567726 0.000652 -0.000448
v -3.567726 0.948652 -0.000448
v -3.547224 0.000652 -0.049946
v -3.547224 0.948652 -0.049946
v -4.497726 0.000652 -0.070448
v -4.497726 0.948652 -0.070448
v -4.448229 0.000652 -0.049946
v -4.448229 0.948652 -0.049946
v -4.427726 0.000652 -0.000448
v -4.427726 0.948652 -0.000448
v -4.448229 0.000652 0.049049
v -4.448229 0.948652 0.049049
v -4.497726 0.000652 0.069552
v -4.497726 0.948652 0.069552
v -4.547224 0.000652 0.049049
v -4.547224 0.948652 0.049049
v -4.567726 0.000652 -0.000448
v -4.567726 0.948652 -0.000448
v -4.547224 0.000652 -0.049946
v -4.547224 0.948652 -0.049946
vn 0.9295 -0.0000 -0.3688
vn -0.7071 -0.7071 -0.0000
vn 0.6181 0.7577 0.2093
vn -0.9295 -0.0000 -0.3689
vn -0.0000 -0.0000 1.0000
vn -0.0000 -0.0000 -1.0000
vn -0.6182 -0.7577 0.2093
vn 0.7071 0.7071 -0.0000
vn 0.2358 -0.6872 -0.6872
vn 0.2358 0.6872 -0.6872
vn -0.2358 -0.6872 -0.6871
vn -0.2358 0.6872 -0.6871
vn -0.0000 -0.7071 -0.7071
vn -0.0000 0.7071 -0.7071
vn -0.0000 0.7071 0.7071
vn 0.7653 -0.0000 -0.6436
vn -0.7654 -0.0000 -0.6436
vn 0.6181 -0.7577 0.2093
vn -0.6182 0.7577 0.2093
vn -0.0000 -1.0000 -0.0000
vn 1.0000 -0.0000 -0.0000
vn 0.3689 -0.0000 -0.9295
vn -0.2093 0.7577 -0.6181
vn 0.3689 -0.0000 0.9295
vn -0.2093 -0.7577 0.6181
vn 0.6872 -0.6872 -0.2357
vn 0.6872 0.6872 -0.2357
vn 0.6872 -0.6872 0.2357
vn 0.6872 0.6872 0.2357
vn 0.7071 -0.7071 -0.0000
vn 0.6436 -0.0000 -0.7654
vn 0.6436 -0.0000 0.7654
vn -0.2093 -0.7577 -0.6181
vn -0.2093 0.7577 0.6181
vn -0.0000 1.0000 -0.0000
vn 0.3827 -0.0000 -0.9239
vn 0.9239 -0.0000 -0.3827
vn 0.9239 -0.0000 0.3827
vn 0.3827 -0.0000 0.9239
vn -0.3827 -0.0000 0.9239
vn -0.9239 -0.0000 0.3827
vn -0.9239 -0.0000 -0.3827
vn -0.3827 -0.0000 -0.9239
vn -0.0000 -0.7071 0.7071
vn -0.8939 -0.0000 0.4482
vn -0.6573 0.6776 0.3298
vn 0.6542 -0.6774 -0.3364
vn 0.4495 -0.0000 -0.8933
vn 0.3245 0.6921 -0.6447
vn -0.3308 -0.6628 0.6718
vn -0.4411 -0.0000 0.8975
vn -0.3308 0.6628 0.6718
vn 0.3245 -0.6921 -0.6447
vn -0.7071 0.7071 -0.0000
vn -1.0000 -0.0000 -0.0000
vn 0.8891 -0.0000 -0.4577
vn 0.6542 0.6774 -0.3364
vn -0.6573 -0.6776 0.3298
vt 0.514813 0.337831
vt 0.567056 0.339164
vt 0.558459 0.365483
vt 0.523475 0.362990
vt 0.969866 0.103022
vt 0.969866 0.007554
vt 0.987879 0.007554
vt 0.987879 0.103022
vt 0.585600 0.328151
vt 0.567761 0.039050
vt 0.515516 0.037716
vt 0.524114 0.011397
vt 0.559098 0.013889
vt 0.969866 0.556124
vt 0.969866 0.937998
vt 0.951827 0.937998
vt 0.951827 0.556124
vt 0.554255 0.321353
vt 0.528230 0.321272
vt 0.528318 0.055528
vt 0.554343 0.055608
vt 0.496973 0.048729
vt 0.776537 0.103022
vt 0.776537 0.007554
vt 0.794551 0.007554
vt 0.794551 0.103022
vt 0.496973 0.327319
vt 0.585600 0.049561
vt 0.933813 0.937998
vt 0.933813 0.556124
vt 0.740485 0.556124
vt 0.740485 0.937998
vt 0.601222 0.937998
vt 0.601222 0.556124
vt 0.758498 0.103022
vt 0.758498 0.007554
vt 0.758498 0.556124
vt 0.758498 0.937998
vt 0.933813 0.103022
vt 0.933813 0.007554
vt 0.284035 0.553640
vt 0.013817 0.553640
vt 0.013817 0.486085
vt 0.284035 0.486085
vt 0.013817 0.418531
vt 0.284035 0.418531
vt 0.013817 0.350976
vt 0.284035 0.350976
vt 0.013817 0.283421
vt 0.284035 0.283421
vt 0.013817 0.215867
vt 0.284035 0.215867
vt 0.013817 0.148312
vt 0.284035 0.148312
vt 0.013817 0.080757
vt 0.284035 0.080757
vt 0.013817 0.013203
vt 0.284035 0.013203
vt 0.794551 0.937998
vt 0.794551 0.556124
vt 0.758498 0.316734
vt 0.740485 0.316734
vt 0.776537 0.556124
vt 0.776537 0.937998
vt 0.601222 0.316734
vt 0.951827 0.316734
vt 0.933813 0.316734
vt 0.969866 0.316734
vt 0.987879 0.556124
vt 0.987879 0.937998
vt 0.969866 0.209030
vt 0.951827 0.209030
vt 0.951827 0.103022
vt 0.933813 0.209030
vt 0.740485 0.103022
vt 0.740485 0.209030
vt 0.601222 0.209030
vt 0.601222 0.103022
vt 0.758498 0.209030
vt 0.794551 0.316734
vt 0.794551 0.209030
vt 0.776537 0.209030
vt 0.776537 0.316734
vt 0.987879 0.209030
vt 0.987879 0.316734
vt 0.740485 0.007554
vt 0.601222 0.007554
vt 0.951827 0.007554
s 0
f 7/1/1 10/2/1 2/3/1 1/4/1
f 317/5/2 3/6/2 12/7/2 320/8/2
f 10/2/3 9/9/3 2/3/3
f 16/10/4 13/11/4 3/12/4 4/13/4
f 289/14/5 19/15/5 20/16/5 293/17/5
f 8/18/6 6/19/6 11/20/6 15/21/6
f 13/11/7 12/22/7 3/12/7
f 318/23/8 2/24/8 9/25/8 315/26/8
f 5/27/9 6/19/9 7/1/9
f 8/18/10 9/9/10 10/2/10
f 11/20/11 12/22/11 13/11/11
f 14/28/12 15/21/12 16/10/12
f 11/20/13 6/19/13 5/27/13 12/22/13
f 8/18/14 15/21/14 14/28/14 9/9/14
f 293/17/15 20/16/15 30/29/15 296/30/15
f 10/2/16 7/1/16 6/19/16 8/18/16
f 13/11/17 16/10/17 15/21/17 11/20/17
f 1/4/18 5/27/18 7/1/18
f 4/13/19 14/28/19 16/10/19
f 291/31/20 21/32/20 28/33/20 292/34/20
f 314/35/21 1/36/21 2/24/21 318/23/21
f 294/37/13 17/38/13 21/32/13 291/31/13
f 23/2/22 17/3/22 18/4/22 26/1/22
f 26/1/23 18/4/23 25/27/23
f 32/11/24 20/12/24 19/13/24 29/10/24
f 24/19/21 31/20/21 27/21/21 22/18/21
f 29/10/25 19/13/25 28/28/25
f 21/9/26 23/2/26 22/18/26
f 24/19/27 26/1/27 25/27/27
f 27/21/28 29/10/28 28/28/28
f 30/22/29 32/11/29 31/20/29
f 27/21/30 28/28/30 21/9/30 22/18/30
f 24/19/8 25/27/8 30/22/8 31/20/8
f 26/1/31 24/19/31 22/18/31 23/2/31
f 29/10/32 27/21/32 31/20/32 32/11/32
f 17/3/33 23/2/33 21/9/33
f 20/12/34 32/11/34 30/22/34
f 316/39/35 315/26/35 9/25/35 14/40/35
f 33/41/36 34/42/36 36/43/36 35/44/36
f 35/44/37 36/43/37 38/45/37 37/46/37
f 37/46/38 38/45/38 40/47/38 39/48/38
f 39/48/39 40/47/39 42/49/39 41/50/39
f 41/50/40 42/49/40 44/51/40 43/52/40
f 43/52/41 44/51/41 46/53/41 45/54/41
f 45/54/42 46/53/42 48/55/42 47/56/42
f 47/56/43 48/55/43 34/57/43 33/58/43
f 49/41/36 50/42/36 52/43/36 51/44/36
f 51/44/37 52/43/37 54/45/37 53/46/37
f 53/46/38 54/45/38 56/47/38 55/48/38
f 55/48/39 56/47/39 58/49/39 57/50/39
f 57/50/40 58/49/40 60/51/40 59/52/40
f 59/52/41 60/51/41 62/53/41 61/54/41
f 61/54/42 62/53/42 64/55/42 63/56/42
f 63/56/43 64/55/43 50/57/43 49/58/43
f 65/41/36 66/42/36 68/43/36 67/44/36
f 67/44/37 68/43/37 70/45/37 69/46/37
f 69/46/38 70/45/38 72/47/38 71/48/38
f 71/48/39 72/47/39 74/49/39 73/50/39
f 73/50/40 74/49/40 76/51/40 75/52/40
f 75/52/41 76/51/41 78/53/41 77/54/41
f 77/54/42 78/53/42 80/55/42 79/56/42
f 79/56/43 80/55/43 66/57/43 65/58/43
f 81/41/36 82/42/36 84/43/36 83/44/36
f 83/44/37 84/43/37 86/45/37 85/46/37
f 85/46/38 86/45/38 88/47/38 87/48/38
f 87/48/39 88/47/39 90/49/39 89/50/39
f 89/50/40 90/49/40 92/51/40 91/52/40
f 91/52/41 92/51/41 94/53/41 93/54/41
f 93/54/42 94/53/42 96/55/42 95/56/42
f 95/56/43 96/55/43 82/57/43 81/58/43
f 97/41/36 98/42/36 100/43/36 99/44/36
f 99/44/37 100/43/37 102/45/37 101/46/37
f 101/46/38 102/45/38 104/47/38 103/48/38
f 103/48/39 104/47/39 106/49/39 105/50/39
f 105/50/40 106/49/40 108/51/40 107/52/40
f 107/52/41 108/51/41 110/53/41 109/54/41
f 109/54/42 110/53/42 112/55/42 111/56/42
f 111/56/43 112/55/43 98/57/43 97/58/43
f 113/41/36 114/42/36 116/43/36 115/44/36
f 115/44/37 116/43/37 118/45/37 117/46/37
f 117/46/38 118/45/38 120/47/38 119/48/38
f 119/48/39 120/47/39 122/49/39 121/50/39
f 121/50/40 122/49/40 124/51/40 123/52/40
f 123/52/41 124/51/41 126/53/41 125/54/41
f 125/54/42 126/53/42 128/55/42 127/56/42
f 127/56/43 128/55/43 114/57/43 113/58/43
f 129/41/36 130/42/36 132/43/36 131/44/36
f 131/44/37 132/43/37 134/45/37 133/46/37
f 133/46/38 134/45/38 136/47/38 135/48/38
f 135/48/39 136/47/39 138/49/39 137/50/39
f 137/50/40 138/49/40 140/51/40 139/52/40
f 139/52/41 140/51/41 142/53/41 141/54/41
f 141/54/42 142/53/42 144/55/42 143/56/42
f 143/56/43 144/55/43 130/57/43 129/58/43
f 145/41/36 146/42/36 148/43/36 147/44/36
f 147/44/37 148/43/37 150/45/37 149/46/37
f 149/46/38 150/45/38 152/47/38 151/48/38
f 151/48/39 152/47/39 154/49/39 153/50/39
f 153/50/40 154/49/40 156/51/40 155/52/40
f 155/52/41 156/51/41 158/53/41 157/54/41
f 157/54/42 158/53/42 160/55/42 159/56/42
f 159/56/43 160/55/43 146/57/43 145/58/43
f 161/41/36 162/42/36 164/43/36 163/44/36
f 163/44/37 164/43/37 166/45/37 165/46/37
f 165/46/38 166/45/38 168/47/38 167/48/38
f 167/48/39 168/47/39 170/49/39 169/50/39
f 169/50/40 170/49/40 172/51/40 171/52/40
f 171/52/41 172/51/41 174/53/41 173/54/41
f 173/54/42 174/53/42 176/55/42 175/56/42
f 175/56/43 176/55/43 162/57/43 161/58/43
f 177/41/36 178/42/36 180/43/36 179/44/36
f 179/44/37 180/43/37 182/45/37 181/46/37
f 181/46/38 182/45/38 184/47/38 183/48/38
f 183/48/39 184/47/39 186/49/39 185/50/39
f 185/50/40 186/49/40 188/51/40 187/52/40
f 187/52/41 188/51/41 190/53/41 189/54/41
f 189/54/42 190/53/42 192/55/42 191/56/42
f 191/56/43 192/55/43 178/57/43 177/58/43
f 193/41/36 194/42/36 196/43/36 195/44/36
f 195/44/37 196/43/37 198/45/37 197/46/37
f 197/46/38 198/45/38 200/47/38 199/48/38
f 199/48/39 200/47/39 202/49/39 201/50/39
f 201/50/40 202/49/40 204/51/40 203/52/40
f 203/52/41 204/51/41 206/53/41 205/54/41
f 205/54/42 206/53/42 208/55/42 207/56/42
f 207/56/43 208/55/43 194/57/43 193/58/43
f 209/41/37 210/42/37 212/43/37 211/44/37
f 211/44/38 212/43/38 214/45/38 213/46/38
f 213/46/39 214/45/39 216/47/39 215/48/39
f 215/48/40 216/47/40 218/49/40 217/50/40
f 217/50/41 218/49/41 220/51/41 219/52/41
f 219/52/42 220/51/42 222/53/42 221/54/42
f 221/54/43 222/53/43 224/55/43 223/56/43
f 223/56/36 224/55/36 210/57/36 209/58/36
f 237/54/36 238/53/36 240/55/36 239/56/36
f 227/44/39 228/43/39 230/45/39 229/46/39
f 229/46/40 230/45/40 232/47/40 231/48/40
f 231/48/41 232/47/41 234/49/41 233/50/41
f 233/50/42 234/49/42 236/51/42 235/52/42
f 235/52/43 236/51/43 238/53/43 237/54/43
f 239/56/37 240/55/37 226/57/37 225/58/37
f 225/41/38 226/42/38 228/43/38 227/44/38
f 242/56/37 241/55/37 255/57/37 256/58/37
f 246/52/43 245/51/43 243/53/43 244/54/43
f 248/50/42 247/49/42 245/51/42 246/52/42
f 250/48/41 249/47/41 247/49/41 248/50/41
f 252/46/40 251/45/40 249/47/40 250/48/40
f 254/44/39 253/43/39 251/45/39 252/46/39
f 256/41/38 255/42/38 253/43/38 254/44/38
f 244/54/36 243/53/36 241/55/36 242/56/36
f 257/41/38 258/42/38 260/43/38 259/44/38
f 259/44/39 260/43/39 262/45/39 261/46/39
f 261/46/40 262/45/40 264/47/40 263/48/40
f 263/48/41 264/47/41 266/49/41 265/50/41
f 265/50/42 266/49/42 268/51/42 267/52/42
f 267/52/43 268/51/43 270/53/43 269/54/43
f 269/54/36 270/53/36 272/55/36 271/56/36
f 271/56/37 272/55/37 258/57/37 257/58/37
f 273/41/38 274/42/38 276/43/38 275/44/38
f 275/44/39 276/43/39 278/45/39 277/46/39
f 277/46/40 278/45/40 280/47/40 279/48/40
f 279/48/41 280/47/41 282/49/41 281/50/41
f 281/50/42 282/49/42 284/51/42 283/52/42
f 283/52/43 284/51/43 286/53/43 285/54/43
f 285/54/36 286/53/36 288/55/36 287/56/36
f 287/56/37 288/55/37 274/57/37 273/58/37
f 30/29/35 25/59/35 295/60/35 296/30/35
f 310/61/13 294/37/13 291/31/13 307/62/13
f 17/38/6 294/37/6 290/63/6 18/64/6
f 307/62/20 291/31/20 292/34/20 308/65/20
f 309/66/15 293/17/15 296/30/15 312/67/15
f 18/64/14 290/63/14 295/60/14 25/59/14
f 305/68/5 289/14/5 293/17/5 309/66/5
f 19/15/44 289/14/44 292/69/44 28/70/44
f 317/5/45 301/71/45 297/72/45 313/73/45
f 313/73/46 297/72/46 300/74/46 316/39/46
f 319/75/20 303/76/20 304/77/20 320/78/20
f 314/35/47 298/79/47 303/76/47 319/75/47
f 312/67/35 311/80/35 299/81/35 300/74/35
f 310/61/48 298/79/48 302/82/48 306/83/48
f 306/83/49 302/82/49 299/81/49 311/80/49
f 305/68/50 301/71/50 304/84/50 308/85/50
f 289/14/44 305/68/44 308/85/44 292/69/44
f 290/63/14 306/83/14 311/80/14 295/60/14
f 294/37/6 310/61/6 306/83/6 290/63/6
f 296/30/35 295/60/35 311/80/35 312/67/35
f 301/71/51 305/68/51 309/66/51 297/72/51
f 297/72/52 309/66/52 312/67/52 300/74/52
f 303/76/20 307/62/20 308/65/20 304/77/20
f 298/79/53 310/61/53 307/62/53 303/76/53
f 1/36/30 314/35/30 319/75/30 5/86/30
f 5/86/20 319/75/20 320/78/20 12/87/20
f 4/88/54 313/73/54 316/39/54 14/40/54
f 3/6/55 317/5/55 313/73/55 4/88/55
f 300/74/35 299/81/35 315/26/35 316/39/35
f 298/79/56 314/35/56 318/23/56 302/82/56
f 302/82/57 318/23/57 315/26/57 299/81/57
f 301/71/58 317/5/58 320/8/58 304/84/58
f 321/41/36 322/42/36 324/43/36 323/44/36
f 323/44/37 324/43/37 326/45/37 325/46/37
f 325/46/38 326/45/38 328/47/38 327/48/38
f 327/48/39 328/47/39 330/49/39 329/50/39
f 329/50/40 330/49/40 332/51/40 331/52/40
f 331/52/41 332/51/41 334/53/41 333/54/41
f 333/54/42 334/53/42 336/55/42 335/56/42
f 335/56/43 336/55/43 322/57/43 321/58/43
f 337/41/36 338/42/36 340/43/36 339/44/36
f 339/44/37 340/43/37 342/45/37 341/46/37
f 341/46/38 342/45/38 344/47/38 343/48/38
f 343/48/39 344/47/39 346/49/39 345/50/39
f 345/50/40 346/49/40 348/51/40 347/52/40
f 347/52/41 348/51/41 350/53/41 349/54/41
f 349/54/42 350/53/42 352/55/42 351/56/42
f 351/56/43 352/55/43 338/57/43 337/58/43
f 353/41/36 354/42/36 356/43/36 355/44/36
f 355/44/37 356/43/37 358/45/37 357/46/37
f 357/46/38 358/45/38 360/47/38 359/48/38
f 359/48/39 360/47/39 362/49/39 361/50/39
f 361/50/40 362/49/40 364/51/40 363/52/40
f 363/52/41 364/51/41 366/53/41 365/54/41
f 365/54/42 366/53/42 368/55/42 367/56/42
f 367/56/43 368/55/43 354/57/43 353/58/43
