# Blender 4.4.3
# www.blender.org
o SM_ElevatedRailHigh_GrindRail_V1.0
v -7.950000 2.431240 -0.199957
v -7.950000 2.468760 -0.199957
v -7.950000 2.431240 0.199959
v -7.950000 2.468760 0.199959
v -7.970000 2.401240 -0.169957
v -8.000000 2.431240 -0.169957
v -7.977125 2.414965 -0.189192
v -8.000000 2.468760 -0.169957
v -7.970000 2.498760 -0.169957
v -7.977125 2.485035 -0.189192
v -8.000000 2.431240 0.169959
v -7.970000 2.401240 0.169959
v -7.977125 2.414965 0.189195
v -7.970000 2.498760 0.169959
v -8.000000 2.468760 0.169959
v -7.977125 2.485035 0.189195
v 7.950000 0.931240 -0.199957
v 7.950000 0.968760 -0.199957
v 7.950000 0.931240 0.199959
v 7.950000 0.968760 0.199959
v 7.970000 0.901240 -0.169957
v 8.000000 0.931240 -0.169957
v 7.977125 0.914965 -0.189192
v 8.000000 0.968760 -0.169957
v 7.970000 0.998760 -0.169957
v 7.977125 0.985035 -0.189192
v 8.000000 0.931240 0.169959
v 7.970000 0.901240 0.169959
v 7.977125 0.914965 0.189195
v 7.970000 0.998760 0.169959
v 8.000000 0.968760 0.169959
v 7.977125 0.985035 0.189195
v 3.502274 0.500652 -0.070448
v 3.502274 1.408652 -0.070448
v 3.551771 0.500652 -0.049946
v 3.551771 1.408652 -0.049946
v 3.572274 0.500652 -0.000448
v 3.572274 1.408652 -0.000448
v 3.551771 0.500652 0.049049
v 3.551771 1.408652 0.049049
v 3.502274 0.500652 0.069552
v 3.502274 1.408652 0.069552
v 3.452776 0.500652 0.049049
v 3.452776 1.408652 0.049049
v 3.432274 0.500652 -0.000448
v 3.432274 1.408652 -0.000448
v 3.452776 0.500652 -0.049946
v 3.452776 1.408652 -0.049946
v 4.502274 0.000652 -0.070448
v 4.502274 0.948652 -0.070448
v 4.551771 0.000652 -0.049946
v 4.551771 0.948652 -0.049946
v 4.572274 0.000652 -0.000448
v 4.572274 0.948652 -0.000448
v 4.551771 0.000652 0.049049
v 4.551771 0.948652 0.049049
v 4.502274 0.000652 0.069552
v 4.502274 0.948652 0.069552
v 4.452776 0.000652 0.049049
v 4.452776 0.948652 0.049049
v 4.432274 0.000652 -0.000448
v 4.432274 0.948652 -0.000448
v 4.452776 0.000652 -0.049946
v 4.452776 0.948652 -0.049946
v 5.502274 0.000652 -0.070448
v 5.502274 0.948652 -0.070448
v 5.551771 0.000652 -0.049946
v 5.551771 0.948652 -0.049946
v 5.572274 0.000652 -0.000448
v 5.572274 0.948652 -0.000448
v 5.551771 0.000652 0.049049
v 5.551771 0.948652 0.049049
v 5.502274 0.000652 0.069552
v 5.502274 0.948652 0.069552
v 5.452776 0.000652 0.049049
v 5.452776 0.948652 0.049049
v 5.432274 0.000652 -0.000448
v 5.432274 0.948652 -0.000448
v 5.452776 0.000652 -0.049946
v 5.452776 0.948652 -0.049946
v 6.502274 0.000652 -0.070448
v 6.502274 0.948652 -0.070448
v 6.551771 0.000652 -0.049946
v 6.551771 0.948652 -0.049946
v 6.572274 0.000652 -0.000448
v 6.572274 0.948652 -0.000448
v 6.551771 0.000652 0.049049
v 6.551771 0.948652 0.049049
v 6.502274 0.000652 0.069552
v 6.502274 0.948652 0.069552
v 6.452776 0.000652 0.049049
v 6.452776 0.948652 0.049049
v 6.432274 0.000652 -0.000448
v 6.432274 0.948652 -0.000448
v 6.452776 0.000652 -0.049946
v 6.452776 0.948652 -0.049946
v 7.502274 0.000652 -0.070448
v 7.502274 0.948652 -0.070448
v 7.551771 0.000652 -0.049946
v 7.551771 0.948652 -0.049946
v 7.572274 0.000652 -0.000448
v 7.572274 0.948652 -0.000448
v 7.551771 0.000652 0.049049
v 7.551771 0.948652 0.049049
v 7.502274 0.000652 0.069552
v 7.502274 0.948652 0.069552
v 7.452776 0.000652 0.049049
v 7.452776 0.948652 0.049049
v 7.432274 0.000652 -0.000448
v 7.432274 0.948652 -0.000448
v 7.452776 0.000652 -0.049946
v 7.452776 0.948652 -0.049946
v 0.496875 1.431240 0.199959
v 0.496875 1.468760 -0.199957
v 0.498125 1.401240 -0.169957
v 0.498125 1.401240 0.169959
v 0.496875 1.468760 0.199959
v 0.496875 1.431240 -0.199957
v 0.498125 1.498760 -0.169957
v 0.498125 1.498760 0.169959
v -0.495633 1.968760 0.199959
v -0.495633 1.931240 -0.199957
v -0.496880 1.998760 -0.169957
v -0.496880 1.998760 0.169959
v -0.495633 1.931240 0.199959
v -0.495633 1.968760 -0.199957
v -0.496880 1.901240 -0.169957
v -0.496880 1.901240 0.169959
v 4.499938 0.931240 0.199959
v 4.499938 0.968760 -0.199957
v 4.499938 0.901240 -0.169957
v 4.499938 0.901240 0.169959
v 4.499938 0.968760 0.199959
v 4.499938 0.931240 -0.199957
v 4.499938 0.998760 -0.169957
v 4.499938 0.998760 0.169959
v 3.498406 1.468760 0.199959
v 3.498406 1.431240 -0.199957
v 3.499031 1.498760 -0.169957
v 3.499031 1.498760 0.169959
v 3.498406 1.431240 0.199959
v 3.498406 1.468760 -0.199957
v 3.499031 1.401240 -0.169957
v 3.499031 1.401240 0.169959
v -3.498128 1.968760 0.199959
v -3.498128 1.931240 -0.199957
v -3.498128 1.998760 -0.169957
v -3.498128 1.998760 0.169959
v -3.498128 1.931240 0.199959
v -3.498128 1.968760 -0.199957
v -3.498128 1.901240 -0.169957
v -3.498128 1.901240 0.169959
v -4.497504 2.468760 0.199959
v -4.497504 2.431240 -0.199957
v -4.497504 2.498760 -0.169957
v -4.497504 2.498760 0.169959
v -4.497504 2.431240 0.199959
v -4.497504 2.468760 -0.199957
v -4.497504 2.401240 -0.169957
v -4.497504 2.401240 0.169959
v 2.502274 0.500652 -0.070448
v 2.502274 1.448652 -0.070448
v 2.551771 0.500652 -0.049946
v 2.551771 1.448652 -0.049946
v 2.572274 0.500652 -0.000448
v 2.572274 1.448652 -0.000448
v 2.551771 0.500652 0.049049
v 2.551771 1.448652 0.049049
v 2.502274 0.500652 0.069552
v 2.502274 1.448652 0.069552
v 2.452776 0.500652 0.049049
v 2.452776 1.448652 0.049049
v 2.432274 0.500652 -0.000448
v 2.432274 1.448652 -0.000448
v 2.452776 0.500652 -0.049946
v 2.452776 1.448652 -0.049946
v 1.502274 0.500652 -0.070448
v 1.502274 1.448652 -0.070448
v 1.551771 0.500652 -0.049946
v 1.551771 1.448652 -0.049946
v 1.572274 0.500652 -0.000448
v 1.572274 1.448652 -0.000448
v 1.551771 0.500652 0.049049
v 1.551771 1.448652 0.049049
v 1.502274 0.500652 0.069552
v 1.502274 1.448652 0.069552
v 1.452776 0.500652 0.049049
v 1.452776 1.448652 0.049049
v 1.432274 0.500652 -0.000448
v 1.432274 1.448652 -0.000448
v 1.452776 0.500652 -0.049946
v 1.452776 1.448652 -0.049946
v 0.502274 0.500652 -0.070448
v 0.502274 1.448652 -0.070448
v 0.551771 0.500652 -0.049946
v 0.551771 1.448652 -0.049946
v 0.572274 0.500652 -0.000448
v 0.572274 1.448652 -0.000448
v 0.551771 0.500652 0.049049
v 0.551771 1.448652 0.049049
v 0.502274 0.500652 0.069552
v 0.502274 1.448652 0.069552
v 0.452776 0.500652 0.049049
v 0.452776 1.448652 0.049049
v 0.432274 0.500652 -0.000448
v 0.432274 1.448652 -0.000448
v 0.452776 0.500652 -0.049946
v 0.452776 1.448652 -0.049946
v -0.497726 1.000652 -0.070448
v -0.497726 1.908652 -0.070448
v -0.448229 1.000652 -0.049946
v -0.448229 1.908652 -0.049946
v -0.427726 1.000652 -0.000448
v -0.427726 1.908652 -0.000448
v -0.448229 1.000652 0.049049
v -0.448229 1.908652 0.049049
v -0.497726 1.000652 0.069552
v -0.497726 1.908652 0.069552
v -0.547224 1.000652 0.049049
v -0.547224 1.908652 0.049049
v -0.567726 1.000652 -0.000448
v -0.567726 1.908652 -0.000448
v -0.547224 1.000652 -0.049946
v -0.547224 1.908652 -0.049946
v -1.497726 1.000652 -0.070448
v -1.497726 1.948652 -0.070448
v -1.448229 1.000652 -0.049946
v -1.448229 1.948652 -0.049946
v -1.427726 1.000652 -0.000448
v -1.427726 1.948652 -0.000448
v -1.448229 1.000652 0.049049
v -1.448229 1.948652 0.049049
v -1.497726 1.000652 0.069552
v -1.497726 1.948652 0.069552
v -1.547224 1.000652 0.049049
v -1.547224 1.948652 0.049049
v -1.567726 1.000652 -0.000448
v -1.567726 1.948652 -0.000448
v -1.547224 1.000652 -0.049946
v -1.547224 1.948652 -0.049946
v -2.497726 1.000652 -0.070448
v -2.497726 1.948652 -0.070448
v -2.448229 1.000652 -0.049946
v -2.448229 1.948652 -0.049946
v -2.427726 1.000652 -0.000448
v -2.427726 1.948652 -0.000448
v -2.448229 1.000652 0.049049
v -2.448229 1.948652 0.049049
v -2.497726 1.000652 0.069552
v -2.497726 1.948652 0.069552
v -2.547224 1.000652 0.049049
v -2.547224 1.948652 0.049049
v -2.567726 1.000652 -0.000448
v -2.567726 1.948652 -0.000448
v -2.547224 1.000652 -0.049946
v -2.547224 1.948652 -0.049946
v -3.497726 1.000652 -0.070448
v -3.497726 1.948652 -0.070448
v -3.448229 1.000652 -0.049946
v -3.448229 1.948652 -0.049946
v -3.427726 1.000652 -0.000448
v -3.427726 1.948652 -0.000448
v -3.448229 1.000652 0.049049
v -3.448229 1.948652 0.049049
v -3.497726 1.000652 0.069552
v -3.497726 1.948652 0.069552
v -3.547224 1.000652 0.049049
v -3.547224 1.948652 0.049049
v -3.567726 1.000652 -0.000448
v -3.567726 1.948652 -0.000448
v -3.547224 1.000652 -0.049946
v -3.547224 1.948652 -0.049946
v -4.497726 1.500652 -0.070448
v -4.497726 2.408652 -0.070448
v -4.448229 1.500652 -0.049946
v -4.448229 2.408652 -0.049946
v -4.427726 1.500652 -0.000448
v -4.427726 2.408652 -0.000448
v -4.448229 1.500652 0.049049
v -4.448229 2.408652 0.049049
v -4.497726 1.500652 0.069552
v -4.497726 2.408652 0.069552
v -4.547224 1.500652 0.049049
v -4.547224 2.408652 0.049049
v -4.567726 1.500652 -0.000448
v -4.567726 2.408652 -0.000448
v -4.547224 1.500652 -0.049946
v -4.547224 2.408652 -0.049946
v -5.497726 1.500652 -0.070448
v -5.497726 2.448652 -0.070448
v -5.448229 1.500652 -0.049946
v -5.448229 2.448652 -0.049946
v -5.427726 1.500652 -0.000448
v -5.427726 2.448652 -0.000448
v -5.448229 1.500652 0.049049
v -5.448229 2.448652 0.049049
v -5.497726 1.500652 0.069552
v -5.497726 2.448652 0.069552
v -5.547224 1.500652 0.049049
v -5.547224 2.448652 0.049049
v -5.567726 1.500652 -0.000448
v -5.567726 2.448652 -0.000448
v -5.547224 1.500652 -0.049946
v -5.547224 2.448652 -0.049946
v -6.497726 1.500652 -0.070448
v -6.497726 2.448652 -0.070448
v -6.448229 1.500652 -0.049946
v -6.448229 2.448652 -0.049946
v -6.427726 1.500652 -0.000448
v -6.427726 2.448652 -0.000448
v -6.448229 1.500652 0.049049
v -6.448229 2.448652 0.049049
v -6.497726 1.500652 0.069552
v -6.497726 2.448652 0.069552
v -6.547224 1.500652 0.049049
v -6.547224 2.448652 0.049049
v -6.567726 1.500652 -0.000448
v -6.567726 2.448652 -0.000448
v -6.547224 1.500652 -0.049946
v -6.547224 2.448652 -0.049946
v -7.497726 1.500652 -0.070448
v -7.497726 2.448652 -0.070448
v -7.448229 1.500652 -0.049946
v -7.448229 2.448652 -0.049946
v -7.427726 1.500652 -0.000448
v -7.427726 2.448652 -0.000448
v -7.448229 1.500652 0.049049
v -7.448229 2.448652 0.049049
v -7.497726 1.500652 0.069552
v -7.497726 2.448652 0.069552
v -7.547224 1.500652 0.049049
v -7.547224 2.448652 0.049049
v -7.567726 1.500652 -0.000448
v -7.567726 2.448652 -0.000448
v -7.547224 1.500652 -0.049946
v -7.547224 2.448652 -0.049946
vn -0.3689 -0.0000 -0.9295
vn -0.0000 -0.7071 0.7071
vn 0.2093 0.7577 -0.6181
vn -0.3689 -0.0000 0.9295
vn -0.0000 -0.0000 1.0000
vn -1.0000 -0.0000 -0.0000
vn 0.2093 -0.7577 0.6181
vn -0.0000 0.7071 -0.7071
vn -0.6872 -0.6872 -0.2357
vn -0.6872 0.6872 -0.2357
vn -0.6872 -0.6872 0.2357
vn -0.6872 0.6872 0.2357
vn -0.7071 -0.7071 -0.0000
vn -0.7071 0.7071 -0.0000
vn -0.0000 0.7071 0.7071
vn -0.6436 -0.0000 -0.7654
vn -0.6436 -0.0000 0.7654
vn 0.2093 -0.7577 -0.6181
vn 0.2093 0.7577 0.6181
vn -0.0000 -1.0000 -0.0000
vn -0.0000 -0.0000 -1.0000
vn -0.0000 -0.7071 -0.7071
vn 0.3689 -0.0000 -0.9295
vn -0.2093 0.7577 -0.6181
vn 0.3689 -0.0000 0.9295
vn 1.0000 -0.0000 -0.0000
vn -0.2093 -0.7577 0.6181
vn 0.6872 -0.6872 -0.2357
vn 0.6872 0.6872 -0.2357
vn 0.6872 -0.6872 0.2357
vn 0.6872 0.6872 0.2357
vn 0.7071 -0.7071 -0.0000
vn 0.7071 0.7071 -0.0000
vn 0.6436 -0.0000 -0.7654
vn 0.6436 -0.0000 0.7654
vn -0.2093 -0.7577 -0.6181
vn -0.2093 0.7577 0.6181
vn -0.0000 1.0000 -0.0000
vn 0.3827 -0.0000 -0.9239
vn 0.9239 -0.0000 -0.3827
vn 0.9239 -0.0000 0.3827
vn 0.3827 -0.0000 0.9239
vn -0.3827 -0.0000 0.9239
vn -0.9239 -0.0000 0.3827
vn -0.9239 -0.0000 -0.3827
vn -0.3827 -0.0000 -0.9239
vn -0.3352 -0.6662 -0.6662
vn -0.4490 -0.8935 -0.0000
vn 0.3352 0.6662 0.6662
vn 0.4490 0.8935 -0.0000
vn 0.3352 0.6662 -0.6662
vn -0.3352 -0.6662 0.6662
vn -0.3337 -0.6683 -0.6648
vn -0.4469 -0.8946 -0.0000
vn 0.3322 0.6652 0.6687
vn -0.3337 -0.6683 0.6648
vn 0.3322 0.6652 -0.6687
vn 0.4469 0.8946 -0.0000
vn -0.3335 -0.6666 -0.6666
vn -0.4474 -0.8943 -0.0000
vn 0.3335 0.6666 0.6666
vn 0.4474 0.8943 -0.0000
vn 0.3335 0.6666 -0.6666
vn -0.3335 -0.6666 0.6666
vt 0.606951 0.091376
vt 0.620193 0.091433
vt 0.618314 0.098307
vt 0.608736 0.099143
vt 0.672469 0.191277
vt 0.672469 0.007061
vt 0.688910 0.007061
vt 0.688910 0.191277
vt 0.626195 0.089701
vt 0.620309 0.015987
vt 0.607067 0.015930
vt 0.608946 0.009056
vt 0.618524 0.008220
vt 0.672469 0.688844
vt 0.672469 0.872932
vt 0.656257 0.872932
vt 0.656257 0.688844
vt 0.617111 0.085593
vt 0.609707 0.085562
vt 0.610149 0.021770
vt 0.617553 0.021801
vt 0.601064 0.017662
vt 0.849885 0.191277
vt 0.849885 0.007061
vt 0.866326 0.007061
vt 0.866326 0.191277
vt 0.601064 0.089667
vt 0.626195 0.017696
vt 0.639816 0.872932
vt 0.639816 0.688844
vt 0.817232 0.688844
vt 0.817232 0.872932
vt 0.688910 0.872932
vt 0.688910 0.688844
vt 0.833673 0.191277
vt 0.833673 0.007061
vt 0.833673 0.688844
vt 0.833673 0.872932
vt 0.994648 0.191277
vt 0.994648 0.007061
vt 0.379691 0.748736
vt 0.011393 0.748736
vt 0.011393 0.656662
vt 0.379691 0.656662
vt 0.011393 0.564587
vt 0.379691 0.564587
vt 0.011393 0.472513
vt 0.379691 0.472513
vt 0.011393 0.380438
vt 0.379691 0.380438
vt 0.011393 0.288364
vt 0.379691 0.288364
vt 0.011393 0.196289
vt 0.379691 0.196289
vt 0.011393 0.104214
vt 0.379691 0.104214
vt 0.011393 0.012140
vt 0.379691 0.012140
vt 0.994648 0.629303
vt 0.866326 0.629303
vt 0.866326 0.469627
vt 0.994648 0.469628
vt 0.833673 0.410441
vt 0.833673 0.469628
vt 0.817232 0.469628
vt 0.817232 0.410441
vt 0.833673 0.629303
vt 0.849885 0.469628
vt 0.849885 0.629303
vt 0.688910 0.469628
vt 0.688910 0.410441
vt 0.656257 0.410441
vt 0.656257 0.469628
vt 0.639816 0.469628
vt 0.639816 0.410441
vt 0.672469 0.410441
vt 0.672469 0.469628
vt 0.672469 0.629303
vt 0.688910 0.629303
vt 0.672469 0.250731
vt 0.656257 0.250731
vt 0.639816 0.250731
vt 0.817232 0.250731
vt 0.688910 0.250731
vt 0.833673 0.250731
vt 0.866326 0.410441
vt 0.994648 0.410441
vt 0.849885 0.410441
vt 0.849885 0.872932
vt 0.849885 0.688844
vt 0.866326 0.688844
vt 0.866326 0.872932
vt 0.994648 0.872932
vt 0.994648 0.688844
vt 0.817232 0.629303
vt 0.656257 0.629303
vt 0.639816 0.629303
vt 0.817232 0.191277
vt 0.656257 0.191277
vt 0.639816 0.191277
vt 0.866326 0.250731
vt 0.994648 0.250731
vt 0.849885 0.250731
vt 0.656257 0.007061
vt 0.639816 0.007061
vt 0.817232 0.007061
s 0
f 7/1/1 10/2/1 2/3/1 1/4/1
f 157/5/2 3/6/2 12/7/2 160/8/2
f 10/2/3 9/9/3 2/3/3
f 16/10/4 13/11/4 3/12/4 4/13/4
f 129/14/5 19/15/5 20/16/5 133/17/5
f 8/18/6 6/19/6 11/20/6 15/21/6
f 13/11/7 12/22/7 3/12/7
f 158/23/8 2/24/8 9/25/8 155/26/8
f 5/27/9 6/19/9 7/1/9
f 8/18/10 9/9/10 10/2/10
f 11/20/11 12/22/11 13/11/11
f 14/28/12 15/21/12 16/10/12
f 11/20/13 6/19/13 5/27/13 12/22/13
f 8/18/14 15/21/14 14/28/14 9/9/14
f 133/17/15 20/16/15 30/29/15 136/30/15
f 10/2/16 7/1/16 6/19/16 8/18/16
f 13/11/17 16/10/17 15/21/17 11/20/17
f 1/4/18 5/27/18 7/1/18
f 4/13/19 14/28/19 16/10/19
f 131/31/20 21/32/20 28/33/20 132/34/20
f 154/35/21 1/36/21 2/24/21 158/23/21
f 134/37/22 17/38/22 21/32/22 131/31/22
f 23/2/23 17/3/23 18/4/23 26/1/23
f 26/1/24 18/4/24 25/27/24
f 32/11/25 20/12/25 19/13/25 29/10/25
f 24/19/26 31/20/26 27/21/26 22/18/26
f 29/10/27 19/13/27 28/28/27
f 21/9/28 23/2/28 22/18/28
f 24/19/29 26/1/29 25/27/29
f 27/21/30 29/10/30 28/28/30
f 30/22/31 32/11/31 31/20/31
f 27/21/32 28/28/32 21/9/32 22/18/32
f 24/19/33 25/27/33 30/22/33 31/20/33
f 26/1/34 24/19/34 22/18/34 23/2/34
f 29/10/35 27/21/35 31/20/35 32/11/35
f 17/3/36 23/2/36 21/9/36
f 20/12/37 32/11/37 30/22/37
f 156/39/38 155/26/38 9/25/38 14/40/38
f 33/41/39 34/42/39 36/43/39 35/44/39
f 35/44/40 36/43/40 38/45/40 37/46/40
f 37/46/41 38/45/41 40/47/41 39/48/41
f 39/48/42 40/47/42 42/49/42 41/50/42
f 41/50/43 42/49/43 44/51/43 43/52/43
f 43/52/44 44/51/44 46/53/44 45/54/44
f 45/54/45 46/53/45 48/55/45 47/56/45
f 47/56/46 48/55/46 34/57/46 33/58/46
f 49/41/39 50/42/39 52/43/39 51/44/39
f 51/44/40 52/43/40 54/45/40 53/46/40
f 53/46/41 54/45/41 56/47/41 55/48/41
f 55/48/42 56/47/42 58/49/42 57/50/42
f 57/50/43 58/49/43 60/51/43 59/52/43
f 59/52/44 60/51/44 62/53/44 61/54/44
f 61/54/45 62/53/45 64/55/45 63/56/45
f 63/56/46 64/55/46 50/57/46 49/58/46
f 65/41/39 66/42/39 68/43/39 67/44/39
f 67/44/40 68/43/40 70/45/40 69/46/40
f 69/46/41 70/45/41 72/47/41 71/48/41
f 71/48/42 72/47/42 74/49/42 73/50/42
f 73/50/43 74/49/43 76/51/43 75/52/43
f 75/52/44 76/51/44 78/53/44 77/54/44
f 77/54/45 78/53/45 80/55/45 79/56/45
f 79/56/46 80/55/46 66/57/46 65/58/46
f 81/41/39 82/42/39 84/43/39 83/44/39
f 83/44/40 84/43/40 86/45/40 85/46/40
f 85/46/41 86/45/41 88/47/41 87/48/41
f 87/48/42 88/47/42 90/49/42 89/50/42
f 89/50/43 90/49/43 92/51/43 91/52/43
f 91/52/44 92/51/44 94/53/44 93/54/44
f 93/54/45 94/53/45 96/55/45 95/56/45
f 95/56/46 96/55/46 82/57/46 81/58/46
f 97/41/39 98/42/39 100/43/39 99/44/39
f 99/44/40 100/43/40 102/45/40 101/46/40
f 101/46/41 102/45/41 104/47/41 103/48/41
f 103/48/42 104/47/42 106/49/42 105/50/42
f 105/50/43 106/49/43 108/51/43 107/52/43
f 107/52/44 108/51/44 110/53/44 109/54/44
f 109/54/45 110/53/45 112/55/45 111/56/45
f 111/56/46 112/55/46 98/57/46 97/58/46
f 140/59/38 139/60/38 119/61/38 120/62/38
f 122/63/47 118/64/47 115/65/47 127/66/47
f 138/67/21 118/64/21 114/68/21 142/69/21
f 127/66/48 115/65/48 116/70/48 128/71/48
f 121/72/49 117/73/49 120/74/49 124/75/49
f 142/69/8 114/68/8 119/61/8 139/60/8
f 125/76/5 113/77/5 117/73/5 121/72/5
f 141/78/2 113/77/2 116/70/2 144/79/2
f 149/80/5 125/76/5 121/72/5 145/81/5
f 145/81/15 121/72/15 124/75/15 148/82/15
f 151/83/20 127/66/20 128/71/20 152/84/20
f 146/85/22 122/63/22 127/66/22 151/83/22
f 120/62/50 119/61/50 123/86/50 124/87/50
f 118/64/21 122/63/21 126/88/21 114/68/21
f 114/68/51 126/88/51 123/86/51 119/61/51
f 113/77/52 125/76/52 128/71/52 116/70/52
f 19/15/2 129/14/2 132/34/2 28/33/2
f 18/89/8 130/90/8 135/91/8 25/92/8
f 17/38/21 134/37/21 130/90/21 18/89/21
f 30/93/38 25/92/38 135/91/38 136/94/38
f 138/67/53 134/37/53 131/31/53 143/95/53
f 143/95/54 131/31/54 132/34/54 144/79/54
f 137/96/55 133/17/55 136/30/55 140/97/55
f 141/78/5 129/14/5 133/17/5 137/96/5
f 113/77/5 141/78/5 137/96/5 117/73/5
f 117/73/15 137/96/15 140/97/15 120/74/15
f 115/65/20 143/95/20 144/79/20 116/70/20
f 118/64/22 138/67/22 143/95/22 115/65/22
f 129/14/56 141/78/56 144/79/56 132/34/56
f 130/90/57 142/69/57 139/60/57 135/91/57
f 134/37/21 138/67/21 142/69/21 130/90/21
f 136/94/58 135/91/58 139/60/58 140/59/58
f 154/35/59 146/85/59 151/83/59 159/98/59
f 159/98/60 151/83/60 152/84/60 160/8/60
f 153/99/61 145/81/61 148/82/61 156/100/61
f 157/5/5 149/80/5 145/81/5 153/99/5
f 124/87/38 123/86/38 147/101/38 148/102/38
f 122/63/21 146/85/21 150/103/21 126/88/21
f 126/88/8 150/103/8 147/101/8 123/86/8
f 125/76/2 149/80/2 152/84/2 128/71/2
f 3/6/5 157/5/5 153/99/5 4/104/5
f 4/104/15 153/99/15 156/100/15 14/105/15
f 5/106/20 159/98/20 160/8/20 12/7/20
f 1/36/22 154/35/22 159/98/22 5/106/22
f 148/102/62 147/101/62 155/26/62 156/39/62
f 146/85/21 154/35/21 158/23/21 150/103/21
f 150/103/63 158/23/63 155/26/63 147/101/63
f 149/80/64 157/5/64 160/8/64 152/84/64
f 161/41/39 162/42/39 164/43/39 163/44/39
f 163/44/40 164/43/40 166/45/40 165/46/40
f 165/46/41 166/45/41 168/47/41 167/48/41
f 167/48/42 168/47/42 170/49/42 169/50/42
f 169/50/43 170/49/43 172/51/43 171/52/43
f 171/52/44 172/51/44 174/53/44 173/54/44
f 173/54/45 174/53/45 176/55/45 175/56/45
f 175/56/46 176/55/46 162/57/46 161/58/46
f 177/41/39 178/42/39 180/43/39 179/44/39
f 179/44/40 180/43/40 182/45/40 181/46/40
f 181/46/41 182/45/41 184/47/41 183/48/41
f 183/48/42 184/47/42 186/49/42 185/50/42
f 185/50/43 186/49/43 188/51/43 187/52/43
f 187/52/44 188/51/44 190/53/44 189/54/44
f 189/54/45 190/53/45 192/55/45 191/56/45
f 191/56/46 192/55/46 178/57/46 177/58/46
f 193/41/39 194/42/39 196/43/39 195/44/39
f 195/44/40 196/43/40 198/45/40 197/46/40
f 197/46/41 198/45/41 200/47/41 199/48/41
f 199/48/42 200/47/42 202/49/42 201/50/42
f 201/50/43 202/49/43 204/51/43 203/52/43
f 203/52/44 204/51/44 206/53/44 205/54/44
f 205/54/45 206/53/45 208/55/45 207/56/45
f 207/56/46 208/55/46 194/57/46 193/58/46
f 209/41/39 210/42/39 212/43/39 211/44/39
f 211/44/40 212/43/40 214/45/40 213/46/40
f 213/46/41 214/45/41 216/47/41 215/48/41
f 215/48/42 216/47/42 218/49/42 217/50/42
f 217/50/43 218/49/43 220/51/43 219/52/43
f 219/52/44 220/51/44 222/53/44 221/54/44
f 221/54/45 222/53/45 224/55/45 223/56/45
f 223/56/46 224/55/46 210/57/46 209/58/46
f 225/41/39 226/42/39 228/43/39 227/44/39
f 227/44/40 228/43/40 230/45/40 229/46/40
f 229/46/41 230/45/41 232/47/41 231/48/41
f 231/48/42 232/47/42 234/49/42 233/50/42
f 233/50/43 234/49/43 236/51/43 235/52/43
f 235/52/44 236/51/44 238/53/44 237/54/44
f 237/54/45 238/53/45 240/55/45 239/56/45
f 239/56/46 240/55/46 226/57/46 225/58/46
f 241/41/39 242/42/39 244/43/39 243/44/39
f 243/44/40 244/43/40 246/45/40 245/46/40
f 245/46/41 246/45/41 248/47/41 247/48/41
f 247/48/42 248/47/42 250/49/42 249/50/42
f 249/50/43 250/49/43 252/51/43 251/52/43
f 251/52/44 252/51/44 254/53/44 253/54/44
f 253/54/45 254/53/45 256/55/45 255/56/45
f 255/56/46 256/55/46 242/57/46 241/58/46
f 257/41/39 258/42/39 260/43/39 259/44/39
f 259/44/40 260/43/40 262/45/40 261/46/40
f 261/46/41 262/45/41 264/47/41 263/48/41
f 263/48/42 264/47/42 266/49/42 265/50/42
f 265/50/43 266/49/43 268/51/43 267/52/43
f 267/52/44 268/51/44 270/53/44 269/54/44
f 269/54/45 270/53/45 272/55/45 271/56/45
f 271/56/46 272/55/46 258/57/46 257/58/46
f 273/41/39 274/42/39 276/43/39 275/44/39
f 275/44/40 276/43/40 278/45/40 277/46/40
f 277/46/41 278/45/41 280/47/41 279/48/41
f 279/48/42 280/47/42 282/49/42 281/50/42
f 281/50/43 282/49/43 284/51/43 283/52/43
f 283/52/44 284/51/44 286/53/44 285/54/44
f 285/54/45 286/53/45 288/55/45 287/56/45
f 287/56/46 288/55/46 274/57/46 273/58/46
f 289/41/39 290/42/39 292/43/39 291/44/39
f 291/44/40 292/43/40 294/45/40 293/46/40
f 293/46/41 294/45/41 296/47/41 295/48/41
f 295/48/42 296/47/42 298/49/42 297/50/42
f 297/50/43 298/49/43 300/51/43 299/52/43
f 299/52/44 300/51/44 302/53/44 301/54/44
f 301/54/45 302/53/45 304/55/45 303/56/45
f 303/56/46 304/55/46 290/57/46 289/58/46
f 305/41/39 306/42/39 308/43/39 307/44/39
f 307/44/40 308/43/40 310/45/40 309/46/40
f 309/46/41 310/45/41 312/47/41 311/48/41
f 311/48/42 312/47/42 314/49/42 313/50/42
f 313/50/43 314/49/43 316/51/43 315/52/43
f 315/52/44 316/51/44 318/53/44 317/54/44
f 317/54/45 318/53/45 320/55/45 319/56/45
f 319/56/46 320/55/46 306/57/46 305/58/46
f 321/41/39 322/42/39 324/43/39 323/44/39
f 323/44/40 324/43/40 326/45/40 325/46/40
f 325/46/41 326/45/41 328/47/41 327/48/41
f 327/48/42 328/47/42 330/49/42 329/50/42
f 329/50/43 330/49/43 332/51/43 331/52/43
f 331/52/44 332/51/44 334/53/44 333/54/44
f 333/54/45 334/53/45 336/55/45 335/56/45
f 335/56/46 336/55/46 322/57/46 321/58/46
