# Blender 4.4.3
# www.blender.org
o SM_ElevatedRailLow_GrindRail_V1.001
v 4.500000 0.901240 0.199958
v 4.500000 0.998760 0.199958
v 4.500000 0.901240 -0.199958
v 4.500000 0.998760 -0.199958
v 8.000000 0.901240 0.199958
v 8.000000 0.998760 0.199958
v 8.000000 0.901240 -0.199958
v 8.000000 0.998760 -0.199958
v 0.500000 0.501240 0.000000
v 8.000000 0.901240 0.000000
v 3.500000 1.401240 0.199958
v 3.500000 1.498760 0.199958
v 3.500000 1.401240 -0.199958
v 3.500000 1.498760 -0.199958
v 0.500000 1.401240 0.000000
v 0.500000 1.401240 0.199958
v 0.500000 1.498760 0.199958
v 0.500000 1.401240 -0.199958
v 0.500000 1.498760 -0.199958
v 3.500000 0.501240 0.000000
v -0.500000 1.901240 0.199958
v -0.500000 1.998760 0.199958
v -0.500000 1.901240 -0.199958
v -0.500000 1.998760 -0.199958
v 3.500000 1.401240 0.000000
v -3.500000 1.901240 0.199958
v -3.500000 1.998760 0.199958
v -3.500000 1.901240 -0.199958
v -3.500000 1.998760 -0.199958
v 4.500000 0.001240 0.000000
v -4.500000 2.401240 0.199958
v -4.500000 2.498760 0.199958
v -4.500000 2.401240 -0.199958
v -4.500000 2.498760 -0.199958
v 8.000000 0.001240 0.000000
v -8.000000 2.401240 0.199958
v -8.000000 2.498760 0.199958
v -8.000000 2.401240 -0.199958
v -8.000000 2.498760 -0.199958
v 4.500000 0.901240 0.000000
v 4.500000 0.901240 0.000000
v 8.000000 0.901240 0.000000
v 8.000000 0.001240 0.000000
v 4.500000 0.001240 0.000000
v 3.500000 1.401240 0.000000
v 3.500000 0.501240 0.000000
v 0.500000 1.401240 0.000000
v 0.500000 0.501240 0.000000
v -0.500000 1.901240 0.000000
v -0.500000 1.001240 0.000000
v -3.500000 1.901240 0.000000
v -3.500000 1.001240 0.000000
v -4.500000 2.401240 0.000000
v -4.500000 1.501240 0.000000
v -8.000000 2.401240 0.000000
v -8.000000 1.501240 0.000000
v -0.500000 1.901240 0.000000
v -0.500000 1.001240 0.000000
v -3.500000 1.901240 0.000000
v -3.500000 1.001240 0.000000
v -4.500000 2.401240 0.000000
v -4.500000 1.501240 0.000000
v -8.000000 2.401240 0.000000
v -8.000000 1.501240 0.000000
vn -0.0000 -1.0000 -0.0000
vn -0.0000 -0.0000 -1.0000
vn -0.0000 1.0000 -0.0000
vn -0.0000 -0.0000 1.0000
vn 1.0000 -0.0000 -0.0000
vn -0.4472 -0.8944 -0.0000
vn 0.4472 0.8944 -0.0000
vn -1.0000 -0.0000 -0.0000
vt 0.125000 0.500000
vt 0.375000 0.500000
vt 0.375000 0.750000
vt 0.125000 0.750000
vt 0.375000 0.250000
vt 0.625000 0.250000
vt 0.625000 0.500000
vt 0.875000 0.500000
vt 0.875000 0.750000
vt 0.625000 0.750000
vt 0.625000 1.000000
vt 0.375000 1.000000
vt 0.125000 0.625000
vt 0.375000 0.625000
vt 0.375000 0.000000
vt 0.625000 0.000000
s 0
f 3/1/1 7/2/1 5/3/1 1/4/1
f 3/5/2 4/6/2 8/7/2 7/2/2
f 8/7/3 4/8/3 2/9/3 6/10/3
f 5/3/4 6/10/4 2/11/4 1/12/4
f 13/1/1 11/4/1 16/4/1 18/1/1
f 4/6/2 3/5/2 13/5/2 14/6/2
f 6/10/5 5/3/5 7/2/5 8/7/5
f 40/13/4 25/13/4 20/13/4 30/13/4
f 59/13/4 61/13/4 62/13/4 60/13/4
f 12/9/3 14/8/3 19/8/3 17/9/3
f 18/1/6 16/4/6 21/4/6 23/1/6
f 11/12/4 12/11/4 17/11/4 16/12/4
f 1/12/4 2/11/4 12/11/4 11/12/4
f 2/9/7 4/8/7 14/8/7 12/9/7
f 28/1/6 26/4/6 31/4/6 33/1/6
f 19/6/2 18/5/2 23/5/2 24/6/2
f 14/6/2 13/5/2 18/5/2 19/6/2
f 22/9/3 24/8/3 29/8/3 27/9/3
f 33/1/1 31/4/1 36/4/1 38/1/1
f 21/12/4 22/11/4 27/11/4 26/12/4
f 16/12/4 17/11/4 22/11/4 21/12/4
f 17/9/7 19/8/7 24/8/7 22/9/7
f 26/12/4 27/11/4 32/11/4 31/12/4
f 23/1/1 21/4/1 26/4/1 28/1/1
f 24/6/2 23/5/2 28/5/2 29/6/2
f 61/13/4 63/13/4 64/13/4 62/13/4
f 34/6/2 33/5/2 38/5/2 39/6/2
f 32/9/3 34/8/3 39/8/3 37/9/3
f 27/9/7 29/8/7 34/8/7 32/9/7
f 29/6/2 28/5/2 33/5/2 34/6/2
f 40/13/4 30/13/4 35/14/4 10/14/4
f 36/15/8 37/16/8 39/6/8 38/5/8
f 15/13/4 57/13/4 58/13/4 9/13/4
f 25/13/4 15/13/4 9/13/4 20/13/4
f 31/12/4 32/11/4 37/11/4 36/12/4
f 57/13/4 59/13/4 60/13/4 58/13/4
f 41/13/2 42/14/2 43/14/2 44/13/2
f 41/13/2 44/13/2 46/13/2 45/13/2
f 47/13/2 48/13/2 50/13/2 49/13/2
f 45/13/2 46/13/2 48/13/2 47/13/2
f 51/13/2 52/13/2 54/13/2 53/13/2
f 49/13/2 50/13/2 52/13/2 51/13/2
f 53/13/2 54/13/2 56/13/2 55/13/2
f 3/1/6 1/4/6 11/4/6 13/1/6
