# Blender 4.4.3
# www.blender.org
o SM_Wall_Lantern_V1.0
v 0.200000 -1.474647 0.300000
v 0.290000 -1.422187 0.210000
v 0.200000 -1.474647 -0.300000
v 0.290000 -1.422187 -0.210000
v 0.800000 -1.474647 0.300000
v 0.710000 -1.422187 0.210000
v 0.800000 -1.474647 -0.300000
v 0.710000 -1.422187 -0.210000
v 0.241779 -0.694932 0.258221
v 0.241779 -0.694932 -0.258221
v 0.758221 -0.694932 -0.258221
v 0.758221 -0.694932 0.258221
v 0.668000 -1.349462 0.214822
v 0.332000 -1.349462 0.214822
v 0.706577 -0.767658 0.253399
v 0.293423 -0.767658 0.253399
v 0.641411 -1.349462 0.141411
v 0.358589 -1.349462 0.141411
v 0.679988 -0.767658 0.179988
v 0.320012 -0.767658 0.179988
v 0.285178 -1.349462 0.168000
v 0.285178 -1.349462 -0.168000
v 0.246601 -0.767658 0.206577
v 0.246601 -0.767658 -0.206577
v 0.358589 -1.349462 -0.141411
v 0.320012 -0.767658 -0.179988
v 0.332000 -1.349462 -0.214822
v 0.668000 -1.349462 -0.214822
v 0.293423 -0.767658 -0.253399
v 0.706577 -0.767658 -0.253399
v 0.641411 -1.349462 -0.141411
v 0.679988 -0.767658 -0.179988
v 0.714822 -1.349462 -0.168000
v 0.714822 -1.349462 0.168000
v 0.753399 -0.767658 -0.206577
v 0.753399 -0.767658 0.206577
v 0.103444 -0.771581 0.396556
v 0.103444 -0.771581 -0.396556
v 0.896556 -0.771581 -0.396556
v 0.896556 -0.771581 0.396556
v 0.214981 -0.685087 0.285019
v 0.214981 -0.685087 -0.285019
v 0.785019 -0.685087 -0.285019
v 0.785019 -0.685087 0.285019
v 0.388210 -0.477546 0.113037
v 0.388210 -0.477546 -0.111972
v 0.613219 -0.477546 -0.111972
v 0.613219 -0.477546 0.113037
v 0.438630 -0.462915 0.052693
v 0.438630 -0.462915 -0.060104
v 0.551427 -0.462915 -0.060104
v 0.551427 -0.462915 0.052693
v 0.381807 -0.452456 0.109516
v 0.381807 -0.452456 -0.116927
v 0.608250 -0.452456 -0.116927
v 0.608250 -0.452456 0.109516
v 0.495028 -0.369887 -0.003706
v 0.500000 -0.268854 0.000000
v 0.480757 -0.288097 0.000000
v 0.500000 -0.307340 0.000000
v 0.519243 -0.288097 0.000000
v 0.500000 -0.297035 -0.068033
v 0.480757 -0.310641 -0.054427
v 0.500000 -0.324248 -0.040820
v 0.519243 -0.310641 -0.054427
v 0.500000 -0.365068 -0.096214
v 0.480757 -0.365068 -0.076971
v 0.500000 -0.365068 -0.057728
v 0.519243 -0.365068 -0.076971
v 0.500000 -0.433101 -0.068033
v 0.480757 -0.419495 -0.054427
v 0.500000 -0.405888 -0.040820
v 0.519243 -0.419495 -0.054427
v 0.500000 -0.433101 0.068033
v 0.480757 -0.419495 0.054427
v 0.500000 -0.405888 0.040820
v 0.519243 -0.419495 0.054427
v 0.500000 -0.365068 0.096214
v 0.480757 -0.365068 0.076971
v 0.500000 -0.365068 0.057728
v 0.519243 -0.365068 0.076971
v 0.500000 -0.297035 0.068033
v 0.480757 -0.310641 0.054427
v 0.500000 -0.324248 0.040820
v 0.519243 -0.310641 0.054427
v -0.000296 -0.048448 0.050343
v -0.000296 0.052238 0.050343
v -0.000296 -0.048448 -0.050343
v -0.000296 0.052238 -0.050343
v 0.539606 -0.130795 0.050343
v 0.539606 -0.030109 0.050343
v 0.539606 -0.130795 -0.050343
v 0.539606 -0.030109 -0.050343
v 0.706687 -0.214039 -0.050343
v 0.606334 -0.222223 -0.050343
v 0.606334 -0.222223 0.050343
v 0.706687 -0.214039 0.050343
v 0.525518 -0.370105 -0.029131
v 0.514869 -0.312825 -0.029131
v 0.514869 -0.312825 0.029131
v 0.525518 -0.370105 0.029131
v 0.387505 -0.275388 -0.021091
v 0.429150 -0.268681 -0.021091
v 0.429150 -0.268681 0.021091
v 0.387505 -0.275388 0.021091
v 0.461737 -0.169434 0.000000
v -0.000296 -0.292390 0.208278
v -0.000296 0.296180 0.208278
v -0.000296 -0.292390 -0.208278
v -0.000296 0.296180 -0.208278
v -0.081023 -0.359713 0.255925
v -0.081023 0.363503 0.255925
v -0.081023 -0.359713 -0.255925
v -0.081023 0.363503 -0.255925
vn -0.5036 0.8639 -0.0000
vn -0.0000 0.8639 -0.5036
vn 0.5036 0.8639 -0.0000
vn -0.0000 0.8639 0.5036
vn -0.0000 -1.0000 -0.0000
vn 0.9978 -0.0662 -0.0000
vn -0.0000 -0.8747 0.4847
vn -0.9978 -0.0662 -0.0000
vn -0.0000 -0.0662 0.9978
vn -0.0000 -0.0662 -0.9978
vn 0.9395 0.0397 0.3403
vn -0.9395 0.0397 0.3403
vn -0.0000 1.0000 -0.0000
vn -0.3403 0.0397 0.9395
vn -0.3403 0.0397 -0.9395
vn 0.9395 0.0397 -0.3403
vn -0.9395 0.0397 -0.3403
vn 0.3403 0.0397 0.9395
vn 0.3403 0.0397 -0.9395
vn -0.0000 0.7902 0.6128
vn -0.4847 -0.8747 -0.0000
vn 0.4847 -0.8747 -0.0000
vn -0.0000 -0.8747 -0.4847
vn -0.0000 0.7902 -0.6128
vn 0.6128 0.7902 -0.0000
vn -0.6128 0.7902 -0.0000
vn -0.0000 0.6404 -0.7680
vn 0.7703 0.6377 -0.0000
vn -0.7677 0.6408 -0.0000
vn -0.0000 0.6381 0.7700
vn 0.2304 0.9731 -0.0000
vn -0.2787 0.9604 -0.0000
vn -0.0000 0.9718 0.2356
vn -0.0000 0.9624 -0.2715
vn -0.0000 -0.9835 0.1810
vn -0.0000 -0.9835 -0.1810
vn 0.1810 -0.9835 -0.0000
vn -0.1810 -0.9835 -0.0000
vn 0.5892 0.8080 -0.0000
vn -0.5892 0.8080 -0.0000
vn -0.0000 0.8080 0.5892
vn -0.0000 0.8080 -0.5892
vn -0.6786 0.6786 -0.2811
vn -0.6786 -0.6786 0.2811
vn 0.6786 -0.6786 0.2811
vn 0.6786 0.6786 -0.2811
vn -0.6786 0.2811 -0.6786
vn -0.6786 -0.2811 0.6786
vn 0.6786 -0.2811 0.6786
vn 0.6786 0.2811 -0.6786
vn -0.6786 -0.2811 -0.6786
vn -0.6786 0.2811 0.6786
vn 0.6786 0.2811 0.6786
vn 0.6786 -0.2811 -0.6786
vn -0.6786 0.6786 0.2811
vn -0.6786 -0.6786 -0.2811
vn 0.6786 -0.6786 -0.2811
vn 0.6786 0.6786 0.2811
vn 1.0000 -0.0000 -0.0000
vn -0.0000 -0.0000 -1.0000
vn -0.0000 -0.0000 1.0000
vn -0.1508 -0.9886 -0.0000
vn 0.1508 0.9886 -0.0000
vn -0.0507 -0.1146 0.9921
vn -0.8078 -0.5895 -0.0000
vn 0.7402 0.6724 -0.0000
vn 0.4578 0.8890 -0.0000
vn -0.7038 0.7104 -0.0000
vn 0.6527 -0.7576 -0.0000
vn -0.0507 -0.1146 -0.9921
vn -0.5659 -0.8245 -0.0000
vn -0.0552 0.0267 -0.9981
vn -0.0552 0.0267 0.9981
vn -0.8190 0.5738 -0.0000
vn -0.0352 0.2188 -0.9751
vn -0.0352 0.2188 0.9751
vn 0.9501 -0.3120 -0.0000
vn 0.6405 0.7680 -0.0000
vn 0.6405 -0.7680 -0.0000
vn 0.5083 -0.0000 -0.8612
vn 0.5083 -0.0000 0.8612
vt 0.304969 0.076943
vt 0.315500 0.083081
vt 0.364643 0.083081
vt 0.375174 0.076943
vt 0.365207 0.091591
vt 0.369957 0.093027
vt 0.310921 0.093027
vt 0.295108 0.075485
vt 0.385770 0.075485
vt 0.309857 0.168176
vt 0.310422 0.159666
vt 0.370285 0.168176
vt 0.364242 0.159666
vt 0.359729 0.091591
vt 0.315900 0.159666
vt 0.320414 0.091591
vt 0.323525 0.091591
vt 0.319011 0.159666
vt 0.195755 0.075665
vt 0.290002 0.075665
vt 0.290002 0.168883
vt 0.195755 0.168883
vt 0.361131 0.159666
vt 0.356617 0.091591
vt 0.314935 0.091591
vt 0.369721 0.159666
vt 0.295108 0.075485
vt 0.385770 0.075485
vt 0.373020 0.095280
vt 0.307858 0.095280
vt 0.327660 0.142778
vt 0.353381 0.142778
vt 0.346318 0.146126
vt 0.333423 0.146126
vt 0.352813 0.148520
vt 0.326928 0.148520
vt 0.339871 0.167417
vt 0.340035 0.159575
vt 0.373702 0.145630
vt 0.366968 0.138897
vt 0.340035 0.150053
vt 0.360235 0.132163
vt 0.340035 0.140531
vt 0.387647 0.111963
vt 0.378124 0.111963
vt 0.368602 0.111963
vt 0.373702 0.078297
vt 0.366968 0.085030
vt 0.360235 0.091763
vt 0.306368 0.078297
vt 0.292423 0.111963
vt 0.301945 0.111963
vt 0.313101 0.085030
vt 0.311468 0.111963
vt 0.319835 0.091763
vt 0.306368 0.145630
vt 0.313101 0.138897
vt 0.319835 0.132163
vt 0.350072 0.078047
vt 0.336142 0.078047
vt 0.314225 0.078047
vt 0.370678 0.078047
vt 0.329350 0.076557
vt 0.317531 0.076557
vt 0.317531 0.140539
vt 0.329350 0.140539
vt 0.336428 0.162538
vt 0.336428 0.151124
vt 0.350476 0.142412
vt 0.356979 0.144806
vt 0.347893 0.132492
vt 0.347893 0.126952
vt 0.334743 0.132492
vt 0.350062 0.078047
vt 0.371979 0.078047
vt 0.336132 0.078047
vt 0.315525 0.078047
vt 0.385109 0.078047
vt 0.301095 0.078047
vt 0.385109 0.078047
s 0
f 1/1/1 2/2/1 4/2/1 3/1/1
f 3/1/2 4/2/2 8/3/2 7/4/2
f 7/4/3 8/3/3 6/3/3 5/4/3
f 5/4/4 6/3/4 2/2/4 1/1/4
f 3/1/5 7/4/5 5/4/5 1/1/5
f 6/3/6 8/3/6 33/5/6 34/5/6
f 11/6/7 10/7/7 38/8/7 39/9/7
f 9/10/8 10/10/8 24/11/8 23/11/8
f 6/3/9 12/12/9 15/13/9 13/14/9
f 4/2/10 10/10/10 29/15/10 27/16/10
f 16/15/11 14/16/11 18/17/11 20/18/11
f 12/12/9 9/10/9 16/15/9 15/13/9
f 2/2/9 6/3/9 13/14/9 14/16/9
f 9/10/9 2/2/9 14/16/9 16/15/9
f 18/19/9 17/20/9 19/21/9 20/22/9
f 15/13/5 16/15/5 20/18/5 19/23/5
f 13/14/12 15/13/12 19/23/12 17/24/12
f 14/16/13 13/14/13 17/24/13 18/17/13
f 22/25/13 21/25/13 18/17/13 25/17/13
f 10/10/8 4/2/8 22/25/8 24/11/8
f 4/2/8 2/2/8 21/25/8 22/25/8
f 2/2/8 9/10/8 23/11/8 21/25/8
f 25/19/8 18/20/8 20/21/8 26/22/8
f 24/11/14 22/25/14 25/17/14 26/18/14
f 23/11/5 24/11/5 26/18/5 20/18/5
f 21/25/15 23/11/15 20/18/15 18/17/15
f 28/14/13 27/16/13 25/17/13 31/24/13
f 10/10/10 11/12/10 30/13/10 29/15/10
f 8/3/10 4/2/10 27/16/10 28/14/10
f 11/12/10 8/3/10 28/14/10 30/13/10
f 31/19/10 25/20/10 26/21/10 32/22/10
f 27/16/16 29/15/16 26/18/16 25/17/16
f 29/15/5 30/13/5 32/23/5 26/18/5
f 30/13/17 28/14/17 31/24/17 32/23/17
f 33/5/18 35/26/18 32/23/18 31/24/18
f 12/12/6 6/3/6 34/5/6 36/26/6
f 8/3/6 11/12/6 35/26/6 33/5/6
f 11/12/6 12/12/6 36/26/6 35/26/6
f 17/19/6 31/20/6 32/21/6 19/22/6
f 34/5/13 33/5/13 31/24/13 17/24/13
f 36/26/19 34/5/19 17/24/19 19/23/19
f 35/26/5 36/26/5 19/23/5 32/23/5
f 37/27/20 40/28/20 44/29/20 41/30/20
f 12/6/21 11/6/21 39/9/21 40/28/21
f 10/7/22 9/7/22 37/27/22 38/8/22
f 9/7/23 12/6/23 40/28/23 37/27/23
f 39/9/24 38/8/24 42/30/24 43/29/24
f 40/28/25 39/9/25 43/29/25 44/29/25
f 38/8/26 37/27/26 41/30/26 42/30/26
f 43/29/27 42/30/27 46/31/27 47/32/27
f 44/29/28 43/29/28 47/32/28 48/32/28
f 42/30/29 41/30/29 45/31/29 46/31/29
f 41/30/30 44/29/30 48/32/30 45/31/30
f 48/32/31 47/32/31 51/33/31 52/33/31
f 46/31/32 45/31/32 49/34/32 50/34/32
f 45/31/33 48/32/33 52/33/33 49/34/33
f 47/32/34 46/31/34 50/34/34 51/33/34
f 49/34/35 52/33/35 56/35/35 53/36/35
f 51/33/36 50/34/36 54/36/36 55/35/36
f 52/33/37 51/33/37 55/35/37 56/35/37
f 50/34/38 49/34/38 53/36/38 54/36/38
f 56/35/39 55/35/39 57/37/39
f 54/36/40 53/36/40 57/37/40
f 53/36/41 56/35/41 57/37/41
f 55/35/42 54/36/42 57/37/42
f 58/38/43 62/39/43 63/40/43 59/41/43
f 59/41/44 63/40/44 64/42/44 60/43/44
f 60/43/45 64/42/45 65/40/45 61/41/45
f 61/41/46 65/40/46 62/39/46 58/38/46
f 62/39/47 66/44/47 67/45/47 63/40/47
f 63/40/48 67/45/48 68/46/48 64/42/48
f 64/42/49 68/46/49 69/45/49 65/40/49
f 65/40/50 69/45/50 66/44/50 62/39/50
f 66/44/51 70/47/51 71/48/51 67/45/51
f 67/45/52 71/48/52 72/49/52 68/46/52
f 68/46/53 72/49/53 73/48/53 69/45/53
f 69/45/54 73/48/54 70/47/54 66/44/54
f 74/50/48 78/51/48 79/52/48 75/53/48
f 75/53/47 79/52/47 80/54/47 76/55/47
f 76/55/50 80/54/50 81/52/50 77/53/50
f 77/53/49 81/52/49 78/51/49 74/50/49
f 78/51/52 82/56/52 83/57/52 79/52/52
f 79/52/51 83/57/51 84/58/51 80/54/51
f 80/54/54 84/58/54 85/57/54 81/52/54
f 81/52/53 85/57/53 82/56/53 78/51/53
f 82/56/55 58/38/55 59/41/55 83/57/55
f 83/57/56 59/41/56 60/43/56 84/58/56
f 84/58/57 60/43/57 61/41/57 85/57/57
f 85/57/58 61/41/58 58/38/58 82/56/58
f 88/59/59 86/60/59 107/61/59 109/62/59
f 88/63/60 89/64/60 93/65/60 92/66/60
f 92/66/60 93/65/60 94/67/60 95/68/60
f 90/66/61 91/65/61 87/64/61 86/63/61
f 88/63/62 92/66/62 90/66/62 86/63/62
f 93/65/63 89/64/63 87/64/63 91/65/63
f 97/67/64 96/68/64 100/69/64 101/70/64
f 91/65/61 90/66/61 96/68/61 97/67/61
f 90/66/65 92/66/65 95/68/65 96/68/65
f 93/65/66 91/65/66 97/67/66 94/67/66
f 100/69/67 99/69/67 103/71/67 104/71/67
f 96/68/68 95/68/68 99/69/68 100/69/68
f 94/67/69 97/67/69 101/70/69 98/70/69
f 95/68/70 94/67/70 98/70/70 99/69/70
f 98/70/71 101/70/71 105/72/71 102/72/71
f 99/69/72 98/70/72 102/72/72 103/71/72
f 101/70/73 100/69/73 104/71/73 105/72/73
f 102/72/74 105/72/74 106/73/74
f 103/71/75 102/72/75 106/73/75
f 105/72/76 104/71/76 106/73/76
f 104/71/77 103/71/77 106/73/77
f 89/74/59 88/59/59 109/62/59 110/75/59
f 86/60/59 87/76/59 108/77/59 107/61/59
f 87/76/59 89/74/59 110/75/59 108/77/59
f 108/77/78 110/75/78 114/78/78 112/79/78
f 109/62/79 107/61/79 111/79/79 113/80/79
f 110/75/80 109/62/80 113/80/80 114/78/80
f 107/61/81 108/77/81 112/79/81 111/79/81
